<?xml version="1.0" encoding="UTF-8" standalone="no"?>
<!DOCTYPE svg PUBLIC "-//W3C//DTD SVG 1.1//EN"
 "http://www.w3.org/Graphics/SVG/1.1/DTD/svg11.dtd">
<!-- Generated by graphviz version 2.40.1 (20161225.0304)
 -->
<!-- Title: src/dblib/dblib.c Pages: 1 -->
<svg width="1450pt" height="252pt"
 viewBox="0.00 0.00 1450.00 252.00" xmlns="http://www.w3.org/2000/svg" xmlns:xlink="http://www.w3.org/1999/xlink">
<g id="graph0" class="graph" transform="scale(1 1) rotate(0) translate(4 248)">
<title>src/dblib/dblib.c</title>
<polygon fill="#ffffff" stroke="transparent" points="-4,4 -4,-248 1446,-248 1446,4 -4,4"/>
<!-- Node1 -->
<g id="node1" class="node">
<title>Node1</title>
<g id="a_node1"><a xlink:title=" ">
<polygon fill="#bfbfbf" stroke="#000000" points="729.5,-224.5 729.5,-243.5 814.5,-243.5 814.5,-224.5 729.5,-224.5"/>
<text text-anchor="middle" x="772" y="-231.5" font-family="Helvetica,sans-Serif" font-size="10.00" fill="#000000">src/dblib/dblib.c</text>
</a>
</g>
</g>
<!-- Node2 -->
<g id="node2" class="node">
<title>Node2</title>
<g id="a_node2"><a xlink:href="a00356_source.html" target="_top" xlink:title=" ">
<polygon fill="#ffffff" stroke="#000000" points="379.5,-.5 379.5,-19.5 430.5,-19.5 430.5,-.5 379.5,-.5"/>
<text text-anchor="middle" x="405" y="-7.5" font-family="Helvetica,sans-Serif" font-size="10.00" fill="#000000">config.h</text>
</a>
</g>
</g>
<!-- Node1&#45;&gt;Node2 -->
<g id="edge1" class="edge">
<title>Node1&#45;&gt;Node2</title>
<path fill="none" stroke="#191970" d="M729.1045,-233.1885C609.1686,-229.9037 274.9486,-213.471 211,-132 162.982,-70.8248 301.3914,-31.9439 369.5333,-16.9768"/>
<polygon fill="#191970" stroke="#191970" points="370.3891,-20.3731 379.4372,-14.8611 368.9266,-13.5275 370.3891,-20.3731"/>
</g>
<!-- Node3 -->
<g id="node3" class="node">
<title>Node3</title>
<g id="a_node3"><a xlink:title=" ">
<polygon fill="#ffffff" stroke="#bfbfbf" points="898,-56.5 898,-75.5 950,-75.5 950,-56.5 898,-56.5"/>
<text text-anchor="middle" x="924" y="-63.5" font-family="Helvetica,sans-Serif" font-size="10.00" fill="#000000">stdarg.h</text>
</a>
</g>
</g>
<!-- Node1&#45;&gt;Node3 -->
<g id="edge2" class="edge">
<title>Node1&#45;&gt;Node3</title>
<path fill="none" stroke="#191970" d="M800.9693,-224.3833C837.5265,-210.4963 898.7892,-180.9753 925,-132 932.5948,-117.8091 931.5549,-99.323 929.0689,-85.5263"/>
<polygon fill="#191970" stroke="#191970" points="932.4617,-84.658 926.9025,-75.6388 925.6239,-86.1562 932.4617,-84.658"/>
</g>
<!-- Node4 -->
<g id="node4" class="node">
<title>Node4</title>
<g id="a_node4"><a xlink:href="a00443_source.html" target="_top" xlink:title=" ">
<polygon fill="#ffffff" stroke="#000000" points="220.5,-112.5 220.5,-131.5 297.5,-131.5 297.5,-112.5 220.5,-112.5"/>
<text text-anchor="middle" x="259" y="-119.5" font-family="Helvetica,sans-Serif" font-size="10.00" fill="#000000">freetds/time.h</text>
</a>
</g>
</g>
<!-- Node1&#45;&gt;Node4 -->
<g id="edge3" class="edge">
<title>Node1&#45;&gt;Node4</title>
<path fill="none" stroke="#191970" d="M729.4518,-226.8631C680.1087,-218.4044 596.4008,-203.4925 525,-188 447.025,-171.081 357.0673,-148.0077 304.2835,-134.1026"/>
<polygon fill="#191970" stroke="#191970" points="305.1166,-130.7027 294.5543,-131.5324 303.3287,-137.4705 305.1166,-130.7027"/>
</g>
<!-- Node5 -->
<g id="node5" class="node">
<title>Node5</title>
<g id="a_node5"><a xlink:title=" ">
<polygon fill="#ffffff" stroke="#bfbfbf" points="154,-168.5 154,-187.5 206,-187.5 206,-168.5 154,-168.5"/>
<text text-anchor="middle" x="180" y="-175.5" font-family="Helvetica,sans-Serif" font-size="10.00" fill="#000000">assert.h</text>
</a>
</g>
</g>
<!-- Node1&#45;&gt;Node5 -->
<g id="edge5" class="edge">
<title>Node1&#45;&gt;Node5</title>
<path fill="none" stroke="#191970" d="M729.4684,-232.799C636.4786,-229.6618 408.3254,-219.1769 220,-188 218.7288,-187.7896 217.4387,-187.5593 216.1385,-187.313"/>
<polygon fill="#191970" stroke="#191970" points="216.6334,-183.8398 206.123,-185.1749 215.1719,-190.6856 216.6334,-183.8398"/>
</g>
<!-- Node6 -->
<g id="node6" class="node">
<title>Node6</title>
<g id="a_node6"><a xlink:title=" ">
<polygon fill="#ffffff" stroke="#bfbfbf" points="334,-112.5 334,-131.5 380,-131.5 380,-112.5 334,-112.5"/>
<text text-anchor="middle" x="357" y="-119.5" font-family="Helvetica,sans-Serif" font-size="10.00" fill="#000000">stdio.h</text>
</a>
</g>
</g>
<!-- Node1&#45;&gt;Node6 -->
<g id="edge6" class="edge">
<title>Node1&#45;&gt;Node6</title>
<path fill="none" stroke="#191970" d="M736.5612,-224.4422C669.6216,-206.3876 519.9932,-166.0252 394,-132 392.7353,-131.6585 391.4463,-131.3103 390.1442,-130.9586"/>
<polygon fill="#191970" stroke="#191970" points="390.659,-127.4722 380.0922,-128.2427 388.8331,-134.2299 390.659,-127.4722"/>
</g>
<!-- Node7 -->
<g id="node7" class="node">
<title>Node7</title>
<g id="a_node7"><a xlink:href="a00437.html" target="_top" xlink:title=" ">
<polygon fill="#ffffff" stroke="#000000" points="654.5,-168.5 654.5,-187.5 725.5,-187.5 725.5,-168.5 654.5,-168.5"/>
<text text-anchor="middle" x="690" y="-175.5" font-family="Helvetica,sans-Serif" font-size="10.00" fill="#000000">freetds/tds.h</text>
</a>
</g>
</g>
<!-- Node1&#45;&gt;Node7 -->
<g id="edge7" class="edge">
<title>Node1&#45;&gt;Node7</title>
<path fill="none" stroke="#191970" d="M757.7167,-224.2455C745.253,-215.7337 726.9549,-203.2375 712.5208,-193.3801"/>
<polygon fill="#191970" stroke="#191970" points="714.3515,-190.392 704.1196,-187.6427 710.4038,-196.1726 714.3515,-190.392"/>
</g>
<!-- Node12 -->
<g id="node12" class="node">
<title>Node12</title>
<g id="a_node12"><a xlink:href="a00440_source.html" target="_top" xlink:title=" ">
<polygon fill="#ffffff" stroke="#000000" points="78.5,-112.5 78.5,-131.5 163.5,-131.5 163.5,-112.5 78.5,-112.5"/>
<text text-anchor="middle" x="121" y="-119.5" font-family="Helvetica,sans-Serif" font-size="10.00" fill="#000000">freetds/thread.h</text>
</a>
</g>
</g>
<!-- Node1&#45;&gt;Node12 -->
<g id="edge39" class="edge">
<title>Node1&#45;&gt;Node12</title>
<path fill="none" stroke="#191970" d="M729.2677,-233.517C595.5756,-231.6441 191.4065,-223.1052 145,-188 130.6029,-177.109 124.8313,-156.7384 122.5236,-141.4967"/>
<polygon fill="#191970" stroke="#191970" points="125.9956,-141.0511 121.3817,-131.5137 119.0409,-141.8467 125.9956,-141.0511"/>
</g>
<!-- Node15 -->
<g id="node15" class="node">
<title>Node15</title>
<g id="a_node15"><a xlink:href="a00470_source.html" target="_top" xlink:title=" ">
<polygon fill="#ffffff" stroke="#000000" points="1066.5,-112.5 1066.5,-131.5 1169.5,-131.5 1169.5,-112.5 1066.5,-112.5"/>
<text text-anchor="middle" x="1118" y="-119.5" font-family="Helvetica,sans-Serif" font-size="10.00" fill="#000000">freetds/utils/string.h</text>
</a>
</g>
</g>
<!-- Node1&#45;&gt;Node15 -->
<g id="edge43" class="edge">
<title>Node1&#45;&gt;Node15</title>
<path fill="none" stroke="#191970" d="M814.7607,-230.2017C882.5936,-223.6422 1011.3487,-208.8604 1052,-188 1073.9343,-176.7443 1093.1082,-155.5565 1105.0556,-140.2172"/>
<polygon fill="#191970" stroke="#191970" points="1108.0304,-142.0838 1111.2213,-131.9809 1102.4266,-137.8888 1108.0304,-142.0838"/>
</g>
<!-- Node18 -->
<g id="node18" class="node">
<title>Node18</title>
<g id="a_node18"><a xlink:href="a00491_source.html" target="_top" xlink:title=" ">
<polygon fill="#ffffff" stroke="#000000" points="812.5,-112.5 812.5,-131.5 895.5,-131.5 895.5,-112.5 812.5,-112.5"/>
<text text-anchor="middle" x="854" y="-119.5" font-family="Helvetica,sans-Serif" font-size="10.00" fill="#000000">replacements.h</text>
</a>
</g>
</g>
<!-- Node1&#45;&gt;Node18 -->
<g id="edge47" class="edge">
<title>Node1&#45;&gt;Node18</title>
<path fill="none" stroke="#191970" d="M778.9913,-224.4509C792.7284,-205.688 823.4296,-163.7548 840.9986,-139.758"/>
<polygon fill="#191970" stroke="#191970" points="843.943,-141.6611 847.0264,-131.5249 838.295,-137.5259 843.943,-141.6611"/>
</g>
<!-- Node22 -->
<g id="node22" class="node">
<title>Node22</title>
<g id="a_node22"><a xlink:href="a00398_source.html" target="_top" xlink:title=" ">
<polygon fill="#ffffff" stroke="#000000" points="1152,-56.5 1152,-75.5 1242,-75.5 1242,-56.5 1152,-56.5"/>
<text text-anchor="middle" x="1197" y="-63.5" font-family="Helvetica,sans-Serif" font-size="10.00" fill="#000000">freetds/convert.h</text>
</a>
</g>
</g>
<!-- Node1&#45;&gt;Node22 -->
<g id="edge40" class="edge">
<title>Node1&#45;&gt;Node22</title>
<path fill="none" stroke="#191970" d="M814.6002,-232.4525C874.9497,-229.1887 988.106,-219.0938 1079,-188 1127.1967,-171.5124 1147.6367,-172.1386 1179,-132 1189.3862,-118.7078 1193.7883,-99.8492 1195.6494,-85.6922"/>
<polygon fill="#191970" stroke="#191970" points="1199.1518,-85.8412 1196.6629,-75.5429 1192.1865,-85.1455 1199.1518,-85.8412"/>
</g>
<!-- Node23 -->
<g id="node23" class="node">
<title>Node23</title>
<g id="a_node23"><a xlink:href="a00401_source.html" target="_top" xlink:title=" ">
<polygon fill="#ffffff" stroke="#000000" points="1260.5,-56.5 1260.5,-75.5 1337.5,-75.5 1337.5,-56.5 1260.5,-56.5"/>
<text text-anchor="middle" x="1299" y="-63.5" font-family="Helvetica,sans-Serif" font-size="10.00" fill="#000000">freetds/data.h</text>
</a>
</g>
</g>
<!-- Node1&#45;&gt;Node23 -->
<g id="edge44" class="edge">
<title>Node1&#45;&gt;Node23</title>
<path fill="none" stroke="#191970" d="M814.6876,-230.8723C895.0908,-224.5722 1065.8585,-209.131 1121,-188 1186.2339,-163.0014 1250.8751,-109.6925 1281.1767,-82.5785"/>
<polygon fill="#191970" stroke="#191970" points="1283.7337,-84.9843 1288.7846,-75.6709 1279.0283,-79.8018 1283.7337,-84.9843"/>
</g>
<!-- Node24 -->
<g id="node24" class="node">
<title>Node24</title>
<g id="a_node24"><a xlink:href="a00509_source.html" target="_top" xlink:title=" ">
<polygon fill="#ffffff" stroke="#000000" points="0,-168.5 0,-187.5 60,-187.5 60,-168.5 0,-168.5"/>
<text text-anchor="middle" x="30" y="-175.5" font-family="Helvetica,sans-Serif" font-size="10.00" fill="#000000">sybfront.h</text>
</a>
</g>
</g>
<!-- Node1&#45;&gt;Node24 -->
<g id="edge48" class="edge">
<title>Node1&#45;&gt;Node24</title>
<path fill="none" stroke="#191970" d="M729.2633,-233.523C619.7517,-231.7953 320.3593,-223.8845 74,-188 72.7355,-187.8158 71.4534,-187.6145 70.1613,-187.399"/>
<polygon fill="#191970" stroke="#191970" points="70.6543,-183.9303 60.179,-185.5174 69.3576,-190.8092 70.6543,-183.9303"/>
</g>
<!-- Node25 -->
<g id="node25" class="node">
<title>Node25</title>
<g id="a_node25"><a xlink:href="a00503.html" target="_top" xlink:title="Primary include file for db&#45;lib applications.">
<polygon fill="#ffffff" stroke="#000000" points="9.5,-112.5 9.5,-131.5 60.5,-131.5 60.5,-112.5 9.5,-112.5"/>
<text text-anchor="middle" x="35" y="-119.5" font-family="Helvetica,sans-Serif" font-size="10.00" fill="#000000">sybdb.h</text>
</a>
</g>
</g>
<!-- Node1&#45;&gt;Node25 -->
<g id="edge51" class="edge">
<title>Node1&#45;&gt;Node25</title>
<path fill="none" stroke="#191970" d="M729.2312,-232.3012C594.3282,-226.7557 183.3543,-208.3636 127,-188 97.7671,-177.4367 69.5469,-154.7422 52.2415,-138.933"/>
<polygon fill="#191970" stroke="#191970" points="54.3486,-136.11 44.6662,-131.8085 49.5529,-141.2092 54.3486,-136.11"/>
</g>
<!-- Node26 -->
<g id="node26" class="node">
<title>Node26</title>
<g id="a_node26"><a xlink:href="a00506_source.html" target="_top" xlink:title=" ">
<polygon fill="#ffffff" stroke="#000000" points="1264.5,-168.5 1264.5,-187.5 1323.5,-187.5 1323.5,-168.5 1264.5,-168.5"/>
<text text-anchor="middle" x="1294" y="-175.5" font-family="Helvetica,sans-Serif" font-size="10.00" fill="#000000">syberror.h</text>
</a>
</g>
</g>
<!-- Node1&#45;&gt;Node26 -->
<g id="edge52" class="edge">
<title>Node1&#45;&gt;Node26</title>
<path fill="none" stroke="#191970" d="M814.757,-231.7197C898.6452,-226.8415 1090.5272,-213.6878 1250,-188 1251.4501,-187.7664 1252.9239,-187.5134 1254.41,-187.2451"/>
<polygon fill="#191970" stroke="#191970" points="1255.1466,-190.6673 1264.2784,-185.2951 1253.7895,-183.8001 1255.1466,-190.6673"/>
</g>
<!-- Node27 -->
<g id="node27" class="node">
<title>Node27</title>
<g id="a_node27"><a xlink:href="a00371_source.html" target="_top" xlink:title=" ">
<polygon fill="#ffffff" stroke="#000000" points="1355.5,-56.5 1355.5,-75.5 1400.5,-75.5 1400.5,-56.5 1355.5,-56.5"/>
<text text-anchor="middle" x="1378" y="-63.5" font-family="Helvetica,sans-Serif" font-size="10.00" fill="#000000">dblib.h</text>
</a>
</g>
</g>
<!-- Node1&#45;&gt;Node27 -->
<g id="edge53" class="edge">
<title>Node1&#45;&gt;Node27</title>
<path fill="none" stroke="#191970" d="M814.5433,-233.1156C938.3005,-230.1854 1291.9997,-219.144 1333,-188 1365.2325,-163.5161 1374.3889,-113.4835 1376.9823,-85.6999"/>
<polygon fill="#191970" stroke="#191970" points="1380.4815,-85.8376 1377.7236,-75.608 1373.5003,-85.3247 1380.4815,-85.8376"/>
</g>
<!-- Node28 -->
<g id="node28" class="node">
<title>Node28</title>
<g id="a_node28"><a xlink:href="a00077_source.html" target="_top" xlink:title=" ">
<polygon fill="#ffffff" stroke="#000000" points="1380,-168.5 1380,-187.5 1442,-187.5 1442,-168.5 1380,-168.5"/>
<text text-anchor="middle" x="1411" y="-175.5" font-family="Helvetica,sans-Serif" font-size="10.00" fill="#000000">buffering.h</text>
</a>
</g>
</g>
<!-- Node1&#45;&gt;Node28 -->
<g id="edge56" class="edge">
<title>Node1&#45;&gt;Node28</title>
<path fill="none" stroke="#191970" d="M814.7281,-232.7627C912.6982,-229.4745 1160.8818,-218.5765 1366,-188 1367.2467,-187.8142 1368.5103,-187.6133 1369.7841,-187.4001"/>
<polygon fill="#191970" stroke="#191970" points="1370.4452,-190.8372 1379.6345,-185.5639 1369.1624,-183.9557 1370.4452,-190.8372"/>
</g>
<!-- Node4&#45;&gt;Node4 -->
<g id="edge4" class="edge">
<title>Node4&#45;&gt;Node4</title>
<path fill="none" stroke="#191970" d="M283.0973,-131.5252C299.4709,-134.3079 315.5,-131.1328 315.5,-122 315.5,-114.7936 305.5199,-111.2967 293.2655,-111.5091"/>
<polygon fill="#191970" stroke="#191970" points="292.7216,-108.0449 283.0973,-112.4748 293.3835,-115.0136 292.7216,-108.0449"/>
</g>
<!-- Node7&#45;&gt;Node3 -->
<g id="edge8" class="edge">
<title>Node7&#45;&gt;Node3</title>
<path fill="none" stroke="#191970" d="M725.8025,-174.7694C780.0278,-169.1654 879.39,-155.8887 905,-132 917.6456,-120.2043 922.0612,-100.5908 923.5131,-85.8034"/>
<polygon fill="#191970" stroke="#191970" points="927.0173,-85.8402 924.133,-75.6455 920.0303,-85.4138 927.0173,-85.8402"/>
</g>
<!-- Node7&#45;&gt;Node4 -->
<g id="edge10" class="edge">
<title>Node7&#45;&gt;Node4</title>
<path fill="none" stroke="#191970" d="M654.4698,-173.8214C589.1637,-166.0744 445.6747,-148.7435 325,-132 319.4757,-131.2335 313.6959,-130.4018 307.9521,-129.5565"/>
<polygon fill="#191970" stroke="#191970" points="308.1213,-126.0431 297.7147,-128.0314 307.0898,-132.9667 308.1213,-126.0431"/>
</g>
<!-- Node7&#45;&gt;Node6 -->
<g id="edge9" class="edge">
<title>Node7&#45;&gt;Node6</title>
<path fill="none" stroke="#191970" d="M654.2305,-173.7303C598.3515,-166.7712 487.0981,-151.7525 394,-132 392.7551,-131.7359 391.4897,-131.4554 390.2139,-131.1625"/>
<polygon fill="#191970" stroke="#191970" points="390.9411,-127.737 380.3938,-128.7387 389.2637,-134.5331 390.9411,-127.737"/>
</g>
<!-- Node8 -->
<g id="node8" class="node">
<title>Node8</title>
<g id="a_node8"><a xlink:href="a00476_source.html" target="_top" xlink:title=" ">
<polygon fill="#ffffff" stroke="#000000" points="572.5,-112.5 572.5,-131.5 661.5,-131.5 661.5,-112.5 572.5,-112.5"/>
<text text-anchor="middle" x="617" y="-119.5" font-family="Helvetica,sans-Serif" font-size="10.00" fill="#000000">freetds/version.h</text>
</a>
</g>
</g>
<!-- Node7&#45;&gt;Node8 -->
<g id="edge11" class="edge">
<title>Node7&#45;&gt;Node8</title>
<path fill="none" stroke="#191970" d="M677.2844,-168.2455C666.398,-159.8943 650.5117,-147.7076 637.78,-137.9408"/>
<polygon fill="#191970" stroke="#191970" points="639.6346,-134.9523 629.5699,-131.6427 635.3739,-140.5063 639.6346,-134.9523"/>
</g>
<!-- Node9 -->
<g id="node9" class="node">
<title>Node9</title>
<g id="a_node9"><a xlink:href="a00512_source.html" target="_top" xlink:title=" ">
<polygon fill="#ffffff" stroke="#000000" points="58,-56.5 58,-75.5 164,-75.5 164,-56.5 58,-56.5"/>
<text text-anchor="middle" x="111" y="-63.5" font-family="Helvetica,sans-Serif" font-size="10.00" fill="#000000">tds_sysdep_public.h</text>
</a>
</g>
</g>
<!-- Node7&#45;&gt;Node9 -->
<g id="edge12" class="edge">
<title>Node7&#45;&gt;Node9</title>
<path fill="none" stroke="#191970" d="M654.2494,-174.5835C603.7927,-169.1012 509.2269,-156.389 432,-132 411.9013,-125.6526 409.1379,-118.222 389,-112 317.129,-89.7939 231.2988,-77.668 174.2088,-71.5246"/>
<polygon fill="#191970" stroke="#191970" points="174.5556,-68.0418 164.2455,-70.4818 173.8269,-75.0038 174.5556,-68.0418"/>
</g>
<!-- Node11 -->
<g id="node11" class="node">
<title>Node11</title>
<g id="a_node11"><a xlink:href="a00434_source.html" target="_top" xlink:title=" ">
<polygon fill="#ffffff" stroke="#000000" points="387,-56.5 387,-75.5 511,-75.5 511,-56.5 387,-56.5"/>
<text text-anchor="middle" x="449" y="-63.5" font-family="Helvetica,sans-Serif" font-size="10.00" fill="#000000">freetds/sysdep_private.h</text>
</a>
</g>
</g>
<!-- Node7&#45;&gt;Node11 -->
<g id="edge14" class="edge">
<title>Node7&#45;&gt;Node11</title>
<path fill="none" stroke="#191970" d="M690.1449,-168.3416C689.8051,-153.8865 686.9168,-126.7511 671,-112 659.8733,-101.6882 581.6364,-87.1137 521.1543,-77.1504"/>
<polygon fill="#191970" stroke="#191970" points="521.6661,-73.6877 511.2328,-75.5308 520.5383,-80.5962 521.6661,-73.6877"/>
</g>
<!-- Node7&#45;&gt;Node12 -->
<g id="edge15" class="edge">
<title>Node7&#45;&gt;Node12</title>
<path fill="none" stroke="#191970" d="M654.229,-174.7487C574.5779,-167.4686 376.5725,-149.1477 211,-132 198.9054,-130.7474 185.9038,-129.3389 173.6473,-127.983"/>
<polygon fill="#191970" stroke="#191970" points="173.889,-124.4884 163.5633,-126.861 173.1149,-131.4455 173.889,-124.4884"/>
</g>
<!-- Node13 -->
<g id="node13" class="node">
<title>Node13</title>
<g id="a_node13"><a xlink:href="a00380_source.html" target="_top" xlink:title=" ">
<polygon fill="#ffffff" stroke="#000000" points="718,-112.5 718,-131.5 794,-131.5 794,-112.5 718,-112.5"/>
<text text-anchor="middle" x="756" y="-119.5" font-family="Helvetica,sans-Serif" font-size="10.00" fill="#000000">freetds/bool.h</text>
</a>
</g>
</g>
<!-- Node7&#45;&gt;Node13 -->
<g id="edge17" class="edge">
<title>Node7&#45;&gt;Node13</title>
<path fill="none" stroke="#191970" d="M701.4963,-168.2455C711.2442,-159.9746 725.4259,-147.9416 736.8798,-138.2232"/>
<polygon fill="#191970" stroke="#191970" points="739.2747,-140.7813 744.6354,-131.6427 734.7459,-135.4437 739.2747,-140.7813"/>
</g>
<!-- Node14 -->
<g id="node14" class="node">
<title>Node14</title>
<g id="a_node14"><a xlink:href="a00413_source.html" target="_top" xlink:title=" ">
<polygon fill="#ffffff" stroke="#000000" points="1006,-56.5 1006,-75.5 1096,-75.5 1096,-56.5 1006,-56.5"/>
<text text-anchor="middle" x="1051" y="-63.5" font-family="Helvetica,sans-Serif" font-size="10.00" fill="#000000">freetds/macros.h</text>
</a>
</g>
</g>
<!-- Node7&#45;&gt;Node14 -->
<g id="edge18" class="edge">
<title>Node7&#45;&gt;Node14</title>
<path fill="none" stroke="#191970" d="M725.7201,-174.7487C792.2027,-168.291 932.1603,-152.6691 976,-132 1000.0915,-120.6416 1022.2671,-99.1615 1036.1566,-83.7899"/>
<polygon fill="#191970" stroke="#191970" points="1039.0353,-85.8147 1042.98,-75.9816 1033.7643,-81.2085 1039.0353,-85.8147"/>
</g>
<!-- Node7&#45;&gt;Node15 -->
<g id="edge19" class="edge">
<title>Node7&#45;&gt;Node15</title>
<path fill="none" stroke="#191970" d="M725.7549,-173.3218C798.6868,-163.7793 965.3769,-141.9694 1056.2135,-130.0842"/>
<polygon fill="#191970" stroke="#191970" points="1056.9068,-133.5234 1066.3682,-128.7556 1055.9986,-126.5826 1056.9068,-133.5234"/>
</g>
<!-- Node16 -->
<g id="node16" class="node">
<title>Node16</title>
<g id="a_node16"><a xlink:href="a00425_source.html" target="_top" xlink:title=" ">
<polygon fill="#ffffff" stroke="#000000" points="1041,-.5 1041,-19.5 1133,-19.5 1133,-.5 1041,-.5"/>
<text text-anchor="middle" x="1087" y="-7.5" font-family="Helvetica,sans-Serif" font-size="10.00" fill="#000000">freetds/pushvis.h</text>
</a>
</g>
</g>
<!-- Node7&#45;&gt;Node16 -->
<g id="edge36" class="edge">
<title>Node7&#45;&gt;Node16</title>
<path fill="none" stroke="#191970" d="M725.5039,-173.7423C782.4188,-166.4729 891.1234,-150.6329 925,-132 965.769,-109.5762 959.7478,-83.8785 997,-56 1014.4252,-42.9595 1036.0919,-31.7572 1053.7997,-23.6731"/>
<polygon fill="#191970" stroke="#191970" points="1055.4576,-26.7665 1063.178,-19.5108 1052.6179,-20.3684 1055.4576,-26.7665"/>
</g>
<!-- Node17 -->
<g id="node17" class="node">
<title>Node17</title>
<g id="a_node17"><a xlink:href="a00419_source.html" target="_top" xlink:title=" ">
<polygon fill="#ffffff" stroke="#000000" points="829,-.5 829,-19.5 915,-19.5 915,-.5 829,-.5"/>
<text text-anchor="middle" x="872" y="-7.5" font-family="Helvetica,sans-Serif" font-size="10.00" fill="#000000">freetds/popvis.h</text>
</a>
</g>
</g>
<!-- Node7&#45;&gt;Node17 -->
<g id="edge38" class="edge">
<title>Node7&#45;&gt;Node17</title>
<path fill="none" stroke="#191970" d="M654.1328,-174.7913C608.7115,-169.8104 528.6957,-157.9439 465,-132 443.7064,-123.3269 389.0117,-96.1837 378,-76 373.7428,-68.1969 372.0131,-62.5703 378,-56 407.2427,-23.9078 696.8515,-13.8329 818.5626,-11.0008"/>
<polygon fill="#191970" stroke="#191970" points="818.8475,-14.4954 828.7662,-10.7712 818.69,-7.4971 818.8475,-14.4954"/>
</g>
<!-- Node7&#45;&gt;Node18 -->
<g id="edge23" class="edge">
<title>Node7&#45;&gt;Node18</title>
<path fill="none" stroke="#191970" d="M718.1926,-168.3733C745.3453,-159.1016 786.5907,-145.0178 816.5025,-134.804"/>
<polygon fill="#191970" stroke="#191970" points="817.8428,-138.0449 826.1753,-131.5011 815.5808,-131.4204 817.8428,-138.0449"/>
</g>
<!-- Node21 -->
<g id="node21" class="node">
<title>Node21</title>
<g id="a_node21"><a xlink:href="a00422_source.html" target="_top" xlink:title=" ">
<polygon fill="#ffffff" stroke="#000000" points="474,-112.5 474,-131.5 554,-131.5 554,-112.5 474,-112.5"/>
<text text-anchor="middle" x="514" y="-119.5" font-family="Helvetica,sans-Serif" font-size="10.00" fill="#000000">freetds/proto.h</text>
</a>
</g>
</g>
<!-- Node7&#45;&gt;Node21 -->
<g id="edge37" class="edge">
<title>Node7&#45;&gt;Node21</title>
<path fill="none" stroke="#191970" d="M659.7445,-168.3733C630.3517,-159.021 585.5708,-144.7725 553.4066,-134.5385"/>
<polygon fill="#191970" stroke="#191970" points="554.4512,-131.198 543.8607,-131.5011 552.3287,-137.8685 554.4512,-131.198"/>
</g>
<!-- Node10 -->
<g id="node10" class="node">
<title>Node10</title>
<g id="a_node10"><a xlink:title=" ">
<polygon fill="#ffffff" stroke="#bfbfbf" points="89,-.5 89,-19.5 133,-19.5 133,-.5 89,-.5"/>
<text text-anchor="middle" x="111" y="-7.5" font-family="Helvetica,sans-Serif" font-size="10.00" fill="#000000">float.h</text>
</a>
</g>
</g>
<!-- Node9&#45;&gt;Node10 -->
<g id="edge13" class="edge">
<title>Node9&#45;&gt;Node10</title>
<path fill="none" stroke="#191970" d="M111,-56.2455C111,-48.9382 111,-38.6944 111,-29.7046"/>
<polygon fill="#191970" stroke="#191970" points="114.5001,-29.6426 111,-19.6427 107.5001,-29.6427 114.5001,-29.6426"/>
</g>
<!-- Node12&#45;&gt;Node9 -->
<g id="edge16" class="edge">
<title>Node12&#45;&gt;Node9</title>
<path fill="none" stroke="#191970" d="M119.2581,-112.2455C117.9533,-104.9382 116.124,-94.6944 114.5187,-85.7046"/>
<polygon fill="#191970" stroke="#191970" points="117.9254,-84.8717 112.7219,-75.6427 111.0344,-86.1022 117.9254,-84.8717"/>
</g>
<!-- Node15&#45;&gt;Node14 -->
<g id="edge20" class="edge">
<title>Node15&#45;&gt;Node14</title>
<path fill="none" stroke="#191970" d="M1106.3295,-112.2455C1096.4339,-103.9746 1082.0373,-91.9416 1070.4099,-82.2232"/>
<polygon fill="#191970" stroke="#191970" points="1072.4542,-79.3703 1062.5368,-75.6427 1067.965,-84.7413 1072.4542,-79.3703"/>
</g>
<!-- Node15&#45;&gt;Node16 -->
<g id="edge21" class="edge">
<title>Node15&#45;&gt;Node16</title>
<path fill="none" stroke="#191970" d="M1169.6871,-117.4807C1249.347,-109.9872 1394.5985,-94.0177 1410,-76 1415.7757,-69.2432 1415.8255,-62.7139 1410,-56 1392.7934,-36.1693 1231.0832,-20.9345 1143.2095,-14.0405"/>
<polygon fill="#191970" stroke="#191970" points="1143.3727,-10.5428 1133.1325,-13.2611 1142.8328,-17.5219 1143.3727,-10.5428"/>
</g>
<!-- Node15&#45;&gt;Node17 -->
<g id="edge22" class="edge">
<title>Node15&#45;&gt;Node17</title>
<path fill="none" stroke="#191970" d="M1119.1359,-112.4122C1120.2576,-98.0493 1120.0262,-71.0327 1105,-56 1080.3038,-31.2929 986.2195,-19.1399 925.4234,-13.7464"/>
<polygon fill="#191970" stroke="#191970" points="925.4873,-10.2392 915.2261,-12.877 924.8926,-17.2139 925.4873,-10.2392"/>
</g>
<!-- Node18&#45;&gt;Node3 -->
<g id="edge24" class="edge">
<title>Node18&#45;&gt;Node3</title>
<path fill="none" stroke="#191970" d="M866.1931,-112.2455C876.6321,-103.8943 891.8655,-91.7076 904.074,-81.9408"/>
<polygon fill="#191970" stroke="#191970" points="906.3244,-84.6227 911.9467,-75.6427 901.9515,-79.1566 906.3244,-84.6227"/>
</g>
<!-- Node18&#45;&gt;Node9 -->
<g id="edge25" class="edge">
<title>Node18&#45;&gt;Node9</title>
<path fill="none" stroke="#191970" d="M812.3224,-113.3795C809.1753,-112.8661 806.0419,-112.3977 803,-112 682.4023,-96.2335 321.1824,-76.7038 174.2279,-69.1695"/>
<polygon fill="#191970" stroke="#191970" points="174.1894,-65.6631 164.0237,-68.648 173.832,-72.654 174.1894,-65.6631"/>
</g>
<!-- Node18&#45;&gt;Node11 -->
<g id="edge26" class="edge">
<title>Node18&#45;&gt;Node11</title>
<path fill="none" stroke="#191970" d="M812.2911,-113.5932C809.1512,-113.0304 806.028,-112.4924 803,-112 680.028,-92.0033 648.5391,-92.1265 525,-76 523.7381,-75.8353 522.4645,-75.6689 521.1817,-75.5012"/>
<polygon fill="#191970" stroke="#191970" points="521.5818,-72.0238 511.2121,-74.1964 520.6733,-78.9646 521.5818,-72.0238"/>
</g>
<!-- Node18&#45;&gt;Node16 -->
<g id="edge34" class="edge">
<title>Node18&#45;&gt;Node16</title>
<path fill="none" stroke="#191970" d="M856.3929,-112.2518C860.4935,-97.6795 870.2907,-70.393 889,-56 910.916,-39.1401 980.1914,-25.6848 1030.6346,-17.7835"/>
<polygon fill="#191970" stroke="#191970" points="1031.416,-21.2047 1040.7704,-16.2302 1030.3556,-14.2854 1031.416,-21.2047"/>
</g>
<!-- Node18&#45;&gt;Node17 -->
<g id="edge35" class="edge">
<title>Node18&#45;&gt;Node17</title>
<path fill="none" stroke="#191970" d="M812.281,-113.6536C809.1435,-113.0768 806.0235,-112.5192 803,-112 693.341,-93.1703 486.2689,-140.2012 559,-56 575.7326,-36.6285 734.0764,-21.0767 818.9128,-14.054"/>
<polygon fill="#191970" stroke="#191970" points="819.1978,-17.5425 828.8798,-13.2402 818.6281,-10.5657 819.1978,-17.5425"/>
</g>
<!-- Node19 -->
<g id="node19" class="node">
<title>Node19</title>
<g id="a_node19"><a xlink:href="a00488_source.html" target="_top" xlink:title=" ">
<polygon fill="#ffffff" stroke="#000000" points="686.5,-56.5 686.5,-75.5 841.5,-75.5 841.5,-56.5 686.5,-56.5"/>
<text text-anchor="middle" x="764" y="-63.5" font-family="Helvetica,sans-Serif" font-size="10.00" fill="#000000">replacements/readpassphrase.h</text>
</a>
</g>
</g>
<!-- Node18&#45;&gt;Node19 -->
<g id="edge27" class="edge">
<title>Node18&#45;&gt;Node19</title>
<path fill="none" stroke="#191970" d="M838.3232,-112.2455C824.5144,-103.6534 804.1807,-91.0014 788.2708,-81.1018"/>
<polygon fill="#191970" stroke="#191970" points="789.8368,-77.954 779.4972,-75.6427 786.1387,-83.8974 789.8368,-77.954"/>
</g>
<!-- Node20 -->
<g id="node20" class="node">
<title>Node20</title>
<g id="a_node20"><a xlink:href="a00485.html" target="_top" xlink:title="Provide poll call where missing.">
<polygon fill="#ffffff" stroke="#000000" points="567.5,-56.5 567.5,-75.5 668.5,-75.5 668.5,-56.5 567.5,-56.5"/>
<text text-anchor="middle" x="618" y="-63.5" font-family="Helvetica,sans-Serif" font-size="10.00" fill="#000000">replacements/poll.h</text>
</a>
</g>
</g>
<!-- Node18&#45;&gt;Node20 -->
<g id="edge30" class="edge">
<title>Node18&#45;&gt;Node20</title>
<path fill="none" stroke="#191970" d="M813.6983,-112.4369C773.3936,-102.8731 711.3179,-88.1432 667.9182,-77.845"/>
<polygon fill="#191970" stroke="#191970" points="668.6734,-74.4271 658.1355,-75.5237 667.0572,-81.238 668.6734,-74.4271"/>
</g>
<!-- Node19&#45;&gt;Node16 -->
<g id="edge28" class="edge">
<title>Node19&#45;&gt;Node16</title>
<path fill="none" stroke="#191970" d="M819.1587,-56.4369C878.2622,-46.1898 971.5719,-30.0123 1030.9983,-19.7093"/>
<polygon fill="#191970" stroke="#191970" points="1031.7035,-23.1393 1040.9586,-17.9824 1030.5076,-16.2422 1031.7035,-23.1393"/>
</g>
<!-- Node19&#45;&gt;Node17 -->
<g id="edge29" class="edge">
<title>Node19&#45;&gt;Node17</title>
<path fill="none" stroke="#191970" d="M782.8122,-56.2455C799.8473,-47.4125 825.1575,-34.2887 844.4681,-24.2758"/>
<polygon fill="#191970" stroke="#191970" points="846.137,-27.353 853.4034,-19.6427 842.9147,-21.1388 846.137,-27.353"/>
</g>
<!-- Node20&#45;&gt;Node2 -->
<g id="edge31" class="edge">
<title>Node20&#45;&gt;Node2</title>
<path fill="none" stroke="#191970" d="M581.384,-56.3733C541.9672,-46.0102 479.684,-29.6352 440.6469,-19.372"/>
<polygon fill="#191970" stroke="#191970" points="441.3328,-15.9334 430.7715,-16.7756 439.5528,-22.7033 441.3328,-15.9334"/>
</g>
<!-- Node20&#45;&gt;Node16 -->
<g id="edge32" class="edge">
<title>Node20&#45;&gt;Node16</title>
<path fill="none" stroke="#191970" d="M668.71,-57.3537C671.8509,-56.8785 674.9669,-56.423 678,-56 803.6369,-38.4777 951.7125,-23.1363 1030.686,-15.3775"/>
<polygon fill="#191970" stroke="#191970" points="1031.2853,-18.8357 1040.8971,-14.3788 1030.6038,-11.8689 1031.2853,-18.8357"/>
</g>
<!-- Node20&#45;&gt;Node17 -->
<g id="edge33" class="edge">
<title>Node20&#45;&gt;Node17</title>
<path fill="none" stroke="#191970" d="M661.3756,-56.4369C704.937,-46.8328 772.1277,-32.0191 818.8634,-21.7152"/>
<polygon fill="#191970" stroke="#191970" points="819.7915,-25.0947 828.8034,-19.5237 818.2843,-18.2588 819.7915,-25.0947"/>
</g>
<!-- Node22&#45;&gt;Node16 -->
<g id="edge41" class="edge">
<title>Node22&#45;&gt;Node16</title>
<path fill="none" stroke="#191970" d="M1177.8395,-56.2455C1160.4889,-47.4125 1134.7099,-34.2887 1115.0417,-24.2758"/>
<polygon fill="#191970" stroke="#191970" points="1116.4405,-21.0605 1105.941,-19.6427 1113.2647,-27.2986 1116.4405,-21.0605"/>
</g>
<!-- Node22&#45;&gt;Node17 -->
<g id="edge42" class="edge">
<title>Node22&#45;&gt;Node17</title>
<path fill="none" stroke="#191970" d="M1151.8101,-58.2134C1092.4967,-47.9933 988.5347,-30.0798 925.4015,-19.2015"/>
<polygon fill="#191970" stroke="#191970" points="925.7011,-15.7016 915.252,-17.4526 924.5124,-22.6 925.7011,-15.7016"/>
</g>
<!-- Node23&#45;&gt;Node16 -->
<g id="edge45" class="edge">
<title>Node23&#45;&gt;Node16</title>
<path fill="none" stroke="#191970" d="M1262.5559,-56.3733C1226.6931,-46.9001 1171.8122,-32.4032 1132.9718,-22.1435"/>
<polygon fill="#191970" stroke="#191970" points="1133.5308,-18.6712 1122.9685,-19.5011 1131.743,-25.439 1133.5308,-18.6712"/>
</g>
<!-- Node23&#45;&gt;Node17 -->
<g id="edge46" class="edge">
<title>Node23&#45;&gt;Node17</title>
<path fill="none" stroke="#191970" d="M1260.28,-57.64C1257.1463,-57.0529 1254.0237,-56.4976 1251,-56 1135.5221,-36.9981 999.0457,-22.3256 925.4699,-15.0496"/>
<polygon fill="#191970" stroke="#191970" points="925.3749,-11.5235 915.0809,-14.0301 924.6912,-18.4901 925.3749,-11.5235"/>
</g>
<!-- Node24&#45;&gt;Node25 -->
<g id="edge49" class="edge">
<title>Node24&#45;&gt;Node25</title>
<path fill="none" stroke="#191970" d="M30.8709,-168.2455C31.5234,-160.9382 32.438,-150.6944 33.2407,-141.7046"/>
<polygon fill="#191970" stroke="#191970" points="36.7358,-141.9143 34.139,-131.6427 29.7635,-141.2918 36.7358,-141.9143"/>
</g>
<!-- Node25&#45;&gt;Node9 -->
<g id="edge50" class="edge">
<title>Node25&#45;&gt;Node9</title>
<path fill="none" stroke="#191970" d="M48.2382,-112.2455C59.681,-103.814 76.4296,-91.4729 89.7475,-81.6598"/>
<polygon fill="#191970" stroke="#191970" points="91.9391,-84.3924 97.9135,-75.6427 87.7867,-78.757 91.9391,-84.3924"/>
</g>
<!-- Node27&#45;&gt;Node16 -->
<g id="edge54" class="edge">
<title>Node27&#45;&gt;Node16</title>
<path fill="none" stroke="#191970" d="M1355.4162,-58.3201C1352.5988,-57.4789 1349.7441,-56.6819 1347,-56 1277.7674,-38.795 1196.625,-25.5086 1143.6382,-17.7348"/>
<polygon fill="#191970" stroke="#191970" points="1143.8269,-14.2256 1133.4281,-16.254 1142.8222,-21.1531 1143.8269,-14.2256"/>
</g>
<!-- Node27&#45;&gt;Node17 -->
<g id="edge55" class="edge">
<title>Node27&#45;&gt;Node17</title>
<path fill="none" stroke="#191970" d="M1355.4642,-58.1097C1352.6385,-57.3047 1349.7687,-56.5736 1347,-56 1267.603,-39.5504 1031.9407,-21.3641 925.3813,-13.7129"/>
<polygon fill="#191970" stroke="#191970" points="925.4001,-10.2054 915.1761,-12.9841 924.9013,-17.1877 925.4001,-10.2054"/>
</g>
</g>
</svg>
