<?xml version="1.0" encoding="UTF-8" standalone="no"?>
<!DOCTYPE svg PUBLIC "-//W3C//DTD SVG 1.1//EN"
 "http://www.w3.org/Graphics/SVG/1.1/DTD/svg11.dtd">
<!-- Generated by graphviz version 2.40.1 (20161225.0304)
 -->
<!-- Title: src/tds/bulk.c Pages: 1 -->
<svg width="1421pt" height="252pt"
 viewBox="0.00 0.00 1421.14 252.00" xmlns="http://www.w3.org/2000/svg" xmlns:xlink="http://www.w3.org/1999/xlink">
<g id="graph0" class="graph" transform="scale(1 1) rotate(0) translate(4 248)">
<title>src/tds/bulk.c</title>
<polygon fill="#ffffff" stroke="transparent" points="-4,4 -4,-248 1417.1366,-248 1417.1366,4 -4,4"/>
<!-- Node1 -->
<g id="node1" class="node">
<title>Node1</title>
<g id="a_node1"><a xlink:title="Handle bulk copy.">
<polygon fill="#bfbfbf" stroke="#000000" points="590.1366,-224.5 590.1366,-243.5 666.1366,-243.5 666.1366,-224.5 590.1366,-224.5"/>
<text text-anchor="middle" x="628.1366" y="-231.5" font-family="Helvetica,sans-Serif" font-size="10.00" fill="#000000">src/tds/bulk.c</text>
</a>
</g>
</g>
<!-- Node2 -->
<g id="node2" class="node">
<title>Node2</title>
<g id="a_node2"><a xlink:href="a00356_source.html" target="_top" xlink:title=" ">
<polygon fill="#ffffff" stroke="#000000" points="1199.6366,-.5 1199.6366,-19.5 1250.6366,-19.5 1250.6366,-.5 1199.6366,-.5"/>
<text text-anchor="middle" x="1225.1366" y="-7.5" font-family="Helvetica,sans-Serif" font-size="10.00" fill="#000000">config.h</text>
</a>
</g>
</g>
<!-- Node1&#45;&gt;Node2 -->
<g id="edge1" class="edge">
<title>Node1&#45;&gt;Node2</title>
<path fill="none" stroke="#191970" d="M666.4185,-230.5764C776.0446,-220.2 1088.7614,-186.436 1174.1366,-132 1199.9263,-115.5562 1202.4318,-104.2578 1214.1366,-76 1220.249,-61.2433 1222.9687,-43.2984 1224.1768,-29.8473"/>
<polygon fill="#191970" stroke="#191970" points="1227.6751,-29.9926 1224.8775,-19.7739 1220.692,-29.5069 1227.6751,-29.9926"/>
</g>
<!-- Node3 -->
<g id="node3" class="node">
<title>Node3</title>
<g id="a_node3"><a xlink:title=" ">
<polygon fill="#ffffff" stroke="#bfbfbf" points="1261.1366,-168.5 1261.1366,-187.5 1313.1366,-187.5 1313.1366,-168.5 1261.1366,-168.5"/>
<text text-anchor="middle" x="1287.1366" y="-175.5" font-family="Helvetica,sans-Serif" font-size="10.00" fill="#000000">assert.h</text>
</a>
</g>
</g>
<!-- Node1&#45;&gt;Node3 -->
<g id="edge2" class="edge">
<title>Node1&#45;&gt;Node3</title>
<path fill="none" stroke="#191970" d="M666.437,-233.4228C763.9495,-231.4634 1029.2981,-223.0603 1247.1366,-188 1248.4087,-187.7953 1249.6996,-187.5699 1251.0005,-187.3278"/>
<polygon fill="#191970" stroke="#191970" points="1251.9597,-190.7024 1261.0192,-185.2091 1250.5114,-183.8539 1251.9597,-190.7024"/>
</g>
<!-- Node4 -->
<g id="node4" class="node">
<title>Node4</title>
<g id="a_node4"><a xlink:href="a00437.html" target="_top" xlink:title=" ">
<polygon fill="#ffffff" stroke="#000000" points="592.6366,-168.5 592.6366,-187.5 663.6366,-187.5 663.6366,-168.5 592.6366,-168.5"/>
<text text-anchor="middle" x="628.1366" y="-175.5" font-family="Helvetica,sans-Serif" font-size="10.00" fill="#000000">freetds/tds.h</text>
</a>
</g>
</g>
<!-- Node1&#45;&gt;Node4 -->
<g id="edge3" class="edge">
<title>Node1&#45;&gt;Node4</title>
<path fill="none" stroke="#191970" d="M628.1366,-224.2455C628.1366,-216.9382 628.1366,-206.6944 628.1366,-197.7046"/>
<polygon fill="#191970" stroke="#191970" points="631.6367,-197.6426 628.1366,-187.6427 624.6367,-197.6427 631.6367,-197.6426"/>
</g>
<!-- Node15 -->
<g id="node15" class="node">
<title>Node15</title>
<g id="a_node15"><a xlink:href="a00470_source.html" target="_top" xlink:title=" ">
<polygon fill="#ffffff" stroke="#000000" points="191.6366,-112.5 191.6366,-131.5 294.6366,-131.5 294.6366,-112.5 191.6366,-112.5"/>
<text text-anchor="middle" x="243.1366" y="-119.5" font-family="Helvetica,sans-Serif" font-size="10.00" fill="#000000">freetds/utils/string.h</text>
</a>
</g>
</g>
<!-- Node1&#45;&gt;Node15 -->
<g id="edge46" class="edge">
<title>Node1&#45;&gt;Node15</title>
<path fill="none" stroke="#191970" d="M595.3117,-224.4509C525.6998,-204.2002 363.3077,-156.9589 285.7901,-134.4083"/>
<polygon fill="#191970" stroke="#191970" points="286.458,-130.9576 275.8784,-131.5249 284.5026,-137.6789 286.458,-130.9576"/>
</g>
<!-- Node18 -->
<g id="node18" class="node">
<title>Node18</title>
<g id="a_node18"><a xlink:href="a00491_source.html" target="_top" xlink:title=" ">
<polygon fill="#ffffff" stroke="#000000" points="909.6366,-112.5 909.6366,-131.5 992.6366,-131.5 992.6366,-112.5 909.6366,-112.5"/>
<text text-anchor="middle" x="951.1366" y="-119.5" font-family="Helvetica,sans-Serif" font-size="10.00" fill="#000000">replacements.h</text>
</a>
</g>
</g>
<!-- Node1&#45;&gt;Node18 -->
<g id="edge47" class="edge">
<title>Node1&#45;&gt;Node18</title>
<path fill="none" stroke="#191970" d="M655.6754,-224.4509C713.7195,-204.3242 848.6524,-157.5363 914.1494,-134.8253"/>
<polygon fill="#191970" stroke="#191970" points="915.366,-138.1079 923.6675,-131.5249 913.0727,-131.4942 915.366,-138.1079"/>
</g>
<!-- Node22 -->
<g id="node22" class="node">
<title>Node22</title>
<g id="a_node22"><a xlink:href="a00392_source.html" target="_top" xlink:title=" ">
<polygon fill="#ffffff" stroke="#000000" points="21.6366,-56.5 21.6366,-75.5 110.6366,-75.5 110.6366,-56.5 21.6366,-56.5"/>
<text text-anchor="middle" x="66.1366" y="-63.5" font-family="Helvetica,sans-Serif" font-size="10.00" fill="#000000">freetds/checks.h</text>
</a>
</g>
</g>
<!-- Node1&#45;&gt;Node22 -->
<g id="edge36" class="edge">
<title>Node1&#45;&gt;Node22</title>
<path fill="none" stroke="#191970" d="M589.8845,-233.025C497.7309,-230.1856 265.8982,-219.9834 196.1366,-188 144.3453,-164.2554 99.8203,-111.5792 78.8901,-83.8552"/>
<polygon fill="#191970" stroke="#191970" points="81.6987,-81.7666 72.9444,-75.799 76.0665,-85.9234 81.6987,-81.7666"/>
</g>
<!-- Node23 -->
<g id="node23" class="node">
<title>Node23</title>
<g id="a_node23"><a xlink:href="a00383_source.html" target="_top" xlink:title=" ">
<polygon fill="#ffffff" stroke="#000000" points="1331.1366,-168.5 1331.1366,-187.5 1413.1366,-187.5 1413.1366,-168.5 1331.1366,-168.5"/>
<text text-anchor="middle" x="1372.1366" y="-175.5" font-family="Helvetica,sans-Serif" font-size="10.00" fill="#000000">freetds/bytes.h</text>
</a>
</g>
</g>
<!-- Node1&#45;&gt;Node23 -->
<g id="edge39" class="edge">
<title>Node1&#45;&gt;Node23</title>
<path fill="none" stroke="#191970" d="M666.3009,-233.2269C769.9618,-230.7536 1065.5214,-221.2212 1320.7982,-188.0141"/>
<polygon fill="#191970" stroke="#191970" points="1321.5496,-191.4455 1331.0073,-186.6704 1320.6361,-184.5053 1321.5496,-191.4455"/>
</g>
<!-- Node24 -->
<g id="node24" class="node">
<title>Node24</title>
<g id="a_node24"><a xlink:href="a00410_source.html" target="_top" xlink:title=" ">
<polygon fill="#ffffff" stroke="#000000" points="129.1366,-56.5 129.1366,-75.5 209.1366,-75.5 209.1366,-56.5 129.1366,-56.5"/>
<text text-anchor="middle" x="169.1366" y="-63.5" font-family="Helvetica,sans-Serif" font-size="10.00" fill="#000000">freetds/iconv.h</text>
</a>
</g>
</g>
<!-- Node1&#45;&gt;Node24 -->
<g id="edge40" class="edge">
<title>Node1&#45;&gt;Node24</title>
<path fill="none" stroke="#191970" d="M589.8815,-232.5101C503.8653,-228.6836 297.8235,-216.7195 235.1366,-188 201.6777,-172.6711 190.2063,-165.1094 174.1366,-132 167.1591,-117.6239 166.2867,-99.3911 166.9456,-85.7337"/>
<polygon fill="#191970" stroke="#191970" points="170.4538,-85.769 167.7589,-75.5227 163.4759,-85.2132 170.4538,-85.769"/>
</g>
<!-- Node25 -->
<g id="node25" class="node">
<title>Node25</title>
<g id="a_node25"><a xlink:href="a00431_source.html" target="_top" xlink:title=" ">
<polygon fill="#ffffff" stroke="#000000" points="227.1366,-56.5 227.1366,-75.5 315.1366,-75.5 315.1366,-56.5 227.1366,-56.5"/>
<text text-anchor="middle" x="271.1366" y="-63.5" font-family="Helvetica,sans-Serif" font-size="10.00" fill="#000000">freetds/stream.h</text>
</a>
</g>
</g>
<!-- Node1&#45;&gt;Node25 -->
<g id="edge43" class="edge">
<title>Node1&#45;&gt;Node25</title>
<path fill="none" stroke="#191970" d="M589.8745,-231.2468C491.2646,-223.2711 232.6465,-196.4849 182.1366,-132 164.3456,-109.2867 197.9506,-90.5332 228.835,-78.8959"/>
<polygon fill="#191970" stroke="#191970" points="230.038,-82.1829 238.2725,-75.5163 227.678,-75.5927 230.038,-82.1829"/>
</g>
<!-- Node5 -->
<g id="node5" class="node">
<title>Node5</title>
<g id="a_node5"><a xlink:title=" ">
<polygon fill="#ffffff" stroke="#bfbfbf" points="479.1366,-56.5 479.1366,-75.5 531.1366,-75.5 531.1366,-56.5 479.1366,-56.5"/>
<text text-anchor="middle" x="505.1366" y="-63.5" font-family="Helvetica,sans-Serif" font-size="10.00" fill="#000000">stdarg.h</text>
</a>
</g>
</g>
<!-- Node4&#45;&gt;Node5 -->
<g id="edge4" class="edge">
<title>Node4&#45;&gt;Node5</title>
<path fill="none" stroke="#191970" d="M592.4882,-176.7821C530.4604,-173.8315 406.7353,-163.986 380.1366,-132 374.4531,-125.1655 375.0511,-119.2904 380.1366,-112 385.4949,-104.3185 434.1326,-87.9368 469.1255,-76.943"/>
<polygon fill="#191970" stroke="#191970" points="470.5269,-80.1725 479.0346,-73.8584 468.4463,-73.4889 470.5269,-80.1725"/>
</g>
<!-- Node6 -->
<g id="node6" class="node">
<title>Node6</title>
<g id="a_node6"><a xlink:title=" ">
<polygon fill="#ffffff" stroke="#bfbfbf" points="389.1366,-112.5 389.1366,-131.5 435.1366,-131.5 435.1366,-112.5 389.1366,-112.5"/>
<text text-anchor="middle" x="412.1366" y="-119.5" font-family="Helvetica,sans-Serif" font-size="10.00" fill="#000000">stdio.h</text>
</a>
</g>
</g>
<!-- Node4&#45;&gt;Node6 -->
<g id="edge5" class="edge">
<title>Node4&#45;&gt;Node6</title>
<path fill="none" stroke="#191970" d="M592.3575,-169.7039C557.1962,-161.4078 501.8081,-147.959 445.0262,-132.1389"/>
<polygon fill="#191970" stroke="#191970" points="445.7349,-128.7027 435.1611,-129.37 443.8432,-135.4422 445.7349,-128.7027"/>
</g>
<!-- Node7 -->
<g id="node7" class="node">
<title>Node7</title>
<g id="a_node7"><a xlink:href="a00443_source.html" target="_top" xlink:title=" ">
<polygon fill="#ffffff" stroke="#000000" points="453.1366,-112.5 453.1366,-131.5 497.1366,-131.5 497.1366,-112.5 453.1366,-112.5"/>
<text text-anchor="middle" x="475.1366" y="-119.5" font-family="Helvetica,sans-Serif" font-size="10.00" fill="#000000">time.h</text>
</a>
</g>
</g>
<!-- Node4&#45;&gt;Node7 -->
<g id="edge6" class="edge">
<title>Node4&#45;&gt;Node7</title>
<path fill="none" stroke="#191970" d="M601.8349,-168.3733C575.6584,-158.7923 535.4426,-144.0728 507.3624,-133.7951"/>
<polygon fill="#191970" stroke="#191970" points="508.2084,-130.3777 497.6146,-130.2273 505.8024,-136.9512 508.2084,-130.3777"/>
</g>
<!-- Node8 -->
<g id="node8" class="node">
<title>Node8</title>
<g id="a_node8"><a xlink:href="a00476_source.html" target="_top" xlink:title=" ">
<polygon fill="#ffffff" stroke="#000000" points="533.6366,-112.5 533.6366,-131.5 622.6366,-131.5 622.6366,-112.5 533.6366,-112.5"/>
<text text-anchor="middle" x="578.1366" y="-119.5" font-family="Helvetica,sans-Serif" font-size="10.00" fill="#000000">freetds/version.h</text>
</a>
</g>
</g>
<!-- Node4&#45;&gt;Node8 -->
<g id="edge8" class="edge">
<title>Node4&#45;&gt;Node8</title>
<path fill="none" stroke="#191970" d="M619.4272,-168.2455C612.3293,-160.2958 602.1281,-148.8706 593.6416,-139.3656"/>
<polygon fill="#191970" stroke="#191970" points="596.0171,-136.771 586.7461,-131.6427 590.7955,-141.4331 596.0171,-136.771"/>
</g>
<!-- Node9 -->
<g id="node9" class="node">
<title>Node9</title>
<g id="a_node9"><a xlink:href="a00512_source.html" target="_top" xlink:title=" ">
<polygon fill="#ffffff" stroke="#000000" points="1099.1366,-56.5 1099.1366,-75.5 1205.1366,-75.5 1205.1366,-56.5 1099.1366,-56.5"/>
<text text-anchor="middle" x="1152.1366" y="-63.5" font-family="Helvetica,sans-Serif" font-size="10.00" fill="#000000">tds_sysdep_public.h</text>
</a>
</g>
</g>
<!-- Node4&#45;&gt;Node9 -->
<g id="edge9" class="edge">
<title>Node4&#45;&gt;Node9</title>
<path fill="none" stroke="#191970" d="M663.8664,-177.059C731.2078,-174.5323 881.0291,-165.3146 1002.1366,-132 1047.2387,-119.5932 1096.2792,-95.8993 1125.5957,-80.534"/>
<polygon fill="#191970" stroke="#191970" points="1127.5592,-83.4541 1134.7475,-75.6708 1124.2744,-77.2727 1127.5592,-83.4541"/>
</g>
<!-- Node11 -->
<g id="node11" class="node">
<title>Node11</title>
<g id="a_node11"><a xlink:href="a00434_source.html" target="_top" xlink:title=" ">
<polygon fill="#ffffff" stroke="#000000" points="587.1366,-56.5 587.1366,-75.5 711.1366,-75.5 711.1366,-56.5 587.1366,-56.5"/>
<text text-anchor="middle" x="649.1366" y="-63.5" font-family="Helvetica,sans-Serif" font-size="10.00" fill="#000000">freetds/sysdep_private.h</text>
</a>
</g>
</g>
<!-- Node4&#45;&gt;Node11 -->
<g id="edge11" class="edge">
<title>Node4&#45;&gt;Node11</title>
<path fill="none" stroke="#191970" d="M663.841,-176.1687C721.9944,-172.3564 833.111,-161.3316 857.1366,-132 862.7691,-125.1235 862.7021,-118.9309 857.1366,-112 848.344,-101.0505 776.7712,-86.902 720.0062,-77.2043"/>
<polygon fill="#191970" stroke="#191970" points="720.4016,-73.7216 709.9583,-75.5074 719.2358,-80.6239 720.4016,-73.7216"/>
</g>
<!-- Node12 -->
<g id="node12" class="node">
<title>Node12</title>
<g id="a_node12"><a xlink:href="a00440_source.html" target="_top" xlink:title=" ">
<polygon fill="#ffffff" stroke="#000000" points="1079.6366,-112.5 1079.6366,-131.5 1164.6366,-131.5 1164.6366,-112.5 1079.6366,-112.5"/>
<text text-anchor="middle" x="1122.1366" y="-119.5" font-family="Helvetica,sans-Serif" font-size="10.00" fill="#000000">freetds/thread.h</text>
</a>
</g>
</g>
<!-- Node4&#45;&gt;Node12 -->
<g id="edge12" class="edge">
<title>Node4&#45;&gt;Node12</title>
<path fill="none" stroke="#191970" d="M663.7462,-174.4757C736.4453,-167.2018 907.1509,-149.7187 1050.1366,-132 1056.383,-131.2259 1062.9284,-130.3739 1069.4192,-129.5037"/>
<polygon fill="#191970" stroke="#191970" points="1070.0859,-132.9454 1079.5232,-128.1299 1069.1427,-126.0092 1070.0859,-132.9454"/>
</g>
<!-- Node13 -->
<g id="node13" class="node">
<title>Node13</title>
<g id="a_node13"><a xlink:href="a00380_source.html" target="_top" xlink:title=" ">
<polygon fill="#ffffff" stroke="#000000" points="641.1366,-112.5 641.1366,-131.5 717.1366,-131.5 717.1366,-112.5 641.1366,-112.5"/>
<text text-anchor="middle" x="679.1366" y="-119.5" font-family="Helvetica,sans-Serif" font-size="10.00" fill="#000000">freetds/bool.h</text>
</a>
</g>
</g>
<!-- Node4&#45;&gt;Node13 -->
<g id="edge14" class="edge">
<title>Node4&#45;&gt;Node13</title>
<path fill="none" stroke="#191970" d="M637.0201,-168.2455C644.3331,-160.2155 654.8757,-148.6394 663.5833,-139.0781"/>
<polygon fill="#191970" stroke="#191970" points="666.2092,-141.3928 670.3548,-131.6427 661.0338,-136.6795 666.2092,-141.3928"/>
</g>
<!-- Node14 -->
<g id="node14" class="node">
<title>Node14</title>
<g id="a_node14"><a xlink:href="a00413_source.html" target="_top" xlink:title=" ">
<polygon fill="#ffffff" stroke="#000000" points="371.1366,-56.5 371.1366,-75.5 461.1366,-75.5 461.1366,-56.5 371.1366,-56.5"/>
<text text-anchor="middle" x="416.1366" y="-63.5" font-family="Helvetica,sans-Serif" font-size="10.00" fill="#000000">freetds/macros.h</text>
</a>
</g>
</g>
<!-- Node4&#45;&gt;Node14 -->
<g id="edge15" class="edge">
<title>Node4&#45;&gt;Node14</title>
<path fill="none" stroke="#191970" d="M592.3565,-177.0072C528.6896,-174.4047 399.8024,-165.0802 372.1366,-132 358.6981,-115.9315 376.7633,-95.657 393.6391,-81.8477"/>
<polygon fill="#191970" stroke="#191970" points="395.9092,-84.5168 401.6848,-75.6346 391.6308,-78.9764 395.9092,-84.5168"/>
</g>
<!-- Node4&#45;&gt;Node15 -->
<g id="edge16" class="edge">
<title>Node4&#45;&gt;Node15</title>
<path fill="none" stroke="#191970" d="M592.2444,-172.9097C533.1844,-164.5146 411.8164,-147.1818 309.1366,-132 307.6677,-131.7828 306.1805,-131.5623 304.6806,-131.3394"/>
<polygon fill="#191970" stroke="#191970" points="305.0612,-127.8575 294.6539,-129.8421 304.0273,-134.7807 305.0612,-127.8575"/>
</g>
<!-- Node16 -->
<g id="node16" class="node">
<title>Node16</title>
<g id="a_node16"><a xlink:href="a00425_source.html" target="_top" xlink:title=" ">
<polygon fill="#ffffff" stroke="#000000" points="331.1366,-.5 331.1366,-19.5 423.1366,-19.5 423.1366,-.5 331.1366,-.5"/>
<text text-anchor="middle" x="377.1366" y="-7.5" font-family="Helvetica,sans-Serif" font-size="10.00" fill="#000000">freetds/pushvis.h</text>
</a>
</g>
</g>
<!-- Node4&#45;&gt;Node16 -->
<g id="edge33" class="edge">
<title>Node4&#45;&gt;Node16</title>
<path fill="none" stroke="#191970" d="M663.6891,-174.8523C714.646,-169.5211 804.4902,-156.7911 824.1366,-132 829.6574,-125.0335 829.9491,-118.7251 824.1366,-112 788.0087,-70.2003 630.6689,-93.1115 578.1366,-76 559.9898,-70.089 557.862,-63.075 540.1366,-56 504.251,-41.6765 462.2582,-29.9375 429.8833,-21.9037"/>
<polygon fill="#191970" stroke="#191970" points="430.7068,-18.502 420.1621,-19.5306 429.0468,-25.3023 430.7068,-18.502"/>
</g>
<!-- Node17 -->
<g id="node17" class="node">
<title>Node17</title>
<g id="a_node17"><a xlink:href="a00419_source.html" target="_top" xlink:title=" ">
<polygon fill="#ffffff" stroke="#000000" points="194.1366,-.5 194.1366,-19.5 280.1366,-19.5 280.1366,-.5 194.1366,-.5"/>
<text text-anchor="middle" x="237.1366" y="-7.5" font-family="Helvetica,sans-Serif" font-size="10.00" fill="#000000">freetds/popvis.h</text>
</a>
</g>
</g>
<!-- Node4&#45;&gt;Node17 -->
<g id="edge35" class="edge">
<title>Node4&#45;&gt;Node17</title>
<path fill="none" stroke="#191970" d="M592.4969,-176.7657C516.3989,-173.5985 332.6918,-163.1135 182.1366,-132 100.9189,-115.2157 53.1972,-142.8661 4.1366,-76 -1.1218,-68.8333 -1.5074,-62.8672 4.1366,-56 26.4102,-28.8991 122.0116,-17.5023 183.6225,-12.9064"/>
<polygon fill="#191970" stroke="#191970" points="184.2253,-16.3725 193.9532,-12.1753 183.7311,-9.39 184.2253,-16.3725"/>
</g>
<!-- Node4&#45;&gt;Node18 -->
<g id="edge20" class="edge">
<title>Node4&#45;&gt;Node18</title>
<path fill="none" stroke="#191970" d="M663.9934,-171.8939C715.2554,-163.1481 812.4382,-146.5075 895.1366,-132 896.5957,-131.744 898.0761,-131.4837 899.5702,-131.2205"/>
<polygon fill="#191970" stroke="#191970" points="900.3142,-134.6433 909.5517,-129.4549 899.0949,-127.7503 900.3142,-134.6433"/>
</g>
<!-- Node21 -->
<g id="node21" class="node">
<title>Node21</title>
<g id="a_node21"><a xlink:href="a00422_source.html" target="_top" xlink:title=" ">
<polygon fill="#ffffff" stroke="#000000" points="735.1366,-112.5 735.1366,-131.5 815.1366,-131.5 815.1366,-112.5 735.1366,-112.5"/>
<text text-anchor="middle" x="775.1366" y="-119.5" font-family="Helvetica,sans-Serif" font-size="10.00" fill="#000000">freetds/proto.h</text>
</a>
</g>
</g>
<!-- Node4&#45;&gt;Node21 -->
<g id="edge34" class="edge">
<title>Node4&#45;&gt;Node21</title>
<path fill="none" stroke="#191970" d="M653.4068,-168.3733C677.5332,-159.1822 714.0728,-145.2624 740.8243,-135.0713"/>
<polygon fill="#191970" stroke="#191970" points="742.0972,-138.3318 750.1961,-131.5011 739.6052,-131.7904 742.0972,-138.3318"/>
</g>
<!-- Node7&#45;&gt;Node7 -->
<g id="edge7" class="edge">
<title>Node7&#45;&gt;Node7</title>
<path fill="none" stroke="#191970" d="M492.4048,-131.5746C503.924,-134.2697 515.1366,-131.0781 515.1366,-122 515.1366,-115.7588 509.8369,-112.2999 502.7814,-111.6234"/>
<polygon fill="#191970" stroke="#191970" points="502.1054,-108.1651 492.4048,-112.4254 502.6449,-115.1443 502.1054,-108.1651"/>
</g>
<!-- Node10 -->
<g id="node10" class="node">
<title>Node10</title>
<g id="a_node10"><a xlink:title=" ">
<polygon fill="#ffffff" stroke="#bfbfbf" points="1130.1366,-.5 1130.1366,-19.5 1174.1366,-19.5 1174.1366,-.5 1130.1366,-.5"/>
<text text-anchor="middle" x="1152.1366" y="-7.5" font-family="Helvetica,sans-Serif" font-size="10.00" fill="#000000">float.h</text>
</a>
</g>
</g>
<!-- Node9&#45;&gt;Node10 -->
<g id="edge10" class="edge">
<title>Node9&#45;&gt;Node10</title>
<path fill="none" stroke="#191970" d="M1152.1366,-56.2455C1152.1366,-48.9382 1152.1366,-38.6944 1152.1366,-29.7046"/>
<polygon fill="#191970" stroke="#191970" points="1155.6367,-29.6426 1152.1366,-19.6427 1148.6367,-29.6427 1155.6367,-29.6426"/>
</g>
<!-- Node12&#45;&gt;Node9 -->
<g id="edge13" class="edge">
<title>Node12&#45;&gt;Node9</title>
<path fill="none" stroke="#191970" d="M1127.3622,-112.2455C1131.4489,-104.617 1137.2501,-93.7881 1142.2115,-84.5267"/>
<polygon fill="#191970" stroke="#191970" points="1145.3338,-86.1103 1146.9709,-75.6427 1139.1634,-82.8047 1145.3338,-86.1103"/>
</g>
<!-- Node15&#45;&gt;Node14 -->
<g id="edge17" class="edge">
<title>Node15&#45;&gt;Node14</title>
<path fill="none" stroke="#191970" d="M272.8763,-112.3733C301.6436,-103.0613 345.4066,-88.8953 376.9922,-78.671"/>
<polygon fill="#191970" stroke="#191970" points="378.3488,-81.9107 386.7849,-75.5011 376.193,-75.251 378.3488,-81.9107"/>
</g>
<!-- Node15&#45;&gt;Node16 -->
<g id="edge18" class="edge">
<title>Node15&#45;&gt;Node16</title>
<path fill="none" stroke="#191970" d="M264.841,-112.4655C282.0152,-104.2916 306.0363,-91.4118 324.1366,-76 340.4742,-62.089 355.417,-42.5754 365.2411,-28.376"/>
<polygon fill="#191970" stroke="#191970" points="368.2478,-30.1767 370.9209,-19.9246 362.438,-26.2721 368.2478,-30.1767"/>
</g>
<!-- Node15&#45;&gt;Node17 -->
<g id="edge19" class="edge">
<title>Node15&#45;&gt;Node17</title>
<path fill="none" stroke="#191970" d="M191.5242,-115.2138C126.9677,-106.201 23.4682,-89.8107 12.1366,-76 6.4983,-69.1282 6.5158,-62.8862 12.1366,-56 33.4074,-29.9405 124.3905,-18.2494 183.9452,-13.307"/>
<polygon fill="#191970" stroke="#191970" points="184.2533,-16.7936 193.946,-12.5155 183.701,-9.8155 184.2533,-16.7936"/>
</g>
<!-- Node18&#45;&gt;Node5 -->
<g id="edge21" class="edge">
<title>Node18&#45;&gt;Node5</title>
<path fill="none" stroke="#191970" d="M909.4385,-117.0429C840.4719,-108.8025 698.3202,-91.6418 578.1366,-76 566.069,-74.4294 552.8893,-72.6452 541.0906,-71.0229"/>
<polygon fill="#191970" stroke="#191970" points="541.5251,-67.5498 531.1402,-69.6485 540.5672,-74.484 541.5251,-67.5498"/>
</g>
<!-- Node18&#45;&gt;Node9 -->
<g id="edge22" class="edge">
<title>Node18&#45;&gt;Node9</title>
<path fill="none" stroke="#191970" d="M985.6897,-112.3733C1019.547,-102.9404 1071.2825,-88.5265 1108.0792,-78.2747"/>
<polygon fill="#191970" stroke="#191970" points="1109.3406,-81.5566 1118.0343,-75.5011 1107.4618,-74.8135 1109.3406,-81.5566"/>
</g>
<!-- Node18&#45;&gt;Node11 -->
<g id="edge23" class="edge">
<title>Node18&#45;&gt;Node11</title>
<path fill="none" stroke="#191970" d="M909.4618,-114.2722C857.9141,-104.7137 769.7302,-88.3617 710.4571,-77.3707"/>
<polygon fill="#191970" stroke="#191970" points="710.9435,-73.9013 700.473,-75.5193 709.6672,-80.784 710.9435,-73.9013"/>
</g>
<!-- Node18&#45;&gt;Node16 -->
<g id="edge31" class="edge">
<title>Node18&#45;&gt;Node16</title>
<path fill="none" stroke="#191970" d="M951.4989,-112.0923C951.4429,-97.3115 948.9204,-69.7565 932.1366,-56 894.1489,-24.8642 566.7759,-14.1744 433.3657,-11.0896"/>
<polygon fill="#191970" stroke="#191970" points="433.4186,-7.59 423.3423,-10.8638 433.2609,-14.5882 433.4186,-7.59"/>
</g>
<!-- Node18&#45;&gt;Node17 -->
<g id="edge32" class="edge">
<title>Node18&#45;&gt;Node17</title>
<path fill="none" stroke="#191970" d="M909.4684,-114.9935C869.9974,-107.6659 809.444,-94.6207 759.1366,-76 740.8682,-69.2382 738.8466,-61.4213 720.1366,-56 549.5425,-6.5699 498.7942,-38.3778 322.1366,-20 311.8329,-18.9281 300.837,-17.6984 290.2903,-16.4762"/>
<polygon fill="#191970" stroke="#191970" points="290.6926,-12.9995 280.3533,-15.3123 289.8782,-19.952 290.6926,-12.9995"/>
</g>
<!-- Node19 -->
<g id="node19" class="node">
<title>Node19</title>
<g id="a_node19"><a xlink:href="a00488_source.html" target="_top" xlink:title=" ">
<polygon fill="#ffffff" stroke="#000000" points="767.6366,-56.5 767.6366,-75.5 922.6366,-75.5 922.6366,-56.5 767.6366,-56.5"/>
<text text-anchor="middle" x="845.1366" y="-63.5" font-family="Helvetica,sans-Serif" font-size="10.00" fill="#000000">replacements/readpassphrase.h</text>
</a>
</g>
</g>
<!-- Node18&#45;&gt;Node19 -->
<g id="edge24" class="edge">
<title>Node18&#45;&gt;Node19</title>
<path fill="none" stroke="#191970" d="M932.6728,-112.2455C916.0291,-103.4527 891.3373,-90.4079 872.4174,-80.4125"/>
<polygon fill="#191970" stroke="#191970" points="873.8657,-77.2193 863.3888,-75.6427 870.5958,-83.4086 873.8657,-77.2193"/>
</g>
<!-- Node20 -->
<g id="node20" class="node">
<title>Node20</title>
<g id="a_node20"><a xlink:href="a00485.html" target="_top" xlink:title="Provide poll call where missing.">
<polygon fill="#ffffff" stroke="#000000" points="979.6366,-56.5 979.6366,-75.5 1080.6366,-75.5 1080.6366,-56.5 979.6366,-56.5"/>
<text text-anchor="middle" x="1030.1366" y="-63.5" font-family="Helvetica,sans-Serif" font-size="10.00" fill="#000000">replacements/poll.h</text>
</a>
</g>
</g>
<!-- Node18&#45;&gt;Node20 -->
<g id="edge27" class="edge">
<title>Node18&#45;&gt;Node20</title>
<path fill="none" stroke="#191970" d="M964.8973,-112.2455C976.7918,-103.814 994.2016,-91.4729 1008.0451,-81.6598"/>
<polygon fill="#191970" stroke="#191970" points="1010.3994,-84.2811 1016.5335,-75.6427 1006.3512,-78.5704 1010.3994,-84.2811"/>
</g>
<!-- Node19&#45;&gt;Node16 -->
<g id="edge25" class="edge">
<title>Node19&#45;&gt;Node16</title>
<path fill="none" stroke="#191970" d="M767.5934,-56.7213C673.3322,-45.4422 516.56,-26.6831 433.2285,-16.7119"/>
<polygon fill="#191970" stroke="#191970" points="433.5397,-13.2242 423.1946,-15.5112 432.7079,-20.1746 433.5397,-13.2242"/>
</g>
<!-- Node19&#45;&gt;Node17 -->
<g id="edge26" class="edge">
<title>Node19&#45;&gt;Node17</title>
<path fill="none" stroke="#191970" d="M767.3507,-57.4072C762.5421,-56.9187 757.7744,-56.4457 753.1366,-56 561.7954,-37.6129 513.3946,-39.2325 322.1366,-20 311.8292,-18.9635 300.8318,-17.7499 290.2845,-16.5325"/>
<polygon fill="#191970" stroke="#191970" points="290.6864,-13.0557 280.3474,-15.3698 289.8729,-20.0083 290.6864,-13.0557"/>
</g>
<!-- Node20&#45;&gt;Node2 -->
<g id="edge28" class="edge">
<title>Node20&#45;&gt;Node2</title>
<path fill="none" stroke="#191970" d="M1063.6583,-56.3733C1098.7432,-46.2976 1153.617,-30.539 1189.4801,-20.2398"/>
<polygon fill="#191970" stroke="#191970" points="1190.8621,-23.4845 1199.5075,-17.3601 1188.9299,-16.7564 1190.8621,-23.4845"/>
</g>
<!-- Node20&#45;&gt;Node16 -->
<g id="edge29" class="edge">
<title>Node20&#45;&gt;Node16</title>
<path fill="none" stroke="#191970" d="M979.4439,-57.8275C974.6145,-57.1616 969.7866,-56.5388 965.1366,-56 770.4779,-33.4439 538.2524,-18.9048 433.4138,-13.0018"/>
<polygon fill="#191970" stroke="#191970" points="433.55,-9.5041 423.3704,-12.4409 433.1596,-16.4932 433.55,-9.5041"/>
</g>
<!-- Node20&#45;&gt;Node17 -->
<g id="edge30" class="edge">
<title>Node20&#45;&gt;Node17</title>
<path fill="none" stroke="#191970" d="M979.563,-60.4226C964.3314,-58.8553 947.5642,-57.2418 932.1366,-56 661.4293,-34.2103 592.6678,-43.8761 322.1366,-20 311.8174,-19.0893 300.8145,-17.9329 290.2657,-16.7322"/>
<polygon fill="#191970" stroke="#191970" points="290.6661,-13.2553 280.3281,-15.5741 289.8557,-20.2082 290.6661,-13.2553"/>
</g>
<!-- Node22&#45;&gt;Node16 -->
<g id="edge37" class="edge">
<title>Node22&#45;&gt;Node16</title>
<path fill="none" stroke="#191970" d="M110.9218,-57.6851C114.0399,-57.1127 117.1349,-56.5466 120.1366,-56 189.1178,-43.4396 268.5702,-29.263 320.6533,-20.0095"/>
<polygon fill="#191970" stroke="#191970" points="321.4599,-23.4211 330.6938,-18.2263 320.2358,-16.5289 321.4599,-23.4211"/>
</g>
<!-- Node22&#45;&gt;Node17 -->
<g id="edge38" class="edge">
<title>Node22&#45;&gt;Node17</title>
<path fill="none" stroke="#191970" d="M95.5325,-56.3733C123.9672,-47.0613 167.2242,-32.8953 198.4447,-22.671"/>
<polygon fill="#191970" stroke="#191970" points="199.7101,-25.9396 208.1242,-19.5011 197.5315,-19.2872 199.7101,-25.9396"/>
</g>
<!-- Node24&#45;&gt;Node16 -->
<g id="edge41" class="edge">
<title>Node24&#45;&gt;Node16</title>
<path fill="none" stroke="#191970" d="M204.893,-56.3733C240.0792,-46.9001 293.9246,-32.4032 332.0322,-22.1435"/>
<polygon fill="#191970" stroke="#191970" points="333.1005,-25.4806 341.8467,-19.5011 331.2806,-18.7213 333.1005,-25.4806"/>
</g>
<!-- Node24&#45;&gt;Node17 -->
<g id="edge42" class="edge">
<title>Node24&#45;&gt;Node17</title>
<path fill="none" stroke="#191970" d="M180.9813,-56.2455C191.0245,-47.9746 205.636,-35.9416 217.4369,-26.2232"/>
<polygon fill="#191970" stroke="#191970" points="219.9333,-28.7015 225.4276,-19.6427 215.4833,-23.298 219.9333,-28.7015"/>
</g>
<!-- Node25&#45;&gt;Node16 -->
<g id="edge44" class="edge">
<title>Node25&#45;&gt;Node16</title>
<path fill="none" stroke="#191970" d="M289.6004,-56.2455C306.244,-47.4527 330.9359,-34.4079 349.8557,-24.4125"/>
<polygon fill="#191970" stroke="#191970" points="351.6774,-27.4086 358.8844,-19.6427 348.4075,-21.2193 351.6774,-27.4086"/>
</g>
<!-- Node25&#45;&gt;Node17 -->
<g id="edge45" class="edge">
<title>Node25&#45;&gt;Node17</title>
<path fill="none" stroke="#191970" d="M265.2142,-56.2455C260.5339,-48.5367 253.8693,-37.5598 248.2077,-28.2348"/>
<polygon fill="#191970" stroke="#191970" points="251.1726,-26.3741 242.991,-19.6427 245.1891,-30.007 251.1726,-26.3741"/>
</g>
</g>
</svg>
