<?xml version="1.0" encoding="UTF-8" standalone="no"?>
<!DOCTYPE svg PUBLIC "-//W3C//DTD SVG 1.1//EN"
 "http://www.w3.org/Graphics/SVG/1.1/DTD/svg11.dtd">
<!-- Generated by graphviz version 2.40.1 (20161225.0304)
 -->
<!-- Title: src/tds/data.c Pages: 1 -->
<svg width="1776pt" height="252pt"
 viewBox="0.00 0.00 1776.40 252.00" xmlns="http://www.w3.org/2000/svg" xmlns:xlink="http://www.w3.org/1999/xlink">
<g id="graph0" class="graph" transform="scale(1 1) rotate(0) translate(4 248)">
<title>src/tds/data.c</title>
<polygon fill="#ffffff" stroke="transparent" points="-4,4 -4,-248 1772.4011,-248 1772.4011,4 -4,4"/>
<!-- Node1 -->
<g id="node1" class="node">
<title>Node1</title>
<g id="a_node1"><a xlink:title="Handle different data handling from network.">
<polygon fill="#bfbfbf" stroke="#000000" points="1275.9011,-224.5 1275.9011,-243.5 1352.9011,-243.5 1352.9011,-224.5 1275.9011,-224.5"/>
<text text-anchor="middle" x="1314.4011" y="-231.5" font-family="Helvetica,sans-Serif" font-size="10.00" fill="#000000">src/tds/data.c</text>
</a>
</g>
</g>
<!-- Node2 -->
<g id="node2" class="node">
<title>Node2</title>
<g id="a_node2"><a xlink:href="a00356_source.html" target="_top" xlink:title=" ">
<polygon fill="#ffffff" stroke="#000000" points="480.9011,-.5 480.9011,-19.5 531.9011,-19.5 531.9011,-.5 480.9011,-.5"/>
<text text-anchor="middle" x="506.4011" y="-7.5" font-family="Helvetica,sans-Serif" font-size="10.00" fill="#000000">config.h</text>
</a>
</g>
</g>
<!-- Node1&#45;&gt;Node2 -->
<g id="edge1" class="edge">
<title>Node1&#45;&gt;Node2</title>
<path fill="none" stroke="#191970" d="M1275.7277,-233.5273C1085.4759,-231.0618 253.5713,-218.6006 142.4011,-188 92.1633,-174.1716 76.1318,-168.9583 39.4011,-132 13.8025,-106.2429 -15.0651,-82.8352 9.4011,-56 13.2982,-51.7255 356.7243,-22.5572 470.3522,-13.0146"/>
<polygon fill="#191970" stroke="#191970" points="470.9396,-16.4777 480.612,-12.1538 470.3544,-9.5022 470.9396,-16.4777"/>
</g>
<!-- Node3 -->
<g id="node3" class="node">
<title>Node3</title>
<g id="a_node3"><a xlink:title=" ">
<polygon fill="#ffffff" stroke="#bfbfbf" points="968.4011,-56.5 968.4011,-75.5 1020.4011,-75.5 1020.4011,-56.5 968.4011,-56.5"/>
<text text-anchor="middle" x="994.4011" y="-63.5" font-family="Helvetica,sans-Serif" font-size="10.00" fill="#000000">stdarg.h</text>
</a>
</g>
</g>
<!-- Node1&#45;&gt;Node3 -->
<g id="edge2" class="edge">
<title>Node1&#45;&gt;Node3</title>
<path fill="none" stroke="#191970" d="M1275.5556,-232.3878C1147.6926,-226.8958 747.0197,-208.1374 728.4011,-188 710.9554,-169.1312 726.1877,-130.7249 748.4011,-112 819.4644,-52.0966 863.4804,-95.2835 954.4011,-76 955.6615,-75.7327 956.9424,-75.4535 958.2348,-75.1655"/>
<polygon fill="#191970" stroke="#191970" points="959.2725,-78.5173 968.2137,-72.8335 957.6795,-71.701 959.2725,-78.5173"/>
</g>
<!-- Node4 -->
<g id="node4" class="node">
<title>Node4</title>
<g id="a_node4"><a xlink:title=" ">
<polygon fill="#ffffff" stroke="#bfbfbf" points="1260.4011,-112.5 1260.4011,-131.5 1306.4011,-131.5 1306.4011,-112.5 1260.4011,-112.5"/>
<text text-anchor="middle" x="1283.4011" y="-119.5" font-family="Helvetica,sans-Serif" font-size="10.00" fill="#000000">stdio.h</text>
</a>
</g>
</g>
<!-- Node1&#45;&gt;Node4 -->
<g id="edge3" class="edge">
<title>Node1&#45;&gt;Node4</title>
<path fill="none" stroke="#191970" d="M1311.758,-224.4509C1306.6791,-206.1013 1295.4664,-165.5908 1288.7622,-141.3693"/>
<polygon fill="#191970" stroke="#191970" points="1292.0782,-140.2289 1286.0374,-131.5249 1285.3319,-142.0962 1292.0782,-140.2289"/>
</g>
<!-- Node5 -->
<g id="node5" class="node">
<title>Node5</title>
<g id="a_node5"><a xlink:title=" ">
<polygon fill="#ffffff" stroke="#bfbfbf" points="1530.4011,-168.5 1530.4011,-187.5 1582.4011,-187.5 1582.4011,-168.5 1530.4011,-168.5"/>
<text text-anchor="middle" x="1556.4011" y="-175.5" font-family="Helvetica,sans-Serif" font-size="10.00" fill="#000000">assert.h</text>
</a>
</g>
</g>
<!-- Node1&#45;&gt;Node5 -->
<g id="edge4" class="edge">
<title>Node1&#45;&gt;Node5</title>
<path fill="none" stroke="#191970" d="M1353.1822,-225.4233C1393.8906,-216.3608 1459.728,-201.5354 1516.4011,-188 1517.6543,-187.7007 1518.929,-187.394 1520.2161,-187.0825"/>
<polygon fill="#191970" stroke="#191970" points="1521.2917,-190.4225 1530.1704,-184.6416 1519.6246,-183.624 1521.2917,-190.4225"/>
</g>
<!-- Node6 -->
<g id="node6" class="node">
<title>Node6</title>
<g id="a_node6"><a xlink:href="a00473_source.html" target="_top" xlink:title=" ">
<polygon fill="#ffffff" stroke="#000000" points="159.4011,-112.5 159.4011,-131.5 235.4011,-131.5 235.4011,-112.5 159.4011,-112.5"/>
<text text-anchor="middle" x="197.4011" y="-119.5" font-family="Helvetica,sans-Serif" font-size="10.00" fill="#000000">freetds/utils.h</text>
</a>
</g>
</g>
<!-- Node1&#45;&gt;Node6 -->
<g id="edge5" class="edge">
<title>Node1&#45;&gt;Node6</title>
<path fill="none" stroke="#191970" d="M1275.8614,-231.96C1177.0706,-226.5649 906.7755,-210.7574 682.4011,-188 490.6598,-168.5525 442.8251,-161.6917 252.4011,-132 250.1805,-131.6538 247.9117,-131.2884 245.6215,-130.9101"/>
<polygon fill="#191970" stroke="#191970" points="245.9728,-127.4195 235.5268,-129.1885 244.796,-134.3199 245.9728,-127.4195"/>
</g>
<!-- Node9 -->
<g id="node9" class="node">
<title>Node9</title>
<g id="a_node9"><a xlink:href="a00425_source.html" target="_top" xlink:title=" ">
<polygon fill="#ffffff" stroke="#000000" points="642.4011,-.5 642.4011,-19.5 734.4011,-19.5 734.4011,-.5 642.4011,-.5"/>
<text text-anchor="middle" x="688.4011" y="-7.5" font-family="Helvetica,sans-Serif" font-size="10.00" fill="#000000">freetds/pushvis.h</text>
</a>
</g>
</g>
<!-- Node1&#45;&gt;Node9 -->
<g id="edge56" class="edge">
<title>Node1&#45;&gt;Node9</title>
<path fill="none" stroke="#191970" d="M1275.7196,-233.2433C1095.3706,-229.594 341.5302,-212.9598 239.4011,-188 131.6628,-161.6694 73.0811,-171.3321 16.4011,-76 11.8584,-68.3595 10.3341,-62.4965 16.4011,-56 16.4011,-56 470.24,-24.9336 631.988,-13.8616"/>
<polygon fill="#191970" stroke="#191970" points="632.4742,-17.3366 642.2118,-13.1618 631.9961,-10.353 632.4742,-17.3366"/>
</g>
<!-- Node10 -->
<g id="node10" class="node">
<title>Node10</title>
<g id="a_node10"><a xlink:href="a00419_source.html" target="_top" xlink:title=" ">
<polygon fill="#ffffff" stroke="#000000" points="1151.4011,-.5 1151.4011,-19.5 1237.4011,-19.5 1237.4011,-.5 1151.4011,-.5"/>
<text text-anchor="middle" x="1194.4011" y="-7.5" font-family="Helvetica,sans-Serif" font-size="10.00" fill="#000000">freetds/popvis.h</text>
</a>
</g>
</g>
<!-- Node1&#45;&gt;Node10 -->
<g id="edge57" class="edge">
<title>Node1&#45;&gt;Node10</title>
<path fill="none" stroke="#191970" d="M1349.3752,-224.4711C1430.9244,-200.6512 1621.6701,-134.739 1552.4011,-56 1532.6282,-33.524 1342.9099,-18.9722 1247.9683,-13.0376"/>
<polygon fill="#191970" stroke="#191970" points="1247.9004,-9.5269 1237.7045,-12.4066 1247.4708,-16.5137 1247.9004,-9.5269"/>
</g>
<!-- Node11 -->
<g id="node11" class="node">
<title>Node11</title>
<g id="a_node11"><a xlink:href="a00437.html" target="_top" xlink:title=" ">
<polygon fill="#ffffff" stroke="#000000" points="736.9011,-168.5 736.9011,-187.5 807.9011,-187.5 807.9011,-168.5 736.9011,-168.5"/>
<text text-anchor="middle" x="772.4011" y="-175.5" font-family="Helvetica,sans-Serif" font-size="10.00" fill="#000000">freetds/tds.h</text>
</a>
</g>
</g>
<!-- Node1&#45;&gt;Node11 -->
<g id="edge11" class="edge">
<title>Node1&#45;&gt;Node11</title>
<path fill="none" stroke="#191970" d="M1275.8563,-230.0175C1178.4909,-219.9576 922.9627,-193.5562 818.2039,-182.7324"/>
<polygon fill="#191970" stroke="#191970" points="818.5583,-179.2505 808.2515,-181.7041 817.8388,-186.2134 818.5583,-179.2505"/>
</g>
<!-- Node23 -->
<g id="node23" class="node">
<title>Node23</title>
<g id="a_node23"><a xlink:href="a00383_source.html" target="_top" xlink:title=" ">
<polygon fill="#ffffff" stroke="#000000" points="1600.4011,-168.5 1600.4011,-187.5 1682.4011,-187.5 1682.4011,-168.5 1600.4011,-168.5"/>
<text text-anchor="middle" x="1641.4011" y="-175.5" font-family="Helvetica,sans-Serif" font-size="10.00" fill="#000000">freetds/bytes.h</text>
</a>
</g>
</g>
<!-- Node1&#45;&gt;Node23 -->
<g id="edge43" class="edge">
<title>Node1&#45;&gt;Node23</title>
<path fill="none" stroke="#191970" d="M1353.0083,-227.9989C1404.7146,-219.8715 1499.556,-204.6495 1590.3181,-188.1552"/>
<polygon fill="#191970" stroke="#191970" points="1591.012,-191.5864 1600.2209,-186.3474 1589.7549,-184.7002 1591.012,-191.5864"/>
</g>
<!-- Node24 -->
<g id="node24" class="node">
<title>Node24</title>
<g id="a_node24"><a xlink:href="a00410_source.html" target="_top" xlink:title=" ">
<polygon fill="#ffffff" stroke="#000000" points="1463.4011,-56.5 1463.4011,-75.5 1543.4011,-75.5 1543.4011,-56.5 1463.4011,-56.5"/>
<text text-anchor="middle" x="1503.4011" y="-63.5" font-family="Helvetica,sans-Serif" font-size="10.00" fill="#000000">freetds/iconv.h</text>
</a>
</g>
</g>
<!-- Node1&#45;&gt;Node24 -->
<g id="edge44" class="edge">
<title>Node1&#45;&gt;Node24</title>
<path fill="none" stroke="#191970" d="M1325.104,-224.4862C1356.0152,-197.0096 1445.7037,-117.2866 1484.8075,-82.5276"/>
<polygon fill="#191970" stroke="#191970" points="1487.1959,-85.0875 1492.3447,-75.8279 1482.5453,-79.8556 1487.1959,-85.0875"/>
</g>
<!-- Node25 -->
<g id="node25" class="node">
<title>Node25</title>
<g id="a_node25"><a xlink:href="a00392_source.html" target="_top" xlink:title=" ">
<polygon fill="#ffffff" stroke="#000000" points="1260.9011,-56.5 1260.9011,-75.5 1349.9011,-75.5 1349.9011,-56.5 1260.9011,-56.5"/>
<text text-anchor="middle" x="1305.4011" y="-63.5" font-family="Helvetica,sans-Serif" font-size="10.00" fill="#000000">freetds/checks.h</text>
</a>
</g>
</g>
<!-- Node1&#45;&gt;Node25 -->
<g id="edge47" class="edge">
<title>Node1&#45;&gt;Node25</title>
<path fill="none" stroke="#191970" d="M1315.2217,-224.4719C1316.8329,-203.8759 1319.8812,-153.6989 1315.4011,-112 1314.4647,-103.285 1312.5578,-93.7985 1310.6578,-85.7166"/>
<polygon fill="#191970" stroke="#191970" points="1313.991,-84.6187 1308.1631,-75.7707 1307.2013,-86.3218 1313.991,-84.6187"/>
</g>
<!-- Node26 -->
<g id="node26" class="node">
<title>Node26</title>
<g id="a_node26"><a xlink:href="a00431_source.html" target="_top" xlink:title=" ">
<polygon fill="#ffffff" stroke="#000000" points="37.4011,-56.5 37.4011,-75.5 125.4011,-75.5 125.4011,-56.5 37.4011,-56.5"/>
<text text-anchor="middle" x="81.4011" y="-63.5" font-family="Helvetica,sans-Serif" font-size="10.00" fill="#000000">freetds/stream.h</text>
</a>
</g>
</g>
<!-- Node1&#45;&gt;Node26 -->
<g id="edge50" class="edge">
<title>Node1&#45;&gt;Node26</title>
<path fill="none" stroke="#191970" d="M1275.6334,-233.2346C1158.2383,-230.6123 796.4028,-220.2895 498.4011,-188 342.6562,-171.1245 290.6783,-201.739 150.4011,-132 127.5696,-120.6493 107.265,-99.1125 94.6929,-83.7274"/>
<polygon fill="#191970" stroke="#191970" points="97.1572,-81.199 88.2236,-75.5032 91.6554,-85.5269 97.1572,-81.199"/>
</g>
<!-- Node27 -->
<g id="node27" class="node">
<title>Node27</title>
<g id="a_node27"><a xlink:href="a00401_source.html" target="_top" xlink:title=" ">
<polygon fill="#ffffff" stroke="#000000" points="1367.9011,-56.5 1367.9011,-75.5 1444.9011,-75.5 1444.9011,-56.5 1367.9011,-56.5"/>
<text text-anchor="middle" x="1406.4011" y="-63.5" font-family="Helvetica,sans-Serif" font-size="10.00" fill="#000000">freetds/data.h</text>
</a>
</g>
</g>
<!-- Node1&#45;&gt;Node27 -->
<g id="edge53" class="edge">
<title>Node1&#45;&gt;Node27</title>
<path fill="none" stroke="#191970" d="M1319.611,-224.4862C1334.3429,-197.5845 1376.5014,-120.5994 1396.1237,-84.7673"/>
<polygon fill="#191970" stroke="#191970" points="1399.2858,-86.28 1401.0191,-75.8279 1393.1461,-82.9177 1399.2858,-86.28"/>
</g>
<!-- Node28 -->
<g id="node28" class="node">
<title>Node28</title>
<g id="a_node28"><a xlink:href="a00296_source.html" target="_top" xlink:title=" ">
<polygon fill="#ffffff" stroke="#000000" points="1700.4011,-168.5 1700.4011,-187.5 1768.4011,-187.5 1768.4011,-168.5 1700.4011,-168.5"/>
<text text-anchor="middle" x="1734.4011" y="-175.5" font-family="Helvetica,sans-Serif" font-size="10.00" fill="#000000">tds_types.h</text>
</a>
</g>
</g>
<!-- Node1&#45;&gt;Node28 -->
<g id="edge58" class="edge">
<title>Node1&#45;&gt;Node28</title>
<path fill="none" stroke="#191970" d="M1353.1366,-230.6542C1419.9381,-224.5853 1561.2684,-210.4349 1690.1551,-188.0665"/>
<polygon fill="#191970" stroke="#191970" points="1690.958,-191.4791 1700.2015,-186.3015 1689.7467,-184.5847 1690.958,-191.4791"/>
</g>
<!-- Node7 -->
<g id="node7" class="node">
<title>Node7</title>
<g id="a_node7"><a xlink:href="a00443_source.html" target="_top" xlink:title=" ">
<polygon fill="#ffffff" stroke="#000000" points="181.9011,-56.5 181.9011,-75.5 258.9011,-75.5 258.9011,-56.5 181.9011,-56.5"/>
<text text-anchor="middle" x="220.4011" y="-63.5" font-family="Helvetica,sans-Serif" font-size="10.00" fill="#000000">freetds/time.h</text>
</a>
</g>
</g>
<!-- Node6&#45;&gt;Node7 -->
<g id="edge6" class="edge">
<title>Node6&#45;&gt;Node7</title>
<path fill="none" stroke="#191970" d="M201.4073,-112.2455C204.4745,-104.7776 208.8014,-94.2427 212.5508,-85.1137"/>
<polygon fill="#191970" stroke="#191970" points="215.879,-86.2226 216.4407,-75.6427 209.4039,-83.5631 215.879,-86.2226"/>
</g>
<!-- Node8 -->
<g id="node8" class="node">
<title>Node8</title>
<g id="a_node8"><a xlink:href="a00434_source.html" target="_top" xlink:title=" ">
<polygon fill="#ffffff" stroke="#000000" points="457.4011,-56.5 457.4011,-75.5 581.4011,-75.5 581.4011,-56.5 457.4011,-56.5"/>
<text text-anchor="middle" x="519.4011" y="-63.5" font-family="Helvetica,sans-Serif" font-size="10.00" fill="#000000">freetds/sysdep_private.h</text>
</a>
</g>
</g>
<!-- Node6&#45;&gt;Node8 -->
<g id="edge8" class="edge">
<title>Node6&#45;&gt;Node8</title>
<path fill="none" stroke="#191970" d="M235.6032,-115.3562C289.5258,-105.9783 388.6948,-88.7315 454.3498,-77.3133"/>
<polygon fill="#191970" stroke="#191970" points="455.3348,-80.6946 464.5872,-75.5328 454.1354,-73.7981 455.3348,-80.6946"/>
</g>
<!-- Node6&#45;&gt;Node9 -->
<g id="edge9" class="edge">
<title>Node6&#45;&gt;Node9</title>
<path fill="none" stroke="#191970" d="M158.9236,-119.6291C97.5018,-114.5179 -11.8823,-99.1887 28.4011,-56 29.0438,-55.3109 472.8131,-24.7944 632.2238,-13.853"/>
<polygon fill="#191970" stroke="#191970" points="632.5681,-17.3377 642.3049,-13.1612 632.0887,-10.3541 632.5681,-17.3377"/>
</g>
<!-- Node6&#45;&gt;Node10 -->
<g id="edge10" class="edge">
<title>Node6&#45;&gt;Node10</title>
<path fill="none" stroke="#191970" d="M188.0695,-112.2182C175.7115,-98.095 157.1604,-71.942 172.4011,-56 189.2985,-38.3249 933.8203,-17.0086 1141.2522,-11.4044"/>
<polygon fill="#191970" stroke="#191970" points="1141.3903,-14.902 1151.2924,-11.1341 1141.2018,-7.9045 1141.3903,-14.902"/>
</g>
<!-- Node7&#45;&gt;Node7 -->
<g id="edge7" class="edge">
<title>Node7&#45;&gt;Node7</title>
<path fill="none" stroke="#191970" d="M244.4984,-75.5252C260.8719,-78.3079 276.9011,-75.1328 276.9011,-66 276.9011,-58.7936 266.921,-55.2967 254.6666,-55.5091"/>
<polygon fill="#191970" stroke="#191970" points="254.1227,-52.0449 244.4984,-56.4748 254.7845,-59.0136 254.1227,-52.0449"/>
</g>
<!-- Node11&#45;&gt;Node3 -->
<g id="edge12" class="edge">
<title>Node11&#45;&gt;Node3</title>
<path fill="none" stroke="#191970" d="M765.8639,-168.2863C757.3098,-154.2477 744.9061,-128.1993 758.4011,-112 786.7455,-77.9753 911.1206,-85.3749 954.4011,-76 955.6603,-75.7272 956.9403,-75.4434 958.2317,-75.1514"/>
<polygon fill="#191970" stroke="#191970" points="959.276,-78.5012 968.2067,-72.8009 957.6705,-71.6878 959.276,-78.5012"/>
</g>
<!-- Node11&#45;&gt;Node4 -->
<g id="edge13" class="edge">
<title>Node11&#45;&gt;Node4</title>
<path fill="none" stroke="#191970" d="M808.0611,-176.5771C887.4073,-172.9673 1084.3366,-161.55 1246.4011,-132 1247.653,-131.7717 1248.9244,-131.5217 1250.2054,-131.2546"/>
<polygon fill="#191970" stroke="#191970" points="1251.112,-134.637 1260.048,-128.945 1249.5128,-127.8221 1251.112,-134.637"/>
</g>
<!-- Node11&#45;&gt;Node7 -->
<g id="edge14" class="edge">
<title>Node11&#45;&gt;Node7</title>
<path fill="none" stroke="#191970" d="M736.8887,-176.0956C631.2788,-170.233 323.9754,-151.6608 283.4011,-132 261.4749,-121.3754 243.1537,-99.6922 232.0209,-84.0745"/>
<polygon fill="#191970" stroke="#191970" points="234.8457,-82.0044 226.3237,-75.7094 229.06,-85.9448 234.8457,-82.0044"/>
</g>
<!-- Node11&#45;&gt;Node8 -->
<g id="edge18" class="edge">
<title>Node11&#45;&gt;Node8</title>
<path fill="none" stroke="#191970" d="M736.7247,-172.3477C687.8486,-164.1475 603.0851,-148.1582 576.4011,-132 556.8819,-120.1804 540.5889,-99.4013 530.4891,-84.3093"/>
<polygon fill="#191970" stroke="#191970" points="533.367,-82.3131 525.0274,-75.7783 527.4717,-86.0874 533.367,-82.3131"/>
</g>
<!-- Node11&#45;&gt;Node9 -->
<g id="edge40" class="edge">
<title>Node11&#45;&gt;Node9</title>
<path fill="none" stroke="#191970" d="M736.5453,-174.09C691.5123,-168.4049 612.392,-155.8321 548.4011,-132 500.6653,-114.2218 474.1591,-119.9464 448.4011,-76 443.9062,-68.3313 442.7381,-62.8515 448.4011,-56 471.2519,-28.3535 568.6181,-17.1601 632.0967,-12.7463"/>
<polygon fill="#191970" stroke="#191970" points="632.616,-16.2198 642.3645,-12.0705 632.1562,-9.2349 632.616,-16.2198"/>
</g>
<!-- Node11&#45;&gt;Node10 -->
<g id="edge42" class="edge">
<title>Node11&#45;&gt;Node10</title>
<path fill="none" stroke="#191970" d="M808.0941,-176.9628C908.2533,-173.6873 1186.4118,-161.9509 1213.4011,-132 1239.1038,-103.4768 1219.5379,-55.1429 1205.4675,-28.6839"/>
<polygon fill="#191970" stroke="#191970" points="1208.3822,-26.7246 1200.4498,-19.7012 1202.271,-30.1383 1208.3822,-26.7246"/>
</g>
<!-- Node12 -->
<g id="node12" class="node">
<title>Node12</title>
<g id="a_node12"><a xlink:href="a00476_source.html" target="_top" xlink:title=" ">
<polygon fill="#ffffff" stroke="#000000" points="800.9011,-112.5 800.9011,-131.5 889.9011,-131.5 889.9011,-112.5 800.9011,-112.5"/>
<text text-anchor="middle" x="845.4011" y="-119.5" font-family="Helvetica,sans-Serif" font-size="10.00" fill="#000000">freetds/version.h</text>
</a>
</g>
</g>
<!-- Node11&#45;&gt;Node12 -->
<g id="edge15" class="edge">
<title>Node11&#45;&gt;Node12</title>
<path fill="none" stroke="#191970" d="M785.1167,-168.2455C796.0031,-159.8943 811.8893,-147.7076 824.6211,-137.9408"/>
<polygon fill="#191970" stroke="#191970" points="827.0271,-140.5063 832.8311,-131.6427 822.7665,-134.9523 827.0271,-140.5063"/>
</g>
<!-- Node13 -->
<g id="node13" class="node">
<title>Node13</title>
<g id="a_node13"><a xlink:href="a00512_source.html" target="_top" xlink:title=" ">
<polygon fill="#ffffff" stroke="#000000" points="295.4011,-56.5 295.4011,-75.5 401.4011,-75.5 401.4011,-56.5 295.4011,-56.5"/>
<text text-anchor="middle" x="348.4011" y="-63.5" font-family="Helvetica,sans-Serif" font-size="10.00" fill="#000000">tds_sysdep_public.h</text>
</a>
</g>
</g>
<!-- Node11&#45;&gt;Node13 -->
<g id="edge16" class="edge">
<title>Node11&#45;&gt;Node13</title>
<path fill="none" stroke="#191970" d="M736.8324,-175.6859C660.65,-170.3345 484.1942,-155.718 429.4011,-132 403.3173,-120.7093 378.8191,-98.515 363.7371,-82.9941"/>
<polygon fill="#191970" stroke="#191970" points="366.1552,-80.4567 356.7499,-75.5791 361.0606,-85.2573 366.1552,-80.4567"/>
</g>
<!-- Node15 -->
<g id="node15" class="node">
<title>Node15</title>
<g id="a_node15"><a xlink:href="a00440_source.html" target="_top" xlink:title=" ">
<polygon fill="#ffffff" stroke="#000000" points="291.9011,-112.5 291.9011,-131.5 376.9011,-131.5 376.9011,-112.5 291.9011,-112.5"/>
<text text-anchor="middle" x="334.4011" y="-119.5" font-family="Helvetica,sans-Serif" font-size="10.00" fill="#000000">freetds/thread.h</text>
</a>
</g>
</g>
<!-- Node11&#45;&gt;Node15 -->
<g id="edge19" class="edge">
<title>Node11&#45;&gt;Node15</title>
<path fill="none" stroke="#191970" d="M736.8605,-174.3512C669.3791,-167.2809 518.1101,-150.7502 391.4011,-132 389.9413,-131.784 388.4614,-131.5598 386.9685,-131.3292"/>
<polygon fill="#191970" stroke="#191970" points="387.4305,-127.8587 377.0023,-129.7304 386.3217,-134.7703 387.4305,-127.8587"/>
</g>
<!-- Node16 -->
<g id="node16" class="node">
<title>Node16</title>
<g id="a_node16"><a xlink:href="a00380_source.html" target="_top" xlink:title=" ">
<polygon fill="#ffffff" stroke="#000000" points="908.4011,-112.5 908.4011,-131.5 984.4011,-131.5 984.4011,-112.5 908.4011,-112.5"/>
<text text-anchor="middle" x="946.4011" y="-119.5" font-family="Helvetica,sans-Serif" font-size="10.00" fill="#000000">freetds/bool.h</text>
</a>
</g>
</g>
<!-- Node11&#45;&gt;Node16 -->
<g id="edge21" class="edge">
<title>Node11&#45;&gt;Node16</title>
<path fill="none" stroke="#191970" d="M802.3127,-168.3733C831.2463,-159.0613 875.2622,-144.8953 907.0304,-134.671"/>
<polygon fill="#191970" stroke="#191970" points="908.4329,-137.8965 916.8797,-131.5011 906.2883,-131.2331 908.4329,-137.8965"/>
</g>
<!-- Node17 -->
<g id="node17" class="node">
<title>Node17</title>
<g id="a_node17"><a xlink:href="a00413_source.html" target="_top" xlink:title=" ">
<polygon fill="#ffffff" stroke="#000000" points="1038.4011,-56.5 1038.4011,-75.5 1128.4011,-75.5 1128.4011,-56.5 1038.4011,-56.5"/>
<text text-anchor="middle" x="1083.4011" y="-63.5" font-family="Helvetica,sans-Serif" font-size="10.00" fill="#000000">freetds/macros.h</text>
</a>
</g>
</g>
<!-- Node11&#45;&gt;Node17 -->
<g id="edge22" class="edge">
<title>Node11&#45;&gt;Node17</title>
<path fill="none" stroke="#191970" d="M772.319,-168.2195C772.7689,-153.605 775.9279,-126.2642 792.4011,-112 830.6274,-78.8997 962.4936,-84.1767 1028.3592,-75.9087"/>
<polygon fill="#191970" stroke="#191970" points="1028.9469,-79.3602 1038.3391,-74.4575 1027.9395,-72.433 1028.9469,-79.3602"/>
</g>
<!-- Node18 -->
<g id="node18" class="node">
<title>Node18</title>
<g id="a_node18"><a xlink:href="a00470_source.html" target="_top" xlink:title=" ">
<polygon fill="#ffffff" stroke="#000000" points="1100.9011,-112.5 1100.9011,-131.5 1203.9011,-131.5 1203.9011,-112.5 1100.9011,-112.5"/>
<text text-anchor="middle" x="1152.4011" y="-119.5" font-family="Helvetica,sans-Serif" font-size="10.00" fill="#000000">freetds/utils/string.h</text>
</a>
</g>
</g>
<!-- Node11&#45;&gt;Node18 -->
<g id="edge23" class="edge">
<title>Node11&#45;&gt;Node18</title>
<path fill="none" stroke="#191970" d="M808.3145,-173.0512C865.616,-165.1051 981.5212,-148.8281 1090.6307,-132.0946"/>
<polygon fill="#191970" stroke="#191970" points="1091.4758,-135.5059 1100.8275,-130.5264 1090.4117,-128.5873 1091.4758,-135.5059"/>
</g>
<!-- Node19 -->
<g id="node19" class="node">
<title>Node19</title>
<g id="a_node19"><a xlink:href="a00491_source.html" target="_top" xlink:title=" ">
<polygon fill="#ffffff" stroke="#000000" points="584.9011,-112.5 584.9011,-131.5 667.9011,-131.5 667.9011,-112.5 584.9011,-112.5"/>
<text text-anchor="middle" x="626.4011" y="-119.5" font-family="Helvetica,sans-Serif" font-size="10.00" fill="#000000">replacements.h</text>
</a>
</g>
</g>
<!-- Node11&#45;&gt;Node19 -->
<g id="edge27" class="edge">
<title>Node11&#45;&gt;Node19</title>
<path fill="none" stroke="#191970" d="M747.3028,-168.3733C723.4456,-159.2226 687.3675,-145.3844 660.8301,-135.2057"/>
<polygon fill="#191970" stroke="#191970" points="661.762,-131.8145 651.1718,-131.5011 659.2551,-138.3503 661.762,-131.8145"/>
</g>
<!-- Node22 -->
<g id="node22" class="node">
<title>Node22</title>
<g id="a_node22"><a xlink:href="a00422_source.html" target="_top" xlink:title=" ">
<polygon fill="#ffffff" stroke="#000000" points="1002.4011,-112.5 1002.4011,-131.5 1082.4011,-131.5 1082.4011,-112.5 1002.4011,-112.5"/>
<text text-anchor="middle" x="1042.4011" y="-119.5" font-family="Helvetica,sans-Serif" font-size="10.00" fill="#000000">freetds/proto.h</text>
</a>
</g>
</g>
<!-- Node11&#45;&gt;Node22 -->
<g id="edge41" class="edge">
<title>Node11&#45;&gt;Node22</title>
<path fill="none" stroke="#191970" d="M807.9765,-170.6214C855.1953,-160.8279 938.8287,-143.4817 992.3861,-132.3735"/>
<polygon fill="#191970" stroke="#191970" points="993.268,-135.7651 1002.3487,-130.3071 991.8463,-128.911 993.268,-135.7651"/>
</g>
<!-- Node14 -->
<g id="node14" class="node">
<title>Node14</title>
<g id="a_node14"><a xlink:title=" ">
<polygon fill="#ffffff" stroke="#bfbfbf" points="326.4011,-.5 326.4011,-19.5 370.4011,-19.5 370.4011,-.5 326.4011,-.5"/>
<text text-anchor="middle" x="348.4011" y="-7.5" font-family="Helvetica,sans-Serif" font-size="10.00" fill="#000000">float.h</text>
</a>
</g>
</g>
<!-- Node13&#45;&gt;Node14 -->
<g id="edge17" class="edge">
<title>Node13&#45;&gt;Node14</title>
<path fill="none" stroke="#191970" d="M348.4011,-56.2455C348.4011,-48.9382 348.4011,-38.6944 348.4011,-29.7046"/>
<polygon fill="#191970" stroke="#191970" points="351.9012,-29.6426 348.4011,-19.6427 344.9012,-29.6427 351.9012,-29.6426"/>
</g>
<!-- Node15&#45;&gt;Node13 -->
<g id="edge20" class="edge">
<title>Node15&#45;&gt;Node13</title>
<path fill="none" stroke="#191970" d="M336.8397,-112.2455C338.6866,-104.8579 341.2838,-94.4689 343.5489,-85.4087"/>
<polygon fill="#191970" stroke="#191970" points="346.9605,-86.193 345.9904,-75.6427 340.1695,-84.4952 346.9605,-86.193"/>
</g>
<!-- Node18&#45;&gt;Node9 -->
<g id="edge25" class="edge">
<title>Node18&#45;&gt;Node9</title>
<path fill="none" stroke="#191970" d="M1153.3792,-112.1977C1154.2392,-97.5547 1153.4126,-70.1771 1137.4011,-56 1108.5644,-30.4671 859.1798,-17.0205 745.0252,-12.1558"/>
<polygon fill="#191970" stroke="#191970" points="744.8779,-8.6467 734.7402,-11.7252 744.585,-15.6406 744.8779,-8.6467"/>
</g>
<!-- Node18&#45;&gt;Node10 -->
<g id="edge26" class="edge">
<title>Node18&#45;&gt;Node10</title>
<path fill="none" stroke="#191970" d="M1156.3327,-112.1561C1160.0265,-102.86 1165.6773,-88.5164 1170.4011,-76 1176.3118,-60.3385 1182.7857,-42.4921 1187.5186,-29.3092"/>
<polygon fill="#191970" stroke="#191970" points="1190.8234,-30.462 1190.897,-19.8675 1184.2326,-28.1037 1190.8234,-30.462"/>
</g>
<!-- Node18&#45;&gt;Node17 -->
<g id="edge24" class="edge">
<title>Node18&#45;&gt;Node17</title>
<path fill="none" stroke="#191970" d="M1140.3822,-112.2455C1130.1912,-103.9746 1115.3648,-91.9416 1103.3904,-82.2232"/>
<polygon fill="#191970" stroke="#191970" points="1105.2524,-79.2268 1095.2822,-75.6427 1100.8412,-84.662 1105.2524,-79.2268"/>
</g>
<!-- Node19&#45;&gt;Node3 -->
<g id="edge28" class="edge">
<title>Node19&#45;&gt;Node3</title>
<path fill="none" stroke="#191970" d="M667.956,-114.3643C672.8204,-113.5343 677.7168,-112.7278 682.4011,-112 802.8982,-93.277 834.613,-98.8244 954.4011,-76 955.6668,-75.7588 956.9522,-75.5021 958.2484,-75.2333"/>
<polygon fill="#191970" stroke="#191970" points="959.254,-78.5948 968.2453,-72.9905 957.7216,-71.7646 959.254,-78.5948"/>
</g>
<!-- Node19&#45;&gt;Node8 -->
<g id="edge30" class="edge">
<title>Node19&#45;&gt;Node8</title>
<path fill="none" stroke="#191970" d="M607.7631,-112.2455C590.9624,-103.4527 566.0376,-90.4079 546.9392,-80.4125"/>
<polygon fill="#191970" stroke="#191970" points="548.3084,-77.1787 537.8255,-75.6427 545.0624,-83.3807 548.3084,-77.1787"/>
</g>
<!-- Node19&#45;&gt;Node9 -->
<g id="edge38" class="edge">
<title>Node19&#45;&gt;Node9</title>
<path fill="none" stroke="#191970" d="M624.4562,-112.4039C622.2385,-98.9611 620.0273,-74.1379 629.4011,-56 636.1013,-43.0353 648.2855,-32.5899 659.8492,-24.9497"/>
<polygon fill="#191970" stroke="#191970" points="661.7779,-27.8727 668.47,-19.6588 658.1163,-21.9067 661.7779,-27.8727"/>
</g>
<!-- Node19&#45;&gt;Node10 -->
<g id="edge39" class="edge">
<title>Node19&#45;&gt;Node10</title>
<path fill="none" stroke="#191970" d="M667.9693,-114.4474C672.8313,-113.6025 677.7235,-112.7698 682.4011,-112 788.3958,-94.5566 819.3325,-109.4839 921.4011,-76 939.5354,-70.051 941.4013,-62.3447 959.4011,-56 1019.9819,-34.646 1093.0403,-22.3118 1141.4462,-15.8884"/>
<polygon fill="#191970" stroke="#191970" points="1141.9178,-19.3566 1151.388,-14.6063 1141.0224,-12.4141 1141.9178,-19.3566"/>
</g>
<!-- Node19&#45;&gt;Node13 -->
<g id="edge29" class="edge">
<title>Node19&#45;&gt;Node13</title>
<path fill="none" stroke="#191970" d="M584.7816,-113.6162C537.2538,-104.0423 459.2005,-88.3193 405.8871,-77.5799"/>
<polygon fill="#191970" stroke="#191970" points="406.3965,-74.1123 395.9022,-75.5686 405.0141,-80.9745 406.3965,-74.1123"/>
</g>
<!-- Node20 -->
<g id="node20" class="node">
<title>Node20</title>
<g id="a_node20"><a xlink:href="a00488_source.html" target="_top" xlink:title=" ">
<polygon fill="#ffffff" stroke="#000000" points="756.9011,-56.5 756.9011,-75.5 911.9011,-75.5 911.9011,-56.5 756.9011,-56.5"/>
<text text-anchor="middle" x="834.4011" y="-63.5" font-family="Helvetica,sans-Serif" font-size="10.00" fill="#000000">replacements/readpassphrase.h</text>
</a>
</g>
</g>
<!-- Node19&#45;&gt;Node20 -->
<g id="edge31" class="edge">
<title>Node19&#45;&gt;Node20</title>
<path fill="none" stroke="#191970" d="M662.1575,-112.3733C697.3437,-102.9001 751.1891,-88.4032 789.2967,-78.1435"/>
<polygon fill="#191970" stroke="#191970" points="790.3649,-81.4806 799.1112,-75.5011 788.5451,-74.7213 790.3649,-81.4806"/>
</g>
<!-- Node21 -->
<g id="node21" class="node">
<title>Node21</title>
<g id="a_node21"><a xlink:href="a00485.html" target="_top" xlink:title="Provide poll call where missing.">
<polygon fill="#ffffff" stroke="#000000" points="637.9011,-56.5 637.9011,-75.5 738.9011,-75.5 738.9011,-56.5 637.9011,-56.5"/>
<text text-anchor="middle" x="688.4011" y="-63.5" font-family="Helvetica,sans-Serif" font-size="10.00" fill="#000000">replacements/poll.h</text>
</a>
</g>
</g>
<!-- Node19&#45;&gt;Node21 -->
<g id="edge34" class="edge">
<title>Node19&#45;&gt;Node21</title>
<path fill="none" stroke="#191970" d="M637.2006,-112.2455C646.2688,-104.0549 659.4217,-92.1749 670.1255,-82.5069"/>
<polygon fill="#191970" stroke="#191970" points="672.6502,-84.9429 677.7252,-75.6427 667.9582,-79.7482 672.6502,-84.9429"/>
</g>
<!-- Node20&#45;&gt;Node9 -->
<g id="edge32" class="edge">
<title>Node20&#45;&gt;Node9</title>
<path fill="none" stroke="#191970" d="M809.3028,-56.3733C785.4456,-47.2226 749.3675,-33.3844 722.8301,-23.2057"/>
<polygon fill="#191970" stroke="#191970" points="723.762,-19.8145 713.1718,-19.5011 721.2551,-26.3503 723.762,-19.8145"/>
</g>
<!-- Node20&#45;&gt;Node10 -->
<g id="edge33" class="edge">
<title>Node20&#45;&gt;Node10</title>
<path fill="none" stroke="#191970" d="M895.8782,-56.4369C964.8837,-45.7027 1075.7245,-28.4608 1141.1661,-18.281"/>
<polygon fill="#191970" stroke="#191970" points="1141.9227,-21.7055 1151.2659,-16.7099 1140.8467,-14.7887 1141.9227,-21.7055"/>
</g>
<!-- Node21&#45;&gt;Node2 -->
<g id="edge35" class="edge">
<title>Node21&#45;&gt;Node2</title>
<path fill="none" stroke="#191970" d="M657.1141,-56.3733C625.0614,-46.5109 575.3127,-31.2036 541.8296,-20.9011"/>
<polygon fill="#191970" stroke="#191970" points="542.5852,-17.4717 531.998,-17.876 540.5265,-24.1622 542.5852,-17.4717"/>
</g>
<!-- Node21&#45;&gt;Node9 -->
<g id="edge36" class="edge">
<title>Node21&#45;&gt;Node9</title>
<path fill="none" stroke="#191970" d="M688.4011,-56.2455C688.4011,-48.9382 688.4011,-38.6944 688.4011,-29.7046"/>
<polygon fill="#191970" stroke="#191970" points="691.9012,-29.6426 688.4011,-19.6427 684.9012,-29.6427 691.9012,-29.6426"/>
</g>
<!-- Node21&#45;&gt;Node10 -->
<g id="edge37" class="edge">
<title>Node21&#45;&gt;Node10</title>
<path fill="none" stroke="#191970" d="M739.1065,-57.3207C742.2486,-56.8537 745.366,-56.409 748.4011,-56 889.8463,-36.9375 1057.4651,-21.5842 1141.2079,-14.4054"/>
<polygon fill="#191970" stroke="#191970" points="1141.5741,-17.887 1151.2407,-13.5501 1140.9795,-10.9123 1141.5741,-17.887"/>
</g>
<!-- Node24&#45;&gt;Node9 -->
<g id="edge45" class="edge">
<title>Node24&#45;&gt;Node9</title>
<path fill="none" stroke="#191970" d="M1463.3675,-57.3499C1460.3416,-56.8434 1457.3279,-56.3846 1454.4011,-56 1190.6991,-21.3503 872.4481,-12.7681 745.0948,-10.6687"/>
<polygon fill="#191970" stroke="#191970" points="744.8662,-7.1648 734.8122,-10.5066 744.7558,-14.1639 744.8662,-7.1648"/>
</g>
<!-- Node24&#45;&gt;Node10 -->
<g id="edge46" class="edge">
<title>Node24&#45;&gt;Node10</title>
<path fill="none" stroke="#191970" d="M1463.3066,-57.7284C1460.2948,-57.1343 1457.3009,-56.5523 1454.4011,-56 1383.0561,-42.411 1300.4329,-28.0229 1247.819,-19.0298"/>
<polygon fill="#191970" stroke="#191970" points="1248.1548,-15.5366 1237.7086,-17.3049 1246.9775,-22.4369 1248.1548,-15.5366"/>
</g>
<!-- Node25&#45;&gt;Node9 -->
<g id="edge48" class="edge">
<title>Node25&#45;&gt;Node9</title>
<path fill="none" stroke="#191970" d="M1260.5309,-61.9275C1150.3236,-51.9249 866.4982,-26.1644 744.9805,-15.1353"/>
<polygon fill="#191970" stroke="#191970" points="745.0528,-11.6275 734.7773,-14.2092 744.42,-18.5989 745.0528,-11.6275"/>
</g>
<!-- Node25&#45;&gt;Node10 -->
<g id="edge49" class="edge">
<title>Node25&#45;&gt;Node10</title>
<path fill="none" stroke="#191970" d="M1286.3195,-56.3733C1268.6609,-47.4644 1242.1958,-34.1127 1222.1913,-24.0203"/>
<polygon fill="#191970" stroke="#191970" points="1223.7383,-20.8806 1213.2336,-19.5011 1220.5853,-27.1303 1223.7383,-20.8806"/>
</g>
<!-- Node26&#45;&gt;Node9 -->
<g id="edge51" class="edge">
<title>Node26&#45;&gt;Node9</title>
<path fill="none" stroke="#191970" d="M125.6748,-57.9578C130.3014,-57.2398 134.9414,-56.5702 139.4011,-56 233.5474,-43.963 511.6798,-22.9425 631.9416,-14.102"/>
<polygon fill="#191970" stroke="#191970" points="632.3291,-17.5831 642.0462,-13.3606 631.8168,-10.6019 632.3291,-17.5831"/>
</g>
<!-- Node26&#45;&gt;Node10 -->
<g id="edge52" class="edge">
<title>Node26&#45;&gt;Node10</title>
<path fill="none" stroke="#191970" d="M125.6531,-57.7739C130.284,-57.0918 134.9309,-56.4808 139.4011,-56 336.862,-34.7598 955.7233,-16.5243 1141.2908,-11.4206"/>
<polygon fill="#191970" stroke="#191970" points="1141.4447,-14.9178 1151.3452,-11.1453 1141.2531,-7.9204 1141.4447,-14.9178"/>
</g>
<!-- Node27&#45;&gt;Node9 -->
<g id="edge54" class="edge">
<title>Node27&#45;&gt;Node9</title>
<path fill="none" stroke="#191970" d="M1367.7491,-57.3242C1364.932,-56.8309 1362.1275,-56.3816 1359.4011,-56 1132.9333,-24.3066 860.2767,-14.1838 744.6336,-11.1763"/>
<polygon fill="#191970" stroke="#191970" points="744.6827,-7.6765 734.5976,-10.923 744.5061,-14.6743 744.6827,-7.6765"/>
</g>
<!-- Node27&#45;&gt;Node10 -->
<g id="edge55" class="edge">
<title>Node27&#45;&gt;Node10</title>
<path fill="none" stroke="#191970" d="M1369.957,-56.3733C1334.0941,-46.9001 1279.2132,-32.4032 1240.3728,-22.1435"/>
<polygon fill="#191970" stroke="#191970" points="1240.9319,-18.6712 1230.3696,-19.5011 1239.1441,-25.439 1240.9319,-18.6712"/>
</g>
</g>
</svg>
