<?xml version="1.0" encoding="UTF-8" standalone="no"?>
<!DOCTYPE svg PUBLIC "-//W3C//DTD SVG 1.1//EN"
 "http://www.w3.org/Graphics/SVG/1.1/DTD/svg11.dtd">
<!-- Generated by graphviz version 2.40.1 (20161225.0304)
 -->
<!-- Title: src/tds/read.c Pages: 1 -->
<svg width="1279pt" height="252pt"
 viewBox="0.00 0.00 1278.90 252.00" xmlns="http://www.w3.org/2000/svg" xmlns:xlink="http://www.w3.org/1999/xlink">
<g id="graph0" class="graph" transform="scale(1 1) rotate(0) translate(4 248)">
<title>src/tds/read.c</title>
<polygon fill="#ffffff" stroke="transparent" points="-4,4 -4,-248 1274.9032,-248 1274.9032,4 -4,4"/>
<!-- Node1 -->
<g id="node1" class="node">
<title>Node1</title>
<g id="a_node1"><a xlink:title="Grab data from TDS packets.">
<polygon fill="#bfbfbf" stroke="#000000" points="877.4032,-224.5 877.4032,-243.5 954.4032,-243.5 954.4032,-224.5 877.4032,-224.5"/>
<text text-anchor="middle" x="915.9032" y="-231.5" font-family="Helvetica,sans-Serif" font-size="10.00" fill="#000000">src/tds/read.c</text>
</a>
</g>
</g>
<!-- Node2 -->
<g id="node2" class="node">
<title>Node2</title>
<g id="a_node2"><a xlink:href="a00356_source.html" target="_top" xlink:title=" ">
<polygon fill="#ffffff" stroke="#000000" points="1.4032,-.5 1.4032,-19.5 52.4032,-19.5 52.4032,-.5 1.4032,-.5"/>
<text text-anchor="middle" x="26.9032" y="-7.5" font-family="Helvetica,sans-Serif" font-size="10.00" fill="#000000">config.h</text>
</a>
</g>
</g>
<!-- Node1&#45;&gt;Node2 -->
<g id="edge1" class="edge">
<title>Node1&#45;&gt;Node2</title>
<path fill="none" stroke="#191970" d="M877.2496,-232.2972C731.7112,-225.4356 217.4892,-197.0007 68.9032,-132 33.6587,-116.5818 19.0655,-110.9096 2.9032,-76 -4.4218,-60.1783 3.9252,-41.4386 12.7213,-27.9777"/>
<polygon fill="#191970" stroke="#191970" points="15.7376,-29.7762 18.6956,-19.6027 10.0389,-25.7111 15.7376,-29.7762"/>
</g>
<!-- Node3 -->
<g id="node3" class="node">
<title>Node3</title>
<g id="a_node3"><a xlink:title=" ">
<polygon fill="#ffffff" stroke="#bfbfbf" points="537.9032,-168.5 537.9032,-187.5 589.9032,-187.5 589.9032,-168.5 537.9032,-168.5"/>
<text text-anchor="middle" x="563.9032" y="-175.5" font-family="Helvetica,sans-Serif" font-size="10.00" fill="#000000">assert.h</text>
</a>
</g>
</g>
<!-- Node1&#45;&gt;Node3 -->
<g id="edge2" class="edge">
<title>Node1&#45;&gt;Node3</title>
<path fill="none" stroke="#191970" d="M877.0559,-230.0632C818.8079,-223.7907 705.2806,-210.1357 600.0139,-188.0138"/>
<polygon fill="#191970" stroke="#191970" points="600.6912,-184.5796 590.1811,-185.9172 599.2313,-191.4257 600.6912,-184.5796"/>
</g>
<!-- Node4 -->
<g id="node4" class="node">
<title>Node4</title>
<g id="a_node4"><a xlink:href="a00437.html" target="_top" xlink:title=" ">
<polygon fill="#ffffff" stroke="#000000" points="608.4032,-168.5 608.4032,-187.5 679.4032,-187.5 679.4032,-168.5 608.4032,-168.5"/>
<text text-anchor="middle" x="643.9032" y="-175.5" font-family="Helvetica,sans-Serif" font-size="10.00" fill="#000000">freetds/tds.h</text>
</a>
</g>
</g>
<!-- Node1&#45;&gt;Node4 -->
<g id="edge3" class="edge">
<title>Node1&#45;&gt;Node4</title>
<path fill="none" stroke="#191970" d="M877.2211,-226.036C827.7205,-215.8447 742.0987,-198.2167 689.4853,-187.3845"/>
<polygon fill="#191970" stroke="#191970" points="689.9236,-183.9014 679.4232,-185.3129 688.512,-190.7576 689.9236,-183.9014"/>
</g>
<!-- Node15 -->
<g id="node15" class="node">
<title>Node15</title>
<g id="a_node15"><a xlink:href="a00470_source.html" target="_top" xlink:title=" ">
<polygon fill="#ffffff" stroke="#000000" points="963.4032,-112.5 963.4032,-131.5 1066.4032,-131.5 1066.4032,-112.5 963.4032,-112.5"/>
<text text-anchor="middle" x="1014.9032" y="-119.5" font-family="Helvetica,sans-Serif" font-size="10.00" fill="#000000">freetds/utils/string.h</text>
</a>
</g>
</g>
<!-- Node1&#45;&gt;Node15 -->
<g id="edge43" class="edge">
<title>Node1&#45;&gt;Node15</title>
<path fill="none" stroke="#191970" d="M919.9973,-224.2649C926.0371,-210.6568 938.3222,-185.6386 953.9032,-168 964.3297,-156.1968 978.2065,-145.447 990.0902,-137.3126"/>
<polygon fill="#191970" stroke="#191970" points="992.2829,-140.0589 998.6991,-131.6278 988.4256,-134.2176 992.2829,-140.0589"/>
</g>
<!-- Node22 -->
<g id="node22" class="node">
<title>Node22</title>
<g id="a_node22"><a xlink:href="a00410_source.html" target="_top" xlink:title=" ">
<polygon fill="#ffffff" stroke="#000000" points="1190.9032,-56.5 1190.9032,-75.5 1270.9032,-75.5 1270.9032,-56.5 1190.9032,-56.5"/>
<text text-anchor="middle" x="1230.9032" y="-63.5" font-family="Helvetica,sans-Serif" font-size="10.00" fill="#000000">freetds/iconv.h</text>
</a>
</g>
</g>
<!-- Node1&#45;&gt;Node22 -->
<g id="edge36" class="edge">
<title>Node1&#45;&gt;Node22</title>
<path fill="none" stroke="#191970" d="M954.6375,-227.2422C988.05,-220.4083 1036.9306,-207.9631 1075.9032,-188 1131.6997,-159.4192 1186.9568,-109.3292 1213.9143,-83.1067"/>
<polygon fill="#191970" stroke="#191970" points="1216.6769,-85.2981 1221.3412,-75.7852 1211.7626,-80.3131 1216.6769,-85.2981"/>
</g>
<!-- Node23 -->
<g id="node23" class="node">
<title>Node23</title>
<g id="a_node23"><a xlink:href="a00383_source.html" target="_top" xlink:title=" ">
<polygon fill="#ffffff" stroke="#000000" points="962.9032,-168.5 962.9032,-187.5 1044.9032,-187.5 1044.9032,-168.5 962.9032,-168.5"/>
<text text-anchor="middle" x="1003.9032" y="-175.5" font-family="Helvetica,sans-Serif" font-size="10.00" fill="#000000">freetds/bytes.h</text>
</a>
</g>
</g>
<!-- Node1&#45;&gt;Node23 -->
<g id="edge39" class="edge">
<title>Node1&#45;&gt;Node23</title>
<path fill="none" stroke="#191970" d="M931.2317,-224.2455C944.7336,-215.6534 964.6154,-203.0014 980.1718,-193.1018"/>
<polygon fill="#191970" stroke="#191970" points="982.1929,-195.9643 988.7505,-187.6427 978.4348,-190.0587 982.1929,-195.9643"/>
</g>
<!-- Node24 -->
<g id="node24" class="node">
<title>Node24</title>
<g id="a_node24"><a xlink:href="a00431_source.html" target="_top" xlink:title=" ">
<polygon fill="#ffffff" stroke="#000000" points="754.9032,-56.5 754.9032,-75.5 842.9032,-75.5 842.9032,-56.5 754.9032,-56.5"/>
<text text-anchor="middle" x="798.9032" y="-63.5" font-family="Helvetica,sans-Serif" font-size="10.00" fill="#000000">freetds/stream.h</text>
</a>
</g>
</g>
<!-- Node1&#45;&gt;Node24 -->
<g id="edge40" class="edge">
<title>Node1&#45;&gt;Node24</title>
<path fill="none" stroke="#191970" d="M910.7036,-224.4613C899.0788,-203.4236 869.661,-151.7551 839.9032,-112 832.4218,-102.0051 823.241,-91.5633 815.4649,-83.1592"/>
<polygon fill="#191970" stroke="#191970" points="817.9451,-80.6877 808.5413,-75.8072 812.849,-85.4867 817.9451,-80.6877"/>
</g>
<!-- Node25 -->
<g id="node25" class="node">
<title>Node25</title>
<g id="a_node25"><a xlink:href="a00392_source.html" target="_top" xlink:title=" ">
<polygon fill="#ffffff" stroke="#000000" points="1045.4032,-56.5 1045.4032,-75.5 1134.4032,-75.5 1134.4032,-56.5 1045.4032,-56.5"/>
<text text-anchor="middle" x="1089.9032" y="-63.5" font-family="Helvetica,sans-Serif" font-size="10.00" fill="#000000">freetds/checks.h</text>
</a>
</g>
</g>
<!-- Node1&#45;&gt;Node25 -->
<g id="edge44" class="edge">
<title>Node1&#45;&gt;Node25</title>
<path fill="none" stroke="#191970" d="M954.4928,-230.1946C985.0713,-225.2575 1026.9895,-213.9354 1053.9032,-188 1082.1486,-160.7814 1088.5293,-112.6001 1089.7888,-85.6497"/>
<polygon fill="#191970" stroke="#191970" points="1093.291,-85.6137 1090.0639,-75.5224 1086.2936,-85.4236 1093.291,-85.6137"/>
</g>
<!-- Node5 -->
<g id="node5" class="node">
<title>Node5</title>
<g id="a_node5"><a xlink:title=" ">
<polygon fill="#ffffff" stroke="#bfbfbf" points="11.9032,-56.5 11.9032,-75.5 63.9032,-75.5 63.9032,-56.5 11.9032,-56.5"/>
<text text-anchor="middle" x="37.9032" y="-63.5" font-family="Helvetica,sans-Serif" font-size="10.00" fill="#000000">stdarg.h</text>
</a>
</g>
</g>
<!-- Node4&#45;&gt;Node5 -->
<g id="edge4" class="edge">
<title>Node4&#45;&gt;Node5</title>
<path fill="none" stroke="#191970" d="M608.1299,-169.5524C605.0198,-168.9694 601.9124,-168.4398 598.9032,-168 488.237,-151.8253 197.2945,-181.2975 96.9032,-132 75.8821,-121.6775 58.9826,-100.2607 48.7456,-84.6136"/>
<polygon fill="#191970" stroke="#191970" points="51.5025,-82.4184 43.2553,-75.7675 45.5549,-86.1098 51.5025,-82.4184"/>
</g>
<!-- Node6 -->
<g id="node6" class="node">
<title>Node6</title>
<g id="a_node6"><a xlink:title=" ">
<polygon fill="#ffffff" stroke="#bfbfbf" points="212.9032,-112.5 212.9032,-131.5 258.9032,-131.5 258.9032,-112.5 212.9032,-112.5"/>
<text text-anchor="middle" x="235.9032" y="-119.5" font-family="Helvetica,sans-Serif" font-size="10.00" fill="#000000">stdio.h</text>
</a>
</g>
</g>
<!-- Node4&#45;&gt;Node6 -->
<g id="edge5" class="edge">
<title>Node4&#45;&gt;Node6</title>
<path fill="none" stroke="#191970" d="M608.1112,-169.6725C605.0052,-169.0634 601.9039,-168.495 598.9032,-168 456.1776,-144.4538 414.6212,-161.4113 269.3632,-131.9554"/>
<polygon fill="#191970" stroke="#191970" points="269.6853,-128.448 259.1837,-129.8504 268.2677,-135.303 269.6853,-128.448"/>
</g>
<!-- Node7 -->
<g id="node7" class="node">
<title>Node7</title>
<g id="a_node7"><a xlink:href="a00443_source.html" target="_top" xlink:title=" ">
<polygon fill="#ffffff" stroke="#000000" points="276.9032,-112.5 276.9032,-131.5 320.9032,-131.5 320.9032,-112.5 276.9032,-112.5"/>
<text text-anchor="middle" x="298.9032" y="-119.5" font-family="Helvetica,sans-Serif" font-size="10.00" fill="#000000">time.h</text>
</a>
</g>
</g>
<!-- Node4&#45;&gt;Node7 -->
<g id="edge6" class="edge">
<title>Node4&#45;&gt;Node7</title>
<path fill="none" stroke="#191970" d="M608.0919,-169.7837C604.9901,-169.1505 601.895,-168.5461 598.9032,-168 488.0382,-147.7616 458.9397,-151.2758 347.9032,-132 342.5862,-131.077 336.9625,-130.0126 331.4945,-128.9301"/>
<polygon fill="#191970" stroke="#191970" points="331.7894,-125.4186 321.2928,-126.858 330.3961,-132.2785 331.7894,-125.4186"/>
</g>
<!-- Node8 -->
<g id="node8" class="node">
<title>Node8</title>
<g id="a_node8"><a xlink:href="a00476_source.html" target="_top" xlink:title=" ">
<polygon fill="#ffffff" stroke="#000000" points="357.4032,-112.5 357.4032,-131.5 446.4032,-131.5 446.4032,-112.5 357.4032,-112.5"/>
<text text-anchor="middle" x="401.9032" y="-119.5" font-family="Helvetica,sans-Serif" font-size="10.00" fill="#000000">freetds/version.h</text>
</a>
</g>
</g>
<!-- Node4&#45;&gt;Node8 -->
<g id="edge8" class="edge">
<title>Node4&#45;&gt;Node8</title>
<path fill="none" stroke="#191970" d="M608.1953,-169.737C567.1613,-160.2415 499.5005,-144.5845 452.9218,-133.806"/>
<polygon fill="#191970" stroke="#191970" points="453.5597,-130.3611 443.028,-131.5165 451.9815,-137.1809 453.5597,-130.3611"/>
</g>
<!-- Node9 -->
<g id="node9" class="node">
<title>Node9</title>
<g id="a_node9"><a xlink:href="a00512_source.html" target="_top" xlink:title=" ">
<polygon fill="#ffffff" stroke="#000000" points="81.9032,-56.5 81.9032,-75.5 187.9032,-75.5 187.9032,-56.5 81.9032,-56.5"/>
<text text-anchor="middle" x="134.9032" y="-63.5" font-family="Helvetica,sans-Serif" font-size="10.00" fill="#000000">tds_sysdep_public.h</text>
</a>
</g>
</g>
<!-- Node4&#45;&gt;Node9 -->
<g id="edge9" class="edge">
<title>Node4&#45;&gt;Node9</title>
<path fill="none" stroke="#191970" d="M608.1293,-169.5567C605.0193,-168.9727 601.9122,-168.4418 598.9032,-168 544.5622,-160.0215 143.2992,-172.2262 105.9032,-132 93.081,-118.2073 105.3504,-97.8273 117.6451,-83.3686"/>
<polygon fill="#191970" stroke="#191970" points="120.5459,-85.3819 124.6974,-75.6343 115.3733,-80.6654 120.5459,-85.3819"/>
</g>
<!-- Node11 -->
<g id="node11" class="node">
<title>Node11</title>
<g id="a_node11"><a xlink:href="a00434_source.html" target="_top" xlink:title=" ">
<polygon fill="#ffffff" stroke="#000000" points="574.9032,-56.5 574.9032,-75.5 698.9032,-75.5 698.9032,-56.5 574.9032,-56.5"/>
<text text-anchor="middle" x="636.9032" y="-63.5" font-family="Helvetica,sans-Serif" font-size="10.00" fill="#000000">freetds/sysdep_private.h</text>
</a>
</g>
</g>
<!-- Node4&#45;&gt;Node11 -->
<g id="edge11" class="edge">
<title>Node4&#45;&gt;Node11</title>
<path fill="none" stroke="#191970" d="M648.9264,-168.1606C654.871,-155.264 663.426,-131.9394 658.9032,-112 656.7593,-102.548 652.4253,-92.7672 648.1666,-84.6675"/>
<polygon fill="#191970" stroke="#191970" points="651.1103,-82.7615 643.1615,-75.7567 645.0072,-86.1895 651.1103,-82.7615"/>
</g>
<!-- Node12 -->
<g id="node12" class="node">
<title>Node12</title>
<g id="a_node12"><a xlink:href="a00440_source.html" target="_top" xlink:title=" ">
<polygon fill="#ffffff" stroke="#000000" points="464.4032,-112.5 464.4032,-131.5 549.4032,-131.5 549.4032,-112.5 464.4032,-112.5"/>
<text text-anchor="middle" x="506.9032" y="-119.5" font-family="Helvetica,sans-Serif" font-size="10.00" fill="#000000">freetds/thread.h</text>
</a>
</g>
</g>
<!-- Node4&#45;&gt;Node12 -->
<g id="edge12" class="edge">
<title>Node4&#45;&gt;Node12</title>
<path fill="none" stroke="#191970" d="M620.3521,-168.3733C598.0642,-159.2629 564.4096,-145.5062 539.5396,-135.3404"/>
<polygon fill="#191970" stroke="#191970" points="540.7279,-132.0451 530.1471,-131.5011 538.0793,-138.5247 540.7279,-132.0451"/>
</g>
<!-- Node13 -->
<g id="node13" class="node">
<title>Node13</title>
<g id="a_node13"><a xlink:href="a00380_source.html" target="_top" xlink:title=" ">
<polygon fill="#ffffff" stroke="#000000" points="754.9032,-112.5 754.9032,-131.5 830.9032,-131.5 830.9032,-112.5 754.9032,-112.5"/>
<text text-anchor="middle" x="792.9032" y="-119.5" font-family="Helvetica,sans-Serif" font-size="10.00" fill="#000000">freetds/bool.h</text>
</a>
</g>
</g>
<!-- Node4&#45;&gt;Node13 -->
<g id="edge14" class="edge">
<title>Node4&#45;&gt;Node13</title>
<path fill="none" stroke="#191970" d="M669.5173,-168.3733C693.9719,-159.1822 731.0087,-145.2624 758.1241,-135.0713"/>
<polygon fill="#191970" stroke="#191970" points="759.4941,-138.2956 767.6235,-131.5011 757.0314,-131.7431 759.4941,-138.2956"/>
</g>
<!-- Node14 -->
<g id="node14" class="node">
<title>Node14</title>
<g id="a_node14"><a xlink:href="a00413_source.html" target="_top" xlink:title=" ">
<polygon fill="#ffffff" stroke="#000000" points="898.9032,-56.5 898.9032,-75.5 988.9032,-75.5 988.9032,-56.5 898.9032,-56.5"/>
<text text-anchor="middle" x="943.9032" y="-63.5" font-family="Helvetica,sans-Serif" font-size="10.00" fill="#000000">freetds/macros.h</text>
</a>
</g>
</g>
<!-- Node4&#45;&gt;Node14 -->
<g id="edge15" class="edge">
<title>Node4&#45;&gt;Node14</title>
<path fill="none" stroke="#191970" d="M679.7246,-173.2321C735.3613,-165.4231 839.6119,-149.0609 872.9032,-132 895.9028,-120.2133 916.8571,-98.8188 929.9441,-83.5842"/>
<polygon fill="#191970" stroke="#191970" points="932.6684,-85.7822 936.3683,-75.8544 927.2849,-81.308 932.6684,-85.7822"/>
</g>
<!-- Node4&#45;&gt;Node15 -->
<g id="edge16" class="edge">
<title>Node4&#45;&gt;Node15</title>
<path fill="none" stroke="#191970" d="M679.5908,-172.6257C736.5379,-164.0479 851.4777,-146.7276 948.9032,-132 950.3714,-131.7781 951.858,-131.5533 953.3573,-131.3265"/>
<polygon fill="#191970" stroke="#191970" points="954.0172,-134.7666 963.3811,-129.8098 952.9699,-127.8454 954.0172,-134.7666"/>
</g>
<!-- Node16 -->
<g id="node16" class="node">
<title>Node16</title>
<g id="a_node16"><a xlink:href="a00425_source.html" target="_top" xlink:title=" ">
<polygon fill="#ffffff" stroke="#000000" points="814.9032,-.5 814.9032,-19.5 906.9032,-19.5 906.9032,-.5 814.9032,-.5"/>
<text text-anchor="middle" x="860.9032" y="-7.5" font-family="Helvetica,sans-Serif" font-size="10.00" fill="#000000">freetds/pushvis.h</text>
</a>
</g>
</g>
<!-- Node4&#45;&gt;Node16 -->
<g id="edge33" class="edge">
<title>Node4&#45;&gt;Node16</title>
<path fill="none" stroke="#191970" d="M679.6459,-174.1827C729.9256,-168.0765 817.8768,-154.4586 839.9032,-132 866.6337,-104.7451 866.3804,-56.5779 863.7198,-29.6395"/>
<polygon fill="#191970" stroke="#191970" points="867.1716,-29.0282 862.5038,-19.517 860.2216,-29.8631 867.1716,-29.0282"/>
</g>
<!-- Node17 -->
<g id="node17" class="node">
<title>Node17</title>
<g id="a_node17"><a xlink:href="a00419_source.html" target="_top" xlink:title=" ">
<polygon fill="#ffffff" stroke="#000000" points="692.9032,-.5 692.9032,-19.5 778.9032,-19.5 778.9032,-.5 692.9032,-.5"/>
<text text-anchor="middle" x="735.9032" y="-7.5" font-family="Helvetica,sans-Serif" font-size="10.00" fill="#000000">freetds/popvis.h</text>
</a>
</g>
</g>
<!-- Node4&#45;&gt;Node17 -->
<g id="edge35" class="edge">
<title>Node4&#45;&gt;Node17</title>
<path fill="none" stroke="#191970" d="M650.433,-168.1887C656.5732,-158.9157 665.9802,-144.5877 673.9032,-132 689.4137,-107.358 694.6273,-101.9143 707.9032,-76 715.7846,-60.6158 723.355,-42.5 728.6324,-29.1437"/>
<polygon fill="#191970" stroke="#191970" points="731.9827,-30.1846 732.3354,-19.5957 725.4563,-27.6535 731.9827,-30.1846"/>
</g>
<!-- Node18 -->
<g id="node18" class="node">
<title>Node18</title>
<g id="a_node18"><a xlink:href="a00491_source.html" target="_top" xlink:title=" ">
<polygon fill="#ffffff" stroke="#000000" points="567.4032,-112.5 567.4032,-131.5 650.4032,-131.5 650.4032,-112.5 567.4032,-112.5"/>
<text text-anchor="middle" x="608.9032" y="-119.5" font-family="Helvetica,sans-Serif" font-size="10.00" fill="#000000">replacements.h</text>
</a>
</g>
</g>
<!-- Node4&#45;&gt;Node18 -->
<g id="edge20" class="edge">
<title>Node4&#45;&gt;Node18</title>
<path fill="none" stroke="#191970" d="M637.8067,-168.2455C632.9887,-160.5367 626.1281,-149.5598 620.3,-140.2348"/>
<polygon fill="#191970" stroke="#191970" points="623.198,-138.2677 614.9299,-131.6427 617.262,-141.9777 623.198,-138.2677"/>
</g>
<!-- Node21 -->
<g id="node21" class="node">
<title>Node21</title>
<g id="a_node21"><a xlink:href="a00422_source.html" target="_top" xlink:title=" ">
<polygon fill="#ffffff" stroke="#000000" points="114.9032,-112.5 114.9032,-131.5 194.9032,-131.5 194.9032,-112.5 114.9032,-112.5"/>
<text text-anchor="middle" x="154.9032" y="-119.5" font-family="Helvetica,sans-Serif" font-size="10.00" fill="#000000">freetds/proto.h</text>
</a>
</g>
</g>
<!-- Node4&#45;&gt;Node21 -->
<g id="edge34" class="edge">
<title>Node4&#45;&gt;Node21</title>
<path fill="none" stroke="#191970" d="M608.1203,-169.6155C605.0123,-169.0188 601.9081,-168.4688 598.9032,-168 427.9592,-141.3282 380.0749,-157.0541 205.0177,-132.0127"/>
<polygon fill="#191970" stroke="#191970" points="205.3508,-128.5244 194.951,-130.5481 204.3429,-135.4514 205.3508,-128.5244"/>
</g>
<!-- Node7&#45;&gt;Node7 -->
<g id="edge7" class="edge">
<title>Node7&#45;&gt;Node7</title>
<path fill="none" stroke="#191970" d="M316.1715,-131.5746C327.6907,-134.2697 338.9032,-131.0781 338.9032,-122 338.9032,-115.7588 333.6036,-112.2999 326.5481,-111.6234"/>
<polygon fill="#191970" stroke="#191970" points="325.872,-108.1651 316.1715,-112.4254 326.4115,-115.1443 325.872,-108.1651"/>
</g>
<!-- Node10 -->
<g id="node10" class="node">
<title>Node10</title>
<g id="a_node10"><a xlink:title=" ">
<polygon fill="#ffffff" stroke="#bfbfbf" points="112.9032,-.5 112.9032,-19.5 156.9032,-19.5 156.9032,-.5 112.9032,-.5"/>
<text text-anchor="middle" x="134.9032" y="-7.5" font-family="Helvetica,sans-Serif" font-size="10.00" fill="#000000">float.h</text>
</a>
</g>
</g>
<!-- Node9&#45;&gt;Node10 -->
<g id="edge10" class="edge">
<title>Node9&#45;&gt;Node10</title>
<path fill="none" stroke="#191970" d="M134.9032,-56.2455C134.9032,-48.9382 134.9032,-38.6944 134.9032,-29.7046"/>
<polygon fill="#191970" stroke="#191970" points="138.4033,-29.6426 134.9032,-19.6427 131.4033,-29.6427 138.4033,-29.6426"/>
</g>
<!-- Node12&#45;&gt;Node9 -->
<g id="edge13" class="edge">
<title>Node12&#45;&gt;Node9</title>
<path fill="none" stroke="#191970" d="M464.3665,-113.6452C461.1674,-113.0704 457.9861,-112.5155 454.9032,-112 342.8812,-93.2701 314.2925,-92.3831 201.9032,-76 200.6267,-75.8139 199.3366,-75.6254 198.0364,-75.4351"/>
<polygon fill="#191970" stroke="#191970" points="198.3315,-71.9409 187.9286,-73.9483 197.3127,-78.8664 198.3315,-71.9409"/>
</g>
<!-- Node15&#45;&gt;Node14 -->
<g id="edge17" class="edge">
<title>Node15&#45;&gt;Node14</title>
<path fill="none" stroke="#191970" d="M1002.536,-112.2455C991.9478,-103.8943 976.4968,-91.7076 964.1139,-81.9408"/>
<polygon fill="#191970" stroke="#191970" points="966.148,-79.0875 956.1288,-75.6427 961.8129,-84.5837 966.148,-79.0875"/>
</g>
<!-- Node15&#45;&gt;Node16 -->
<g id="edge18" class="edge">
<title>Node15&#45;&gt;Node16</title>
<path fill="none" stroke="#191970" d="M1066.7657,-113.8878C1112.688,-104.5269 1168.7324,-86.3838 1142.9032,-56 1128.4707,-39.0225 995.3728,-23.2159 917.2986,-15.3004"/>
<polygon fill="#191970" stroke="#191970" points="917.4299,-11.7962 907.131,-14.2826 916.7326,-18.7613 917.4299,-11.7962"/>
</g>
<!-- Node15&#45;&gt;Node17 -->
<g id="edge19" class="edge">
<title>Node15&#45;&gt;Node17</title>
<path fill="none" stroke="#191970" d="M1015.4266,-112.3087C1015.6368,-97.8106 1013.715,-70.6198 997.9032,-56 990.2623,-48.9351 863.4635,-29.0099 789.1138,-17.8398"/>
<polygon fill="#191970" stroke="#191970" points="789.3967,-14.3432 778.9887,-16.324 788.3602,-21.2661 789.3967,-14.3432"/>
</g>
<!-- Node18&#45;&gt;Node5 -->
<g id="edge21" class="edge">
<title>Node18&#45;&gt;Node5</title>
<path fill="none" stroke="#191970" d="M567.2221,-113.406C564.0759,-112.8865 560.9435,-112.4094 557.9032,-112 346.9307,-83.5901 287.4965,-112.9708 74.0915,-75.8767"/>
<polygon fill="#191970" stroke="#191970" points="74.598,-72.412 64.1416,-74.1188 73.3801,-79.3053 74.598,-72.412"/>
</g>
<!-- Node18&#45;&gt;Node9 -->
<g id="edge22" class="edge">
<title>Node18&#45;&gt;Node9</title>
<path fill="none" stroke="#191970" d="M567.2092,-113.4974C564.0659,-112.9568 560.9378,-112.4499 557.9032,-112 400.5939,-88.6751 359.7021,-95.7434 201.9032,-76 200.7946,-75.8613 199.676,-75.7191 198.5497,-75.5739"/>
<polygon fill="#191970" stroke="#191970" points="198.6415,-72.0551 188.2655,-74.1974 197.7128,-78.9932 198.6415,-72.0551"/>
</g>
<!-- Node18&#45;&gt;Node11 -->
<g id="edge23" class="edge">
<title>Node18&#45;&gt;Node11</title>
<path fill="none" stroke="#191970" d="M613.7805,-112.2455C617.5546,-104.6973 622.8954,-94.0158 627.4934,-84.8197"/>
<polygon fill="#191970" stroke="#191970" points="630.7402,-86.1522 632.0819,-75.6427 624.4792,-83.0217 630.7402,-86.1522"/>
</g>
<!-- Node18&#45;&gt;Node16 -->
<g id="edge31" class="edge">
<title>Node18&#45;&gt;Node16</title>
<path fill="none" stroke="#191970" d="M594.6484,-112.2767C576.743,-98.8994 550.1607,-74.3875 565.9032,-56 569.7753,-51.4773 720.1201,-29.7415 804.64,-17.8376"/>
<polygon fill="#191970" stroke="#191970" points="805.1914,-21.2946 814.6068,-16.4364 804.2169,-14.3627 805.1914,-21.2946"/>
</g>
<!-- Node18&#45;&gt;Node17 -->
<g id="edge32" class="edge">
<title>Node18&#45;&gt;Node17</title>
<path fill="none" stroke="#191970" d="M567.2039,-113.5324C564.0619,-112.9836 560.9355,-112.4654 557.9032,-112 485.898,-100.9473 185.8029,-109.8151 234.9032,-56 264.6492,-23.3977 559.6972,-13.6022 682.6003,-10.9229"/>
<polygon fill="#191970" stroke="#191970" points="682.9729,-14.4159 692.8971,-10.7064 682.8257,-7.4175 682.9729,-14.4159"/>
</g>
<!-- Node19 -->
<g id="node19" class="node">
<title>Node19</title>
<g id="a_node19"><a xlink:href="a00488_source.html" target="_top" xlink:title=" ">
<polygon fill="#ffffff" stroke="#000000" points="363.4032,-56.5 363.4032,-75.5 518.4032,-75.5 518.4032,-56.5 363.4032,-56.5"/>
<text text-anchor="middle" x="440.9032" y="-63.5" font-family="Helvetica,sans-Serif" font-size="10.00" fill="#000000">replacements/readpassphrase.h</text>
</a>
</g>
</g>
<!-- Node18&#45;&gt;Node19 -->
<g id="edge24" class="edge">
<title>Node18&#45;&gt;Node19</title>
<path fill="none" stroke="#191970" d="M580.023,-112.3733C552.0872,-103.0613 509.589,-88.8953 478.9163,-78.671"/>
<polygon fill="#191970" stroke="#191970" points="480.0003,-75.3431 469.4066,-75.5011 477.7866,-81.9839 480.0003,-75.3431"/>
</g>
<!-- Node20 -->
<g id="node20" class="node">
<title>Node20</title>
<g id="a_node20"><a xlink:href="a00485.html" target="_top" xlink:title="Provide poll call where missing.">
<polygon fill="#ffffff" stroke="#000000" points="244.4032,-56.5 244.4032,-75.5 345.4032,-75.5 345.4032,-56.5 244.4032,-56.5"/>
<text text-anchor="middle" x="294.9032" y="-63.5" font-family="Helvetica,sans-Serif" font-size="10.00" fill="#000000">replacements/poll.h</text>
</a>
</g>
</g>
<!-- Node18&#45;&gt;Node20 -->
<g id="edge27" class="edge">
<title>Node18&#45;&gt;Node20</title>
<path fill="none" stroke="#191970" d="M567.168,-113.7444C564.0342,-113.1467 560.9195,-112.5594 557.9032,-112 520.1038,-104.9893 420.8701,-87.751 355.6851,-76.4825"/>
<polygon fill="#191970" stroke="#191970" points="355.9802,-72.9817 345.5302,-74.7278 354.7882,-79.8795 355.9802,-72.9817"/>
</g>
<!-- Node19&#45;&gt;Node16 -->
<g id="edge25" class="edge">
<title>Node19&#45;&gt;Node16</title>
<path fill="none" stroke="#191970" d="M513.3573,-56.4883C583.565,-47.2494 693.048,-32.7841 787.9032,-20 793.2911,-19.2738 798.902,-18.5132 804.5134,-17.7495"/>
<polygon fill="#191970" stroke="#191970" points="805.1311,-21.1977 814.5663,-16.3784 804.185,-14.262 805.1311,-21.1977"/>
</g>
<!-- Node19&#45;&gt;Node17 -->
<g id="edge26" class="edge">
<title>Node19&#45;&gt;Node17</title>
<path fill="none" stroke="#191970" d="M491.2804,-56.4369C544.462,-46.3414 627.9672,-30.4896 682.3278,-20.1702"/>
<polygon fill="#191970" stroke="#191970" points="683.2874,-23.5507 692.4592,-18.247 681.9819,-16.6735 683.2874,-23.5507"/>
</g>
<!-- Node20&#45;&gt;Node2 -->
<g id="edge28" class="edge">
<title>Node20&#45;&gt;Node2</title>
<path fill="none" stroke="#191970" d="M249.1369,-56.4369C196.3497,-45.4067 110.6773,-27.505 62.5823,-17.4553"/>
<polygon fill="#191970" stroke="#191970" points="63.1346,-13.9952 52.6301,-15.3758 61.7028,-20.8472 63.1346,-13.9952"/>
</g>
<!-- Node20&#45;&gt;Node16 -->
<g id="edge29" class="edge">
<title>Node20&#45;&gt;Node16</title>
<path fill="none" stroke="#191970" d="M345.7113,-57.1061C348.4791,-56.7099 351.2233,-56.3376 353.9032,-56 545.9365,-31.8061 595.51,-41.1418 787.9032,-20 793.3073,-19.4062 798.929,-18.7339 804.5472,-18.0256"/>
<polygon fill="#191970" stroke="#191970" points="805.1414,-21.4779 814.6082,-16.7209 804.2411,-14.536 805.1414,-21.4779"/>
</g>
<!-- Node20&#45;&gt;Node17 -->
<g id="edge30" class="edge">
<title>Node20&#45;&gt;Node17</title>
<path fill="none" stroke="#191970" d="M345.4086,-57.2757C348.2804,-56.8307 351.1272,-56.4022 353.9032,-56 471.0256,-39.0325 608.9939,-23.5185 682.8598,-15.5727"/>
<polygon fill="#191970" stroke="#191970" points="683.2781,-19.048 692.8483,-14.5024 682.5322,-12.0879 683.2781,-19.048"/>
</g>
<!-- Node22&#45;&gt;Node16 -->
<g id="edge37" class="edge">
<title>Node22&#45;&gt;Node16</title>
<path fill="none" stroke="#191970" d="M1190.8289,-58.4011C1186.1389,-57.5645 1181.4185,-56.7464 1176.9032,-56 1086.2313,-41.0106 980.4843,-26.1454 917.2059,-17.5288"/>
<polygon fill="#191970" stroke="#191970" points="917.4225,-14.0261 907.0425,-16.1488 916.4807,-20.9625 917.4225,-14.0261"/>
</g>
<!-- Node22&#45;&gt;Node17 -->
<g id="edge38" class="edge">
<title>Node22&#45;&gt;Node17</title>
<path fill="none" stroke="#191970" d="M1190.6055,-61.3631C1175.6292,-59.655 1158.4925,-57.7184 1142.9032,-56 993.1802,-39.4961 955.3737,-38.6541 805.9032,-20 800.4976,-19.3254 794.8628,-18.5842 789.2406,-17.8197"/>
<polygon fill="#191970" stroke="#191970" points="789.572,-14.3323 779.1865,-16.428 788.6121,-21.2662 789.572,-14.3323"/>
</g>
<!-- Node24&#45;&gt;Node16 -->
<g id="edge41" class="edge">
<title>Node24&#45;&gt;Node16</title>
<path fill="none" stroke="#191970" d="M809.7028,-56.2455C818.771,-48.0549 831.9239,-36.1749 842.6277,-26.5069"/>
<polygon fill="#191970" stroke="#191970" points="845.1524,-28.9429 850.2274,-19.6427 840.4604,-23.7482 845.1524,-28.9429"/>
</g>
<!-- Node24&#45;&gt;Node17 -->
<g id="edge42" class="edge">
<title>Node24&#45;&gt;Node17</title>
<path fill="none" stroke="#191970" d="M787.9295,-56.2455C778.715,-48.0549 765.35,-36.1749 754.4735,-26.5069"/>
<polygon fill="#191970" stroke="#191970" points="756.5507,-23.6704 746.7513,-19.6427 751.9001,-28.9023 756.5507,-23.6704"/>
</g>
<!-- Node25&#45;&gt;Node16 -->
<g id="edge45" class="edge">
<title>Node25&#45;&gt;Node16</title>
<path fill="none" stroke="#191970" d="M1050.7969,-56.4369C1011.77,-46.8932 951.7068,-32.2052 909.6071,-21.9101"/>
<polygon fill="#191970" stroke="#191970" points="910.3935,-18.4993 899.8483,-19.5237 908.7306,-25.299 910.3935,-18.4993"/>
</g>
<!-- Node25&#45;&gt;Node17 -->
<g id="edge46" class="edge">
<title>Node25&#45;&gt;Node17</title>
<path fill="none" stroke="#191970" d="M1045.1357,-58.3485C1040.3329,-57.5466 1035.5177,-56.7508 1030.9032,-56 946.4419,-42.2578 848.2349,-27.1099 789.135,-18.0841"/>
<polygon fill="#191970" stroke="#191970" points="789.3376,-14.5746 778.9241,-16.5262 788.2817,-21.4945 789.3376,-14.5746"/>
</g>
</g>
</svg>
