<?xml version="1.0" encoding="UTF-8" standalone="no"?>
<!DOCTYPE svg PUBLIC "-//W3C//DTD SVG 1.1//EN"
 "http://www.w3.org/Graphics/SVG/1.1/DTD/svg11.dtd">
<!-- Generated by graphviz version 2.40.1 (20161225.0304)
 -->
<!-- Title: src/tds/token.c Pages: 1 -->
<svg width="1303pt" height="252pt"
 viewBox="0.00 0.00 1303.15 252.00" xmlns="http://www.w3.org/2000/svg" xmlns:xlink="http://www.w3.org/1999/xlink">
<g id="graph0" class="graph" transform="scale(1 1) rotate(0) translate(4 248)">
<title>src/tds/token.c</title>
<polygon fill="#ffffff" stroke="transparent" points="-4,4 -4,-248 1299.149,-248 1299.149,4 -4,4"/>
<!-- Node1 -->
<g id="node1" class="node">
<title>Node1</title>
<g id="a_node1"><a xlink:title="Contains all routines to get replies from server.">
<polygon fill="#bfbfbf" stroke="#000000" points="814.149,-224.5 814.149,-243.5 896.149,-243.5 896.149,-224.5 814.149,-224.5"/>
<text text-anchor="middle" x="855.149" y="-231.5" font-family="Helvetica,sans-Serif" font-size="10.00" fill="#000000">src/tds/token.c</text>
</a>
</g>
</g>
<!-- Node2 -->
<g id="node2" class="node">
<title>Node2</title>
<g id="a_node2"><a xlink:href="a00356_source.html" target="_top" xlink:title=" ">
<polygon fill="#ffffff" stroke="#000000" points="1201.649,-.5 1201.649,-19.5 1252.649,-19.5 1252.649,-.5 1201.649,-.5"/>
<text text-anchor="middle" x="1227.149" y="-7.5" font-family="Helvetica,sans-Serif" font-size="10.00" fill="#000000">config.h</text>
</a>
</g>
</g>
<!-- Node1&#45;&gt;Node2 -->
<g id="edge1" class="edge">
<title>Node1&#45;&gt;Node2</title>
<path fill="none" stroke="#191970" d="M860.3127,-224.3976C868.8917,-209.4986 887.5961,-181.1608 912.149,-168 1024.6762,-107.6835 1098.2502,-212.7432 1197.149,-132 1227.4426,-107.2677 1230.0181,-57.3347 1228.8419,-29.633"/>
<polygon fill="#191970" stroke="#191970" points="1232.33,-29.3318 1228.2048,-19.573 1225.344,-29.7743 1232.33,-29.3318"/>
</g>
<!-- Node3 -->
<g id="node3" class="node">
<title>Node3</title>
<g id="a_node3"><a xlink:title=" ">
<polygon fill="#ffffff" stroke="#bfbfbf" points="921.149,-168.5 921.149,-187.5 973.149,-187.5 973.149,-168.5 921.149,-168.5"/>
<text text-anchor="middle" x="947.149" y="-175.5" font-family="Helvetica,sans-Serif" font-size="10.00" fill="#000000">assert.h</text>
</a>
</g>
</g>
<!-- Node1&#45;&gt;Node3 -->
<g id="edge2" class="edge">
<title>Node1&#45;&gt;Node3</title>
<path fill="none" stroke="#191970" d="M871.1742,-224.2455C885.2898,-215.6534 906.0754,-203.0014 922.3389,-193.1018"/>
<polygon fill="#191970" stroke="#191970" points="924.5853,-195.8319 931.3075,-187.6427 920.9456,-189.8525 924.5853,-195.8319"/>
</g>
<!-- Node4 -->
<g id="node4" class="node">
<title>Node4</title>
<g id="a_node4"><a xlink:href="a00437.html" target="_top" xlink:title=" ">
<polygon fill="#ffffff" stroke="#000000" points="651.649,-168.5 651.649,-187.5 722.649,-187.5 722.649,-168.5 651.649,-168.5"/>
<text text-anchor="middle" x="687.149" y="-175.5" font-family="Helvetica,sans-Serif" font-size="10.00" fill="#000000">freetds/tds.h</text>
</a>
</g>
</g>
<!-- Node1&#45;&gt;Node4 -->
<g id="edge3" class="edge">
<title>Node1&#45;&gt;Node4</title>
<path fill="none" stroke="#191970" d="M826.2688,-224.3733C798.3329,-215.0613 755.8348,-200.8953 725.1621,-190.671"/>
<polygon fill="#191970" stroke="#191970" points="726.246,-187.3431 715.6524,-187.5011 724.0324,-193.9839 726.246,-187.3431"/>
</g>
<!-- Node15 -->
<g id="node15" class="node">
<title>Node15</title>
<g id="a_node15"><a xlink:href="a00470_source.html" target="_top" xlink:title=" ">
<polygon fill="#ffffff" stroke="#000000" points="199.649,-112.5 199.649,-131.5 302.649,-131.5 302.649,-112.5 199.649,-112.5"/>
<text text-anchor="middle" x="251.149" y="-119.5" font-family="Helvetica,sans-Serif" font-size="10.00" fill="#000000">freetds/utils/string.h</text>
</a>
</g>
</g>
<!-- Node1&#45;&gt;Node15 -->
<g id="edge36" class="edge">
<title>Node1&#45;&gt;Node15</title>
<path fill="none" stroke="#191970" d="M814.1085,-226.3898C710.1605,-207.1147 436.0321,-156.283 312.751,-133.4229"/>
<polygon fill="#191970" stroke="#191970" points="313.1891,-129.9445 302.7186,-131.5626 311.9128,-136.8272 313.1891,-129.9445"/>
</g>
<!-- Node18 -->
<g id="node18" class="node">
<title>Node18</title>
<g id="a_node18"><a xlink:href="a00491_source.html" target="_top" xlink:title=" ">
<polygon fill="#ffffff" stroke="#000000" points="917.649,-112.5 917.649,-131.5 1000.649,-131.5 1000.649,-112.5 917.649,-112.5"/>
<text text-anchor="middle" x="959.149" y="-119.5" font-family="Helvetica,sans-Serif" font-size="10.00" fill="#000000">replacements.h</text>
</a>
</g>
</g>
<!-- Node1&#45;&gt;Node18 -->
<g id="edge49" class="edge">
<title>Node1&#45;&gt;Node18</title>
<path fill="none" stroke="#191970" d="M856.5056,-224.4455C858.9005,-210.6053 865.0298,-184.8015 879.149,-168 890.9283,-153.983 908.1334,-143.3136 923.5726,-135.7965"/>
<polygon fill="#191970" stroke="#191970" points="925.2628,-138.8719 932.8932,-131.5216 922.3445,-132.5092 925.2628,-138.8719"/>
</g>
<!-- Node22 -->
<g id="node22" class="node">
<title>Node22</title>
<g id="a_node22"><a xlink:href="a00398_source.html" target="_top" xlink:title=" ">
<polygon fill="#ffffff" stroke="#000000" points="21.149,-56.5 21.149,-75.5 111.149,-75.5 111.149,-56.5 21.149,-56.5"/>
<text text-anchor="middle" x="66.149" y="-63.5" font-family="Helvetica,sans-Serif" font-size="10.00" fill="#000000">freetds/convert.h</text>
</a>
</g>
</g>
<!-- Node1&#45;&gt;Node22 -->
<g id="edge37" class="edge">
<title>Node1&#45;&gt;Node22</title>
<path fill="none" stroke="#191970" d="M813.8637,-232.4332C681.6803,-227.2204 274.3107,-209.565 219.149,-188 160.3655,-165.0191 106.3235,-111.1415 81.0996,-83.3141"/>
<polygon fill="#191970" stroke="#191970" points="83.4827,-80.7267 74.2234,-75.5774 78.2505,-85.377 83.4827,-80.7267"/>
</g>
<!-- Node23 -->
<g id="node23" class="node">
<title>Node23</title>
<g id="a_node23"><a xlink:href="a00410_source.html" target="_top" xlink:title=" ">
<polygon fill="#ffffff" stroke="#000000" points="129.149,-56.5 129.149,-75.5 209.149,-75.5 209.149,-56.5 129.149,-56.5"/>
<text text-anchor="middle" x="169.149" y="-63.5" font-family="Helvetica,sans-Serif" font-size="10.00" fill="#000000">freetds/iconv.h</text>
</a>
</g>
</g>
<!-- Node1&#45;&gt;Node23 -->
<g id="edge40" class="edge">
<title>Node1&#45;&gt;Node23</title>
<path fill="none" stroke="#191970" d="M814.1097,-232.6384C701.9615,-228.6001 392.1903,-215.2348 294.149,-188 240.1429,-172.9977 214.8591,-176.7812 181.149,-132 171.2008,-118.7846 168.5976,-99.9176 168.2514,-85.7379"/>
<polygon fill="#191970" stroke="#191970" points="171.7529,-85.6056 168.3604,-75.5686 164.7533,-85.5305 171.7529,-85.6056"/>
</g>
<!-- Node24 -->
<g id="node24" class="node">
<title>Node24</title>
<g id="a_node24"><a xlink:href="a00392_source.html" target="_top" xlink:title=" ">
<polygon fill="#ffffff" stroke="#000000" points="227.649,-56.5 227.649,-75.5 316.649,-75.5 316.649,-56.5 227.649,-56.5"/>
<text text-anchor="middle" x="272.149" y="-63.5" font-family="Helvetica,sans-Serif" font-size="10.00" fill="#000000">freetds/checks.h</text>
</a>
</g>
</g>
<!-- Node1&#45;&gt;Node24 -->
<g id="edge43" class="edge">
<title>Node1&#45;&gt;Node24</title>
<path fill="none" stroke="#191970" d="M814.0098,-230.8032C675.2323,-219.6047 230.7136,-180.2026 190.149,-132 172.2583,-110.7406 204.5444,-91.4529 233.7156,-79.294"/>
<polygon fill="#191970" stroke="#191970" points="235.0075,-82.5469 243.0098,-75.6033 232.424,-76.0411 235.0075,-82.5469"/>
</g>
<!-- Node25 -->
<g id="node25" class="node">
<title>Node25</title>
<g id="a_node25"><a xlink:href="a00383_source.html" target="_top" xlink:title=" ">
<polygon fill="#ffffff" stroke="#000000" points="991.149,-168.5 991.149,-187.5 1073.149,-187.5 1073.149,-168.5 991.149,-168.5"/>
<text text-anchor="middle" x="1032.149" y="-175.5" font-family="Helvetica,sans-Serif" font-size="10.00" fill="#000000">freetds/bytes.h</text>
</a>
</g>
</g>
<!-- Node1&#45;&gt;Node25 -->
<g id="edge46" class="edge">
<title>Node1&#45;&gt;Node25</title>
<path fill="none" stroke="#191970" d="M885.5764,-224.3733C915.1362,-215.021 960.1716,-200.7725 992.5185,-190.5385"/>
<polygon fill="#191970" stroke="#191970" points="993.6403,-193.8546 1002.1187,-187.5011 991.5287,-187.1807 993.6403,-193.8546"/>
</g>
<!-- Node26 -->
<g id="node26" class="node">
<title>Node26</title>
<g id="a_node26"><a xlink:href="a00374_source.html" target="_top" xlink:title=" ">
<polygon fill="#ffffff" stroke="#000000" points="1091.649,-168.5 1091.649,-187.5 1174.649,-187.5 1174.649,-168.5 1091.649,-168.5"/>
<text text-anchor="middle" x="1133.149" y="-175.5" font-family="Helvetica,sans-Serif" font-size="10.00" fill="#000000">freetds/alloca.h</text>
</a>
</g>
</g>
<!-- Node1&#45;&gt;Node26 -->
<g id="edge47" class="edge">
<title>Node1&#45;&gt;Node26</title>
<path fill="none" stroke="#191970" d="M896.1689,-225.737C945.4051,-215.8189 1028.0125,-199.1786 1081.5365,-188.3968"/>
<polygon fill="#191970" stroke="#191970" points="1082.3942,-191.7944 1091.5061,-186.3885 1081.0118,-184.9322 1082.3942,-191.7944"/>
</g>
<!-- Node27 -->
<g id="node27" class="node">
<title>Node27</title>
<g id="a_node27"><a xlink:href="a00404_source.html" target="_top" xlink:title=" ">
<polygon fill="#ffffff" stroke="#000000" points="1193.149,-168.5 1193.149,-187.5 1295.149,-187.5 1295.149,-168.5 1193.149,-168.5"/>
<text text-anchor="middle" x="1244.149" y="-175.5" font-family="Helvetica,sans-Serif" font-size="10.00" fill="#000000">freetds/encodings.h</text>
</a>
</g>
</g>
<!-- Node1&#45;&gt;Node27 -->
<g id="edge48" class="edge">
<title>Node1&#45;&gt;Node27</title>
<path fill="none" stroke="#191970" d="M896.2323,-228.608C956.7256,-220.5913 1073.5742,-204.8127 1183.1964,-188.1158"/>
<polygon fill="#191970" stroke="#191970" points="1183.7443,-191.5728 1193.1005,-186.6016 1182.6864,-184.6532 1183.7443,-191.5728"/>
</g>
<!-- Node5 -->
<g id="node5" class="node">
<title>Node5</title>
<g id="a_node5"><a xlink:title=" ">
<polygon fill="#ffffff" stroke="#bfbfbf" points="481.149,-56.5 481.149,-75.5 533.149,-75.5 533.149,-56.5 481.149,-56.5"/>
<text text-anchor="middle" x="507.149" y="-63.5" font-family="Helvetica,sans-Serif" font-size="10.00" fill="#000000">stdarg.h</text>
</a>
</g>
</g>
<!-- Node4&#45;&gt;Node5 -->
<g id="edge4" class="edge">
<title>Node4&#45;&gt;Node5</title>
<path fill="none" stroke="#191970" d="M651.5261,-175.0989C575.97,-168.5849 405.141,-151.806 388.149,-132 382.3612,-125.2536 383.1229,-119.3315 388.149,-112 393.1289,-104.7361 437.8532,-88.7426 471.0152,-77.6704"/>
<polygon fill="#191970" stroke="#191970" points="472.4842,-80.871 480.8789,-74.4073 470.2856,-74.2252 472.4842,-80.871"/>
</g>
<!-- Node6 -->
<g id="node6" class="node">
<title>Node6</title>
<g id="a_node6"><a xlink:title=" ">
<polygon fill="#ffffff" stroke="#bfbfbf" points="397.149,-112.5 397.149,-131.5 443.149,-131.5 443.149,-112.5 397.149,-112.5"/>
<text text-anchor="middle" x="420.149" y="-119.5" font-family="Helvetica,sans-Serif" font-size="10.00" fill="#000000">stdio.h</text>
</a>
</g>
</g>
<!-- Node4&#45;&gt;Node6 -->
<g id="edge5" class="edge">
<title>Node4&#45;&gt;Node6</title>
<path fill="none" stroke="#191970" d="M651.4464,-172.2655C607.1451,-164.8764 529.1419,-150.9732 453.6354,-132.1775"/>
<polygon fill="#191970" stroke="#191970" points="454.0359,-128.6689 443.4835,-129.6164 452.3235,-135.4563 454.0359,-128.6689"/>
</g>
<!-- Node7 -->
<g id="node7" class="node">
<title>Node7</title>
<g id="a_node7"><a xlink:href="a00443_source.html" target="_top" xlink:title=" ">
<polygon fill="#ffffff" stroke="#000000" points="461.149,-112.5 461.149,-131.5 505.149,-131.5 505.149,-112.5 461.149,-112.5"/>
<text text-anchor="middle" x="483.149" y="-119.5" font-family="Helvetica,sans-Serif" font-size="10.00" fill="#000000">time.h</text>
</a>
</g>
</g>
<!-- Node4&#45;&gt;Node7 -->
<g id="edge6" class="edge">
<title>Node4&#45;&gt;Node7</title>
<path fill="none" stroke="#191970" d="M652.0802,-168.3733C613.5523,-157.797 552.2141,-140.959 515.0112,-130.7465"/>
<polygon fill="#191970" stroke="#191970" points="515.767,-127.3245 505.1972,-128.0524 513.9139,-134.0748 515.767,-127.3245"/>
</g>
<!-- Node8 -->
<g id="node8" class="node">
<title>Node8</title>
<g id="a_node8"><a xlink:href="a00476_source.html" target="_top" xlink:title=" ">
<polygon fill="#ffffff" stroke="#000000" points="541.649,-112.5 541.649,-131.5 630.649,-131.5 630.649,-112.5 541.649,-112.5"/>
<text text-anchor="middle" x="586.149" y="-119.5" font-family="Helvetica,sans-Serif" font-size="10.00" fill="#000000">freetds/version.h</text>
</a>
</g>
</g>
<!-- Node4&#45;&gt;Node8 -->
<g id="edge8" class="edge">
<title>Node4&#45;&gt;Node8</title>
<path fill="none" stroke="#191970" d="M669.5562,-168.2455C653.77,-159.4928 630.3851,-146.527 612.3903,-136.5496"/>
<polygon fill="#191970" stroke="#191970" points="613.9831,-133.4308 603.5403,-131.6427 610.5887,-139.5528 613.9831,-133.4308"/>
</g>
<!-- Node9 -->
<g id="node9" class="node">
<title>Node9</title>
<g id="a_node9"><a xlink:href="a00512_source.html" target="_top" xlink:title=" ">
<polygon fill="#ffffff" stroke="#000000" points="1101.149,-56.5 1101.149,-75.5 1207.149,-75.5 1207.149,-56.5 1101.149,-56.5"/>
<text text-anchor="middle" x="1154.149" y="-63.5" font-family="Helvetica,sans-Serif" font-size="10.00" fill="#000000">tds_sysdep_public.h</text>
</a>
</g>
</g>
<!-- Node4&#45;&gt;Node9 -->
<g id="edge9" class="edge">
<title>Node4&#45;&gt;Node9</title>
<path fill="none" stroke="#191970" d="M722.7456,-176.2801C783.0163,-172.632 908.519,-161.8428 1010.149,-132 1053.5325,-119.2608 1100.587,-95.6616 1128.7025,-80.4064"/>
<polygon fill="#191970" stroke="#191970" points="1130.4025,-83.4659 1137.4786,-75.5806 1127.0296,-77.3321 1130.4025,-83.4659"/>
</g>
<!-- Node11 -->
<g id="node11" class="node">
<title>Node11</title>
<g id="a_node11"><a xlink:href="a00434_source.html" target="_top" xlink:title=" ">
<polygon fill="#ffffff" stroke="#000000" points="589.149,-56.5 589.149,-75.5 713.149,-75.5 713.149,-56.5 589.149,-56.5"/>
<text text-anchor="middle" x="651.149" y="-63.5" font-family="Helvetica,sans-Serif" font-size="10.00" fill="#000000">freetds/sysdep_private.h</text>
</a>
</g>
</g>
<!-- Node4&#45;&gt;Node11 -->
<g id="edge11" class="edge">
<title>Node4&#45;&gt;Node11</title>
<path fill="none" stroke="#191970" d="M722.9073,-176.892C785.5317,-173.6715 904.8129,-161.0957 865.149,-112 856.0343,-100.7178 781.683,-86.5325 723.1455,-76.9191"/>
<polygon fill="#191970" stroke="#191970" points="723.5923,-73.4458 713.1606,-75.298 722.4705,-80.3554 723.5923,-73.4458"/>
</g>
<!-- Node12 -->
<g id="node12" class="node">
<title>Node12</title>
<g id="a_node12"><a xlink:href="a00440_source.html" target="_top" xlink:title=" ">
<polygon fill="#ffffff" stroke="#000000" points="1102.649,-112.5 1102.649,-131.5 1187.649,-131.5 1187.649,-112.5 1102.649,-112.5"/>
<text text-anchor="middle" x="1145.149" y="-119.5" font-family="Helvetica,sans-Serif" font-size="10.00" fill="#000000">freetds/thread.h</text>
</a>
</g>
</g>
<!-- Node4&#45;&gt;Node12 -->
<g id="edge12" class="edge">
<title>Node4&#45;&gt;Node12</title>
<path fill="none" stroke="#191970" d="M722.8328,-173.9817C790.9717,-166.2567 944.3024,-148.6235 1073.149,-132 1079.3915,-131.1946 1085.9345,-130.3235 1092.4239,-129.4428"/>
<polygon fill="#191970" stroke="#191970" points="1093.0941,-132.8837 1102.5266,-128.059 1092.1442,-125.9485 1093.0941,-132.8837"/>
</g>
<!-- Node13 -->
<g id="node13" class="node">
<title>Node13</title>
<g id="a_node13"><a xlink:href="a00380_source.html" target="_top" xlink:title=" ">
<polygon fill="#ffffff" stroke="#000000" points="649.149,-112.5 649.149,-131.5 725.149,-131.5 725.149,-112.5 649.149,-112.5"/>
<text text-anchor="middle" x="687.149" y="-119.5" font-family="Helvetica,sans-Serif" font-size="10.00" fill="#000000">freetds/bool.h</text>
</a>
</g>
</g>
<!-- Node4&#45;&gt;Node13 -->
<g id="edge14" class="edge">
<title>Node4&#45;&gt;Node13</title>
<path fill="none" stroke="#191970" d="M687.149,-168.2455C687.149,-160.9382 687.149,-150.6944 687.149,-141.7046"/>
<polygon fill="#191970" stroke="#191970" points="690.6491,-141.6426 687.149,-131.6427 683.6491,-141.6427 690.6491,-141.6426"/>
</g>
<!-- Node14 -->
<g id="node14" class="node">
<title>Node14</title>
<g id="a_node14"><a xlink:href="a00413_source.html" target="_top" xlink:title=" ">
<polygon fill="#ffffff" stroke="#000000" points="373.149,-56.5 373.149,-75.5 463.149,-75.5 463.149,-56.5 373.149,-56.5"/>
<text text-anchor="middle" x="418.149" y="-63.5" font-family="Helvetica,sans-Serif" font-size="10.00" fill="#000000">freetds/macros.h</text>
</a>
</g>
</g>
<!-- Node4&#45;&gt;Node14 -->
<g id="edge15" class="edge">
<title>Node4&#45;&gt;Node14</title>
<path fill="none" stroke="#191970" d="M651.4514,-175.2432C574.3344,-168.9257 397.691,-152.3662 380.149,-132 367.0697,-116.8149 382.8012,-96.4734 397.811,-82.4055"/>
<polygon fill="#191970" stroke="#191970" points="400.2515,-84.9199 405.438,-75.6812 395.6223,-79.6691 400.2515,-84.9199"/>
</g>
<!-- Node4&#45;&gt;Node15 -->
<g id="edge16" class="edge">
<title>Node4&#45;&gt;Node15</title>
<path fill="none" stroke="#191970" d="M651.6488,-173.9059C585.6882,-166.2278 439.7859,-148.911 317.149,-132 315.6781,-131.7972 314.1891,-131.5896 312.6874,-131.3782"/>
<polygon fill="#191970" stroke="#191970" points="313.0481,-127.8942 302.6525,-129.9392 312.0544,-134.8234 313.0481,-127.8942"/>
</g>
<!-- Node16 -->
<g id="node16" class="node">
<title>Node16</title>
<g id="a_node16"><a xlink:href="a00425_source.html" target="_top" xlink:title=" ">
<polygon fill="#ffffff" stroke="#000000" points="333.149,-.5 333.149,-19.5 425.149,-19.5 425.149,-.5 333.149,-.5"/>
<text text-anchor="middle" x="379.149" y="-7.5" font-family="Helvetica,sans-Serif" font-size="10.00" fill="#000000">freetds/pushvis.h</text>
</a>
</g>
</g>
<!-- Node4&#45;&gt;Node16 -->
<g id="edge33" class="edge">
<title>Node4&#45;&gt;Node16</title>
<path fill="none" stroke="#191970" d="M723.0193,-174.3981C775.9981,-167.7219 865.4936,-150.4466 832.149,-112 795.0852,-69.2651 633.9659,-93.4284 580.149,-76 561.9921,-70.12 559.8745,-63.075 542.149,-56 506.2634,-41.6765 464.2707,-29.9375 431.8957,-21.9037"/>
<polygon fill="#191970" stroke="#191970" points="432.7193,-18.502 422.1745,-19.5306 431.0592,-25.3023 432.7193,-18.502"/>
</g>
<!-- Node17 -->
<g id="node17" class="node">
<title>Node17</title>
<g id="a_node17"><a xlink:href="a00419_source.html" target="_top" xlink:title=" ">
<polygon fill="#ffffff" stroke="#000000" points="195.149,-.5 195.149,-19.5 281.149,-19.5 281.149,-.5 195.149,-.5"/>
<text text-anchor="middle" x="238.149" y="-7.5" font-family="Helvetica,sans-Serif" font-size="10.00" fill="#000000">freetds/popvis.h</text>
</a>
</g>
</g>
<!-- Node4&#45;&gt;Node17 -->
<g id="edge35" class="edge">
<title>Node4&#45;&gt;Node17</title>
<path fill="none" stroke="#191970" d="M651.5524,-177.1443C569.4749,-174.6425 360.8972,-165.2577 190.149,-132 105.4093,-115.4947 55.6491,-145.2891 4.149,-76 -1.1535,-68.8659 -1.4977,-62.8649 4.149,-56 26.6031,-28.7021 123.1998,-17.3549 185.0484,-12.8246"/>
<polygon fill="#191970" stroke="#191970" points="185.3029,-16.3154 195.0359,-12.1298 184.817,-9.3323 185.3029,-16.3154"/>
</g>
<!-- Node4&#45;&gt;Node18 -->
<g id="edge20" class="edge">
<title>Node4&#45;&gt;Node18</title>
<path fill="none" stroke="#191970" d="M722.7083,-170.679C769.7867,-160.9864 853.1458,-143.8242 907.2576,-132.6835"/>
<polygon fill="#191970" stroke="#191970" points="908.2492,-136.0529 917.338,-130.6082 906.8376,-129.1967 908.2492,-136.0529"/>
</g>
<!-- Node21 -->
<g id="node21" class="node">
<title>Node21</title>
<g id="a_node21"><a xlink:href="a00422_source.html" target="_top" xlink:title=" ">
<polygon fill="#ffffff" stroke="#000000" points="743.149,-112.5 743.149,-131.5 823.149,-131.5 823.149,-112.5 743.149,-112.5"/>
<text text-anchor="middle" x="783.149" y="-119.5" font-family="Helvetica,sans-Serif" font-size="10.00" fill="#000000">freetds/proto.h</text>
</a>
</g>
</g>
<!-- Node4&#45;&gt;Node21 -->
<g id="edge34" class="edge">
<title>Node4&#45;&gt;Node21</title>
<path fill="none" stroke="#191970" d="M703.8709,-168.2455C718.7379,-159.5731 740.6956,-146.7645 757.7348,-136.825"/>
<polygon fill="#191970" stroke="#191970" points="759.7445,-139.7047 766.6187,-131.6427 756.2173,-133.6582 759.7445,-139.7047"/>
</g>
<!-- Node7&#45;&gt;Node7 -->
<g id="edge7" class="edge">
<title>Node7&#45;&gt;Node7</title>
<path fill="none" stroke="#191970" d="M500.4173,-131.5746C511.9364,-134.2697 523.149,-131.0781 523.149,-122 523.149,-115.7588 517.8493,-112.2999 510.7939,-111.6234"/>
<polygon fill="#191970" stroke="#191970" points="510.1178,-108.1651 500.4173,-112.4254 510.6573,-115.1443 510.1178,-108.1651"/>
</g>
<!-- Node10 -->
<g id="node10" class="node">
<title>Node10</title>
<g id="a_node10"><a xlink:title=" ">
<polygon fill="#ffffff" stroke="#bfbfbf" points="1132.149,-.5 1132.149,-19.5 1176.149,-19.5 1176.149,-.5 1132.149,-.5"/>
<text text-anchor="middle" x="1154.149" y="-7.5" font-family="Helvetica,sans-Serif" font-size="10.00" fill="#000000">float.h</text>
</a>
</g>
</g>
<!-- Node9&#45;&gt;Node10 -->
<g id="edge10" class="edge">
<title>Node9&#45;&gt;Node10</title>
<path fill="none" stroke="#191970" d="M1154.149,-56.2455C1154.149,-48.9382 1154.149,-38.6944 1154.149,-29.7046"/>
<polygon fill="#191970" stroke="#191970" points="1157.6491,-29.6426 1154.149,-19.6427 1150.6491,-29.6427 1157.6491,-29.6426"/>
</g>
<!-- Node12&#45;&gt;Node9 -->
<g id="edge13" class="edge">
<title>Node12&#45;&gt;Node9</title>
<path fill="none" stroke="#191970" d="M1146.7167,-112.2455C1147.8911,-104.9382 1149.5374,-94.6944 1150.9822,-85.7046"/>
<polygon fill="#191970" stroke="#191970" points="1154.4681,-86.0714 1152.5993,-75.6427 1147.5568,-84.9606 1154.4681,-86.0714"/>
</g>
<!-- Node15&#45;&gt;Node14 -->
<g id="edge17" class="edge">
<title>Node15&#45;&gt;Node14</title>
<path fill="none" stroke="#191970" d="M279.8573,-112.3733C307.5067,-103.1016 349.5066,-89.0178 379.9656,-78.804"/>
<polygon fill="#191970" stroke="#191970" points="381.4469,-81.9989 389.8153,-75.5011 379.2214,-75.3621 381.4469,-81.9989"/>
</g>
<!-- Node15&#45;&gt;Node16 -->
<g id="edge18" class="edge">
<title>Node15&#45;&gt;Node16</title>
<path fill="none" stroke="#191970" d="M270.2492,-112.404C285.9233,-104.0155 308.2129,-90.8726 325.149,-76 341.3923,-61.7358 356.6737,-42.2719 366.8061,-28.1804"/>
<polygon fill="#191970" stroke="#191970" points="369.8037,-30.0018 372.6794,-19.8047 364.0723,-25.9828 369.8037,-30.0018"/>
</g>
<!-- Node15&#45;&gt;Node17 -->
<g id="edge19" class="edge">
<title>Node15&#45;&gt;Node17</title>
<path fill="none" stroke="#191970" d="M199.4693,-115.5684C132.8219,-106.7482 24.005,-90.3555 12.149,-76 6.4887,-69.1463 6.5253,-62.8837 12.149,-56 33.5219,-29.8386 124.907,-18.1799 184.7238,-13.2715"/>
<polygon fill="#191970" stroke="#191970" points="185.072,-16.755 194.7687,-12.4859 184.5262,-9.7763 185.072,-16.755"/>
</g>
<!-- Node18&#45;&gt;Node5 -->
<g id="edge21" class="edge">
<title>Node18&#45;&gt;Node5</title>
<path fill="none" stroke="#191970" d="M917.6224,-117.1713C847.8636,-109.0122 702.7454,-91.836 580.149,-76 568.0799,-74.441 554.8999,-72.6598 543.1013,-71.0367"/>
<polygon fill="#191970" stroke="#191970" points="543.5363,-67.5636 533.1511,-69.6607 542.5773,-74.4976 543.5363,-67.5636"/>
</g>
<!-- Node18&#45;&gt;Node9 -->
<g id="edge22" class="edge">
<title>Node18&#45;&gt;Node9</title>
<path fill="none" stroke="#191970" d="M992.6707,-112.3733C1025.5174,-102.9404 1075.7085,-88.5265 1111.4068,-78.2747"/>
<polygon fill="#191970" stroke="#191970" points="1112.4193,-81.6255 1121.0647,-75.5011 1110.4871,-74.8974 1112.4193,-81.6255"/>
</g>
<!-- Node18&#45;&gt;Node11 -->
<g id="edge23" class="edge">
<title>Node18&#45;&gt;Node11</title>
<path fill="none" stroke="#191970" d="M917.6108,-114.4476C865.1154,-104.903 774.2852,-88.3884 713.462,-77.3296"/>
<polygon fill="#191970" stroke="#191970" points="714.0595,-73.881 703.5947,-75.5356 712.8072,-80.7681 714.0595,-73.881"/>
</g>
<!-- Node18&#45;&gt;Node16 -->
<g id="edge31" class="edge">
<title>Node18&#45;&gt;Node16</title>
<path fill="none" stroke="#191970" d="M958.6017,-112.494C957.1926,-97.727 952.1553,-69.5668 934.149,-56 894.9595,-26.4729 568.9308,-14.849 435.6203,-11.3017"/>
<polygon fill="#191970" stroke="#191970" points="435.3109,-7.7926 425.2232,-11.0311 435.1287,-14.7902 435.3109,-7.7926"/>
</g>
<!-- Node18&#45;&gt;Node17 -->
<g id="edge32" class="edge">
<title>Node18&#45;&gt;Node17</title>
<path fill="none" stroke="#191970" d="M917.3349,-115.368C876.6579,-108.2034 813.5071,-95.1753 761.149,-76 742.8575,-69.301 740.8591,-61.4213 722.149,-56 551.5549,-6.5699 500.819,-38.2586 324.149,-20 313.6117,-18.911 302.3583,-17.6637 291.5817,-16.4278"/>
<polygon fill="#191970" stroke="#191970" points="291.771,-12.9264 281.4346,-15.2519 290.9652,-19.8798 291.771,-12.9264"/>
</g>
<!-- Node19 -->
<g id="node19" class="node">
<title>Node19</title>
<g id="a_node19"><a xlink:href="a00488_source.html" target="_top" xlink:title=" ">
<polygon fill="#ffffff" stroke="#000000" points="769.649,-56.5 769.649,-75.5 924.649,-75.5 924.649,-56.5 769.649,-56.5"/>
<text text-anchor="middle" x="847.149" y="-63.5" font-family="Helvetica,sans-Serif" font-size="10.00" fill="#000000">replacements/readpassphrase.h</text>
</a>
</g>
</g>
<!-- Node18&#45;&gt;Node19 -->
<g id="edge24" class="edge">
<title>Node18&#45;&gt;Node19</title>
<path fill="none" stroke="#191970" d="M939.8955,-112.3733C922.0779,-103.4644 895.3743,-90.1127 875.1896,-80.0203"/>
<polygon fill="#191970" stroke="#191970" points="876.6608,-76.8428 866.1513,-75.5011 873.5303,-83.1038 876.6608,-76.8428"/>
</g>
<!-- Node20 -->
<g id="node20" class="node">
<title>Node20</title>
<g id="a_node20"><a xlink:href="a00485.html" target="_top" xlink:title="Provide poll call where missing.">
<polygon fill="#ffffff" stroke="#000000" points="981.649,-56.5 981.649,-75.5 1082.649,-75.5 1082.649,-56.5 981.649,-56.5"/>
<text text-anchor="middle" x="1032.149" y="-63.5" font-family="Helvetica,sans-Serif" font-size="10.00" fill="#000000">replacements/poll.h</text>
</a>
</g>
</g>
<!-- Node18&#45;&gt;Node20 -->
<g id="edge27" class="edge">
<title>Node18&#45;&gt;Node20</title>
<path fill="none" stroke="#191970" d="M971.8646,-112.2455C982.7511,-103.8943 998.6373,-91.7076 1011.369,-81.9408"/>
<polygon fill="#191970" stroke="#191970" points="1013.7751,-84.5063 1019.5791,-75.6427 1009.5144,-78.9523 1013.7751,-84.5063"/>
</g>
<!-- Node19&#45;&gt;Node16 -->
<g id="edge25" class="edge">
<title>Node19&#45;&gt;Node16</title>
<path fill="none" stroke="#191970" d="M769.6058,-56.7213C675.3447,-45.4422 518.5724,-26.6831 435.2409,-16.7119"/>
<polygon fill="#191970" stroke="#191970" points="435.5521,-13.2242 425.2071,-15.5112 434.7204,-20.1746 435.5521,-13.2242"/>
</g>
<!-- Node19&#45;&gt;Node17 -->
<g id="edge26" class="edge">
<title>Node19&#45;&gt;Node17</title>
<path fill="none" stroke="#191970" d="M769.3632,-57.4072C764.5546,-56.9187 759.7869,-56.4457 755.149,-56 563.8078,-37.6129 515.42,-39.1034 324.149,-20 313.608,-18.9472 302.353,-17.7162 291.5759,-16.4848"/>
<polygon fill="#191970" stroke="#191970" points="291.7649,-12.9834 281.4287,-15.31 290.9597,-19.937 291.7649,-12.9834"/>
</g>
<!-- Node20&#45;&gt;Node2 -->
<g id="edge28" class="edge">
<title>Node20&#45;&gt;Node2</title>
<path fill="none" stroke="#191970" d="M1065.6707,-56.3733C1100.7556,-46.2976 1155.6294,-30.539 1191.4926,-20.2398"/>
<polygon fill="#191970" stroke="#191970" points="1192.8745,-23.4845 1201.5199,-17.3601 1190.9423,-16.7564 1192.8745,-23.4845"/>
</g>
<!-- Node20&#45;&gt;Node16 -->
<g id="edge29" class="edge">
<title>Node20&#45;&gt;Node16</title>
<path fill="none" stroke="#191970" d="M981.4563,-57.8275C976.6269,-57.1616 971.7991,-56.5388 967.149,-56 772.4904,-33.4439 540.2648,-18.9048 435.4262,-13.0018"/>
<polygon fill="#191970" stroke="#191970" points="435.5624,-9.5041 425.3828,-12.4409 435.172,-16.4932 435.5624,-9.5041"/>
</g>
<!-- Node20&#45;&gt;Node17 -->
<g id="edge30" class="edge">
<title>Node20&#45;&gt;Node17</title>
<path fill="none" stroke="#191970" d="M981.5754,-60.4226C966.3438,-58.8553 949.5766,-57.2418 934.149,-56 663.4417,-34.2103 594.6963,-43.6936 324.149,-20 313.596,-19.0758 302.3355,-17.9026 291.5569,-16.6875"/>
<polygon fill="#191970" stroke="#191970" points="291.7447,-13.186 281.4093,-15.5164 290.9421,-20.1398 291.7447,-13.186"/>
</g>
<!-- Node22&#45;&gt;Node16 -->
<g id="edge38" class="edge">
<title>Node22&#45;&gt;Node16</title>
<path fill="none" stroke="#191970" d="M111.2257,-57.6269C114.2451,-57.0739 117.2408,-56.5275 120.149,-56 189.8695,-43.3532 270.2167,-29.139 322.6988,-19.903"/>
<polygon fill="#191970" stroke="#191970" points="323.5698,-23.3036 332.8123,-18.1241 322.3571,-16.4094 323.5698,-23.3036"/>
</g>
<!-- Node22&#45;&gt;Node17 -->
<g id="edge39" class="edge">
<title>Node22&#45;&gt;Node17</title>
<path fill="none" stroke="#191970" d="M95.7169,-56.3733C124.3179,-47.0613 167.8278,-32.8953 199.2309,-22.671"/>
<polygon fill="#191970" stroke="#191970" points="200.5418,-25.9251 208.967,-19.5011 198.3747,-19.269 200.5418,-25.9251"/>
</g>
<!-- Node23&#45;&gt;Node16 -->
<g id="edge41" class="edge">
<title>Node23&#45;&gt;Node16</title>
<path fill="none" stroke="#191970" d="M205.2493,-56.3733C240.7738,-46.9001 295.137,-32.4032 333.6109,-22.1435"/>
<polygon fill="#191970" stroke="#191970" points="334.7593,-25.4596 343.5198,-19.5011 332.9556,-18.696 334.7593,-25.4596"/>
</g>
<!-- Node23&#45;&gt;Node17 -->
<g id="edge42" class="edge">
<title>Node23&#45;&gt;Node17</title>
<path fill="none" stroke="#191970" d="M181.1679,-56.2455C191.3588,-47.9746 206.1852,-35.9416 218.1597,-26.2232"/>
<polygon fill="#191970" stroke="#191970" points="220.7089,-28.662 226.2679,-19.6427 216.2977,-23.2268 220.7089,-28.662"/>
</g>
<!-- Node24&#45;&gt;Node16 -->
<g id="edge44" class="edge">
<title>Node24&#45;&gt;Node16</title>
<path fill="none" stroke="#191970" d="M290.787,-56.2455C307.5877,-47.4527 332.5125,-34.4079 351.6108,-24.4125"/>
<polygon fill="#191970" stroke="#191970" points="353.4876,-27.3807 360.7246,-19.6427 350.2417,-21.1787 353.4876,-27.3807"/>
</g>
<!-- Node24&#45;&gt;Node17 -->
<g id="edge45" class="edge">
<title>Node24&#45;&gt;Node17</title>
<path fill="none" stroke="#191970" d="M266.2267,-56.2455C261.5463,-48.5367 254.8817,-37.5598 249.2201,-28.2348"/>
<polygon fill="#191970" stroke="#191970" points="252.1851,-26.3741 244.0035,-19.6427 246.2016,-30.007 252.1851,-26.3741"/>
</g>
</g>
</svg>
