<?xml version="1.0" encoding="UTF-8" standalone="no"?>
<!DOCTYPE svg PUBLIC "-//W3C//DTD SVG 1.1//EN"
 "http://www.w3.org/Graphics/SVG/1.1/DTD/svg11.dtd">
<!-- Generated by graphviz version 2.40.1 (20161225.0304)
 -->
<!-- Title: tds_writetext_end Pages: 1 -->
<svg width="322pt" height="28pt"
 viewBox="0.00 0.00 322.00 28.00" xmlns="http://www.w3.org/2000/svg" xmlns:xlink="http://www.w3.org/1999/xlink">
<g id="graph0" class="graph" transform="scale(1 1) rotate(0) translate(4 24)">
<title>tds_writetext_end</title>
<polygon fill="#ffffff" stroke="transparent" points="-4,4 -4,-24 318,-24 318,4 -4,4"/>
<!-- Node1 -->
<g id="node1" class="node">
<title>Node1</title>
<g id="a_node1"><a xlink:title="Finish sending writetext data.">
<polygon fill="#bfbfbf" stroke="#000000" points="0,-.5 0,-19.5 94,-19.5 94,-.5 0,-.5"/>
<text text-anchor="middle" x="47" y="-7.5" font-family="Helvetica,sans-Serif" font-size="10.00" fill="#000000">tds_writetext_end</text>
</a>
</g>
</g>
<!-- Node2 -->
<g id="node2" class="node">
<title>Node2</title>
<g id="a_node2"><a xlink:href="a00437.html#a16db200d2281f76fe46fc1cbe37ca9df" target="_top" xlink:title="Set state of TDS connection, with logging and checking.">
<polygon fill="#ffffff" stroke="#000000" points="130,-.5 130,-19.5 206,-19.5 206,-.5 130,-.5"/>
<text text-anchor="middle" x="168" y="-7.5" font-family="Helvetica,sans-Serif" font-size="10.00" fill="#000000">tds_set_state</text>
</a>
</g>
</g>
<!-- Node1&#45;&gt;Node2 -->
<g id="edge1" class="edge">
<title>Node1&#45;&gt;Node2</title>
<path fill="none" stroke="#191970" d="M94.1282,-10C102.5255,-10 111.2846,-10 119.7136,-10"/>
<polygon fill="#191970" stroke="#191970" points="119.785,-13.5001 129.7849,-10 119.7849,-6.5001 119.785,-13.5001"/>
</g>
<!-- Node3 -->
<g id="node3" class="node">
<title>Node3</title>
<g id="a_node3"><a xlink:href="a00437.html#ab45c291105027e69836002e1dd586141" target="_top" xlink:title="Write a message to the debug log.">
<polygon fill="#ffffff" stroke="#000000" points="242,-.5 242,-19.5 314,-19.5 314,-.5 242,-.5"/>
<text text-anchor="middle" x="278" y="-7.5" font-family="Helvetica,sans-Serif" font-size="10.00" fill="#000000">tdsdump_log</text>
</a>
</g>
</g>
<!-- Node2&#45;&gt;Node3 -->
<g id="edge2" class="edge">
<title>Node2&#45;&gt;Node3</title>
<path fill="none" stroke="#191970" d="M206.164,-10C214.3694,-10 223.1281,-10 231.6069,-10"/>
<polygon fill="#191970" stroke="#191970" points="231.7545,-13.5001 241.7545,-10 231.7545,-6.5001 231.7545,-13.5001"/>
</g>
</g>
</svg>
