<?xml version="1.0" encoding="UTF-8" standalone="no"?>
<!DOCTYPE svg PUBLIC "-//W3C//DTD SVG 1.1//EN"
 "http://www.w3.org/Graphics/SVG/1.1/DTD/svg11.dtd">
<!-- Generated by graphviz version 2.40.1 (20161225.0304)
 -->
<!-- Title: tds_set_state Pages: 1 -->
<svg width="401pt" height="142pt"
 viewBox="0.00 0.00 401.00 142.00" xmlns="http://www.w3.org/2000/svg" xmlns:xlink="http://www.w3.org/1999/xlink">
<g id="graph0" class="graph" transform="scale(1 1) rotate(0) translate(4 138)">
<title>tds_set_state</title>
<polygon fill="#ffffff" stroke="transparent" points="-4,4 -4,-138 397,-138 397,4 -4,4"/>
<!-- Node1 -->
<g id="node1" class="node">
<title>Node1</title>
<g id="a_node1"><a xlink:title="Set state of TDS connection, with logging and checking.">
<polygon fill="#bfbfbf" stroke="#000000" points="317,-57.5 317,-76.5 393,-76.5 393,-57.5 317,-57.5"/>
<text text-anchor="middle" x="355" y="-64.5" font-family="Helvetica,sans-Serif" font-size="10.00" fill="#000000">tds_set_state</text>
</a>
</g>
</g>
<!-- Node2 -->
<g id="node2" class="node">
<title>Node2</title>
<g id="a_node2"><a xlink:href="a00560.html#gada27f4cfce925240ad33b71b63ca692d" target="_top" xlink:title="Flush query packet.">
<polygon fill="#ffffff" stroke="#000000" points="161,-114.5 161,-133.5 281,-133.5 281,-114.5 161,-114.5"/>
<text text-anchor="middle" x="221" y="-121.5" font-family="Helvetica,sans-Serif" font-size="10.00" fill="#000000">tds_query_flush_packet</text>
</a>
</g>
</g>
<!-- Node1&#45;&gt;Node2 -->
<g id="edge1" class="edge">
<title>Node1&#45;&gt;Node2</title>
<path fill="none" stroke="#191970" d="M329.3044,-81.5447C315.2949,-89.1276 297.493,-98.2101 281,-105 272.6139,-108.4524 263.3586,-111.6634 254.6792,-114.4266"/>
<polygon fill="#191970" stroke="#191970" points="331.2572,-84.4653 338.3347,-76.5813 327.8854,-78.3309 331.2572,-84.4653"/>
</g>
<!-- Node4 -->
<g id="node4" class="node">
<title>Node4</title>
<g id="a_node4"><a xlink:href="a00560.html#ga5f071b94ad7889690762dc85646c74ab" target="_top" xlink:title="Calls a RPC from server.">
<polygon fill="#ffffff" stroke="#000000" points="179.5,-76.5 179.5,-95.5 262.5,-95.5 262.5,-76.5 179.5,-76.5"/>
<text text-anchor="middle" x="221" y="-83.5" font-family="Helvetica,sans-Serif" font-size="10.00" fill="#000000">tds_submit_rpc</text>
</a>
</g>
</g>
<!-- Node1&#45;&gt;Node4 -->
<g id="edge3" class="edge">
<title>Node1&#45;&gt;Node4</title>
<path fill="none" stroke="#191970" d="M306.7709,-73.8385C292.4175,-75.8736 276.8138,-78.0861 262.8988,-80.0591"/>
<polygon fill="#191970" stroke="#191970" points="307.5498,-77.2631 316.9594,-72.3938 306.5671,-70.3324 307.5498,-77.2631"/>
</g>
<!-- Node5 -->
<g id="node5" class="node">
<title>Node5</title>
<g id="a_node5"><a xlink:href="a00437.html#ab68dead99a2ebec55895a10cd3db5202" target="_top" xlink:title="Send some data in the writetext request started by tds_writetext_start.">
<polygon fill="#ffffff" stroke="#000000" points="163.5,-38.5 163.5,-57.5 278.5,-57.5 278.5,-38.5 163.5,-38.5"/>
<text text-anchor="middle" x="221" y="-45.5" font-family="Helvetica,sans-Serif" font-size="10.00" fill="#000000">tds_writetext_continue</text>
</a>
</g>
</g>
<!-- Node1&#45;&gt;Node5 -->
<g id="edge4" class="edge">
<title>Node1&#45;&gt;Node5</title>
<path fill="none" stroke="#191970" d="M306.8859,-60.1779C297.7351,-58.8803 288.0724,-57.5103 278.6605,-56.1757"/>
<polygon fill="#191970" stroke="#191970" points="306.5671,-63.6676 316.9594,-61.6062 307.5498,-56.7369 306.5671,-63.6676"/>
</g>
<!-- Node6 -->
<g id="node6" class="node">
<title>Node6</title>
<g id="a_node6"><a xlink:href="a00437.html#ac1e460551f1188620ea478238864ac4b" target="_top" xlink:title="Finish sending writetext data.">
<polygon fill="#ffffff" stroke="#000000" points="174,-.5 174,-19.5 268,-19.5 268,-.5 174,-.5"/>
<text text-anchor="middle" x="221" y="-7.5" font-family="Helvetica,sans-Serif" font-size="10.00" fill="#000000">tds_writetext_end</text>
</a>
</g>
</g>
<!-- Node1&#45;&gt;Node6 -->
<g id="edge5" class="edge">
<title>Node1&#45;&gt;Node6</title>
<path fill="none" stroke="#191970" d="M329.3044,-52.4553C315.2949,-44.8724 297.493,-35.7899 281,-29 272.6139,-25.5476 263.3586,-22.3366 254.6792,-19.5734"/>
<polygon fill="#191970" stroke="#191970" points="327.8854,-55.6691 338.3347,-57.4187 331.2572,-49.5347 327.8854,-55.6691"/>
</g>
<!-- Node3 -->
<g id="node3" class="node">
<title>Node3</title>
<g id="a_node3"><a xlink:href="a00560.html#ga2d0a06c1a30dd2470dc7a788de21b080" target="_top" xlink:title="Send RPC as string query.">
<polygon fill="#ffffff" stroke="#000000" points="0,-114.5 0,-133.5 125,-133.5 125,-114.5 0,-114.5"/>
<text text-anchor="middle" x="62.5" y="-121.5" font-family="Helvetica,sans-Serif" font-size="10.00" fill="#000000">tds4_send_emulated_rpc</text>
</a>
</g>
</g>
<!-- Node2&#45;&gt;Node3 -->
<g id="edge2" class="edge">
<title>Node2&#45;&gt;Node3</title>
<path fill="none" stroke="#191970" d="M150.4174,-124C141.9729,-124 133.3955,-124 125.0749,-124"/>
<polygon fill="#191970" stroke="#191970" points="150.6258,-127.5001 160.6258,-124 150.6258,-120.5001 150.6258,-127.5001"/>
</g>
</g>
</svg>
