<?xml version="1.0" encoding="UTF-8" standalone="no"?>
<!DOCTYPE svg PUBLIC "-//W3C//DTD SVG 1.1//EN"
 "http://www.w3.org/Graphics/SVG/1.1/DTD/svg11.dtd">
<!-- Generated by graphviz version 2.40.1 (20161225.0304)
 -->
<!-- Title: tdsdump_open Pages: 1 -->
<svg width="270pt" height="28pt"
 viewBox="0.00 0.00 270.00 28.00" xmlns="http://www.w3.org/2000/svg" xmlns:xlink="http://www.w3.org/1999/xlink">
<g id="graph0" class="graph" transform="scale(1 1) rotate(0) translate(4 24)">
<title>tdsdump_open</title>
<polygon fill="#ffffff" stroke="transparent" points="-4,4 -4,-24 266,-24 266,4 -4,4"/>
<!-- Node1 -->
<g id="node1" class="node">
<title>Node1</title>
<g id="a_node1"><a xlink:title="Create and truncate a human readable dump file for the TDS traffic.">
<polygon fill="#bfbfbf" stroke="#000000" points="182,-.5 182,-19.5 262,-19.5 262,-.5 182,-.5"/>
<text text-anchor="middle" x="222" y="-7.5" font-family="Helvetica,sans-Serif" font-size="10.00" fill="#000000">tdsdump_open</text>
</a>
</g>
</g>
<!-- Node2 -->
<g id="node2" class="node">
<title>Node2</title>
<g id="a_node2"><a xlink:href="a00551.html#ga2c99ec565452279e9a382451d89642eb" target="_top" xlink:title="Form a connection with the server.">
<polygon fill="#ffffff" stroke="#000000" points="84,-.5 84,-19.5 146,-19.5 146,-.5 84,-.5"/>
<text text-anchor="middle" x="115" y="-7.5" font-family="Helvetica,sans-Serif" font-size="10.00" fill="#000000">tdsdbopen</text>
</a>
</g>
</g>
<!-- Node1&#45;&gt;Node2 -->
<g id="edge1" class="edge">
<title>Node1&#45;&gt;Node2</title>
<path fill="none" stroke="#191970" d="M171.6804,-10C162.9223,-10 154.0502,-10 146.0072,-10"/>
<polygon fill="#191970" stroke="#191970" points="171.8528,-13.5001 181.8527,-10 171.8527,-6.5001 171.8528,-13.5001"/>
</g>
<!-- Node3 -->
<g id="node3" class="node">
<title>Node3</title>
<g id="a_node3"><a xlink:href="a00503.html#ae408d8e1c2ab0767d8bfd26d00d1ff6a" target="_top" xlink:title="Normally not used.">
<polygon fill="#ffffff" stroke="#000000" points="0,-.5 0,-19.5 48,-19.5 48,-.5 0,-.5"/>
<text text-anchor="middle" x="24" y="-7.5" font-family="Helvetica,sans-Serif" font-size="10.00" fill="#000000">dbopen</text>
</a>
</g>
</g>
<!-- Node2&#45;&gt;Node3 -->
<g id="edge2" class="edge">
<title>Node2&#45;&gt;Node3</title>
<path fill="none" stroke="#191970" d="M73.7731,-10C64.9619,-10 55.9351,-10 48.0301,-10"/>
<polygon fill="#191970" stroke="#191970" points="73.9375,-13.5001 83.9375,-10 73.9374,-6.5001 73.9375,-13.5001"/>
</g>
</g>
</svg>
