<?xml version="1.0" encoding="UTF-8" standalone="no"?>
<!DOCTYPE svg PUBLIC "-//W3C//DTD SVG 1.1//EN"
 "http://www.w3.org/Graphics/SVG/1.1/DTD/svg11.dtd">
<!-- Generated by graphviz version 2.40.1 (20161225.0304)
 -->
<!-- Title: include/freetds/tds.h Pages: 1 -->
<svg width="1251pt" height="84pt"
 viewBox="0.00 0.00 1250.50 84.00" xmlns="http://www.w3.org/2000/svg" xmlns:xlink="http://www.w3.org/1999/xlink">
<g id="graph0" class="graph" transform="scale(1 1) rotate(0) translate(4 80)">
<title>include/freetds/tds.h</title>
<polygon fill="#ffffff" stroke="transparent" points="-4,4 -4,-80 1246.5,-80 1246.5,4 -4,4"/>
<!-- Node1 -->
<g id="node1" class="node">
<title>Node1</title>
<g id="a_node1"><a xlink:title=" ">
<polygon fill="#bfbfbf" stroke="#000000" points="572.5,-56.5 572.5,-75.5 677.5,-75.5 677.5,-56.5 572.5,-56.5"/>
<text text-anchor="middle" x="625" y="-63.5" font-family="Helvetica,sans-Serif" font-size="10.00" fill="#000000">include/freetds/tds.h</text>
</a>
</g>
</g>
<!-- Node2 -->
<g id="node2" class="node">
<title>Node2</title>
<g id="a_node2"><a xlink:href="a01393.html" target="_top" xlink:title=" ">
<polygon fill="#ffffff" stroke="#000000" points="0,-.5 0,-19.5 80,-19.5 80,-.5 0,-.5"/>
<text text-anchor="middle" x="40" y="-7.5" font-family="Helvetica,sans-Serif" font-size="10.00" fill="#000000">src/dblib/bcp.c</text>
</a>
</g>
</g>
<!-- Node1&#45;&gt;Node2 -->
<g id="edge1" class="edge">
<title>Node1&#45;&gt;Node2</title>
<path fill="none" stroke="#191970" d="M561.9976,-62.9603C461.5472,-57.5827 259.0757,-44.5686 89,-20 86.0783,-19.5779 83.0684,-19.0916 80.0453,-18.5655"/>
<polygon fill="#191970" stroke="#191970" points="562.1024,-66.4707 572.273,-63.5028 562.4714,-59.4804 562.1024,-66.4707"/>
</g>
<!-- Node3 -->
<g id="node3" class="node">
<title>Node3</title>
<g id="a_node3"><a xlink:href="a00080.html" target="_top" xlink:title=" ">
<polygon fill="#ffffff" stroke="#000000" points="98.5,-.5 98.5,-19.5 183.5,-19.5 183.5,-.5 98.5,-.5"/>
<text text-anchor="middle" x="141" y="-7.5" font-family="Helvetica,sans-Serif" font-size="10.00" fill="#000000">src/dblib/dblib.c</text>
</a>
</g>
</g>
<!-- Node1&#45;&gt;Node3 -->
<g id="edge2" class="edge">
<title>Node1&#45;&gt;Node3</title>
<path fill="none" stroke="#191970" d="M562.1094,-60.9692C477.8258,-53.8471 323.6922,-39.4896 193,-20 189.9085,-19.539 186.7209,-19.024 183.5174,-18.4776"/>
<polygon fill="#191970" stroke="#191970" points="562.0267,-64.4745 572.2842,-61.8225 562.6117,-57.499 562.0267,-64.4745"/>
</g>
<!-- Node4 -->
<g id="node4" class="node">
<title>Node4</title>
<g id="a_node4"><a xlink:href="a00164_source.html" target="_top" xlink:title=" ">
<polygon fill="#ffffff" stroke="#000000" points="202,-.5 202,-19.5 282,-19.5 282,-.5 202,-.5"/>
<text text-anchor="middle" x="242" y="-7.5" font-family="Helvetica,sans-Serif" font-size="10.00" fill="#000000">src/pool/pool.h</text>
</a>
</g>
</g>
<!-- Node1&#45;&gt;Node4 -->
<g id="edge3" class="edge">
<title>Node1&#45;&gt;Node4</title>
<path fill="none" stroke="#191970" d="M562.4746,-58.6105C495.2292,-50.3783 385.2587,-36.0919 291,-20 288.0901,-19.5032 285.0889,-18.962 282.0718,-18.3969"/>
<polygon fill="#191970" stroke="#191970" points="562.1352,-62.0949 572.485,-59.8298 562.9816,-55.1463 562.1352,-62.0949"/>
</g>
<!-- Node5 -->
<g id="node5" class="node">
<title>Node5</title>
<g id="a_node5"><a xlink:href="a01417.html" target="_top" xlink:title=" ">
<polygon fill="#ffffff" stroke="#000000" points="300.5,-.5 300.5,-19.5 425.5,-19.5 425.5,-.5 300.5,-.5"/>
<text text-anchor="middle" x="363" y="-7.5" font-family="Helvetica,sans-Serif" font-size="10.00" fill="#000000">src/replacements/iconv.c</text>
</a>
</g>
</g>
<!-- Node1&#45;&gt;Node5 -->
<g id="edge4" class="edge">
<title>Node1&#45;&gt;Node5</title>
<path fill="none" stroke="#191970" d="M570.2948,-54.3073C522.0168,-43.9883 452.5178,-29.1336 407.5572,-19.5237"/>
<polygon fill="#191970" stroke="#191970" points="569.7476,-57.7693 580.2583,-56.4369 571.2108,-50.9239 569.7476,-57.7693"/>
</g>
<!-- Node6 -->
<g id="node6" class="node">
<title>Node6</title>
<g id="a_node6"><a xlink:href="a00236.html" target="_top" xlink:title="Handle bulk copy.">
<polygon fill="#ffffff" stroke="#000000" points="444,-.5 444,-19.5 520,-19.5 520,-.5 444,-.5"/>
<text text-anchor="middle" x="482" y="-7.5" font-family="Helvetica,sans-Serif" font-size="10.00" fill="#000000">src/tds/bulk.c</text>
</a>
</g>
</g>
<!-- Node1&#45;&gt;Node6 -->
<g id="edge5" class="edge">
<title>Node1&#45;&gt;Node6</title>
<path fill="none" stroke="#191970" d="M590.9202,-52.6541C564.8427,-42.4419 529.5185,-28.6086 506.2618,-19.5011"/>
<polygon fill="#191970" stroke="#191970" points="589.8297,-55.9858 600.4174,-56.3733 592.3822,-49.4677 589.8297,-55.9858"/>
</g>
<!-- Node7 -->
<g id="node7" class="node">
<title>Node7</title>
<g id="a_node7"><a xlink:href="a00245.html" target="_top" xlink:title="Handle different data handling from network.">
<polygon fill="#ffffff" stroke="#000000" points="538.5,-.5 538.5,-19.5 615.5,-19.5 615.5,-.5 538.5,-.5"/>
<text text-anchor="middle" x="577" y="-7.5" font-family="Helvetica,sans-Serif" font-size="10.00" fill="#000000">src/tds/data.c</text>
</a>
</g>
</g>
<!-- Node1&#45;&gt;Node7 -->
<g id="edge6" class="edge">
<title>Node1&#45;&gt;Node7</title>
<path fill="none" stroke="#191970" d="M610.0003,-48.5004C601.8378,-38.9775 592.0511,-27.5596 585.2651,-19.6427"/>
<polygon fill="#191970" stroke="#191970" points="607.4737,-50.9307 616.639,-56.2455 612.7885,-46.3752 607.4737,-50.9307"/>
</g>
<!-- Node8 -->
<g id="node8" class="node">
<title>Node8</title>
<g id="a_node8"><a xlink:href="a01420.html" target="_top" xlink:title="Handle character conversions to/from server.">
<polygon fill="#ffffff" stroke="#000000" points="634,-.5 634,-19.5 714,-19.5 714,-.5 634,-.5"/>
<text text-anchor="middle" x="674" y="-7.5" font-family="Helvetica,sans-Serif" font-size="10.00" fill="#000000">src/tds/iconv.c</text>
</a>
</g>
</g>
<!-- Node1&#45;&gt;Node8 -->
<g id="edge7" class="edge">
<title>Node1&#45;&gt;Node8</title>
<path fill="none" stroke="#191970" d="M640.3122,-48.5004C648.6447,-38.9775 658.6353,-27.5596 665.5627,-19.6427"/>
<polygon fill="#191970" stroke="#191970" points="637.4862,-46.415 633.5351,-56.2455 642.7543,-51.0245 637.4862,-46.415"/>
</g>
<!-- Node9 -->
<g id="node9" class="node">
<title>Node9</title>
<g id="a_node9"><a xlink:href="a00278.html" target="_top" xlink:title="Grab data from TDS packets.">
<polygon fill="#ffffff" stroke="#000000" points="732.5,-.5 732.5,-19.5 809.5,-19.5 809.5,-.5 732.5,-.5"/>
<text text-anchor="middle" x="771" y="-7.5" font-family="Helvetica,sans-Serif" font-size="10.00" fill="#000000">src/tds/read.c</text>
</a>
</g>
</g>
<!-- Node1&#45;&gt;Node9 -->
<g id="edge8" class="edge">
<title>Node1&#45;&gt;Node9</title>
<path fill="none" stroke="#191970" d="M659.4435,-52.7888C686.1013,-42.5639 722.38,-28.6488 746.2292,-19.5011"/>
<polygon fill="#191970" stroke="#191970" points="658.1816,-49.5241 650.0983,-56.3733 660.6885,-56.0598 658.1816,-49.5241"/>
</g>
<!-- Node10 -->
<g id="node10" class="node">
<title>Node10</title>
<g id="a_node10"><a xlink:href="a01408.html" target="_top" xlink:title="Handle stream of data.">
<polygon fill="#ffffff" stroke="#000000" points="828,-.5 828,-19.5 916,-19.5 916,-.5 828,-.5"/>
<text text-anchor="middle" x="872" y="-7.5" font-family="Helvetica,sans-Serif" font-size="10.00" fill="#000000">src/tds/stream.c</text>
</a>
</g>
</g>
<!-- Node1&#45;&gt;Node10 -->
<g id="edge9" class="edge">
<title>Node1&#45;&gt;Node10</title>
<path fill="none" stroke="#191970" d="M677.1455,-54.1775C722.6351,-43.8641 787.7846,-29.0934 829.9938,-19.5237"/>
<polygon fill="#191970" stroke="#191970" points="676.1587,-50.8123 667.1802,-56.4369 677.7066,-57.6391 676.1587,-50.8123"/>
</g>
<!-- Node11 -->
<g id="node11" class="node">
<title>Node11</title>
<g id="a_node11"><a xlink:href="a00305.html" target="_top" xlink:title="Contains all routines to get replies from server.">
<polygon fill="#ffffff" stroke="#000000" points="934,-.5 934,-19.5 1016,-19.5 1016,-.5 934,-.5"/>
<text text-anchor="middle" x="975" y="-7.5" font-family="Helvetica,sans-Serif" font-size="10.00" fill="#000000">src/tds/token.c</text>
</a>
</g>
</g>
<!-- Node1&#45;&gt;Node11 -->
<g id="edge10" class="edge">
<title>Node1&#45;&gt;Node11</title>
<path fill="none" stroke="#191970" d="M687.8877,-57.202C748.6824,-48.4975 843.329,-34.4209 925,-20 927.8768,-19.492 930.8428,-18.9489 933.8271,-18.388"/>
<polygon fill="#191970" stroke="#191970" points="687.0907,-53.7802 677.6855,-58.6578 688.0796,-60.71 687.0907,-53.7802"/>
</g>
<!-- Node12 -->
<g id="node12" class="node">
<title>Node12</title>
<g id="a_node12"><a xlink:href="a00365_source.html" target="_top" xlink:title=" ">
<polygon fill="#ffffff" stroke="#000000" points="1034.5,-.5 1034.5,-19.5 1111.5,-19.5 1111.5,-.5 1034.5,-.5"/>
<text text-anchor="middle" x="1073" y="-7.5" font-family="Helvetica,sans-Serif" font-size="10.00" fill="#000000">include/ctlib.h</text>
</a>
</g>
</g>
<!-- Node1&#45;&gt;Node12 -->
<g id="edge11" class="edge">
<title>Node1&#45;&gt;Node12</title>
<path fill="none" stroke="#191970" d="M687.8914,-60.5503C766.8846,-53.2964 906.4499,-39.125 1025,-20 1028.0253,-19.5119 1031.1489,-18.9634 1034.2835,-18.381"/>
<polygon fill="#191970" stroke="#191970" points="687.2665,-57.0927 677.6252,-61.4854 687.9015,-64.0638 687.2665,-57.0927"/>
</g>
<!-- Node13 -->
<g id="node13" class="node">
<title>Node13</title>
<g id="a_node13"><a xlink:href="a00416_source.html" target="_top" xlink:title=" ">
<polygon fill="#ffffff" stroke="#000000" points="1129.5,-.5 1129.5,-19.5 1242.5,-19.5 1242.5,-.5 1129.5,-.5"/>
<text text-anchor="middle" x="1186" y="-7.5" font-family="Helvetica,sans-Serif" font-size="10.00" fill="#000000">include/freetds/odbc.h</text>
</a>
</g>
</g>
<!-- Node1&#45;&gt;Node13 -->
<g id="edge12" class="edge">
<title>Node1&#45;&gt;Node13</title>
<path fill="none" stroke="#191970" d="M687.8217,-61.3923C782.0931,-54.2024 965.6734,-39.1333 1121,-20 1123.7196,-19.665 1126.5006,-19.3049 1129.3076,-18.9274"/>
<polygon fill="#191970" stroke="#191970" points="687.309,-57.9211 677.6024,-62.1675 687.8385,-64.901 687.309,-57.9211"/>
</g>
</g>
</svg>
