<?xml version="1.0" encoding="UTF-8" standalone="no"?>
<!DOCTYPE svg PUBLIC "-//W3C//DTD SVG 1.1//EN"
 "http://www.w3.org/Graphics/SVG/1.1/DTD/svg11.dtd">
<!-- Generated by graphviz version 2.40.1 (20161225.0304)
 -->
<!-- Title: include/freetds/tds.h Pages: 1 -->
<svg width="1348pt" height="196pt"
 viewBox="0.00 0.00 1348.00 196.00" xmlns="http://www.w3.org/2000/svg" xmlns:xlink="http://www.w3.org/1999/xlink">
<g id="graph0" class="graph" transform="scale(1 1) rotate(0) translate(4 192)">
<title>include/freetds/tds.h</title>
<polygon fill="#ffffff" stroke="transparent" points="-4,4 -4,-192 1344,-192 1344,4 -4,4"/>
<!-- Node1 -->
<g id="node1" class="node">
<title>Node1</title>
<g id="a_node1"><a xlink:title=" ">
<polygon fill="#bfbfbf" stroke="#000000" points="755.5,-168.5 755.5,-187.5 860.5,-187.5 860.5,-168.5 755.5,-168.5"/>
<text text-anchor="middle" x="808" y="-175.5" font-family="Helvetica,sans-Serif" font-size="10.00" fill="#000000">include/freetds/tds.h</text>
</a>
</g>
</g>
<!-- Node2 -->
<g id="node2" class="node">
<title>Node2</title>
<g id="a_node2"><a xlink:title=" ">
<polygon fill="#ffffff" stroke="#bfbfbf" points="162,-56.5 162,-75.5 214,-75.5 214,-56.5 162,-56.5"/>
<text text-anchor="middle" x="188" y="-63.5" font-family="Helvetica,sans-Serif" font-size="10.00" fill="#000000">stdarg.h</text>
</a>
</g>
</g>
<!-- Node1&#45;&gt;Node2 -->
<g id="edge1" class="edge">
<title>Node1&#45;&gt;Node2</title>
<path fill="none" stroke="#191970" d="M755.2347,-174.8015C650.4957,-168.1208 419.8214,-151.6631 343,-132 295.9563,-119.9588 244.7363,-95.7749 214.5451,-80.2637"/>
<polygon fill="#191970" stroke="#191970" points="215.9995,-77.075 205.5137,-75.5588 212.7653,-83.2831 215.9995,-77.075"/>
</g>
<!-- Node3 -->
<g id="node3" class="node">
<title>Node3</title>
<g id="a_node3"><a xlink:title=" ">
<polygon fill="#ffffff" stroke="#bfbfbf" points="914,-112.5 914,-131.5 960,-131.5 960,-112.5 914,-112.5"/>
<text text-anchor="middle" x="937" y="-119.5" font-family="Helvetica,sans-Serif" font-size="10.00" fill="#000000">stdio.h</text>
</a>
</g>
</g>
<!-- Node1&#45;&gt;Node3 -->
<g id="edge2" class="edge">
<title>Node1&#45;&gt;Node3</title>
<path fill="none" stroke="#191970" d="M830.1759,-168.3733C850.9766,-159.3435 882.2917,-145.7494 905.6458,-135.6111"/>
<polygon fill="#191970" stroke="#191970" points="907.3343,-138.6938 915.1135,-131.5011 904.5468,-132.2727 907.3343,-138.6938"/>
</g>
<!-- Node4 -->
<g id="node4" class="node">
<title>Node4</title>
<g id="a_node4"><a xlink:href="a00443_source.html" target="_top" xlink:title=" ">
<polygon fill="#ffffff" stroke="#000000" points="978,-112.5 978,-131.5 1022,-131.5 1022,-112.5 978,-112.5"/>
<text text-anchor="middle" x="1000" y="-119.5" font-family="Helvetica,sans-Serif" font-size="10.00" fill="#000000">time.h</text>
</a>
</g>
</g>
<!-- Node1&#45;&gt;Node4 -->
<g id="edge3" class="edge">
<title>Node1&#45;&gt;Node4</title>
<path fill="none" stroke="#191970" d="M842.6459,-168.4654C873.2759,-159.9553 919.3943,-146.9467 967.9397,-132.2592"/>
<polygon fill="#191970" stroke="#191970" points="969.1269,-135.5566 977.6772,-129.3002 967.0916,-128.859 969.1269,-135.5566"/>
</g>
<!-- Node5 -->
<g id="node5" class="node">
<title>Node5</title>
<g id="a_node5"><a xlink:href="a00476_source.html" target="_top" xlink:title=" ">
<polygon fill="#ffffff" stroke="#000000" points="1058.5,-112.5 1058.5,-131.5 1147.5,-131.5 1147.5,-112.5 1058.5,-112.5"/>
<text text-anchor="middle" x="1103" y="-119.5" font-family="Helvetica,sans-Serif" font-size="10.00" fill="#000000">freetds/version.h</text>
</a>
</g>
</g>
<!-- Node1&#45;&gt;Node5 -->
<g id="edge5" class="edge">
<title>Node1&#45;&gt;Node5</title>
<path fill="none" stroke="#191970" d="M858.3771,-168.4369C911.095,-158.4294 993.6098,-142.7656 1047.9958,-132.4415"/>
<polygon fill="#191970" stroke="#191970" points="1048.9733,-135.8185 1058.1451,-130.5148 1047.6678,-128.9413 1048.9733,-135.8185"/>
</g>
<!-- Node6 -->
<g id="node6" class="node">
<title>Node6</title>
<g id="a_node6"><a xlink:href="a00512_source.html" target="_top" xlink:title=" ">
<polygon fill="#ffffff" stroke="#000000" points="0,-56.5 0,-75.5 106,-75.5 106,-56.5 0,-56.5"/>
<text text-anchor="middle" x="53" y="-63.5" font-family="Helvetica,sans-Serif" font-size="10.00" fill="#000000">tds_sysdep_public.h</text>
</a>
</g>
</g>
<!-- Node1&#45;&gt;Node6 -->
<g id="edge6" class="edge">
<title>Node1&#45;&gt;Node6</title>
<path fill="none" stroke="#191970" d="M755.4893,-176.9292C581.9775,-173.1381 36.5833,-159.1025 11,-132 -3.3412,-116.8072 14.7175,-96.0422 31.4167,-81.8872"/>
<polygon fill="#191970" stroke="#191970" points="33.7433,-84.508 39.3574,-75.5228 29.3654,-79.0459 33.7433,-84.508"/>
</g>
<!-- Node8 -->
<g id="node8" class="node">
<title>Node8</title>
<g id="a_node8"><a xlink:href="a00434_source.html" target="_top" xlink:title=" ">
<polygon fill="#ffffff" stroke="#000000" points="601,-56.5 601,-75.5 725,-75.5 725,-56.5 601,-56.5"/>
<text text-anchor="middle" x="663" y="-63.5" font-family="Helvetica,sans-Serif" font-size="10.00" fill="#000000">freetds/sysdep_private.h</text>
</a>
</g>
</g>
<!-- Node1&#45;&gt;Node8 -->
<g id="edge8" class="edge">
<title>Node1&#45;&gt;Node8</title>
<path fill="none" stroke="#191970" d="M776.2258,-168.3777C755.2276,-160.8868 727.9943,-148.9011 708,-132 692.5102,-118.9065 680.032,-99.2329 672.1799,-84.7707"/>
<polygon fill="#191970" stroke="#191970" points="675.2083,-83.0075 667.5026,-75.736 668.9919,-86.2257 675.2083,-83.0075"/>
</g>
<!-- Node9 -->
<g id="node9" class="node">
<title>Node9</title>
<g id="a_node9"><a xlink:href="a00440_source.html" target="_top" xlink:title=" ">
<polygon fill="#ffffff" stroke="#000000" points="20.5,-112.5 20.5,-131.5 105.5,-131.5 105.5,-112.5 20.5,-112.5"/>
<text text-anchor="middle" x="63" y="-119.5" font-family="Helvetica,sans-Serif" font-size="10.00" fill="#000000">freetds/thread.h</text>
</a>
</g>
</g>
<!-- Node1&#45;&gt;Node9 -->
<g id="edge9" class="edge">
<title>Node1&#45;&gt;Node9</title>
<path fill="none" stroke="#191970" d="M755.1693,-176.3936C639.6226,-172.4584 355.9116,-160.4978 120,-132 118.535,-131.823 117.0505,-131.6335 115.5535,-131.4333"/>
<polygon fill="#191970" stroke="#191970" points="115.9675,-127.9568 105.5677,-129.9802 114.9595,-134.8838 115.9675,-127.9568"/>
</g>
<!-- Node10 -->
<g id="node10" class="node">
<title>Node10</title>
<g id="a_node10"><a xlink:href="a00380_source.html" target="_top" xlink:title=" ">
<polygon fill="#ffffff" stroke="#000000" points="1166,-112.5 1166,-131.5 1242,-131.5 1242,-112.5 1166,-112.5"/>
<text text-anchor="middle" x="1204" y="-119.5" font-family="Helvetica,sans-Serif" font-size="10.00" fill="#000000">freetds/bool.h</text>
</a>
</g>
</g>
<!-- Node1&#45;&gt;Node10 -->
<g id="edge11" class="edge">
<title>Node1&#45;&gt;Node10</title>
<path fill="none" stroke="#191970" d="M860.521,-172.3805C926.9825,-164.9802 1045.1696,-150.8594 1155.8314,-132.0953"/>
<polygon fill="#191970" stroke="#191970" points="1156.563,-135.5211 1165.8289,-130.3837 1155.3817,-128.6214 1156.563,-135.5211"/>
</g>
<!-- Node11 -->
<g id="node11" class="node">
<title>Node11</title>
<g id="a_node11"><a xlink:href="a00413_source.html" target="_top" xlink:title=" ">
<polygon fill="#ffffff" stroke="#000000" points="819,-56.5 819,-75.5 909,-75.5 909,-56.5 819,-56.5"/>
<text text-anchor="middle" x="864" y="-63.5" font-family="Helvetica,sans-Serif" font-size="10.00" fill="#000000">freetds/macros.h</text>
</a>
</g>
</g>
<!-- Node1&#45;&gt;Node11 -->
<g id="edge12" class="edge">
<title>Node1&#45;&gt;Node11</title>
<path fill="none" stroke="#191970" d="M812.7745,-168.4509C822.032,-149.936 842.5705,-108.8591 854.6407,-84.7187"/>
<polygon fill="#191970" stroke="#191970" points="857.8959,-86.0344 859.2376,-75.5249 851.6349,-82.9039 857.8959,-86.0344"/>
</g>
<!-- Node12 -->
<g id="node12" class="node">
<title>Node12</title>
<g id="a_node12"><a xlink:href="a00470_source.html" target="_top" xlink:title=" ">
<polygon fill="#ffffff" stroke="#000000" points="716.5,-112.5 716.5,-131.5 819.5,-131.5 819.5,-112.5 716.5,-112.5"/>
<text text-anchor="middle" x="768" y="-119.5" font-family="Helvetica,sans-Serif" font-size="10.00" fill="#000000">freetds/utils/string.h</text>
</a>
</g>
</g>
<!-- Node1&#45;&gt;Node12 -->
<g id="edge13" class="edge">
<title>Node1&#45;&gt;Node12</title>
<path fill="none" stroke="#191970" d="M801.0325,-168.2455C795.4689,-160.4564 787.522,-149.3308 780.8171,-139.9439"/>
<polygon fill="#191970" stroke="#191970" points="783.5481,-137.7457 774.8876,-131.6427 777.852,-141.8144 783.5481,-137.7457"/>
</g>
<!-- Node13 -->
<g id="node13" class="node">
<title>Node13</title>
<g id="a_node13"><a xlink:href="a00425_source.html" target="_top" xlink:title=" ">
<polygon fill="#ffffff" stroke="#000000" points="320,-.5 320,-19.5 412,-19.5 412,-.5 320,-.5"/>
<text text-anchor="middle" x="366" y="-7.5" font-family="Helvetica,sans-Serif" font-size="10.00" fill="#000000">freetds/pushvis.h</text>
</a>
</g>
</g>
<!-- Node1&#45;&gt;Node13 -->
<g id="edge30" class="edge">
<title>Node1&#45;&gt;Node13</title>
<path fill="none" stroke="#191970" d="M755.07,-175.5071C640.2216,-169.7496 371.3839,-154.2926 283,-132 221.9999,-116.6143 187.5829,-128.5524 153,-76 148.1136,-68.5747 147.4173,-62.9171 153,-56 158.0009,-49.8039 248.5664,-31.8589 309.978,-20.3005"/>
<polygon fill="#191970" stroke="#191970" points="310.7595,-23.7151 319.9435,-18.4326 309.4698,-16.8349 310.7595,-23.7151"/>
</g>
<!-- Node14 -->
<g id="node14" class="node">
<title>Node14</title>
<g id="a_node14"><a xlink:href="a00419_source.html" target="_top" xlink:title=" ">
<polygon fill="#ffffff" stroke="#000000" points="530,-.5 530,-19.5 616,-19.5 616,-.5 530,-.5"/>
<text text-anchor="middle" x="573" y="-7.5" font-family="Helvetica,sans-Serif" font-size="10.00" fill="#000000">freetds/popvis.h</text>
</a>
</g>
</g>
<!-- Node1&#45;&gt;Node14 -->
<g id="edge32" class="edge">
<title>Node1&#45;&gt;Node14</title>
<path fill="none" stroke="#191970" d="M825.507,-168.2485C851.4402,-152.669 899.0382,-119.4421 918,-76 921.5559,-67.8533 923.8553,-62.6879 918,-56 899.1,-34.4128 718.3435,-19.5372 626.3011,-13.2967"/>
<polygon fill="#191970" stroke="#191970" points="626.2799,-9.7876 616.069,-12.6138 625.8137,-16.7721 626.2799,-9.7876"/>
</g>
<!-- Node15 -->
<g id="node15" class="node">
<title>Node15</title>
<g id="a_node15"><a xlink:href="a00491_source.html" target="_top" xlink:title=" ">
<polygon fill="#ffffff" stroke="#000000" points="352.5,-112.5 352.5,-131.5 435.5,-131.5 435.5,-112.5 352.5,-112.5"/>
<text text-anchor="middle" x="394" y="-119.5" font-family="Helvetica,sans-Serif" font-size="10.00" fill="#000000">replacements.h</text>
</a>
</g>
</g>
<!-- Node1&#45;&gt;Node15 -->
<g id="edge17" class="edge">
<title>Node1&#45;&gt;Node15</title>
<path fill="none" stroke="#191970" d="M755.1461,-170.8507C675.3489,-160.0569 525.0456,-139.726 445.8465,-129.0131"/>
<polygon fill="#191970" stroke="#191970" points="446.0006,-125.5021 435.6217,-127.63 445.0623,-132.4389 446.0006,-125.5021"/>
</g>
<!-- Node19 -->
<g id="node19" class="node">
<title>Node19</title>
<g id="a_node19"><a xlink:href="a00422_source.html" target="_top" xlink:title=" ">
<polygon fill="#ffffff" stroke="#000000" points="1260,-112.5 1260,-131.5 1340,-131.5 1340,-112.5 1260,-112.5"/>
<text text-anchor="middle" x="1300" y="-119.5" font-family="Helvetica,sans-Serif" font-size="10.00" fill="#000000">freetds/proto.h</text>
</a>
</g>
</g>
<!-- Node1&#45;&gt;Node19 -->
<g id="edge31" class="edge">
<title>Node1&#45;&gt;Node19</title>
<path fill="none" stroke="#191970" d="M860.7222,-174.2041C942.0832,-167.9776 1103.3053,-154.1772 1249.8676,-132.0455"/>
<polygon fill="#191970" stroke="#191970" points="1250.5888,-135.476 1259.946,-130.5067 1249.5322,-128.5562 1250.5888,-135.476"/>
</g>
<!-- Node4&#45;&gt;Node4 -->
<g id="edge4" class="edge">
<title>Node4&#45;&gt;Node4</title>
<path fill="none" stroke="#191970" d="M1017.2683,-131.5746C1028.7874,-134.2697 1040,-131.0781 1040,-122 1040,-115.7588 1034.7003,-112.2999 1027.6448,-111.6234"/>
<polygon fill="#191970" stroke="#191970" points="1026.9688,-108.1651 1017.2683,-112.4254 1027.5083,-115.1443 1026.9688,-108.1651"/>
</g>
<!-- Node7 -->
<g id="node7" class="node">
<title>Node7</title>
<g id="a_node7"><a xlink:title=" ">
<polygon fill="#ffffff" stroke="#bfbfbf" points="31,-.5 31,-19.5 75,-19.5 75,-.5 31,-.5"/>
<text text-anchor="middle" x="53" y="-7.5" font-family="Helvetica,sans-Serif" font-size="10.00" fill="#000000">float.h</text>
</a>
</g>
</g>
<!-- Node6&#45;&gt;Node7 -->
<g id="edge7" class="edge">
<title>Node6&#45;&gt;Node7</title>
<path fill="none" stroke="#191970" d="M53,-56.2455C53,-48.9382 53,-38.6944 53,-29.7046"/>
<polygon fill="#191970" stroke="#191970" points="56.5001,-29.6426 53,-19.6427 49.5001,-29.6427 56.5001,-29.6426"/>
</g>
<!-- Node9&#45;&gt;Node6 -->
<g id="edge10" class="edge">
<title>Node9&#45;&gt;Node6</title>
<path fill="none" stroke="#191970" d="M61.2581,-112.2455C59.9533,-104.9382 58.124,-94.6944 56.5187,-85.7046"/>
<polygon fill="#191970" stroke="#191970" points="59.9254,-84.8717 54.7219,-75.6427 53.0344,-86.1022 59.9254,-84.8717"/>
</g>
<!-- Node12&#45;&gt;Node11 -->
<g id="edge14" class="edge">
<title>Node12&#45;&gt;Node11</title>
<path fill="none" stroke="#191970" d="M784.7219,-112.2455C799.5889,-103.5731 821.5466,-90.7645 838.5858,-80.825"/>
<polygon fill="#191970" stroke="#191970" points="840.5955,-83.7047 847.4697,-75.6427 837.0683,-77.6582 840.5955,-83.7047"/>
</g>
<!-- Node12&#45;&gt;Node13 -->
<g id="edge15" class="edge">
<title>Node12&#45;&gt;Node13</title>
<path fill="none" stroke="#191970" d="M766.0583,-112.4974C762.5011,-97.7351 753.4428,-69.5811 734,-56 708.9815,-38.5242 519.1802,-21.7033 422.3921,-14.1524"/>
<polygon fill="#191970" stroke="#191970" points="422.435,-10.6454 412.195,-13.3643 421.8955,-17.6246 422.435,-10.6454"/>
</g>
<!-- Node12&#45;&gt;Node14 -->
<g id="edge16" class="edge">
<title>Node12&#45;&gt;Node14</title>
<path fill="none" stroke="#191970" d="M771.2028,-112.2557C775.1628,-98.1791 779.9152,-72.0837 767,-56 749.5771,-34.3027 677.5161,-21.7148 626.3205,-15.3524"/>
<polygon fill="#191970" stroke="#191970" points="626.7272,-11.8762 616.382,-14.1621 625.8948,-18.8266 626.7272,-11.8762"/>
</g>
<!-- Node15&#45;&gt;Node2 -->
<g id="edge18" class="edge">
<title>Node15&#45;&gt;Node2</title>
<path fill="none" stroke="#191970" d="M358.5873,-112.3733C321.0487,-102.1686 262.0663,-86.1345 224.2226,-75.8469"/>
<polygon fill="#191970" stroke="#191970" points="224.7127,-72.3532 214.1447,-73.1073 222.8764,-79.1081 224.7127,-72.3532"/>
</g>
<!-- Node15&#45;&gt;Node6 -->
<g id="edge19" class="edge">
<title>Node15&#45;&gt;Node6</title>
<path fill="none" stroke="#191970" d="M352.1867,-115.1333C293.2339,-105.4519 185.2084,-87.7116 116.3631,-76.4057"/>
<polygon fill="#191970" stroke="#191970" points="116.5174,-72.8842 106.0824,-74.7173 115.383,-79.7917 116.5174,-72.8842"/>
</g>
<!-- Node15&#45;&gt;Node8 -->
<g id="edge20" class="edge">
<title>Node15&#45;&gt;Node8</title>
<path fill="none" stroke="#191970" d="M435.7361,-113.3114C481.8064,-103.7206 556.1879,-88.236 607.2274,-77.6106"/>
<polygon fill="#191970" stroke="#191970" points="608.0321,-81.0183 617.1088,-75.5536 606.6053,-74.1652 608.0321,-81.0183"/>
</g>
<!-- Node15&#45;&gt;Node13 -->
<g id="edge28" class="edge">
<title>Node15&#45;&gt;Node13</title>
<path fill="none" stroke="#191970" d="M352.3412,-113.1278C317.5292,-104.7693 271.8787,-91.2736 261,-76 243.017,-50.7521 278.4664,-33.0286 312.9385,-22.3512"/>
<polygon fill="#191970" stroke="#191970" points="313.9762,-25.6944 322.5903,-19.5261 312.0098,-18.9763 313.9762,-25.6944"/>
</g>
<!-- Node15&#45;&gt;Node14 -->
<g id="edge29" class="edge">
<title>Node15&#45;&gt;Node14</title>
<path fill="none" stroke="#191970" d="M435.793,-114.7178C477.3997,-106.6623 537.3916,-92.6026 554,-76 566.2302,-63.7741 570.701,-44.2178 572.2789,-29.5609"/>
<polygon fill="#191970" stroke="#191970" points="575.7753,-29.7357 573.0023,-19.5102 568.7934,-29.2331 575.7753,-29.7357"/>
</g>
<!-- Node16 -->
<g id="node16" class="node">
<title>Node16</title>
<g id="a_node16"><a xlink:href="a00488_source.html" target="_top" xlink:title=" ">
<polygon fill="#ffffff" stroke="#000000" points="389.5,-56.5 389.5,-75.5 544.5,-75.5 544.5,-56.5 389.5,-56.5"/>
<text text-anchor="middle" x="467" y="-63.5" font-family="Helvetica,sans-Serif" font-size="10.00" fill="#000000">replacements/readpassphrase.h</text>
</a>
</g>
</g>
<!-- Node15&#45;&gt;Node16 -->
<g id="edge21" class="edge">
<title>Node15&#45;&gt;Node16</title>
<path fill="none" stroke="#191970" d="M406.7156,-112.2455C417.602,-103.8943 433.4883,-91.7076 446.22,-81.9408"/>
<polygon fill="#191970" stroke="#191970" points="448.6261,-84.5063 454.4301,-75.6427 444.3654,-78.9523 448.6261,-84.5063"/>
</g>
<!-- Node17 -->
<g id="node17" class="node">
<title>Node17</title>
<g id="a_node17"><a xlink:href="a00485.html" target="_top" xlink:title="Provide poll call where missing.">
<polygon fill="#ffffff" stroke="#000000" points="270.5,-56.5 270.5,-75.5 371.5,-75.5 371.5,-56.5 270.5,-56.5"/>
<text text-anchor="middle" x="321" y="-63.5" font-family="Helvetica,sans-Serif" font-size="10.00" fill="#000000">replacements/poll.h</text>
</a>
</g>
</g>
<!-- Node15&#45;&gt;Node17 -->
<g id="edge24" class="edge">
<title>Node15&#45;&gt;Node17</title>
<path fill="none" stroke="#191970" d="M381.2844,-112.2455C370.398,-103.8943 354.5117,-91.7076 341.78,-81.9408"/>
<polygon fill="#191970" stroke="#191970" points="343.6346,-78.9523 333.5699,-75.6427 339.3739,-84.5063 343.6346,-78.9523"/>
</g>
<!-- Node16&#45;&gt;Node13 -->
<g id="edge22" class="edge">
<title>Node16&#45;&gt;Node13</title>
<path fill="none" stroke="#191970" d="M449.4071,-56.2455C433.621,-47.4928 410.2361,-34.527 392.2413,-24.5496"/>
<polygon fill="#191970" stroke="#191970" points="393.8341,-21.4308 383.3913,-19.6427 390.4397,-27.5528 393.8341,-21.4308"/>
</g>
<!-- Node16&#45;&gt;Node14 -->
<g id="edge23" class="edge">
<title>Node16&#45;&gt;Node14</title>
<path fill="none" stroke="#191970" d="M485.4638,-56.2455C502.1074,-47.4527 526.7993,-34.4079 545.7192,-24.4125"/>
<polygon fill="#191970" stroke="#191970" points="547.5408,-27.4086 554.7478,-19.6427 544.2709,-21.2193 547.5408,-27.4086"/>
</g>
<!-- Node17&#45;&gt;Node13 -->
<g id="edge26" class="edge">
<title>Node17&#45;&gt;Node13</title>
<path fill="none" stroke="#191970" d="M328.8384,-56.2455C335.162,-48.3761 344.2224,-37.101 351.8136,-27.6542"/>
<polygon fill="#191970" stroke="#191970" points="354.7158,-29.6302 358.2514,-19.6427 349.2592,-25.2454 354.7158,-29.6302"/>
</g>
<!-- Node17&#45;&gt;Node14 -->
<g id="edge27" class="edge">
<title>Node17&#45;&gt;Node14</title>
<path fill="none" stroke="#191970" d="M364.034,-56.4369C407.2525,-46.8328 473.9141,-32.0191 520.2818,-21.7152"/>
<polygon fill="#191970" stroke="#191970" points="521.1409,-25.1097 530.1435,-19.5237 519.6223,-18.2764 521.1409,-25.1097"/>
</g>
<!-- Node18 -->
<g id="node18" class="node">
<title>Node18</title>
<g id="a_node18"><a xlink:href="a00356_source.html" target="_top" xlink:title=" ">
<polygon fill="#ffffff" stroke="#000000" points="250.5,-.5 250.5,-19.5 301.5,-19.5 301.5,-.5 250.5,-.5"/>
<text text-anchor="middle" x="276" y="-7.5" font-family="Helvetica,sans-Serif" font-size="10.00" fill="#000000">config.h</text>
</a>
</g>
</g>
<!-- Node17&#45;&gt;Node18 -->
<g id="edge25" class="edge">
<title>Node17&#45;&gt;Node18</title>
<path fill="none" stroke="#191970" d="M313.1616,-56.2455C306.838,-48.3761 297.7776,-37.101 290.1864,-27.6542"/>
<polygon fill="#191970" stroke="#191970" points="292.7408,-25.2454 283.7486,-19.6427 287.2842,-29.6302 292.7408,-25.2454"/>
</g>
</g>
</svg>
