<?xml version="1.0" encoding="UTF-8" standalone="no"?>
<!DOCTYPE svg PUBLIC "-//W3C//DTD SVG 1.1//EN"
 "http://www.w3.org/Graphics/SVG/1.1/DTD/svg11.dtd">
<!-- Generated by graphviz version 2.40.1 (20161225.0304)
 -->
<!-- Title: include/replacements/poll.h Pages: 1 -->
<svg width="1250pt" height="207pt"
 viewBox="0.00 0.00 1250.00 207.00" xmlns="http://www.w3.org/2000/svg" xmlns:xlink="http://www.w3.org/1999/xlink">
<g id="graph0" class="graph" transform="scale(1 1) rotate(0) translate(4 203)">
<title>include/replacements/poll.h</title>
<polygon fill="#ffffff" stroke="transparent" points="-4,4 -4,-203 1246,-203 1246,4 -4,4"/>
<!-- Node1 -->
<g id="node1" class="node">
<title>Node1</title>
<g id="a_node1"><a xlink:title="Provide poll call where missing.">
<polygon fill="#bfbfbf" stroke="#000000" points="185.5,-168.5 185.5,-198.5 294.5,-198.5 294.5,-168.5 185.5,-168.5"/>
<text text-anchor="start" x="193.5" y="-186.5" font-family="Helvetica,sans-Serif" font-size="10.00" fill="#000000">include/replacements</text>
<text text-anchor="middle" x="240" y="-175.5" font-family="Helvetica,sans-Serif" font-size="10.00" fill="#000000">/poll.h</text>
</a>
</g>
</g>
<!-- Node2 -->
<g id="node2" class="node">
<title>Node2</title>
<g id="a_node2"><a xlink:href="a00491_source.html" target="_top" xlink:title=" ">
<polygon fill="#ffffff" stroke="#000000" points="181.5,-112.5 181.5,-131.5 298.5,-131.5 298.5,-112.5 181.5,-112.5"/>
<text text-anchor="middle" x="240" y="-119.5" font-family="Helvetica,sans-Serif" font-size="10.00" fill="#000000">include/replacements.h</text>
</a>
</g>
</g>
<!-- Node1&#45;&gt;Node2 -->
<g id="edge1" class="edge">
<title>Node1&#45;&gt;Node2</title>
<path fill="none" stroke="#191970" d="M240,-158.2849C240,-148.9858 240,-138.9883 240,-131.8469"/>
<polygon fill="#191970" stroke="#191970" points="236.5001,-158.2977 240,-168.2977 243.5001,-158.2978 236.5001,-158.2977"/>
</g>
<!-- Node3 -->
<g id="node3" class="node">
<title>Node3</title>
<g id="a_node3"><a xlink:href="a01393.html" target="_top" xlink:title=" ">
<polygon fill="#ffffff" stroke="#000000" points="0,-.5 0,-19.5 80,-19.5 80,-.5 0,-.5"/>
<text text-anchor="middle" x="40" y="-7.5" font-family="Helvetica,sans-Serif" font-size="10.00" fill="#000000">src/dblib/bcp.c</text>
</a>
</g>
</g>
<!-- Node2&#45;&gt;Node3 -->
<g id="edge2" class="edge">
<title>Node2&#45;&gt;Node3</title>
<path fill="none" stroke="#191970" d="M213.9716,-107.4241C172.3707,-84.1276 92.0265,-39.1349 57.0087,-19.5249"/>
<polygon fill="#191970" stroke="#191970" points="212.5129,-110.6186 222.9481,-112.4509 215.9332,-104.5111 212.5129,-110.6186"/>
</g>
<!-- Node4 -->
<g id="node4" class="node">
<title>Node4</title>
<g id="a_node4"><a xlink:href="a00080.html" target="_top" xlink:title=" ">
<polygon fill="#ffffff" stroke="#000000" points="98.5,-.5 98.5,-19.5 183.5,-19.5 183.5,-.5 98.5,-.5"/>
<text text-anchor="middle" x="141" y="-7.5" font-family="Helvetica,sans-Serif" font-size="10.00" fill="#000000">src/dblib/dblib.c</text>
</a>
</g>
</g>
<!-- Node2&#45;&gt;Node4 -->
<g id="edge3" class="edge">
<title>Node2&#45;&gt;Node4</title>
<path fill="none" stroke="#191970" d="M224.8332,-104.8416C203.7055,-80.9396 166.1328,-38.433 149.4193,-19.5249"/>
<polygon fill="#191970" stroke="#191970" points="222.314,-107.2764 231.5593,-112.4509 227.5588,-102.6404 222.314,-107.2764"/>
</g>
<!-- Node5 -->
<g id="node5" class="node">
<title>Node5</title>
<g id="a_node5"><a xlink:href="a00236.html" target="_top" xlink:title="Handle bulk copy.">
<polygon fill="#ffffff" stroke="#000000" points="202,-.5 202,-19.5 278,-19.5 278,-.5 202,-.5"/>
<text text-anchor="middle" x="240" y="-7.5" font-family="Helvetica,sans-Serif" font-size="10.00" fill="#000000">src/tds/bulk.c</text>
</a>
</g>
</g>
<!-- Node2&#45;&gt;Node5 -->
<g id="edge4" class="edge">
<title>Node2&#45;&gt;Node5</title>
<path fill="none" stroke="#191970" d="M240,-102.2702C240,-77.9985 240,-37.7725 240,-19.5249"/>
<polygon fill="#191970" stroke="#191970" points="236.5001,-102.4509 240,-112.4509 243.5001,-102.451 236.5001,-102.4509"/>
</g>
<!-- Node6 -->
<g id="node6" class="node">
<title>Node6</title>
<g id="a_node6"><a xlink:href="a00305.html" target="_top" xlink:title="Contains all routines to get replies from server.">
<polygon fill="#ffffff" stroke="#000000" points="296,-.5 296,-19.5 378,-19.5 378,-.5 296,-.5"/>
<text text-anchor="middle" x="337" y="-7.5" font-family="Helvetica,sans-Serif" font-size="10.00" fill="#000000">src/tds/token.c</text>
</a>
</g>
</g>
<!-- Node2&#45;&gt;Node6 -->
<g id="edge5" class="edge">
<title>Node2&#45;&gt;Node6</title>
<path fill="none" stroke="#191970" d="M254.8604,-104.8416C275.5613,-80.9396 312.375,-38.433 328.7508,-19.5249"/>
<polygon fill="#191970" stroke="#191970" points="252.1712,-102.6004 248.2702,-112.4509 257.4626,-107.1832 252.1712,-102.6004"/>
</g>
<!-- Node7 -->
<g id="node7" class="node">
<title>Node7</title>
<g id="a_node7"><a xlink:href="a00437.html" target="_top" xlink:title=" ">
<polygon fill="#ffffff" stroke="#000000" points="483.5,-56.5 483.5,-75.5 588.5,-75.5 588.5,-56.5 483.5,-56.5"/>
<text text-anchor="middle" x="536" y="-63.5" font-family="Helvetica,sans-Serif" font-size="10.00" fill="#000000">include/freetds/tds.h</text>
</a>
</g>
</g>
<!-- Node2&#45;&gt;Node7 -->
<g id="edge6" class="edge">
<title>Node2&#45;&gt;Node7</title>
<path fill="none" stroke="#191970" d="M300.4401,-110.5654C355.0314,-100.2373 434.4403,-85.214 485.6606,-75.5237"/>
<polygon fill="#191970" stroke="#191970" points="299.7229,-107.1389 290.5479,-112.4369 301.0242,-114.0169 299.7229,-107.1389"/>
</g>
<!-- Node7&#45;&gt;Node3 -->
<g id="edge7" class="edge">
<title>Node7&#45;&gt;Node3</title>
<path fill="none" stroke="#191970" d="M473.2882,-61.5114C386.5855,-54.8589 225.3495,-40.8768 89,-20 86.082,-19.5532 83.0748,-19.0487 80.0536,-18.5097"/>
<polygon fill="#191970" stroke="#191970" points="473.2491,-65.0184 483.4856,-62.2863 473.7796,-58.0385 473.2491,-65.0184"/>
</g>
<!-- Node7&#45;&gt;Node4 -->
<g id="edge8" class="edge">
<title>Node7&#45;&gt;Node4</title>
<path fill="none" stroke="#191970" d="M473.02,-58.6397C404.101,-50.3324 290.4362,-35.8894 193,-20 189.9151,-19.4969 186.7323,-18.9511 183.5322,-18.3827"/>
<polygon fill="#191970" stroke="#191970" points="472.9261,-62.1534 483.2719,-59.8699 473.7601,-55.2033 472.9261,-62.1534"/>
</g>
<!-- Node7&#45;&gt;Node5 -->
<g id="edge11" class="edge">
<title>Node7&#45;&gt;Node5</title>
<path fill="none" stroke="#191970" d="M473.3665,-54.9116C422.9587,-45.8714 350.3315,-32.5849 287,-20 284.1362,-19.4309 281.1769,-18.8305 278.2018,-18.218"/>
<polygon fill="#191970" stroke="#191970" points="472.9978,-58.4012 483.4581,-56.7179 474.2312,-51.5107 472.9978,-58.4012"/>
</g>
<!-- Node7&#45;&gt;Node6 -->
<g id="edge16" class="edge">
<title>Node7&#45;&gt;Node6</title>
<path fill="none" stroke="#191970" d="M491.8938,-53.5882C455.3323,-43.2996 404.1252,-28.8895 370.7629,-19.5011"/>
<polygon fill="#191970" stroke="#191970" points="491.2164,-57.0335 501.7907,-56.3733 493.1127,-50.2952 491.2164,-57.0335"/>
</g>
<!-- Node8 -->
<g id="node8" class="node">
<title>Node8</title>
<g id="a_node8"><a xlink:href="a00164_source.html" target="_top" xlink:title=" ">
<polygon fill="#ffffff" stroke="#000000" points="825,-.5 825,-19.5 905,-19.5 905,-.5 825,-.5"/>
<text text-anchor="middle" x="865" y="-7.5" font-family="Helvetica,sans-Serif" font-size="10.00" fill="#000000">src/pool/pool.h</text>
</a>
</g>
</g>
<!-- Node7&#45;&gt;Node8 -->
<g id="edge9" class="edge">
<title>Node7&#45;&gt;Node8</title>
<path fill="none" stroke="#191970" d="M598.654,-56.4135C655.4791,-47.551 741.502,-33.7161 816,-20 818.9032,-19.4655 821.8995,-18.8966 824.9131,-18.3118"/>
<polygon fill="#191970" stroke="#191970" points="598.0863,-52.9597 588.7431,-57.955 599.1622,-59.8765 598.0863,-52.9597"/>
</g>
<!-- Node9 -->
<g id="node9" class="node">
<title>Node9</title>
<g id="a_node9"><a xlink:href="a01417.html" target="_top" xlink:title=" ">
<polygon fill="#ffffff" stroke="#000000" points="923.5,-.5 923.5,-19.5 1048.5,-19.5 1048.5,-.5 923.5,-.5"/>
<text text-anchor="middle" x="986" y="-7.5" font-family="Helvetica,sans-Serif" font-size="10.00" fill="#000000">src/replacements/iconv.c</text>
</a>
</g>
</g>
<!-- Node7&#45;&gt;Node9 -->
<g id="edge10" class="edge">
<title>Node7&#45;&gt;Node9</title>
<path fill="none" stroke="#191970" d="M598.846,-58.6815C673.8892,-49.8664 803.1798,-34.4378 914,-20 917.0034,-19.6087 920.0765,-19.2029 923.1798,-18.7887"/>
<polygon fill="#191970" stroke="#191970" points="598.1487,-55.2392 588.6247,-59.8806 598.9644,-62.1915 598.1487,-55.2392"/>
</g>
<!-- Node10 -->
<g id="node10" class="node">
<title>Node10</title>
<g id="a_node10"><a xlink:href="a00245.html" target="_top" xlink:title="Handle different data handling from network.">
<polygon fill="#ffffff" stroke="#000000" points="1066.5,-.5 1066.5,-19.5 1143.5,-19.5 1143.5,-.5 1066.5,-.5"/>
<text text-anchor="middle" x="1105" y="-7.5" font-family="Helvetica,sans-Serif" font-size="10.00" fill="#000000">src/tds/data.c</text>
</a>
</g>
</g>
<!-- Node7&#45;&gt;Node10 -->
<g id="edge12" class="edge">
<title>Node7&#45;&gt;Node10</title>
<path fill="none" stroke="#191970" d="M598.9289,-62.9335C697.3075,-57.5827 893.3318,-44.6796 1058,-20 1060.7226,-19.592 1063.5242,-19.1229 1066.3393,-18.6155"/>
<polygon fill="#191970" stroke="#191970" points="598.6551,-59.4431 588.8569,-63.4735 599.0299,-66.4331 598.6551,-59.4431"/>
</g>
<!-- Node11 -->
<g id="node11" class="node">
<title>Node11</title>
<g id="a_node11"><a xlink:href="a01420.html" target="_top" xlink:title="Handle character conversions to/from server.">
<polygon fill="#ffffff" stroke="#000000" points="1162,-.5 1162,-19.5 1242,-19.5 1242,-.5 1162,-.5"/>
<text text-anchor="middle" x="1202" y="-7.5" font-family="Helvetica,sans-Serif" font-size="10.00" fill="#000000">src/tds/iconv.c</text>
</a>
</g>
</g>
<!-- Node7&#45;&gt;Node11 -->
<g id="edge13" class="edge">
<title>Node7&#45;&gt;Node11</title>
<path fill="none" stroke="#191970" d="M598.7418,-63.9528C710.5781,-59.7191 951.5505,-47.9505 1153,-20 1155.924,-19.5943 1158.9356,-19.12 1161.96,-18.6024"/>
<polygon fill="#191970" stroke="#191970" points="598.5136,-60.4588 588.6504,-64.3276 598.7734,-67.454 598.5136,-60.4588"/>
</g>
<!-- Node12 -->
<g id="node12" class="node">
<title>Node12</title>
<g id="a_node12"><a xlink:href="a00278.html" target="_top" xlink:title="Grab data from TDS packets.">
<polygon fill="#ffffff" stroke="#000000" points="396.5,-.5 396.5,-19.5 473.5,-19.5 473.5,-.5 396.5,-.5"/>
<text text-anchor="middle" x="435" y="-7.5" font-family="Helvetica,sans-Serif" font-size="10.00" fill="#000000">src/tds/read.c</text>
</a>
</g>
</g>
<!-- Node7&#45;&gt;Node12 -->
<g id="edge14" class="edge">
<title>Node7&#45;&gt;Node12</title>
<path fill="none" stroke="#191970" d="M509.5281,-51.3225C491.4875,-41.3198 468.1123,-28.3593 452.3913,-19.6427"/>
<polygon fill="#191970" stroke="#191970" points="507.9643,-54.4574 518.4071,-56.2455 511.3587,-48.3354 507.9643,-54.4574"/>
</g>
<!-- Node13 -->
<g id="node13" class="node">
<title>Node13</title>
<g id="a_node13"><a xlink:href="a01408.html" target="_top" xlink:title="Handle stream of data.">
<polygon fill="#ffffff" stroke="#000000" points="492,-.5 492,-19.5 580,-19.5 580,-.5 492,-.5"/>
<text text-anchor="middle" x="536" y="-7.5" font-family="Helvetica,sans-Serif" font-size="10.00" fill="#000000">src/tds/stream.c</text>
</a>
</g>
</g>
<!-- Node7&#45;&gt;Node13 -->
<g id="edge15" class="edge">
<title>Node7&#45;&gt;Node13</title>
<path fill="none" stroke="#191970" d="M536,-46.1575C536,-37.155 536,-26.9199 536,-19.6427"/>
<polygon fill="#191970" stroke="#191970" points="532.5001,-46.2455 536,-56.2455 539.5001,-46.2456 532.5001,-46.2455"/>
</g>
<!-- Node14 -->
<g id="node14" class="node">
<title>Node14</title>
<g id="a_node14"><a xlink:href="a00365_source.html" target="_top" xlink:title=" ">
<polygon fill="#ffffff" stroke="#000000" points="598.5,-.5 598.5,-19.5 675.5,-19.5 675.5,-.5 598.5,-.5"/>
<text text-anchor="middle" x="637" y="-7.5" font-family="Helvetica,sans-Serif" font-size="10.00" fill="#000000">include/ctlib.h</text>
</a>
</g>
</g>
<!-- Node7&#45;&gt;Node14 -->
<g id="edge17" class="edge">
<title>Node7&#45;&gt;Node14</title>
<path fill="none" stroke="#191970" d="M562.4719,-51.3225C580.5125,-41.3198 603.8877,-28.3593 619.6087,-19.6427"/>
<polygon fill="#191970" stroke="#191970" points="560.6413,-48.3354 553.5929,-56.2455 564.0357,-54.4574 560.6413,-48.3354"/>
</g>
<!-- Node15 -->
<g id="node15" class="node">
<title>Node15</title>
<g id="a_node15"><a xlink:href="a00416_source.html" target="_top" xlink:title=" ">
<polygon fill="#ffffff" stroke="#000000" points="693.5,-.5 693.5,-19.5 806.5,-19.5 806.5,-.5 693.5,-.5"/>
<text text-anchor="middle" x="750" y="-7.5" font-family="Helvetica,sans-Serif" font-size="10.00" fill="#000000">include/freetds/odbc.h</text>
</a>
</g>
</g>
<!-- Node7&#45;&gt;Node15 -->
<g id="edge18" class="edge">
<title>Node7&#45;&gt;Node15</title>
<path fill="none" stroke="#191970" d="M582.6766,-53.7856C622.0414,-43.4845 677.5851,-28.9497 713.6921,-19.5011"/>
<polygon fill="#191970" stroke="#191970" points="581.5761,-50.4556 572.7879,-56.3733 583.3482,-57.2276 581.5761,-50.4556"/>
</g>
</g>
</svg>
