<?xml version="1.0" encoding="UTF-8" standalone="no"?>
<!DOCTYPE svg PUBLIC "-//W3C//DTD SVG 1.1//EN"
 "http://www.w3.org/Graphics/SVG/1.1/DTD/svg11.dtd">
<!-- Generated by graphviz version 2.40.1 (20161225.0304)
 -->
<!-- Title: include/replacements/poll.h Pages: 1 -->
<svg width="274pt" height="95pt"
 viewBox="0.00 0.00 273.50 95.00" xmlns="http://www.w3.org/2000/svg" xmlns:xlink="http://www.w3.org/1999/xlink">
<g id="graph0" class="graph" transform="scale(1 1) rotate(0) translate(4 91)">
<title>include/replacements/poll.h</title>
<polygon fill="#ffffff" stroke="transparent" points="-4,4 -4,-91 269.5,-91 269.5,4 -4,4"/>
<!-- Node1 -->
<g id="node1" class="node">
<title>Node1</title>
<g id="a_node1"><a xlink:title="Provide poll call where missing.">
<polygon fill="#bfbfbf" stroke="#000000" points="61,-56.5 61,-86.5 170,-86.5 170,-56.5 61,-56.5"/>
<text text-anchor="start" x="69" y="-74.5" font-family="Helvetica,sans-Serif" font-size="10.00" fill="#000000">include/replacements</text>
<text text-anchor="middle" x="115.5" y="-63.5" font-family="Helvetica,sans-Serif" font-size="10.00" fill="#000000">/poll.h</text>
</a>
</g>
</g>
<!-- Node2 -->
<g id="node2" class="node">
<title>Node2</title>
<g id="a_node2"><a xlink:href="a00356_source.html" target="_top" xlink:title=" ">
<polygon fill="#ffffff" stroke="#000000" points="0,-.5 0,-19.5 51,-19.5 51,-.5 0,-.5"/>
<text text-anchor="middle" x="25.5" y="-7.5" font-family="Helvetica,sans-Serif" font-size="10.00" fill="#000000">config.h</text>
</a>
</g>
</g>
<!-- Node1&#45;&gt;Node2 -->
<g id="edge1" class="edge">
<title>Node1&#45;&gt;Node2</title>
<path fill="none" stroke="#191970" d="M93.2528,-56.2977C79.5033,-46.9022 61.9079,-34.8787 48.0943,-25.4395"/>
<polygon fill="#191970" stroke="#191970" points="49.8725,-22.4155 39.6414,-19.6633 45.9232,-28.195 49.8725,-22.4155"/>
</g>
<!-- Node3 -->
<g id="node3" class="node">
<title>Node3</title>
<g id="a_node3"><a xlink:href="a00425_source.html" target="_top" xlink:title=" ">
<polygon fill="#ffffff" stroke="#000000" points="69.5,-.5 69.5,-19.5 161.5,-19.5 161.5,-.5 69.5,-.5"/>
<text text-anchor="middle" x="115.5" y="-7.5" font-family="Helvetica,sans-Serif" font-size="10.00" fill="#000000">freetds/pushvis.h</text>
</a>
</g>
</g>
<!-- Node1&#45;&gt;Node3 -->
<g id="edge2" class="edge">
<title>Node1&#45;&gt;Node3</title>
<path fill="none" stroke="#191970" d="M115.5,-56.2977C115.5,-48.3834 115.5,-38.6043 115.5,-30.0759"/>
<polygon fill="#191970" stroke="#191970" points="119.0001,-29.8469 115.5,-19.8469 112.0001,-29.847 119.0001,-29.8469"/>
</g>
<!-- Node4 -->
<g id="node4" class="node">
<title>Node4</title>
<g id="a_node4"><a xlink:href="a00419_source.html" target="_top" xlink:title=" ">
<polygon fill="#ffffff" stroke="#000000" points="179.5,-.5 179.5,-19.5 265.5,-19.5 265.5,-.5 179.5,-.5"/>
<text text-anchor="middle" x="222.5" y="-7.5" font-family="Helvetica,sans-Serif" font-size="10.00" fill="#000000">freetds/popvis.h</text>
</a>
</g>
</g>
<!-- Node1&#45;&gt;Node4 -->
<g id="edge3" class="edge">
<title>Node1&#45;&gt;Node4</title>
<path fill="none" stroke="#191970" d="M141.6751,-56.4554C158.5887,-46.734 180.4829,-34.15 197.2172,-24.5317"/>
<polygon fill="#191970" stroke="#191970" points="198.993,-27.548 205.9188,-19.5303 195.5047,-21.4791 198.993,-27.548"/>
</g>
</g>
</svg>
