<?xml version="1.0" encoding="UTF-8" standalone="no"?>
<!DOCTYPE svg PUBLIC "-//W3C//DTD SVG 1.1//EN"
 "http://www.w3.org/Graphics/SVG/1.1/DTD/svg11.dtd">
<!-- Generated by graphviz version 2.40.1 (20161225.0304)
 -->
<!-- Title: tds_process_dyn_result Pages: 1 -->
<svg width="477pt" height="28pt"
 viewBox="0.00 0.00 477.00 28.00" xmlns="http://www.w3.org/2000/svg" xmlns:xlink="http://www.w3.org/1999/xlink">
<g id="graph0" class="graph" transform="scale(1 1) rotate(0) translate(4 24)">
<title>tds_process_dyn_result</title>
<polygon fill="#ffffff" stroke="transparent" points="-4,4 -4,-24 473,-24 473,4 -4,4"/>
<!-- Node1 -->
<g id="node1" class="node">
<title>Node1</title>
<g id="a_node1"><a xlink:title="Process results from dynamic.">
<polygon fill="#bfbfbf" stroke="#000000" points="0,-.5 0,-19.5 120,-19.5 120,-.5 0,-.5"/>
<text text-anchor="middle" x="60" y="-7.5" font-family="Helvetica,sans-Serif" font-size="10.00" fill="#000000">tds_process_dyn_result</text>
</a>
</g>
</g>
<!-- Node2 -->
<g id="node2" class="node">
<title>Node2</title>
<g id="a_node2"><a xlink:href="a00561.html#gad38aa5b9547817854ccba1fcc7855861" target="_top" xlink:title="Get an int16 from the server.">
<polygon fill="#ffffff" stroke="#000000" points="156,-.5 156,-19.5 249,-19.5 249,-.5 156,-.5"/>
<text text-anchor="middle" x="202.5" y="-7.5" font-family="Helvetica,sans-Serif" font-size="10.00" fill="#000000">tds_get_usmallint</text>
</a>
</g>
</g>
<!-- Node1&#45;&gt;Node2 -->
<g id="edge1" class="edge">
<title>Node1&#45;&gt;Node2</title>
<path fill="none" stroke="#191970" d="M120.0198,-10C128.5638,-10 137.3289,-10 145.8067,-10"/>
<polygon fill="#191970" stroke="#191970" points="145.9712,-13.5001 155.9711,-10 145.9711,-6.5001 145.9712,-13.5001"/>
</g>
<!-- Node3 -->
<g id="node3" class="node">
<title>Node3</title>
<g id="a_node3"><a xlink:href="a00561.html#gae777dd57e8d1bb40349d7d7d8434fddf" target="_top" xlink:title="Get N bytes from the buffer and return them in the already allocated space &#160;&#160;given to us.">
<polygon fill="#ffffff" stroke="#000000" points="285,-.5 285,-19.5 344,-19.5 344,-.5 285,-.5"/>
<text text-anchor="middle" x="314.5" y="-7.5" font-family="Helvetica,sans-Serif" font-size="10.00" fill="#000000">tds_get_n</text>
</a>
</g>
</g>
<!-- Node2&#45;&gt;Node3 -->
<g id="edge2" class="edge">
<title>Node2&#45;&gt;Node3</title>
<path fill="none" stroke="#191970" d="M249.0251,-10C257.5613,-10 266.4001,-10 274.7167,-10"/>
<polygon fill="#191970" stroke="#191970" points="274.9097,-13.5001 284.9096,-10 274.9096,-6.5001 274.9097,-13.5001"/>
</g>
<!-- Node4 -->
<g id="node4" class="node">
<title>Node4</title>
<g id="a_node4"><a xlink:href="a00561.html#ga410619783bdf2bb60b0f27a5578e0e07" target="_top" xlink:title="Read in one &#39;packet&#39; from the server.">
<polygon fill="#ffffff" stroke="#000000" points="380,-.5 380,-19.5 469,-19.5 469,-.5 380,-.5"/>
<text text-anchor="middle" x="424.5" y="-7.5" font-family="Helvetica,sans-Serif" font-size="10.00" fill="#000000">tds_read_packet</text>
</a>
</g>
</g>
<!-- Node3&#45;&gt;Node4 -->
<g id="edge3" class="edge">
<title>Node3&#45;&gt;Node4</title>
<path fill="none" stroke="#191970" d="M344.2676,-10C352.1335,-10 360.8784,-10 369.6194,-10"/>
<polygon fill="#191970" stroke="#191970" points="369.8257,-13.5001 379.8257,-10 369.8257,-6.5001 369.8257,-13.5001"/>
</g>
</g>
</svg>
