<?xml version="1.0" encoding="UTF-8" standalone="no"?>
<!DOCTYPE svg PUBLIC "-//W3C//DTD SVG 1.1//EN"
 "http://www.w3.org/Graphics/SVG/1.1/DTD/svg11.dtd">
<!-- Generated by graphviz version 2.40.1 (20161225.0304)
 -->
<!-- Title: tds_process_cursor_tokens Pages: 1 -->
<svg width="459pt" height="39pt"
 viewBox="0.00 0.00 459.00 39.00" xmlns="http://www.w3.org/2000/svg" xmlns:xlink="http://www.w3.org/1999/xlink">
<g id="graph0" class="graph" transform="scale(1 1) rotate(0) translate(4 35)">
<title>tds_process_cursor_tokens</title>
<polygon fill="#ffffff" stroke="transparent" points="-4,4 -4,-35 455,-35 455,4 -4,4"/>
<!-- Node1 -->
<g id="node1" class="node">
<title>Node1</title>
<g id="a_node1"><a xlink:title="Reads cursor command results.">
<polygon fill="#bfbfbf" stroke="#000000" points="0,-.5 0,-30.5 102,-30.5 102,-.5 0,-.5"/>
<text text-anchor="start" x="8" y="-18.5" font-family="Helvetica,sans-Serif" font-size="10.00" fill="#000000">tds_process_cursor</text>
<text text-anchor="middle" x="51" y="-7.5" font-family="Helvetica,sans-Serif" font-size="10.00" fill="#000000">_tokens</text>
</a>
</g>
</g>
<!-- Node2 -->
<g id="node2" class="node">
<title>Node2</title>
<g id="a_node2"><a xlink:href="a00561.html#gad38aa5b9547817854ccba1fcc7855861" target="_top" xlink:title="Get an int16 from the server.">
<polygon fill="#ffffff" stroke="#000000" points="138,-6 138,-25 231,-25 231,-6 138,-6"/>
<text text-anchor="middle" x="184.5" y="-13" font-family="Helvetica,sans-Serif" font-size="10.00" fill="#000000">tds_get_usmallint</text>
</a>
</g>
</g>
<!-- Node1&#45;&gt;Node2 -->
<g id="edge1" class="edge">
<title>Node1&#45;&gt;Node2</title>
<path fill="none" stroke="#191970" d="M102.2328,-15.5C110.5969,-15.5 119.3051,-15.5 127.7917,-15.5"/>
<polygon fill="#191970" stroke="#191970" points="127.9956,-19.0001 137.9956,-15.5 127.9956,-12.0001 127.9956,-19.0001"/>
</g>
<!-- Node3 -->
<g id="node3" class="node">
<title>Node3</title>
<g id="a_node3"><a xlink:href="a00561.html#gae777dd57e8d1bb40349d7d7d8434fddf" target="_top" xlink:title="Get N bytes from the buffer and return them in the already allocated space &#160;&#160;given to us.">
<polygon fill="#ffffff" stroke="#000000" points="267,-6 267,-25 326,-25 326,-6 267,-6"/>
<text text-anchor="middle" x="296.5" y="-13" font-family="Helvetica,sans-Serif" font-size="10.00" fill="#000000">tds_get_n</text>
</a>
</g>
</g>
<!-- Node2&#45;&gt;Node3 -->
<g id="edge2" class="edge">
<title>Node2&#45;&gt;Node3</title>
<path fill="none" stroke="#191970" d="M231.0251,-15.5C239.5613,-15.5 248.4001,-15.5 256.7167,-15.5"/>
<polygon fill="#191970" stroke="#191970" points="256.9097,-19.0001 266.9096,-15.5 256.9096,-12.0001 256.9097,-19.0001"/>
</g>
<!-- Node4 -->
<g id="node4" class="node">
<title>Node4</title>
<g id="a_node4"><a xlink:href="a00561.html#ga410619783bdf2bb60b0f27a5578e0e07" target="_top" xlink:title="Read in one &#39;packet&#39; from the server.">
<polygon fill="#ffffff" stroke="#000000" points="362,-6 362,-25 451,-25 451,-6 362,-6"/>
<text text-anchor="middle" x="406.5" y="-13" font-family="Helvetica,sans-Serif" font-size="10.00" fill="#000000">tds_read_packet</text>
</a>
</g>
</g>
<!-- Node3&#45;&gt;Node4 -->
<g id="edge3" class="edge">
<title>Node3&#45;&gt;Node4</title>
<path fill="none" stroke="#191970" d="M326.2676,-15.5C334.1335,-15.5 342.8784,-15.5 351.6194,-15.5"/>
<polygon fill="#191970" stroke="#191970" points="351.8257,-19.0001 361.8257,-15.5 351.8257,-12.0001 351.8257,-19.0001"/>
</g>
</g>
</svg>
