<?xml version="1.0" encoding="UTF-8" standalone="no"?>
<!DOCTYPE svg PUBLIC "-//W3C//DTD SVG 1.1//EN"
 "http://www.w3.org/Graphics/SVG/1.1/DTD/svg11.dtd">
<!-- Generated by graphviz version 2.40.1 (20161225.0304)
 -->
<!-- Title: tds_query_flush_packet Pages: 1 -->
<svg width="363pt" height="66pt"
 viewBox="0.00 0.00 363.00 66.00" xmlns="http://www.w3.org/2000/svg" xmlns:xlink="http://www.w3.org/1999/xlink">
<g id="graph0" class="graph" transform="scale(1 1) rotate(0) translate(4 62)">
<title>tds_query_flush_packet</title>
<polygon fill="#ffffff" stroke="transparent" points="-4,4 -4,-62 359,-62 359,4 -4,4"/>
<!-- Node1 -->
<g id="node1" class="node">
<title>Node1</title>
<g id="a_node1"><a xlink:title="Flush query packet.">
<polygon fill="#bfbfbf" stroke="#000000" points="0,-19.5 0,-38.5 120,-38.5 120,-19.5 0,-19.5"/>
<text text-anchor="middle" x="60" y="-26.5" font-family="Helvetica,sans-Serif" font-size="10.00" fill="#000000">tds_query_flush_packet</text>
</a>
</g>
</g>
<!-- Node2 -->
<g id="node2" class="node">
<title>Node2</title>
<g id="a_node2"><a xlink:href="a00561.html#ga5feb53554e8917a81bbbc332163a61fb" target="_top" xlink:title="Flush packet to server.">
<polygon fill="#ffffff" stroke="#000000" points="156,-38.5 156,-57.5 247,-57.5 247,-38.5 156,-38.5"/>
<text text-anchor="middle" x="201.5" y="-45.5" font-family="Helvetica,sans-Serif" font-size="10.00" fill="#000000">tds_flush_packet</text>
</a>
</g>
</g>
<!-- Node1&#45;&gt;Node2 -->
<g id="edge1" class="edge">
<title>Node1&#45;&gt;Node2</title>
<path fill="none" stroke="#191970" d="M120.0087,-37.0577C128.5768,-38.2082 137.3601,-39.3876 145.84,-40.5262"/>
<polygon fill="#191970" stroke="#191970" points="145.6215,-44.0282 155.9984,-41.8902 146.5532,-37.0905 145.6215,-44.0282"/>
</g>
<!-- Node3 -->
<g id="node3" class="node">
<title>Node3</title>
<g id="a_node3"><a xlink:href="a00437.html#a16db200d2281f76fe46fc1cbe37ca9df" target="_top" xlink:title="Set state of TDS connection, with logging and checking.">
<polygon fill="#ffffff" stroke="#000000" points="163.5,-.5 163.5,-19.5 239.5,-19.5 239.5,-.5 163.5,-.5"/>
<text text-anchor="middle" x="201.5" y="-7.5" font-family="Helvetica,sans-Serif" font-size="10.00" fill="#000000">tds_set_state</text>
</a>
</g>
</g>
<!-- Node1&#45;&gt;Node3 -->
<g id="edge2" class="edge">
<title>Node1&#45;&gt;Node3</title>
<path fill="none" stroke="#191970" d="M120.0087,-20.9423C131.0825,-19.4553 142.5158,-17.9201 153.189,-16.487"/>
<polygon fill="#191970" stroke="#191970" points="153.7074,-19.9489 163.1527,-15.1491 152.7758,-13.0111 153.7074,-19.9489"/>
</g>
<!-- Node4 -->
<g id="node4" class="node">
<title>Node4</title>
<g id="a_node4"><a xlink:href="a00437.html#ab45c291105027e69836002e1dd586141" target="_top" xlink:title="Write a message to the debug log.">
<polygon fill="#ffffff" stroke="#000000" points="283,-.5 283,-19.5 355,-19.5 355,-.5 283,-.5"/>
<text text-anchor="middle" x="319" y="-7.5" font-family="Helvetica,sans-Serif" font-size="10.00" fill="#000000">tdsdump_log</text>
</a>
</g>
</g>
<!-- Node3&#45;&gt;Node4 -->
<g id="edge3" class="edge">
<title>Node3&#45;&gt;Node4</title>
<path fill="none" stroke="#191970" d="M239.6489,-10C250.1098,-10 261.5685,-10 272.444,-10"/>
<polygon fill="#191970" stroke="#191970" points="272.6408,-13.5001 282.6407,-10 272.6407,-6.5001 272.6408,-13.5001"/>
</g>
</g>
</svg>
