<?xml version="1.0" encoding="UTF-8" standalone="no"?>
<!DOCTYPE svg PUBLIC "-//W3C//DTD SVG 1.1//EN"
 "http://www.w3.org/Graphics/SVG/1.1/DTD/svg11.dtd">
<!-- Generated by graphviz version 2.40.1 (20161225.0304)
 -->
<!-- Title: tds_process_colinfo Pages: 1 -->
<svg width="485pt" height="104pt"
 viewBox="0.00 0.00 485.00 104.00" xmlns="http://www.w3.org/2000/svg" xmlns:xlink="http://www.w3.org/1999/xlink">
<g id="graph0" class="graph" transform="scale(1 1) rotate(0) translate(4 100)">
<title>tds_process_colinfo</title>
<polygon fill="#ffffff" stroke="transparent" points="-4,4 -4,-100 481,-100 481,4 -4,4"/>
<!-- Node1 -->
<g id="node1" class="node">
<title>Node1</title>
<g id="a_node1"><a xlink:title="Reads column information.">
<polygon fill="#bfbfbf" stroke="#000000" points="0,-38.5 0,-57.5 104,-57.5 104,-38.5 0,-38.5"/>
<text text-anchor="middle" x="52" y="-45.5" font-family="Helvetica,sans-Serif" font-size="10.00" fill="#000000">tds_process_colinfo</text>
</a>
</g>
</g>
<!-- Node2 -->
<g id="node2" class="node">
<title>Node2</title>
<g id="a_node2"><a xlink:href="a00563.html#gad96366d9fa93bfc283cef1299fbe97ab" target="_top" xlink:title="copy a string from another">
<polygon fill="#ffffff" stroke="#000000" points="147.5,-76.5 147.5,-95.5 225.5,-95.5 225.5,-76.5 147.5,-76.5"/>
<text text-anchor="middle" x="186.5" y="-83.5" font-family="Helvetica,sans-Serif" font-size="10.00" fill="#000000">tds_dstr_copy</text>
</a>
</g>
</g>
<!-- Node1&#45;&gt;Node2 -->
<g id="edge1" class="edge">
<title>Node1&#45;&gt;Node2</title>
<path fill="none" stroke="#191970" d="M85.94,-57.589C103.2231,-62.4719 124.4329,-68.4643 142.9112,-73.685"/>
<polygon fill="#191970" stroke="#191970" points="141.9959,-77.0633 152.5708,-76.4141 143.8992,-70.327 141.9959,-77.0633"/>
</g>
<!-- Node4 -->
<g id="node4" class="node">
<title>Node4</title>
<g id="a_node4"><a xlink:href="a00561.html#gae777dd57e8d1bb40349d7d7d8434fddf" target="_top" xlink:title="Get N bytes from the buffer and return them in the already allocated space &#160;&#160;given to us.">
<polygon fill="#ffffff" stroke="#000000" points="281,-19.5 281,-38.5 340,-38.5 340,-19.5 281,-19.5"/>
<text text-anchor="middle" x="310.5" y="-26.5" font-family="Helvetica,sans-Serif" font-size="10.00" fill="#000000">tds_get_n</text>
</a>
</g>
</g>
<!-- Node1&#45;&gt;Node4 -->
<g id="edge3" class="edge">
<title>Node1&#45;&gt;Node4</title>
<path fill="none" stroke="#191970" d="M104.0004,-44.1779C153.1374,-40.5663 225.8025,-35.2253 270.5445,-31.9368"/>
<polygon fill="#191970" stroke="#191970" points="271.0238,-35.4111 280.7403,-31.1874 270.5106,-28.4299 271.0238,-35.4111"/>
</g>
<!-- Node6 -->
<g id="node6" class="node">
<title>Node6</title>
<g id="a_node6"><a xlink:href="a00561.html#gad38aa5b9547817854ccba1fcc7855861" target="_top" xlink:title="Get an int16 from the server.">
<polygon fill="#ffffff" stroke="#000000" points="140,-.5 140,-19.5 233,-19.5 233,-.5 140,-.5"/>
<text text-anchor="middle" x="186.5" y="-7.5" font-family="Helvetica,sans-Serif" font-size="10.00" fill="#000000">tds_get_usmallint</text>
</a>
</g>
</g>
<!-- Node1&#45;&gt;Node6 -->
<g id="edge5" class="edge">
<title>Node1&#45;&gt;Node6</title>
<path fill="none" stroke="#191970" d="M85.94,-38.411C103.2231,-33.5281 124.4329,-27.5357 142.9112,-22.315"/>
<polygon fill="#191970" stroke="#191970" points="143.8992,-25.673 152.5708,-19.5859 141.9959,-18.9367 143.8992,-25.673"/>
</g>
<!-- Node3 -->
<g id="node3" class="node">
<title>Node3</title>
<g id="a_node3"><a xlink:href="a00563.html#ga656718f240d7403f986ae887d84a6ca1" target="_top" xlink:title="Set string to a given buffer of characters.">
<polygon fill="#ffffff" stroke="#000000" points="269,-76.5 269,-95.5 352,-95.5 352,-76.5 269,-76.5"/>
<text text-anchor="middle" x="310.5" y="-83.5" font-family="Helvetica,sans-Serif" font-size="10.00" fill="#000000">tds_dstr_copyn</text>
</a>
</g>
</g>
<!-- Node2&#45;&gt;Node3 -->
<g id="edge2" class="edge">
<title>Node2&#45;&gt;Node3</title>
<path fill="none" stroke="#191970" d="M225.7344,-86C236.2732,-86 247.8311,-86 258.9299,-86"/>
<polygon fill="#191970" stroke="#191970" points="258.9512,-89.5001 268.9511,-86 258.9511,-82.5001 258.9512,-89.5001"/>
</g>
<!-- Node5 -->
<g id="node5" class="node">
<title>Node5</title>
<g id="a_node5"><a xlink:href="a00561.html#ga410619783bdf2bb60b0f27a5578e0e07" target="_top" xlink:title="Read in one &#39;packet&#39; from the server.">
<polygon fill="#ffffff" stroke="#000000" points="388,-19.5 388,-38.5 477,-38.5 477,-19.5 388,-19.5"/>
<text text-anchor="middle" x="432.5" y="-26.5" font-family="Helvetica,sans-Serif" font-size="10.00" fill="#000000">tds_read_packet</text>
</a>
</g>
</g>
<!-- Node4&#45;&gt;Node5 -->
<g id="edge4" class="edge">
<title>Node4&#45;&gt;Node5</title>
<path fill="none" stroke="#191970" d="M340.0328,-29C351.3843,-29 364.7379,-29 377.7126,-29"/>
<polygon fill="#191970" stroke="#191970" points="377.9914,-32.5001 387.9913,-29 377.9913,-25.5001 377.9914,-32.5001"/>
</g>
<!-- Node6&#45;&gt;Node4 -->
<g id="edge6" class="edge">
<title>Node6&#45;&gt;Node4</title>
<path fill="none" stroke="#191970" d="M233.0258,-17.129C245.3571,-19.0184 258.5608,-21.0416 270.5108,-22.8726"/>
<polygon fill="#191970" stroke="#191970" points="270.2214,-26.3691 280.6362,-24.4241 271.2817,-19.4498 270.2214,-26.3691"/>
</g>
</g>
</svg>
