<?xml version="1.0" encoding="UTF-8" standalone="no"?>
<!DOCTYPE svg PUBLIC "-//W3C//DTD SVG 1.1//EN"
 "http://www.w3.org/Graphics/SVG/1.1/DTD/svg11.dtd">
<!-- Generated by graphviz version 2.40.1 (20161225.0304)
 -->
<!-- Title: tds_put_string Pages: 1 -->
<svg width="247pt" height="66pt"
 viewBox="0.00 0.00 247.00 66.00" xmlns="http://www.w3.org/2000/svg" xmlns:xlink="http://www.w3.org/1999/xlink">
<g id="graph0" class="graph" transform="scale(1 1) rotate(0) translate(4 62)">
<title>tds_put_string</title>
<polygon fill="#ffffff" stroke="transparent" points="-4,4 -4,-62 243,-62 243,4 -4,4"/>
<!-- Node1 -->
<g id="node1" class="node">
<title>Node1</title>
<g id="a_node1"><a xlink:title="Output a string to wire automatic translate string to unicode if needed.">
<polygon fill="#bfbfbf" stroke="#000000" points="161,-19.5 161,-38.5 239,-38.5 239,-19.5 161,-19.5"/>
<text text-anchor="middle" x="200" y="-26.5" font-family="Helvetica,sans-Serif" font-size="10.00" fill="#000000">tds_put_string</text>
</a>
</g>
</g>
<!-- Node2 -->
<g id="node2" class="node">
<title>Node2</title>
<g id="a_node2"><a xlink:href="a00560.html#ga2d0a06c1a30dd2470dc7a788de21b080" target="_top" xlink:title="Send RPC as string query.">
<polygon fill="#ffffff" stroke="#000000" points="0,-38.5 0,-57.5 125,-57.5 125,-38.5 0,-38.5"/>
<text text-anchor="middle" x="62.5" y="-45.5" font-family="Helvetica,sans-Serif" font-size="10.00" fill="#000000">tds4_send_emulated_rpc</text>
</a>
</g>
</g>
<!-- Node1&#45;&gt;Node2 -->
<g id="edge1" class="edge">
<title>Node1&#45;&gt;Node2</title>
<path fill="none" stroke="#191970" d="M150.9692,-35.7752C142.5684,-36.936 133.7384,-38.1562 125.042,-39.3578"/>
<polygon fill="#191970" stroke="#191970" points="151.5391,-39.2298 160.9658,-34.3938 150.5808,-32.2957 151.5391,-39.2298"/>
</g>
<!-- Node3 -->
<g id="node3" class="node">
<title>Node3</title>
<g id="a_node3"><a xlink:href="a00560.html#ga26b26296d060dca75f6a43e9ac41e58d" target="_top" xlink:title="Send a string to server while quoting it.">
<polygon fill="#ffffff" stroke="#000000" points="13,-.5 13,-19.5 112,-19.5 112,-.5 13,-.5"/>
<text text-anchor="middle" x="62.5" y="-7.5" font-family="Helvetica,sans-Serif" font-size="10.00" fill="#000000">tds_quote_and_put</text>
</a>
</g>
</g>
<!-- Node1&#45;&gt;Node3 -->
<g id="edge2" class="edge">
<title>Node1&#45;&gt;Node3</title>
<path fill="none" stroke="#191970" d="M150.7118,-22.1893C138.1935,-20.4595 124.737,-18.6 112.1984,-16.8674"/>
<polygon fill="#191970" stroke="#191970" points="150.5808,-25.7043 160.9658,-23.6062 151.539,-18.7702 150.5808,-25.7043"/>
</g>
</g>
</svg>
