<?xml version="1.0" encoding="UTF-8" standalone="no"?>
<!DOCTYPE svg PUBLIC "-//W3C//DTD SVG 1.1//EN"
 "http://www.w3.org/Graphics/SVG/1.1/DTD/svg11.dtd">
<!-- Generated by graphviz version 2.40.1 (20161225.0304)
 -->
<!-- Title: tds_next_placeholder_ucs2le Pages: 1 -->
<svg width="286pt" height="66pt"
 viewBox="0.00 0.00 286.00 66.00" xmlns="http://www.w3.org/2000/svg" xmlns:xlink="http://www.w3.org/1999/xlink">
<g id="graph0" class="graph" transform="scale(1 1) rotate(0) translate(4 62)">
<title>tds_next_placeholder_ucs2le</title>
<polygon fill="#ffffff" stroke="transparent" points="-4,4 -4,-62 282,-62 282,4 -4,4"/>
<!-- Node1 -->
<g id="node1" class="node">
<title>Node1</title>
<g id="a_node1"><a xlink:title="Found the next placeholder (? or @param) in a string.">
<polygon fill="#bfbfbf" stroke="#000000" points="0,-14 0,-44 109,-44 109,-14 0,-14"/>
<text text-anchor="start" x="8" y="-32" font-family="Helvetica,sans-Serif" font-size="10.00" fill="#000000">tds_next_placeholder</text>
<text text-anchor="middle" x="54.5" y="-21" font-family="Helvetica,sans-Serif" font-size="10.00" fill="#000000">_ucs2le</text>
</a>
</g>
</g>
<!-- Node2 -->
<g id="node2" class="node">
<title>Node2</title>
<g id="a_node2"><a xlink:href="a00560.html#gab304fda9f325e852ba5c5252079d22e3" target="_top" xlink:title="Skip a comment in a query.">
<polygon fill="#ffffff" stroke="#000000" points="145,-38.5 145,-57.5 278,-57.5 278,-38.5 145,-38.5"/>
<text text-anchor="middle" x="211.5" y="-45.5" font-family="Helvetica,sans-Serif" font-size="10.00" fill="#000000">tds_skip_comment_ucs2le</text>
</a>
</g>
</g>
<!-- Node1&#45;&gt;Node2 -->
<g id="edge1" class="edge">
<title>Node1&#45;&gt;Node2</title>
<path fill="none" stroke="#191970" d="M109.411,-35.6453C117.6098,-36.6375 126.187,-37.6755 134.7367,-38.7102"/>
<polygon fill="#191970" stroke="#191970" points="134.3884,-42.1935 144.7365,-39.9203 135.2294,-35.2442 134.3884,-42.1935"/>
</g>
<!-- Node3 -->
<g id="node3" class="node">
<title>Node3</title>
<g id="a_node3"><a xlink:href="a00560.html#ga2361ec4629aa0eac38f1702b03ed8185" target="_top" xlink:title="Return pointer to end of a quoted string.">
<polygon fill="#ffffff" stroke="#000000" points="150.5,-.5 150.5,-19.5 272.5,-19.5 272.5,-.5 150.5,-.5"/>
<text text-anchor="middle" x="211.5" y="-7.5" font-family="Helvetica,sans-Serif" font-size="10.00" fill="#000000">tds_skip_quoted_ucs2le</text>
</a>
</g>
</g>
<!-- Node1&#45;&gt;Node3 -->
<g id="edge2" class="edge">
<title>Node1&#45;&gt;Node3</title>
<path fill="none" stroke="#191970" d="M109.411,-22.3547C119.4626,-21.1383 130.083,-19.853 140.5242,-18.5894"/>
<polygon fill="#191970" stroke="#191970" points="140.9485,-22.0637 150.4556,-17.3875 140.1075,-15.1144 140.9485,-22.0637"/>
</g>
</g>
</svg>
