<?xml version="1.0" encoding="UTF-8" standalone="no"?>
<!DOCTYPE svg PUBLIC "-//W3C//DTD SVG 1.1//EN"
 "http://www.w3.org/Graphics/SVG/1.1/DTD/svg11.dtd">
<!-- Generated by graphviz version 2.40.1 (20161225.0304)
 -->
<!-- Title: parse_int8 Pages: 1 -->
<svg width="186pt" height="66pt"
 viewBox="0.00 0.00 186.00 66.00" xmlns="http://www.w3.org/2000/svg" xmlns:xlink="http://www.w3.org/1999/xlink">
<g id="graph0" class="graph" transform="scale(1 1) rotate(0) translate(4 62)">
<title>parse_int8</title>
<polygon fill="#ffffff" stroke="transparent" points="-4,4 -4,-62 182,-62 182,4 -4,4"/>
<!-- Node1 -->
<g id="node1" class="node">
<title>Node1</title>
<g id="a_node1"><a xlink:title="convert a number in string to TDS_INT8">
<polygon fill="#bfbfbf" stroke="#000000" points="116,-19.5 116,-38.5 178,-38.5 178,-19.5 116,-19.5"/>
<text text-anchor="middle" x="147" y="-26.5" font-family="Helvetica,sans-Serif" font-size="10.00" fill="#000000">parse_int8</text>
</a>
</g>
</g>
<!-- Node2 -->
<g id="node2" class="node">
<title>Node2</title>
<g id="a_node2"><a xlink:href="a00557.html#ga933f87cca76156648e91f472650b98f3" target="_top" xlink:title="convert a number in string to TDS_INT8">
<polygon fill="#ffffff" stroke="#000000" points="2.5,-38.5 2.5,-57.5 77.5,-57.5 77.5,-38.5 2.5,-38.5"/>
<text text-anchor="middle" x="40" y="-45.5" font-family="Helvetica,sans-Serif" font-size="10.00" fill="#000000">string_to_int8</text>
</a>
</g>
</g>
<!-- Node1&#45;&gt;Node2 -->
<g id="edge1" class="edge">
<title>Node1&#45;&gt;Node2</title>
<path fill="none" stroke="#191970" d="M105.9025,-36.2977C96.5688,-37.9551 86.702,-39.7071 77.5256,-41.3366"/>
<polygon fill="#191970" stroke="#191970" points="106.5295,-39.7412 115.7635,-34.5467 105.3056,-32.849 106.5295,-39.7412"/>
</g>
<!-- Node3 -->
<g id="node3" class="node">
<title>Node3</title>
<g id="a_node3"><a xlink:href="a00557.html#gae8e173a9f8d2e3f152ada9f48d3d5f28" target="_top" xlink:title="convert a number in string to TDS_UINT8">
<polygon fill="#ffffff" stroke="#000000" points="0,-.5 0,-19.5 80,-19.5 80,-.5 0,-.5"/>
<text text-anchor="middle" x="40" y="-7.5" font-family="Helvetica,sans-Serif" font-size="10.00" fill="#000000">string_to_uint8</text>
</a>
</g>
</g>
<!-- Node1&#45;&gt;Node3 -->
<g id="edge2" class="edge">
<title>Node1&#45;&gt;Node3</title>
<path fill="none" stroke="#191970" d="M105.8042,-21.6849C97.4171,-20.1956 88.6034,-18.6305 80.2496,-17.1471"/>
<polygon fill="#191970" stroke="#191970" points="105.3056,-25.151 115.7635,-23.4533 106.5295,-18.2588 105.3056,-25.151"/>
</g>
</g>
</svg>
