<?xml version="1.0" encoding="UTF-8" standalone="no"?>
<!DOCTYPE svg PUBLIC "-//W3C//DTD SVG 1.1//EN"
 "http://www.w3.org/Graphics/SVG/1.1/DTD/svg11.dtd">
<!-- Generated by graphviz version 2.40.1 (20161225.0304)
 -->
<!-- Title: tds4_send_emulated_rpc Pages: 1 -->
<svg width="542pt" height="275pt"
 viewBox="0.00 0.00 542.00 275.00" xmlns="http://www.w3.org/2000/svg" xmlns:xlink="http://www.w3.org/1999/xlink">
<g id="graph0" class="graph" transform="scale(1 1) rotate(0) translate(4 271)">
<title>tds4_send_emulated_rpc</title>
<polygon fill="#ffffff" stroke="transparent" points="-4,4 -4,-271 538,-271 538,4 -4,4"/>
<!-- Node1 -->
<g id="node1" class="node">
<title>Node1</title>
<g id="a_node1"><a xlink:title="Send RPC as string query.">
<polygon fill="#bfbfbf" stroke="#000000" points="0,-133.5 0,-152.5 125,-152.5 125,-133.5 0,-133.5"/>
<text text-anchor="middle" x="62.5" y="-140.5" font-family="Helvetica,sans-Serif" font-size="10.00" fill="#000000">tds4_send_emulated_rpc</text>
</a>
</g>
</g>
<!-- Node2 -->
<g id="node2" class="node">
<title>Node2</title>
<g id="a_node2"><a xlink:href="a00563.html#ga5f351a208e7aa13b4cc2d32cac8fc0fa" target="_top" xlink:title="Returns a C version (NUL terminated string) of dstr.">
<polygon fill="#ffffff" stroke="#000000" points="193,-247.5 193,-266.5 267,-266.5 267,-247.5 193,-247.5"/>
<text text-anchor="middle" x="230" y="-254.5" font-family="Helvetica,sans-Serif" font-size="10.00" fill="#000000">tds_dstr_cstr</text>
</a>
</g>
</g>
<!-- Node1&#45;&gt;Node2 -->
<g id="edge1" class="edge">
<title>Node1&#45;&gt;Node2</title>
<path fill="none" stroke="#191970" d="M69.7566,-152.7038C84.6668,-171.9474 120.7494,-215.0604 161,-238 167.8312,-241.8932 175.5013,-245.0227 183.1782,-247.5281"/>
<polygon fill="#191970" stroke="#191970" points="182.2616,-250.9067 192.8433,-250.3783 184.2417,-244.1926 182.2616,-250.9067"/>
</g>
<!-- Node3 -->
<g id="node3" class="node">
<title>Node3</title>
<g id="a_node3"><a xlink:href="a00563.html#ga197c6af67f2e7469d06c2aa055917b1e" target="_top" xlink:title="test if string is empty">
<polygon fill="#ffffff" stroke="#000000" points="184,-209.5 184,-228.5 276,-228.5 276,-209.5 184,-209.5"/>
<text text-anchor="middle" x="230" y="-216.5" font-family="Helvetica,sans-Serif" font-size="10.00" fill="#000000">tds_dstr_isempty</text>
</a>
</g>
</g>
<!-- Node1&#45;&gt;Node3 -->
<g id="edge2" class="edge">
<title>Node1&#45;&gt;Node3</title>
<path fill="none" stroke="#191970" d="M76.584,-152.7101C95.1818,-165.1591 129.2909,-186.7187 161,-200 166.7159,-202.3941 172.8235,-204.5765 178.9534,-206.5388"/>
<polygon fill="#191970" stroke="#191970" points="177.9662,-209.8968 188.5512,-209.4401 179.9918,-203.1962 177.9662,-209.8968"/>
</g>
<!-- Node4 -->
<g id="node4" class="node">
<title>Node4</title>
<g id="a_node4"><a xlink:href="a00563.html#ga396f139e4f886ac1b224a735138e73dd" target="_top" xlink:title="Returns the length of the string in bytes.">
<polygon fill="#ffffff" stroke="#000000" points="195,-171.5 195,-190.5 265,-190.5 265,-171.5 195,-171.5"/>
<text text-anchor="middle" x="230" y="-178.5" font-family="Helvetica,sans-Serif" font-size="10.00" fill="#000000">tds_dstr_len</text>
</a>
</g>
</g>
<!-- Node1&#45;&gt;Node4 -->
<g id="edge3" class="edge">
<title>Node1&#45;&gt;Node4</title>
<path fill="none" stroke="#191970" d="M104.7673,-152.589C129.2138,-158.1351 159.9689,-165.1124 184.883,-170.7645"/>
<polygon fill="#191970" stroke="#191970" points="184.2898,-174.2188 194.8163,-173.018 185.8385,-167.3923 184.2898,-174.2188"/>
</g>
<!-- Node5 -->
<g id="node5" class="node">
<title>Node5</title>
<g id="a_node5"><a xlink:href="a00560.html#ga50d62edeb2a432e2dc668263f3f958ff" target="_top" xlink:title="Return declaration for column (like &quot;varchar(20)&quot;).">
<polygon fill="#ffffff" stroke="#000000" points="161,-133.5 161,-152.5 299,-152.5 299,-133.5 161,-133.5"/>
<text text-anchor="middle" x="230" y="-140.5" font-family="Helvetica,sans-Serif" font-size="10.00" fill="#000000">tds_get_column_declaration</text>
</a>
</g>
</g>
<!-- Node1&#45;&gt;Node5 -->
<g id="edge4" class="edge">
<title>Node1&#45;&gt;Node5</title>
<path fill="none" stroke="#191970" d="M125.3474,-143C133.6875,-143 142.3232,-143 150.8937,-143"/>
<polygon fill="#191970" stroke="#191970" points="150.9034,-146.5001 160.9033,-143 150.9033,-139.5001 150.9034,-146.5001"/>
</g>
<!-- Node6 -->
<g id="node6" class="node">
<title>Node6</title>
<g id="a_node6"><a xlink:href="a00560.html#ga0e2e7230c425e925402d7856ff5b4b18" target="_top" xlink:title="Send a parameter to server.">
<polygon fill="#ffffff" stroke="#000000" points="167,-95.5 167,-114.5 293,-114.5 293,-95.5 167,-95.5"/>
<text text-anchor="middle" x="230" y="-102.5" font-family="Helvetica,sans-Serif" font-size="10.00" fill="#000000">tds_put_param_as_string</text>
</a>
</g>
</g>
<!-- Node1&#45;&gt;Node6 -->
<g id="edge5" class="edge">
<title>Node1&#45;&gt;Node6</title>
<path fill="none" stroke="#191970" d="M104.7673,-133.411C127.0699,-128.3513 154.6232,-122.1004 178.2018,-116.7512"/>
<polygon fill="#191970" stroke="#191970" points="179.0588,-120.1458 188.0366,-114.5201 177.5101,-113.3193 179.0588,-120.1458"/>
</g>
<!-- Node7 -->
<g id="node7" class="node">
<title>Node7</title>
<g id="a_node7"><a xlink:href="a00561.html#ga1fcaf8d488cc1390f106ce3ad0bf37b4" target="_top" xlink:title="Output a string to wire automatic translate string to unicode if needed.">
<polygon fill="#ffffff" stroke="#000000" points="191,-57.5 191,-76.5 269,-76.5 269,-57.5 191,-57.5"/>
<text text-anchor="middle" x="230" y="-64.5" font-family="Helvetica,sans-Serif" font-size="10.00" fill="#000000">tds_put_string</text>
</a>
</g>
</g>
<!-- Node1&#45;&gt;Node7 -->
<g id="edge6" class="edge">
<title>Node1&#45;&gt;Node7</title>
<path fill="none" stroke="#191970" d="M76.584,-133.2899C95.1818,-120.8409 129.2909,-99.2813 161,-86 167.3139,-83.3554 174.106,-80.9691 180.8779,-78.8524"/>
<polygon fill="#191970" stroke="#191970" points="182.127,-82.1331 190.7272,-75.9454 180.1454,-75.4194 182.127,-82.1331"/>
</g>
<!-- Node8 -->
<g id="node8" class="node">
<title>Node8</title>
<g id="a_node8"><a xlink:href="a00560.html#gada27f4cfce925240ad33b71b63ca692d" target="_top" xlink:title="Flush query packet.">
<polygon fill="#ffffff" stroke="#000000" points="170,-19.5 170,-38.5 290,-38.5 290,-19.5 170,-19.5"/>
<text text-anchor="middle" x="230" y="-26.5" font-family="Helvetica,sans-Serif" font-size="10.00" fill="#000000">tds_query_flush_packet</text>
</a>
</g>
</g>
<!-- Node1&#45;&gt;Node8 -->
<g id="edge7" class="edge">
<title>Node1&#45;&gt;Node8</title>
<path fill="none" stroke="#191970" d="M69.7566,-133.2962C84.6668,-114.0526 120.7494,-70.9396 161,-48 164.9317,-45.7592 169.1414,-43.7715 173.4703,-42.0101"/>
<polygon fill="#191970" stroke="#191970" points="174.8813,-45.221 183.0759,-38.5054 172.4819,-38.6451 174.8813,-45.221"/>
</g>
<!-- Node9 -->
<g id="node9" class="node">
<title>Node9</title>
<g id="a_node9"><a xlink:href="a00561.html#ga5feb53554e8917a81bbbc332163a61fb" target="_top" xlink:title="Flush packet to server.">
<polygon fill="#ffffff" stroke="#000000" points="335,-38.5 335,-57.5 426,-57.5 426,-38.5 335,-38.5"/>
<text text-anchor="middle" x="380.5" y="-45.5" font-family="Helvetica,sans-Serif" font-size="10.00" fill="#000000">tds_flush_packet</text>
</a>
</g>
</g>
<!-- Node8&#45;&gt;Node9 -->
<g id="edge8" class="edge">
<title>Node8&#45;&gt;Node9</title>
<path fill="none" stroke="#191970" d="M290.3469,-36.6185C301.7422,-38.0572 313.6124,-39.5557 324.855,-40.975"/>
<polygon fill="#191970" stroke="#191970" points="324.6121,-44.4721 334.9718,-42.2522 325.4889,-37.5272 324.6121,-44.4721"/>
</g>
<!-- Node10 -->
<g id="node10" class="node">
<title>Node10</title>
<g id="a_node10"><a xlink:href="a00437.html#a16db200d2281f76fe46fc1cbe37ca9df" target="_top" xlink:title="Set state of TDS connection, with logging and checking.">
<polygon fill="#ffffff" stroke="#000000" points="342.5,-.5 342.5,-19.5 418.5,-19.5 418.5,-.5 342.5,-.5"/>
<text text-anchor="middle" x="380.5" y="-7.5" font-family="Helvetica,sans-Serif" font-size="10.00" fill="#000000">tds_set_state</text>
</a>
</g>
</g>
<!-- Node8&#45;&gt;Node10 -->
<g id="edge9" class="edge">
<title>Node8&#45;&gt;Node10</title>
<path fill="none" stroke="#191970" d="M290.3469,-21.3815C304.1559,-19.6381 318.6623,-17.8067 331.9042,-16.135"/>
<polygon fill="#191970" stroke="#191970" points="332.7325,-19.5583 342.2153,-14.8333 331.8557,-12.6134 332.7325,-19.5583"/>
</g>
<!-- Node11 -->
<g id="node11" class="node">
<title>Node11</title>
<g id="a_node11"><a xlink:href="a00437.html#ab45c291105027e69836002e1dd586141" target="_top" xlink:title="Write a message to the debug log.">
<polygon fill="#ffffff" stroke="#000000" points="462,-.5 462,-19.5 534,-19.5 534,-.5 462,-.5"/>
<text text-anchor="middle" x="498" y="-7.5" font-family="Helvetica,sans-Serif" font-size="10.00" fill="#000000">tdsdump_log</text>
</a>
</g>
</g>
<!-- Node10&#45;&gt;Node11 -->
<g id="edge10" class="edge">
<title>Node10&#45;&gt;Node11</title>
<path fill="none" stroke="#191970" d="M418.6489,-10C429.1098,-10 440.5685,-10 451.444,-10"/>
<polygon fill="#191970" stroke="#191970" points="451.6408,-13.5001 461.6407,-10 451.6407,-6.5001 451.6408,-13.5001"/>
</g>
</g>
</svg>
