<?xml version="1.0" encoding="UTF-8" standalone="no"?>
<!DOCTYPE svg PUBLIC "-//W3C//DTD SVG 1.1//EN"
 "http://www.w3.org/Graphics/SVG/1.1/DTD/svg11.dtd">
<!-- Generated by graphviz version 2.40.1 (20161225.0304)
 -->
<!-- Title: parse_numeric Pages: 1 -->
<svg width="310pt" height="85pt"
 viewBox="0.00 0.00 310.00 85.00" xmlns="http://www.w3.org/2000/svg" xmlns:xlink="http://www.w3.org/1999/xlink">
<g id="graph0" class="graph" transform="scale(1 1) rotate(0) translate(4 81)">
<title>parse_numeric</title>
<polygon fill="#ffffff" stroke="transparent" points="-4,4 -4,-81 306,-81 306,4 -4,4"/>
<!-- Node1 -->
<g id="node1" class="node">
<title>Node1</title>
<g id="a_node1"><a xlink:title="Parse a string for numbers.">
<polygon fill="#bfbfbf" stroke="#000000" points="222,-19.5 222,-38.5 302,-38.5 302,-19.5 222,-19.5"/>
<text text-anchor="middle" x="262" y="-26.5" font-family="Helvetica,sans-Serif" font-size="10.00" fill="#000000">parse_numeric</text>
</a>
</g>
</g>
<!-- Node2 -->
<g id="node2" class="node">
<title>Node2</title>
<g id="a_node2"><a xlink:href="a00557.html#gace939c1fa676d172cb0cae94848b7fac" target="_top" xlink:title="convert a number in string to TDS_INT8">
<polygon fill="#ffffff" stroke="#000000" points="120,-38.5 120,-57.5 182,-57.5 182,-38.5 120,-38.5"/>
<text text-anchor="middle" x="151" y="-45.5" font-family="Helvetica,sans-Serif" font-size="10.00" fill="#000000">parse_int8</text>
</a>
</g>
</g>
<!-- Node1&#45;&gt;Node2 -->
<g id="edge1" class="edge">
<title>Node1&#45;&gt;Node2</title>
<path fill="none" stroke="#191970" d="M211.9645,-37.5646C201.8714,-39.2923 191.5348,-41.0616 182.3075,-42.6411"/>
<polygon fill="#191970" stroke="#191970" points="212.6603,-40.9965 221.9265,-35.8594 211.4793,-34.0969 212.6603,-40.9965"/>
</g>
<!-- Node5 -->
<g id="node5" class="node">
<title>Node5</title>
<g id="a_node5"><a xlink:href="a00557.html#ga0176fafd412b5b8005bf1202fbc13b00" target="_top" xlink:title="convert a number in string to TDS_INT">
<polygon fill="#ffffff" stroke="#000000" points="116,-.5 116,-19.5 186,-19.5 186,-.5 116,-.5"/>
<text text-anchor="middle" x="151" y="-7.5" font-family="Helvetica,sans-Serif" font-size="10.00" fill="#000000">string_to_int</text>
</a>
</g>
</g>
<!-- Node1&#45;&gt;Node5 -->
<g id="edge4" class="edge">
<title>Node1&#45;&gt;Node5</title>
<path fill="none" stroke="#191970" d="M211.8924,-20.423C203.2322,-18.9406 194.3951,-17.428 186.2355,-16.0313"/>
<polygon fill="#191970" stroke="#191970" points="211.4793,-23.9031 221.9265,-22.1406 212.6603,-17.0035 211.4793,-23.9031"/>
</g>
<!-- Node3 -->
<g id="node3" class="node">
<title>Node3</title>
<g id="a_node3"><a xlink:href="a00557.html#ga933f87cca76156648e91f472650b98f3" target="_top" xlink:title="convert a number in string to TDS_INT8">
<polygon fill="#ffffff" stroke="#000000" points="2.5,-57.5 2.5,-76.5 77.5,-76.5 77.5,-57.5 2.5,-57.5"/>
<text text-anchor="middle" x="40" y="-64.5" font-family="Helvetica,sans-Serif" font-size="10.00" fill="#000000">string_to_int8</text>
</a>
</g>
</g>
<!-- Node2&#45;&gt;Node3 -->
<g id="edge2" class="edge">
<title>Node2&#45;&gt;Node3</title>
<path fill="none" stroke="#191970" d="M109.6141,-55.0841C99.1436,-56.8763 87.9552,-58.7915 77.6787,-60.5505"/>
<polygon fill="#191970" stroke="#191970" points="110.5188,-58.4802 119.7849,-53.3431 109.3377,-51.5805 110.5188,-58.4802"/>
</g>
<!-- Node4 -->
<g id="node4" class="node">
<title>Node4</title>
<g id="a_node4"><a xlink:href="a00557.html#gae8e173a9f8d2e3f152ada9f48d3d5f28" target="_top" xlink:title="convert a number in string to TDS_UINT8">
<polygon fill="#ffffff" stroke="#000000" points="0,-19.5 0,-38.5 80,-38.5 80,-19.5 0,-19.5"/>
<text text-anchor="middle" x="40" y="-26.5" font-family="Helvetica,sans-Serif" font-size="10.00" fill="#000000">string_to_uint8</text>
</a>
</g>
</g>
<!-- Node2&#45;&gt;Node4 -->
<g id="edge3" class="edge">
<title>Node2&#45;&gt;Node4</title>
<path fill="none" stroke="#191970" d="M109.9218,-40.9686C100.1831,-39.3016 89.8079,-37.5257 80.1128,-35.8662"/>
<polygon fill="#191970" stroke="#191970" points="109.3377,-44.4194 119.7849,-42.6569 110.5188,-37.5198 109.3377,-44.4194"/>
</g>
</g>
</svg>
