<?xml version="1.0" encoding="UTF-8" standalone="no"?>
<!DOCTYPE svg PUBLIC "-//W3C//DTD SVG 1.1//EN"
 "http://www.w3.org/Graphics/SVG/1.1/DTD/svg11.dtd">
<!-- Generated by graphviz version 2.40.1 (20161225.0304)
 -->
<!-- Title: read_and_convert Pages: 1 -->
<svg width="421pt" height="104pt"
 viewBox="0.00 0.00 421.00 104.00" xmlns="http://www.w3.org/2000/svg" xmlns:xlink="http://www.w3.org/1999/xlink">
<g id="graph0" class="graph" transform="scale(1 1) rotate(0) translate(4 100)">
<title>read_and_convert</title>
<polygon fill="#ffffff" stroke="transparent" points="-4,4 -4,-100 417,-100 417,4 -4,4"/>
<!-- Node1 -->
<g id="node1" class="node">
<title>Node1</title>
<g id="a_node1"><a xlink:title="For UTF&#45;8 and similar, tds_iconv() may encounter a partial sequence when the chunk boundary is not al...">
<polygon fill="#bfbfbf" stroke="#000000" points="0,-38.5 0,-57.5 94,-57.5 94,-38.5 0,-38.5"/>
<text text-anchor="middle" x="47" y="-45.5" font-family="Helvetica,sans-Serif" font-size="10.00" fill="#000000">read_and_convert</text>
</a>
</g>
</g>
<!-- Node2 -->
<g id="node2" class="node">
<title>Node2</title>
<g id="a_node2"><a xlink:href="a01408.html#a9d8eb43a81ff58ab423dce0ce95b9564" target="_top" xlink:title="Reads and writes from a stream converting characters.">
<polygon fill="#ffffff" stroke="#000000" points="141.5,-76.5 141.5,-95.5 244.5,-95.5 244.5,-76.5 141.5,-76.5"/>
<text text-anchor="middle" x="193" y="-83.5" font-family="Helvetica,sans-Serif" font-size="10.00" fill="#000000">tds_convert_stream</text>
</a>
</g>
</g>
<!-- Node1&#45;&gt;Node2 -->
<g id="edge1" class="edge">
<title>Node1&#45;&gt;Node2</title>
<path fill="none" stroke="#191970" d="M83.842,-57.589C102.8479,-62.5358 126.2286,-68.6211 146.4692,-73.8892"/>
<polygon fill="#191970" stroke="#191970" points="145.8638,-77.3482 156.423,-76.4799 147.627,-70.5739 145.8638,-77.3482"/>
</g>
<!-- Node3 -->
<g id="node3" class="node">
<title>Node3</title>
<g id="a_node3"><a xlink:href="a01408.html#abc3a77c8aa28842e7f28583cbabc1415" target="_top" xlink:title="Initialize a data input stream.">
<polygon fill="#ffffff" stroke="#000000" points="135.5,-38.5 135.5,-57.5 250.5,-57.5 250.5,-38.5 135.5,-38.5"/>
<text text-anchor="middle" x="193" y="-45.5" font-family="Helvetica,sans-Serif" font-size="10.00" fill="#000000">tds_datain_stream_init</text>
</a>
</g>
</g>
<!-- Node1&#45;&gt;Node3 -->
<g id="edge2" class="edge">
<title>Node1&#45;&gt;Node3</title>
<path fill="none" stroke="#191970" d="M94.402,-48C104.2063,-48 114.716,-48 125.088,-48"/>
<polygon fill="#191970" stroke="#191970" points="125.3829,-51.5001 135.3829,-48 125.3829,-44.5001 125.3829,-51.5001"/>
</g>
<!-- Node5 -->
<g id="node5" class="node">
<title>Node5</title>
<g id="a_node5"><a xlink:href="a01408.html#a9fe0d3799d2e3bde49b614c9d0c3785d" target="_top" xlink:title="Initialize an output stream for write into a static allocated buffer.">
<polygon fill="#ffffff" stroke="#000000" points="130,-.5 130,-19.5 256,-19.5 256,-.5 130,-.5"/>
<text text-anchor="middle" x="193" y="-7.5" font-family="Helvetica,sans-Serif" font-size="10.00" fill="#000000">tds_staticout_stream_init</text>
</a>
</g>
</g>
<!-- Node1&#45;&gt;Node5 -->
<g id="edge4" class="edge">
<title>Node1&#45;&gt;Node5</title>
<path fill="none" stroke="#191970" d="M83.842,-38.411C102.8479,-33.4642 126.2286,-27.3789 146.4692,-22.1108"/>
<polygon fill="#191970" stroke="#191970" points="147.627,-25.4261 156.423,-19.5201 145.8638,-18.6518 147.627,-25.4261"/>
</g>
<!-- Node4 -->
<g id="node4" class="node">
<title>Node4</title>
<g id="a_node4"><a xlink:href="a01408.html#a04b537d889f7d4c9b9701eb81baf7efd" target="_top" xlink:title="Reads data from network for input stream.">
<polygon fill="#ffffff" stroke="#000000" points="292,-38.5 292,-57.5 413,-57.5 413,-38.5 292,-38.5"/>
<text text-anchor="middle" x="352.5" y="-45.5" font-family="Helvetica,sans-Serif" font-size="10.00" fill="#000000">tds_datain_stream_read</text>
</a>
</g>
</g>
<!-- Node3&#45;&gt;Node4 -->
<g id="edge3" class="edge">
<title>Node3&#45;&gt;Node4</title>
<path fill="none" stroke="#191970" d="M250.5832,-48C260.6218,-48 271.1694,-48 281.5177,-48"/>
<polygon fill="#191970" stroke="#191970" points="281.7734,-51.5001 291.7733,-48 281.7733,-44.5001 281.7734,-51.5001"/>
</g>
</g>
</svg>
