<?xml version="1.0" encoding="UTF-8" standalone="no"?>
<!DOCTYPE svg PUBLIC "-//W3C//DTD SVG 1.1//EN"
 "http://www.w3.org/Graphics/SVG/1.1/DTD/svg11.dtd">
<!-- Generated by graphviz version 2.40.1 (20161225.0304)
 -->
<!-- Title: Bulk copy functions Pages: 1 -->
<svg width="371pt" height="27pt"
 viewBox="0.00 0.00 371.00 27.00" xmlns="http://www.w3.org/2000/svg" xmlns:xlink="http://www.w3.org/1999/xlink">
<g id="graph0" class="graph" transform="scale(1 1) rotate(0) translate(4 23)">
<title>Bulk copy functions</title>
<polygon fill="#ffffff" stroke="transparent" points="-4,4 -4,-23 367,-23 367,4 -4,4"/>
<!-- Node2 -->
<g id="node1" class="node">
<title>Node2</title>
<g id="a_node1"><a xlink:href="a00544.html" target="_top" xlink:title="Functions callable by db&#45;lib client programs.">
<polygon fill="#ffffff" stroke="#000000" points="78,-19 0,-19 0,0 78,0 78,-19"/>
<text text-anchor="middle" x="39" y="-7" font-family="Helvetica,sans-Serif" font-size="10.00" fill="#000000">The db&#45;lib API</text>
</a>
</g>
</g>
<!-- Node1 -->
<g id="node3" class="node">
<title>Node1</title>
<g id="a_node3"><a xlink:title="Functions to bulk&#45;copy (a/k/a bcp) data to/from the database.">
<polygon fill="#bfbfbf" stroke="#000000" points="217,-19 114,-19 114,0 217,0 217,-19"/>
<text text-anchor="middle" x="165.5" y="-7" font-family="Helvetica,sans-Serif" font-size="10.00" fill="#000000">Bulk copy functions</text>
</a>
</g>
</g>
<!-- Node2&#45;&gt;Node1 -->
<g id="edge1" class="edge">
<title>Node2&#45;&gt;Node1</title>
<path fill="none" stroke="#000000" d="M88.5434,-9.5C96.7779,-9.5 105.338,-9.5 113.6284,-9.5"/>
<polygon fill="#000000" stroke="#000000" points="88.332,-6.0001 78.332,-9.5 88.3319,-13.0001 88.332,-6.0001"/>
</g>
<!-- Node3 -->
<g id="node2" class="node">
<title>Node3</title>
<g id="a_node2"><a xlink:href="a00548.html" target="_top" xlink:title="Static functions internal to the bcp library.">
<polygon fill="#ffffff" stroke="#000000" points="363,-19 253,-19 253,0 363,0 363,-19"/>
<text text-anchor="middle" x="308" y="-7" font-family="Helvetica,sans-Serif" font-size="10.00" fill="#000000">Internal bcp functions</text>
</a>
</g>
</g>
<!-- Node1&#45;&gt;Node3 -->
<g id="edge2" class="edge">
<title>Node1&#45;&gt;Node3</title>
<path fill="none" stroke="#000000" d="M227.4362,-9.5C235.8029,-9.5 244.3439,-9.5 252.587,-9.5"/>
<polygon fill="#000000" stroke="#000000" points="227.3489,-6.0001 217.3489,-9.5 227.3488,-13.0001 227.3489,-6.0001"/>
</g>
</g>
</svg>
