<?xml version="1.0" encoding="UTF-8" standalone="no"?>
<!DOCTYPE svg PUBLIC "-//W3C//DTD SVG 1.1//EN"
 "http://www.w3.org/Graphics/SVG/1.1/DTD/svg11.dtd">
<!-- Generated by graphviz version 2.40.1 (20161225.0304)
 -->
<!-- Title: include/sybdb.h Pages: 1 -->
<svg width="337pt" height="140pt"
 viewBox="0.00 0.00 337.00 140.00" xmlns="http://www.w3.org/2000/svg" xmlns:xlink="http://www.w3.org/1999/xlink">
<g id="graph0" class="graph" transform="scale(1 1) rotate(0) translate(4 136)">
<title>include/sybdb.h</title>
<polygon fill="#ffffff" stroke="transparent" points="-4,4 -4,-136 333,-136 333,4 -4,4"/>
<!-- Node1 -->
<g id="node1" class="node">
<title>Node1</title>
<g id="a_node1"><a xlink:title="Primary include file for db&#45;lib applications.">
<polygon fill="#bfbfbf" stroke="#000000" points="138.5,-112.5 138.5,-131.5 223.5,-131.5 223.5,-112.5 138.5,-112.5"/>
<text text-anchor="middle" x="181" y="-119.5" font-family="Helvetica,sans-Serif" font-size="10.00" fill="#000000">include/sybdb.h</text>
</a>
</g>
</g>
<!-- Node2 -->
<g id="node2" class="node">
<title>Node2</title>
<g id="a_node2"><a xlink:href="a01393.html" target="_top" xlink:title=" ">
<polygon fill="#ffffff" stroke="#000000" points="0,-.5 0,-19.5 80,-19.5 80,-.5 0,-.5"/>
<text text-anchor="middle" x="40" y="-7.5" font-family="Helvetica,sans-Serif" font-size="10.00" fill="#000000">src/dblib/bcp.c</text>
</a>
</g>
</g>
<!-- Node1&#45;&gt;Node2 -->
<g id="edge1" class="edge">
<title>Node1&#45;&gt;Node2</title>
<path fill="none" stroke="#191970" d="M143.6676,-108.446C125.6218,-100.7257 104.3812,-89.8164 88,-76 68.5054,-59.5576 52.6946,-33.608 45.0251,-19.6495"/>
<polygon fill="#191970" stroke="#191970" points="142.7331,-111.8457 153.3131,-112.4051 145.3912,-105.37 142.7331,-111.8457"/>
</g>
<!-- Node3 -->
<g id="node3" class="node">
<title>Node3</title>
<g id="a_node3"><a xlink:href="a00080.html" target="_top" xlink:title=" ">
<polygon fill="#ffffff" stroke="#000000" points="207.5,-.5 207.5,-19.5 292.5,-19.5 292.5,-.5 207.5,-.5"/>
<text text-anchor="middle" x="250" y="-7.5" font-family="Helvetica,sans-Serif" font-size="10.00" fill="#000000">src/dblib/dblib.c</text>
</a>
</g>
</g>
<!-- Node1&#45;&gt;Node3 -->
<g id="edge2" class="edge">
<title>Node1&#45;&gt;Node3</title>
<path fill="none" stroke="#191970" d="M192.1554,-103.8927C206.9798,-79.8299 232.6358,-38.1853 244.132,-19.5249"/>
<polygon fill="#191970" stroke="#191970" points="189.1483,-102.1011 186.8829,-112.4509 195.1081,-105.7728 189.1483,-102.1011"/>
</g>
<!-- Node4 -->
<g id="node4" class="node">
<title>Node4</title>
<g id="a_node4"><a xlink:href="a00494_source.html" target="_top" xlink:title=" ">
<polygon fill="#ffffff" stroke="#000000" points="247,-56.5 247,-75.5 329,-75.5 329,-56.5 247,-56.5"/>
<text text-anchor="middle" x="288" y="-63.5" font-family="Helvetica,sans-Serif" font-size="10.00" fill="#000000">include/sqldb.h</text>
</a>
</g>
</g>
<!-- Node1&#45;&gt;Node4 -->
<g id="edge3" class="edge">
<title>Node1&#45;&gt;Node4</title>
<path fill="none" stroke="#191970" d="M208.5199,-107.5971C227.7017,-97.558 252.7678,-84.4393 269.5756,-75.6427"/>
<polygon fill="#191970" stroke="#191970" points="206.875,-104.5075 199.638,-112.2455 210.1209,-110.7095 206.875,-104.5075"/>
</g>
<!-- Node5 -->
<g id="node5" class="node">
<title>Node5</title>
<g id="a_node5"><a xlink:href="a00509_source.html" target="_top" xlink:title=" ">
<polygon fill="#ffffff" stroke="#000000" points="97,-56.5 97,-75.5 191,-75.5 191,-56.5 97,-56.5"/>
<text text-anchor="middle" x="144" y="-63.5" font-family="Helvetica,sans-Serif" font-size="10.00" fill="#000000">include/sybfront.h</text>
</a>
</g>
</g>
<!-- Node1&#45;&gt;Node5 -->
<g id="edge4" class="edge">
<title>Node1&#45;&gt;Node5</title>
<path fill="none" stroke="#191970" d="M168.8624,-103.6296C162.6907,-94.2887 155.4434,-83.3197 150.3711,-75.6427"/>
<polygon fill="#191970" stroke="#191970" points="166.1223,-105.8316 174.5551,-112.2455 171.9627,-101.9728 166.1223,-105.8316"/>
</g>
<!-- Node5&#45;&gt;Node2 -->
<g id="edge5" class="edge">
<title>Node5&#45;&gt;Node2</title>
<path fill="none" stroke="#191970" d="M116.9971,-51.46C98.3864,-41.4388 74.1701,-28.3993 57.9078,-19.6427"/>
<polygon fill="#191970" stroke="#191970" points="115.4205,-54.5861 125.8846,-56.2455 118.7392,-48.4228 115.4205,-54.5861"/>
</g>
<!-- Node5&#45;&gt;Node3 -->
<g id="edge6" class="edge">
<title>Node5&#45;&gt;Node3</title>
<path fill="none" stroke="#191970" d="M171.5222,-51.46C190.4908,-41.4388 215.1727,-28.3993 231.7478,-19.6427"/>
<polygon fill="#191970" stroke="#191970" points="169.6708,-48.4796 162.4638,-56.2455 172.9407,-54.669 169.6708,-48.4796"/>
</g>
<!-- Node6 -->
<g id="node6" class="node">
<title>Node6</title>
<g id="a_node6"><a xlink:href="a00497_source.html" target="_top" xlink:title=" ">
<polygon fill="#ffffff" stroke="#000000" points="98.5,-.5 98.5,-19.5 189.5,-19.5 189.5,-.5 98.5,-.5"/>
<text text-anchor="middle" x="144" y="-7.5" font-family="Helvetica,sans-Serif" font-size="10.00" fill="#000000">include/sqlfront.h</text>
</a>
</g>
</g>
<!-- Node5&#45;&gt;Node6 -->
<g id="edge7" class="edge">
<title>Node5&#45;&gt;Node6</title>
<path fill="none" stroke="#191970" d="M144,-46.1575C144,-37.155 144,-26.9199 144,-19.6427"/>
<polygon fill="#191970" stroke="#191970" points="140.5001,-46.2455 144,-56.2455 147.5001,-46.2456 140.5001,-46.2455"/>
</g>
</g>
</svg>
