<?xml version="1.0" encoding="UTF-8" standalone="no"?>
<!DOCTYPE svg PUBLIC "-//W3C//DTD SVG 1.1//EN"
 "http://www.w3.org/Graphics/SVG/1.1/DTD/svg11.dtd">
<!-- Generated by graphviz version 2.40.1 (20161225.0304)
 -->
<!-- Title: tds_count_placeholders_ucs2le Pages: 1 -->
<svg width="441pt" height="66pt"
 viewBox="0.00 0.00 441.00 66.00" xmlns="http://www.w3.org/2000/svg" xmlns:xlink="http://www.w3.org/1999/xlink">
<g id="graph0" class="graph" transform="scale(1 1) rotate(0) translate(4 62)">
<title>tds_count_placeholders_ucs2le</title>
<polygon fill="#ffffff" stroke="transparent" points="-4,4 -4,-62 437,-62 437,4 -4,4"/>
<!-- Node1 -->
<g id="node1" class="node">
<title>Node1</title>
<g id="a_node1"><a xlink:title="Count the number of placeholders (&#39;?&#39;) in a query.">
<polygon fill="#bfbfbf" stroke="#000000" points="0,-14 0,-44 119,-44 119,-14 0,-14"/>
<text text-anchor="start" x="8" y="-32" font-family="Helvetica,sans-Serif" font-size="10.00" fill="#000000">tds_count_placeholders</text>
<text text-anchor="middle" x="59.5" y="-21" font-family="Helvetica,sans-Serif" font-size="10.00" fill="#000000">_ucs2le</text>
</a>
</g>
</g>
<!-- Node2 -->
<g id="node2" class="node">
<title>Node2</title>
<g id="a_node2"><a xlink:href="a00560.html#gaa823973b74efdf1ff00f340496bff614" target="_top" xlink:title="Found the next placeholder (? or @param) in a string.">
<polygon fill="#ffffff" stroke="#000000" points="155,-14 155,-44 264,-44 264,-14 155,-14"/>
<text text-anchor="start" x="163" y="-32" font-family="Helvetica,sans-Serif" font-size="10.00" fill="#000000">tds_next_placeholder</text>
<text text-anchor="middle" x="209.5" y="-21" font-family="Helvetica,sans-Serif" font-size="10.00" fill="#000000">_ucs2le</text>
</a>
</g>
</g>
<!-- Node1&#45;&gt;Node2 -->
<g id="edge1" class="edge">
<title>Node1&#45;&gt;Node2</title>
<path fill="none" stroke="#191970" d="M119.215,-29C127.579,-29 136.2078,-29 144.6612,-29"/>
<polygon fill="#191970" stroke="#191970" points="144.8559,-32.5001 154.8559,-29 144.8558,-25.5001 144.8559,-32.5001"/>
</g>
<!-- Node3 -->
<g id="node3" class="node">
<title>Node3</title>
<g id="a_node3"><a xlink:href="a00560.html#gab304fda9f325e852ba5c5252079d22e3" target="_top" xlink:title="Skip a comment in a query.">
<polygon fill="#ffffff" stroke="#000000" points="300,-38.5 300,-57.5 433,-57.5 433,-38.5 300,-38.5"/>
<text text-anchor="middle" x="366.5" y="-45.5" font-family="Helvetica,sans-Serif" font-size="10.00" fill="#000000">tds_skip_comment_ucs2le</text>
</a>
</g>
</g>
<!-- Node2&#45;&gt;Node3 -->
<g id="edge2" class="edge">
<title>Node2&#45;&gt;Node3</title>
<path fill="none" stroke="#191970" d="M264.411,-35.6453C272.6098,-36.6375 281.187,-37.6755 289.7367,-38.7102"/>
<polygon fill="#191970" stroke="#191970" points="289.3884,-42.1935 299.7365,-39.9203 290.2294,-35.2442 289.3884,-42.1935"/>
</g>
<!-- Node4 -->
<g id="node4" class="node">
<title>Node4</title>
<g id="a_node4"><a xlink:href="a00560.html#ga2361ec4629aa0eac38f1702b03ed8185" target="_top" xlink:title="Return pointer to end of a quoted string.">
<polygon fill="#ffffff" stroke="#000000" points="305.5,-.5 305.5,-19.5 427.5,-19.5 427.5,-.5 305.5,-.5"/>
<text text-anchor="middle" x="366.5" y="-7.5" font-family="Helvetica,sans-Serif" font-size="10.00" fill="#000000">tds_skip_quoted_ucs2le</text>
</a>
</g>
</g>
<!-- Node2&#45;&gt;Node4 -->
<g id="edge3" class="edge">
<title>Node2&#45;&gt;Node4</title>
<path fill="none" stroke="#191970" d="M264.411,-22.3547C274.4626,-21.1383 285.083,-19.853 295.5242,-18.5894"/>
<polygon fill="#191970" stroke="#191970" points="295.9485,-22.0637 305.4556,-17.3875 295.1075,-15.1144 295.9485,-22.0637"/>
</g>
</g>
</svg>
