<?xml version="1.0" encoding="UTF-8" standalone="no"?>
<!DOCTYPE svg PUBLIC "-//W3C//DTD SVG 1.1//EN"
 "http://www.w3.org/Graphics/SVG/1.1/DTD/svg11.dtd">
<!-- Generated by graphviz version 2.40.1 (20161225.0304)
 -->
<!-- Title: _options Pages: 1 -->
<svg width="125pt" height="240pt"
 viewBox="0.00 0.00 124.50 240.00" xmlns="http://www.w3.org/2000/svg" xmlns:xlink="http://www.w3.org/1999/xlink">
<g id="graph0" class="graph" transform="scale(1 1) rotate(0) translate(4 236)">
<title>_options</title>
<polygon fill="#ffffff" stroke="transparent" points="-4,4 -4,-236 120.5,-236 120.5,4 -4,4"/>
<!-- Node1 -->
<g id="node1" class="node">
<title>Node1</title>
<g id="a_node1"><a xlink:title=" ">
<polygon fill="#bfbfbf" stroke="#000000" points="18,-.5 18,-19.5 71,-19.5 71,-.5 18,-.5"/>
<text text-anchor="middle" x="44.5" y="-7.5" font-family="Helvetica,sans-Serif" font-size="10.00" fill="#000000">_options</text>
</a>
</g>
</g>
<!-- Node2 -->
<g id="node2" class="node">
<title>Node2</title>
<g id="a_node2"><a xlink:href="a00588.html" target="_top" xlink:title=" ">
<polygon fill="#ffffff" stroke="#000000" points="0,-67.5 0,-86.5 89,-86.5 89,-67.5 0,-67.5"/>
<text text-anchor="middle" x="44.5" y="-74.5" font-family="Helvetica,sans-Serif" font-size="10.00" fill="#000000">_options::pivot_t</text>
</a>
</g>
</g>
<!-- Node2&#45;&gt;Node1 -->
<g id="edge1" class="edge">
<title>Node2&#45;&gt;Node1</title>
<path fill="none" stroke="#9a32cd" stroke-dasharray="5,2" d="M44.5,-57.1079C44.5,-44.714 44.5,-29.3263 44.5,-19.5817"/>
<polygon fill="#9a32cd" stroke="#9a32cd" points="41.0001,-57.4005 44.5,-67.4005 48.0001,-57.4006 41.0001,-57.4005"/>
<text text-anchor="middle" x="57" y="-41" font-family="Helvetica,sans-Serif" font-size="10.00" fill="#000000"> pivot</text>
</g>
<!-- Node3 -->
<g id="node3" class="node">
<title>Node3</title>
<g id="a_node3"><a xlink:href="a00620.html" target="_top" xlink:title=" ">
<polygon fill="#ffffff" stroke="#000000" points="25.5,-212.5 25.5,-231.5 63.5,-231.5 63.5,-212.5 25.5,-212.5"/>
<text text-anchor="middle" x="44.5" y="-219.5" font-family="Helvetica,sans-Serif" font-size="10.00" fill="#000000">col_t</text>
</a>
</g>
</g>
<!-- Node3&#45;&gt;Node2 -->
<g id="edge2" class="edge">
<title>Node3&#45;&gt;Node2</title>
<path fill="none" stroke="#9a32cd" stroke-dasharray="5,2" d="M41.4633,-202.1881C39.9393,-191.2515 38.2591,-177.4084 37.5,-165 35.7594,-136.5468 40.2434,-102.985 42.8257,-86.7584"/>
<polygon fill="#9a32cd" stroke="#9a32cd" points="38.0393,-202.963 42.9498,-212.3511 44.9656,-201.9498 38.0393,-202.963"/>
<text text-anchor="middle" x="48.5" y="-152.5" font-family="Helvetica,sans-Serif" font-size="10.00" fill="#000000"> func</text>
</g>
<!-- Node4 -->
<g id="node4" class="node">
<title>Node4</title>
<g id="a_node4"><a xlink:href="a00580.html" target="_top" xlink:title=" ">
<polygon fill="#ffffff" stroke="#000000" points="68.5,-145.5 68.5,-164.5 116.5,-164.5 116.5,-145.5 68.5,-145.5"/>
<text text-anchor="middle" x="92.5" y="-152.5" font-family="Helvetica,sans-Serif" font-size="10.00" fill="#000000">KEY_T</text>
</a>
</g>
</g>
<!-- Node3&#45;&gt;Node4 -->
<g id="edge4" class="edge">
<title>Node3&#45;&gt;Node4</title>
<path fill="none" stroke="#9a32cd" stroke-dasharray="5,2" d="M57.4096,-203.9803C66.4948,-191.2989 78.2981,-174.8235 85.6355,-164.5817"/>
<polygon fill="#9a32cd" stroke="#9a32cd" points="54.3559,-202.233 51.3772,-212.4005 60.0463,-206.3097 54.3559,-202.233"/>
<text text-anchor="middle" x="83" y="-186" font-family="Helvetica,sans-Serif" font-size="10.00" fill="#000000"> keys</text>
</g>
<!-- Node4&#45;&gt;Node2 -->
<g id="edge3" class="edge">
<title>Node4&#45;&gt;Node2</title>
<path fill="none" stroke="#9a32cd" stroke-dasharray="5,2" d="M81.1959,-136.6308C71.5591,-120.9711 58.0875,-99.0796 50.4339,-86.6426"/>
<polygon fill="#9a32cd" stroke="#9a32cd" points="78.3924,-138.7534 86.6143,-145.4357 84.354,-135.0847 78.3924,-138.7534"/>
<text text-anchor="middle" x="92" y="-119" font-family="Helvetica,sans-Serif" font-size="10.00" fill="#000000"> col_key</text>
<text text-anchor="middle" x="92" y="-108" font-family="Helvetica,sans-Serif" font-size="10.00" fill="#000000">row_key</text>
</g>
</g>
</svg>
