<?xml version="1.0" encoding="UTF-8" standalone="no"?>
<!DOCTYPE svg PUBLIC "-//W3C//DTD SVG 1.1//EN"
 "http://www.w3.org/Graphics/SVG/1.1/DTD/svg11.dtd">
<!-- Generated by graphviz version 2.40.1 (20161225.0304)
 -->
<!-- Title: tdsdbopen Pages: 1 -->
<svg width="186pt" height="66pt"
 viewBox="0.00 0.00 186.00 66.00" xmlns="http://www.w3.org/2000/svg" xmlns:xlink="http://www.w3.org/1999/xlink">
<g id="graph0" class="graph" transform="scale(1 1) rotate(0) translate(4 62)">
<title>tdsdbopen</title>
<polygon fill="#ffffff" stroke="transparent" points="-4,4 -4,-62 182,-62 182,4 -4,4"/>
<!-- Node1 -->
<g id="node1" class="node">
<title>Node1</title>
<g id="a_node1"><a xlink:title="Form a connection with the server.">
<polygon fill="#bfbfbf" stroke="#000000" points="0,-19.5 0,-38.5 62,-38.5 62,-19.5 0,-19.5"/>
<text text-anchor="middle" x="31" y="-26.5" font-family="Helvetica,sans-Serif" font-size="10.00" fill="#000000">tdsdbopen</text>
</a>
</g>
</g>
<!-- Node2 -->
<g id="node2" class="node">
<title>Node2</title>
<g id="a_node2"><a xlink:href="a00437.html#ab45c291105027e69836002e1dd586141" target="_top" xlink:title="Write a message to the debug log.">
<polygon fill="#ffffff" stroke="#000000" points="102,-38.5 102,-57.5 174,-57.5 174,-38.5 102,-38.5"/>
<text text-anchor="middle" x="138" y="-45.5" font-family="Helvetica,sans-Serif" font-size="10.00" fill="#000000">tdsdump_log</text>
</a>
</g>
</g>
<!-- Node1&#45;&gt;Node2 -->
<g id="edge1" class="edge">
<title>Node1&#45;&gt;Node2</title>
<path fill="none" stroke="#191970" d="M62.2365,-34.5467C71.3928,-36.1725 81.608,-37.9865 91.4986,-39.7427"/>
<polygon fill="#191970" stroke="#191970" points="91.1721,-43.2394 101.63,-41.5418 92.396,-36.3473 91.1721,-43.2394"/>
</g>
<!-- Node3 -->
<g id="node3" class="node">
<title>Node3</title>
<g id="a_node3"><a xlink:href="a00437.html#a24471508ddfde7cc0f8577801e70c42f" target="_top" xlink:title="Create and truncate a human readable dump file for the TDS traffic.">
<polygon fill="#ffffff" stroke="#000000" points="98,-.5 98,-19.5 178,-19.5 178,-.5 98,-.5"/>
<text text-anchor="middle" x="138" y="-7.5" font-family="Helvetica,sans-Serif" font-size="10.00" fill="#000000">tdsdump_open</text>
</a>
</g>
</g>
<!-- Node1&#45;&gt;Node3 -->
<g id="edge2" class="edge">
<title>Node1&#45;&gt;Node3</title>
<path fill="none" stroke="#191970" d="M62.2365,-23.4533C70.2169,-22.0362 79.0018,-20.4763 87.675,-18.9362"/>
<polygon fill="#191970" stroke="#191970" points="88.5163,-22.3417 97.7504,-17.1471 87.2924,-15.4495 88.5163,-22.3417"/>
</g>
</g>
</svg>
