<?xml version="1.0" encoding="UTF-8" standalone="no"?>
<!DOCTYPE svg PUBLIC "-//W3C//DTD SVG 1.1//EN"
 "http://www.w3.org/Graphics/SVG/1.1/DTD/svg11.dtd">
<!-- Generated by graphviz version 2.40.1 (20161225.0304)
 -->
<!-- Title: tds_get_byte Pages: 1 -->
<svg width="248pt" height="78pt"
 viewBox="0.00 0.00 248.00 77.50" xmlns="http://www.w3.org/2000/svg" xmlns:xlink="http://www.w3.org/1999/xlink">
<g id="graph0" class="graph" transform="scale(1 1) rotate(0) translate(4 73.5)">
<title>tds_get_byte</title>
<polygon fill="#ffffff" stroke="transparent" points="-4,4 -4,-73.5 244,-73.5 244,4 -4,4"/>
<!-- Node1 -->
<g id="node1" class="node">
<title>Node1</title>
<g id="a_node1"><a xlink:title="Return a single byte from the input buffer.">
<polygon fill="#bfbfbf" stroke="#000000" points="167,-28 167,-47 240,-47 240,-28 167,-28"/>
<text text-anchor="middle" x="203.5" y="-35" font-family="Helvetica,sans-Serif" font-size="10.00" fill="#000000">tds_get_byte</text>
</a>
</g>
</g>
<!-- Node2 -->
<g id="node2" class="node">
<title>Node2</title>
<g id="a_node2"><a xlink:href="a00561.html#ga221e98a9c8be96ec6c8547891e1b53af" target="_top" xlink:title="Reads a byte from the TDS stream without removing it.">
<polygon fill="#ffffff" stroke="#000000" points="37.5,-50 37.5,-69 93.5,-69 93.5,-50 37.5,-50"/>
<text text-anchor="middle" x="65.5" y="-57" font-family="Helvetica,sans-Serif" font-size="10.00" fill="#000000">tds_peek</text>
</a>
</g>
</g>
<!-- Node1&#45;&gt;Node2 -->
<g id="edge1" class="edge">
<title>Node1&#45;&gt;Node2</title>
<path fill="none" stroke="#191970" d="M156.8505,-44.9369C135.83,-48.288 111.7068,-52.1337 93.5303,-55.0314"/>
<polygon fill="#191970" stroke="#191970" points="157.5566,-48.3686 166.8808,-43.3378 156.4545,-41.4559 157.5566,-48.3686"/>
</g>
<!-- Node3 -->
<g id="node3" class="node">
<title>Node3</title>
<g id="a_node3"><a xlink:href="a00562.html#ga9fdef8228d29cab7fa9098f07fa73fba" target="_top" xlink:title="Process parameters from networks.">
<polygon fill="#ffffff" stroke="#000000" points="0,-.5 0,-30.5 131,-30.5 131,-.5 0,-.5"/>
<text text-anchor="start" x="8" y="-18.5" font-family="Helvetica,sans-Serif" font-size="10.00" fill="#000000">tds_process_param_result</text>
<text text-anchor="middle" x="65.5" y="-7.5" font-family="Helvetica,sans-Serif" font-size="10.00" fill="#000000">_tokens</text>
</a>
</g>
</g>
<!-- Node1&#45;&gt;Node3 -->
<g id="edge2" class="edge">
<title>Node1&#45;&gt;Node3</title>
<path fill="none" stroke="#191970" d="M156.7311,-30.0441C148.4854,-28.7296 139.7656,-27.3394 131.1168,-25.9606"/>
<polygon fill="#191970" stroke="#191970" points="156.4545,-33.5441 166.8808,-31.6622 157.5566,-26.6314 156.4545,-33.5441"/>
</g>
</g>
</svg>
