<?xml version="1.0" encoding="UTF-8" standalone="no"?>
<!DOCTYPE svg PUBLIC "-//W3C//DTD SVG 1.1//EN"
 "http://www.w3.org/Graphics/SVG/1.1/DTD/svg11.dtd">
<!-- Generated by graphviz version 2.40.1 (20161225.0304)
 -->
<!-- Title: _options::pivot_t Pages: 1 -->
<svg width="125pt" height="173pt"
 viewBox="0.00 0.00 124.50 173.00" xmlns="http://www.w3.org/2000/svg" xmlns:xlink="http://www.w3.org/1999/xlink">
<g id="graph0" class="graph" transform="scale(1 1) rotate(0) translate(4 169)">
<title>_options::pivot_t</title>
<polygon fill="#ffffff" stroke="transparent" points="-4,4 -4,-169 120.5,-169 120.5,4 -4,4"/>
<!-- Node1 -->
<g id="node1" class="node">
<title>Node1</title>
<g id="a_node1"><a xlink:title=" ">
<polygon fill="#bfbfbf" stroke="#000000" points="0,-.5 0,-19.5 89,-19.5 89,-.5 0,-.5"/>
<text text-anchor="middle" x="44.5" y="-7.5" font-family="Helvetica,sans-Serif" font-size="10.00" fill="#000000">_options::pivot_t</text>
</a>
</g>
</g>
<!-- Node2 -->
<g id="node2" class="node">
<title>Node2</title>
<g id="a_node2"><a xlink:href="a00620.html" target="_top" xlink:title=" ">
<polygon fill="#ffffff" stroke="#000000" points="25.5,-145.5 25.5,-164.5 63.5,-164.5 63.5,-145.5 25.5,-145.5"/>
<text text-anchor="middle" x="44.5" y="-152.5" font-family="Helvetica,sans-Serif" font-size="10.00" fill="#000000">col_t</text>
</a>
</g>
</g>
<!-- Node2&#45;&gt;Node1 -->
<g id="edge1" class="edge">
<title>Node2&#45;&gt;Node1</title>
<path fill="none" stroke="#9a32cd" stroke-dasharray="5,2" d="M41.4633,-135.1881C39.9393,-124.2515 38.2591,-110.4084 37.5,-98 35.7594,-69.5468 40.2434,-35.985 42.8257,-19.7584"/>
<polygon fill="#9a32cd" stroke="#9a32cd" points="38.0393,-135.963 42.9498,-145.3511 44.9656,-134.9498 38.0393,-135.963"/>
<text text-anchor="middle" x="48.5" y="-85.5" font-family="Helvetica,sans-Serif" font-size="10.00" fill="#000000"> func</text>
</g>
<!-- Node3 -->
<g id="node3" class="node">
<title>Node3</title>
<g id="a_node3"><a xlink:href="a00580.html" target="_top" xlink:title=" ">
<polygon fill="#ffffff" stroke="#000000" points="68.5,-78.5 68.5,-97.5 116.5,-97.5 116.5,-78.5 68.5,-78.5"/>
<text text-anchor="middle" x="92.5" y="-85.5" font-family="Helvetica,sans-Serif" font-size="10.00" fill="#000000">KEY_T</text>
</a>
</g>
</g>
<!-- Node2&#45;&gt;Node3 -->
<g id="edge3" class="edge">
<title>Node2&#45;&gt;Node3</title>
<path fill="none" stroke="#9a32cd" stroke-dasharray="5,2" d="M57.4096,-136.9803C66.4948,-124.2989 78.2981,-107.8235 85.6355,-97.5817"/>
<polygon fill="#9a32cd" stroke="#9a32cd" points="54.3559,-135.233 51.3772,-145.4005 60.0463,-139.3097 54.3559,-135.233"/>
<text text-anchor="middle" x="83" y="-119" font-family="Helvetica,sans-Serif" font-size="10.00" fill="#000000"> keys</text>
</g>
<!-- Node3&#45;&gt;Node1 -->
<g id="edge2" class="edge">
<title>Node3&#45;&gt;Node1</title>
<path fill="none" stroke="#9a32cd" stroke-dasharray="5,2" d="M81.1959,-69.6308C71.5591,-53.9711 58.0875,-32.0796 50.4339,-19.6426"/>
<polygon fill="#9a32cd" stroke="#9a32cd" points="78.3924,-71.7534 86.6143,-78.4357 84.354,-68.0847 78.3924,-71.7534"/>
<text text-anchor="middle" x="92" y="-52" font-family="Helvetica,sans-Serif" font-size="10.00" fill="#000000"> col_key</text>
<text text-anchor="middle" x="92" y="-41" font-family="Helvetica,sans-Serif" font-size="10.00" fill="#000000">row_key</text>
</g>
</g>
</svg>
