<?xml version="1.0" encoding="UTF-8" standalone="no"?>
<!DOCTYPE svg PUBLIC "-//W3C//DTD SVG 1.1//EN"
 "http://www.w3.org/Graphics/SVG/1.1/DTD/svg11.dtd">
<!-- Generated by graphviz version 2.40.1 (20161225.0304)
 -->
<!-- Title: tds_read_packet Pages: 1 -->
<svg width="540pt" height="393pt"
 viewBox="0.00 0.00 540.00 393.00" xmlns="http://www.w3.org/2000/svg" xmlns:xlink="http://www.w3.org/1999/xlink">
<g id="graph0" class="graph" transform="scale(1 1) rotate(0) translate(4 389)">
<title>tds_read_packet</title>
<polygon fill="#ffffff" stroke="transparent" points="-4,4 -4,-389 536,-389 536,4 -4,4"/>
<!-- Node1 -->
<g id="node1" class="node">
<title>Node1</title>
<g id="a_node1"><a xlink:title="Read in one &#39;packet&#39; from the server.">
<polygon fill="#bfbfbf" stroke="#000000" points="443,-232.5 443,-251.5 532,-251.5 532,-232.5 443,-232.5"/>
<text text-anchor="middle" x="487.5" y="-239.5" font-family="Helvetica,sans-Serif" font-size="10.00" fill="#000000">tds_read_packet</text>
</a>
</g>
</g>
<!-- Node2 -->
<g id="node2" class="node">
<title>Node2</title>
<g id="a_node2"><a xlink:href="a00561.html#ga0cb72d3f6943795c39db1fa692be0a58" target="_top" xlink:title="Return a single byte from the input buffer.">
<polygon fill="#ffffff" stroke="#000000" points="334,-273.5 334,-292.5 407,-292.5 407,-273.5 334,-273.5"/>
<text text-anchor="middle" x="370.5" y="-280.5" font-family="Helvetica,sans-Serif" font-size="10.00" fill="#000000">tds_get_byte</text>
</a>
</g>
</g>
<!-- Node1&#45;&gt;Node2 -->
<g id="edge1" class="edge">
<title>Node1&#45;&gt;Node2</title>
<path fill="none" stroke="#191970" d="M450.6871,-254.9002C433.5963,-260.8893 413.6287,-267.8865 397.8944,-273.4003"/>
<polygon fill="#191970" stroke="#191970" points="452.0839,-258.1195 460.3638,-251.5093 449.7689,-251.5134 452.0839,-258.1195"/>
</g>
<!-- Node5 -->
<g id="node5" class="node">
<title>Node5</title>
<g id="a_node5"><a xlink:href="a00561.html#gae777dd57e8d1bb40349d7d7d8434fddf" target="_top" xlink:title="Get N bytes from the buffer and return them in the already allocated space &#160;&#160;given to us.">
<polygon fill="#ffffff" stroke="#000000" points="341,-191.5 341,-210.5 400,-210.5 400,-191.5 341,-191.5"/>
<text text-anchor="middle" x="370.5" y="-198.5" font-family="Helvetica,sans-Serif" font-size="10.00" fill="#000000">tds_get_n</text>
</a>
</g>
</g>
<!-- Node1&#45;&gt;Node5 -->
<g id="edge4" class="edge">
<title>Node1&#45;&gt;Node5</title>
<path fill="none" stroke="#191970" d="M450.6871,-229.0998C433.5963,-223.1107 413.6287,-216.1135 397.8944,-210.5997"/>
<polygon fill="#191970" stroke="#191970" points="449.7689,-232.4866 460.3638,-232.4907 452.0839,-225.8805 449.7689,-232.4866"/>
</g>
<!-- Node3 -->
<g id="node3" class="node">
<title>Node3</title>
<g id="a_node3"><a xlink:href="a00561.html#ga221e98a9c8be96ec6c8547891e1b53af" target="_top" xlink:title="Reads a byte from the TDS stream without removing it.">
<polygon fill="#ffffff" stroke="#000000" points="204.5,-317.5 204.5,-336.5 260.5,-336.5 260.5,-317.5 204.5,-317.5"/>
<text text-anchor="middle" x="232.5" y="-324.5" font-family="Helvetica,sans-Serif" font-size="10.00" fill="#000000">tds_peek</text>
</a>
</g>
</g>
<!-- Node2&#45;&gt;Node3 -->
<g id="edge2" class="edge">
<title>Node2&#45;&gt;Node3</title>
<path fill="none" stroke="#191970" d="M334.0373,-295.9695C322.5462,-299.9501 309.7787,-304.2634 298,-308 285.8111,-311.8668 272.249,-315.8525 260.6417,-319.1687"/>
<polygon fill="#191970" stroke="#191970" points="335.4618,-299.1795 343.7501,-292.5799 333.1552,-292.5704 335.4618,-299.1795"/>
</g>
<!-- Node4 -->
<g id="node4" class="node">
<title>Node4</title>
<g id="a_node4"><a xlink:href="a00562.html#ga9fdef8228d29cab7fa9098f07fa73fba" target="_top" xlink:title="Process parameters from networks.">
<polygon fill="#ffffff" stroke="#000000" points="167,-268 167,-298 298,-298 298,-268 167,-268"/>
<text text-anchor="start" x="175" y="-286" font-family="Helvetica,sans-Serif" font-size="10.00" fill="#000000">tds_process_param_result</text>
<text text-anchor="middle" x="232.5" y="-275" font-family="Helvetica,sans-Serif" font-size="10.00" fill="#000000">_tokens</text>
</a>
</g>
</g>
<!-- Node2&#45;&gt;Node4 -->
<g id="edge3" class="edge">
<title>Node2&#45;&gt;Node4</title>
<path fill="none" stroke="#191970" d="M323.7311,-283C315.4854,-283 306.7656,-283 298.1168,-283"/>
<polygon fill="#191970" stroke="#191970" points="323.8809,-286.5001 333.8808,-283 323.8808,-279.5001 323.8809,-286.5001"/>
</g>
<!-- Node6 -->
<g id="node6" class="node">
<title>Node6</title>
<g id="a_node6"><a xlink:href="a00561.html#ga9ac121c269e203337a48c5bf8afc48c3" target="_top" xlink:title="Get an int32 from the server.">
<polygon fill="#ffffff" stroke="#000000" points="197.5,-153.5 197.5,-172.5 267.5,-172.5 267.5,-153.5 197.5,-153.5"/>
<text text-anchor="middle" x="232.5" y="-160.5" font-family="Helvetica,sans-Serif" font-size="10.00" fill="#000000">tds_get_uint</text>
</a>
</g>
</g>
<!-- Node5&#45;&gt;Node6 -->
<g id="edge5" class="edge">
<title>Node5&#45;&gt;Node6</title>
<path fill="none" stroke="#191970" d="M331.1155,-190.155C311.0371,-184.6262 286.8295,-177.9603 267.4235,-172.6166"/>
<polygon fill="#191970" stroke="#191970" points="330.3252,-193.5676 340.8955,-192.848 332.1836,-186.8188 330.3252,-193.5676"/>
</g>
<!-- Node8 -->
<g id="node8" class="node">
<title>Node8</title>
<g id="a_node8"><a xlink:href="a00561.html#ga8ab6c87318eaf15ea17a9575763f7809" target="_top" xlink:title="Get an uint64 from the server.">
<polygon fill="#ffffff" stroke="#000000" points="195,-115.5 195,-134.5 270,-134.5 270,-115.5 195,-115.5"/>
<text text-anchor="middle" x="232.5" y="-122.5" font-family="Helvetica,sans-Serif" font-size="10.00" fill="#000000">tds_get_uint8</text>
</a>
</g>
</g>
<!-- Node5&#45;&gt;Node8 -->
<g id="edge7" class="edge">
<title>Node5&#45;&gt;Node8</title>
<path fill="none" stroke="#191970" d="M353.2081,-184.2431C339.2977,-171.587 318.7179,-154.6363 298,-144 289.3627,-139.5657 279.5384,-136.0228 270.1737,-133.2551"/>
<polygon fill="#191970" stroke="#191970" points="350.8785,-186.8563 360.5783,-191.1183 355.6534,-181.7377 350.8785,-186.8563"/>
</g>
<!-- Node9 -->
<g id="node9" class="node">
<title>Node9</title>
<g id="a_node9"><a xlink:href="a00561.html#gad38aa5b9547817854ccba1fcc7855861" target="_top" xlink:title="Get an int16 from the server.">
<polygon fill="#ffffff" stroke="#000000" points="186,-191.5 186,-210.5 279,-210.5 279,-191.5 186,-191.5"/>
<text text-anchor="middle" x="232.5" y="-198.5" font-family="Helvetica,sans-Serif" font-size="10.00" fill="#000000">tds_get_usmallint</text>
</a>
</g>
</g>
<!-- Node5&#45;&gt;Node9 -->
<g id="edge8" class="edge">
<title>Node5&#45;&gt;Node9</title>
<path fill="none" stroke="#191970" d="M330.7328,-201C314.6232,-201 295.9054,-201 279.1566,-201"/>
<polygon fill="#191970" stroke="#191970" points="330.8956,-204.5001 340.8955,-201 330.8955,-197.5001 330.8956,-204.5001"/>
</g>
<!-- Node12 -->
<g id="node12" class="node">
<title>Node12</title>
<g id="a_node12"><a xlink:href="a00562.html#ga22c7f413d43fc0d511e122a3de389166" target="_top" xlink:title="Reads column information.">
<polygon fill="#ffffff" stroke="#000000" points="13.5,-365.5 13.5,-384.5 117.5,-384.5 117.5,-365.5 13.5,-365.5"/>
<text text-anchor="middle" x="65.5" y="-372.5" font-family="Helvetica,sans-Serif" font-size="10.00" fill="#000000">tds_process_colinfo</text>
</a>
</g>
</g>
<!-- Node5&#45;&gt;Node12 -->
<g id="edge19" class="edge">
<title>Node5&#45;&gt;Node12</title>
<path fill="none" stroke="#191970" d="M330.9213,-211.2974C273.4775,-226.3835 173.1372,-253.3222 167,-259 133.2453,-290.228 164.6816,-324.6931 131,-356 126.8372,-359.8693 121.9327,-362.9556 116.711,-365.4164"/>
<polygon fill="#191970" stroke="#191970" points="331.9885,-214.636 340.7747,-208.7154 330.2141,-207.8647 331.9885,-214.636"/>
</g>
<!-- Node7 -->
<g id="node7" class="node">
<title>Node7</title>
<g id="a_node7"><a xlink:href="a00562.html#gae688b515631141acfbc41bbb91c8b921" target="_top" xlink:title="Process new TDS 5.0 token for describing output parameters.">
<polygon fill="#ffffff" stroke="#000000" points="0,-.5 0,-19.5 131,-19.5 131,-.5 0,-.5"/>
<text text-anchor="middle" x="65.5" y="-7.5" font-family="Helvetica,sans-Serif" font-size="10.00" fill="#000000">tds5_process_dyn_result2</text>
</a>
</g>
</g>
<!-- Node6&#45;&gt;Node7 -->
<g id="edge6" class="edge">
<title>Node6&#45;&gt;Node7</title>
<path fill="none" stroke="#191970" d="M187.5482,-156.3611C179.9634,-153.5553 172.7105,-149.5915 167,-144 128.733,-106.5302 169.267,-66.4698 131,-29 127.0238,-25.1066 122.2998,-22.0024 117.2367,-19.5289"/>
<polygon fill="#191970" stroke="#191970" points="186.6555,-159.7481 197.2421,-159.3309 188.706,-153.0551 186.6555,-159.7481"/>
</g>
<!-- Node9&#45;&gt;Node7 -->
<g id="edge9" class="edge">
<title>Node9&#45;&gt;Node7</title>
<path fill="none" stroke="#191970" d="M176.5527,-189.5848C173.0495,-187.463 169.8097,-184.9575 167,-182 118.8852,-131.3545 179.1148,-79.6455 131,-29 127.3302,-25.1372 122.9267,-22.0453 118.1607,-19.5727"/>
<polygon fill="#191970" stroke="#191970" points="175.1925,-192.8166 185.7085,-194.1069 178.2925,-186.5404 175.1925,-192.8166"/>
</g>
<!-- Node10 -->
<g id="node10" class="node">
<title>Node10</title>
<g id="a_node10"><a xlink:href="a00562.html#ga4e3dd9d3614f5f0433b78b761dd68741" target="_top" xlink:title="tds_process_col_fmt() is the other half of result set processing under TDS 4.2.">
<polygon fill="#ffffff" stroke="#000000" points="12,-251.5 12,-270.5 119,-270.5 119,-251.5 12,-251.5"/>
<text text-anchor="middle" x="65.5" y="-258.5" font-family="Helvetica,sans-Serif" font-size="10.00" fill="#000000">tds_process_col_fmt</text>
</a>
</g>
</g>
<!-- Node9&#45;&gt;Node10 -->
<g id="edge10" class="edge">
<title>Node9&#45;&gt;Node10</title>
<path fill="none" stroke="#191970" d="M194.8818,-214.1258C185.6979,-217.5107 175.9434,-221.2588 167,-225 150.6765,-231.8285 147.549,-235.7377 131,-242 121.8086,-245.4781 111.6921,-248.6981 102.2164,-251.4617"/>
<polygon fill="#191970" stroke="#191970" points="196.3527,-217.3154 204.558,-210.613 193.9639,-210.7356 196.3527,-217.3154"/>
</g>
<!-- Node11 -->
<g id="node11" class="node">
<title>Node11</title>
<g id="a_node11"><a xlink:href="a00562.html#ga905d2fa5e1b602817bd16bb0fcf9eadb" target="_top" xlink:title="tds_process_col_name() is one half of the result set under TDS 4.2 it contains all the column names,...">
<polygon fill="#ffffff" stroke="#000000" points="7,-213.5 7,-232.5 124,-232.5 124,-213.5 7,-213.5"/>
<text text-anchor="middle" x="65.5" y="-220.5" font-family="Helvetica,sans-Serif" font-size="10.00" fill="#000000">tds_process_col_name</text>
</a>
</g>
</g>
<!-- Node9&#45;&gt;Node11 -->
<g id="edge11" class="edge">
<title>Node9&#45;&gt;Node11</title>
<path fill="none" stroke="#191970" d="M175.8682,-208.4605C159.2527,-210.6494 141.0484,-213.0475 124.3009,-215.2538"/>
<polygon fill="#191970" stroke="#191970" points="176.524,-211.9044 185.9812,-207.1282 175.6097,-204.9644 176.524,-211.9044"/>
</g>
<!-- Node9&#45;&gt;Node12 -->
<g id="edge12" class="edge">
<title>Node9&#45;&gt;Node12</title>
<path fill="none" stroke="#191970" d="M179.3308,-215.1875C174.7679,-217.9063 170.5482,-221.1443 167,-225 126.1132,-269.4308 173.3927,-313.0036 131,-356 127.176,-359.8784 122.6115,-362.9765 117.6959,-365.4494"/>
<polygon fill="#191970" stroke="#191970" points="181.1026,-218.2135 188.4423,-210.5728 177.9398,-211.9687 181.1026,-218.2135"/>
</g>
<!-- Node13 -->
<g id="node13" class="node">
<title>Node13</title>
<g id="a_node13"><a xlink:href="a00562.html#gae5b3e01f3d665f9e377de091f46f1ab9" target="_top" xlink:title="tds_process_compute_names() processes compute result sets.">
<polygon fill="#ffffff" stroke="#000000" points="9,-164 9,-194 122,-194 122,-164 9,-164"/>
<text text-anchor="start" x="17" y="-182" font-family="Helvetica,sans-Serif" font-size="10.00" fill="#000000">tds_process_compute</text>
<text text-anchor="middle" x="65.5" y="-171" font-family="Helvetica,sans-Serif" font-size="10.00" fill="#000000">_names</text>
</a>
</g>
</g>
<!-- Node9&#45;&gt;Node13 -->
<g id="edge13" class="edge">
<title>Node9&#45;&gt;Node13</title>
<path fill="none" stroke="#191970" d="M175.9893,-193.5555C158.6321,-191.2689 139.5316,-188.7527 122.1642,-186.4647"/>
<polygon fill="#191970" stroke="#191970" points="175.6097,-197.0356 185.9812,-194.8718 176.524,-190.0956 175.6097,-197.0356"/>
</g>
<!-- Node14 -->
<g id="node14" class="node">
<title>Node14</title>
<g id="a_node14"><a xlink:href="a00562.html#ga315d875d90c64d12d61fc9e33b4dee96" target="_top" xlink:title="Reads cursor command results.">
<polygon fill="#ffffff" stroke="#000000" points="14.5,-115 14.5,-145 116.5,-145 116.5,-115 14.5,-115"/>
<text text-anchor="start" x="22.5" y="-133" font-family="Helvetica,sans-Serif" font-size="10.00" fill="#000000">tds_process_cursor</text>
<text text-anchor="middle" x="65.5" y="-122" font-family="Helvetica,sans-Serif" font-size="10.00" fill="#000000">_tokens</text>
</a>
</g>
</g>
<!-- Node9&#45;&gt;Node14 -->
<g id="edge14" class="edge">
<title>Node9&#45;&gt;Node14</title>
<path fill="none" stroke="#191970" d="M181.2237,-188.1884C176.3174,-186.3526 171.4991,-184.2949 167,-182 148.9436,-172.7896 148.7285,-163.8267 131,-154 125.0682,-150.7121 118.5973,-147.7142 112.107,-145.0367"/>
<polygon fill="#191970" stroke="#191970" points="180.1116,-191.507 190.7063,-191.4491 182.3879,-184.8875 180.1116,-191.507"/>
</g>
<!-- Node15 -->
<g id="node15" class="node">
<title>Node15</title>
<g id="a_node15"><a xlink:href="a00562.html#ga416cf119c1d4a0fca27dc5b50c261358" target="_top" xlink:title="Process results from dynamic.">
<polygon fill="#ffffff" stroke="#000000" points="5.5,-76.5 5.5,-95.5 125.5,-95.5 125.5,-76.5 5.5,-76.5"/>
<text text-anchor="middle" x="65.5" y="-83.5" font-family="Helvetica,sans-Serif" font-size="10.00" fill="#000000">tds_process_dyn_result</text>
</a>
</g>
</g>
<!-- Node9&#45;&gt;Node15 -->
<g id="edge15" class="edge">
<title>Node9&#45;&gt;Node15</title>
<path fill="none" stroke="#191970" d="M176.5544,-188.5461C173.1417,-186.6627 169.9151,-184.4949 167,-182 138.299,-157.4356 159.701,-129.5644 131,-105 126.5023,-101.1505 121.2628,-98.0799 115.743,-95.6309"/>
<polygon fill="#191970" stroke="#191970" points="175.3914,-191.8648 185.9359,-192.897 178.3366,-185.5145 175.3914,-191.8648"/>
</g>
<!-- Node16 -->
<g id="node16" class="node">
<title>Node16</title>
<g id="a_node16"><a xlink:href="a00562.html#ga7a081cf9bb8f04ead12f0299fb7c4cd9" target="_top" xlink:title="tds_process_end() processes any of the DONE, DONEPROC, or DONEINPROC tokens.">
<polygon fill="#ffffff" stroke="#000000" points="20,-38.5 20,-57.5 111,-57.5 111,-38.5 20,-38.5"/>
<text text-anchor="middle" x="65.5" y="-45.5" font-family="Helvetica,sans-Serif" font-size="10.00" fill="#000000">tds_process_end</text>
</a>
</g>
</g>
<!-- Node9&#45;&gt;Node16 -->
<g id="edge16" class="edge">
<title>Node9&#45;&gt;Node16</title>
<path fill="none" stroke="#191970" d="M176.6195,-189.2535C173.1261,-187.2067 169.8685,-184.8087 167,-182 128.733,-144.5302 169.267,-104.4698 131,-67 125.501,-61.6156 118.5718,-57.7405 111.2931,-54.9555"/>
<polygon fill="#191970" stroke="#191970" points="175.1757,-192.4431 185.7014,-193.6519 178.2269,-186.1431 175.1757,-192.4431"/>
</g>
<!-- Node17 -->
<g id="node17" class="node">
<title>Node17</title>
<g id="a_node17"><a xlink:href="a00562.html#ga3e1b4df4410a86a563a8c155e7799720" target="_top" xlink:title="tds_process_env_chg() when ever certain things change on the server, such as database,...">
<polygon fill="#ffffff" stroke="#000000" points="9.5,-327.5 9.5,-346.5 121.5,-346.5 121.5,-327.5 9.5,-327.5"/>
<text text-anchor="middle" x="65.5" y="-334.5" font-family="Helvetica,sans-Serif" font-size="10.00" fill="#000000">tds_process_env_chg</text>
</a>
</g>
</g>
<!-- Node9&#45;&gt;Node17 -->
<g id="edge17" class="edge">
<title>Node9&#45;&gt;Node17</title>
<path fill="none" stroke="#191970" d="M180.6897,-215.029C175.6867,-217.7854 170.9964,-221.0753 167,-225 135.377,-256.0553 163.6737,-288.0522 131,-318 126.8103,-321.8402 121.889,-324.9082 116.6578,-327.3587"/>
<polygon fill="#191970" stroke="#191970" points="182.4249,-218.0794 189.9505,-210.6217 179.4168,-211.7587 182.4249,-218.0794"/>
</g>
<!-- Node18 -->
<g id="node18" class="node">
<title>Node18</title>
<g id="a_node18"><a xlink:href="a00562.html#gaeec59bca9bd0c5388e245f0d19d9c81a" target="_top" xlink:title="Process list of table from network.">
<polygon fill="#ffffff" stroke="#000000" points="9,-289.5 9,-308.5 122,-308.5 122,-289.5 9,-289.5"/>
<text text-anchor="middle" x="65.5" y="-296.5" font-family="Helvetica,sans-Serif" font-size="10.00" fill="#000000">tds_process_tabname</text>
</a>
</g>
</g>
<!-- Node9&#45;&gt;Node18 -->
<g id="edge18" class="edge">
<title>Node9&#45;&gt;Node18</title>
<path fill="none" stroke="#191970" d="M184.6765,-214.3704C178.3811,-217.2903 172.2885,-220.7996 167,-225 144.1227,-243.1703 154.4895,-262.6283 131,-280 125.7641,-283.8722 119.7547,-286.9576 113.5458,-289.4154"/>
<polygon fill="#191970" stroke="#191970" points="186.0864,-217.5747 193.975,-210.5022 183.3977,-211.1116 186.0864,-217.5747"/>
</g>
</g>
</svg>
