<?xml version="1.0" encoding="UTF-8" standalone="no"?>
<!DOCTYPE svg PUBLIC "-//W3C//DTD SVG 1.1//EN"
 "http://www.w3.org/Graphics/SVG/1.1/DTD/svg11.dtd">
<!-- Generated by graphviz version 2.40.1 (20161225.0304)
 -->
<!-- Title: The db&#45;lib API Pages: 1 -->
<svg width="263pt" height="249pt"
 viewBox="0.00 0.00 263.00 249.00" xmlns="http://www.w3.org/2000/svg" xmlns:xlink="http://www.w3.org/1999/xlink">
<g id="graph0" class="graph" transform="scale(1 1) rotate(0) translate(4 245)">
<title>The db&#45;lib API</title>
<polygon fill="#ffffff" stroke="transparent" points="-4,4 -4,-245 259,-245 259,4 -4,4"/>
<!-- Node1 -->
<g id="node1" class="node">
<title>Node1</title>
<g id="a_node1"><a xlink:title="Functions callable by db&#45;lib client programs.">
<polygon fill="#bfbfbf" stroke="#000000" points="78,-130 0,-130 0,-111 78,-111 78,-130"/>
<text text-anchor="middle" x="39" y="-118" font-family="Helvetica,sans-Serif" font-size="10.00" fill="#000000">The db&#45;lib API</text>
</a>
</g>
</g>
<!-- Node3 -->
<g id="node2" class="node">
<title>Node3</title>
<g id="a_node2"><a xlink:href="a00546.html" target="_top" xlink:title="Functions used with stored procedures. &#160;&#160;Especially useful for OUTPUT parameters, because modern Micr...">
<polygon fill="#ffffff" stroke="#000000" points="255,-241 114,-241 114,-222 255,-222 255,-241"/>
<text text-anchor="middle" x="184.5" y="-229" font-family="Helvetica,sans-Serif" font-size="10.00" fill="#000000">Remote Procedure functions</text>
</a>
</g>
</g>
<!-- Node1&#45;&gt;Node3 -->
<g id="edge2" class="edge">
<title>Node1&#45;&gt;Node3</title>
<path fill="none" stroke="#000000" d="M48.8579,-138.8191C61.2413,-160.0503 84.4903,-194.5412 114,-213.5 119.3139,-216.914 125.2415,-219.681 131.3402,-221.9236"/>
<polygon fill="#000000" stroke="#000000" points="51.9052,-137.0975 43.9493,-130.1007 45.8055,-140.5317 51.9052,-137.0975"/>
</g>
<!-- Node5 -->
<g id="node3" class="node">
<title>Node5</title>
<g id="a_node3"><a xlink:href="a00549.html" target="_top" xlink:title="Functions to manipulate the MONEY datatype.">
<polygon fill="#ffffff" stroke="#000000" points="229,-204 140,-204 140,-185 229,-185 229,-204"/>
<text text-anchor="middle" x="184.5" y="-192" font-family="Helvetica,sans-Serif" font-size="10.00" fill="#000000">Money functions</text>
</a>
</g>
</g>
<!-- Node1&#45;&gt;Node5 -->
<g id="edge4" class="edge">
<title>Node1&#45;&gt;Node5</title>
<path fill="none" stroke="#000000" d="M56.9468,-137.109C71.3688,-149.6224 92.6726,-166.3113 114,-176.5 122.0928,-180.3662 131.1195,-183.4724 139.9395,-185.9428"/>
<polygon fill="#000000" stroke="#000000" points="59.099,-134.339 49.3024,-130.3045 54.4448,-139.5676 59.099,-134.339"/>
</g>
<!-- Node7 -->
<g id="node4" class="node">
<title>Node7</title>
<g id="a_node4"><a xlink:href="a00551.html" target="_top" xlink:title="Functions called within db&#45;lib for self&#45;help. &#160;&#160;These functions are of interest only to people hackin...">
<polygon fill="#ffffff" stroke="#000000" points="211.5,-167 157.5,-167 157.5,-148 211.5,-148 211.5,-167"/>
<text text-anchor="middle" x="184.5" y="-155" font-family="Helvetica,sans-Serif" font-size="10.00" fill="#000000">Internals</text>
</a>
</g>
</g>
<!-- Node1&#45;&gt;Node7 -->
<g id="edge6" class="edge">
<title>Node1&#45;&gt;Node7</title>
<path fill="none" stroke="#000000" d="M86.2593,-132.5178C109.7613,-138.4943 137.3262,-145.5039 157.2659,-150.5745"/>
<polygon fill="#000000" stroke="#000000" points="87.024,-129.101 76.4699,-130.0284 85.2988,-135.8851 87.024,-129.101"/>
</g>
<!-- Node2 -->
<g id="node5" class="node">
<title>Node2</title>
<g id="a_node5"><a xlink:href="a00545.html" target="_top" xlink:title="Core functions needed by most db&#45;lib programs.">
<polygon fill="#ffffff" stroke="#000000" points="231,-130 138,-130 138,-111 231,-111 231,-130"/>
<text text-anchor="middle" x="184.5" y="-118" font-family="Helvetica,sans-Serif" font-size="10.00" fill="#000000">Primary functions</text>
</a>
</g>
</g>
<!-- Node1&#45;&gt;Node2 -->
<g id="edge1" class="edge">
<title>Node1&#45;&gt;Node2</title>
<path fill="none" stroke="#000000" d="M88.5777,-120.5C104.5243,-120.5 122.1296,-120.5 137.8578,-120.5"/>
<polygon fill="#000000" stroke="#000000" points="88.3744,-117.0001 78.3744,-120.5 88.3744,-124.0001 88.3744,-117.0001"/>
</g>
<!-- Node6 -->
<g id="node6" class="node">
<title>Node6</title>
<g id="a_node6"><a xlink:href="a00550.html" target="_top" xlink:title="Functions to manipulate DBDATETIME structures. Defined by Sybase only. &#160;&#160;These are not implemented:">
<polygon fill="#ffffff" stroke="#000000" points="234,-93 135,-93 135,-74 234,-74 234,-93"/>
<text text-anchor="middle" x="184.5" y="-81" font-family="Helvetica,sans-Serif" font-size="10.00" fill="#000000">Datetime functions</text>
</a>
</g>
</g>
<!-- Node1&#45;&gt;Node6 -->
<g id="edge5" class="edge">
<title>Node1&#45;&gt;Node6</title>
<path fill="none" stroke="#000000" d="M86.1639,-108.5064C105.8386,-103.5032 128.3744,-97.7725 146.9045,-93.0604"/>
<polygon fill="#000000" stroke="#000000" points="85.2988,-105.1149 76.4699,-110.9716 87.024,-111.899 85.2988,-105.1149"/>
</g>
<!-- Node8 -->
<g id="node7" class="node">
<title>Node8</title>
<g id="a_node7"><a xlink:href="a00552.html" target="_top" xlink:title="Functions thus far not implemented in the FreeTDS db&#45;lib implementation. &#160;&#160;While some of these are si...">
<polygon fill="#ffffff" stroke="#000000" points="227,-56 142,-56 142,-37 227,-37 227,-56"/>
<text text-anchor="middle" x="184.5" y="-44" font-family="Helvetica,sans-Serif" font-size="10.00" fill="#000000">Unimplemented</text>
</a>
</g>
</g>
<!-- Node1&#45;&gt;Node8 -->
<g id="edge7" class="edge">
<title>Node1&#45;&gt;Node8</title>
<path fill="none" stroke="#000000" d="M57.0358,-104.2808C71.5062,-92.0414 92.8317,-75.6733 114,-65.5 122.6833,-61.3269 132.4243,-57.957 141.8298,-55.2813"/>
<polygon fill="#000000" stroke="#000000" points="54.6259,-101.7378 49.361,-110.9319 59.2103,-107.0277 54.6259,-101.7378"/>
</g>
<!-- Node4 -->
<g id="node8" class="node">
<title>Node4</title>
<g id="a_node8"><a xlink:href="a00547.html" target="_top" xlink:title="Functions to bulk&#45;copy (a/k/a bcp) data to/from the database.">
<polygon fill="#ffffff" stroke="#000000" points="236,-19 133,-19 133,0 236,0 236,-19"/>
<text text-anchor="middle" x="184.5" y="-7" font-family="Helvetica,sans-Serif" font-size="10.00" fill="#000000">Bulk copy functions</text>
</a>
</g>
</g>
<!-- Node1&#45;&gt;Node4 -->
<g id="edge3" class="edge">
<title>Node1&#45;&gt;Node4</title>
<path fill="none" stroke="#000000" d="M49.3128,-101.8389C61.8717,-80.8559 85.0386,-47.2703 114,-28.5 119.957,-24.6392 126.6814,-21.5583 133.5523,-19.1009"/>
<polygon fill="#000000" stroke="#000000" points="46.1359,-100.3415 44.1632,-110.7511 52.1968,-103.8436 46.1359,-100.3415"/>
</g>
</g>
</svg>
