<?xml version="1.0" encoding="UTF-8" standalone="no"?>
<!DOCTYPE svg PUBLIC "-//W3C//DTD SVG 1.1//EN"
 "http://www.w3.org/Graphics/SVG/1.1/DTD/svg11.dtd">
<!-- Generated by graphviz version 2.40.1 (20161225.0304)
 -->
<!-- Title: string_to_int8 Pages: 1 -->
<svg width="297pt" height="28pt"
 viewBox="0.00 0.00 297.00 28.00" xmlns="http://www.w3.org/2000/svg" xmlns:xlink="http://www.w3.org/1999/xlink">
<g id="graph0" class="graph" transform="scale(1 1) rotate(0) translate(4 24)">
<title>string_to_int8</title>
<polygon fill="#ffffff" stroke="transparent" points="-4,4 -4,-24 293,-24 293,4 -4,4"/>
<!-- Node1 -->
<g id="node1" class="node">
<title>Node1</title>
<g id="a_node1"><a xlink:title="convert a number in string to TDS_INT8">
<polygon fill="#bfbfbf" stroke="#000000" points="0,-.5 0,-19.5 75,-19.5 75,-.5 0,-.5"/>
<text text-anchor="middle" x="37.5" y="-7.5" font-family="Helvetica,sans-Serif" font-size="10.00" fill="#000000">string_to_int8</text>
</a>
</g>
</g>
<!-- Node2 -->
<g id="node2" class="node">
<title>Node2</title>
<g id="a_node2"><a xlink:href="a00557.html#gace939c1fa676d172cb0cae94848b7fac" target="_top" xlink:title="convert a number in string to TDS_INT8">
<polygon fill="#ffffff" stroke="#000000" points="111,-.5 111,-19.5 173,-19.5 173,-.5 111,-.5"/>
<text text-anchor="middle" x="142" y="-7.5" font-family="Helvetica,sans-Serif" font-size="10.00" fill="#000000">parse_int8</text>
</a>
</g>
</g>
<!-- Node1&#45;&gt;Node2 -->
<g id="edge1" class="edge">
<title>Node1&#45;&gt;Node2</title>
<path fill="none" stroke="#191970" d="M75.2269,-10C83.5395,-10 92.3849,-10 100.826,-10"/>
<polygon fill="#191970" stroke="#191970" points="100.8589,-13.5001 110.8588,-10 100.8588,-6.5001 100.8589,-13.5001"/>
</g>
<!-- Node3 -->
<g id="node3" class="node">
<title>Node3</title>
<g id="a_node3"><a xlink:href="a00557.html#ga53a19b5da172ff364d01e8f04b97015a" target="_top" xlink:title="Parse a string for numbers.">
<polygon fill="#ffffff" stroke="#000000" points="209,-.5 209,-19.5 289,-19.5 289,-.5 209,-.5"/>
<text text-anchor="middle" x="249" y="-7.5" font-family="Helvetica,sans-Serif" font-size="10.00" fill="#000000">parse_numeric</text>
</a>
</g>
</g>
<!-- Node2&#45;&gt;Node3 -->
<g id="edge2" class="edge">
<title>Node2&#45;&gt;Node3</title>
<path fill="none" stroke="#191970" d="M173.2365,-10C181.2169,-10 190.0018,-10 198.675,-10"/>
<polygon fill="#191970" stroke="#191970" points="198.7504,-13.5001 208.7504,-10 198.7503,-6.5001 198.7504,-13.5001"/>
</g>
</g>
</svg>
