<?xml version="1.0" encoding="UTF-8" standalone="no"?>
<!DOCTYPE svg PUBLIC "-//W3C//DTD SVG 1.1//EN"
 "http://www.w3.org/Graphics/SVG/1.1/DTD/svg11.dtd">
<!-- Generated by graphviz version 2.40.1 (20161225.0304)
 -->
<!-- Title: LibTDS API Pages: 1 -->
<svg width="237pt" height="323pt"
 viewBox="0.00 0.00 237.00 323.00" xmlns="http://www.w3.org/2000/svg" xmlns:xlink="http://www.w3.org/1999/xlink">
<g id="graph0" class="graph" transform="scale(1 1) rotate(0) translate(4 319)">
<title>LibTDS API</title>
<polygon fill="#ffffff" stroke="transparent" points="-4,4 -4,-319 233,-319 233,4 -4,4"/>
<!-- Node8 -->
<g id="node1" class="node">
<title>Node8</title>
<g id="a_node1"><a xlink:href="a00561.html" target="_top" xlink:title="Functions for reading or writing from network.">
<polygon fill="#ffffff" stroke="#000000" points="214.5,-315 118.5,-315 118.5,-296 214.5,-296 214.5,-315"/>
<text text-anchor="middle" x="166.5" y="-303" font-family="Helvetica,sans-Serif" font-size="10.00" fill="#000000">Network functions</text>
</a>
</g>
</g>
<!-- Node7 -->
<g id="node2" class="node">
<title>Node7</title>
<g id="a_node2"><a xlink:href="a00560.html" target="_top" xlink:title="Function to handle query.">
<polygon fill="#ffffff" stroke="#000000" points="188,-278 145,-278 145,-259 188,-259 188,-278"/>
<text text-anchor="middle" x="166.5" y="-266" font-family="Helvetica,sans-Serif" font-size="10.00" fill="#000000">Query</text>
</a>
</g>
</g>
<!-- Node6 -->
<g id="node3" class="node">
<title>Node6</title>
<g id="a_node3"><a xlink:href="a00559.html" target="_top" xlink:title="Allocate or free resources. Allocation can fail only on out of memory. In such case they return NULL ...">
<polygon fill="#ffffff" stroke="#000000" points="214.5,-241 118.5,-241 118.5,-222 214.5,-222 214.5,-241"/>
<text text-anchor="middle" x="166.5" y="-229" font-family="Helvetica,sans-Serif" font-size="10.00" fill="#000000">Memory allocation</text>
</a>
</g>
</g>
<!-- Node2 -->
<g id="node4" class="node">
<title>Node2</title>
<g id="a_node4"><a xlink:href="a00555.html" target="_top" xlink:title="Functions for handling authentication.">
<polygon fill="#ffffff" stroke="#000000" points="206,-204 127,-204 127,-185 206,-185 206,-204"/>
<text text-anchor="middle" x="166.5" y="-192" font-family="Helvetica,sans-Serif" font-size="10.00" fill="#000000">Authentication</text>
</a>
</g>
</g>
<!-- Node10 -->
<g id="node5" class="node">
<title>Node10</title>
<g id="a_node5"><a xlink:href="a00563.html" target="_top" xlink:title="Handle dynamic string. In this string are always valid (you don&#39;t have NULL pointer,...">
<polygon fill="#ffffff" stroke="#000000" points="229,-167 104,-167 104,-148 229,-148 229,-167"/>
<text text-anchor="middle" x="166.5" y="-155" font-family="Helvetica,sans-Serif" font-size="10.00" fill="#000000">Dynamic string functions</text>
</a>
</g>
</g>
<!-- Node4 -->
<g id="node6" class="node">
<title>Node4</title>
<g id="a_node6"><a xlink:href="a00557.html" target="_top" xlink:title="Conversions between datatypes. Supports, for example, dbconvert().">
<polygon fill="#ffffff" stroke="#000000" points="199.5,-130 133.5,-130 133.5,-111 199.5,-111 199.5,-130"/>
<text text-anchor="middle" x="166.5" y="-118" font-family="Helvetica,sans-Serif" font-size="10.00" fill="#000000">Conversion</text>
</a>
</g>
</g>
<!-- Node9 -->
<g id="node7" class="node">
<title>Node9</title>
<g id="a_node7"><a xlink:href="a00562.html" target="_top" xlink:title="Handle tokens in packets. Many PDU (packets data unit) contain tokens. (like result description,...">
<polygon fill="#ffffff" stroke="#000000" points="217,-93 116,-93 116,-74 217,-74 217,-93"/>
<text text-anchor="middle" x="166.5" y="-81" font-family="Helvetica,sans-Serif" font-size="10.00" fill="#000000">Results processing</text>
</a>
</g>
</g>
<!-- Node3 -->
<g id="node8" class="node">
<title>Node3</title>
<g id="a_node8"><a xlink:href="a00556.html" target="_top" xlink:title="Handle reading of configuration.">
<polygon fill="#ffffff" stroke="#000000" points="203.5,-56 129.5,-56 129.5,-37 203.5,-37 203.5,-56"/>
<text text-anchor="middle" x="166.5" y="-44" font-family="Helvetica,sans-Serif" font-size="10.00" fill="#000000">Configuration</text>
</a>
</g>
</g>
<!-- Node5 -->
<g id="node9" class="node">
<title>Node5</title>
<g id="a_node9"><a xlink:href="a00558.html" target="_top" xlink:title="Convert between different charsets.">
<polygon fill="#ffffff" stroke="#000000" points="217,-19 116,-19 116,0 217,0 217,-19"/>
<text text-anchor="middle" x="166.5" y="-7" font-family="Helvetica,sans-Serif" font-size="10.00" fill="#000000">Charset conversion</text>
</a>
</g>
</g>
<!-- Node1 -->
<g id="node10" class="node">
<title>Node1</title>
<g id="a_node10"><a xlink:title="Callable functions in libtds.">
<polygon fill="#bfbfbf" stroke="#000000" points="68,-167 0,-167 0,-148 68,-148 68,-167"/>
<text text-anchor="middle" x="34" y="-155" font-family="Helvetica,sans-Serif" font-size="10.00" fill="#000000">LibTDS API</text>
</a>
</g>
</g>
<!-- Node1&#45;&gt;Node8 -->
<g id="edge7" class="edge">
<title>Node1&#45;&gt;Node8</title>
<path fill="none" stroke="#000000" d="M39.22,-176.9885C47.8697,-205.5128 67.9054,-258.3932 104,-287.5 108.307,-290.9732 113.255,-293.7763 118.4409,-296.0385"/>
<polygon fill="#000000" stroke="#000000" points="42.5763,-175.9951 36.4527,-167.3492 35.8481,-177.9268 42.5763,-175.9951"/>
</g>
<!-- Node1&#45;&gt;Node7 -->
<g id="edge6" class="edge">
<title>Node1&#45;&gt;Node7</title>
<path fill="none" stroke="#000000" d="M43.1461,-175.9594C54.5426,-197.0737 75.9808,-231.2076 104,-250.5 116.0904,-258.8248 132.0186,-263.3364 144.769,-265.7609"/>
<polygon fill="#000000" stroke="#000000" points="46.217,-174.2783 38.5008,-167.0181 40.0052,-177.5055 46.217,-174.2783"/>
</g>
<!-- Node1&#45;&gt;Node6 -->
<g id="edge5" class="edge">
<title>Node1&#45;&gt;Node6</title>
<path fill="none" stroke="#000000" d="M51.0166,-174.3383C64.4105,-186.7467 84.0836,-203.1926 104,-213.5 110.4181,-216.8216 117.5334,-219.6074 124.5962,-221.9177"/>
<polygon fill="#000000" stroke="#000000" points="53.1992,-171.5837 43.5425,-167.2249 48.3733,-176.6544 53.1992,-171.5837"/>
</g>
<!-- Node1&#45;&gt;Node2 -->
<g id="edge1" class="edge">
<title>Node1&#45;&gt;Node2</title>
<path fill="none" stroke="#000000" d="M78.1407,-169.8261C95.6894,-174.7265 115.5759,-180.2797 132.0331,-184.8753"/>
<polygon fill="#000000" stroke="#000000" points="78.6949,-166.347 68.122,-167.0284 76.8122,-173.0891 78.6949,-166.347"/>
</g>
<!-- Node1&#45;&gt;Node10 -->
<g id="edge9" class="edge">
<title>Node1&#45;&gt;Node10</title>
<path fill="none" stroke="#000000" d="M78.2522,-157.5C86.502,-157.5 95.2652,-157.5 103.9436,-157.5"/>
<polygon fill="#000000" stroke="#000000" points="78.1221,-154.0001 68.122,-157.5 78.122,-161.0001 78.1221,-154.0001"/>
</g>
<!-- Node1&#45;&gt;Node4 -->
<g id="edge3" class="edge">
<title>Node1&#45;&gt;Node4</title>
<path fill="none" stroke="#000000" d="M77.8795,-145.2469C95.9832,-140.1915 116.6121,-134.431 133.4091,-129.7405"/>
<polygon fill="#000000" stroke="#000000" points="76.8122,-141.9109 68.122,-147.9716 78.6949,-148.653 76.8122,-141.9109"/>
</g>
<!-- Node1&#45;&gt;Node9 -->
<g id="edge8" class="edge">
<title>Node1&#45;&gt;Node9</title>
<path fill="none" stroke="#000000" d="M51.5793,-140.6406C65.0106,-128.5552 84.4791,-112.6763 104,-102.5 111.1402,-98.7778 119.1272,-95.6588 126.9422,-93.0947"/>
<polygon fill="#000000" stroke="#000000" points="49.0244,-138.2358 44.0501,-147.5903 53.7723,-143.3795 49.0244,-138.2358"/>
</g>
<!-- Node1&#45;&gt;Node3 -->
<g id="edge2" class="edge">
<title>Node1&#45;&gt;Node3</title>
<path fill="none" stroke="#000000" d="M43.4234,-138.9907C54.9576,-118.1485 76.4064,-84.6934 104,-65.5 111.5413,-60.2545 120.5674,-56.4262 129.3838,-53.6436"/>
<polygon fill="#000000" stroke="#000000" points="40.3228,-137.3668 38.7043,-147.8373 46.499,-140.6615 40.3228,-137.3668"/>
</g>
<!-- Node1&#45;&gt;Node5 -->
<g id="edge4" class="edge">
<title>Node1&#45;&gt;Node5</title>
<path fill="none" stroke="#000000" d="M39.4352,-137.8532C48.272,-109.5458 68.4445,-57.5105 104,-28.5 108.7451,-24.6284 114.2692,-21.5447 120.0327,-19.0888"/>
<polygon fill="#000000" stroke="#000000" points="35.9845,-137.1803 36.506,-147.7623 42.6973,-139.1648 35.9845,-137.1803"/>
</g>
</g>
</svg>
