<?xml version="1.0" encoding="UTF-8" standalone="no"?>
<!DOCTYPE svg PUBLIC "-//W3C//DTD SVG 1.1//EN"
 "http://www.w3.org/Graphics/SVG/1.1/DTD/svg11.dtd">
<!-- Generated by graphviz version 2.40.1 (20161225.0304)
 -->
<!-- Title: tds_next_placeholder Pages: 1 -->
<svg width="252pt" height="66pt"
 viewBox="0.00 0.00 252.00 66.00" xmlns="http://www.w3.org/2000/svg" xmlns:xlink="http://www.w3.org/1999/xlink">
<g id="graph0" class="graph" transform="scale(1 1) rotate(0) translate(4 62)">
<title>tds_next_placeholder</title>
<polygon fill="#ffffff" stroke="transparent" points="-4,4 -4,-62 248,-62 248,4 -4,4"/>
<!-- Node1 -->
<g id="node1" class="node">
<title>Node1</title>
<g id="a_node1"><a xlink:title="Get position of next placeholder.">
<polygon fill="#bfbfbf" stroke="#000000" points="0,-19.5 0,-38.5 109,-38.5 109,-19.5 0,-19.5"/>
<text text-anchor="middle" x="54.5" y="-26.5" font-family="Helvetica,sans-Serif" font-size="10.00" fill="#000000">tds_next_placeholder</text>
</a>
</g>
</g>
<!-- Node2 -->
<g id="node2" class="node">
<title>Node2</title>
<g id="a_node2"><a xlink:href="a00560.html#gaac7347ba9380d77d726648b85e9fab8f" target="_top" xlink:title="Skip a comment in a query.">
<polygon fill="#ffffff" stroke="#000000" points="145,-38.5 145,-57.5 244,-57.5 244,-38.5 145,-38.5"/>
<text text-anchor="middle" x="194.5" y="-45.5" font-family="Helvetica,sans-Serif" font-size="10.00" fill="#000000">tds_skip_comment</text>
</a>
</g>
</g>
<!-- Node1&#45;&gt;Node2 -->
<g id="edge1" class="edge">
<title>Node1&#45;&gt;Node2</title>
<path fill="none" stroke="#191970" d="M109.0285,-36.4003C117.5268,-37.5536 126.3452,-38.7504 134.9483,-39.918"/>
<polygon fill="#191970" stroke="#191970" points="134.5366,-43.3941 144.9165,-41.2708 135.4781,-36.4577 134.5366,-43.3941"/>
</g>
<!-- Node3 -->
<g id="node3" class="node">
<title>Node3</title>
<g id="a_node3"><a xlink:href="a00560.html#ga5dbe51ce9533218f2da23f69ff63dda4" target="_top" xlink:title="Skip quoting string (like &#39;sfsf&#39;, &quot;dflkdj&quot; or [dfkjd])">
<polygon fill="#ffffff" stroke="#000000" points="150.5,-.5 150.5,-19.5 238.5,-19.5 238.5,-.5 150.5,-.5"/>
<text text-anchor="middle" x="194.5" y="-7.5" font-family="Helvetica,sans-Serif" font-size="10.00" fill="#000000">tds_skip_quoted</text>
</a>
</g>
</g>
<!-- Node1&#45;&gt;Node3 -->
<g id="edge2" class="edge">
<title>Node1&#45;&gt;Node3</title>
<path fill="none" stroke="#191970" d="M109.0285,-21.5997C119.2782,-20.2087 129.9938,-18.7544 140.2354,-17.3645"/>
<polygon fill="#191970" stroke="#191970" points="140.8458,-20.8138 150.2842,-16.0007 139.9043,-13.8774 140.8458,-20.8138"/>
</g>
</g>
</svg>
