<?xml version="1.0" encoding="UTF-8" standalone="no"?>
<!DOCTYPE svg PUBLIC "-//W3C//DTD SVG 1.1//EN"
 "http://www.w3.org/Graphics/SVG/1.1/DTD/svg11.dtd">
<!-- Generated by graphviz version 2.40.1 (20161225.0304)
 -->
<!-- Title: tds5_process_dyn_result2 Pages: 1 -->
<svg width="488pt" height="66pt"
 viewBox="0.00 0.00 488.00 66.00" xmlns="http://www.w3.org/2000/svg" xmlns:xlink="http://www.w3.org/1999/xlink">
<g id="graph0" class="graph" transform="scale(1 1) rotate(0) translate(4 62)">
<title>tds5_process_dyn_result2</title>
<polygon fill="#ffffff" stroke="transparent" points="-4,4 -4,-62 484,-62 484,4 -4,4"/>
<!-- Node1 -->
<g id="node1" class="node">
<title>Node1</title>
<g id="a_node1"><a xlink:title="Process new TDS 5.0 token for describing output parameters.">
<polygon fill="#bfbfbf" stroke="#000000" points="0,-19.5 0,-38.5 131,-38.5 131,-19.5 0,-19.5"/>
<text text-anchor="middle" x="65.5" y="-26.5" font-family="Helvetica,sans-Serif" font-size="10.00" fill="#000000">tds5_process_dyn_result2</text>
</a>
</g>
</g>
<!-- Node2 -->
<g id="node2" class="node">
<title>Node2</title>
<g id="a_node2"><a xlink:href="a00561.html#ga9ac121c269e203337a48c5bf8afc48c3" target="_top" xlink:title="Get an int32 from the server.">
<polygon fill="#ffffff" stroke="#000000" points="178.5,-38.5 178.5,-57.5 248.5,-57.5 248.5,-38.5 178.5,-38.5"/>
<text text-anchor="middle" x="213.5" y="-45.5" font-family="Helvetica,sans-Serif" font-size="10.00" fill="#000000">tds_get_uint</text>
</a>
</g>
</g>
<!-- Node1&#45;&gt;Node2 -->
<g id="edge1" class="edge">
<title>Node1&#45;&gt;Node2</title>
<path fill="none" stroke="#191970" d="M131.2768,-37.4443C143.8161,-39.0541 156.6742,-40.7048 168.3869,-42.2085"/>
<polygon fill="#191970" stroke="#191970" points="167.9841,-45.6854 178.3484,-43.4873 168.8755,-38.7424 167.9841,-45.6854"/>
</g>
<!-- Node5 -->
<g id="node5" class="node">
<title>Node5</title>
<g id="a_node5"><a xlink:href="a00561.html#gad38aa5b9547817854ccba1fcc7855861" target="_top" xlink:title="Get an int16 from the server.">
<polygon fill="#ffffff" stroke="#000000" points="167,-.5 167,-19.5 260,-19.5 260,-.5 167,-.5"/>
<text text-anchor="middle" x="213.5" y="-7.5" font-family="Helvetica,sans-Serif" font-size="10.00" fill="#000000">tds_get_usmallint</text>
</a>
</g>
</g>
<!-- Node1&#45;&gt;Node5 -->
<g id="edge4" class="edge">
<title>Node1&#45;&gt;Node5</title>
<path fill="none" stroke="#191970" d="M131.2768,-20.5557C139.839,-19.4565 148.5498,-18.3382 156.9431,-17.2607"/>
<polygon fill="#191970" stroke="#191970" points="157.5195,-20.7155 166.9924,-15.9706 156.6281,-13.7725 157.5195,-20.7155"/>
</g>
<!-- Node3 -->
<g id="node3" class="node">
<title>Node3</title>
<g id="a_node3"><a xlink:href="a00561.html#gae777dd57e8d1bb40349d7d7d8434fddf" target="_top" xlink:title="Get N bytes from the buffer and return them in the already allocated space &#160;&#160;given to us.">
<polygon fill="#ffffff" stroke="#000000" points="296,-19.5 296,-38.5 355,-38.5 355,-19.5 296,-19.5"/>
<text text-anchor="middle" x="325.5" y="-26.5" font-family="Helvetica,sans-Serif" font-size="10.00" fill="#000000">tds_get_n</text>
</a>
</g>
</g>
<!-- Node2&#45;&gt;Node3 -->
<g id="edge2" class="edge">
<title>Node2&#45;&gt;Node3</title>
<path fill="none" stroke="#191970" d="M248.6302,-42.0404C260.4583,-40.0339 273.7359,-37.7814 285.8852,-35.7204"/>
<polygon fill="#191970" stroke="#191970" points="286.4949,-39.167 295.7686,-34.0437 285.3241,-32.2656 286.4949,-39.167"/>
</g>
<!-- Node4 -->
<g id="node4" class="node">
<title>Node4</title>
<g id="a_node4"><a xlink:href="a00561.html#ga410619783bdf2bb60b0f27a5578e0e07" target="_top" xlink:title="Read in one &#39;packet&#39; from the server.">
<polygon fill="#ffffff" stroke="#000000" points="391,-19.5 391,-38.5 480,-38.5 480,-19.5 391,-19.5"/>
<text text-anchor="middle" x="435.5" y="-26.5" font-family="Helvetica,sans-Serif" font-size="10.00" fill="#000000">tds_read_packet</text>
</a>
</g>
</g>
<!-- Node3&#45;&gt;Node4 -->
<g id="edge3" class="edge">
<title>Node3&#45;&gt;Node4</title>
<path fill="none" stroke="#191970" d="M355.2676,-29C363.1335,-29 371.8784,-29 380.6194,-29"/>
<polygon fill="#191970" stroke="#191970" points="380.8257,-32.5001 390.8257,-29 380.8257,-25.5001 380.8257,-32.5001"/>
</g>
<!-- Node5&#45;&gt;Node3 -->
<g id="edge5" class="edge">
<title>Node5&#45;&gt;Node3</title>
<path fill="none" stroke="#191970" d="M260.0251,-17.8926C268.6562,-19.3569 277.5966,-20.8735 285.9937,-22.298"/>
<polygon fill="#191970" stroke="#191970" points="285.4651,-25.7583 295.9096,-23.9802 286.6359,-18.8569 285.4651,-25.7583"/>
</g>
</g>
</svg>
