<?xml version="1.0" encoding="UTF-8" standalone="no"?>
<!DOCTYPE svg PUBLIC "-//W3C//DTD SVG 1.1//EN"
 "http://www.w3.org/Graphics/SVG/1.1/DTD/svg11.dtd">
<!-- Generated by graphviz version 2.40.1 (20161225.0304)
 -->
<!-- Title: tds_ntlm_get_auth Pages: 1 -->
<svg width="215pt" height="66pt"
 viewBox="0.00 0.00 215.00 66.00" xmlns="http://www.w3.org/2000/svg" xmlns:xlink="http://www.w3.org/1999/xlink">
<g id="graph0" class="graph" transform="scale(1 1) rotate(0) translate(4 62)">
<title>tds_ntlm_get_auth</title>
<polygon fill="#ffffff" stroke="transparent" points="-4,4 -4,-62 211,-62 211,4 -4,4"/>
<!-- Node1 -->
<g id="node1" class="node">
<title>Node1</title>
<g id="a_node1"><a xlink:title="Build a NTLMSPP packet to send to server.">
<polygon fill="#bfbfbf" stroke="#000000" points="0,-19.5 0,-38.5 97,-38.5 97,-19.5 0,-19.5"/>
<text text-anchor="middle" x="48.5" y="-26.5" font-family="Helvetica,sans-Serif" font-size="10.00" fill="#000000">tds_ntlm_get_auth</text>
</a>
</g>
</g>
<!-- Node2 -->
<g id="node2" class="node">
<title>Node2</title>
<g id="a_node2"><a xlink:href="a00563.html#ga5f351a208e7aa13b4cc2d32cac8fc0fa" target="_top" xlink:title="Returns a C version (NUL terminated string) of dstr.">
<polygon fill="#ffffff" stroke="#000000" points="133,-38.5 133,-57.5 207,-57.5 207,-38.5 133,-38.5"/>
<text text-anchor="middle" x="170" y="-45.5" font-family="Helvetica,sans-Serif" font-size="10.00" fill="#000000">tds_dstr_cstr</text>
</a>
</g>
</g>
<!-- Node1&#45;&gt;Node2 -->
<g id="edge1" class="edge">
<title>Node1&#45;&gt;Node2</title>
<path fill="none" stroke="#191970" d="M97.2186,-36.6185C105.6671,-37.9397 114.439,-39.3114 122.8449,-40.6259"/>
<polygon fill="#191970" stroke="#191970" points="122.4496,-44.1066 132.8703,-42.1937 123.5311,-37.1906 122.4496,-44.1066"/>
</g>
<!-- Node3 -->
<g id="node3" class="node">
<title>Node3</title>
<g id="a_node3"><a xlink:href="a00563.html#ga396f139e4f886ac1b224a735138e73dd" target="_top" xlink:title="Returns the length of the string in bytes.">
<polygon fill="#ffffff" stroke="#000000" points="135,-.5 135,-19.5 205,-19.5 205,-.5 135,-.5"/>
<text text-anchor="middle" x="170" y="-7.5" font-family="Helvetica,sans-Serif" font-size="10.00" fill="#000000">tds_dstr_len</text>
</a>
</g>
</g>
<!-- Node1&#45;&gt;Node3 -->
<g id="edge2" class="edge">
<title>Node1&#45;&gt;Node3</title>
<path fill="none" stroke="#191970" d="M97.2186,-21.3815C106.3325,-19.9562 115.8227,-18.4722 124.8237,-17.0646"/>
<polygon fill="#191970" stroke="#191970" points="125.3931,-20.5182 134.7322,-15.5151 124.3115,-13.6022 125.3931,-20.5182"/>
</g>
</g>
</svg>
