<?xml version="1.0" encoding="UTF-8" standalone="no"?>
<!DOCTYPE svg PUBLIC "-//W3C//DTD SVG 1.1//EN"
 "http://www.w3.org/Graphics/SVG/1.1/DTD/svg11.dtd">
<!-- Generated by graphviz version 2.40.1 (20161225.0304)
 -->
<!-- Title: METACOMP Pages: 1 -->
<svg width="136pt" height="95pt"
 viewBox="0.00 0.00 135.50 95.00" xmlns="http://www.w3.org/2000/svg" xmlns:xlink="http://www.w3.org/1999/xlink">
<g id="graph0" class="graph" transform="scale(1 1) rotate(0) translate(4 91)">
<title>METACOMP</title>
<polygon fill="#ffffff" stroke="transparent" points="-4,4 -4,-91 131.5,-91 131.5,4 -4,4"/>
<!-- Node1 -->
<g id="node1" class="node">
<title>Node1</title>
<g id="a_node1"><a xlink:title=" ">
<polygon fill="#bfbfbf" stroke="#000000" points="33,-.5 33,-19.5 107,-19.5 107,-.5 33,-.5"/>
<text text-anchor="middle" x="70" y="-7.5" font-family="Helvetica,sans-Serif" font-size="10.00" fill="#000000">METACOMP</text>
</a>
</g>
</g>
<!-- Node2 -->
<g id="node2" class="node">
<title>Node2</title>
<g id="a_node2"><a xlink:href="a00568.html" target="_top" xlink:title=" ">
<polygon fill="#ffffff" stroke="#000000" points="0,-67.5 0,-86.5 68,-86.5 68,-67.5 0,-67.5"/>
<text text-anchor="middle" x="34" y="-74.5" font-family="Helvetica,sans-Serif" font-size="10.00" fill="#000000">METADATA</text>
</a>
</g>
</g>
<!-- Node2&#45;&gt;Node1 -->
<g id="edge1" class="edge">
<title>Node2&#45;&gt;Node1</title>
<path fill="none" stroke="#9a32cd" stroke-dasharray="5,2" d="M44.0814,-58.2374C50.8387,-45.6614 59.4554,-29.6246 64.8516,-19.5817"/>
<polygon fill="#9a32cd" stroke="#9a32cd" points="40.808,-56.935 39.1579,-67.4005 46.9743,-60.2482 40.808,-56.935"/>
<text text-anchor="middle" x="67.5" y="-41" font-family="Helvetica,sans-Serif" font-size="10.00" fill="#000000"> meta</text>
</g>
<!-- Node3 -->
<g id="node3" class="node">
<title>Node3</title>
<g id="a_node3"><a xlink:href="a00572.html" target="_top" xlink:title=" ">
<polygon fill="#ffffff" stroke="#000000" points="86.5,-67.5 86.5,-86.5 127.5,-86.5 127.5,-67.5 86.5,-67.5"/>
<text text-anchor="middle" x="107" y="-74.5" font-family="Helvetica,sans-Serif" font-size="10.00" fill="#000000">DATA</text>
</a>
</g>
</g>
<!-- Node3&#45;&gt;Node1 -->
<g id="edge2" class="edge">
<title>Node3&#45;&gt;Node1</title>
<path fill="none" stroke="#9a32cd" stroke-dasharray="5,2" d="M96.8443,-58.6099C89.8693,-45.9795 80.8924,-29.7241 75.2914,-19.5817"/>
<polygon fill="#9a32cd" stroke="#9a32cd" points="93.8007,-60.3386 101.6988,-67.4005 99.9284,-56.9547 93.8007,-60.3386"/>
<text text-anchor="middle" x="101" y="-41" font-family="Helvetica,sans-Serif" font-size="10.00" fill="#000000"> data</text>
</g>
</g>
</svg>
