<?xml version="1.0" encoding="UTF-8" standalone="no"?>
<!DOCTYPE svg PUBLIC "-//W3C//DTD SVG 1.1//EN"
 "http://www.w3.org/Graphics/SVG/1.1/DTD/svg11.dtd">
<!-- Generated by graphviz version 2.40.1 (20161225.0304)
 -->
<!-- Title: tds_count_placeholders Pages: 1 -->
<svg width="407pt" height="66pt"
 viewBox="0.00 0.00 407.00 66.00" xmlns="http://www.w3.org/2000/svg" xmlns:xlink="http://www.w3.org/1999/xlink">
<g id="graph0" class="graph" transform="scale(1 1) rotate(0) translate(4 62)">
<title>tds_count_placeholders</title>
<polygon fill="#ffffff" stroke="transparent" points="-4,4 -4,-62 403,-62 403,4 -4,4"/>
<!-- Node1 -->
<g id="node1" class="node">
<title>Node1</title>
<g id="a_node1"><a xlink:title="Count the number of placeholders (&#39;?&#39;) in a query.">
<polygon fill="#bfbfbf" stroke="#000000" points="0,-19.5 0,-38.5 119,-38.5 119,-19.5 0,-19.5"/>
<text text-anchor="middle" x="59.5" y="-26.5" font-family="Helvetica,sans-Serif" font-size="10.00" fill="#000000">tds_count_placeholders</text>
</a>
</g>
</g>
<!-- Node2 -->
<g id="node2" class="node">
<title>Node2</title>
<g id="a_node2"><a xlink:href="a00560.html#ga6455b2991afbf7da90270787f2059d31" target="_top" xlink:title="Get position of next placeholder.">
<polygon fill="#ffffff" stroke="#000000" points="155,-19.5 155,-38.5 264,-38.5 264,-19.5 155,-19.5"/>
<text text-anchor="middle" x="209.5" y="-26.5" font-family="Helvetica,sans-Serif" font-size="10.00" fill="#000000">tds_next_placeholder</text>
</a>
</g>
</g>
<!-- Node1&#45;&gt;Node2 -->
<g id="edge1" class="edge">
<title>Node1&#45;&gt;Node2</title>
<path fill="none" stroke="#191970" d="M119.215,-29C127.579,-29 136.2078,-29 144.6612,-29"/>
<polygon fill="#191970" stroke="#191970" points="144.8559,-32.5001 154.8559,-29 144.8558,-25.5001 144.8559,-32.5001"/>
</g>
<!-- Node3 -->
<g id="node3" class="node">
<title>Node3</title>
<g id="a_node3"><a xlink:href="a00560.html#gaac7347ba9380d77d726648b85e9fab8f" target="_top" xlink:title="Skip a comment in a query.">
<polygon fill="#ffffff" stroke="#000000" points="300,-38.5 300,-57.5 399,-57.5 399,-38.5 300,-38.5"/>
<text text-anchor="middle" x="349.5" y="-45.5" font-family="Helvetica,sans-Serif" font-size="10.00" fill="#000000">tds_skip_comment</text>
</a>
</g>
</g>
<!-- Node2&#45;&gt;Node3 -->
<g id="edge2" class="edge">
<title>Node2&#45;&gt;Node3</title>
<path fill="none" stroke="#191970" d="M264.0285,-36.4003C272.5268,-37.5536 281.3452,-38.7504 289.9483,-39.918"/>
<polygon fill="#191970" stroke="#191970" points="289.5366,-43.3941 299.9165,-41.2708 290.4781,-36.4577 289.5366,-43.3941"/>
</g>
<!-- Node4 -->
<g id="node4" class="node">
<title>Node4</title>
<g id="a_node4"><a xlink:href="a00560.html#ga5dbe51ce9533218f2da23f69ff63dda4" target="_top" xlink:title="Skip quoting string (like &#39;sfsf&#39;, &quot;dflkdj&quot; or [dfkjd])">
<polygon fill="#ffffff" stroke="#000000" points="305.5,-.5 305.5,-19.5 393.5,-19.5 393.5,-.5 305.5,-.5"/>
<text text-anchor="middle" x="349.5" y="-7.5" font-family="Helvetica,sans-Serif" font-size="10.00" fill="#000000">tds_skip_quoted</text>
</a>
</g>
</g>
<!-- Node2&#45;&gt;Node4 -->
<g id="edge3" class="edge">
<title>Node2&#45;&gt;Node4</title>
<path fill="none" stroke="#191970" d="M264.0285,-21.5997C274.2782,-20.2087 284.9938,-18.7544 295.2354,-17.3645"/>
<polygon fill="#191970" stroke="#191970" points="295.8458,-20.8138 305.2842,-16.0007 294.9043,-13.8774 295.8458,-20.8138"/>
</g>
</g>
</svg>
