<?xml version="1.0" encoding="UTF-8" standalone="no"?>
<!DOCTYPE svg PUBLIC "-//W3C//DTD SVG 1.1//EN"
 "http://www.w3.org/Graphics/SVG/1.1/DTD/svg11.dtd">
<!-- Generated by graphviz version 2.40.1 (20161225.0304)
 -->
<!-- Title: tds_dstr_set Pages: 1 -->
<svg width="312pt" height="28pt"
 viewBox="0.00 0.00 312.00 28.00" xmlns="http://www.w3.org/2000/svg" xmlns:xlink="http://www.w3.org/1999/xlink">
<g id="graph0" class="graph" transform="scale(1 1) rotate(0) translate(4 24)">
<title>tds_dstr_set</title>
<polygon fill="#ffffff" stroke="transparent" points="-4,4 -4,-24 308,-24 308,4 -4,4"/>
<!-- Node1 -->
<g id="node1" class="node">
<title>Node1</title>
<g id="a_node1"><a xlink:title="set a string from another buffer.">
<polygon fill="#bfbfbf" stroke="#000000" points="0,-.5 0,-19.5 71,-19.5 71,-.5 0,-.5"/>
<text text-anchor="middle" x="35.5" y="-7.5" font-family="Helvetica,sans-Serif" font-size="10.00" fill="#000000">tds_dstr_set</text>
</a>
</g>
</g>
<!-- Node2 -->
<g id="node2" class="node">
<title>Node2</title>
<g id="a_node2"><a xlink:href="a00563.html#gad96366d9fa93bfc283cef1299fbe97ab" target="_top" xlink:title="copy a string from another">
<polygon fill="#ffffff" stroke="#000000" points="107,-.5 107,-19.5 185,-19.5 185,-.5 107,-.5"/>
<text text-anchor="middle" x="146" y="-7.5" font-family="Helvetica,sans-Serif" font-size="10.00" fill="#000000">tds_dstr_copy</text>
</a>
</g>
</g>
<!-- Node1&#45;&gt;Node2 -->
<g id="edge1" class="edge">
<title>Node1&#45;&gt;Node2</title>
<path fill="none" stroke="#191970" d="M71.0711,-10C79.1448,-10 87.8634,-10 96.4002,-10"/>
<polygon fill="#191970" stroke="#191970" points="96.6675,-13.5001 106.6674,-10 96.6674,-6.5001 96.6675,-13.5001"/>
</g>
<!-- Node3 -->
<g id="node3" class="node">
<title>Node3</title>
<g id="a_node3"><a xlink:href="a00563.html#ga656718f240d7403f986ae887d84a6ca1" target="_top" xlink:title="Set string to a given buffer of characters.">
<polygon fill="#ffffff" stroke="#000000" points="221,-.5 221,-19.5 304,-19.5 304,-.5 221,-.5"/>
<text text-anchor="middle" x="262.5" y="-7.5" font-family="Helvetica,sans-Serif" font-size="10.00" fill="#000000">tds_dstr_copyn</text>
</a>
</g>
</g>
<!-- Node2&#45;&gt;Node3 -->
<g id="edge2" class="edge">
<title>Node2&#45;&gt;Node3</title>
<path fill="none" stroke="#191970" d="M185.1169,-10C193.3838,-10 202.2292,-10 210.8771,-10"/>
<polygon fill="#191970" stroke="#191970" points="210.8919,-13.5001 220.8919,-10 210.8918,-6.5001 210.8919,-13.5001"/>
</g>
</g>
</svg>
