<?xml version="1.0" encoding="UTF-8" standalone="no"?>
<!DOCTYPE svg PUBLIC "-//W3C//DTD SVG 1.1//EN"
 "http://www.w3.org/Graphics/SVG/1.1/DTD/svg11.dtd">
<!-- Generated by graphviz version 2.40.1 (20161225.0304)
 -->
<!-- Title: tds_skip_quoted_ucs2le Pages: 1 -->
<svg width="430pt" height="39pt"
 viewBox="0.00 0.00 430.00 39.00" xmlns="http://www.w3.org/2000/svg" xmlns:xlink="http://www.w3.org/1999/xlink">
<g id="graph0" class="graph" transform="scale(1 1) rotate(0) translate(4 35)">
<title>tds_skip_quoted_ucs2le</title>
<polygon fill="#ffffff" stroke="transparent" points="-4,4 -4,-35 426,-35 426,4 -4,4"/>
<!-- Node1 -->
<g id="node1" class="node">
<title>Node1</title>
<g id="a_node1"><a xlink:title="Return pointer to end of a quoted string.">
<polygon fill="#bfbfbf" stroke="#000000" points="300,-6 300,-25 422,-25 422,-6 300,-6"/>
<text text-anchor="middle" x="361" y="-13" font-family="Helvetica,sans-Serif" font-size="10.00" fill="#000000">tds_skip_quoted_ucs2le</text>
</a>
</g>
</g>
<!-- Node2 -->
<g id="node2" class="node">
<title>Node2</title>
<g id="a_node2"><a xlink:href="a00560.html#gaa823973b74efdf1ff00f340496bff614" target="_top" xlink:title="Found the next placeholder (? or @param) in a string.">
<polygon fill="#ffffff" stroke="#000000" points="155,-.5 155,-30.5 264,-30.5 264,-.5 155,-.5"/>
<text text-anchor="start" x="163" y="-18.5" font-family="Helvetica,sans-Serif" font-size="10.00" fill="#000000">tds_next_placeholder</text>
<text text-anchor="middle" x="209.5" y="-7.5" font-family="Helvetica,sans-Serif" font-size="10.00" fill="#000000">_ucs2le</text>
</a>
</g>
</g>
<!-- Node1&#45;&gt;Node2 -->
<g id="edge1" class="edge">
<title>Node1&#45;&gt;Node2</title>
<path fill="none" stroke="#191970" d="M289.7481,-15.5C281.1183,-15.5 272.4104,-15.5 264.0746,-15.5"/>
<polygon fill="#191970" stroke="#191970" points="289.8159,-19.0001 299.8158,-15.5 289.8158,-12.0001 289.8159,-19.0001"/>
</g>
<!-- Node3 -->
<g id="node3" class="node">
<title>Node3</title>
<g id="a_node3"><a xlink:href="a00560.html#ga0cd19215e9169ea299a6c9cbf5b2fb60" target="_top" xlink:title="Count the number of placeholders (&#39;?&#39;) in a query.">
<polygon fill="#ffffff" stroke="#000000" points="0,-.5 0,-30.5 119,-30.5 119,-.5 0,-.5"/>
<text text-anchor="start" x="8" y="-18.5" font-family="Helvetica,sans-Serif" font-size="10.00" fill="#000000">tds_count_placeholders</text>
<text text-anchor="middle" x="59.5" y="-7.5" font-family="Helvetica,sans-Serif" font-size="10.00" fill="#000000">_ucs2le</text>
</a>
</g>
</g>
<!-- Node2&#45;&gt;Node3 -->
<g id="edge2" class="edge">
<title>Node2&#45;&gt;Node3</title>
<path fill="none" stroke="#191970" d="M144.6769,-15.5C136.1808,-15.5 127.5071,-15.5 119.103,-15.5"/>
<polygon fill="#191970" stroke="#191970" points="144.9223,-19.0001 154.9222,-15.5 144.9222,-12.0001 144.9223,-19.0001"/>
</g>
</g>
</svg>
