<?xml version="1.0" encoding="UTF-8" standalone="no"?>
<!DOCTYPE svg PUBLIC "-//W3C//DTD SVG 1.1//EN"
 "http://www.w3.org/Graphics/SVG/1.1/DTD/svg11.dtd">
<!-- Generated by graphviz version 2.40.1 (20161225.0304)
 -->
<!-- Title: tds_process_tabname Pages: 1 -->
<svg width="470pt" height="28pt"
 viewBox="0.00 0.00 470.00 28.00" xmlns="http://www.w3.org/2000/svg" xmlns:xlink="http://www.w3.org/1999/xlink">
<g id="graph0" class="graph" transform="scale(1 1) rotate(0) translate(4 24)">
<title>tds_process_tabname</title>
<polygon fill="#ffffff" stroke="transparent" points="-4,4 -4,-24 466,-24 466,4 -4,4"/>
<!-- Node1 -->
<g id="node1" class="node">
<title>Node1</title>
<g id="a_node1"><a xlink:title="Process list of table from network.">
<polygon fill="#bfbfbf" stroke="#000000" points="0,-.5 0,-19.5 113,-19.5 113,-.5 0,-.5"/>
<text text-anchor="middle" x="56.5" y="-7.5" font-family="Helvetica,sans-Serif" font-size="10.00" fill="#000000">tds_process_tabname</text>
</a>
</g>
</g>
<!-- Node2 -->
<g id="node2" class="node">
<title>Node2</title>
<g id="a_node2"><a xlink:href="a00561.html#gad38aa5b9547817854ccba1fcc7855861" target="_top" xlink:title="Get an int16 from the server.">
<polygon fill="#ffffff" stroke="#000000" points="149,-.5 149,-19.5 242,-19.5 242,-.5 149,-.5"/>
<text text-anchor="middle" x="195.5" y="-7.5" font-family="Helvetica,sans-Serif" font-size="10.00" fill="#000000">tds_get_usmallint</text>
</a>
</g>
</g>
<!-- Node1&#45;&gt;Node2 -->
<g id="edge1" class="edge">
<title>Node1&#45;&gt;Node2</title>
<path fill="none" stroke="#191970" d="M113.0366,-10C121.4794,-10 130.1868,-10 138.6364,-10"/>
<polygon fill="#191970" stroke="#191970" points="138.78,-13.5001 148.7799,-10 138.7799,-6.5001 138.78,-13.5001"/>
</g>
<!-- Node3 -->
<g id="node3" class="node">
<title>Node3</title>
<g id="a_node3"><a xlink:href="a00561.html#gae777dd57e8d1bb40349d7d7d8434fddf" target="_top" xlink:title="Get N bytes from the buffer and return them in the already allocated space &#160;&#160;given to us.">
<polygon fill="#ffffff" stroke="#000000" points="278,-.5 278,-19.5 337,-19.5 337,-.5 278,-.5"/>
<text text-anchor="middle" x="307.5" y="-7.5" font-family="Helvetica,sans-Serif" font-size="10.00" fill="#000000">tds_get_n</text>
</a>
</g>
</g>
<!-- Node2&#45;&gt;Node3 -->
<g id="edge2" class="edge">
<title>Node2&#45;&gt;Node3</title>
<path fill="none" stroke="#191970" d="M242.0251,-10C250.5613,-10 259.4001,-10 267.7167,-10"/>
<polygon fill="#191970" stroke="#191970" points="267.9097,-13.5001 277.9096,-10 267.9096,-6.5001 267.9097,-13.5001"/>
</g>
<!-- Node4 -->
<g id="node4" class="node">
<title>Node4</title>
<g id="a_node4"><a xlink:href="a00561.html#ga410619783bdf2bb60b0f27a5578e0e07" target="_top" xlink:title="Read in one &#39;packet&#39; from the server.">
<polygon fill="#ffffff" stroke="#000000" points="373,-.5 373,-19.5 462,-19.5 462,-.5 373,-.5"/>
<text text-anchor="middle" x="417.5" y="-7.5" font-family="Helvetica,sans-Serif" font-size="10.00" fill="#000000">tds_read_packet</text>
</a>
</g>
</g>
<!-- Node3&#45;&gt;Node4 -->
<g id="edge3" class="edge">
<title>Node3&#45;&gt;Node4</title>
<path fill="none" stroke="#191970" d="M337.2676,-10C345.1335,-10 353.8784,-10 362.6194,-10"/>
<polygon fill="#191970" stroke="#191970" points="362.8257,-13.5001 372.8257,-10 362.8257,-6.5001 362.8257,-13.5001"/>
</g>
</g>
</svg>
