<?xml version="1.0" encoding="UTF-8" standalone="no"?>
<!DOCTYPE svg PUBLIC "-//W3C//DTD SVG 1.1//EN"
 "http://www.w3.org/Graphics/SVG/1.1/DTD/svg11.dtd">
<!-- Generated by graphviz version 2.40.1 (20161225.0304)
 -->
<!-- Title: parse_server_name_for_port Pages: 1 -->
<svg width="381pt" height="104pt"
 viewBox="0.00 0.00 381.00 104.00" xmlns="http://www.w3.org/2000/svg" xmlns:xlink="http://www.w3.org/1999/xlink">
<g id="graph0" class="graph" transform="scale(1 1) rotate(0) translate(4 100)">
<title>parse_server_name_for_port</title>
<polygon fill="#ffffff" stroke="transparent" points="-4,4 -4,-100 377,-100 377,4 -4,4"/>
<!-- Node1 -->
<g id="node1" class="node">
<title>Node1</title>
<g id="a_node1"><a xlink:title="Check the server name to find port info first Warning: connection&#45;&gt; &amp; login&#45;&gt; are all modified when n...">
<polygon fill="#bfbfbf" stroke="#000000" points="0,-38.5 0,-57.5 140,-57.5 140,-38.5 0,-38.5"/>
<text text-anchor="middle" x="70" y="-45.5" font-family="Helvetica,sans-Serif" font-size="10.00" fill="#000000">parse_server_name_for_port</text>
</a>
</g>
</g>
<!-- Node2 -->
<g id="node2" class="node">
<title>Node2</title>
<g id="a_node2"><a xlink:href="a00563.html#gad96366d9fa93bfc283cef1299fbe97ab" target="_top" xlink:title="copy a string from another">
<polygon fill="#ffffff" stroke="#000000" points="176,-76.5 176,-95.5 254,-95.5 254,-76.5 176,-76.5"/>
<text text-anchor="middle" x="215" y="-83.5" font-family="Helvetica,sans-Serif" font-size="10.00" fill="#000000">tds_dstr_copy</text>
</a>
</g>
</g>
<!-- Node1&#45;&gt;Node2 -->
<g id="edge1" class="edge">
<title>Node1&#45;&gt;Node2</title>
<path fill="none" stroke="#191970" d="M106.5896,-57.589C125.4654,-62.5358 148.6859,-68.6211 168.7879,-73.8892"/>
<polygon fill="#191970" stroke="#191970" points="168.1129,-77.3305 178.6735,-76.4799 169.8875,-70.5591 168.1129,-77.3305"/>
</g>
<!-- Node3 -->
<g id="node3" class="node">
<title>Node3</title>
<g id="a_node3"><a xlink:href="a00563.html#ga656718f240d7403f986ae887d84a6ca1" target="_top" xlink:title="Set string to a given buffer of characters.">
<polygon fill="#ffffff" stroke="#000000" points="290,-57.5 290,-76.5 373,-76.5 373,-57.5 290,-57.5"/>
<text text-anchor="middle" x="331.5" y="-64.5" font-family="Helvetica,sans-Serif" font-size="10.00" fill="#000000">tds_dstr_copyn</text>
</a>
</g>
</g>
<!-- Node1&#45;&gt;Node3 -->
<g id="edge3" class="edge">
<title>Node1&#45;&gt;Node3</title>
<path fill="none" stroke="#191970" d="M140.0772,-53.0917C184.0559,-56.287 239.8019,-60.3374 279.7762,-63.2419"/>
<polygon fill="#191970" stroke="#191970" points="279.6113,-66.739 289.8387,-63.973 280.1187,-59.7574 279.6113,-66.739"/>
</g>
<!-- Node4 -->
<g id="node4" class="node">
<title>Node4</title>
<g id="a_node4"><a xlink:href="a00563.html#ga5f351a208e7aa13b4cc2d32cac8fc0fa" target="_top" xlink:title="Returns a C version (NUL terminated string) of dstr.">
<polygon fill="#ffffff" stroke="#000000" points="178,-.5 178,-19.5 252,-19.5 252,-.5 178,-.5"/>
<text text-anchor="middle" x="215" y="-7.5" font-family="Helvetica,sans-Serif" font-size="10.00" fill="#000000">tds_dstr_cstr</text>
</a>
</g>
</g>
<!-- Node1&#45;&gt;Node4 -->
<g id="edge4" class="edge">
<title>Node1&#45;&gt;Node4</title>
<path fill="none" stroke="#191970" d="M106.5896,-38.411C125.4654,-33.4642 148.6859,-27.3789 168.7879,-22.1108"/>
<polygon fill="#191970" stroke="#191970" points="169.8875,-25.4409 178.6735,-19.5201 168.1129,-18.6695 169.8875,-25.4409"/>
</g>
<!-- Node2&#45;&gt;Node3 -->
<g id="edge2" class="edge">
<title>Node2&#45;&gt;Node3</title>
<path fill="none" stroke="#191970" d="M254.1169,-79.6204C262.3838,-78.2722 271.2292,-76.8296 279.8771,-75.4192"/>
<polygon fill="#191970" stroke="#191970" points="280.5857,-78.85 289.8919,-73.7859 279.4589,-71.9412 280.5857,-78.85"/>
</g>
</g>
</svg>
