<?xml version="1.0" encoding="UTF-8" standalone="no"?>
<!DOCTYPE svg PUBLIC "-//W3C//DTD SVG 1.1//EN"
 "http://www.w3.org/Graphics/SVG/1.1/DTD/svg11.dtd">
<!-- Generated by graphviz version 2.40.1 (20161225.0304)
 -->
<!-- Title: dbopen Pages: 1 -->
<svg width="270pt" height="66pt"
 viewBox="0.00 0.00 270.00 66.00" xmlns="http://www.w3.org/2000/svg" xmlns:xlink="http://www.w3.org/1999/xlink">
<g id="graph0" class="graph" transform="scale(1 1) rotate(0) translate(4 62)">
<title>dbopen</title>
<polygon fill="#ffffff" stroke="transparent" points="-4,4 -4,-62 266,-62 266,4 -4,4"/>
<!-- Node1 -->
<g id="node1" class="node">
<title>Node1</title>
<g id="a_node1"><a xlink:title="Normally not used.">
<polygon fill="#bfbfbf" stroke="#000000" points="0,-19.5 0,-38.5 48,-38.5 48,-19.5 0,-19.5"/>
<text text-anchor="middle" x="24" y="-26.5" font-family="Helvetica,sans-Serif" font-size="10.00" fill="#000000">dbopen</text>
</a>
</g>
</g>
<!-- Node2 -->
<g id="node2" class="node">
<title>Node2</title>
<g id="a_node2"><a xlink:href="a00551.html#ga2c99ec565452279e9a382451d89642eb" target="_top" xlink:title="Form a connection with the server.">
<polygon fill="#ffffff" stroke="#000000" points="84,-19.5 84,-38.5 146,-38.5 146,-19.5 84,-19.5"/>
<text text-anchor="middle" x="115" y="-26.5" font-family="Helvetica,sans-Serif" font-size="10.00" fill="#000000">tdsdbopen</text>
</a>
</g>
</g>
<!-- Node1&#45;&gt;Node2 -->
<g id="edge1" class="edge">
<title>Node1&#45;&gt;Node2</title>
<path fill="none" stroke="#191970" d="M48.3863,-29C56.0967,-29 64.8463,-29 73.4099,-29"/>
<polygon fill="#191970" stroke="#191970" points="73.681,-32.5001 83.681,-29 73.6809,-25.5001 73.681,-32.5001"/>
</g>
<!-- Node3 -->
<g id="node3" class="node">
<title>Node3</title>
<g id="a_node3"><a xlink:href="a00437.html#ab45c291105027e69836002e1dd586141" target="_top" xlink:title="Write a message to the debug log.">
<polygon fill="#ffffff" stroke="#000000" points="186,-38.5 186,-57.5 258,-57.5 258,-38.5 186,-38.5"/>
<text text-anchor="middle" x="222" y="-45.5" font-family="Helvetica,sans-Serif" font-size="10.00" fill="#000000">tdsdump_log</text>
</a>
</g>
</g>
<!-- Node2&#45;&gt;Node3 -->
<g id="edge2" class="edge">
<title>Node2&#45;&gt;Node3</title>
<path fill="none" stroke="#191970" d="M146.2365,-34.5467C155.3928,-36.1725 165.608,-37.9865 175.4986,-39.7427"/>
<polygon fill="#191970" stroke="#191970" points="175.1721,-43.2394 185.63,-41.5418 176.396,-36.3473 175.1721,-43.2394"/>
</g>
<!-- Node4 -->
<g id="node4" class="node">
<title>Node4</title>
<g id="a_node4"><a xlink:href="a00437.html#a24471508ddfde7cc0f8577801e70c42f" target="_top" xlink:title="Create and truncate a human readable dump file for the TDS traffic.">
<polygon fill="#ffffff" stroke="#000000" points="182,-.5 182,-19.5 262,-19.5 262,-.5 182,-.5"/>
<text text-anchor="middle" x="222" y="-7.5" font-family="Helvetica,sans-Serif" font-size="10.00" fill="#000000">tdsdump_open</text>
</a>
</g>
</g>
<!-- Node2&#45;&gt;Node4 -->
<g id="edge3" class="edge">
<title>Node2&#45;&gt;Node4</title>
<path fill="none" stroke="#191970" d="M146.2365,-23.4533C154.2169,-22.0362 163.0018,-20.4763 171.675,-18.9362"/>
<polygon fill="#191970" stroke="#191970" points="172.5163,-22.3417 181.7504,-17.1471 171.2924,-15.4495 172.5163,-22.3417"/>
</g>
</g>
</svg>
