<?xml version="1.0" encoding="UTF-8" standalone="no"?>
<!DOCTYPE svg PUBLIC "-//W3C//DTD SVG 1.1//EN"
 "http://www.w3.org/Graphics/SVG/1.1/DTD/svg11.dtd">
<!-- Generated by graphviz version 2.40.1 (20161225.0304)
 -->
<!-- Title: tds_flush_packet Pages: 1 -->
<svg width="416pt" height="28pt"
 viewBox="0.00 0.00 416.00 28.00" xmlns="http://www.w3.org/2000/svg" xmlns:xlink="http://www.w3.org/1999/xlink">
<g id="graph0" class="graph" transform="scale(1 1) rotate(0) translate(4 24)">
<title>tds_flush_packet</title>
<polygon fill="#ffffff" stroke="transparent" points="-4,4 -4,-24 412,-24 412,4 -4,4"/>
<!-- Node1 -->
<g id="node1" class="node">
<title>Node1</title>
<g id="a_node1"><a xlink:title="Flush packet to server.">
<polygon fill="#bfbfbf" stroke="#000000" points="317,-.5 317,-19.5 408,-19.5 408,-.5 317,-.5"/>
<text text-anchor="middle" x="362.5" y="-7.5" font-family="Helvetica,sans-Serif" font-size="10.00" fill="#000000">tds_flush_packet</text>
</a>
</g>
</g>
<!-- Node2 -->
<g id="node2" class="node">
<title>Node2</title>
<g id="a_node2"><a xlink:href="a00560.html#gada27f4cfce925240ad33b71b63ca692d" target="_top" xlink:title="Flush query packet.">
<polygon fill="#ffffff" stroke="#000000" points="161,-.5 161,-19.5 281,-19.5 281,-.5 161,-.5"/>
<text text-anchor="middle" x="221" y="-7.5" font-family="Helvetica,sans-Serif" font-size="10.00" fill="#000000">tds_query_flush_packet</text>
</a>
</g>
</g>
<!-- Node1&#45;&gt;Node2 -->
<g id="edge1" class="edge">
<title>Node1&#45;&gt;Node2</title>
<path fill="none" stroke="#191970" d="M306.8539,-10C298.4273,-10 289.7009,-10 281.1835,-10"/>
<polygon fill="#191970" stroke="#191970" points="306.9497,-13.5001 316.9496,-10 306.9496,-6.5001 306.9497,-13.5001"/>
</g>
<!-- Node3 -->
<g id="node3" class="node">
<title>Node3</title>
<g id="a_node3"><a xlink:href="a00560.html#ga2d0a06c1a30dd2470dc7a788de21b080" target="_top" xlink:title="Send RPC as string query.">
<polygon fill="#ffffff" stroke="#000000" points="0,-.5 0,-19.5 125,-19.5 125,-.5 0,-.5"/>
<text text-anchor="middle" x="62.5" y="-7.5" font-family="Helvetica,sans-Serif" font-size="10.00" fill="#000000">tds4_send_emulated_rpc</text>
</a>
</g>
</g>
<!-- Node2&#45;&gt;Node3 -->
<g id="edge2" class="edge">
<title>Node2&#45;&gt;Node3</title>
<path fill="none" stroke="#191970" d="M150.4174,-10C141.9729,-10 133.3955,-10 125.0749,-10"/>
<polygon fill="#191970" stroke="#191970" points="150.6258,-13.5001 160.6258,-10 150.6258,-6.5001 150.6258,-13.5001"/>
</g>
</g>
</svg>
