<?xml version="1.0" encoding="UTF-8" standalone="no"?>
<!DOCTYPE svg PUBLIC "-//W3C//DTD SVG 1.1//EN"
 "http://www.w3.org/Graphics/SVG/1.1/DTD/svg11.dtd">
<!-- Generated by graphviz version 2.40.1 (20161225.0304)
 -->
<!-- Title: tds_alloc_dynamic Pages: 1 -->
<svg width="248pt" height="66pt"
 viewBox="0.00 0.00 248.00 66.00" xmlns="http://www.w3.org/2000/svg" xmlns:xlink="http://www.w3.org/1999/xlink">
<g id="graph0" class="graph" transform="scale(1 1) rotate(0) translate(4 62)">
<title>tds_alloc_dynamic</title>
<polygon fill="#ffffff" stroke="transparent" points="-4,4 -4,-62 244,-62 244,4 -4,4"/>
<!-- Node1 -->
<g id="node1" class="node">
<title>Node1</title>
<g id="a_node1"><a xlink:title="Allocate a dynamic statement.">
<polygon fill="#bfbfbf" stroke="#000000" points="0,-19.5 0,-38.5 98,-38.5 98,-19.5 0,-19.5"/>
<text text-anchor="middle" x="49" y="-26.5" font-family="Helvetica,sans-Serif" font-size="10.00" fill="#000000">tds_alloc_dynamic</text>
</a>
</g>
</g>
<!-- Node2 -->
<g id="node2" class="node">
<title>Node2</title>
<g id="a_node2"><a xlink:href="a00559.html#ga501af7e6186e59c257729599a044a30b" target="_top" xlink:title="Get an id for dynamic query based on TDS information.">
<polygon fill="#ffffff" stroke="#000000" points="148.5,-38.5 148.5,-57.5 225.5,-57.5 225.5,-38.5 148.5,-38.5"/>
<text text-anchor="middle" x="187" y="-45.5" font-family="Helvetica,sans-Serif" font-size="10.00" fill="#000000">tds_get_dynid</text>
</a>
</g>
</g>
<!-- Node1&#45;&gt;Node2 -->
<g id="edge1" class="edge">
<title>Node1&#45;&gt;Node2</title>
<path fill="none" stroke="#191970" d="M98.0422,-35.7522C111.0017,-37.5365 124.9888,-39.4622 137.9487,-41.2466"/>
<polygon fill="#191970" stroke="#191970" points="137.6989,-44.7451 148.0829,-42.6418 138.6537,-37.8105 137.6989,-44.7451"/>
</g>
<!-- Node3 -->
<g id="node3" class="node">
<title>Node3</title>
<g id="a_node3"><a xlink:href="a00562.html#ga595fe391e60a71bd98ffd53b4c015e44" target="_top" xlink:title="Finds a dynamic given string id.">
<polygon fill="#ffffff" stroke="#000000" points="134,-.5 134,-19.5 240,-19.5 240,-.5 134,-.5"/>
<text text-anchor="middle" x="187" y="-7.5" font-family="Helvetica,sans-Serif" font-size="10.00" fill="#000000">tds_lookup_dynamic</text>
</a>
</g>
</g>
<!-- Node1&#45;&gt;Node3 -->
<g id="edge2" class="edge">
<title>Node1&#45;&gt;Node3</title>
<path fill="none" stroke="#191970" d="M98.0422,-22.2478C106.3945,-21.0979 115.1738,-19.8891 123.8298,-18.6974"/>
<polygon fill="#191970" stroke="#191970" points="124.4724,-22.142 133.9016,-17.3107 123.5176,-15.2074 124.4724,-22.142"/>
</g>
</g>
</svg>
