<?xml version="1.0" encoding="UTF-8" standalone="no"?>
<!DOCTYPE svg PUBLIC "-//W3C//DTD SVG 1.1//EN"
 "http://www.w3.org/Graphics/SVG/1.1/DTD/svg11.dtd">
<!-- Generated by graphviz version 2.40.1 (20161225.0304)
 -->
<!-- Title: tds_process_env_chg Pages: 1 -->
<svg width="469pt" height="66pt"
 viewBox="0.00 0.00 469.00 66.00" xmlns="http://www.w3.org/2000/svg" xmlns:xlink="http://www.w3.org/1999/xlink">
<g id="graph0" class="graph" transform="scale(1 1) rotate(0) translate(4 62)">
<title>tds_process_env_chg</title>
<polygon fill="#ffffff" stroke="transparent" points="-4,4 -4,-62 465,-62 465,4 -4,4"/>
<!-- Node1 -->
<g id="node1" class="node">
<title>Node1</title>
<g id="a_node1"><a xlink:title="tds_process_env_chg() when ever certain things change on the server, such as database,...">
<polygon fill="#bfbfbf" stroke="#000000" points="0,-19.5 0,-38.5 112,-38.5 112,-19.5 0,-19.5"/>
<text text-anchor="middle" x="56" y="-26.5" font-family="Helvetica,sans-Serif" font-size="10.00" fill="#000000">tds_process_env_chg</text>
</a>
</g>
</g>
<!-- Node2 -->
<g id="node2" class="node">
<title>Node2</title>
<g id="a_node2"><a xlink:href="a00561.html#gad38aa5b9547817854ccba1fcc7855861" target="_top" xlink:title="Get an int16 from the server.">
<polygon fill="#ffffff" stroke="#000000" points="148,-38.5 148,-57.5 241,-57.5 241,-38.5 148,-38.5"/>
<text text-anchor="middle" x="194.5" y="-45.5" font-family="Helvetica,sans-Serif" font-size="10.00" fill="#000000">tds_get_usmallint</text>
</a>
</g>
</g>
<!-- Node1&#45;&gt;Node2 -->
<g id="edge1" class="edge">
<title>Node1&#45;&gt;Node2</title>
<path fill="none" stroke="#191970" d="M112.3333,-36.728C120.7457,-37.8821 129.4218,-39.0723 137.8409,-40.2273"/>
<polygon fill="#191970" stroke="#191970" points="137.5651,-43.7221 147.948,-41.6138 138.5165,-36.7871 137.5651,-43.7221"/>
</g>
<!-- Node5 -->
<g id="node5" class="node">
<title>Node5</title>
<g id="a_node5"><a xlink:href="a00437.html#ab45c291105027e69836002e1dd586141" target="_top" xlink:title="Write a message to the debug log.">
<polygon fill="#ffffff" stroke="#000000" points="158.5,-.5 158.5,-19.5 230.5,-19.5 230.5,-.5 158.5,-.5"/>
<text text-anchor="middle" x="194.5" y="-7.5" font-family="Helvetica,sans-Serif" font-size="10.00" fill="#000000">tdsdump_log</text>
</a>
</g>
</g>
<!-- Node1&#45;&gt;Node5 -->
<g id="edge4" class="edge">
<title>Node1&#45;&gt;Node5</title>
<path fill="none" stroke="#191970" d="M112.3333,-21.272C124.2597,-19.6358 136.7162,-17.927 148.219,-16.349"/>
<polygon fill="#191970" stroke="#191970" points="149.0408,-19.7691 158.4723,-14.9424 148.0894,-12.8341 149.0408,-19.7691"/>
</g>
<!-- Node3 -->
<g id="node3" class="node">
<title>Node3</title>
<g id="a_node3"><a xlink:href="a00561.html#gae777dd57e8d1bb40349d7d7d8434fddf" target="_top" xlink:title="Get N bytes from the buffer and return them in the already allocated space &#160;&#160;given to us.">
<polygon fill="#ffffff" stroke="#000000" points="277,-38.5 277,-57.5 336,-57.5 336,-38.5 277,-38.5"/>
<text text-anchor="middle" x="306.5" y="-45.5" font-family="Helvetica,sans-Serif" font-size="10.00" fill="#000000">tds_get_n</text>
</a>
</g>
</g>
<!-- Node2&#45;&gt;Node3 -->
<g id="edge2" class="edge">
<title>Node2&#45;&gt;Node3</title>
<path fill="none" stroke="#191970" d="M241.0251,-48C249.5613,-48 258.4001,-48 266.7167,-48"/>
<polygon fill="#191970" stroke="#191970" points="266.9097,-51.5001 276.9096,-48 266.9096,-44.5001 266.9097,-51.5001"/>
</g>
<!-- Node4 -->
<g id="node4" class="node">
<title>Node4</title>
<g id="a_node4"><a xlink:href="a00561.html#ga410619783bdf2bb60b0f27a5578e0e07" target="_top" xlink:title="Read in one &#39;packet&#39; from the server.">
<polygon fill="#ffffff" stroke="#000000" points="372,-38.5 372,-57.5 461,-57.5 461,-38.5 372,-38.5"/>
<text text-anchor="middle" x="416.5" y="-45.5" font-family="Helvetica,sans-Serif" font-size="10.00" fill="#000000">tds_read_packet</text>
</a>
</g>
</g>
<!-- Node3&#45;&gt;Node4 -->
<g id="edge3" class="edge">
<title>Node3&#45;&gt;Node4</title>
<path fill="none" stroke="#191970" d="M336.2676,-48C344.1335,-48 352.8784,-48 361.6194,-48"/>
<polygon fill="#191970" stroke="#191970" points="361.8257,-51.5001 371.8257,-48 361.8257,-44.5001 361.8257,-51.5001"/>
</g>
</g>
</svg>
