<?xml version="1.0" encoding="UTF-8" standalone="no"?>
<!DOCTYPE svg PUBLIC "-//W3C//DTD SVG 1.1//EN"
 "http://www.w3.org/Graphics/SVG/1.1/DTD/svg11.dtd">
<!-- Generated by graphviz version 2.40.1 (20161225.0304)
 -->
<!-- Title: tds_submit_rpc Pages: 1 -->
<svg width="311pt" height="28pt"
 viewBox="0.00 0.00 311.00 28.00" xmlns="http://www.w3.org/2000/svg" xmlns:xlink="http://www.w3.org/1999/xlink">
<g id="graph0" class="graph" transform="scale(1 1) rotate(0) translate(4 24)">
<title>tds_submit_rpc</title>
<polygon fill="#ffffff" stroke="transparent" points="-4,4 -4,-24 307,-24 307,4 -4,4"/>
<!-- Node1 -->
<g id="node1" class="node">
<title>Node1</title>
<g id="a_node1"><a xlink:title="Calls a RPC from server.">
<polygon fill="#bfbfbf" stroke="#000000" points="0,-.5 0,-19.5 83,-19.5 83,-.5 0,-.5"/>
<text text-anchor="middle" x="41.5" y="-7.5" font-family="Helvetica,sans-Serif" font-size="10.00" fill="#000000">tds_submit_rpc</text>
</a>
</g>
</g>
<!-- Node2 -->
<g id="node2" class="node">
<title>Node2</title>
<g id="a_node2"><a xlink:href="a00437.html#a16db200d2281f76fe46fc1cbe37ca9df" target="_top" xlink:title="Set state of TDS connection, with logging and checking.">
<polygon fill="#ffffff" stroke="#000000" points="119,-.5 119,-19.5 195,-19.5 195,-.5 119,-.5"/>
<text text-anchor="middle" x="157" y="-7.5" font-family="Helvetica,sans-Serif" font-size="10.00" fill="#000000">tds_set_state</text>
</a>
</g>
</g>
<!-- Node1&#45;&gt;Node2 -->
<g id="edge1" class="edge">
<title>Node1&#45;&gt;Node2</title>
<path fill="none" stroke="#191970" d="M83.1982,-10C91.467,-10 100.2128,-10 108.6806,-10"/>
<polygon fill="#191970" stroke="#191970" points="108.8209,-13.5001 118.8208,-10 108.8208,-6.5001 108.8209,-13.5001"/>
</g>
<!-- Node3 -->
<g id="node3" class="node">
<title>Node3</title>
<g id="a_node3"><a xlink:href="a00437.html#ab45c291105027e69836002e1dd586141" target="_top" xlink:title="Write a message to the debug log.">
<polygon fill="#ffffff" stroke="#000000" points="231,-.5 231,-19.5 303,-19.5 303,-.5 231,-.5"/>
<text text-anchor="middle" x="267" y="-7.5" font-family="Helvetica,sans-Serif" font-size="10.00" fill="#000000">tdsdump_log</text>
</a>
</g>
</g>
<!-- Node2&#45;&gt;Node3 -->
<g id="edge2" class="edge">
<title>Node2&#45;&gt;Node3</title>
<path fill="none" stroke="#191970" d="M195.164,-10C203.3694,-10 212.1281,-10 220.6069,-10"/>
<polygon fill="#191970" stroke="#191970" points="220.7545,-13.5001 230.7545,-10 220.7545,-6.5001 220.7545,-13.5001"/>
</g>
</g>
</svg>
