<?xml version="1.0" encoding="UTF-8" standalone="no"?>
<!DOCTYPE svg PUBLIC "-//W3C//DTD SVG 1.1//EN"
 "http://www.w3.org/Graphics/SVG/1.1/DTD/svg11.dtd">
<!-- Generated by graphviz version 2.40.1 (20161225.0304)
 -->
<!-- Title: tds_skip_quoted Pages: 1 -->
<svg width="573pt" height="28pt"
 viewBox="0.00 0.00 573.00 28.00" xmlns="http://www.w3.org/2000/svg" xmlns:xlink="http://www.w3.org/1999/xlink">
<g id="graph0" class="graph" transform="scale(1 1) rotate(0) translate(4 24)">
<title>tds_skip_quoted</title>
<polygon fill="#ffffff" stroke="transparent" points="-4,4 -4,-24 569,-24 569,4 -4,4"/>
<!-- Node1 -->
<g id="node1" class="node">
<title>Node1</title>
<g id="a_node1"><a xlink:title="Skip quoting string (like &#39;sfsf&#39;, &quot;dflkdj&quot; or [dfkjd])">
<polygon fill="#bfbfbf" stroke="#000000" points="477,-.5 477,-19.5 565,-19.5 565,-.5 477,-.5"/>
<text text-anchor="middle" x="521" y="-7.5" font-family="Helvetica,sans-Serif" font-size="10.00" fill="#000000">tds_skip_quoted</text>
</a>
</g>
</g>
<!-- Node2 -->
<g id="node2" class="node">
<title>Node2</title>
<g id="a_node2"><a xlink:href="a00560.html#ga6455b2991afbf7da90270787f2059d31" target="_top" xlink:title="Get position of next placeholder.">
<polygon fill="#ffffff" stroke="#000000" points="332,-.5 332,-19.5 441,-19.5 441,-.5 332,-.5"/>
<text text-anchor="middle" x="386.5" y="-7.5" font-family="Helvetica,sans-Serif" font-size="10.00" fill="#000000">tds_next_placeholder</text>
</a>
</g>
</g>
<!-- Node1&#45;&gt;Node2 -->
<g id="edge1" class="edge">
<title>Node1&#45;&gt;Node2</title>
<path fill="none" stroke="#191970" d="M466.9122,-10C458.5295,-10 449.8627,-10 441.4609,-10"/>
<polygon fill="#191970" stroke="#191970" points="466.9597,-13.5001 476.9597,-10 466.9596,-6.5001 466.9597,-13.5001"/>
</g>
<!-- Node3 -->
<g id="node3" class="node">
<title>Node3</title>
<g id="a_node3"><a xlink:href="a00560.html#gaaa7b4d37bf796019e72f25c6e7fe7bea" target="_top" xlink:title="Count the number of placeholders (&#39;?&#39;) in a query.">
<polygon fill="#ffffff" stroke="#000000" points="177,-.5 177,-19.5 296,-19.5 296,-.5 177,-.5"/>
<text text-anchor="middle" x="236.5" y="-7.5" font-family="Helvetica,sans-Serif" font-size="10.00" fill="#000000">tds_count_placeholders</text>
</a>
</g>
</g>
<!-- Node2&#45;&gt;Node3 -->
<g id="edge2" class="edge">
<title>Node2&#45;&gt;Node3</title>
<path fill="none" stroke="#191970" d="M321.6769,-10C313.1808,-10 304.5071,-10 296.103,-10"/>
<polygon fill="#191970" stroke="#191970" points="321.9223,-13.5001 331.9222,-10 321.9222,-6.5001 321.9223,-13.5001"/>
</g>
<!-- Node4 -->
<g id="node4" class="node">
<title>Node4</title>
<g id="a_node4"><a xlink:href="a00560.html#ga02c6ce3ff96369603a6ee4efee64caae" target="_top" xlink:title="Emulate prepared execute traslating to a normal language.">
<polygon fill="#ffffff" stroke="#000000" points="0,-.5 0,-19.5 141,-19.5 141,-.5 0,-.5"/>
<text text-anchor="middle" x="70.5" y="-7.5" font-family="Helvetica,sans-Serif" font-size="10.00" fill="#000000">tds_send_emulated_execute</text>
</a>
</g>
</g>
<!-- Node3&#45;&gt;Node4 -->
<g id="edge3" class="edge">
<title>Node3&#45;&gt;Node4</title>
<path fill="none" stroke="#191970" d="M166.4464,-10C158.0536,-10 149.4797,-10 141.0795,-10"/>
<polygon fill="#191970" stroke="#191970" points="166.5702,-13.5001 176.5702,-10 166.5702,-6.5001 166.5702,-13.5001"/>
</g>
</g>
</svg>
