<?xml version="1.0" encoding="UTF-8" standalone="no"?>
<!DOCTYPE svg PUBLIC "-//W3C//DTD SVG 1.1//EN"
 "http://www.w3.org/Graphics/SVG/1.1/DTD/svg11.dtd">
<!-- Generated by graphviz version 2.40.1 (20161225.0304)
 -->
<!-- Title: tds_dstr_copyn Pages: 1 -->
<svg width="381pt" height="104pt"
 viewBox="0.00 0.00 381.00 104.00" xmlns="http://www.w3.org/2000/svg" xmlns:xlink="http://www.w3.org/1999/xlink">
<g id="graph0" class="graph" transform="scale(1 1) rotate(0) translate(4 100)">
<title>tds_dstr_copyn</title>
<polygon fill="#ffffff" stroke="transparent" points="-4,4 -4,-100 377,-100 377,4 -4,4"/>
<!-- Node1 -->
<g id="node1" class="node">
<title>Node1</title>
<g id="a_node1"><a xlink:title="Set string to a given buffer of characters.">
<polygon fill="#bfbfbf" stroke="#000000" points="290,-38.5 290,-57.5 373,-57.5 373,-38.5 290,-38.5"/>
<text text-anchor="middle" x="331.5" y="-45.5" font-family="Helvetica,sans-Serif" font-size="10.00" fill="#000000">tds_dstr_copyn</text>
</a>
</g>
</g>
<!-- Node2 -->
<g id="node2" class="node">
<title>Node2</title>
<g id="a_node2"><a xlink:href="a00556.html#ga82ac44924fb1ae41042c233573a4ac8d" target="_top" xlink:title="Check the server name to find port info first Warning: connection&#45;&gt; &amp; login&#45;&gt; are all modified when n...">
<polygon fill="#ffffff" stroke="#000000" points="0,-76.5 0,-95.5 140,-95.5 140,-76.5 0,-76.5"/>
<text text-anchor="middle" x="70" y="-83.5" font-family="Helvetica,sans-Serif" font-size="10.00" fill="#000000">parse_server_name_for_port</text>
</a>
</g>
</g>
<!-- Node1&#45;&gt;Node2 -->
<g id="edge1" class="edge">
<title>Node1&#45;&gt;Node2</title>
<path fill="none" stroke="#191970" d="M286.9739,-60.0261C276.2369,-62.6175 264.7577,-65.135 254,-67 216.6621,-73.4731 174.6518,-78.0156 140.2094,-81.032"/>
<polygon fill="#191970" stroke="#191970" points="288.1314,-63.345 296.9929,-57.5377 286.4441,-56.5514 288.1314,-63.345"/>
</g>
<!-- Node3 -->
<g id="node3" class="node">
<title>Node3</title>
<g id="a_node3"><a xlink:href="a00563.html#gad96366d9fa93bfc283cef1299fbe97ab" target="_top" xlink:title="copy a string from another">
<polygon fill="#ffffff" stroke="#000000" points="176,-38.5 176,-57.5 254,-57.5 254,-38.5 176,-38.5"/>
<text text-anchor="middle" x="215" y="-45.5" font-family="Helvetica,sans-Serif" font-size="10.00" fill="#000000">tds_dstr_copy</text>
</a>
</g>
</g>
<!-- Node1&#45;&gt;Node3 -->
<g id="edge2" class="edge">
<title>Node1&#45;&gt;Node3</title>
<path fill="none" stroke="#191970" d="M279.502,-48C270.9696,-48 262.2562,-48 254.1055,-48"/>
<polygon fill="#191970" stroke="#191970" points="279.7699,-51.5001 289.7699,-48 279.7699,-44.5001 279.7699,-51.5001"/>
</g>
<!-- Node6 -->
<g id="node6" class="node">
<title>Node6</title>
<g id="a_node6"><a xlink:href="a00563.html#ga4e6d9fa6f9b9551a5a3390e10a5322e6" target="_top" xlink:title="Duplicate a string from another dynamic string.">
<polygon fill="#ffffff" stroke="#000000" points="178.5,-.5 178.5,-19.5 251.5,-19.5 251.5,-.5 178.5,-.5"/>
<text text-anchor="middle" x="215" y="-7.5" font-family="Helvetica,sans-Serif" font-size="10.00" fill="#000000">tds_dstr_dup</text>
</a>
</g>
</g>
<!-- Node1&#45;&gt;Node6 -->
<g id="edge6" class="edge">
<title>Node1&#45;&gt;Node6</title>
<path fill="none" stroke="#191970" d="M292.1784,-35.1741C276.5466,-30.0753 258.8742,-24.3109 244.3885,-19.5859"/>
<polygon fill="#191970" stroke="#191970" points="291.5097,-38.6374 302.1021,-38.411 293.6805,-31.9825 291.5097,-38.6374"/>
</g>
<!-- Node3&#45;&gt;Node2 -->
<g id="edge3" class="edge">
<title>Node3&#45;&gt;Node2</title>
<path fill="none" stroke="#191970" d="M168.5072,-60.1843C148.3763,-65.46 125.1617,-71.5438 106.3265,-76.4799"/>
<polygon fill="#191970" stroke="#191970" points="169.6243,-63.5098 178.4104,-57.589 167.8497,-56.7385 169.6243,-63.5098"/>
</g>
<!-- Node4 -->
<g id="node4" class="node">
<title>Node4</title>
<g id="a_node4"><a xlink:href="a00563.html#gab78cc59b110df2817b00f9bed74c6ff1" target="_top" xlink:title="set a string from another buffer.">
<polygon fill="#ffffff" stroke="#000000" points="34.5,-38.5 34.5,-57.5 105.5,-57.5 105.5,-38.5 34.5,-38.5"/>
<text text-anchor="middle" x="70" y="-45.5" font-family="Helvetica,sans-Serif" font-size="10.00" fill="#000000">tds_dstr_set</text>
</a>
</g>
</g>
<!-- Node3&#45;&gt;Node4 -->
<g id="edge4" class="edge">
<title>Node3&#45;&gt;Node4</title>
<path fill="none" stroke="#191970" d="M165.7467,-48C146.0844,-48 123.8709,-48 105.7933,-48"/>
<polygon fill="#191970" stroke="#191970" points="165.7609,-51.5001 175.7609,-48 165.7609,-44.5001 165.7609,-51.5001"/>
</g>
<!-- Node5 -->
<g id="node5" class="node">
<title>Node5</title>
<g id="a_node5"><a xlink:href="a00562.html#ga22c7f413d43fc0d511e122a3de389166" target="_top" xlink:title="Reads column information.">
<polygon fill="#ffffff" stroke="#000000" points="18,-.5 18,-19.5 122,-19.5 122,-.5 18,-.5"/>
<text text-anchor="middle" x="70" y="-7.5" font-family="Helvetica,sans-Serif" font-size="10.00" fill="#000000">tds_process_colinfo</text>
</a>
</g>
</g>
<!-- Node3&#45;&gt;Node5 -->
<g id="edge5" class="edge">
<title>Node3&#45;&gt;Node5</title>
<path fill="none" stroke="#191970" d="M168.5072,-35.8157C148.3763,-30.54 125.1617,-24.4562 106.3265,-19.5201"/>
<polygon fill="#191970" stroke="#191970" points="167.8497,-39.2615 178.4104,-38.411 169.6243,-32.4902 167.8497,-39.2615"/>
</g>
</g>
</svg>
