<?xml version="1.0" encoding="UTF-8" standalone="no"?>
<!DOCTYPE svg PUBLIC "-//W3C//DTD SVG 1.1//EN"
 "http://www.w3.org/Graphics/SVG/1.1/DTD/svg11.dtd">
<!-- Generated by graphviz version 2.40.1 (20161225.0304)
 -->
<!-- Title: tds_freeze_close Pages: 1 -->
<svg width="244pt" height="66pt"
 viewBox="0.00 0.00 244.00 66.00" xmlns="http://www.w3.org/2000/svg" xmlns:xlink="http://www.w3.org/1999/xlink">
<g id="graph0" class="graph" transform="scale(1 1) rotate(0) translate(4 62)">
<title>tds_freeze_close</title>
<polygon fill="#ffffff" stroke="transparent" points="-4,4 -4,-62 240,-62 240,4 -4,4"/>
<!-- Node1 -->
<g id="node1" class="node">
<title>Node1</title>
<g id="a_node1"><a xlink:title="Stop keeping data for this specific freeze.">
<polygon fill="#bfbfbf" stroke="#000000" points="0,-19.5 0,-38.5 91,-38.5 91,-19.5 0,-19.5"/>
<text text-anchor="middle" x="45.5" y="-26.5" font-family="Helvetica,sans-Serif" font-size="10.00" fill="#000000">tds_freeze_close</text>
</a>
</g>
</g>
<!-- Node2 -->
<g id="node2" class="node">
<title>Node2</title>
<g id="a_node2"><a xlink:href="a00561.html#ga2660b893ae2bf36fe1b63b354e748bad" target="_top" xlink:title="Stop keeping data for this specific freeze.">
<polygon fill="#ffffff" stroke="#000000" points="127,-38.5 127,-57.5 236,-57.5 236,-38.5 127,-38.5"/>
<text text-anchor="middle" x="181.5" y="-45.5" font-family="Helvetica,sans-Serif" font-size="10.00" fill="#000000">tds_freeze_close_len</text>
</a>
</g>
</g>
<!-- Node1&#45;&gt;Node2 -->
<g id="edge1" class="edge">
<title>Node1&#45;&gt;Node2</title>
<path fill="none" stroke="#191970" d="M91.1644,-35.3796C99.373,-36.5264 108.0701,-37.7414 116.6984,-38.9468"/>
<polygon fill="#191970" stroke="#191970" points="116.3742,-42.4354 126.7623,-40.3528 117.3428,-35.5028 116.3742,-42.4354"/>
</g>
<!-- Node3 -->
<g id="node3" class="node">
<title>Node3</title>
<g id="a_node3"><a xlink:href="a00561.html#ga528cc96da09c11bc2930daae64e33e83" target="_top" xlink:title="Compute how many bytes has been written from freeze.">
<polygon fill="#ffffff" stroke="#000000" points="133,-.5 133,-19.5 230,-19.5 230,-.5 133,-.5"/>
<text text-anchor="middle" x="181.5" y="-7.5" font-family="Helvetica,sans-Serif" font-size="10.00" fill="#000000">tds_freeze_written</text>
</a>
</g>
</g>
<!-- Node1&#45;&gt;Node3 -->
<g id="edge2" class="edge">
<title>Node1&#45;&gt;Node3</title>
<path fill="none" stroke="#191970" d="M91.1644,-22.6204C101.3395,-21.1989 112.2653,-19.6725 122.8802,-18.1895"/>
<polygon fill="#191970" stroke="#191970" points="123.5079,-21.6359 132.9274,-16.7859 122.5393,-14.7032 123.5079,-21.6359"/>
</g>
</g>
</svg>
