<?xml version="1.0" encoding="UTF-8" standalone="no"?>
<!DOCTYPE svg PUBLIC "-//W3C//DTD SVG 1.1//EN"
 "http://www.w3.org/Graphics/SVG/1.1/DTD/svg11.dtd">
<!-- Generated by graphviz version 2.40.1 (20161225.0304)
 -->
<!-- Title: tds_get_n Pages: 1 -->
<svg width="363pt" height="393pt"
 viewBox="0.00 0.00 363.00 393.00" xmlns="http://www.w3.org/2000/svg" xmlns:xlink="http://www.w3.org/1999/xlink">
<g id="graph0" class="graph" transform="scale(1 1) rotate(0) translate(4 389)">
<title>tds_get_n</title>
<polygon fill="#ffffff" stroke="transparent" points="-4,4 -4,-389 359,-389 359,4 -4,4"/>
<!-- Node1 -->
<g id="node1" class="node">
<title>Node1</title>
<g id="a_node1"><a xlink:title="Get N bytes from the buffer and return them in the already allocated space &#160;&#160;given to us.">
<polygon fill="#bfbfbf" stroke="#000000" points="296,-245.5 296,-264.5 355,-264.5 355,-245.5 296,-245.5"/>
<text text-anchor="middle" x="325.5" y="-252.5" font-family="Helvetica,sans-Serif" font-size="10.00" fill="#000000">tds_get_n</text>
</a>
</g>
</g>
<!-- Node2 -->
<g id="node2" class="node">
<title>Node2</title>
<g id="a_node2"><a xlink:href="a00561.html#ga9ac121c269e203337a48c5bf8afc48c3" target="_top" xlink:title="Get an int32 from the server.">
<polygon fill="#ffffff" stroke="#000000" points="178.5,-352.5 178.5,-371.5 248.5,-371.5 248.5,-352.5 178.5,-352.5"/>
<text text-anchor="middle" x="213.5" y="-359.5" font-family="Helvetica,sans-Serif" font-size="10.00" fill="#000000">tds_get_uint</text>
</a>
</g>
</g>
<!-- Node1&#45;&gt;Node2 -->
<g id="edge1" class="edge">
<title>Node1&#45;&gt;Node2</title>
<path fill="none" stroke="#191970" d="M307.8329,-271.8784C284.0365,-294.6125 242.4836,-334.3103 223.4885,-352.4574"/>
<polygon fill="#191970" stroke="#191970" points="310.3512,-274.3131 315.1641,-264.8745 305.5157,-269.2516 310.3512,-274.3131"/>
</g>
<!-- Node4 -->
<g id="node4" class="node">
<title>Node4</title>
<g id="a_node4"><a xlink:href="a00561.html#ga8ab6c87318eaf15ea17a9575763f7809" target="_top" xlink:title="Get an uint64 from the server.">
<polygon fill="#ffffff" stroke="#000000" points="176,-164.5 176,-183.5 251,-183.5 251,-164.5 176,-164.5"/>
<text text-anchor="middle" x="213.5" y="-171.5" font-family="Helvetica,sans-Serif" font-size="10.00" fill="#000000">tds_get_uint8</text>
</a>
</g>
</g>
<!-- Node1&#45;&gt;Node4 -->
<g id="edge3" class="edge">
<title>Node1&#45;&gt;Node4</title>
<path fill="none" stroke="#191970" d="M310.6108,-237.7502C298.1714,-224.1713 279.3953,-205.512 260,-193 254.4305,-189.4071 248.0696,-186.2729 241.8781,-183.6418"/>
<polygon fill="#191970" stroke="#191970" points="308.2144,-240.3212 317.4862,-245.4481 313.4352,-235.6582 308.2144,-240.3212"/>
</g>
<!-- Node5 -->
<g id="node5" class="node">
<title>Node5</title>
<g id="a_node5"><a xlink:href="a00561.html#gad38aa5b9547817854ccba1fcc7855861" target="_top" xlink:title="Get an int16 from the server.">
<polygon fill="#ffffff" stroke="#000000" points="167,-202.5 167,-221.5 260,-221.5 260,-202.5 167,-202.5"/>
<text text-anchor="middle" x="213.5" y="-209.5" font-family="Helvetica,sans-Serif" font-size="10.00" fill="#000000">tds_get_usmallint</text>
</a>
</g>
</g>
<!-- Node1&#45;&gt;Node5 -->
<g id="edge4" class="edge">
<title>Node1&#45;&gt;Node5</title>
<path fill="none" stroke="#191970" d="M291.0272,-241.7649C273.9778,-235.2192 253.7882,-227.4678 238.2869,-221.5164"/>
<polygon fill="#191970" stroke="#191970" points="290.0535,-245.1401 300.6436,-245.4569 292.5625,-238.6052 290.0535,-245.1401"/>
</g>
<!-- Node8 -->
<g id="node8" class="node">
<title>Node8</title>
<g id="a_node8"><a xlink:href="a00562.html#ga22c7f413d43fc0d511e122a3de389166" target="_top" xlink:title="Reads column information.">
<polygon fill="#ffffff" stroke="#000000" points="13.5,-327.5 13.5,-346.5 117.5,-346.5 117.5,-327.5 13.5,-327.5"/>
<text text-anchor="middle" x="65.5" y="-334.5" font-family="Helvetica,sans-Serif" font-size="10.00" fill="#000000">tds_process_colinfo</text>
</a>
</g>
</g>
<!-- Node1&#45;&gt;Node8 -->
<g id="edge15" class="edge">
<title>Node1&#45;&gt;Node8</title>
<path fill="none" stroke="#191970" d="M287.2492,-267.776C248.1061,-280.759 185.4704,-301.2824 131,-318 120.6995,-321.1613 109.4456,-324.476 99.2176,-327.4354"/>
<polygon fill="#191970" stroke="#191970" points="288.5297,-271.0388 296.9163,-264.5645 286.3228,-264.3957 288.5297,-271.0388"/>
</g>
<!-- Node3 -->
<g id="node3" class="node">
<title>Node3</title>
<g id="a_node3"><a xlink:href="a00562.html#gae688b515631141acfbc41bbb91c8b921" target="_top" xlink:title="Process new TDS 5.0 token for describing output parameters.">
<polygon fill="#ffffff" stroke="#000000" points="0,-365.5 0,-384.5 131,-384.5 131,-365.5 0,-365.5"/>
<text text-anchor="middle" x="65.5" y="-372.5" font-family="Helvetica,sans-Serif" font-size="10.00" fill="#000000">tds5_process_dyn_result2</text>
</a>
</g>
</g>
<!-- Node2&#45;&gt;Node3 -->
<g id="edge2" class="edge">
<title>Node2&#45;&gt;Node3</title>
<path fill="none" stroke="#191970" d="M168.408,-365.9608C156.6256,-366.9957 143.683,-368.1326 131.0714,-369.2404"/>
<polygon fill="#191970" stroke="#191970" points="168.7707,-369.4425 178.4261,-365.0808 168.1581,-362.4693 168.7707,-369.4425"/>
</g>
<!-- Node5&#45;&gt;Node3 -->
<g id="edge5" class="edge">
<title>Node5&#45;&gt;Node3</title>
<path fill="none" stroke="#191970" d="M207.6787,-231.3971C197.3686,-262.4113 172.9358,-323.0193 131,-356 126.0674,-359.8793 120.3697,-362.9667 114.4352,-365.4239"/>
<polygon fill="#191970" stroke="#191970" points="211.0498,-232.3454 210.7421,-221.7551 204.3784,-230.2258 211.0498,-232.3454"/>
</g>
<!-- Node6 -->
<g id="node6" class="node">
<title>Node6</title>
<g id="a_node6"><a xlink:href="a00562.html#ga4e3dd9d3614f5f0433b78b761dd68741" target="_top" xlink:title="tds_process_col_fmt() is the other half of result set processing under TDS 4.2.">
<polygon fill="#ffffff" stroke="#000000" points="12,-38.5 12,-57.5 119,-57.5 119,-38.5 12,-38.5"/>
<text text-anchor="middle" x="65.5" y="-45.5" font-family="Helvetica,sans-Serif" font-size="10.00" fill="#000000">tds_process_col_fmt</text>
</a>
</g>
</g>
<!-- Node5&#45;&gt;Node6 -->
<g id="edge6" class="edge">
<title>Node5&#45;&gt;Node6</title>
<path fill="none" stroke="#191970" d="M170.9009,-196.7475C169.509,-195.5867 168.2003,-194.3396 167,-193 128.135,-149.6236 172.0995,-108.2654 131,-67 127.1565,-63.141 122.5794,-60.0553 117.6565,-57.5897"/>
<polygon fill="#191970" stroke="#191970" points="169.3324,-199.9059 179.606,-202.495 173.1893,-194.0643 169.3324,-199.9059"/>
</g>
<!-- Node7 -->
<g id="node7" class="node">
<title>Node7</title>
<g id="a_node7"><a xlink:href="a00562.html#ga905d2fa5e1b602817bd16bb0fcf9eadb" target="_top" xlink:title="tds_process_col_name() is one half of the result set under TDS 4.2 it contains all the column names,...">
<polygon fill="#ffffff" stroke="#000000" points="7,-.5 7,-19.5 124,-19.5 124,-.5 7,-.5"/>
<text text-anchor="middle" x="65.5" y="-7.5" font-family="Helvetica,sans-Serif" font-size="10.00" fill="#000000">tds_process_col_name</text>
</a>
</g>
</g>
<!-- Node5&#45;&gt;Node7 -->
<g id="edge7" class="edge">
<title>Node5&#45;&gt;Node7</title>
<path fill="none" stroke="#191970" d="M170.6578,-196.7215C169.3465,-195.5688 168.1194,-194.3304 167,-193 118.9548,-135.8997 181.991,-83.4858 131,-29 127.3593,-25.1097 122.9746,-22.0001 118.22,-19.5168"/>
<polygon fill="#191970" stroke="#191970" points="168.7058,-199.627 178.9233,-202.4296 172.6836,-193.867 168.7058,-199.627"/>
</g>
<!-- Node5&#45;&gt;Node8 -->
<g id="edge8" class="edge">
<title>Node5&#45;&gt;Node8</title>
<path fill="none" stroke="#191970" d="M203.8945,-230.5989C190.6646,-254.3832 164.6073,-295.2108 131,-318 125.3162,-321.8542 118.8457,-324.9373 112.2367,-327.4007"/>
<polygon fill="#191970" stroke="#191970" points="207.1066,-232.0158 208.7637,-221.5514 200.9425,-228.6984 207.1066,-232.0158"/>
</g>
<!-- Node9 -->
<g id="node9" class="node">
<title>Node9</title>
<g id="a_node9"><a xlink:href="a00562.html#gae5b3e01f3d665f9e377de091f46f1ab9" target="_top" xlink:title="tds_process_compute_names() processes compute result sets.">
<polygon fill="#ffffff" stroke="#000000" points="9,-278 9,-308 122,-308 122,-278 9,-278"/>
<text text-anchor="start" x="17" y="-296" font-family="Helvetica,sans-Serif" font-size="10.00" fill="#000000">tds_process_compute</text>
<text text-anchor="middle" x="65.5" y="-285" font-family="Helvetica,sans-Serif" font-size="10.00" fill="#000000">_names</text>
</a>
</g>
</g>
<!-- Node5&#45;&gt;Node9 -->
<g id="edge9" class="edge">
<title>Node5&#45;&gt;Node9</title>
<path fill="none" stroke="#191970" d="M193.0155,-227.88C176.8103,-239.9451 153.2779,-256.3883 131,-268 124.0922,-271.6005 116.5445,-274.9633 109.1086,-277.9821"/>
<polygon fill="#191970" stroke="#191970" points="195.343,-230.5081 201.21,-221.686 191.122,-224.9238 195.343,-230.5081"/>
</g>
<!-- Node10 -->
<g id="node10" class="node">
<title>Node10</title>
<g id="a_node10"><a xlink:href="a00562.html#ga315d875d90c64d12d61fc9e33b4dee96" target="_top" xlink:title="Reads cursor command results.">
<polygon fill="#ffffff" stroke="#000000" points="14.5,-229 14.5,-259 116.5,-259 116.5,-229 14.5,-229"/>
<text text-anchor="start" x="22.5" y="-247" font-family="Helvetica,sans-Serif" font-size="10.00" fill="#000000">tds_process_cursor</text>
<text text-anchor="middle" x="65.5" y="-236" font-family="Helvetica,sans-Serif" font-size="10.00" fill="#000000">_tokens</text>
</a>
</g>
</g>
<!-- Node5&#45;&gt;Node10 -->
<g id="edge10" class="edge">
<title>Node5&#45;&gt;Node10</title>
<path fill="none" stroke="#191970" d="M159.514,-223.6727C145.5111,-226.7003 130.4743,-229.9515 116.6234,-232.9463"/>
<polygon fill="#191970" stroke="#191970" points="160.4614,-227.0488 169.4958,-221.5144 158.982,-220.2069 160.4614,-227.0488"/>
</g>
<!-- Node11 -->
<g id="node11" class="node">
<title>Node11</title>
<g id="a_node11"><a xlink:href="a00562.html#ga416cf119c1d4a0fca27dc5b50c261358" target="_top" xlink:title="Process results from dynamic.">
<polygon fill="#ffffff" stroke="#000000" points="5.5,-190.5 5.5,-209.5 125.5,-209.5 125.5,-190.5 5.5,-190.5"/>
<text text-anchor="middle" x="65.5" y="-197.5" font-family="Helvetica,sans-Serif" font-size="10.00" fill="#000000">tds_process_dyn_result</text>
</a>
</g>
</g>
<!-- Node5&#45;&gt;Node11 -->
<g id="edge11" class="edge">
<title>Node5&#45;&gt;Node11</title>
<path fill="none" stroke="#191970" d="M156.6762,-207.3927C146.4967,-206.5673 135.8583,-205.7047 125.5906,-204.8722"/>
<polygon fill="#191970" stroke="#191970" points="156.4217,-210.8834 166.6719,-208.2031 156.9875,-203.9063 156.4217,-210.8834"/>
</g>
<!-- Node12 -->
<g id="node12" class="node">
<title>Node12</title>
<g id="a_node12"><a xlink:href="a00562.html#ga7a081cf9bb8f04ead12f0299fb7c4cd9" target="_top" xlink:title="tds_process_end() processes any of the DONE, DONEPROC, or DONEINPROC tokens.">
<polygon fill="#ffffff" stroke="#000000" points="20,-152.5 20,-171.5 111,-171.5 111,-152.5 20,-152.5"/>
<text text-anchor="middle" x="65.5" y="-159.5" font-family="Helvetica,sans-Serif" font-size="10.00" fill="#000000">tds_process_end</text>
</a>
</g>
</g>
<!-- Node5&#45;&gt;Node12 -->
<g id="edge12" class="edge">
<title>Node5&#45;&gt;Node12</title>
<path fill="none" stroke="#191970" d="M180.1449,-198.7981C165.2077,-193.0594 147.3177,-186.4235 131,-181 121.1124,-177.7137 110.2827,-174.4416 100.3271,-171.5623"/>
<polygon fill="#191970" stroke="#191970" points="178.8991,-202.0689 189.4882,-202.4179 181.428,-195.5416 178.8991,-202.0689"/>
</g>
<!-- Node13 -->
<g id="node13" class="node">
<title>Node13</title>
<g id="a_node13"><a xlink:href="a00562.html#ga3e1b4df4410a86a563a8c155e7799720" target="_top" xlink:title="tds_process_env_chg() when ever certain things change on the server, such as database,...">
<polygon fill="#ffffff" stroke="#000000" points="9.5,-114.5 9.5,-133.5 121.5,-133.5 121.5,-114.5 9.5,-114.5"/>
<text text-anchor="middle" x="65.5" y="-121.5" font-family="Helvetica,sans-Serif" font-size="10.00" fill="#000000">tds_process_env_chg</text>
</a>
</g>
</g>
<!-- Node5&#45;&gt;Node13 -->
<g id="edge13" class="edge">
<title>Node5&#45;&gt;Node13</title>
<path fill="none" stroke="#191970" d="M174.2211,-197.8947C171.683,-196.4001 169.2476,-194.771 167,-193 145.4914,-176.0528 153.3728,-158.7888 131,-143 125.4859,-139.1086 119.18,-136.0082 112.7084,-133.5394"/>
<polygon fill="#191970" stroke="#191970" points="172.6283,-201.0112 183.1225,-202.4682 175.8274,-194.785 172.6283,-201.0112"/>
</g>
<!-- Node14 -->
<g id="node14" class="node">
<title>Node14</title>
<g id="a_node14"><a xlink:href="a00562.html#gaeec59bca9bd0c5388e245f0d19d9c81a" target="_top" xlink:title="Process list of table from network.">
<polygon fill="#ffffff" stroke="#000000" points="9,-76.5 9,-95.5 122,-95.5 122,-76.5 9,-76.5"/>
<text text-anchor="middle" x="65.5" y="-83.5" font-family="Helvetica,sans-Serif" font-size="10.00" fill="#000000">tds_process_tabname</text>
</a>
</g>
</g>
<!-- Node5&#45;&gt;Node14 -->
<g id="edge14" class="edge">
<title>Node5&#45;&gt;Node14</title>
<path fill="none" stroke="#191970" d="M171.6371,-196.9963C169.9911,-195.7632 168.434,-194.4334 167,-193 137.1133,-163.1258 162.4213,-133.2557 131,-105 126.686,-101.1206 121.6238,-98.0302 116.2578,-95.5689"/>
<polygon fill="#191970" stroke="#191970" points="170.0929,-200.1547 180.4495,-202.389 173.7467,-194.1839 170.0929,-200.1547"/>
</g>
</g>
</svg>
