<?xml version="1.0" encoding="UTF-8" standalone="no"?>
<!DOCTYPE svg PUBLIC "-//W3C//DTD SVG 1.1//EN"
 "http://www.w3.org/Graphics/SVG/1.1/DTD/svg11.dtd">
<!-- Generated by graphviz version 2.40.1 (20161225.0304)
 -->
<!-- Title: dbresults Pages: 1 -->
<svg width="270pt" height="47pt"
 viewBox="0.00 0.00 270.00 47.00" xmlns="http://www.w3.org/2000/svg" xmlns:xlink="http://www.w3.org/1999/xlink">
<g id="graph0" class="graph" transform="scale(1 1) rotate(0) translate(4 43)">
<title>dbresults</title>
<polygon fill="#ffffff" stroke="transparent" points="-4,4 -4,-43 266,-43 266,4 -4,4"/>
<!-- Node1 -->
<g id="node1" class="node">
<title>Node1</title>
<g id="a_node1"><a xlink:title="Set up query results.">
<polygon fill="#bfbfbf" stroke="#000000" points="0,-.5 0,-19.5 56,-19.5 56,-.5 0,-.5"/>
<text text-anchor="middle" x="28" y="-7.5" font-family="Helvetica,sans-Serif" font-size="10.00" fill="#000000">dbresults</text>
</a>
</g>
</g>
<!-- Node2 -->
<g id="node2" class="node">
<title>Node2</title>
<g id="a_node2"><a xlink:href="a00545.html#gaf1879b85e8238c015b9648d077665285" target="_top" xlink:title=" ">
<polygon fill="#ffffff" stroke="#000000" points="92,-19.5 92,-38.5 154,-38.5 154,-19.5 92,-19.5"/>
<text text-anchor="middle" x="123" y="-26.5" font-family="Helvetica,sans-Serif" font-size="10.00" fill="#000000">_dbresults</text>
</a>
</g>
</g>
<!-- Node1&#45;&gt;Node2 -->
<g id="edge1" class="edge">
<title>Node1&#45;&gt;Node2</title>
<path fill="none" stroke="#191970" d="M56.2459,-15.6492C64.2655,-17.2531 73.1664,-19.0333 81.7862,-20.7572"/>
<polygon fill="#191970" stroke="#191970" points="81.2141,-24.2121 91.7063,-22.7413 82.5869,-17.348 81.2141,-24.2121"/>
</g>
<!-- Node3 -->
<g id="node3" class="node">
<title>Node3</title>
<g id="a_node3"><a xlink:href="a00437.html#ab45c291105027e69836002e1dd586141" target="_top" xlink:title="Write a message to the debug log.">
<polygon fill="#ffffff" stroke="#000000" points="190,-.5 190,-19.5 262,-19.5 262,-.5 190,-.5"/>
<text text-anchor="middle" x="226" y="-7.5" font-family="Helvetica,sans-Serif" font-size="10.00" fill="#000000">tdsdump_log</text>
</a>
</g>
</g>
<!-- Node1&#45;&gt;Node3 -->
<g id="edge3" class="edge">
<title>Node1&#45;&gt;Node3</title>
<path fill="none" stroke="#191970" d="M56.3686,-10C88.5256,-10 141.4281,-10 179.6123,-10"/>
<polygon fill="#191970" stroke="#191970" points="179.9625,-13.5001 189.9625,-10 179.9624,-6.5001 179.9625,-13.5001"/>
</g>
<!-- Node2&#45;&gt;Node3 -->
<g id="edge2" class="edge">
<title>Node2&#45;&gt;Node3</title>
<path fill="none" stroke="#191970" d="M154.1829,-23.2478C162.2688,-21.7562 171.1505,-20.1179 179.8282,-18.5171"/>
<polygon fill="#191970" stroke="#191970" points="180.6623,-21.9224 189.8614,-16.6663 179.3924,-15.0385 180.6623,-21.9224"/>
</g>
</g>
</svg>
