<?xml version="1.0" encoding="UTF-8" standalone="no"?>
<!DOCTYPE svg PUBLIC "-//W3C//DTD SVG 1.1//EN"
 "http://www.w3.org/Graphics/SVG/1.1/DTD/svg11.dtd">
<!-- Generated by graphviz version 2.40.1 (20161225.0304)
 -->
<!-- Title: metadata_t Pages: 1 -->
<svg width="107pt" height="162pt"
 viewBox="0.00 0.00 106.50 162.00" xmlns="http://www.w3.org/2000/svg" xmlns:xlink="http://www.w3.org/1999/xlink">
<g id="graph0" class="graph" transform="scale(1 1) rotate(0) translate(4 158)">
<title>metadata_t</title>
<polygon fill="#ffffff" stroke="transparent" points="-4,4 -4,-158 102.5,-158 102.5,4 -4,4"/>
<!-- Node1 -->
<g id="node1" class="node">
<title>Node1</title>
<g id="a_node1"><a xlink:title=" ">
<polygon fill="#bfbfbf" stroke="#000000" points="0,-.5 0,-19.5 65,-19.5 65,-.5 0,-.5"/>
<text text-anchor="middle" x="32.5" y="-7.5" font-family="Helvetica,sans-Serif" font-size="10.00" fill="#000000">metadata_t</text>
</a>
</g>
</g>
<!-- Node2 -->
<g id="node2" class="node">
<title>Node2</title>
<g id="a_node2"><a xlink:href="a00620.html" target="_top" xlink:title=" ">
<polygon fill="#ffffff" stroke="#000000" points="13.5,-134.5 13.5,-153.5 51.5,-153.5 51.5,-134.5 13.5,-134.5"/>
<text text-anchor="middle" x="32.5" y="-141.5" font-family="Helvetica,sans-Serif" font-size="10.00" fill="#000000">col_t</text>
</a>
</g>
</g>
<!-- Node2&#45;&gt;Node1 -->
<g id="edge1" class="edge">
<title>Node2&#45;&gt;Node1</title>
<path fill="none" stroke="#9a32cd" stroke-dasharray="5,2" d="M29.0154,-124.0318C26.7099,-108.5023 24.3128,-86.4064 25.5,-67 26.5227,-50.2814 29.2178,-30.9581 30.9498,-19.6489"/>
<polygon fill="#9a32cd" stroke="#9a32cd" points="25.5825,-124.7291 30.6254,-134.0468 32.4938,-123.618 25.5825,-124.7291"/>
<text text-anchor="middle" x="33.5" y="-74.5" font-family="Helvetica,sans-Serif" font-size="10.00" fill="#000000"> col</text>
</g>
<!-- Node3 -->
<g id="node3" class="node">
<title>Node3</title>
<g id="a_node3"><a xlink:href="a00580.html" target="_top" xlink:title=" ">
<polygon fill="#ffffff" stroke="#000000" points="50.5,-67.5 50.5,-86.5 98.5,-86.5 98.5,-67.5 50.5,-67.5"/>
<text text-anchor="middle" x="74.5" y="-74.5" font-family="Helvetica,sans-Serif" font-size="10.00" fill="#000000">KEY_T</text>
</a>
</g>
</g>
<!-- Node2&#45;&gt;Node3 -->
<g id="edge3" class="edge">
<title>Node2&#45;&gt;Node3</title>
<path fill="none" stroke="#9a32cd" stroke-dasharray="5,2" d="M44.0281,-125.6099C51.9457,-112.9795 62.1357,-96.7241 68.4936,-86.5817"/>
<polygon fill="#9a32cd" stroke="#9a32cd" points="40.8635,-124.0687 38.5176,-134.4005 46.7945,-127.7866 40.8635,-124.0687"/>
<text text-anchor="middle" x="68" y="-108" font-family="Helvetica,sans-Serif" font-size="10.00" fill="#000000"> keys</text>
</g>
<!-- Node3&#45;&gt;Node1 -->
<g id="edge2" class="edge">
<title>Node3&#45;&gt;Node1</title>
<path fill="none" stroke="#9a32cd" stroke-dasharray="5,2" d="M62.9719,-58.6099C55.0543,-45.9795 44.8643,-29.7241 38.5064,-19.5817"/>
<polygon fill="#9a32cd" stroke="#9a32cd" points="60.2055,-60.7866 68.4824,-67.4005 66.1365,-57.0687 60.2055,-60.7866"/>
<text text-anchor="middle" x="74.5" y="-41" font-family="Helvetica,sans-Serif" font-size="10.00" fill="#000000"> pacross</text>
</g>
</g>
</svg>
