<?xml version="1.0" encoding="UTF-8" standalone="no"?>
<!DOCTYPE svg PUBLIC "-//W3C//DTD SVG 1.1//EN"
 "http://www.w3.org/Graphics/SVG/1.1/DTD/svg11.dtd">
<!-- Generated by graphviz version 2.40.1 (20161225.0304)
 -->
<!-- Title: CONNECT_EVENT Pages: 1 -->
<svg width="544pt" height="164pt"
 viewBox="0.00 0.00 544.00 164.00" xmlns="http://www.w3.org/2000/svg" xmlns:xlink="http://www.w3.org/1999/xlink">
<g id="graph0" class="graph" transform="scale(1 1) rotate(0) translate(4 160)">
<title>CONNECT_EVENT</title>
<polygon fill="#ffffff" stroke="transparent" points="-4,4 -4,-160 540,-160 540,4 -4,4"/>
<!-- Node1 -->
<g id="node1" class="node">
<title>Node1</title>
<g id="a_node1"><a xlink:title=" ">
<polygon fill="#bfbfbf" stroke="#000000" points="299,-.5 299,-19.5 405,-19.5 405,-.5 299,-.5"/>
<text text-anchor="middle" x="352" y="-7.5" font-family="Helvetica,sans-Serif" font-size="10.00" fill="#000000">CONNECT_EVENT</text>
</a>
</g>
</g>
<!-- Node2 -->
<g id="node2" class="node">
<title>Node2</title>
<g id="a_node2"><a xlink:href="a00692.html" target="_top" xlink:title=" ">
<polygon fill="#ffffff" stroke="#000000" points="163,-67.5 163,-86.5 257,-86.5 257,-67.5 163,-67.5"/>
<text text-anchor="middle" x="210" y="-74.5" font-family="Helvetica,sans-Serif" font-size="10.00" fill="#000000">tds_pool_member</text>
</a>
</g>
</g>
<!-- Node2&#45;&gt;Node1 -->
<g id="edge1" class="edge">
<title>Node2&#45;&gt;Node1</title>
<path fill="none" stroke="#9a32cd" stroke-dasharray="5,2" d="M243.0502,-63.5349C253.6465,-59.0698 265.3834,-53.9679 276,-49 296.2829,-39.5088 319.0799,-27.6455 334.3684,-19.5106"/>
<polygon fill="#9a32cd" stroke="#9a32cd" points="241.5855,-60.3535 233.7044,-67.4343 244.281,-66.8137 241.5855,-60.3535"/>
<text text-anchor="middle" x="310.5" y="-41" font-family="Helvetica,sans-Serif" font-size="10.00" fill="#000000"> pmbr</text>
</g>
<!-- Node3 -->
<g id="node3" class="node">
<title>Node3</title>
<g id="a_node3"><a xlink:href="a00688.html" target="_top" xlink:title=" ">
<polygon fill="#ffffff" stroke="#000000" points="70.5,-.5 70.5,-19.5 147.5,-19.5 147.5,-.5 70.5,-.5"/>
<text text-anchor="middle" x="109" y="-7.5" font-family="Helvetica,sans-Serif" font-size="10.00" fill="#000000">tds_pool_user</text>
</a>
</g>
</g>
<!-- Node2&#45;&gt;Node3 -->
<g id="edge3" class="edge">
<title>Node2&#45;&gt;Node3</title>
<path fill="none" stroke="#9a32cd" stroke-dasharray="5,2" d="M157.855,-64.6641C142.2001,-60.0645 127.6714,-54.5942 122,-49 114.0734,-41.1813 110.98,-28.4094 109.7727,-19.6245"/>
<polygon fill="#9a32cd" stroke="#9a32cd" points="157.1058,-68.0887 167.6788,-67.4088 158.9895,-61.3469 157.1058,-68.0887"/>
<text text-anchor="middle" x="163.5" y="-41" font-family="Helvetica,sans-Serif" font-size="10.00" fill="#000000"> assigned_member</text>
</g>
<!-- Node3&#45;&gt;Node2 -->
<g id="edge2" class="edge">
<title>Node3&#45;&gt;Node2</title>
<path fill="none" stroke="#9a32cd" stroke-dasharray="5,2" d="M157.7584,-18.0219C179.7636,-22.72 202.3233,-29.4274 209,-38 215.4092,-46.2291 214.4692,-58.6708 212.7027,-67.2788"/>
<polygon fill="#9a32cd" stroke="#9a32cd" points="158.2402,-14.5487 147.7459,-16.0052 156.8579,-21.4109 158.2402,-14.5487"/>
<text text-anchor="middle" x="243" y="-41" font-family="Helvetica,sans-Serif" font-size="10.00" fill="#000000"> current_user</text>
</g>
<!-- Node4 -->
<g id="node4" class="node">
<title>Node4</title>
<g id="a_node4"><a xlink:href="a01132.html" target="_top" xlink:title=" ">
<polygon fill="#ffffff" stroke="#ff0000" points="0,-67.5 0,-86.5 56,-86.5 56,-67.5 0,-67.5"/>
<text text-anchor="middle" x="28" y="-74.5" font-family="Helvetica,sans-Serif" font-size="10.00" fill="#000000">tds_login</text>
</a>
</g>
</g>
<!-- Node4&#45;&gt;Node3 -->
<g id="edge4" class="edge">
<title>Node4&#45;&gt;Node3</title>
<path fill="none" stroke="#9a32cd" stroke-dasharray="5,2" d="M37.6948,-58.401C42.0018,-51.3855 47.5618,-43.7252 54,-38 62.6474,-30.3103 73.7874,-24.1254 83.7778,-19.5442"/>
<polygon fill="#9a32cd" stroke="#9a32cd" points="34.5221,-56.9006 32.6335,-67.3258 40.6111,-60.3537 34.5221,-56.9006"/>
<text text-anchor="middle" x="66" y="-41" font-family="Helvetica,sans-Serif" font-size="10.00" fill="#000000"> login</text>
</g>
<!-- Node8 -->
<g id="node5" class="node">
<title>Node8</title>
<g id="a_node5"><a xlink:href="a00684.html" target="_top" xlink:title=" ">
<polygon fill="#ffffff" stroke="#ff0000" points="70,-135.5 70,-154.5 158,-154.5 158,-135.5 70,-135.5"/>
<text text-anchor="middle" x="114" y="-142.5" font-family="Helvetica,sans-Serif" font-size="10.00" fill="#000000">tds_pool_socket</text>
</a>
</g>
</g>
<!-- Node8&#45;&gt;Node2 -->
<g id="edge6" class="edge">
<title>Node8&#45;&gt;Node2</title>
<path fill="none" stroke="#9a32cd" stroke-dasharray="5,2" d="M135.9921,-129.4223C154.6736,-116.1895 180.8845,-97.6234 196.5806,-86.5054"/>
<polygon fill="#9a32cd" stroke="#9a32cd" points="133.8916,-126.621 127.7545,-135.2573 137.9378,-132.3331 133.8916,-126.621"/>
<text text-anchor="middle" x="180.5" y="-108" font-family="Helvetica,sans-Serif" font-size="10.00" fill="#000000"> sock</text>
</g>
<!-- Node8&#45;&gt;Node3 -->
<g id="edge5" class="edge">
<title>Node8&#45;&gt;Node3</title>
<path fill="none" stroke="#9a32cd" stroke-dasharray="5,2" d="M113.2584,-124.9756C112.1663,-95.4905 110.1676,-41.5249 109.3563,-19.6209"/>
<polygon fill="#9a32cd" stroke="#9a32cd" points="109.7726,-125.4276 113.6404,-135.2911 116.7678,-125.1684 109.7726,-125.4276"/>
<text text-anchor="middle" x="124.5" y="-74.5" font-family="Helvetica,sans-Serif" font-size="10.00" fill="#000000"> sock</text>
</g>
<!-- Node28 -->
<g id="node6" class="node">
<title>Node28</title>
<g id="a_node6"><a xlink:href="a00696.html" target="_top" xlink:title=" ">
<polygon fill="#ffffff" stroke="#000000" points="411.5,-67.5 411.5,-86.5 464.5,-86.5 464.5,-67.5 411.5,-67.5"/>
<text text-anchor="middle" x="438" y="-74.5" font-family="Helvetica,sans-Serif" font-size="10.00" fill="#000000">tds_pool</text>
</a>
</g>
</g>
<!-- Node28&#45;&gt;Node1 -->
<g id="edge7" class="edge">
<title>Node28&#45;&gt;Node1</title>
<path fill="none" stroke="#9a32cd" stroke-dasharray="5,2" d="M417.6628,-61.1559C401.0835,-48.2395 378.2109,-30.4201 364.2988,-19.5817"/>
<polygon fill="#9a32cd" stroke="#9a32cd" points="415.6387,-64.0158 425.6783,-67.4005 419.9407,-58.4937 415.6387,-64.0158"/>
<text text-anchor="middle" x="412" y="-41" font-family="Helvetica,sans-Serif" font-size="10.00" fill="#000000"> pool</text>
</g>
<!-- Node25 -->
<g id="node7" class="node">
<title>Node25</title>
<g id="a_node7"><a xlink:href="a01204.html" target="_top" xlink:title=" ">
<polygon fill="#ffffff" stroke="#ff0000" points="468,-135.5 468,-154.5 536,-154.5 536,-135.5 468,-135.5"/>
<text text-anchor="middle" x="502" y="-142.5" font-family="Helvetica,sans-Serif" font-size="10.00" fill="#000000">tds_context</text>
</a>
</g>
</g>
<!-- Node25&#45;&gt;Node28 -->
<g id="edge8" class="edge">
<title>Node25&#45;&gt;Node28</title>
<path fill="none" stroke="#9a32cd" stroke-dasharray="5,2" d="M485.8362,-127.826C473.5953,-114.8201 457.2208,-97.4221 447.1526,-86.7247"/>
<polygon fill="#9a32cd" stroke="#9a32cd" points="483.428,-130.374 492.8304,-135.2573 488.5254,-125.5764 483.428,-130.374"/>
<text text-anchor="middle" x="482.5" y="-108" font-family="Helvetica,sans-Serif" font-size="10.00" fill="#000000"> ctx</text>
</g>
<!-- Node29 -->
<g id="node8" class="node">
<title>Node29</title>
<g id="a_node8"><a xlink:href="a00680.html" target="_top" xlink:title=" ">
<polygon fill="#ffffff" stroke="#000000" points="310.5,-135.5 310.5,-154.5 393.5,-154.5 393.5,-135.5 310.5,-135.5"/>
<text text-anchor="middle" x="352" y="-142.5" font-family="Helvetica,sans-Serif" font-size="10.00" fill="#000000">tds_pool_event</text>
</a>
</g>
</g>
<!-- Node29&#45;&gt;Node1 -->
<g id="edge11" class="edge">
<title>Node29&#45;&gt;Node1</title>
<path fill="none" stroke="#9a32cd" stroke-dasharray="5,2" d="M352,-124.9756C352,-95.4905 352,-41.5249 352,-19.6209"/>
<polygon fill="#9a32cd" stroke="#9a32cd" points="348.5001,-125.2911 352,-135.2911 355.5001,-125.2912 348.5001,-125.2911"/>
<text text-anchor="middle" x="372.5" y="-74.5" font-family="Helvetica,sans-Serif" font-size="10.00" fill="#000000"> common</text>
</g>
<!-- Node29&#45;&gt;Node28 -->
<g id="edge9" class="edge">
<title>Node29&#45;&gt;Node28</title>
<path fill="none" stroke="#9a32cd" stroke-dasharray="5,2" d="M372.3865,-128.8805C389.0725,-115.6869 412.1083,-97.4725 425.9784,-86.5054"/>
<polygon fill="#9a32cd" stroke="#9a32cd" points="369.995,-126.3094 364.3217,-135.2573 374.3367,-131.8003 369.995,-126.3094"/>
<text text-anchor="middle" x="417.5" y="-108" font-family="Helvetica,sans-Serif" font-size="10.00" fill="#000000"> events</text>
</g>
<!-- Node29&#45;&gt;Node29 -->
<g id="edge10" class="edge">
<title>Node29&#45;&gt;Node29</title>
<path fill="none" stroke="#9a32cd" stroke-dasharray="5,2" d="M403.819,-150.0661C408.5342,-149.0129 411.5,-147.3242 411.5,-145 411.5,-141.2813 403.9076,-139.1895 393.7052,-138.7246"/>
<polygon fill="#9a32cd" stroke="#9a32cd" points="403.2189,-146.6128 393.7052,-151.2754 404.05,-153.5633 403.2189,-146.6128"/>
<text text-anchor="middle" x="430.5" y="-148" font-family="Helvetica,sans-Serif" font-size="10.00" fill="#000000"> execute</text>
<text text-anchor="middle" x="430.5" y="-137" font-family="Helvetica,sans-Serif" font-size="10.00" fill="#000000">next</text>
</g>
</g>
</svg>
