<?xml version="1.0" encoding="UTF-8" standalone="no"?>
<!DOCTYPE svg PUBLIC "-//W3C//DTD SVG 1.1//EN"
 "http://www.w3.org/Graphics/SVG/1.1/DTD/svg11.dtd">
<!-- Generated by graphviz version 2.40.1 (20161225.0304)
 -->
<!-- Title: tds_pool Pages: 1 -->
<svg width="234pt" height="164pt"
 viewBox="0.00 0.00 233.50 164.00" xmlns="http://www.w3.org/2000/svg" xmlns:xlink="http://www.w3.org/1999/xlink">
<g id="graph0" class="graph" transform="scale(1 1) rotate(0) translate(4 160)">
<title>tds_pool</title>
<polygon fill="#ffffff" stroke="transparent" points="-4,4 -4,-160 229.5,-160 229.5,4 -4,4"/>
<!-- Node1 -->
<g id="node1" class="node">
<title>Node1</title>
<g id="a_node1"><a xlink:title=" ">
<polygon fill="#bfbfbf" stroke="#000000" points="54.5,-.5 54.5,-19.5 107.5,-19.5 107.5,-.5 54.5,-.5"/>
<text text-anchor="middle" x="81" y="-7.5" font-family="Helvetica,sans-Serif" font-size="10.00" fill="#000000">tds_pool</text>
</a>
</g>
</g>
<!-- Node2 -->
<g id="node2" class="node">
<title>Node2</title>
<g id="a_node2"><a xlink:href="a01204.html" target="_top" xlink:title=" ">
<polygon fill="#ffffff" stroke="#000000" points="0,-68.5 0,-87.5 68,-87.5 68,-68.5 0,-68.5"/>
<text text-anchor="middle" x="34" y="-75.5" font-family="Helvetica,sans-Serif" font-size="10.00" fill="#000000">tds_context</text>
</a>
</g>
</g>
<!-- Node2&#45;&gt;Node1 -->
<g id="edge1" class="edge">
<title>Node2&#45;&gt;Node1</title>
<path fill="none" stroke="#9a32cd" stroke-dasharray="5,2" d="M46.6407,-59.7114C55.5366,-46.8406 67.094,-30.1194 74.2785,-19.7247"/>
<polygon fill="#9a32cd" stroke="#9a32cd" points="43.5406,-58.0409 40.734,-68.2573 49.299,-62.021 43.5406,-58.0409"/>
<text text-anchor="middle" x="69.5" y="-41" font-family="Helvetica,sans-Serif" font-size="10.00" fill="#000000"> ctx</text>
</g>
<!-- Node3 -->
<g id="node3" class="node">
<title>Node3</title>
<g id="a_node3"><a xlink:href="a01140.html" target="_top" xlink:title=" ">
<polygon fill="#ffffff" stroke="#000000" points="3.5,-136.5 3.5,-155.5 64.5,-155.5 64.5,-136.5 3.5,-136.5"/>
<text text-anchor="middle" x="34" y="-143.5" font-family="Helvetica,sans-Serif" font-size="10.00" fill="#000000">tds_locale</text>
</a>
</g>
</g>
<!-- Node3&#45;&gt;Node2 -->
<g id="edge2" class="edge">
<title>Node3&#45;&gt;Node2</title>
<path fill="none" stroke="#9a32cd" stroke-dasharray="5,2" d="M34,-126.1951C34,-113.5514 34,-97.7157 34,-87.7247"/>
<polygon fill="#9a32cd" stroke="#9a32cd" points="30.5001,-126.2572 34,-136.2573 37.5001,-126.2573 30.5001,-126.2572"/>
<text text-anchor="middle" x="48.5" y="-110" font-family="Helvetica,sans-Serif" font-size="10.00" fill="#000000"> locale</text>
</g>
<!-- Node4 -->
<g id="node4" class="node">
<title>Node4</title>
<g id="a_node4"><a xlink:href="a00680.html" target="_top" xlink:title=" ">
<polygon fill="#ffffff" stroke="#000000" points="86.5,-68.5 86.5,-87.5 169.5,-87.5 169.5,-68.5 86.5,-68.5"/>
<text text-anchor="middle" x="128" y="-75.5" font-family="Helvetica,sans-Serif" font-size="10.00" fill="#000000">tds_pool_event</text>
</a>
</g>
</g>
<!-- Node4&#45;&gt;Node1 -->
<g id="edge3" class="edge">
<title>Node4&#45;&gt;Node1</title>
<path fill="none" stroke="#9a32cd" stroke-dasharray="5,2" d="M115.3593,-59.7114C106.4634,-46.8406 94.906,-30.1194 87.7215,-19.7247"/>
<polygon fill="#9a32cd" stroke="#9a32cd" points="112.701,-62.021 121.266,-68.2573 118.4594,-58.0409 112.701,-62.021"/>
<text text-anchor="middle" x="123.5" y="-41" font-family="Helvetica,sans-Serif" font-size="10.00" fill="#000000"> events</text>
</g>
<!-- Node4&#45;&gt;Node4 -->
<g id="edge4" class="edge">
<title>Node4&#45;&gt;Node4</title>
<path fill="none" stroke="#9a32cd" stroke-dasharray="5,2" d="M179.819,-83.0661C184.5342,-82.0129 187.5,-80.3242 187.5,-78 187.5,-74.2813 179.9076,-72.1895 169.7052,-71.7246"/>
<polygon fill="#9a32cd" stroke="#9a32cd" points="179.2189,-79.6128 169.7052,-84.2754 180.05,-86.5633 179.2189,-79.6128"/>
<text text-anchor="middle" x="206.5" y="-81" font-family="Helvetica,sans-Serif" font-size="10.00" fill="#000000"> execute</text>
<text text-anchor="middle" x="206.5" y="-70" font-family="Helvetica,sans-Serif" font-size="10.00" fill="#000000">next</text>
</g>
</g>
</svg>
