<?xml version="1.0" encoding="UTF-8" standalone="no"?>
<!DOCTYPE svg PUBLIC "-//W3C//DTD SVG 1.1//EN"
 "http://www.w3.org/Graphics/SVG/1.1/DTD/svg11.dtd">
<!-- Generated by graphviz version 2.40.1 (20161225.0304)
 -->
<!-- Title: tds_pool_user Pages: 1 -->
<svg width="191pt" height="296pt"
 viewBox="0.00 0.00 190.87 296.00" xmlns="http://www.w3.org/2000/svg" xmlns:xlink="http://www.w3.org/1999/xlink">
<g id="graph0" class="graph" transform="scale(1 1) rotate(0) translate(4 292)">
<title>tds_pool_user</title>
<polygon fill="#ffffff" stroke="transparent" points="-4,4 -4,-292 186.872,-292 186.872,4 -4,4"/>
<!-- Node1 -->
<g id="node1" class="node">
<title>Node1</title>
<g id="a_node1"><a xlink:title=" ">
<polygon fill="#bfbfbf" stroke="#000000" points="26.372,-67.5 26.372,-86.5 103.372,-86.5 103.372,-67.5 26.372,-67.5"/>
<text text-anchor="middle" x="64.872" y="-74.5" font-family="Helvetica,sans-Serif" font-size="10.00" fill="#000000">tds_pool_user</text>
</a>
</g>
</g>
<!-- Node2 -->
<g id="node2" class="node">
<title>Node2</title>
<g id="a_node2"><a xlink:href="a00692.html" target="_top" xlink:title=" ">
<polygon fill="#ffffff" stroke="#000000" points="17.872,-.5 17.872,-19.5 111.872,-19.5 111.872,-.5 17.872,-.5"/>
<text text-anchor="middle" x="64.872" y="-7.5" font-family="Helvetica,sans-Serif" font-size="10.00" fill="#000000">tds_pool_member</text>
</a>
</g>
</g>
<!-- Node1&#45;&gt;Node2 -->
<g id="edge2" class="edge">
<title>Node1&#45;&gt;Node2</title>
<path fill="none" stroke="#9a32cd" stroke-dasharray="5,2" d="M16.9777,-62.5655C11.4053,-58.987 6.4455,-54.5348 2.872,-49 -5.8188,-35.5392 9.0648,-25.8812 26.4221,-19.5434"/>
<polygon fill="#9a32cd" stroke="#9a32cd" points="15.6643,-65.8337 26.1273,-67.5 18.987,-59.6726 15.6643,-65.8337"/>
<text text-anchor="middle" x="31.872" y="-41" font-family="Helvetica,sans-Serif" font-size="10.00" fill="#000000"> current_user</text>
</g>
<!-- Node2&#45;&gt;Node1 -->
<g id="edge1" class="edge">
<title>Node2&#45;&gt;Node1</title>
<path fill="none" stroke="#9a32cd" stroke-dasharray="5,2" d="M64.872,-29.8695C64.872,-42.2597 64.872,-57.649 64.872,-67.4005"/>
<polygon fill="#9a32cd" stroke="#9a32cd" points="68.3721,-29.5816 64.872,-19.5817 61.3721,-29.5817 68.3721,-29.5816"/>
<text text-anchor="middle" x="106.372" y="-41" font-family="Helvetica,sans-Serif" font-size="10.00" fill="#000000"> assigned_member</text>
</g>
<!-- Node3 -->
<g id="node3" class="node">
<title>Node3</title>
<g id="a_node3"><a xlink:href="a00684.html" target="_top" xlink:title=" ">
<polygon fill="#ffffff" stroke="#000000" points="92.872,-134.5 92.872,-153.5 180.872,-153.5 180.872,-134.5 92.872,-134.5"/>
<text text-anchor="middle" x="136.872" y="-141.5" font-family="Helvetica,sans-Serif" font-size="10.00" fill="#000000">tds_pool_socket</text>
</a>
</g>
</g>
<!-- Node3&#45;&gt;Node1 -->
<g id="edge7" class="edge">
<title>Node3&#45;&gt;Node1</title>
<path fill="none" stroke="#9a32cd" stroke-dasharray="5,2" d="M119.0762,-127.44C105.265,-114.5879 86.6023,-97.2212 75.1687,-86.5817"/>
<polygon fill="#9a32cd" stroke="#9a32cd" points="116.8511,-130.1504 126.5561,-134.4005 121.6198,-125.0259 116.8511,-130.1504"/>
<text text-anchor="middle" x="117.372" y="-108" font-family="Helvetica,sans-Serif" font-size="10.00" fill="#000000"> sock</text>
</g>
<!-- Node3&#45;&gt;Node2 -->
<g id="edge3" class="edge">
<title>Node3&#45;&gt;Node2</title>
<path fill="none" stroke="#9a32cd" stroke-dasharray="5,2" d="M146.1147,-125.1337C155.8369,-102.2821 167.3719,-63.6672 148.872,-38 143.7037,-30.8294 126.2278,-24.4508 108.5449,-19.5997"/>
<polygon fill="#9a32cd" stroke="#9a32cd" points="142.8449,-123.8691 141.8898,-134.4208 149.2166,-126.7678 142.8449,-123.8691"/>
<text text-anchor="middle" x="170.372" y="-74.5" font-family="Helvetica,sans-Serif" font-size="10.00" fill="#000000"> sock</text>
</g>
<!-- Node4 -->
<g id="node4" class="node">
<title>Node4</title>
<g id="a_node4"><a xlink:href="a01224.html" target="_top" xlink:title="Information for a server connection.">
<polygon fill="#ffffff" stroke="#ff0000" points="98.372,-201.5 98.372,-220.5 163.372,-220.5 163.372,-201.5 98.372,-201.5"/>
<text text-anchor="middle" x="130.872" y="-208.5" font-family="Helvetica,sans-Serif" font-size="10.00" fill="#000000">tds_socket</text>
</a>
</g>
</g>
<!-- Node4&#45;&gt;Node3 -->
<g id="edge4" class="edge">
<title>Node4&#45;&gt;Node3</title>
<path fill="none" stroke="#9a32cd" stroke-dasharray="5,2" d="M132.6534,-191.1079C133.7633,-178.714 135.1413,-163.3263 136.0139,-153.5817"/>
<polygon fill="#9a32cd" stroke="#9a32cd" points="129.1376,-191.1282 131.7316,-201.4005 136.1097,-191.7526 129.1376,-191.1282"/>
<text text-anchor="middle" x="142.372" y="-175" font-family="Helvetica,sans-Serif" font-size="10.00" fill="#000000"> tds</text>
</g>
<!-- Node5 -->
<g id="node5" class="node">
<title>Node5</title>
<g id="a_node5"><a xlink:href="a01132.html" target="_top" xlink:title=" ">
<polygon fill="#ffffff" stroke="#ff0000" points="52.872,-268.5 52.872,-287.5 108.872,-287.5 108.872,-268.5 52.872,-268.5"/>
<text text-anchor="middle" x="80.872" y="-275.5" font-family="Helvetica,sans-Serif" font-size="10.00" fill="#000000">tds_login</text>
</a>
</g>
</g>
<!-- Node5&#45;&gt;Node1 -->
<g id="edge6" class="edge">
<title>Node5&#45;&gt;Node1</title>
<path fill="none" stroke="#9a32cd" stroke-dasharray="5,2" d="M79.2909,-258.1373C75.9145,-215.7215 68.1065,-117.6332 65.636,-86.5974"/>
<polygon fill="#9a32cd" stroke="#9a32cd" points="75.8177,-258.6146 80.1003,-268.3054 82.7956,-258.0591 75.8177,-258.6146"/>
<text text-anchor="middle" x="85.872" y="-175" font-family="Helvetica,sans-Serif" font-size="10.00" fill="#000000"> login</text>
</g>
<!-- Node5&#45;&gt;Node4 -->
<g id="edge5" class="edge">
<title>Node5&#45;&gt;Node4</title>
<path fill="none" stroke="#9a32cd" stroke-dasharray="5,2" d="M94.0447,-260.3486C103.5441,-247.6194 116.0041,-230.9229 123.7215,-220.5817"/>
<polygon fill="#9a32cd" stroke="#9a32cd" points="91.2116,-258.2929 88.0358,-268.4005 96.8217,-262.4795 91.2116,-258.2929"/>
<text text-anchor="middle" x="119.872" y="-242" font-family="Helvetica,sans-Serif" font-size="10.00" fill="#000000"> login</text>
</g>
</g>
</svg>
