<?xml version="1.0" encoding="UTF-8" standalone="no"?>
<!DOCTYPE svg PUBLIC "-//W3C//DTD SVG 1.1//EN"
 "http://www.w3.org/Graphics/SVG/1.1/DTD/svg11.dtd">
<!-- Generated by graphviz version 2.40.1 (20161225.0304)
 -->
<!-- Title: agg_t Pages: 1 -->
<svg width="106pt" height="173pt"
 viewBox="0.00 0.00 105.50 173.00" xmlns="http://www.w3.org/2000/svg" xmlns:xlink="http://www.w3.org/1999/xlink">
<g id="graph0" class="graph" transform="scale(1 1) rotate(0) translate(4 169)">
<title>agg_t</title>
<polygon fill="#ffffff" stroke="transparent" points="-4,4 -4,-169 101.5,-169 101.5,4 -4,4"/>
<!-- Node1 -->
<g id="node1" class="node">
<title>Node1</title>
<g id="a_node1"><a xlink:title=" ">
<polygon fill="#bfbfbf" stroke="#000000" points="0,-.5 0,-19.5 41,-19.5 41,-.5 0,-.5"/>
<text text-anchor="middle" x="20.5" y="-7.5" font-family="Helvetica,sans-Serif" font-size="10.00" fill="#000000">agg_t</text>
</a>
</g>
</g>
<!-- Node2 -->
<g id="node2" class="node">
<title>Node2</title>
<g id="a_node2"><a xlink:href="a00620.html" target="_top" xlink:title=" ">
<polygon fill="#ffffff" stroke="#000000" points="1.5,-145.5 1.5,-164.5 39.5,-164.5 39.5,-145.5 1.5,-145.5"/>
<text text-anchor="middle" x="20.5" y="-152.5" font-family="Helvetica,sans-Serif" font-size="10.00" fill="#000000">col_t</text>
</a>
</g>
</g>
<!-- Node2&#45;&gt;Node1 -->
<g id="edge1" class="edge">
<title>Node2&#45;&gt;Node1</title>
<path fill="none" stroke="#9a32cd" stroke-dasharray="5,2" d="M17.4633,-135.1881C15.9393,-124.2515 14.2591,-110.4084 13.5,-98 11.7594,-69.5468 16.2434,-35.985 18.8257,-19.7584"/>
<polygon fill="#9a32cd" stroke="#9a32cd" points="14.0393,-135.963 18.9498,-145.3511 20.9656,-134.9498 14.0393,-135.963"/>
<text text-anchor="middle" x="27" y="-85.5" font-family="Helvetica,sans-Serif" font-size="10.00" fill="#000000"> value</text>
</g>
<!-- Node3 -->
<g id="node3" class="node">
<title>Node3</title>
<g id="a_node3"><a xlink:href="a00580.html" target="_top" xlink:title=" ">
<polygon fill="#ffffff" stroke="#000000" points="49.5,-78.5 49.5,-97.5 97.5,-97.5 97.5,-78.5 49.5,-78.5"/>
<text text-anchor="middle" x="73.5" y="-85.5" font-family="Helvetica,sans-Serif" font-size="10.00" fill="#000000">KEY_T</text>
</a>
</g>
</g>
<!-- Node2&#45;&gt;Node3 -->
<g id="edge3" class="edge">
<title>Node2&#45;&gt;Node3</title>
<path fill="none" stroke="#9a32cd" stroke-dasharray="5,2" d="M34.463,-137.3486C44.5324,-124.6194 57.7401,-107.9229 65.9205,-97.5817"/>
<polygon fill="#9a32cd" stroke="#9a32cd" points="31.5527,-135.3863 28.0936,-145.4005 37.0427,-139.7291 31.5527,-135.3863"/>
<text text-anchor="middle" x="62" y="-119" font-family="Helvetica,sans-Serif" font-size="10.00" fill="#000000"> keys</text>
</g>
<!-- Node3&#45;&gt;Node1 -->
<g id="edge2" class="edge">
<title>Node3&#45;&gt;Node1</title>
<path fill="none" stroke="#9a32cd" stroke-dasharray="5,2" d="M61.3184,-70.0723C50.659,-54.385 35.5825,-32.197 27.052,-19.6426"/>
<polygon fill="#9a32cd" stroke="#9a32cd" points="58.486,-72.1315 67.0012,-78.4357 64.2759,-68.1973 58.486,-72.1315"/>
<text text-anchor="middle" x="71" y="-52" font-family="Helvetica,sans-Serif" font-size="10.00" fill="#000000"> col_key</text>
<text text-anchor="middle" x="71" y="-41" font-family="Helvetica,sans-Serif" font-size="10.00" fill="#000000">row_key</text>
</g>
</g>
</svg>
