<?xml version="1.0" encoding="UTF-8" standalone="no"?>
<!DOCTYPE svg PUBLIC "-//W3C//DTD SVG 1.1//EN"
 "http://www.w3.org/Graphics/SVG/1.1/DTD/svg11.dtd">
<!-- Generated by graphviz version 2.40.1 (20161225.0304)
 -->
<!-- Title: DSNINFO Pages: 1 -->
<svg width="251pt" height="352pt"
 viewBox="0.00 0.00 250.50 352.00" xmlns="http://www.w3.org/2000/svg" xmlns:xlink="http://www.w3.org/1999/xlink">
<g id="graph0" class="graph" transform="scale(1 1) rotate(0) translate(4 348)">
<title>DSNINFO</title>
<polygon fill="#ffffff" stroke="transparent" points="-4,4 -4,-348 246.5,-348 246.5,4 -4,4"/>
<!-- Node1 -->
<g id="node1" class="node">
<title>Node1</title>
<g id="a_node1"><a xlink:title=" ">
<polygon fill="#bfbfbf" stroke="#000000" points="146.5,-.5 146.5,-19.5 208.5,-19.5 208.5,-.5 146.5,-.5"/>
<text text-anchor="middle" x="177.5" y="-7.5" font-family="Helvetica,sans-Serif" font-size="10.00" fill="#000000">DSNINFO</text>
</a>
</g>
</g>
<!-- Node2 -->
<g id="node2" class="node">
<title>Node2</title>
<g id="a_node2"><a xlink:href="a01132.html" target="_top" xlink:title=" ">
<polygon fill="#ffffff" stroke="#000000" points="97.5,-68.5 97.5,-87.5 153.5,-87.5 153.5,-68.5 97.5,-68.5"/>
<text text-anchor="middle" x="125.5" y="-75.5" font-family="Helvetica,sans-Serif" font-size="10.00" fill="#000000">tds_login</text>
</a>
</g>
</g>
<!-- Node2&#45;&gt;Node1 -->
<g id="edge1" class="edge">
<title>Node2&#45;&gt;Node1</title>
<path fill="none" stroke="#9a32cd" stroke-dasharray="5,2" d="M139.1996,-60.0852C149.079,-47.1659 162.0374,-30.2203 170.0635,-19.7247"/>
<polygon fill="#9a32cd" stroke="#9a32cd" points="136.2446,-58.1876 132.9503,-68.2573 141.8051,-62.4397 136.2446,-58.1876"/>
<text text-anchor="middle" x="167.5" y="-41" font-family="Helvetica,sans-Serif" font-size="10.00" fill="#000000"> login</text>
</g>
<!-- Node3 -->
<g id="node3" class="node">
<title>Node3</title>
<g id="a_node3"><a xlink:href="a01128.html" target="_top" xlink:title=" ">
<polygon fill="#ffffff" stroke="#000000" points="8.5,-257.5 8.5,-276.5 92.5,-276.5 92.5,-257.5 8.5,-257.5"/>
<text text-anchor="middle" x="50.5" y="-264.5" font-family="Helvetica,sans-Serif" font-size="10.00" fill="#000000">tds_capabilities</text>
</a>
</g>
</g>
<!-- Node3&#45;&gt;Node2 -->
<g id="edge2" class="edge">
<title>Node3&#45;&gt;Node2</title>
<path fill="none" stroke="#9a32cd" stroke-dasharray="5,2" d="M44.4823,-247.231C35.8899,-214.7777 24.1703,-149.5669 53.5,-107 63.3633,-92.6852 81.5686,-85.4333 97.2042,-81.7611"/>
<polygon fill="#9a32cd" stroke="#9a32cd" points="41.2278,-248.5843 47.3188,-257.2532 47.9632,-246.678 41.2278,-248.5843"/>
<text text-anchor="middle" x="79.5" y="-170.5" font-family="Helvetica,sans-Serif" font-size="10.00" fill="#000000"> capabilities</text>
</g>
<!-- Node4 -->
<g id="node4" class="node">
<title>Node4</title>
<g id="a_node4"><a xlink:href="a01124.html" target="_top" xlink:title=" ">
<polygon fill="#ffffff" stroke="#000000" points="0,-324.5 0,-343.5 101,-343.5 101,-324.5 0,-324.5"/>
<text text-anchor="middle" x="50.5" y="-331.5" font-family="Helvetica,sans-Serif" font-size="10.00" fill="#000000">tds_capability_type</text>
</a>
</g>
</g>
<!-- Node4&#45;&gt;Node3 -->
<g id="edge3" class="edge">
<title>Node4&#45;&gt;Node3</title>
<path fill="none" stroke="#9a32cd" stroke-dasharray="5,2" d="M50.5,-314.1079C50.5,-301.714 50.5,-286.3263 50.5,-276.5817"/>
<polygon fill="#9a32cd" stroke="#9a32cd" points="47.0001,-314.4005 50.5,-324.4005 54.0001,-314.4006 47.0001,-314.4005"/>
<text text-anchor="middle" x="64.5" y="-298" font-family="Helvetica,sans-Serif" font-size="10.00" fill="#000000"> types</text>
</g>
<!-- Node5 -->
<g id="node5" class="node">
<title>Node5</title>
<g id="a_node5"><a xlink:href="a01268.html" target="_top" xlink:title="Structure to hold a string.">
<polygon fill="#ffffff" stroke="#000000" points="156.5,-257.5 156.5,-276.5 208.5,-276.5 208.5,-257.5 156.5,-257.5"/>
<text text-anchor="middle" x="182.5" y="-264.5" font-family="Helvetica,sans-Serif" font-size="10.00" fill="#000000">tds_dstr</text>
</a>
</g>
</g>
<!-- Node5&#45;&gt;Node1 -->
<g id="edge5" class="edge">
<title>Node5&#45;&gt;Node1</title>
<path fill="none" stroke="#9a32cd" stroke-dasharray="5,2" d="M207.0006,-250.6731C210.446,-247.2456 213.4925,-243.336 215.5,-239 240.1478,-185.7622 226.3889,-164.6473 215.5,-107 209.1554,-73.4106 191.4667,-36.5473 182.6424,-19.5524"/>
<polygon fill="#9a32cd" stroke="#9a32cd" points="204.442,-248.2532 199.0693,-257.3847 208.9639,-253.5968 204.442,-248.2532"/>
<text text-anchor="middle" x="226.5" y="-81" font-family="Helvetica,sans-Serif" font-size="10.00" fill="#000000"> dsn</text>
<text text-anchor="middle" x="226.5" y="-70" font-family="Helvetica,sans-Serif" font-size="10.00" fill="#000000">origdsn</text>
</g>
<!-- Node5&#45;&gt;Node2 -->
<g id="edge4" class="edge">
<title>Node5&#45;&gt;Node2</title>
<path fill="none" stroke="#9a32cd" stroke-dasharray="5,2" d="M147.0349,-256.4979C138.9306,-252.3711 131.2988,-246.7109 126.5,-239 95.7805,-189.6383 114.32,-114.2042 122.3523,-87.6518"/>
<polygon fill="#9a32cd" stroke="#9a32cd" points="145.6954,-259.7321 156.2599,-260.5331 148.5007,-253.3188 145.6954,-259.7321"/>
<text text-anchor="middle" x="171" y="-231" font-family="Helvetica,sans-Serif" font-size="10.00" fill="#000000"> server_realm_name</text>
<text text-anchor="middle" x="171" y="-220" font-family="Helvetica,sans-Serif" font-size="10.00" fill="#000000">password</text>
<text text-anchor="middle" x="171" y="-209" font-family="Helvetica,sans-Serif" font-size="10.00" fill="#000000">server_name</text>
<text text-anchor="middle" x="171" y="-198" font-family="Helvetica,sans-Serif" font-size="10.00" fill="#000000">dump_file</text>
<text text-anchor="middle" x="171" y="-187" font-family="Helvetica,sans-Serif" font-size="10.00" fill="#000000">library</text>
<text text-anchor="middle" x="171" y="-176" font-family="Helvetica,sans-Serif" font-size="10.00" fill="#000000">crlfile</text>
<text text-anchor="middle" x="171" y="-165" font-family="Helvetica,sans-Serif" font-size="10.00" fill="#000000">server_spn</text>
<text text-anchor="start" x="126.5" y="-154" font-family="Helvetica,sans-Serif" font-size="10.00" fill="#000000">client_host</text>
<text text-anchor="middle" x="171" y="-143" font-family="Helvetica,sans-Serif" font-size="10.00" fill="#000000">_name</text>
<text text-anchor="middle" x="171" y="-132" font-family="Helvetica,sans-Serif" font-size="10.00" fill="#000000">client_charset</text>
<text text-anchor="middle" x="171" y="-121" font-family="Helvetica,sans-Serif" font-size="10.00" fill="#000000">openssl_ciphers</text>
<text text-anchor="middle" x="171" y="-110" font-family="Helvetica,sans-Serif" font-size="10.00" fill="#000000">...</text>
</g>
</g>
</svg>
