<?xml version="1.0" encoding="UTF-8" standalone="no"?>
<!DOCTYPE svg PUBLIC "-//W3C//DTD SVG 1.1//EN"
 "http://www.w3.org/Graphics/SVG/1.1/DTD/svg11.dtd">
<!-- Generated by graphviz version 2.40.1 (20161225.0304)
 -->
<!-- Title: tds_pool_member Pages: 1 -->
<svg width="287pt" height="484pt"
 viewBox="0.00 0.00 287.00 484.00" xmlns="http://www.w3.org/2000/svg" xmlns:xlink="http://www.w3.org/1999/xlink">
<g id="graph0" class="graph" transform="scale(1 1) rotate(0) translate(4 480)">
<title>tds_pool_member</title>
<polygon fill="#ffffff" stroke="transparent" points="-4,4 -4,-480 283,-480 283,4 -4,4"/>
<!-- Node1 -->
<g id="node1" class="node">
<title>Node1</title>
<g id="a_node1"><a xlink:title=" ">
<polygon fill="#bfbfbf" stroke="#000000" points="129,-67.5 129,-86.5 223,-86.5 223,-67.5 129,-67.5"/>
<text text-anchor="middle" x="176" y="-74.5" font-family="Helvetica,sans-Serif" font-size="10.00" fill="#000000">tds_pool_member</text>
</a>
</g>
</g>
<!-- Node2 -->
<g id="node2" class="node">
<title>Node2</title>
<g id="a_node2"><a xlink:href="a00688.html" target="_top" xlink:title=" ">
<polygon fill="#ffffff" stroke="#000000" points="116.5,-.5 116.5,-19.5 193.5,-19.5 193.5,-.5 116.5,-.5"/>
<text text-anchor="middle" x="155" y="-7.5" font-family="Helvetica,sans-Serif" font-size="10.00" fill="#000000">tds_pool_user</text>
</a>
</g>
</g>
<!-- Node1&#45;&gt;Node2 -->
<g id="edge2" class="edge">
<title>Node1&#45;&gt;Node2</title>
<path fill="none" stroke="#9a32cd" stroke-dasharray="5,2" d="M127.8535,-64.379C114.6649,-59.9011 102.9072,-54.5783 99,-49 90.028,-36.1907 105.1971,-26.2221 121.9971,-19.5703"/>
<polygon fill="#9a32cd" stroke="#9a32cd" points="127.0275,-67.7889 137.6179,-67.4819 129.1475,-61.1177 127.0275,-67.7889"/>
<text text-anchor="middle" x="140.5" y="-41" font-family="Helvetica,sans-Serif" font-size="10.00" fill="#000000"> assigned_member</text>
</g>
<!-- Node2&#45;&gt;Node1 -->
<g id="edge1" class="edge">
<title>Node2&#45;&gt;Node1</title>
<path fill="none" stroke="#9a32cd" stroke-dasharray="5,2" d="M177.8613,-26.3471C181.168,-29.7968 184.0934,-33.7086 186,-38 190.2571,-47.5817 186.0922,-59.3244 181.9132,-67.4061"/>
<polygon fill="#9a32cd" stroke="#9a32cd" points="180.0524,-23.6115 170.2606,-19.5654 175.3921,-28.8346 180.0524,-23.6115"/>
<text text-anchor="middle" x="216" y="-41" font-family="Helvetica,sans-Serif" font-size="10.00" fill="#000000"> current_user</text>
</g>
<!-- Node3 -->
<g id="node3" class="node">
<title>Node3</title>
<g id="a_node3"><a xlink:href="a01132.html" target="_top" xlink:title=" ">
<polygon fill="#ffffff" stroke="#000000" points="57,-268.5 57,-287.5 113,-287.5 113,-268.5 57,-268.5"/>
<text text-anchor="middle" x="85" y="-275.5" font-family="Helvetica,sans-Serif" font-size="10.00" fill="#000000">tds_login</text>
</a>
</g>
</g>
<!-- Node3&#45;&gt;Node2 -->
<g id="edge3" class="edge">
<title>Node3&#45;&gt;Node2</title>
<path fill="none" stroke="#9a32cd" stroke-dasharray="5,2" d="M77.7432,-258.3394C73.5115,-245.1405 69,-227.2568 69,-211 69,-211 69,-211 69,-77 69,-47.8527 100.1215,-29.5275 124.9214,-19.5517"/>
<polygon fill="#9a32cd" stroke="#9a32cd" points="74.5669,-259.8663 81.1268,-268.1861 81.187,-257.5914 74.5669,-259.8663"/>
<text text-anchor="middle" x="81" y="-141.5" font-family="Helvetica,sans-Serif" font-size="10.00" fill="#000000"> login</text>
</g>
<!-- Node8 -->
<g id="node7" class="node">
<title>Node8</title>
<g id="a_node7"><a xlink:href="a01224.html" target="_top" xlink:title="Information for a server connection.">
<polygon fill="#ffffff" stroke="#ff0000" points="120.5,-201.5 120.5,-220.5 185.5,-220.5 185.5,-201.5 120.5,-201.5"/>
<text text-anchor="middle" x="153" y="-208.5" font-family="Helvetica,sans-Serif" font-size="10.00" fill="#000000">tds_socket</text>
</a>
</g>
</g>
<!-- Node3&#45;&gt;Node8 -->
<g id="edge8" class="edge">
<title>Node3&#45;&gt;Node8</title>
<path fill="none" stroke="#9a32cd" stroke-dasharray="5,2" d="M102.174,-261.0785C115.1799,-248.2639 132.5779,-231.1218 143.2753,-220.5817"/>
<polygon fill="#9a32cd" stroke="#9a32cd" points="99.4095,-258.8889 94.7427,-268.4005 104.3225,-263.8752 99.4095,-258.8889"/>
<text text-anchor="middle" x="135" y="-242" font-family="Helvetica,sans-Serif" font-size="10.00" fill="#000000"> login</text>
</g>
<!-- Node4 -->
<g id="node4" class="node">
<title>Node4</title>
<g id="a_node4"><a xlink:href="a01128.html" target="_top" xlink:title=" ">
<polygon fill="#ffffff" stroke="#ff0000" points="0,-456.5 0,-475.5 84,-475.5 84,-456.5 0,-456.5"/>
<text text-anchor="middle" x="42" y="-463.5" font-family="Helvetica,sans-Serif" font-size="10.00" fill="#000000">tds_capabilities</text>
</a>
</g>
</g>
<!-- Node4&#45;&gt;Node3 -->
<g id="edge4" class="edge">
<title>Node4&#45;&gt;Node3</title>
<path fill="none" stroke="#9a32cd" stroke-dasharray="5,2" d="M38.9853,-446.2574C35.1314,-414.7913 31.407,-352.118 54,-306 57.5734,-298.7057 63.9537,-292.4346 70.0009,-287.6875"/>
<polygon fill="#9a32cd" stroke="#9a32cd" points="35.5425,-446.9149 40.3625,-456.3498 42.4782,-445.9684 35.5425,-446.9149"/>
<text text-anchor="middle" x="80" y="-369.5" font-family="Helvetica,sans-Serif" font-size="10.00" fill="#000000"> capabilities</text>
</g>
<!-- Node6 -->
<g id="node5" class="node">
<title>Node6</title>
<g id="a_node5"><a xlink:href="a01268.html" target="_top" xlink:title="Structure to hold a string.">
<polygon fill="#ffffff" stroke="#000000" points="102,-456.5 102,-475.5 154,-475.5 154,-456.5 102,-456.5"/>
<text text-anchor="middle" x="128" y="-463.5" font-family="Helvetica,sans-Serif" font-size="10.00" fill="#000000">tds_dstr</text>
</a>
</g>
</g>
<!-- Node6&#45;&gt;Node3 -->
<g id="edge5" class="edge">
<title>Node6&#45;&gt;Node3</title>
<path fill="none" stroke="#9a32cd" stroke-dasharray="5,2" d="M128.4129,-445.7942C128.3591,-414.6004 125.4757,-353.3701 106,-306 103.2273,-299.2561 98.4398,-292.6822 94.1355,-287.6008"/>
<polygon fill="#9a32cd" stroke="#9a32cd" points="124.9098,-446.1576 128.3237,-456.1873 131.9095,-446.2177 124.9098,-446.1576"/>
<text text-anchor="middle" x="172.5" y="-430" font-family="Helvetica,sans-Serif" font-size="10.00" fill="#000000"> server_realm_name</text>
<text text-anchor="middle" x="172.5" y="-419" font-family="Helvetica,sans-Serif" font-size="10.00" fill="#000000">password</text>
<text text-anchor="middle" x="172.5" y="-408" font-family="Helvetica,sans-Serif" font-size="10.00" fill="#000000">server_name</text>
<text text-anchor="middle" x="172.5" y="-397" font-family="Helvetica,sans-Serif" font-size="10.00" fill="#000000">dump_file</text>
<text text-anchor="middle" x="172.5" y="-386" font-family="Helvetica,sans-Serif" font-size="10.00" fill="#000000">library</text>
<text text-anchor="middle" x="172.5" y="-375" font-family="Helvetica,sans-Serif" font-size="10.00" fill="#000000">crlfile</text>
<text text-anchor="middle" x="172.5" y="-364" font-family="Helvetica,sans-Serif" font-size="10.00" fill="#000000">server_spn</text>
<text text-anchor="start" x="128" y="-353" font-family="Helvetica,sans-Serif" font-size="10.00" fill="#000000">client_host</text>
<text text-anchor="middle" x="172.5" y="-342" font-family="Helvetica,sans-Serif" font-size="10.00" fill="#000000">_name</text>
<text text-anchor="middle" x="172.5" y="-331" font-family="Helvetica,sans-Serif" font-size="10.00" fill="#000000">client_charset</text>
<text text-anchor="middle" x="172.5" y="-320" font-family="Helvetica,sans-Serif" font-size="10.00" fill="#000000">openssl_ciphers</text>
<text text-anchor="middle" x="172.5" y="-309" font-family="Helvetica,sans-Serif" font-size="10.00" fill="#000000">...</text>
</g>
<!-- Node7 -->
<g id="node6" class="node">
<title>Node7</title>
<g id="a_node6"><a xlink:href="a00684.html" target="_top" xlink:title=" ">
<polygon fill="#ffffff" stroke="#000000" points="132,-134.5 132,-153.5 220,-153.5 220,-134.5 132,-134.5"/>
<text text-anchor="middle" x="176" y="-141.5" font-family="Helvetica,sans-Serif" font-size="10.00" fill="#000000">tds_pool_socket</text>
</a>
</g>
</g>
<!-- Node7&#45;&gt;Node1 -->
<g id="edge9" class="edge">
<title>Node7&#45;&gt;Node1</title>
<path fill="none" stroke="#9a32cd" stroke-dasharray="5,2" d="M176,-124.1079C176,-111.714 176,-96.3263 176,-86.5817"/>
<polygon fill="#9a32cd" stroke="#9a32cd" points="172.5001,-124.4005 176,-134.4005 179.5001,-124.4006 172.5001,-124.4005"/>
<text text-anchor="middle" x="188.5" y="-108" font-family="Helvetica,sans-Serif" font-size="10.00" fill="#000000"> sock</text>
</g>
<!-- Node7&#45;&gt;Node2 -->
<g id="edge6" class="edge">
<title>Node7&#45;&gt;Node2</title>
<path fill="none" stroke="#9a32cd" stroke-dasharray="5,2" d="M199.9116,-128.5852C229.2796,-107.7253 272.481,-69.4949 249,-38 242.1299,-28.7852 216.365,-21.5026 193.544,-16.6768"/>
<polygon fill="#9a32cd" stroke="#9a32cd" points="197.595,-125.9301 191.3306,-134.4746 201.5561,-131.7015 197.595,-125.9301"/>
<text text-anchor="middle" x="266.5" y="-74.5" font-family="Helvetica,sans-Serif" font-size="10.00" fill="#000000"> sock</text>
</g>
<!-- Node8&#45;&gt;Node7 -->
<g id="edge7" class="edge">
<title>Node8&#45;&gt;Node7</title>
<path fill="none" stroke="#9a32cd" stroke-dasharray="5,2" d="M159.5695,-191.8628C163.8668,-179.3444 169.2973,-163.5252 172.7108,-153.5817"/>
<polygon fill="#9a32cd" stroke="#9a32cd" points="156.2319,-190.8059 156.2953,-201.4005 162.8526,-193.0787 156.2319,-190.8059"/>
<text text-anchor="middle" x="173.5" y="-175" font-family="Helvetica,sans-Serif" font-size="10.00" fill="#000000"> tds</text>
</g>
</g>
</svg>
