<?xml version="1.0" encoding="UTF-8" standalone="no"?>
<!DOCTYPE svg PUBLIC "-//W3C//DTD SVG 1.1//EN"
 "http://www.w3.org/Graphics/SVG/1.1/DTD/svg11.dtd">
<!-- Generated by graphviz version 2.40.1 (20161225.0304)
 -->
<!-- Title: pivot_t Pages: 1 -->
<svg width="1348pt" height="671pt"
 viewBox="0.00 0.00 1348.00 671.00" xmlns="http://www.w3.org/2000/svg" xmlns:xlink="http://www.w3.org/1999/xlink">
<g id="graph0" class="graph" transform="scale(1 1) rotate(0) translate(4 667)">
<title>pivot_t</title>
<polygon fill="#ffffff" stroke="transparent" points="-4,4 -4,-667 1344,-667 1344,4 -4,4"/>
<!-- Node1 -->
<g id="node1" class="node">
<title>Node1</title>
<g id="a_node1"><a xlink:title=" ">
<polygon fill="#bfbfbf" stroke="#000000" points="1294,-580.5 1294,-599.5 1340,-599.5 1340,-580.5 1294,-580.5"/>
<text text-anchor="middle" x="1317" y="-587.5" font-family="Helvetica,sans-Serif" font-size="10.00" fill="#000000">pivot_t</text>
</a>
</g>
</g>
<!-- Node2 -->
<g id="node2" class="node">
<title>Node2</title>
<g id="a_node2"><a xlink:href="a00580.html" target="_top" xlink:title=" ">
<polygon fill="#ffffff" stroke="#000000" points="950,-604.5 950,-623.5 998,-623.5 998,-604.5 950,-604.5"/>
<text text-anchor="middle" x="974" y="-611.5" font-family="Helvetica,sans-Serif" font-size="10.00" fill="#000000">KEY_T</text>
</a>
</g>
</g>
<!-- Node2&#45;&gt;Node1 -->
<g id="edge1" class="edge">
<title>Node2&#45;&gt;Node1</title>
<path fill="none" stroke="#9a32cd" stroke-dasharray="5,2" d="M1008.2188,-609.8979C1037.57,-606.5141 1081.0125,-601.8259 1119,-599 1182.1408,-594.303 1256.8038,-591.7085 1293.8072,-590.6207"/>
<polygon fill="#9a32cd" stroke="#9a32cd" points="1007.6066,-606.4454 998.079,-611.0796 1008.417,-613.3984 1007.6066,-606.4454"/>
<text text-anchor="middle" x="1172" y="-602" font-family="Helvetica,sans-Serif" font-size="10.00" fill="#000000"> across</text>
</g>
<!-- Node4 -->
<g id="node4" class="node">
<title>Node4</title>
<g id="a_node4"><a xlink:href="a00628.html" target="_top" xlink:title=" ">
<polygon fill="#ffffff" stroke="#000000" points="1151.5,-619.5 1151.5,-638.5 1192.5,-638.5 1192.5,-619.5 1151.5,-619.5"/>
<text text-anchor="middle" x="1172" y="-626.5" font-family="Helvetica,sans-Serif" font-size="10.00" fill="#000000">agg_t</text>
</a>
</g>
</g>
<!-- Node2&#45;&gt;Node4 -->
<g id="edge5" class="edge">
<title>Node2&#45;&gt;Node4</title>
<path fill="none" stroke="#9a32cd" stroke-dasharray="5,2" d="M1008.4147,-616.6072C1049.695,-619.7345 1117.5576,-624.8756 1151.4289,-627.4416"/>
<polygon fill="#9a32cd" stroke="#9a32cd" points="1008.5145,-613.1048 998.2787,-615.8393 1007.9857,-620.0848 1008.5145,-613.1048"/>
<text text-anchor="middle" x="1075.5" y="-637" font-family="Helvetica,sans-Serif" font-size="10.00" fill="#000000"> col_key</text>
<text text-anchor="middle" x="1075.5" y="-626" font-family="Helvetica,sans-Serif" font-size="10.00" fill="#000000">row_key</text>
</g>
<!-- Node3 -->
<g id="node3" class="node">
<title>Node3</title>
<g id="a_node3"><a xlink:href="a00620.html" target="_top" xlink:title=" ">
<polygon fill="#ffffff" stroke="#000000" points="723,-632.5 723,-651.5 761,-651.5 761,-632.5 723,-632.5"/>
<text text-anchor="middle" x="742" y="-639.5" font-family="Helvetica,sans-Serif" font-size="10.00" fill="#000000">col_t</text>
</a>
</g>
</g>
<!-- Node3&#45;&gt;Node2 -->
<g id="edge2" class="edge">
<title>Node3&#45;&gt;Node2</title>
<path fill="none" stroke="#9a32cd" stroke-dasharray="5,2" d="M771.3811,-638.454C817.6866,-632.8654 906.7781,-622.113 949.7051,-616.9321"/>
<polygon fill="#9a32cd" stroke="#9a32cd" points="770.8897,-634.9878 761.3812,-639.6609 771.7285,-641.9374 770.8897,-634.9878"/>
<text text-anchor="middle" x="866" y="-633" font-family="Helvetica,sans-Serif" font-size="10.00" fill="#000000"> keys</text>
</g>
<!-- Node3&#45;&gt;Node4 -->
<g id="edge4" class="edge">
<title>Node3&#45;&gt;Node4</title>
<path fill="none" stroke="#9a32cd" stroke-dasharray="5,2" d="M771.2216,-643.1616C789.3026,-643.8285 812.9952,-644.609 834,-645 952.6469,-647.2087 983.1508,-659.9121 1101,-646 1118.2447,-643.9643 1137.3661,-639.2387 1151.4167,-635.2853"/>
<polygon fill="#9a32cd" stroke="#9a32cd" points="771.1508,-639.6565 761.0256,-642.7757 770.886,-646.6515 771.1508,-639.6565"/>
<text text-anchor="middle" x="974" y="-655" font-family="Helvetica,sans-Serif" font-size="10.00" fill="#000000"> value</text>
</g>
<!-- Node4&#45;&gt;Node1 -->
<g id="edge3" class="edge">
<title>Node4&#45;&gt;Node1</title>
<path fill="none" stroke="#9a32cd" stroke-dasharray="5,2" d="M1202.7436,-622.4003C1223.5519,-617.7403 1251.5898,-611.0848 1276,-604 1281.7788,-602.3228 1287.9497,-600.3266 1293.7034,-598.3747"/>
<polygon fill="#9a32cd" stroke="#9a32cd" points="1201.8769,-619.0073 1192.8684,-624.5837 1203.3882,-625.8422 1201.8769,-619.0073"/>
<text text-anchor="middle" x="1259.5" y="-615" font-family="Helvetica,sans-Serif" font-size="10.00" fill="#000000"> output</text>
</g>
<!-- Node5 -->
<g id="node5" class="node">
<title>Node5</title>
<g id="a_node5"><a xlink:href="a00940.html" target="_top" xlink:title=" ">
<polygon fill="#ffffff" stroke="#000000" points="1119,-419.5 1119,-438.5 1225,-438.5 1225,-419.5 1119,-419.5"/>
<text text-anchor="middle" x="1172" y="-426.5" font-family="Helvetica,sans-Serif" font-size="10.00" fill="#000000">tds_dblib_dbprocess</text>
</a>
</g>
</g>
<!-- Node5&#45;&gt;Node1 -->
<g id="edge6" class="edge">
<title>Node5&#45;&gt;Node1</title>
<path fill="none" stroke="#9a32cd" stroke-dasharray="5,2" d="M1187.5382,-446.2527C1217.9271,-479.9949 1284.3424,-553.7388 1308.2257,-580.2576"/>
<polygon fill="#9a32cd" stroke="#9a32cd" points="1189.9291,-443.6775 1180.6362,-438.5891 1184.7277,-448.3621 1189.9291,-443.6775"/>
<text text-anchor="middle" x="1259.5" y="-545" font-family="Helvetica,sans-Serif" font-size="10.00" fill="#000000"> dbproc</text>
</g>
<!-- Node6 -->
<g id="node6" class="node">
<title>Node6</title>
<g id="a_node6"><a xlink:href="a00936.html" target="_top" xlink:title=" ">
<polygon fill="#ffffff" stroke="#000000" points="942.5,-437.5 942.5,-456.5 1005.5,-456.5 1005.5,-437.5 942.5,-437.5"/>
<text text-anchor="middle" x="974" y="-444.5" font-family="Helvetica,sans-Serif" font-size="10.00" fill="#000000">NULLREP</text>
</a>
</g>
</g>
<!-- Node6&#45;&gt;Node5 -->
<g id="edge7" class="edge">
<title>Node6&#45;&gt;Node5</title>
<path fill="none" stroke="#9a32cd" stroke-dasharray="5,2" d="M1015.9305,-443.1881C1045.8711,-440.4663 1086.3872,-436.783 1118.6344,-433.8514"/>
<polygon fill="#9a32cd" stroke="#9a32cd" points="1015.4542,-439.7169 1005.8121,-444.108 1016.088,-446.6882 1015.4542,-439.7169"/>
<text text-anchor="middle" x="1075.5" y="-442" font-family="Helvetica,sans-Serif" font-size="10.00" fill="#000000"> nullreps</text>
</g>
<!-- Node7 -->
<g id="node7" class="node">
<title>Node7</title>
<g id="a_node7"><a xlink:href="a00920.html" target="_top" xlink:title=" ">
<polygon fill="#ffffff" stroke="#000000" points="916,-399.5 916,-418.5 1032,-418.5 1032,-399.5 916,-399.5"/>
<text text-anchor="middle" x="974" y="-406.5" font-family="Helvetica,sans-Serif" font-size="10.00" fill="#000000">BCP_HOSTFILEINFO</text>
</a>
</g>
</g>
<!-- Node7&#45;&gt;Node5 -->
<g id="edge8" class="edge">
<title>Node7&#45;&gt;Node5</title>
<path fill="none" stroke="#9a32cd" stroke-dasharray="5,2" d="M1042.2907,-414.4135C1061.3119,-416.0576 1081.9731,-417.9709 1101,-420 1106.8068,-420.6193 1112.8746,-421.3145 1118.9119,-422.037"/>
<polygon fill="#9a32cd" stroke="#9a32cd" points="1042.4742,-410.9165 1032.2129,-413.5539 1041.8793,-417.8912 1042.4742,-410.9165"/>
<text text-anchor="middle" x="1075.5" y="-423" font-family="Helvetica,sans-Serif" font-size="10.00" fill="#000000"> hostfileinfo</text>
</g>
<!-- Node8 -->
<g id="node8" class="node">
<title>Node8</title>
<g id="a_node8"><a xlink:href="a00916.html" target="_top" xlink:title=" ">
<polygon fill="#ffffff" stroke="#000000" points="684.5,-396.5 684.5,-415.5 799.5,-415.5 799.5,-396.5 684.5,-396.5"/>
<text text-anchor="middle" x="742" y="-403.5" font-family="Helvetica,sans-Serif" font-size="10.00" fill="#000000">BCP_HOSTCOLINFO</text>
</a>
</g>
</g>
<!-- Node8&#45;&gt;Node7 -->
<g id="edge9" class="edge">
<title>Node8&#45;&gt;Node7</title>
<path fill="none" stroke="#9a32cd" stroke-dasharray="5,2" d="M809.8535,-406.8774C843.4734,-407.3122 883.6532,-407.8317 915.8449,-408.248"/>
<polygon fill="#9a32cd" stroke="#9a32cd" points="809.6909,-403.3751 799.6464,-406.7454 809.6003,-410.3745 809.6909,-403.3751"/>
<text text-anchor="middle" x="866" y="-410" font-family="Helvetica,sans-Serif" font-size="10.00" fill="#000000"> host_columns</text>
</g>
<!-- Node9 -->
<g id="node9" class="node">
<title>Node9</title>
<g id="a_node9"><a xlink:href="a01224.html" target="_top" xlink:title="Information for a server connection.">
<polygon fill="#ffffff" stroke="#000000" points="348,-148.5 348,-167.5 413,-167.5 413,-148.5 348,-148.5"/>
<text text-anchor="middle" x="380.5" y="-155.5" font-family="Helvetica,sans-Serif" font-size="10.00" fill="#000000">tds_socket</text>
</a>
</g>
</g>
<!-- Node9&#45;&gt;Node5 -->
<g id="edge10" class="edge">
<title>Node9&#45;&gt;Node5</title>
<path fill="none" stroke="#9a32cd" stroke-dasharray="5,2" d="M404.9759,-172.5335C437.7375,-190.5761 498.2041,-219 554,-219 554,-219 554,-219 974,-219 1036.2381,-219 1058.9199,-232.1432 1101,-278 1141.5432,-322.182 1162.942,-393.6408 1169.6483,-419.3775"/>
<polygon fill="#9a32cd" stroke="#9a32cd" points="406.5438,-169.3995 396.1149,-167.5313 403.1025,-175.4952 406.5438,-169.3995"/>
<text text-anchor="middle" x="742" y="-222" font-family="Helvetica,sans-Serif" font-size="10.00" fill="#000000"> tds_socket</text>
</g>
<!-- Node16 -->
<g id="node14" class="node">
<title>Node16</title>
<g id="a_node14"><a xlink:href="a01172.html" target="_top" xlink:title="Hold information for any results.">
<polygon fill="#ffffff" stroke="#ff0000" points="514,-261.5 514,-280.5 594,-280.5 594,-261.5 514,-261.5"/>
<text text-anchor="middle" x="554" y="-268.5" font-family="Helvetica,sans-Serif" font-size="10.00" fill="#000000">tds_result_info</text>
</a>
</g>
</g>
<!-- Node9&#45;&gt;Node16 -->
<g id="edge18" class="edge">
<title>Node9&#45;&gt;Node16</title>
<path fill="none" stroke="#9a32cd" stroke-dasharray="5,2" d="M389.455,-177.0075C398.0067,-193.2372 412.3455,-216.098 431,-230 434.8692,-232.8834 488.7561,-250.3041 523.9083,-261.4904"/>
<polygon fill="#9a32cd" stroke="#9a32cd" points="392.5,-175.2715 384.8913,-167.8986 386.2415,-178.4071 392.5,-175.2715"/>
<text text-anchor="middle" x="463.5" y="-256" font-family="Helvetica,sans-Serif" font-size="10.00" fill="#000000"> attached_to</text>
</g>
<!-- Node10 -->
<g id="node10" class="node">
<title>Node10</title>
<g id="a_node10"><a xlink:href="a01132.html" target="_top" xlink:title=" ">
<polygon fill="#ffffff" stroke="#ff0000" points="181.5,-199.5 181.5,-218.5 237.5,-218.5 237.5,-199.5 181.5,-199.5"/>
<text text-anchor="middle" x="209.5" y="-206.5" font-family="Helvetica,sans-Serif" font-size="10.00" fill="#000000">tds_login</text>
</a>
</g>
</g>
<!-- Node10&#45;&gt;Node9 -->
<g id="edge11" class="edge">
<title>Node10&#45;&gt;Node9</title>
<path fill="none" stroke="#9a32cd" stroke-dasharray="5,2" d="M247.5339,-197.6566C277.8452,-188.6164 319.8078,-176.1012 348.4334,-167.5637"/>
<polygon fill="#9a32cd" stroke="#9a32cd" points="246.3197,-194.3663 237.7372,-200.5784 248.3204,-201.0743 246.3197,-194.3663"/>
<text text-anchor="middle" x="295" y="-197" font-family="Helvetica,sans-Serif" font-size="10.00" fill="#000000"> login</text>
</g>
<!-- Node13 -->
<g id="node11" class="node">
<title>Node13</title>
<g id="a_node11"><a xlink:href="a01268.html" target="_top" xlink:title="Structure to hold a string.">
<polygon fill="#ffffff" stroke="#000000" points="0,-323.5 0,-342.5 52,-342.5 52,-323.5 0,-323.5"/>
<text text-anchor="middle" x="26" y="-330.5" font-family="Helvetica,sans-Serif" font-size="10.00" fill="#000000">tds_dstr</text>
</a>
</g>
</g>
<!-- Node13&#45;&gt;Node10 -->
<g id="edge12" class="edge">
<title>Node13&#45;&gt;Node10</title>
<path fill="none" stroke="#9a32cd" stroke-dasharray="5,2" d="M40.3008,-315.1956C48.3918,-305.8114 59.0595,-294.5147 70,-286 107.9855,-256.4368 158.78,-231.489 187.4229,-218.54"/>
<polygon fill="#9a32cd" stroke="#9a32cd" points="37.3875,-313.2236 33.6607,-323.1414 42.7588,-317.7124 37.3875,-313.2236"/>
<text text-anchor="middle" x="114.5" y="-410" font-family="Helvetica,sans-Serif" font-size="10.00" fill="#000000"> server_realm_name</text>
<text text-anchor="middle" x="114.5" y="-399" font-family="Helvetica,sans-Serif" font-size="10.00" fill="#000000">password</text>
<text text-anchor="middle" x="114.5" y="-388" font-family="Helvetica,sans-Serif" font-size="10.00" fill="#000000">server_name</text>
<text text-anchor="middle" x="114.5" y="-377" font-family="Helvetica,sans-Serif" font-size="10.00" fill="#000000">dump_file</text>
<text text-anchor="middle" x="114.5" y="-366" font-family="Helvetica,sans-Serif" font-size="10.00" fill="#000000">library</text>
<text text-anchor="middle" x="114.5" y="-355" font-family="Helvetica,sans-Serif" font-size="10.00" fill="#000000">crlfile</text>
<text text-anchor="middle" x="114.5" y="-344" font-family="Helvetica,sans-Serif" font-size="10.00" fill="#000000">server_spn</text>
<text text-anchor="start" x="70" y="-333" font-family="Helvetica,sans-Serif" font-size="10.00" fill="#000000">client_host</text>
<text text-anchor="middle" x="114.5" y="-322" font-family="Helvetica,sans-Serif" font-size="10.00" fill="#000000">_name</text>
<text text-anchor="middle" x="114.5" y="-311" font-family="Helvetica,sans-Serif" font-size="10.00" fill="#000000">client_charset</text>
<text text-anchor="middle" x="114.5" y="-300" font-family="Helvetica,sans-Serif" font-size="10.00" fill="#000000">openssl_ciphers</text>
<text text-anchor="middle" x="114.5" y="-289" font-family="Helvetica,sans-Serif" font-size="10.00" fill="#000000">...</text>
</g>
<!-- Node32 -->
<g id="node17" class="node">
<title>Node32</title>
<g id="a_node17"><a xlink:href="a01232.html" target="_top" xlink:title=" ">
<polygon fill="#ffffff" stroke="#000000" points="708.5,-434.5 708.5,-453.5 775.5,-453.5 775.5,-434.5 708.5,-434.5"/>
<text text-anchor="middle" x="742" y="-441.5" font-family="Helvetica,sans-Serif" font-size="10.00" fill="#000000">tds_bcpinfo</text>
</a>
</g>
</g>
<!-- Node13&#45;&gt;Node32 -->
<g id="edge29" class="edge">
<title>Node13&#45;&gt;Node32</title>
<path fill="none" stroke="#9a32cd" stroke-dasharray="5,2" d="M30.3461,-352.5356C35.9044,-372.5421 47.6147,-402.7976 70,-418 121.548,-453.0075 147.1886,-432 209.5,-432 209.5,-432 209.5,-432 554,-432 608.1273,-432 670.8428,-437.0153 708.4201,-440.5613"/>
<polygon fill="#9a32cd" stroke="#9a32cd" points="33.6908,-351.4837 27.8624,-342.6361 26.9012,-353.1872 33.6908,-351.4837"/>
<text text-anchor="middle" x="380.5" y="-435" font-family="Helvetica,sans-Serif" font-size="10.00" fill="#000000"> tablename</text>
</g>
<!-- Node14 -->
<g id="node12" class="node">
<title>Node14</title>
<g id="a_node12"><a xlink:href="a01212.html" target="_top" xlink:title=" ">
<polygon fill="#ffffff" stroke="#000000" points="177,-37.5 177,-56.5 242,-56.5 242,-37.5 177,-37.5"/>
<text text-anchor="middle" x="209.5" y="-44.5" font-family="Helvetica,sans-Serif" font-size="10.00" fill="#000000">tds_packet</text>
</a>
</g>
</g>
<!-- Node14&#45;&gt;Node9 -->
<g id="edge13" class="edge">
<title>Node14&#45;&gt;Node9</title>
<path fill="none" stroke="#9a32cd" stroke-dasharray="5,2" d="M233.1756,-62.3683C268.9547,-85.5934 335.7768,-128.9692 365.5366,-148.2869"/>
<polygon fill="#9a32cd" stroke="#9a32cd" points="234.6695,-59.1654 224.376,-56.6563 230.8581,-65.0368 234.6695,-59.1654"/>
<text text-anchor="middle" x="295" y="-151" font-family="Helvetica,sans-Serif" font-size="10.00" fill="#000000"> frozen_packets</text>
<text text-anchor="middle" x="295" y="-140" font-family="Helvetica,sans-Serif" font-size="10.00" fill="#000000">recv_packet</text>
<text text-anchor="middle" x="295" y="-129" font-family="Helvetica,sans-Serif" font-size="10.00" fill="#000000">send_packet</text>
</g>
<!-- Node14&#45;&gt;Node14 -->
<g id="edge14" class="edge">
<title>Node14&#45;&gt;Node14</title>
<path fill="none" stroke="#9a32cd" stroke-dasharray="5,2" d="M194.0309,-66.7663C195.2459,-71.4965 200.4022,-75 209.5,-75 224.4297,-75 228.7453,-65.5653 222.4468,-56.7571"/>
<polygon fill="#9a32cd" stroke="#9a32cd" points="197.5034,-67.3092 196.5532,-56.7571 190.7156,-65.5986 197.5034,-67.3092"/>
<text text-anchor="middle" x="209.5" y="-78" font-family="Helvetica,sans-Serif" font-size="10.00" fill="#000000"> next</text>
</g>
<!-- Node26 -->
<g id="node16" class="node">
<title>Node26</title>
<g id="a_node16"><a xlink:href="a01220.html" target="_top" xlink:title=" ">
<polygon fill="#ffffff" stroke="#ff0000" points="932.5,-46.5 932.5,-65.5 1015.5,-65.5 1015.5,-46.5 932.5,-46.5"/>
<text text-anchor="middle" x="974" y="-53.5" font-family="Helvetica,sans-Serif" font-size="10.00" fill="#000000">tds_connection</text>
</a>
</g>
</g>
<!-- Node14&#45;&gt;Node26 -->
<g id="edge24" class="edge">
<title>Node14&#45;&gt;Node26</title>
<path fill="none" stroke="#9a32cd" stroke-dasharray="5,2" d="M239.3074,-33.569C272.9038,-19.6785 329.4994,0 380.5,0 380.5,0 380.5,0 742,0 820.1041,0 908.9733,-30.362 950.4078,-46.3733"/>
<polygon fill="#9a32cd" stroke="#9a32cd" points="237.8996,-30.3642 230.058,-37.4888 240.6311,-36.8094 237.8996,-30.3642"/>
<text text-anchor="middle" x="554" y="-3" font-family="Helvetica,sans-Serif" font-size="10.00" fill="#000000"> packet_cache</text>
</g>
<!-- Node15 -->
<g id="node13" class="node">
<title>Node15</title>
<g id="a_node13"><a xlink:href="a01196.html" target="_top" xlink:title="Holds information for a dynamic (also called prepared) query.">
<polygon fill="#ffffff" stroke="#000000" points="706,-67.5 706,-86.5 778,-86.5 778,-67.5 706,-67.5"/>
<text text-anchor="middle" x="742" y="-74.5" font-family="Helvetica,sans-Serif" font-size="10.00" fill="#000000">tds_dynamic</text>
</a>
</g>
</g>
<!-- Node15&#45;&gt;Node9 -->
<g id="edge15" class="edge">
<title>Node15&#45;&gt;Node9</title>
<path fill="none" stroke="#9a32cd" stroke-dasharray="5,2" d="M695.9148,-87.3261C621.7697,-103.9396 477.7901,-136.2006 413.2183,-150.6689"/>
<polygon fill="#9a32cd" stroke="#9a32cd" points="696.9052,-90.6911 705.898,-85.0893 695.3746,-83.8605 696.9052,-90.6911"/>
<text text-anchor="middle" x="554" y="-130" font-family="Helvetica,sans-Serif" font-size="10.00" fill="#000000"> cur_dyn</text>
</g>
<!-- Node15&#45;&gt;Node15 -->
<g id="edge16" class="edge">
<title>Node15&#45;&gt;Node15</title>
<path fill="none" stroke="#9a32cd" stroke-dasharray="5,2" d="M721.6306,-96.4C722.991,-101.3146 729.7808,-105 742,-105 761.5508,-105 767.2022,-95.5653 758.9542,-86.7571"/>
<polygon fill="#9a32cd" stroke="#9a32cd" points="725.0065,-97.3518 725.0458,-86.7571 718.4081,-95.0149 725.0065,-97.3518"/>
<text text-anchor="middle" x="742" y="-108" font-family="Helvetica,sans-Serif" font-size="10.00" fill="#000000"> next</text>
</g>
<!-- Node15&#45;&gt;Node26 -->
<g id="edge25" class="edge">
<title>Node15&#45;&gt;Node26</title>
<path fill="none" stroke="#9a32cd" stroke-dasharray="5,2" d="M788.2138,-72.8169C830.1853,-69.0177 891.5569,-63.4625 932.1209,-59.7908"/>
<polygon fill="#9a32cd" stroke="#9a32cd" points="787.8937,-69.3314 778.25,-73.7188 788.5248,-76.3029 787.8937,-69.3314"/>
<text text-anchor="middle" x="866" y="-72" font-family="Helvetica,sans-Serif" font-size="10.00" fill="#000000"> dyns</text>
</g>
<!-- Node16&#45;&gt;Node9 -->
<g id="edge19" class="edge">
<title>Node16&#45;&gt;Node9</title>
<path fill="none" stroke="#9a32cd" stroke-dasharray="5,2" d="M503.9123,-279.3408C479.9851,-280.6849 452.0503,-278.1408 431,-264 397.1579,-241.2662 385.3713,-189.3567 381.8341,-167.7341"/>
<polygon fill="#9a32cd" stroke="#9a32cd" points="504.1979,-282.8292 513.8897,-278.5492 503.6442,-275.8512 504.1979,-282.8292"/>
<text text-anchor="middle" x="463.5" y="-315" font-family="Helvetica,sans-Serif" font-size="10.00" fill="#000000"> param_info</text>
<text text-anchor="middle" x="463.5" y="-304" font-family="Helvetica,sans-Serif" font-size="10.00" fill="#000000">current_results</text>
<text text-anchor="middle" x="463.5" y="-293" font-family="Helvetica,sans-Serif" font-size="10.00" fill="#000000">res_info</text>
<text text-anchor="middle" x="463.5" y="-282" font-family="Helvetica,sans-Serif" font-size="10.00" fill="#000000">comp_info</text>
</g>
<!-- Node16&#45;&gt;Node15 -->
<g id="edge17" class="edge">
<title>Node16&#45;&gt;Node15</title>
<path fill="none" stroke="#9a32cd" stroke-dasharray="5,2" d="M564.2806,-252.6199C575.1238,-233.8633 593.2131,-204.2831 612,-181 634.1031,-153.6071 640.6399,-147.1436 668,-125 686.45,-110.0677 709.686,-95.621 725.1489,-86.546"/>
<polygon fill="#9a32cd" stroke="#9a32cd" points="561.2153,-250.9299 559.3054,-261.3512 567.2972,-254.3954 561.2153,-250.9299"/>
<text text-anchor="middle" x="631" y="-195" font-family="Helvetica,sans-Serif" font-size="10.00" fill="#000000"> res_info</text>
<text text-anchor="middle" x="631" y="-184" font-family="Helvetica,sans-Serif" font-size="10.00" fill="#000000">params</text>
</g>
<!-- Node24 -->
<g id="node15" class="node">
<title>Node24</title>
<g id="a_node15"><a xlink:href="a01188.html" target="_top" xlink:title="Holds informations about a cursor.">
<polygon fill="#ffffff" stroke="#ff0000" points="711,-134.5 711,-153.5 773,-153.5 773,-134.5 711,-134.5"/>
<text text-anchor="middle" x="742" y="-141.5" font-family="Helvetica,sans-Serif" font-size="10.00" fill="#000000">tds_cursor</text>
</a>
</g>
</g>
<!-- Node16&#45;&gt;Node24 -->
<g id="edge21" class="edge">
<title>Node16&#45;&gt;Node24</title>
<path fill="none" stroke="#9a32cd" stroke-dasharray="5,2" d="M577.1965,-255.6521C596.6735,-242.7373 625.2124,-223.7487 650,-207 677.7491,-188.2503 710.0081,-166.0711 728.0092,-153.6603"/>
<polygon fill="#9a32cd" stroke="#9a32cd" points="575.0785,-252.8568 568.6755,-261.298 578.9449,-258.6922 575.0785,-252.8568"/>
<text text-anchor="middle" x="631" y="-235" font-family="Helvetica,sans-Serif" font-size="10.00" fill="#000000"> res_info</text>
</g>
<!-- Node16&#45;&gt;Node32 -->
<g id="edge28" class="edge">
<title>Node16&#45;&gt;Node32</title>
<path fill="none" stroke="#9a32cd" stroke-dasharray="5,2" d="M576.4227,-286.604C598.2949,-302.964 630.9699,-330.6252 650,-362 665.1019,-386.8984 647.1329,-404.6883 668,-425 678.6452,-435.3619 694.1399,-440.2938 708.2033,-442.5637"/>
<polygon fill="#9a32cd" stroke="#9a32cd" points="578.4812,-283.7734 568.3407,-280.7041 574.3539,-289.4272 578.4812,-283.7734"/>
<text text-anchor="middle" x="631" y="-365" font-family="Helvetica,sans-Serif" font-size="10.00" fill="#000000"> bindinfo</text>
</g>
<!-- Node35 -->
<g id="node20" class="node">
<title>Node35</title>
<g id="a_node20"><a xlink:href="a00608.html" target="_top" xlink:title=" ">
<polygon fill="#ffffff" stroke="#000000" points="698,-515.5 698,-534.5 786,-534.5 786,-515.5 698,-515.5"/>
<text text-anchor="middle" x="742" y="-522.5" font-family="Helvetica,sans-Serif" font-size="10.00" fill="#000000">dblib_buffer_row</text>
</a>
</g>
</g>
<!-- Node16&#45;&gt;Node35 -->
<g id="edge34" class="edge">
<title>Node16&#45;&gt;Node35</title>
<path fill="none" stroke="#9a32cd" stroke-dasharray="5,2" d="M562.4141,-289.9226C579.0816,-326.105 618.9592,-406.5186 668,-463 686.3507,-484.135 712.2504,-504.0797 728.0408,-515.393"/>
<polygon fill="#9a32cd" stroke="#9a32cd" points="565.4885,-288.2275 558.1702,-280.5663 559.1136,-291.119 565.4885,-288.2275"/>
<text text-anchor="middle" x="631" y="-442" font-family="Helvetica,sans-Serif" font-size="10.00" fill="#000000"> resinfo</text>
</g>
<!-- Node24&#45;&gt;Node9 -->
<g id="edge20" class="edge">
<title>Node24&#45;&gt;Node9</title>
<path fill="none" stroke="#9a32cd" stroke-dasharray="5,2" d="M700.7749,-145.5965C628.2384,-148.4057 479.2317,-154.1764 413.2183,-156.7329"/>
<polygon fill="#9a32cd" stroke="#9a32cd" points="701.0461,-149.0888 710.9032,-145.2043 700.7752,-142.094 701.0461,-149.0888"/>
<text text-anchor="middle" x="554" y="-156" font-family="Helvetica,sans-Serif" font-size="10.00" fill="#000000"> cur_cursor</text>
</g>
<!-- Node24&#45;&gt;Node24 -->
<g id="edge22" class="edge">
<title>Node24&#45;&gt;Node24</title>
<path fill="none" stroke="#9a32cd" stroke-dasharray="5,2" d="M721.6306,-163.4C722.991,-168.3146 729.7808,-172 742,-172 761.5508,-172 767.2022,-162.5653 758.9542,-153.7571"/>
<polygon fill="#9a32cd" stroke="#9a32cd" points="725.0065,-164.3518 725.0458,-153.7571 718.4081,-162.0149 725.0065,-164.3518"/>
<text text-anchor="middle" x="742" y="-175" font-family="Helvetica,sans-Serif" font-size="10.00" fill="#000000"> next</text>
</g>
<!-- Node24&#45;&gt;Node26 -->
<g id="edge26" class="edge">
<title>Node24&#45;&gt;Node26</title>
<path fill="none" stroke="#9a32cd" stroke-dasharray="5,2" d="M783.3073,-134.642C794.0531,-131.8686 805.5454,-128.5989 816,-125 867.51,-107.2681 925.6375,-79.8739 954.9384,-65.5183"/>
<polygon fill="#9a32cd" stroke="#9a32cd" points="782.1456,-131.3245 773.2917,-137.1433 783.8418,-138.1159 782.1456,-131.3245"/>
<text text-anchor="middle" x="866" y="-121" font-family="Helvetica,sans-Serif" font-size="10.00" fill="#000000"> cursors</text>
</g>
<!-- Node26&#45;&gt;Node9 -->
<g id="edge23" class="edge">
<title>Node26&#45;&gt;Node9</title>
<path fill="none" stroke="#9a32cd" stroke-dasharray="5,2" d="M921.9545,-51.8137C860.7777,-47.9349 756.3794,-44.5762 668,-58 559.1615,-74.5313 532.3711,-87.0696 431,-130 418.8149,-135.1604 405.7693,-142.4434 395.9902,-148.2882"/>
<polygon fill="#9a32cd" stroke="#9a32cd" points="921.9167,-55.3188 932.1266,-52.489 922.3804,-48.3342 921.9167,-55.3188"/>
<text text-anchor="middle" x="631" y="-71" font-family="Helvetica,sans-Serif" font-size="10.00" fill="#000000"> conn</text>
</g>
<!-- Node32&#45;&gt;Node5 -->
<g id="edge27" class="edge">
<title>Node32&#45;&gt;Node5</title>
<path fill="none" stroke="#9a32cd" stroke-dasharray="5,2" d="M771.9349,-457.7549C805.9828,-472.5796 863.6534,-495.2282 916,-504 966.8466,-512.5205 981.0572,-511.9248 1032,-504 1063.8052,-499.0523 1072.3749,-496.7192 1101,-482 1124.2551,-470.0421 1147.934,-450.5939 1161.2189,-438.8766"/>
<polygon fill="#9a32cd" stroke="#9a32cd" points="773.1316,-454.4572 762.5704,-453.6143 770.3009,-460.8593 773.1316,-454.4572"/>
<text text-anchor="middle" x="974" y="-513" font-family="Helvetica,sans-Serif" font-size="10.00" fill="#000000"> bcpinfo</text>
</g>
<!-- Node33 -->
<g id="node18" class="node">
<title>Node33</title>
<g id="a_node18"><a xlink:href="a01324.html" target="_top" xlink:title=" ">
<polygon fill="#ffffff" stroke="#000000" points="716.5,-322.5 716.5,-341.5 767.5,-341.5 767.5,-322.5 716.5,-322.5"/>
<text text-anchor="middle" x="742" y="-329.5" font-family="Helvetica,sans-Serif" font-size="10.00" fill="#000000">dbstring</text>
</a>
</g>
</g>
<!-- Node33&#45;&gt;Node5 -->
<g id="edge30" class="edge">
<title>Node33&#45;&gt;Node5</title>
<path fill="none" stroke="#9a32cd" stroke-dasharray="5,2" d="M777.7032,-336.9548C844.16,-346.3152 984.4099,-366.7545 1032,-379 1074.2415,-389.8692 1121.7239,-408.178 1149.1185,-419.3669"/>
<polygon fill="#9a32cd" stroke="#9a32cd" points="778.0857,-333.4742 767.6963,-335.5506 777.1129,-340.4063 778.0857,-333.4742"/>
<text text-anchor="middle" x="974" y="-382" font-family="Helvetica,sans-Serif" font-size="10.00" fill="#000000"> dboptcmd</text>
</g>
<!-- Node33&#45;&gt;Node33 -->
<g id="edge31" class="edge">
<title>Node33&#45;&gt;Node33</title>
<path fill="none" stroke="#9a32cd" stroke-dasharray="5,2" d="M721.6306,-351.4C722.991,-356.3146 729.7808,-360 742,-360 761.5508,-360 767.2022,-350.5653 758.9542,-341.7571"/>
<polygon fill="#9a32cd" stroke="#9a32cd" points="725.0065,-352.3518 725.0458,-341.7571 718.4081,-350.0149 725.0065,-352.3518"/>
<text text-anchor="middle" x="742" y="-363" font-family="Helvetica,sans-Serif" font-size="10.00" fill="#000000"> strnext</text>
</g>
<!-- Node36 -->
<g id="node21" class="node">
<title>Node36</title>
<g id="a_node21"><a xlink:href="a00932.html" target="_top" xlink:title=" ">
<polygon fill="#ffffff" stroke="#000000" points="947.5,-314.5 947.5,-333.5 1000.5,-333.5 1000.5,-314.5 947.5,-314.5"/>
<text text-anchor="middle" x="974" y="-321.5" font-family="Helvetica,sans-Serif" font-size="10.00" fill="#000000">dboption</text>
</a>
</g>
</g>
<!-- Node33&#45;&gt;Node36 -->
<g id="edge36" class="edge">
<title>Node33&#45;&gt;Node36</title>
<path fill="none" stroke="#9a32cd" stroke-dasharray="5,2" d="M777.7234,-330.7682C824.5692,-329.1528 905.6903,-326.3555 947.4573,-324.9153"/>
<polygon fill="#9a32cd" stroke="#9a32cd" points="777.5879,-327.2707 767.7145,-331.1133 777.8292,-334.2665 777.5879,-327.2707"/>
<text text-anchor="middle" x="866" y="-331" font-family="Helvetica,sans-Serif" font-size="10.00" fill="#000000"> param</text>
</g>
<!-- Node34 -->
<g id="node19" class="node">
<title>Node34</title>
<g id="a_node19"><a xlink:href="a00912.html" target="_top" xlink:title=" ">
<polygon fill="#ffffff" stroke="#000000" points="919,-560.5 919,-579.5 1029,-579.5 1029,-560.5 919,-560.5"/>
<text text-anchor="middle" x="974" y="-567.5" font-family="Helvetica,sans-Serif" font-size="10.00" fill="#000000">DBPROC_ROWBUF</text>
</a>
</g>
</g>
<!-- Node34&#45;&gt;Node5 -->
<g id="edge32" class="edge">
<title>Node34&#45;&gt;Node5</title>
<path fill="none" stroke="#9a32cd" stroke-dasharray="5,2" d="M1039.033,-565.6701C1060.265,-561.7608 1082.9902,-554.6789 1101,-542 1139.0798,-515.1917 1161.1318,-460.8197 1168.8496,-438.6941"/>
<polygon fill="#9a32cd" stroke="#9a32cd" points="1038.386,-562.2294 1029.0825,-567.2985 1039.5165,-569.1375 1038.386,-562.2294"/>
<text text-anchor="middle" x="1075.5" y="-565" font-family="Helvetica,sans-Serif" font-size="10.00" fill="#000000"> row_buf</text>
</g>
<!-- Node35&#45;&gt;Node34 -->
<g id="edge33" class="edge">
<title>Node35&#45;&gt;Node34</title>
<path fill="none" stroke="#9a32cd" stroke-dasharray="5,2" d="M794.6207,-536.7935C807.483,-539.5783 821.2214,-542.471 834,-545 861.8533,-550.5124 892.9338,-556.1172 918.7213,-560.619"/>
<polygon fill="#9a32cd" stroke="#9a32cd" points="795.0445,-533.3037 784.5283,-534.5923 793.5528,-540.1429 795.0445,-533.3037"/>
<text text-anchor="middle" x="866" y="-559" font-family="Helvetica,sans-Serif" font-size="10.00" fill="#000000"> rows</text>
</g>
<!-- Node36&#45;&gt;Node5 -->
<g id="edge35" class="edge">
<title>Node36&#45;&gt;Node5</title>
<path fill="none" stroke="#9a32cd" stroke-dasharray="5,2" d="M1010.6323,-323.4583C1037.2806,-324.5731 1073.3792,-329.3145 1101,-345 1132.8802,-363.1043 1156.8776,-401.3022 1166.8838,-419.2696"/>
<polygon fill="#9a32cd" stroke="#9a32cd" points="1010.6517,-319.9577 1000.5617,-323.189 1010.4645,-326.9552 1010.6517,-319.9577"/>
<text text-anchor="middle" x="1075.5" y="-348" font-family="Helvetica,sans-Serif" font-size="10.00" fill="#000000"> dbopts</text>
</g>
<!-- Node37 -->
<g id="node22" class="node">
<title>Node37</title>
<g id="a_node22"><a xlink:href="a00928.html" target="_top" xlink:title=" ">
<polygon fill="#ffffff" stroke="#000000" points="920,-247.5 920,-266.5 1028,-266.5 1028,-247.5 920,-247.5"/>
<text text-anchor="middle" x="974" y="-254.5" font-family="Helvetica,sans-Serif" font-size="10.00" fill="#000000">DBREMOTE_PROC</text>
</a>
</g>
</g>
<!-- Node37&#45;&gt;Node5 -->
<g id="edge37" class="edge">
<title>Node37&#45;&gt;Node5</title>
<path fill="none" stroke="#9a32cd" stroke-dasharray="5,2" d="M1020.0049,-269.7465C1045.9643,-278.6698 1077.7555,-292.6777 1101,-313 1136.5519,-344.0825 1159.8889,-397.3994 1168.3977,-419.2382"/>
<polygon fill="#9a32cd" stroke="#9a32cd" points="1020.9642,-266.3775 1010.3712,-266.5729 1018.774,-273.0261 1020.9642,-266.3775"/>
<text text-anchor="middle" x="1075.5" y="-316" font-family="Helvetica,sans-Serif" font-size="10.00" fill="#000000"> rpc</text>
</g>
<!-- Node37&#45;&gt;Node37 -->
<g id="edge40" class="edge">
<title>Node37&#45;&gt;Node37</title>
<path fill="none" stroke="#9a32cd" stroke-dasharray="5,2" d="M955.4824,-276.4C956.7191,-281.3146 962.8916,-285 974,-285 991.7734,-285 996.9111,-275.5653 989.4129,-266.7571"/>
<polygon fill="#9a32cd" stroke="#9a32cd" points="958.8539,-277.3485 958.5871,-266.7571 952.1907,-275.2032 958.8539,-277.3485"/>
<text text-anchor="middle" x="974" y="-288" font-family="Helvetica,sans-Serif" font-size="10.00" fill="#000000"> next</text>
</g>
<!-- Node38 -->
<g id="node23" class="node">
<title>Node38</title>
<g id="a_node23"><a xlink:href="a00924.html" target="_top" xlink:title=" ">
<polygon fill="#ffffff" stroke="#000000" points="668,-248.5 668,-267.5 816,-267.5 816,-248.5 668,-248.5"/>
<text text-anchor="middle" x="742" y="-255.5" font-family="Helvetica,sans-Serif" font-size="10.00" fill="#000000">DBREMOTE_PROC_PARAM</text>
</a>
</g>
</g>
<!-- Node38&#45;&gt;Node37 -->
<g id="edge38" class="edge">
<title>Node38&#45;&gt;Node37</title>
<path fill="none" stroke="#9a32cd" stroke-dasharray="5,2" d="M826.0555,-257.6377C857.2925,-257.503 891.8813,-257.354 919.7551,-257.2338"/>
<polygon fill="#9a32cd" stroke="#9a32cd" points="826.0289,-254.1377 816.0441,-257.6808 826.0591,-261.1376 826.0289,-254.1377"/>
<text text-anchor="middle" x="866" y="-260" font-family="Helvetica,sans-Serif" font-size="10.00" fill="#000000"> param_list</text>
</g>
<!-- Node38&#45;&gt;Node38 -->
<g id="edge39" class="edge">
<title>Node38&#45;&gt;Node38</title>
<path fill="none" stroke="#9a32cd" stroke-dasharray="5,2" d="M721.6306,-277.4C722.991,-282.3146 729.7808,-286 742,-286 761.5508,-286 767.2022,-276.5653 758.9542,-267.7571"/>
<polygon fill="#9a32cd" stroke="#9a32cd" points="725.0065,-278.3518 725.0458,-267.7571 718.4081,-276.0149 725.0065,-278.3518"/>
<text text-anchor="middle" x="742" y="-289" font-family="Helvetica,sans-Serif" font-size="10.00" fill="#000000"> next</text>
</g>
<!-- Node39 -->
<g id="node24" class="node">
<title>Node39</title>
<g id="a_node24"><a xlink:href="a01320.html" target="_top" xlink:title=" ">
<polygon fill="#ffffff" stroke="#000000" points="943,-475.5 943,-494.5 1005,-494.5 1005,-475.5 943,-475.5"/>
<text text-anchor="middle" x="974" y="-482.5" font-family="Helvetica,sans-Serif" font-size="10.00" fill="#000000">dbtypeinfo</text>
</a>
</g>
</g>
<!-- Node39&#45;&gt;Node5 -->
<g id="edge41" class="edge">
<title>Node39&#45;&gt;Node5</title>
<path fill="none" stroke="#9a32cd" stroke-dasharray="5,2" d="M1014.9087,-476.0995C1039.9348,-470.3867 1072.5105,-462.4701 1101,-454 1116.4074,-449.4193 1133.3996,-443.4691 1146.8969,-438.5229"/>
<polygon fill="#9a32cd" stroke="#9a32cd" points="1014.0086,-472.7145 1005.0249,-478.331 1015.5502,-479.5427 1014.0086,-472.7145"/>
<text text-anchor="middle" x="1075.5" y="-470" font-family="Helvetica,sans-Serif" font-size="10.00" fill="#000000"> typeinfo</text>
</g>
</g>
</svg>
