<?xml version="1.0" encoding="UTF-8" standalone="no"?>
<!DOCTYPE svg PUBLIC "-//W3C//DTD SVG 1.1//EN"
 "http://www.w3.org/Graphics/SVG/1.1/DTD/svg11.dtd">
<!-- Generated by graphviz version 2.40.1 (20161225.0304)
 -->
<!-- Title: dblib_buffer_row Pages: 1 -->
<svg width="940pt" height="483pt"
 viewBox="0.00 0.00 940.00 483.00" xmlns="http://www.w3.org/2000/svg" xmlns:xlink="http://www.w3.org/1999/xlink">
<g id="graph0" class="graph" transform="scale(1 1) rotate(0) translate(4 479)">
<title>dblib_buffer_row</title>
<polygon fill="#ffffff" stroke="transparent" points="-4,4 -4,-479 936,-479 936,4 -4,4"/>
<!-- Node1 -->
<g id="node1" class="node">
<title>Node1</title>
<g id="a_node1"><a xlink:title=" ">
<polygon fill="#bfbfbf" stroke="#000000" points="534,-28.5 534,-47.5 622,-47.5 622,-28.5 534,-28.5"/>
<text text-anchor="middle" x="578" y="-35.5" font-family="Helvetica,sans-Serif" font-size="10.00" fill="#000000">dblib_buffer_row</text>
</a>
</g>
</g>
<!-- Node2 -->
<g id="node2" class="node">
<title>Node2</title>
<g id="a_node2"><a xlink:href="a01172.html" target="_top" xlink:title="Hold information for any results.">
<polygon fill="#ffffff" stroke="#000000" points="380,-200.5 380,-219.5 460,-219.5 460,-200.5 380,-200.5"/>
<text text-anchor="middle" x="420" y="-207.5" font-family="Helvetica,sans-Serif" font-size="10.00" fill="#000000">tds_result_info</text>
</a>
</g>
</g>
<!-- Node2&#45;&gt;Node1 -->
<g id="edge1" class="edge">
<title>Node2&#45;&gt;Node1</title>
<path fill="none" stroke="#9a32cd" stroke-dasharray="5,2" d="M428.8963,-191.2004C445.1581,-158.8677 482.7801,-92.7647 534,-57 539.1848,-53.3797 545.1691,-50.2343 551.0212,-47.6011"/>
<polygon fill="#9a32cd" stroke="#9a32cd" points="425.6312,-189.9099 424.3768,-200.4302 431.918,-192.9883 425.6312,-189.9099"/>
<text text-anchor="middle" x="497" y="-115" font-family="Helvetica,sans-Serif" font-size="10.00" fill="#000000"> resinfo</text>
</g>
<!-- Node3 -->
<g id="node3" class="node">
<title>Node3</title>
<g id="a_node3"><a xlink:href="a01224.html" target="_top" xlink:title="Information for a server connection.">
<polygon fill="#ffffff" stroke="#000000" points="867,-228.5 867,-247.5 932,-247.5 932,-228.5 867,-228.5"/>
<text text-anchor="middle" x="899.5" y="-235.5" font-family="Helvetica,sans-Serif" font-size="10.00" fill="#000000">tds_socket</text>
</a>
</g>
</g>
<!-- Node2&#45;&gt;Node3 -->
<g id="edge10" class="edge">
<title>Node2&#45;&gt;Node3</title>
<path fill="none" stroke="#9a32cd" stroke-dasharray="5,2" d="M445.5555,-224.4679C468.0337,-236.2728 502.0607,-251.9512 534,-258 655.1334,-280.9407 802.5733,-257.6263 866.8844,-244.9878"/>
<polygon fill="#9a32cd" stroke="#9a32cd" points="447.1332,-221.3424 436.6687,-219.6852 443.8157,-227.5064 447.1332,-221.3424"/>
<text text-anchor="middle" x="672.5" y="-303" font-family="Helvetica,sans-Serif" font-size="10.00" fill="#000000"> param_info</text>
<text text-anchor="middle" x="672.5" y="-292" font-family="Helvetica,sans-Serif" font-size="10.00" fill="#000000">current_results</text>
<text text-anchor="middle" x="672.5" y="-281" font-family="Helvetica,sans-Serif" font-size="10.00" fill="#000000">res_info</text>
<text text-anchor="middle" x="672.5" y="-270" font-family="Helvetica,sans-Serif" font-size="10.00" fill="#000000">comp_info</text>
</g>
<!-- Node9 -->
<g id="node7" class="node">
<title>Node9</title>
<g id="a_node7"><a xlink:href="a01196.html" target="_top" xlink:title="Holds information for a dynamic (also called prepared) query.">
<polygon fill="#ffffff" stroke="#000000" points="542,-200.5 542,-219.5 614,-219.5 614,-200.5 542,-200.5"/>
<text text-anchor="middle" x="578" y="-207.5" font-family="Helvetica,sans-Serif" font-size="10.00" fill="#000000">tds_dynamic</text>
</a>
</g>
</g>
<!-- Node2&#45;&gt;Node9 -->
<g id="edge9" class="edge">
<title>Node2&#45;&gt;Node9</title>
<path fill="none" stroke="#9a32cd" stroke-dasharray="5,2" d="M470.3171,-210C493.5671,-210 520.6523,-210 541.8422,-210"/>
<polygon fill="#9a32cd" stroke="#9a32cd" points="470.2789,-206.5001 460.2789,-210 470.2788,-213.5001 470.2789,-206.5001"/>
<text text-anchor="middle" x="497" y="-224" font-family="Helvetica,sans-Serif" font-size="10.00" fill="#000000"> res_info</text>
<text text-anchor="middle" x="497" y="-213" font-family="Helvetica,sans-Serif" font-size="10.00" fill="#000000">params</text>
</g>
<!-- Node10 -->
<g id="node8" class="node">
<title>Node10</title>
<g id="a_node8"><a xlink:href="a01188.html" target="_top" xlink:title="Holds informations about a cursor.">
<polygon fill="#ffffff" stroke="#ff0000" points="547,-66.5 547,-85.5 609,-85.5 609,-66.5 547,-66.5"/>
<text text-anchor="middle" x="578" y="-73.5" font-family="Helvetica,sans-Serif" font-size="10.00" fill="#000000">tds_cursor</text>
</a>
</g>
</g>
<!-- Node2&#45;&gt;Node10 -->
<g id="edge12" class="edge">
<title>Node2&#45;&gt;Node10</title>
<path fill="none" stroke="#9a32cd" stroke-dasharray="5,2" d="M439.0292,-193.8613C472.2816,-165.6599 539.9699,-108.2534 566.74,-85.5496"/>
<polygon fill="#9a32cd" stroke="#9a32cd" points="436.7257,-191.2256 431.363,-200.3631 441.2534,-196.5642 436.7257,-191.2256"/>
<text text-anchor="middle" x="497" y="-161" font-family="Helvetica,sans-Serif" font-size="10.00" fill="#000000"> res_info</text>
</g>
<!-- Node3&#45;&gt;Node2 -->
<g id="edge2" class="edge">
<title>Node3&#45;&gt;Node2</title>
<path fill="none" stroke="#9a32cd" stroke-dasharray="5,2" d="M887.0859,-255.7681C877.9079,-267.5541 864.3731,-282.3848 849,-291 767.0813,-336.9075 733.4858,-330.8642 640,-322 567.0209,-315.0802 539.7473,-330.5107 478,-291 450.1739,-273.1947 431.5835,-236.8691 423.937,-219.5704"/>
<polygon fill="#9a32cd" stroke="#9a32cd" points="890.0699,-257.6199 893.2134,-247.5021 884.4465,-253.4513 890.0699,-257.6199"/>
<text text-anchor="middle" x="672.5" y="-330" font-family="Helvetica,sans-Serif" font-size="10.00" fill="#000000"> attached_to</text>
</g>
<!-- Node4 -->
<g id="node4" class="node">
<title>Node4</title>
<g id="a_node4"><a xlink:href="a01132.html" target="_top" xlink:title=" ">
<polygon fill="#ffffff" stroke="#ff0000" points="306,-371.5 306,-390.5 362,-390.5 362,-371.5 306,-371.5"/>
<text text-anchor="middle" x="334" y="-378.5" font-family="Helvetica,sans-Serif" font-size="10.00" fill="#000000">tds_login</text>
</a>
</g>
</g>
<!-- Node4&#45;&gt;Node3 -->
<g id="edge3" class="edge">
<title>Node4&#45;&gt;Node3</title>
<path fill="none" stroke="#9a32cd" stroke-dasharray="5,2" d="M372.3738,-384.3159C405.384,-386.8815 454.2915,-390 497,-390 497,-390 497,-390 764.5,-390 841.0887,-390 884.836,-280.7848 896.3877,-247.5083"/>
<polygon fill="#9a32cd" stroke="#9a32cd" points="372.4896,-380.8141 362.2427,-383.507 371.9324,-387.7919 372.4896,-380.8141"/>
<text text-anchor="middle" x="578" y="-393" font-family="Helvetica,sans-Serif" font-size="10.00" fill="#000000"> login</text>
</g>
<!-- Node7 -->
<g id="node5" class="node">
<title>Node7</title>
<g id="a_node5"><a xlink:href="a01268.html" target="_top" xlink:title="Structure to hold a string.">
<polygon fill="#ffffff" stroke="#000000" points="22,-292.5 22,-311.5 74,-311.5 74,-292.5 22,-292.5"/>
<text text-anchor="middle" x="48" y="-299.5" font-family="Helvetica,sans-Serif" font-size="10.00" fill="#000000">tds_dstr</text>
</a>
</g>
</g>
<!-- Node7&#45;&gt;Node4 -->
<g id="edge4" class="edge">
<title>Node7&#45;&gt;Node4</title>
<path fill="none" stroke="#9a32cd" stroke-dasharray="5,2" d="M83.9149,-311.9206C141.5934,-327.8527 253.6805,-358.8138 305.9286,-373.246"/>
<polygon fill="#9a32cd" stroke="#9a32cd" points="84.7097,-308.5091 74.1388,-309.2202 82.8459,-315.2564 84.7097,-308.5091"/>
<text text-anchor="middle" x="158.5" y="-467" font-family="Helvetica,sans-Serif" font-size="10.00" fill="#000000"> server_realm_name</text>
<text text-anchor="middle" x="158.5" y="-456" font-family="Helvetica,sans-Serif" font-size="10.00" fill="#000000">password</text>
<text text-anchor="middle" x="158.5" y="-445" font-family="Helvetica,sans-Serif" font-size="10.00" fill="#000000">server_name</text>
<text text-anchor="middle" x="158.5" y="-434" font-family="Helvetica,sans-Serif" font-size="10.00" fill="#000000">dump_file</text>
<text text-anchor="middle" x="158.5" y="-423" font-family="Helvetica,sans-Serif" font-size="10.00" fill="#000000">library</text>
<text text-anchor="middle" x="158.5" y="-412" font-family="Helvetica,sans-Serif" font-size="10.00" fill="#000000">crlfile</text>
<text text-anchor="middle" x="158.5" y="-401" font-family="Helvetica,sans-Serif" font-size="10.00" fill="#000000">server_spn</text>
<text text-anchor="start" x="114" y="-390" font-family="Helvetica,sans-Serif" font-size="10.00" fill="#000000">client_host</text>
<text text-anchor="middle" x="158.5" y="-379" font-family="Helvetica,sans-Serif" font-size="10.00" fill="#000000">_name</text>
<text text-anchor="middle" x="158.5" y="-368" font-family="Helvetica,sans-Serif" font-size="10.00" fill="#000000">client_charset</text>
<text text-anchor="middle" x="158.5" y="-357" font-family="Helvetica,sans-Serif" font-size="10.00" fill="#000000">openssl_ciphers</text>
<text text-anchor="middle" x="158.5" y="-346" font-family="Helvetica,sans-Serif" font-size="10.00" fill="#000000">...</text>
</g>
<!-- Node22 -->
<g id="node11" class="node">
<title>Node22</title>
<g id="a_node11"><a xlink:href="a01164.html" target="_top" xlink:title="Metadata about columns in regular and compute rows.">
<polygon fill="#ffffff" stroke="#000000" points="221,-200.5 221,-219.5 288,-219.5 288,-200.5 221,-200.5"/>
<text text-anchor="middle" x="254.5" y="-207.5" font-family="Helvetica,sans-Serif" font-size="10.00" fill="#000000">tds_column</text>
</a>
</g>
</g>
<!-- Node7&#45;&gt;Node22 -->
<g id="edge21" class="edge">
<title>Node7&#45;&gt;Node22</title>
<path fill="none" stroke="#9a32cd" stroke-dasharray="5,2" d="M82.3854,-288.5657C114.0427,-275.9657 162.1439,-256.2331 203,-237 214.5086,-231.5823 227.1642,-224.9569 237.0498,-219.6251"/>
<polygon fill="#9a32cd" stroke="#9a32cd" points="80.7231,-285.4596 72.7149,-292.3964 83.301,-291.9676 80.7231,-285.4596"/>
<text text-anchor="middle" x="158.5" y="-300" font-family="Helvetica,sans-Serif" font-size="10.00" fill="#000000"> column_name</text>
<text text-anchor="middle" x="158.5" y="-289" font-family="Helvetica,sans-Serif" font-size="10.00" fill="#000000">table_name</text>
<text text-anchor="middle" x="158.5" y="-278" font-family="Helvetica,sans-Serif" font-size="10.00" fill="#000000">table_column_name</text>
</g>
<!-- Node8 -->
<g id="node6" class="node">
<title>Node8</title>
<g id="a_node6"><a xlink:href="a01212.html" target="_top" xlink:title=" ">
<polygon fill="#ffffff" stroke="#000000" points="545.5,-133.5 545.5,-152.5 610.5,-152.5 610.5,-133.5 545.5,-133.5"/>
<text text-anchor="middle" x="578" y="-140.5" font-family="Helvetica,sans-Serif" font-size="10.00" fill="#000000">tds_packet</text>
</a>
</g>
</g>
<!-- Node8&#45;&gt;Node3 -->
<g id="edge5" class="edge">
<title>Node8&#45;&gt;Node3</title>
<path fill="none" stroke="#9a32cd" stroke-dasharray="5,2" d="M620.7673,-151.3156C627.2111,-152.5575 633.7799,-153.8173 640,-155 713.7322,-169.0198 735.3969,-160.5405 806,-186 836.0533,-196.8372 867.9299,-216.5856 885.6132,-228.3786"/>
<polygon fill="#9a32cd" stroke="#9a32cd" points="621.2949,-147.8529 610.8125,-149.3925 619.967,-154.7258 621.2949,-147.8529"/>
<text text-anchor="middle" x="764.5" y="-211" font-family="Helvetica,sans-Serif" font-size="10.00" fill="#000000"> frozen_packets</text>
<text text-anchor="middle" x="764.5" y="-200" font-family="Helvetica,sans-Serif" font-size="10.00" fill="#000000">recv_packet</text>
<text text-anchor="middle" x="764.5" y="-189" font-family="Helvetica,sans-Serif" font-size="10.00" fill="#000000">send_packet</text>
</g>
<!-- Node8&#45;&gt;Node8 -->
<g id="edge6" class="edge">
<title>Node8&#45;&gt;Node8</title>
<path fill="none" stroke="#9a32cd" stroke-dasharray="5,2" d="M563.2675,-162.7663C564.4246,-167.4965 569.3354,-171 578,-171 592.2188,-171 596.3289,-161.5653 590.3303,-152.7571"/>
<polygon fill="#9a32cd" stroke="#9a32cd" points="566.7393,-163.2978 565.6697,-152.7571 559.9326,-161.6641 566.7393,-163.2978"/>
<text text-anchor="middle" x="578" y="-174" font-family="Helvetica,sans-Serif" font-size="10.00" fill="#000000"> next</text>
</g>
<!-- Node12 -->
<g id="node9" class="node">
<title>Node12</title>
<g id="a_node9"><a xlink:href="a01220.html" target="_top" xlink:title=" ">
<polygon fill="#ffffff" stroke="#ff0000" points="723,-99.5 723,-118.5 806,-118.5 806,-99.5 723,-99.5"/>
<text text-anchor="middle" x="764.5" y="-106.5" font-family="Helvetica,sans-Serif" font-size="10.00" fill="#000000">tds_connection</text>
</a>
</g>
</g>
<!-- Node8&#45;&gt;Node12 -->
<g id="edge15" class="edge">
<title>Node8&#45;&gt;Node12</title>
<path fill="none" stroke="#9a32cd" stroke-dasharray="5,2" d="M612.4653,-129.1298C615.7445,-127.5098 618.9723,-125.7917 622,-124 630.7222,-118.8386 630.427,-113.3276 640,-110 666.5421,-100.7739 698.2326,-100.6602 722.9982,-102.7833"/>
<polygon fill="#9a32cd" stroke="#9a32cd" points="610.8145,-126.0371 603.2109,-133.4151 613.7559,-132.3891 610.8145,-126.0371"/>
<text text-anchor="middle" x="672.5" y="-113" font-family="Helvetica,sans-Serif" font-size="10.00" fill="#000000"> packet_cache</text>
</g>
<!-- Node9&#45;&gt;Node3 -->
<g id="edge7" class="edge">
<title>Node9&#45;&gt;Node3</title>
<path fill="none" stroke="#9a32cd" stroke-dasharray="5,2" d="M624.354,-214.037C690.2326,-219.7745 809.3088,-230.1451 866.7543,-235.1481"/>
<polygon fill="#9a32cd" stroke="#9a32cd" points="624.5212,-210.5384 614.2552,-213.1575 623.9138,-217.5121 624.5212,-210.5384"/>
<text text-anchor="middle" x="764.5" y="-232" font-family="Helvetica,sans-Serif" font-size="10.00" fill="#000000"> cur_dyn</text>
</g>
<!-- Node9&#45;&gt;Node9 -->
<g id="edge8" class="edge">
<title>Node9&#45;&gt;Node9</title>
<path fill="none" stroke="#9a32cd" stroke-dasharray="5,2" d="M563.2675,-229.7663C564.4246,-234.4965 569.3354,-238 578,-238 592.2188,-238 596.3289,-228.5653 590.3303,-219.7571"/>
<polygon fill="#9a32cd" stroke="#9a32cd" points="566.7393,-230.2978 565.6697,-219.7571 559.9326,-228.6641 566.7393,-230.2978"/>
<text text-anchor="middle" x="578" y="-241" font-family="Helvetica,sans-Serif" font-size="10.00" fill="#000000"> next</text>
</g>
<!-- Node9&#45;&gt;Node12 -->
<g id="edge16" class="edge">
<title>Node9&#45;&gt;Node12</title>
<path fill="none" stroke="#9a32cd" stroke-dasharray="5,2" d="M610.8396,-196.3131C614.6321,-194.587 618.4207,-192.7953 622,-191 669.4557,-167.1979 723.1771,-134.696 749.0078,-118.7012"/>
<polygon fill="#9a32cd" stroke="#9a32cd" points="609.2514,-193.1884 601.5206,-200.4331 612.0819,-199.5906 609.2514,-193.1884"/>
<text text-anchor="middle" x="672.5" y="-183" font-family="Helvetica,sans-Serif" font-size="10.00" fill="#000000"> dyns</text>
</g>
<!-- Node10&#45;&gt;Node3 -->
<g id="edge11" class="edge">
<title>Node10&#45;&gt;Node3</title>
<path fill="none" stroke="#9a32cd" stroke-dasharray="5,2" d="M619.1247,-66.2095C666.8509,-57.0953 746.5905,-48.9665 806,-79 866.5873,-109.629 890.9483,-198.5695 897.5326,-228.238"/>
<polygon fill="#9a32cd" stroke="#9a32cd" points="618.2688,-62.8115 609.1567,-68.217 619.6509,-69.6737 618.2688,-62.8115"/>
<text text-anchor="middle" x="764.5" y="-82" font-family="Helvetica,sans-Serif" font-size="10.00" fill="#000000"> cur_cursor</text>
</g>
<!-- Node10&#45;&gt;Node10 -->
<g id="edge13" class="edge">
<title>Node10&#45;&gt;Node10</title>
<path fill="none" stroke="#9a32cd" stroke-dasharray="5,2" d="M563.2675,-95.7663C564.4246,-100.4965 569.3354,-104 578,-104 592.2188,-104 596.3289,-94.5653 590.3303,-85.7571"/>
<polygon fill="#9a32cd" stroke="#9a32cd" points="566.7393,-96.2978 565.6697,-85.7571 559.9326,-94.6641 566.7393,-96.2978"/>
<text text-anchor="middle" x="578" y="-107" font-family="Helvetica,sans-Serif" font-size="10.00" fill="#000000"> next</text>
</g>
<!-- Node10&#45;&gt;Node12 -->
<g id="edge18" class="edge">
<title>Node10&#45;&gt;Node12</title>
<path fill="none" stroke="#9a32cd" stroke-dasharray="5,2" d="M619.3756,-70.8168C644.5302,-68.9339 677.0772,-68.7751 705,-76 722.3822,-80.4976 740.0991,-91.2881 751.6254,-99.3131"/>
<polygon fill="#9a32cd" stroke="#9a32cd" points="618.7414,-67.3587 609.0826,-71.7129 619.3485,-74.3323 618.7414,-67.3587"/>
<text text-anchor="middle" x="672.5" y="-79" font-family="Helvetica,sans-Serif" font-size="10.00" fill="#000000"> cursors</text>
</g>
<!-- Node12&#45;&gt;Node3 -->
<g id="edge14" class="edge">
<title>Node12&#45;&gt;Node3</title>
<path fill="none" stroke="#9a32cd" stroke-dasharray="5,2" d="M811.9403,-122.0919C825.0156,-127.3509 838.481,-134.4865 849,-144 875.6549,-168.107 890.9121,-209.6591 896.7389,-228.372"/>
<polygon fill="#9a32cd" stroke="#9a32cd" points="813.1289,-118.7998 802.5362,-118.5872 810.6843,-125.3591 813.1289,-118.7998"/>
<text text-anchor="middle" x="836.5" y="-147" font-family="Helvetica,sans-Serif" font-size="10.00" fill="#000000"> conn</text>
</g>
<!-- Node18 -->
<g id="node10" class="node">
<title>Node18</title>
<g id="a_node10"><a xlink:href="a00980.html" target="_top" xlink:title=" ">
<polygon fill="#ffffff" stroke="#ff0000" points="13.5,-57.5 13.5,-76.5 82.5,-76.5 82.5,-57.5 13.5,-57.5"/>
<text text-anchor="middle" x="48" y="-64.5" font-family="Helvetica,sans-Serif" font-size="10.00" fill="#000000">tdsiconvinfo</text>
</a>
</g>
</g>
<!-- Node18&#45;&gt;Node12 -->
<g id="edge17" class="edge">
<title>Node18&#45;&gt;Node12</title>
<path fill="none" stroke="#9a32cd" stroke-dasharray="5,2" d="M74.0051,-52.7141C112.3219,-33.0376 186.7454,0 254.5,0 254.5,0 254.5,0 578,0 604.978,0 693.68,-55.2978 705,-66 715.7502,-76.1635 711.4331,-84.7767 723,-94 725.5158,-96.006 728.3231,-97.7576 731.2585,-99.2842"/>
<polygon fill="#9a32cd" stroke="#9a32cd" points="72.2985,-49.6569 65.0675,-57.4005 75.5492,-55.8564 72.2985,-49.6569"/>
<text text-anchor="middle" x="420" y="-3" font-family="Helvetica,sans-Serif" font-size="10.00" fill="#000000"> char_convs</text>
</g>
<!-- Node18&#45;&gt;Node22 -->
<g id="edge20" class="edge">
<title>Node18&#45;&gt;Node22</title>
<path fill="none" stroke="#9a32cd" stroke-dasharray="5,2" d="M70.199,-82.3726C112.9634,-111.9868 205.6362,-176.1621 240.6907,-200.4371"/>
<polygon fill="#9a32cd" stroke="#9a32cd" points="72.0835,-79.4204 61.8697,-76.6047 68.0983,-85.1753 72.0835,-79.4204"/>
<text text-anchor="middle" x="158.5" y="-174" font-family="Helvetica,sans-Serif" font-size="10.00" fill="#000000"> char_conv</text>
</g>
<!-- Node22&#45;&gt;Node2 -->
<g id="edge19" class="edge">
<title>Node22&#45;&gt;Node2</title>
<path fill="none" stroke="#9a32cd" stroke-dasharray="5,2" d="M298.4334,-210C323.671,-210 355.137,-210 379.7324,-210"/>
<polygon fill="#9a32cd" stroke="#9a32cd" points="298.3908,-206.5001 288.3908,-210 298.3907,-213.5001 298.3908,-206.5001"/>
<text text-anchor="middle" x="334" y="-213" font-family="Helvetica,sans-Serif" font-size="10.00" fill="#000000"> columns</text>
</g>
<!-- Node23 -->
<g id="node12" class="node">
<title>Node23</title>
<g id="a_node12"><a xlink:href="a01160.html" target="_top" xlink:title=" ">
<polygon fill="#ffffff" stroke="#000000" points="0,-219.5 0,-238.5 96,-238.5 96,-219.5 0,-219.5"/>
<text text-anchor="middle" x="48" y="-226.5" font-family="Helvetica,sans-Serif" font-size="10.00" fill="#000000">tds_column_funcs</text>
</a>
</g>
</g>
<!-- Node23&#45;&gt;Node22 -->
<g id="edge22" class="edge">
<title>Node23&#45;&gt;Node22</title>
<path fill="none" stroke="#9a32cd" stroke-dasharray="5,2" d="M106.3127,-223.6347C143.3009,-220.2314 189.8484,-215.9486 220.8046,-213.1003"/>
<polygon fill="#9a32cd" stroke="#9a32cd" points="105.7917,-220.1677 96.1545,-224.5693 106.4331,-227.1383 105.7917,-220.1677"/>
<text text-anchor="middle" x="158.5" y="-225" font-family="Helvetica,sans-Serif" font-size="10.00" fill="#000000"> funcs</text>
</g>
<!-- Node24 -->
<g id="node13" class="node">
<title>Node24</title>
<g id="a_node13"><a xlink:href="a01156.html" target="_top" xlink:title=" ">
<polygon fill="#ffffff" stroke="#000000" points="6.5,-181.5 6.5,-200.5 89.5,-200.5 89.5,-181.5 6.5,-181.5"/>
<text text-anchor="middle" x="48" y="-188.5" font-family="Helvetica,sans-Serif" font-size="10.00" fill="#000000">tds_bcpcoldata</text>
</a>
</g>
</g>
<!-- Node24&#45;&gt;Node22 -->
<g id="edge23" class="edge">
<title>Node24&#45;&gt;Node22</title>
<path fill="none" stroke="#9a32cd" stroke-dasharray="5,2" d="M99.8828,-192.2788C130.0659,-193.4549 168.7882,-195.7048 203,-200 208.7837,-200.7261 214.8943,-201.7142 220.8069,-202.7878"/>
<polygon fill="#9a32cd" stroke="#9a32cd" points="99.7042,-188.7701 89.5841,-191.906 99.4509,-195.7656 99.7042,-188.7701"/>
<text text-anchor="middle" x="158.5" y="-203" font-family="Helvetica,sans-Serif" font-size="10.00" fill="#000000"> bcp_column_data</text>
</g>
</g>
</svg>
