<?xml version="1.0" encoding="UTF-8" standalone="no"?>
<!DOCTYPE svg PUBLIC "-//W3C//DTD SVG 1.1//EN"
 "http://www.w3.org/Graphics/SVG/1.1/DTD/svg11.dtd">
<!-- Generated by graphviz version 2.40.1 (20161225.0304)
 -->
<!-- Title: conf_params Pages: 1 -->
<svg width="234pt" height="231pt"
 viewBox="0.00 0.00 233.50 231.00" xmlns="http://www.w3.org/2000/svg" xmlns:xlink="http://www.w3.org/1999/xlink">
<g id="graph0" class="graph" transform="scale(1 1) rotate(0) translate(4 227)">
<title>conf_params</title>
<polygon fill="#ffffff" stroke="transparent" points="-4,4 -4,-227 229.5,-227 229.5,4 -4,4"/>
<!-- Node1 -->
<g id="node1" class="node">
<title>Node1</title>
<g id="a_node1"><a xlink:title=" ">
<polygon fill="#bfbfbf" stroke="#000000" points="44.5,-.5 44.5,-19.5 117.5,-19.5 117.5,-.5 44.5,-.5"/>
<text text-anchor="middle" x="81" y="-7.5" font-family="Helvetica,sans-Serif" font-size="10.00" fill="#000000">conf_params</text>
</a>
</g>
</g>
<!-- Node2 -->
<g id="node2" class="node">
<title>Node2</title>
<g id="a_node2"><a xlink:href="a00696.html" target="_top" xlink:title=" ">
<polygon fill="#ffffff" stroke="#000000" points="54.5,-67.5 54.5,-86.5 107.5,-86.5 107.5,-67.5 54.5,-67.5"/>
<text text-anchor="middle" x="81" y="-74.5" font-family="Helvetica,sans-Serif" font-size="10.00" fill="#000000">tds_pool</text>
</a>
</g>
</g>
<!-- Node2&#45;&gt;Node1 -->
<g id="edge1" class="edge">
<title>Node2&#45;&gt;Node1</title>
<path fill="none" stroke="#9a32cd" stroke-dasharray="5,2" d="M81,-57.1079C81,-44.714 81,-29.3263 81,-19.5817"/>
<polygon fill="#9a32cd" stroke="#9a32cd" points="77.5001,-57.4005 81,-67.4005 84.5001,-57.4006 77.5001,-57.4005"/>
<text text-anchor="middle" x="92" y="-41" font-family="Helvetica,sans-Serif" font-size="10.00" fill="#000000"> pool</text>
</g>
<!-- Node3 -->
<g id="node3" class="node">
<title>Node3</title>
<g id="a_node3"><a xlink:href="a01204.html" target="_top" xlink:title=" ">
<polygon fill="#ffffff" stroke="#000000" points="0,-135.5 0,-154.5 68,-154.5 68,-135.5 0,-135.5"/>
<text text-anchor="middle" x="34" y="-142.5" font-family="Helvetica,sans-Serif" font-size="10.00" fill="#000000">tds_context</text>
</a>
</g>
</g>
<!-- Node3&#45;&gt;Node2 -->
<g id="edge2" class="edge">
<title>Node3&#45;&gt;Node2</title>
<path fill="none" stroke="#9a32cd" stroke-dasharray="5,2" d="M46.6407,-126.7114C55.5366,-113.8406 67.094,-97.1194 74.2785,-86.7247"/>
<polygon fill="#9a32cd" stroke="#9a32cd" points="43.5406,-125.0409 40.734,-135.2573 49.299,-129.021 43.5406,-125.0409"/>
<text text-anchor="middle" x="69.5" y="-108" font-family="Helvetica,sans-Serif" font-size="10.00" fill="#000000"> ctx</text>
</g>
<!-- Node4 -->
<g id="node4" class="node">
<title>Node4</title>
<g id="a_node4"><a xlink:href="a01140.html" target="_top" xlink:title=" ">
<polygon fill="#ffffff" stroke="#000000" points="3.5,-203.5 3.5,-222.5 64.5,-222.5 64.5,-203.5 3.5,-203.5"/>
<text text-anchor="middle" x="34" y="-210.5" font-family="Helvetica,sans-Serif" font-size="10.00" fill="#000000">tds_locale</text>
</a>
</g>
</g>
<!-- Node4&#45;&gt;Node3 -->
<g id="edge3" class="edge">
<title>Node4&#45;&gt;Node3</title>
<path fill="none" stroke="#9a32cd" stroke-dasharray="5,2" d="M34,-193.1951C34,-180.5514 34,-164.7157 34,-154.7247"/>
<polygon fill="#9a32cd" stroke="#9a32cd" points="30.5001,-193.2572 34,-203.2573 37.5001,-193.2573 30.5001,-193.2572"/>
<text text-anchor="middle" x="48.5" y="-177" font-family="Helvetica,sans-Serif" font-size="10.00" fill="#000000"> locale</text>
</g>
<!-- Node5 -->
<g id="node5" class="node">
<title>Node5</title>
<g id="a_node5"><a xlink:href="a00680.html" target="_top" xlink:title=" ">
<polygon fill="#ffffff" stroke="#000000" points="86.5,-135.5 86.5,-154.5 169.5,-154.5 169.5,-135.5 86.5,-135.5"/>
<text text-anchor="middle" x="128" y="-142.5" font-family="Helvetica,sans-Serif" font-size="10.00" fill="#000000">tds_pool_event</text>
</a>
</g>
</g>
<!-- Node5&#45;&gt;Node2 -->
<g id="edge4" class="edge">
<title>Node5&#45;&gt;Node2</title>
<path fill="none" stroke="#9a32cd" stroke-dasharray="5,2" d="M115.3593,-126.7114C106.4634,-113.8406 94.906,-97.1194 87.7215,-86.7247"/>
<polygon fill="#9a32cd" stroke="#9a32cd" points="112.701,-129.021 121.266,-135.2573 118.4594,-125.0409 112.701,-129.021"/>
<text text-anchor="middle" x="123.5" y="-108" font-family="Helvetica,sans-Serif" font-size="10.00" fill="#000000"> events</text>
</g>
<!-- Node5&#45;&gt;Node5 -->
<g id="edge5" class="edge">
<title>Node5&#45;&gt;Node5</title>
<path fill="none" stroke="#9a32cd" stroke-dasharray="5,2" d="M179.819,-150.0661C184.5342,-149.0129 187.5,-147.3242 187.5,-145 187.5,-141.2813 179.9076,-139.1895 169.7052,-138.7246"/>
<polygon fill="#9a32cd" stroke="#9a32cd" points="179.2189,-146.6128 169.7052,-151.2754 180.05,-153.5633 179.2189,-146.6128"/>
<text text-anchor="middle" x="206.5" y="-148" font-family="Helvetica,sans-Serif" font-size="10.00" fill="#000000"> execute</text>
<text text-anchor="middle" x="206.5" y="-137" font-family="Helvetica,sans-Serif" font-size="10.00" fill="#000000">next</text>
</g>
</g>
</svg>
