<?xml version="1.0" encoding="UTF-8" standalone="no"?>
<!DOCTYPE svg PUBLIC "-//W3C//DTD SVG 1.1//EN"
 "http://www.w3.org/Graphics/SVG/1.1/DTD/svg11.dtd">
<!-- Generated by graphviz version 2.40.1 (20161225.0304)
 -->
<!-- Title: dblib_context Pages: 1 -->
<svg width="1009pt" height="441pt"
 viewBox="0.00 0.00 1009.00 441.00" xmlns="http://www.w3.org/2000/svg" xmlns:xlink="http://www.w3.org/1999/xlink">
<g id="graph0" class="graph" transform="scale(1 1) rotate(0) translate(4 437)">
<title>dblib_context</title>
<polygon fill="#ffffff" stroke="transparent" points="-4,4 -4,-437 1005,-437 1005,4 -4,4"/>
<!-- Node1 -->
<g id="node1" class="node">
<title>Node1</title>
<g id="a_node1"><a xlink:title=" ">
<polygon fill="#bfbfbf" stroke="#000000" points="563.5,-153.5 563.5,-172.5 637.5,-172.5 637.5,-153.5 563.5,-153.5"/>
<text text-anchor="middle" x="600.5" y="-160.5" font-family="Helvetica,sans-Serif" font-size="10.00" fill="#000000">dblib_context</text>
</a>
</g>
</g>
<!-- Node2 -->
<g id="node2" class="node">
<title>Node2</title>
<g id="a_node2"><a xlink:href="a01224.html" target="_top" xlink:title="Information for a server connection.">
<polygon fill="#ffffff" stroke="#000000" points="381.5,-241.5 381.5,-260.5 446.5,-260.5 446.5,-241.5 381.5,-241.5"/>
<text text-anchor="middle" x="414" y="-248.5" font-family="Helvetica,sans-Serif" font-size="10.00" fill="#000000">tds_socket</text>
</a>
</g>
</g>
<!-- Node2&#45;&gt;Node1 -->
<g id="edge1" class="edge">
<title>Node2&#45;&gt;Node1</title>
<path fill="none" stroke="#9a32cd" stroke-dasharray="5,2" d="M425.6955,-232.7857C435.0412,-219.7236 449.3109,-202.7711 466,-193 482.2589,-183.4808 529.4218,-174.3193 563.308,-168.6785"/>
<polygon fill="#9a32cd" stroke="#9a32cd" points="422.7874,-230.8379 420.0428,-241.0711 428.5699,-234.783 422.7874,-230.8379"/>
<text text-anchor="middle" x="500.5" y="-196" font-family="Helvetica,sans-Serif" font-size="10.00" fill="#000000"> connection_list</text>
</g>
<!-- Node9 -->
<g id="node8" class="node">
<title>Node9</title>
<g id="a_node8"><a xlink:href="a01172.html" target="_top" xlink:title="Hold information for any results.">
<polygon fill="#ffffff" stroke="#ff0000" points="560.5,-283.5 560.5,-302.5 640.5,-302.5 640.5,-283.5 560.5,-283.5"/>
<text text-anchor="middle" x="600.5" y="-290.5" font-family="Helvetica,sans-Serif" font-size="10.00" fill="#000000">tds_result_info</text>
</a>
</g>
</g>
<!-- Node2&#45;&gt;Node9 -->
<g id="edge10" class="edge">
<title>Node2&#45;&gt;Node9</title>
<path fill="none" stroke="#9a32cd" stroke-dasharray="5,2" d="M428.2665,-268.4432C437.755,-278.6047 451.1697,-290.474 466,-296 496.2033,-307.2543 532.9278,-305.5032 560.3661,-301.4979"/>
<polygon fill="#9a32cd" stroke="#9a32cd" points="430.7827,-266.0046 421.5466,-260.8138 425.5298,-270.6314 430.7827,-266.0046"/>
<text text-anchor="middle" x="500.5" y="-307" font-family="Helvetica,sans-Serif" font-size="10.00" fill="#000000"> attached_to</text>
</g>
<!-- Node3 -->
<g id="node3" class="node">
<title>Node3</title>
<g id="a_node3"><a xlink:href="a01132.html" target="_top" xlink:title=" ">
<polygon fill="#ffffff" stroke="#000000" points="213.5,-241.5 213.5,-260.5 269.5,-260.5 269.5,-241.5 213.5,-241.5"/>
<text text-anchor="middle" x="241.5" y="-248.5" font-family="Helvetica,sans-Serif" font-size="10.00" fill="#000000">tds_login</text>
</a>
</g>
</g>
<!-- Node3&#45;&gt;Node2 -->
<g id="edge2" class="edge">
<title>Node3&#45;&gt;Node2</title>
<path fill="none" stroke="#9a32cd" stroke-dasharray="5,2" d="M279.8325,-251C310.2528,-251 352.3227,-251 381.1989,-251"/>
<polygon fill="#9a32cd" stroke="#9a32cd" points="279.5991,-247.5001 269.599,-251 279.599,-254.5001 279.5991,-247.5001"/>
<text text-anchor="middle" x="327" y="-254" font-family="Helvetica,sans-Serif" font-size="10.00" fill="#000000"> login</text>
</g>
<!-- Node4 -->
<g id="node4" class="node">
<title>Node4</title>
<g id="a_node4"><a xlink:href="a01128.html" target="_top" xlink:title=" ">
<polygon fill="#ffffff" stroke="#ff0000" points="0,-399.5 0,-418.5 84,-418.5 84,-399.5 0,-399.5"/>
<text text-anchor="middle" x="42" y="-406.5" font-family="Helvetica,sans-Serif" font-size="10.00" fill="#000000">tds_capabilities</text>
</a>
</g>
</g>
<!-- Node4&#45;&gt;Node3 -->
<g id="edge3" class="edge">
<title>Node4&#45;&gt;Node3</title>
<path fill="none" stroke="#9a32cd" stroke-dasharray="5,2" d="M94.2933,-397.8985C135.6851,-388.9243 187.1704,-377.2648 191,-374 226.6601,-343.5985 237.5199,-284.0696 240.488,-260.7239"/>
<polygon fill="#9a32cd" stroke="#9a32cd" points="93.3292,-394.526 84.2929,-400.0574 94.8063,-401.3683 93.3292,-394.526"/>
<text text-anchor="middle" x="146.5" y="-398" font-family="Helvetica,sans-Serif" font-size="10.00" fill="#000000"> capabilities</text>
</g>
<!-- Node19 -->
<g id="node11" class="node">
<title>Node19</title>
<g id="a_node11"><a xlink:href="a01220.html" target="_top" xlink:title=" ">
<polygon fill="#ffffff" stroke="#000000" points="918,-171.5 918,-190.5 1001,-190.5 1001,-171.5 918,-171.5"/>
<text text-anchor="middle" x="959.5" y="-178.5" font-family="Helvetica,sans-Serif" font-size="10.00" fill="#000000">tds_connection</text>
</a>
</g>
</g>
<!-- Node4&#45;&gt;Node19 -->
<g id="edge17" class="edge">
<title>Node4&#45;&gt;Node19</title>
<path fill="none" stroke="#9a32cd" stroke-dasharray="5,2" d="M94.4714,-414.29C134.6692,-417.8886 191.5304,-422 241.5,-422 241.5,-422 241.5,-422 770,-422 839.5225,-422 856.5632,-389.2829 900,-335 937.0692,-288.6747 953.0931,-216.5772 957.8691,-190.6746"/>
<polygon fill="#9a32cd" stroke="#9a32cd" points="94.6457,-410.7914 84.3682,-413.365 94.0074,-417.7623 94.6457,-410.7914"/>
<text text-anchor="middle" x="500.5" y="-425" font-family="Helvetica,sans-Serif" font-size="10.00" fill="#000000"> capabilities</text>
</g>
<!-- Node6 -->
<g id="node5" class="node">
<title>Node6</title>
<g id="a_node5"><a xlink:href="a01268.html" target="_top" xlink:title="Structure to hold a string.">
<polygon fill="#ffffff" stroke="#000000" points="16,-231.5 16,-250.5 68,-250.5 68,-231.5 16,-231.5"/>
<text text-anchor="middle" x="42" y="-238.5" font-family="Helvetica,sans-Serif" font-size="10.00" fill="#000000">tds_dstr</text>
</a>
</g>
</g>
<!-- Node6&#45;&gt;Node3 -->
<g id="edge4" class="edge">
<title>Node6&#45;&gt;Node3</title>
<path fill="none" stroke="#9a32cd" stroke-dasharray="5,2" d="M78.2511,-239.5305C108.4749,-238.7157 152.6327,-238.4781 191,-242 198.2719,-242.6675 206.0666,-243.8308 213.303,-245.1038"/>
<polygon fill="#9a32cd" stroke="#9a32cd" points="78.0628,-236.0345 68.1741,-239.8375 78.276,-243.0313 78.0628,-236.0345"/>
<text text-anchor="middle" x="146.5" y="-366" font-family="Helvetica,sans-Serif" font-size="10.00" fill="#000000"> server_realm_name</text>
<text text-anchor="middle" x="146.5" y="-355" font-family="Helvetica,sans-Serif" font-size="10.00" fill="#000000">password</text>
<text text-anchor="middle" x="146.5" y="-344" font-family="Helvetica,sans-Serif" font-size="10.00" fill="#000000">server_name</text>
<text text-anchor="middle" x="146.5" y="-333" font-family="Helvetica,sans-Serif" font-size="10.00" fill="#000000">dump_file</text>
<text text-anchor="middle" x="146.5" y="-322" font-family="Helvetica,sans-Serif" font-size="10.00" fill="#000000">library</text>
<text text-anchor="middle" x="146.5" y="-311" font-family="Helvetica,sans-Serif" font-size="10.00" fill="#000000">crlfile</text>
<text text-anchor="middle" x="146.5" y="-300" font-family="Helvetica,sans-Serif" font-size="10.00" fill="#000000">server_spn</text>
<text text-anchor="start" x="102" y="-289" font-family="Helvetica,sans-Serif" font-size="10.00" fill="#000000">client_host</text>
<text text-anchor="middle" x="146.5" y="-278" font-family="Helvetica,sans-Serif" font-size="10.00" fill="#000000">_name</text>
<text text-anchor="middle" x="146.5" y="-267" font-family="Helvetica,sans-Serif" font-size="10.00" fill="#000000">client_charset</text>
<text text-anchor="middle" x="146.5" y="-256" font-family="Helvetica,sans-Serif" font-size="10.00" fill="#000000">openssl_ciphers</text>
<text text-anchor="middle" x="146.5" y="-245" font-family="Helvetica,sans-Serif" font-size="10.00" fill="#000000">...</text>
</g>
<!-- Node7 -->
<g id="node6" class="node">
<title>Node7</title>
<g id="a_node6"><a xlink:href="a01212.html" target="_top" xlink:title=" ">
<polygon fill="#ffffff" stroke="#000000" points="209,-125.5 209,-144.5 274,-144.5 274,-125.5 209,-125.5"/>
<text text-anchor="middle" x="241.5" y="-132.5" font-family="Helvetica,sans-Serif" font-size="10.00" fill="#000000">tds_packet</text>
</a>
</g>
</g>
<!-- Node7&#45;&gt;Node2 -->
<g id="edge5" class="edge">
<title>Node7&#45;&gt;Node2</title>
<path fill="none" stroke="#9a32cd" stroke-dasharray="5,2" d="M265.054,-150.0649C289.4726,-165.7707 328.6665,-191.2264 362,-214 375.3569,-223.1255 390.3919,-233.8767 400.8465,-241.4312"/>
<polygon fill="#9a32cd" stroke="#9a32cd" points="266.7677,-147.006 256.4618,-144.5488 262.986,-152.8966 266.7677,-147.006"/>
<text text-anchor="middle" x="327" y="-239" font-family="Helvetica,sans-Serif" font-size="10.00" fill="#000000"> frozen_packets</text>
<text text-anchor="middle" x="327" y="-228" font-family="Helvetica,sans-Serif" font-size="10.00" fill="#000000">recv_packet</text>
<text text-anchor="middle" x="327" y="-217" font-family="Helvetica,sans-Serif" font-size="10.00" fill="#000000">send_packet</text>
</g>
<!-- Node7&#45;&gt;Node7 -->
<g id="edge6" class="edge">
<title>Node7&#45;&gt;Node7</title>
<path fill="none" stroke="#9a32cd" stroke-dasharray="5,2" d="M226.0309,-154.7663C227.2459,-159.4965 232.4022,-163 241.5,-163 256.4297,-163 260.7453,-153.5653 254.4468,-144.7571"/>
<polygon fill="#9a32cd" stroke="#9a32cd" points="229.5034,-155.3092 228.5532,-144.7571 222.7156,-153.5986 229.5034,-155.3092"/>
<text text-anchor="middle" x="241.5" y="-166" font-family="Helvetica,sans-Serif" font-size="10.00" fill="#000000"> next</text>
</g>
<!-- Node7&#45;&gt;Node19 -->
<g id="edge22" class="edge">
<title>Node7&#45;&gt;Node19</title>
<path fill="none" stroke="#9a32cd" stroke-dasharray="5,2" d="M270.6907,-121.3543C304.4324,-106.8555 362.0041,-86 414,-86 414,-86 414,-86 770,-86 831.1414,-86 846.8207,-100.8298 900,-131 919.7161,-142.1855 939.1793,-160.2233 950.2306,-171.3025"/>
<polygon fill="#9a32cd" stroke="#9a32cd" points="269.1643,-118.2021 261.4234,-125.436 271.9859,-124.6083 269.1643,-118.2021"/>
<text text-anchor="middle" x="600.5" y="-89" font-family="Helvetica,sans-Serif" font-size="10.00" fill="#000000"> packet_cache</text>
</g>
<!-- Node8 -->
<g id="node7" class="node">
<title>Node8</title>
<g id="a_node7"><a xlink:href="a01196.html" target="_top" xlink:title="Holds information for a dynamic (also called prepared) query.">
<polygon fill="#ffffff" stroke="#000000" points="734,-299.5 734,-318.5 806,-318.5 806,-299.5 734,-299.5"/>
<text text-anchor="middle" x="770" y="-306.5" font-family="Helvetica,sans-Serif" font-size="10.00" fill="#000000">tds_dynamic</text>
</a>
</g>
</g>
<!-- Node8&#45;&gt;Node2 -->
<g id="edge7" class="edge">
<title>Node8&#45;&gt;Node2</title>
<path fill="none" stroke="#9a32cd" stroke-dasharray="5,2" d="M732.1518,-321.5094C671.9243,-339.0521 552.2753,-364.076 466,-319 441.4996,-306.1993 425.1509,-276.1029 418.0421,-260.601"/>
<polygon fill="#9a32cd" stroke="#9a32cd" points="733.4192,-324.7833 741.99,-318.5549 731.4058,-318.0791 733.4192,-324.7833"/>
<text text-anchor="middle" x="600.5" y="-347" font-family="Helvetica,sans-Serif" font-size="10.00" fill="#000000"> cur_dyn</text>
</g>
<!-- Node8&#45;&gt;Node8 -->
<g id="edge8" class="edge">
<title>Node8&#45;&gt;Node8</title>
<path fill="none" stroke="#9a32cd" stroke-dasharray="5,2" d="M754.5309,-328.7663C755.7459,-333.4965 760.9022,-337 770,-337 784.9297,-337 789.2453,-327.5653 782.9468,-318.7571"/>
<polygon fill="#9a32cd" stroke="#9a32cd" points="758.0034,-329.3092 757.0532,-318.7571 751.2156,-327.5986 758.0034,-329.3092"/>
<text text-anchor="middle" x="770" y="-340" font-family="Helvetica,sans-Serif" font-size="10.00" fill="#000000"> next</text>
</g>
<!-- Node8&#45;&gt;Node19 -->
<g id="edge23" class="edge">
<title>Node8&#45;&gt;Node19</title>
<path fill="none" stroke="#9a32cd" stroke-dasharray="5,2" d="M800.9173,-295.0699C806.6186,-292.4331 812.5047,-289.6651 818,-287 854.8426,-269.1321 867.3432,-269.7018 900,-245 921.5373,-228.7091 941.8901,-204.1313 952.2932,-190.6666"/>
<polygon fill="#9a32cd" stroke="#9a32cd" points="799.2301,-291.9931 791.5986,-299.3424 802.1475,-298.3562 799.2301,-291.9931"/>
<text text-anchor="middle" x="868" y="-281" font-family="Helvetica,sans-Serif" font-size="10.00" fill="#000000"> dyns</text>
</g>
<!-- Node9&#45;&gt;Node2 -->
<g id="edge11" class="edge">
<title>Node9&#45;&gt;Node2</title>
<path fill="none" stroke="#9a32cd" stroke-dasharray="5,2" d="M570.944,-278.6875C564.7878,-275.2008 558.5032,-271.2414 553,-267 543.7866,-259.8992 545.6857,-252.5962 535,-248 507.01,-235.9606 471.9087,-238.522 446.7315,-243.0067"/>
<polygon fill="#9a32cd" stroke="#9a32cd" points="569.3013,-281.7781 579.7656,-283.4356 572.6189,-275.6142 569.3013,-281.7781"/>
<text text-anchor="middle" x="500.5" y="-284" font-family="Helvetica,sans-Serif" font-size="10.00" fill="#000000"> param_info</text>
<text text-anchor="middle" x="500.5" y="-273" font-family="Helvetica,sans-Serif" font-size="10.00" fill="#000000">current_results</text>
<text text-anchor="middle" x="500.5" y="-262" font-family="Helvetica,sans-Serif" font-size="10.00" fill="#000000">res_info</text>
<text text-anchor="middle" x="500.5" y="-251" font-family="Helvetica,sans-Serif" font-size="10.00" fill="#000000">comp_info</text>
</g>
<!-- Node9&#45;&gt;Node8 -->
<g id="edge9" class="edge">
<title>Node9&#45;&gt;Node8</title>
<path fill="none" stroke="#9a32cd" stroke-dasharray="5,2" d="M650.9661,-297.7638C677.6241,-300.2802 709.7253,-303.3103 733.8702,-305.5895"/>
<polygon fill="#9a32cd" stroke="#9a32cd" points="650.9538,-294.2471 640.6691,-296.7918 650.2959,-301.2161 650.9538,-294.2471"/>
<text text-anchor="middle" x="685" y="-316" font-family="Helvetica,sans-Serif" font-size="10.00" fill="#000000"> res_info</text>
<text text-anchor="middle" x="685" y="-305" font-family="Helvetica,sans-Serif" font-size="10.00" fill="#000000">params</text>
</g>
<!-- Node17 -->
<g id="node9" class="node">
<title>Node17</title>
<g id="a_node9"><a xlink:href="a01188.html" target="_top" xlink:title="Holds informations about a cursor.">
<polygon fill="#ffffff" stroke="#000000" points="739,-229.5 739,-248.5 801,-248.5 801,-229.5 739,-229.5"/>
<text text-anchor="middle" x="770" y="-236.5" font-family="Helvetica,sans-Serif" font-size="10.00" fill="#000000">tds_cursor</text>
</a>
</g>
</g>
<!-- Node9&#45;&gt;Node17 -->
<g id="edge14" class="edge">
<title>Node9&#45;&gt;Node17</title>
<path fill="none" stroke="#9a32cd" stroke-dasharray="5,2" d="M640.3155,-280.3154C670.8584,-270.5849 712.3555,-257.3646 740.1014,-248.5252"/>
<polygon fill="#9a32cd" stroke="#9a32cd" points="638.8787,-277.0997 630.413,-283.4702 641.0036,-283.7695 638.8787,-277.0997"/>
<text text-anchor="middle" x="685" y="-273" font-family="Helvetica,sans-Serif" font-size="10.00" fill="#000000"> res_info</text>
</g>
<!-- Node17&#45;&gt;Node2 -->
<g id="edge12" class="edge">
<title>Node17&#45;&gt;Node2</title>
<path fill="none" stroke="#9a32cd" stroke-dasharray="5,2" d="M728.8595,-230.1189C705.3118,-225.4891 675.141,-220.3189 648,-218 567.0539,-211.0842 544.8004,-215.2366 466,-235 458.4874,-236.8842 450.4523,-239.2029 443.0003,-241.4845"/>
<polygon fill="#9a32cd" stroke="#9a32cd" points="728.3531,-233.5871 738.847,-232.1278 729.7335,-226.7245 728.3531,-233.5871"/>
<text text-anchor="middle" x="600.5" y="-221" font-family="Helvetica,sans-Serif" font-size="10.00" fill="#000000"> cur_cursor</text>
</g>
<!-- Node17&#45;&gt;Node17 -->
<g id="edge15" class="edge">
<title>Node17&#45;&gt;Node17</title>
<path fill="none" stroke="#9a32cd" stroke-dasharray="5,2" d="M754.5309,-258.7663C755.7459,-263.4965 760.9022,-267 770,-267 784.9297,-267 789.2453,-257.5653 782.9468,-248.7571"/>
<polygon fill="#9a32cd" stroke="#9a32cd" points="758.0034,-259.3092 757.0532,-248.7571 751.2156,-257.5986 758.0034,-259.3092"/>
<text text-anchor="middle" x="770" y="-270" font-family="Helvetica,sans-Serif" font-size="10.00" fill="#000000"> next</text>
</g>
<!-- Node17&#45;&gt;Node19 -->
<g id="edge25" class="edge">
<title>Node17&#45;&gt;Node19</title>
<path fill="none" stroke="#9a32cd" stroke-dasharray="5,2" d="M811.4616,-234.4312C837.4462,-230.7426 871.3285,-224.407 900,-214 916.211,-208.1158 933.2841,-198.2098 944.9632,-190.7833"/>
<polygon fill="#9a32cd" stroke="#9a32cd" points="810.6503,-231.0086 801.2053,-235.8088 811.5823,-237.9463 810.6503,-231.0086"/>
<text text-anchor="middle" x="868" y="-233" font-family="Helvetica,sans-Serif" font-size="10.00" fill="#000000"> cursors</text>
</g>
<!-- Node18 -->
<g id="node10" class="node">
<title>Node18</title>
<g id="a_node10"><a xlink:href="a01184.html" target="_top" xlink:title=" ">
<polygon fill="#ffffff" stroke="#000000" points="553,-238.5 553,-257.5 648,-257.5 648,-238.5 553,-238.5"/>
<text text-anchor="middle" x="600.5" y="-245.5" font-family="Helvetica,sans-Serif" font-size="10.00" fill="#000000">tds_cursor_status</text>
</a>
</g>
</g>
<!-- Node18&#45;&gt;Node17 -->
<g id="edge13" class="edge">
<title>Node18&#45;&gt;Node17</title>
<path fill="none" stroke="#9a32cd" stroke-dasharray="5,2" d="M658.2362,-242.5113C660.8592,-242.3249 663.4567,-242.153 666,-242 690.3411,-240.5355 717.9315,-239.7813 738.5751,-239.3956"/>
<polygon fill="#9a32cd" stroke="#9a32cd" points="657.7568,-239.0377 648.0538,-243.2924 658.2922,-246.0172 657.7568,-239.0377"/>
<text text-anchor="middle" x="685" y="-245" font-family="Helvetica,sans-Serif" font-size="10.00" fill="#000000"> status</text>
</g>
<!-- Node19&#45;&gt;Node2 -->
<g id="edge16" class="edge">
<title>Node19&#45;&gt;Node2</title>
<path fill="none" stroke="#9a32cd" stroke-dasharray="5,2" d="M952.1546,-200.3721C942.5851,-223.953 924.1802,-264.1872 900,-293 870.281,-328.4128 861.6266,-341.7027 818,-357 744.1257,-382.9034 529.7542,-388.4291 466,-343 436.8637,-322.2384 421.9435,-279.726 416.4874,-260.645"/>
<polygon fill="#9a32cd" stroke="#9a32cd" points="955.5124,-201.3974 955.9187,-190.8104 948.9989,-198.8333 955.5124,-201.3974"/>
<text text-anchor="middle" x="685" y="-379" font-family="Helvetica,sans-Serif" font-size="10.00" fill="#000000"> conn</text>
</g>
<!-- Node20 -->
<g id="node12" class="node">
<title>Node20</title>
<g id="a_node12"><a xlink:href="a01216.html" target="_top" xlink:title=" ">
<polygon fill="#ffffff" stroke="#000000" points="725.5,-152.5 725.5,-171.5 814.5,-171.5 814.5,-152.5 725.5,-152.5"/>
<text text-anchor="middle" x="770" y="-159.5" font-family="Helvetica,sans-Serif" font-size="10.00" fill="#000000">tds_poll_wakeup</text>
</a>
</g>
</g>
<!-- Node20&#45;&gt;Node19 -->
<g id="edge18" class="edge">
<title>Node20&#45;&gt;Node19</title>
<path fill="none" stroke="#9a32cd" stroke-dasharray="5,2" d="M824.5506,-167.4449C847.8026,-169.7684 875.2293,-172.5125 900,-175 905.785,-175.5809 911.8862,-176.1948 917.8885,-176.7994"/>
<polygon fill="#9a32cd" stroke="#9a32cd" points="824.8228,-163.9547 814.5244,-166.4432 824.1269,-170.9201 824.8228,-163.9547"/>
<text text-anchor="middle" x="868" y="-178" font-family="Helvetica,sans-Serif" font-size="10.00" fill="#000000"> wakeup</text>
</g>
<!-- Node21 -->
<g id="node13" class="node">
<title>Node21</title>
<g id="a_node13"><a xlink:href="a01192.html" target="_top" xlink:title="Current environment as reported by the server.">
<polygon fill="#ffffff" stroke="#000000" points="744.5,-114.5 744.5,-133.5 795.5,-133.5 795.5,-114.5 744.5,-114.5"/>
<text text-anchor="middle" x="770" y="-121.5" font-family="Helvetica,sans-Serif" font-size="10.00" fill="#000000">tds_env</text>
</a>
</g>
</g>
<!-- Node21&#45;&gt;Node19 -->
<g id="edge19" class="edge">
<title>Node21&#45;&gt;Node19</title>
<path fill="none" stroke="#9a32cd" stroke-dasharray="5,2" d="M805.8216,-129.7933C832.2633,-134.5955 868.9028,-142.3601 900,-153 914.5823,-157.9893 930.3313,-165.503 941.9613,-171.4912"/>
<polygon fill="#9a32cd" stroke="#9a32cd" points="806.3235,-126.3279 795.8676,-128.0377 805.1076,-133.2215 806.3235,-126.3279"/>
<text text-anchor="middle" x="868" y="-156" font-family="Helvetica,sans-Serif" font-size="10.00" fill="#000000"> env</text>
</g>
<!-- Node22 -->
<g id="node14" class="node">
<title>Node22</title>
<g id="a_node14"><a xlink:href="a01204.html" target="_top" xlink:title=" ">
<polygon fill="#ffffff" stroke="#ff0000" points="380,-132.5 380,-151.5 448,-151.5 448,-132.5 380,-132.5"/>
<text text-anchor="middle" x="414" y="-139.5" font-family="Helvetica,sans-Serif" font-size="10.00" fill="#000000">tds_context</text>
</a>
</g>
</g>
<!-- Node22&#45;&gt;Node1 -->
<g id="edge26" class="edge">
<title>Node22&#45;&gt;Node1</title>
<path fill="none" stroke="#9a32cd" stroke-dasharray="5,2" d="M458.1958,-146.9765C490.2203,-150.5824 533.0358,-155.4035 563.312,-158.8126"/>
<polygon fill="#9a32cd" stroke="#9a32cd" points="458.5358,-143.4927 448.207,-145.8517 457.7525,-150.4488 458.5358,-143.4927"/>
<text text-anchor="middle" x="500.5" y="-158" font-family="Helvetica,sans-Serif" font-size="10.00" fill="#000000"> tds_ctx</text>
</g>
<!-- Node22&#45;&gt;Node19 -->
<g id="edge20" class="edge">
<title>Node22&#45;&gt;Node19</title>
<path fill="none" stroke="#9a32cd" stroke-dasharray="5,2" d="M458.2767,-136.5093C505.8779,-131.9562 583.4173,-128.4624 648,-144 683.7508,-152.6011 686.4065,-171.7696 722,-181 771.0915,-193.7309 785.2968,-184.8886 836,-186 864.4376,-186.6233 871.5805,-187.192 900,-186 905.8,-185.7567 911.9097,-185.3806 917.916,-184.9415"/>
<polygon fill="#9a32cd" stroke="#9a32cd" points="457.8945,-133.03 448.2989,-137.5216 458.6011,-139.9943 457.8945,-133.03"/>
<text text-anchor="middle" x="685" y="-177" font-family="Helvetica,sans-Serif" font-size="10.00" fill="#000000"> tds_ctx</text>
</g>
<!-- Node24 -->
<g id="node15" class="node">
<title>Node24</title>
<g id="a_node15"><a xlink:href="a01208.html" target="_top" xlink:title=" ">
<polygon fill="#ffffff" stroke="#000000" points="722,-38.5 722,-57.5 818,-57.5 818,-38.5 722,-38.5"/>
<text text-anchor="middle" x="770" y="-45.5" font-family="Helvetica,sans-Serif" font-size="10.00" fill="#000000">tds_authentication</text>
</a>
</g>
</g>
<!-- Node24&#45;&gt;Node19 -->
<g id="edge21" class="edge">
<title>Node24&#45;&gt;Node19</title>
<path fill="none" stroke="#9a32cd" stroke-dasharray="5,2" d="M828.1477,-42.0066C852.2554,-42.3571 879.3513,-46.719 900,-61 939.0153,-87.9837 953.6331,-148.1633 957.9618,-171.4979"/>
<polygon fill="#9a32cd" stroke="#9a32cd" points="827.999,-38.5076 818.0264,-42.0848 828.0531,-45.5074 827.999,-38.5076"/>
<text text-anchor="middle" x="868" y="-64" font-family="Helvetica,sans-Serif" font-size="10.00" fill="#000000"> authentication</text>
</g>
<!-- Node11 -->
<g id="node16" class="node">
<title>Node11</title>
<g id="a_node16"><a xlink:href="a00980.html" target="_top" xlink:title=" ">
<polygon fill="#ffffff" stroke="#ff0000" points="735.5,-.5 735.5,-19.5 804.5,-19.5 804.5,-.5 735.5,-.5"/>
<text text-anchor="middle" x="770" y="-7.5" font-family="Helvetica,sans-Serif" font-size="10.00" fill="#000000">tdsiconvinfo</text>
</a>
</g>
</g>
<!-- Node11&#45;&gt;Node19 -->
<g id="edge24" class="edge">
<title>Node11&#45;&gt;Node19</title>
<path fill="none" stroke="#9a32cd" stroke-dasharray="5,2" d="M814.7042,-5.0478C842.0348,-4.4361 876.1962,-8.2933 900,-27 947.3255,-64.1917 957.0459,-143.9943 959.0111,-171.4725"/>
<polygon fill="#9a32cd" stroke="#9a32cd" points="814.4413,-1.5557 804.5998,-5.4793 814.7401,-8.5493 814.4413,-1.5557"/>
<text text-anchor="middle" x="868" y="-30" font-family="Helvetica,sans-Serif" font-size="10.00" fill="#000000"> char_convs</text>
</g>
</g>
</svg>
