<?xml version="1.0" encoding="UTF-8" standalone="no"?>
<!DOCTYPE svg PUBLIC "-//W3C//DTD SVG 1.1//EN"
 "http://www.w3.org/Graphics/SVG/1.1/DTD/svg11.dtd">
<!-- Generated by graphviz version 2.40.1 (20161225.0304)
 -->
<!-- Title: tds_pool_socket Pages: 1 -->
<svg width="1002pt" height="517pt"
 viewBox="0.00 0.00 1002.00 517.00" xmlns="http://www.w3.org/2000/svg" xmlns:xlink="http://www.w3.org/1999/xlink">
<g id="graph0" class="graph" transform="scale(1 1) rotate(0) translate(4 513)">
<title>tds_pool_socket</title>
<polygon fill="#ffffff" stroke="transparent" points="-4,4 -4,-513 998,-513 998,4 -4,4"/>
<!-- Node1 -->
<g id="node1" class="node">
<title>Node1</title>
<g id="a_node1"><a xlink:title=" ">
<polygon fill="#bfbfbf" stroke="#000000" points="549.5,-412.5 549.5,-431.5 637.5,-431.5 637.5,-412.5 549.5,-412.5"/>
<text text-anchor="middle" x="593.5" y="-419.5" font-family="Helvetica,sans-Serif" font-size="10.00" fill="#000000">tds_pool_socket</text>
</a>
</g>
</g>
<!-- Node2 -->
<g id="node2" class="node">
<title>Node2</title>
<g id="a_node2"><a xlink:href="a01224.html" target="_top" xlink:title="Information for a server connection.">
<polygon fill="#ffffff" stroke="#000000" points="380,-320.5 380,-339.5 445,-339.5 445,-320.5 380,-320.5"/>
<text text-anchor="middle" x="412.5" y="-327.5" font-family="Helvetica,sans-Serif" font-size="10.00" fill="#000000">tds_socket</text>
</a>
</g>
</g>
<!-- Node2&#45;&gt;Node1 -->
<g id="edge1" class="edge">
<title>Node2&#45;&gt;Node1</title>
<path fill="none" stroke="#9a32cd" stroke-dasharray="5,2" d="M420.8247,-348.6679C429.1038,-364.9468 443.4,-387.8092 463,-400 488.7532,-416.0179 522.6444,-421.3665 549.4342,-422.7898"/>
<polygon fill="#9a32cd" stroke="#9a32cd" points="423.9285,-347.0456 416.4537,-339.5371 417.6146,-350.0682 423.9285,-347.0456"/>
<text text-anchor="middle" x="495.5" y="-423" font-family="Helvetica,sans-Serif" font-size="10.00" fill="#000000"> tds</text>
</g>
<!-- Node9 -->
<g id="node8" class="node">
<title>Node9</title>
<g id="a_node8"><a xlink:href="a01172.html" target="_top" xlink:title="Hold information for any results.">
<polygon fill="#ffffff" stroke="#ff0000" points="553.5,-310.5 553.5,-329.5 633.5,-329.5 633.5,-310.5 553.5,-310.5"/>
<text text-anchor="middle" x="593.5" y="-317.5" font-family="Helvetica,sans-Serif" font-size="10.00" fill="#000000">tds_result_info</text>
</a>
</g>
</g>
<!-- Node2&#45;&gt;Node9 -->
<g id="edge10" class="edge">
<title>Node2&#45;&gt;Node9</title>
<path fill="none" stroke="#9a32cd" stroke-dasharray="5,2" d="M431.3137,-313.9488C440.2911,-307.324 451.557,-300.4073 463,-297 500.7033,-285.7733 546.2642,-299.807 572.3628,-310.3639"/>
<polygon fill="#9a32cd" stroke="#9a32cd" points="428.8824,-311.4078 423.1775,-320.3356 433.2046,-316.9141 428.8824,-311.4078"/>
<text text-anchor="middle" x="495.5" y="-300" font-family="Helvetica,sans-Serif" font-size="10.00" fill="#000000"> attached_to</text>
</g>
<!-- Node3 -->
<g id="node3" class="node">
<title>Node3</title>
<g id="a_node3"><a xlink:href="a01132.html" target="_top" xlink:title=" ">
<polygon fill="#ffffff" stroke="#000000" points="213.5,-320.5 213.5,-339.5 269.5,-339.5 269.5,-320.5 213.5,-320.5"/>
<text text-anchor="middle" x="241.5" y="-327.5" font-family="Helvetica,sans-Serif" font-size="10.00" fill="#000000">tds_login</text>
</a>
</g>
</g>
<!-- Node3&#45;&gt;Node2 -->
<g id="edge2" class="edge">
<title>Node3&#45;&gt;Node2</title>
<path fill="none" stroke="#9a32cd" stroke-dasharray="5,2" d="M279.8632,-330C309.9377,-330 351.3305,-330 379.836,-330"/>
<polygon fill="#9a32cd" stroke="#9a32cd" points="279.7372,-326.5001 269.7372,-330 279.7371,-333.5001 279.7372,-326.5001"/>
<text text-anchor="middle" x="327" y="-333" font-family="Helvetica,sans-Serif" font-size="10.00" fill="#000000"> login</text>
</g>
<!-- Node4 -->
<g id="node4" class="node">
<title>Node4</title>
<g id="a_node4"><a xlink:href="a01128.html" target="_top" xlink:title=" ">
<polygon fill="#ffffff" stroke="#ff0000" points="0,-475.5 0,-494.5 84,-494.5 84,-475.5 0,-475.5"/>
<text text-anchor="middle" x="42" y="-482.5" font-family="Helvetica,sans-Serif" font-size="10.00" fill="#000000">tds_capabilities</text>
</a>
</g>
</g>
<!-- Node4&#45;&gt;Node3 -->
<g id="edge3" class="edge">
<title>Node4&#45;&gt;Node3</title>
<path fill="none" stroke="#9a32cd" stroke-dasharray="5,2" d="M94.2861,-473.8902C135.6734,-464.9106 187.1562,-453.248 191,-450 225.8744,-420.5309 237.1549,-362.8534 240.3622,-339.8319"/>
<polygon fill="#9a32cd" stroke="#9a32cd" points="93.3223,-470.5175 84.2869,-476.0504 94.8006,-477.3597 93.3223,-470.5175"/>
<text text-anchor="middle" x="146.5" y="-474" font-family="Helvetica,sans-Serif" font-size="10.00" fill="#000000"> capabilities</text>
</g>
<!-- Node19 -->
<g id="node11" class="node">
<title>Node19</title>
<g id="a_node11"><a xlink:href="a01220.html" target="_top" xlink:title=" ">
<polygon fill="#ffffff" stroke="#000000" points="911,-171.5 911,-190.5 994,-190.5 994,-171.5 911,-171.5"/>
<text text-anchor="middle" x="952.5" y="-178.5" font-family="Helvetica,sans-Serif" font-size="10.00" fill="#000000">tds_connection</text>
</a>
</g>
</g>
<!-- Node4&#45;&gt;Node19 -->
<g id="edge17" class="edge">
<title>Node4&#45;&gt;Node19</title>
<path fill="none" stroke="#9a32cd" stroke-dasharray="5,2" d="M94.4714,-490.29C134.6692,-493.8886 191.5304,-498 241.5,-498 241.5,-498 241.5,-498 763,-498 909.8314,-498 945.6075,-244.341 951.5208,-190.8348"/>
<polygon fill="#9a32cd" stroke="#9a32cd" points="94.6457,-486.7914 84.3682,-489.365 94.0074,-493.7623 94.6457,-486.7914"/>
<text text-anchor="middle" x="495.5" y="-501" font-family="Helvetica,sans-Serif" font-size="10.00" fill="#000000"> capabilities</text>
</g>
<!-- Node6 -->
<g id="node5" class="node">
<title>Node6</title>
<g id="a_node5"><a xlink:href="a01268.html" target="_top" xlink:title="Structure to hold a string.">
<polygon fill="#ffffff" stroke="#000000" points="16,-307.5 16,-326.5 68,-326.5 68,-307.5 16,-307.5"/>
<text text-anchor="middle" x="42" y="-314.5" font-family="Helvetica,sans-Serif" font-size="10.00" fill="#000000">tds_dstr</text>
</a>
</g>
</g>
<!-- Node6&#45;&gt;Node3 -->
<g id="edge4" class="edge">
<title>Node6&#45;&gt;Node3</title>
<path fill="none" stroke="#9a32cd" stroke-dasharray="5,2" d="M78.3119,-314.9583C108.5717,-313.8036 152.7485,-313.3875 191,-318 198.3363,-318.8846 206.1541,-320.4338 213.3922,-322.1309"/>
<polygon fill="#9a32cd" stroke="#9a32cd" points="78.0625,-311.4657 68.2215,-315.3905 78.3622,-318.4592 78.0625,-311.4657"/>
<text text-anchor="middle" x="146.5" y="-442" font-family="Helvetica,sans-Serif" font-size="10.00" fill="#000000"> server_realm_name</text>
<text text-anchor="middle" x="146.5" y="-431" font-family="Helvetica,sans-Serif" font-size="10.00" fill="#000000">password</text>
<text text-anchor="middle" x="146.5" y="-420" font-family="Helvetica,sans-Serif" font-size="10.00" fill="#000000">server_name</text>
<text text-anchor="middle" x="146.5" y="-409" font-family="Helvetica,sans-Serif" font-size="10.00" fill="#000000">dump_file</text>
<text text-anchor="middle" x="146.5" y="-398" font-family="Helvetica,sans-Serif" font-size="10.00" fill="#000000">library</text>
<text text-anchor="middle" x="146.5" y="-387" font-family="Helvetica,sans-Serif" font-size="10.00" fill="#000000">crlfile</text>
<text text-anchor="middle" x="146.5" y="-376" font-family="Helvetica,sans-Serif" font-size="10.00" fill="#000000">server_spn</text>
<text text-anchor="start" x="102" y="-365" font-family="Helvetica,sans-Serif" font-size="10.00" fill="#000000">client_host</text>
<text text-anchor="middle" x="146.5" y="-354" font-family="Helvetica,sans-Serif" font-size="10.00" fill="#000000">_name</text>
<text text-anchor="middle" x="146.5" y="-343" font-family="Helvetica,sans-Serif" font-size="10.00" fill="#000000">client_charset</text>
<text text-anchor="middle" x="146.5" y="-332" font-family="Helvetica,sans-Serif" font-size="10.00" fill="#000000">openssl_ciphers</text>
<text text-anchor="middle" x="146.5" y="-321" font-family="Helvetica,sans-Serif" font-size="10.00" fill="#000000">...</text>
</g>
<!-- Node7 -->
<g id="node6" class="node">
<title>Node7</title>
<g id="a_node6"><a xlink:href="a01212.html" target="_top" xlink:title=" ">
<polygon fill="#ffffff" stroke="#000000" points="209,-215.5 209,-234.5 274,-234.5 274,-215.5 209,-215.5"/>
<text text-anchor="middle" x="241.5" y="-222.5" font-family="Helvetica,sans-Serif" font-size="10.00" fill="#000000">tds_packet</text>
</a>
</g>
</g>
<!-- Node7&#45;&gt;Node2 -->
<g id="edge5" class="edge">
<title>Node7&#45;&gt;Node2</title>
<path fill="none" stroke="#9a32cd" stroke-dasharray="5,2" d="M269.1305,-239.3845C293.9136,-252.5686 331.0372,-273.0206 362,-293 375.5161,-301.7216 390.2828,-312.7253 400.3365,-320.4574"/>
<polygon fill="#9a32cd" stroke="#9a32cd" points="270.7514,-236.2825 260.2749,-234.7035 267.4802,-242.4711 270.7514,-236.2825"/>
<text text-anchor="middle" x="327" y="-318" font-family="Helvetica,sans-Serif" font-size="10.00" fill="#000000"> frozen_packets</text>
<text text-anchor="middle" x="327" y="-307" font-family="Helvetica,sans-Serif" font-size="10.00" fill="#000000">recv_packet</text>
<text text-anchor="middle" x="327" y="-296" font-family="Helvetica,sans-Serif" font-size="10.00" fill="#000000">send_packet</text>
</g>
<!-- Node7&#45;&gt;Node7 -->
<g id="edge6" class="edge">
<title>Node7&#45;&gt;Node7</title>
<path fill="none" stroke="#9a32cd" stroke-dasharray="5,2" d="M226.0309,-244.7663C227.2459,-249.4965 232.4022,-253 241.5,-253 256.4297,-253 260.7453,-243.5653 254.4468,-234.7571"/>
<polygon fill="#9a32cd" stroke="#9a32cd" points="229.5034,-245.3092 228.5532,-234.7571 222.7156,-243.5986 229.5034,-245.3092"/>
<text text-anchor="middle" x="241.5" y="-256" font-family="Helvetica,sans-Serif" font-size="10.00" fill="#000000"> next</text>
</g>
<!-- Node7&#45;&gt;Node19 -->
<g id="edge22" class="edge">
<title>Node7&#45;&gt;Node19</title>
<path fill="none" stroke="#9a32cd" stroke-dasharray="5,2" d="M284.3767,-219.7891C343.2507,-212.8599 452.4715,-200.8126 546,-195 699.977,-185.4307 738.9582,-194.4629 893,-186 898.7964,-185.6816 904.904,-185.2632 910.9093,-184.8038"/>
<polygon fill="#9a32cd" stroke="#9a32cd" points="283.8496,-216.327 274.3309,-220.9795 284.6733,-223.2784 283.8496,-216.327"/>
<text text-anchor="middle" x="593.5" y="-198" font-family="Helvetica,sans-Serif" font-size="10.00" fill="#000000"> packet_cache</text>
</g>
<!-- Node8 -->
<g id="node7" class="node">
<title>Node8</title>
<g id="a_node7"><a xlink:href="a01196.html" target="_top" xlink:title="Holds information for a dynamic (also called prepared) query.">
<polygon fill="#ffffff" stroke="#000000" points="727,-328.5 727,-347.5 799,-347.5 799,-328.5 727,-328.5"/>
<text text-anchor="middle" x="763" y="-335.5" font-family="Helvetica,sans-Serif" font-size="10.00" fill="#000000">tds_dynamic</text>
</a>
</g>
</g>
<!-- Node8&#45;&gt;Node2 -->
<g id="edge7" class="edge">
<title>Node8&#45;&gt;Node2</title>
<path fill="none" stroke="#9a32cd" stroke-dasharray="5,2" d="M731.7014,-351.3191C675.811,-373.071 555.9889,-410.4197 463,-375 444.5636,-367.9776 428.5765,-350.7922 419.7638,-339.807"/>
<polygon fill="#9a32cd" stroke="#9a32cd" points="733.0649,-354.5435 741.0576,-347.5889 730.4724,-348.0412 733.0649,-354.5435"/>
<text text-anchor="middle" x="593.5" y="-392" font-family="Helvetica,sans-Serif" font-size="10.00" fill="#000000"> cur_dyn</text>
</g>
<!-- Node8&#45;&gt;Node8 -->
<g id="edge8" class="edge">
<title>Node8&#45;&gt;Node8</title>
<path fill="none" stroke="#9a32cd" stroke-dasharray="5,2" d="M747.5309,-357.7663C748.7459,-362.4965 753.9022,-366 763,-366 777.9297,-366 782.2453,-356.5653 775.9468,-347.7571"/>
<polygon fill="#9a32cd" stroke="#9a32cd" points="751.0034,-358.3092 750.0532,-347.7571 744.2156,-356.5986 751.0034,-358.3092"/>
<text text-anchor="middle" x="763" y="-369" font-family="Helvetica,sans-Serif" font-size="10.00" fill="#000000"> next</text>
</g>
<!-- Node8&#45;&gt;Node19 -->
<g id="edge23" class="edge">
<title>Node8&#45;&gt;Node19</title>
<path fill="none" stroke="#9a32cd" stroke-dasharray="5,2" d="M787.1611,-323.1103C794.8174,-318.3356 803.2929,-312.9913 811,-308 847.8334,-284.1457 860.4606,-282.4434 893,-253 914.8839,-233.1982 935.7248,-205.161 945.945,-190.6065"/>
<polygon fill="#9a32cd" stroke="#9a32cd" points="785.2939,-320.1498 778.6447,-328.3984 788.9865,-326.0966 785.2939,-320.1498"/>
<text text-anchor="middle" x="861" y="-298" font-family="Helvetica,sans-Serif" font-size="10.00" fill="#000000"> dyns</text>
</g>
<!-- Node9&#45;&gt;Node2 -->
<g id="edge11" class="edge">
<title>Node9&#45;&gt;Node2</title>
<path fill="none" stroke="#9a32cd" stroke-dasharray="5,2" d="M543.1048,-322.7843C511.833,-324.512 472.5528,-326.6822 445.2777,-328.1891"/>
<polygon fill="#9a32cd" stroke="#9a32cd" points="543.5824,-326.2633 553.3741,-322.2169 543.1962,-319.274 543.5824,-326.2633"/>
<text text-anchor="middle" x="495.5" y="-363" font-family="Helvetica,sans-Serif" font-size="10.00" fill="#000000"> param_info</text>
<text text-anchor="middle" x="495.5" y="-352" font-family="Helvetica,sans-Serif" font-size="10.00" fill="#000000">current_results</text>
<text text-anchor="middle" x="495.5" y="-341" font-family="Helvetica,sans-Serif" font-size="10.00" fill="#000000">res_info</text>
<text text-anchor="middle" x="495.5" y="-330" font-family="Helvetica,sans-Serif" font-size="10.00" fill="#000000">comp_info</text>
</g>
<!-- Node9&#45;&gt;Node8 -->
<g id="edge9" class="edge">
<title>Node9&#45;&gt;Node8</title>
<path fill="none" stroke="#9a32cd" stroke-dasharray="5,2" d="M643.9661,-325.3592C670.6241,-328.1902 702.7253,-331.5991 726.8702,-334.1632"/>
<polygon fill="#9a32cd" stroke="#9a32cd" points="643.9829,-321.8414 633.6691,-324.2657 643.2436,-328.8023 643.9829,-321.8414"/>
<text text-anchor="middle" x="678" y="-344" font-family="Helvetica,sans-Serif" font-size="10.00" fill="#000000"> res_info</text>
<text text-anchor="middle" x="678" y="-333" font-family="Helvetica,sans-Serif" font-size="10.00" fill="#000000">params</text>
</g>
<!-- Node17 -->
<g id="node9" class="node">
<title>Node17</title>
<g id="a_node9"><a xlink:href="a01188.html" target="_top" xlink:title="Holds informations about a cursor.">
<polygon fill="#ffffff" stroke="#000000" points="732,-250.5 732,-269.5 794,-269.5 794,-250.5 732,-250.5"/>
<text text-anchor="middle" x="763" y="-257.5" font-family="Helvetica,sans-Serif" font-size="10.00" fill="#000000">tds_cursor</text>
</a>
</g>
</g>
<!-- Node9&#45;&gt;Node17 -->
<g id="edge14" class="edge">
<title>Node9&#45;&gt;Node17</title>
<path fill="none" stroke="#9a32cd" stroke-dasharray="5,2" d="M630.1806,-307.0157C662.0164,-295.7464 707.3726,-279.6911 735.9878,-269.5618"/>
<polygon fill="#9a32cd" stroke="#9a32cd" points="628.6167,-303.8564 620.3578,-310.4928 630.9526,-310.4552 628.6167,-303.8564"/>
<text text-anchor="middle" x="678" y="-298" font-family="Helvetica,sans-Serif" font-size="10.00" fill="#000000"> res_info</text>
</g>
<!-- Node17&#45;&gt;Node2 -->
<g id="edge12" class="edge">
<title>Node17&#45;&gt;Node2</title>
<path fill="none" stroke="#9a32cd" stroke-dasharray="5,2" d="M721.5422,-260.8544C650.4841,-262.8164 508.6673,-269.0458 463,-288 445.7273,-295.1691 429.86,-310.3896 420.6862,-320.4034"/>
<polygon fill="#9a32cd" stroke="#9a32cd" points="721.9979,-264.3439 731.9035,-260.5849 721.8158,-257.3462 721.9979,-264.3439"/>
<text text-anchor="middle" x="593.5" y="-274" font-family="Helvetica,sans-Serif" font-size="10.00" fill="#000000"> cur_cursor</text>
</g>
<!-- Node17&#45;&gt;Node17 -->
<g id="edge15" class="edge">
<title>Node17&#45;&gt;Node17</title>
<path fill="none" stroke="#9a32cd" stroke-dasharray="5,2" d="M747.5309,-279.7663C748.7459,-284.4965 753.9022,-288 763,-288 777.9297,-288 782.2453,-278.5653 775.9468,-269.7571"/>
<polygon fill="#9a32cd" stroke="#9a32cd" points="751.0034,-280.3092 750.0532,-269.7571 744.2156,-278.5986 751.0034,-280.3092"/>
<text text-anchor="middle" x="763" y="-291" font-family="Helvetica,sans-Serif" font-size="10.00" fill="#000000"> next</text>
</g>
<!-- Node17&#45;&gt;Node19 -->
<g id="edge25" class="edge">
<title>Node17&#45;&gt;Node19</title>
<path fill="none" stroke="#9a32cd" stroke-dasharray="5,2" d="M803.5655,-247.5734C829.5569,-239.1429 863.7732,-227.1657 893,-214 908.4011,-207.0624 925.1619,-197.5785 936.9578,-190.5577"/>
<polygon fill="#9a32cd" stroke="#9a32cd" points="802.4903,-244.2425 794.0343,-250.6259 804.6253,-250.909 802.4903,-244.2425"/>
<text text-anchor="middle" x="861" y="-241" font-family="Helvetica,sans-Serif" font-size="10.00" fill="#000000"> cursors</text>
</g>
<!-- Node18 -->
<g id="node10" class="node">
<title>Node18</title>
<g id="a_node10"><a xlink:href="a01184.html" target="_top" xlink:title=" ">
<polygon fill="#ffffff" stroke="#000000" points="546,-215.5 546,-234.5 641,-234.5 641,-215.5 546,-215.5"/>
<text text-anchor="middle" x="593.5" y="-222.5" font-family="Helvetica,sans-Serif" font-size="10.00" fill="#000000">tds_cursor_status</text>
</a>
</g>
</g>
<!-- Node18&#45;&gt;Node17 -->
<g id="edge13" class="edge">
<title>Node18&#45;&gt;Node17</title>
<path fill="none" stroke="#9a32cd" stroke-dasharray="5,2" d="M651.0691,-236.5866C666.0298,-239.6235 682.1219,-242.9127 697,-246 708.3543,-248.3561 720.7971,-250.9836 731.7885,-253.3203"/>
<polygon fill="#9a32cd" stroke="#9a32cd" points="651.4171,-233.0861 640.9212,-234.5301 650.0267,-239.9466 651.4171,-233.0861"/>
<text text-anchor="middle" x="678" y="-249" font-family="Helvetica,sans-Serif" font-size="10.00" fill="#000000"> status</text>
</g>
<!-- Node19&#45;&gt;Node2 -->
<g id="edge16" class="edge">
<title>Node19&#45;&gt;Node2</title>
<path fill="none" stroke="#9a32cd" stroke-dasharray="5,2" d="M946.2712,-200.3303C937.1963,-226.7113 918.5902,-274.7366 893,-310 818.8615,-412.1632 765.6876,-421.3318 641,-441 562.8107,-453.3336 528.4493,-479.5205 463,-435 429.5495,-412.246 417.5427,-360.9582 413.8903,-339.6086"/>
<polygon fill="#9a32cd" stroke="#9a32cd" points="949.6231,-201.3425 949.4727,-190.7487 942.9839,-199.1241 949.6231,-201.3425"/>
<text text-anchor="middle" x="678" y="-440" font-family="Helvetica,sans-Serif" font-size="10.00" fill="#000000"> conn</text>
</g>
<!-- Node20 -->
<g id="node12" class="node">
<title>Node20</title>
<g id="a_node12"><a xlink:href="a01216.html" target="_top" xlink:title=" ">
<polygon fill="#ffffff" stroke="#000000" points="718.5,-152.5 718.5,-171.5 807.5,-171.5 807.5,-152.5 718.5,-152.5"/>
<text text-anchor="middle" x="763" y="-159.5" font-family="Helvetica,sans-Serif" font-size="10.00" fill="#000000">tds_poll_wakeup</text>
</a>
</g>
</g>
<!-- Node20&#45;&gt;Node19 -->
<g id="edge18" class="edge">
<title>Node20&#45;&gt;Node19</title>
<path fill="none" stroke="#9a32cd" stroke-dasharray="5,2" d="M817.5506,-167.4449C840.8026,-169.7684 868.2293,-172.5125 893,-175 898.785,-175.5809 904.8862,-176.1948 910.8885,-176.7994"/>
<polygon fill="#9a32cd" stroke="#9a32cd" points="817.8228,-163.9547 807.5244,-166.4432 817.1269,-170.9201 817.8228,-163.9547"/>
<text text-anchor="middle" x="861" y="-178" font-family="Helvetica,sans-Serif" font-size="10.00" fill="#000000"> wakeup</text>
</g>
<!-- Node21 -->
<g id="node13" class="node">
<title>Node21</title>
<g id="a_node13"><a xlink:href="a01192.html" target="_top" xlink:title="Current environment as reported by the server.">
<polygon fill="#ffffff" stroke="#000000" points="737.5,-114.5 737.5,-133.5 788.5,-133.5 788.5,-114.5 737.5,-114.5"/>
<text text-anchor="middle" x="763" y="-121.5" font-family="Helvetica,sans-Serif" font-size="10.00" fill="#000000">tds_env</text>
</a>
</g>
</g>
<!-- Node21&#45;&gt;Node19 -->
<g id="edge19" class="edge">
<title>Node21&#45;&gt;Node19</title>
<path fill="none" stroke="#9a32cd" stroke-dasharray="5,2" d="M798.8216,-129.7933C825.2633,-134.5955 861.9028,-142.3601 893,-153 907.5823,-157.9893 923.3313,-165.503 934.9613,-171.4912"/>
<polygon fill="#9a32cd" stroke="#9a32cd" points="799.3235,-126.3279 788.8676,-128.0377 798.1076,-133.2215 799.3235,-126.3279"/>
<text text-anchor="middle" x="861" y="-156" font-family="Helvetica,sans-Serif" font-size="10.00" fill="#000000"> env</text>
</g>
<!-- Node22 -->
<g id="node14" class="node">
<title>Node22</title>
<g id="a_node14"><a xlink:href="a01204.html" target="_top" xlink:title=" ">
<polygon fill="#ffffff" stroke="#ff0000" points="729,-76.5 729,-95.5 797,-95.5 797,-76.5 729,-76.5"/>
<text text-anchor="middle" x="763" y="-83.5" font-family="Helvetica,sans-Serif" font-size="10.00" fill="#000000">tds_context</text>
</a>
</g>
</g>
<!-- Node22&#45;&gt;Node19 -->
<g id="edge20" class="edge">
<title>Node22&#45;&gt;Node19</title>
<path fill="none" stroke="#9a32cd" stroke-dasharray="5,2" d="M807.295,-91.4967C833.5616,-96.1941 866.7417,-104.7265 893,-120 915.7626,-133.2401 935.6368,-157.5592 945.6345,-171.1495"/>
<polygon fill="#9a32cd" stroke="#9a32cd" points="807.6716,-88.0113 797.2327,-89.822 806.5223,-94.9163 807.6716,-88.0113"/>
<text text-anchor="middle" x="861" y="-123" font-family="Helvetica,sans-Serif" font-size="10.00" fill="#000000"> tds_ctx</text>
</g>
<!-- Node24 -->
<g id="node15" class="node">
<title>Node24</title>
<g id="a_node15"><a xlink:href="a01208.html" target="_top" xlink:title=" ">
<polygon fill="#ffffff" stroke="#000000" points="715,-38.5 715,-57.5 811,-57.5 811,-38.5 715,-38.5"/>
<text text-anchor="middle" x="763" y="-45.5" font-family="Helvetica,sans-Serif" font-size="10.00" fill="#000000">tds_authentication</text>
</a>
</g>
</g>
<!-- Node24&#45;&gt;Node19 -->
<g id="edge21" class="edge">
<title>Node24&#45;&gt;Node19</title>
<path fill="none" stroke="#9a32cd" stroke-dasharray="5,2" d="M821.144,-52.9226C845.251,-57.3257 872.3474,-65.5805 893,-81 924.8899,-104.8093 942.9339,-151.1925 949.5571,-171.3075"/>
<polygon fill="#9a32cd" stroke="#9a32cd" points="821.4577,-49.4274 811.0229,-51.2617 820.3241,-56.335 821.4577,-49.4274"/>
<text text-anchor="middle" x="861" y="-84" font-family="Helvetica,sans-Serif" font-size="10.00" fill="#000000"> authentication</text>
</g>
<!-- Node11 -->
<g id="node16" class="node">
<title>Node11</title>
<g id="a_node16"><a xlink:href="a00980.html" target="_top" xlink:title=" ">
<polygon fill="#ffffff" stroke="#ff0000" points="728.5,-.5 728.5,-19.5 797.5,-19.5 797.5,-.5 728.5,-.5"/>
<text text-anchor="middle" x="763" y="-7.5" font-family="Helvetica,sans-Serif" font-size="10.00" fill="#000000">tdsiconvinfo</text>
</a>
</g>
</g>
<!-- Node11&#45;&gt;Node19 -->
<g id="edge24" class="edge">
<title>Node11&#45;&gt;Node19</title>
<path fill="none" stroke="#9a32cd" stroke-dasharray="5,2" d="M807.8589,-10.3908C835.2494,-12.8505 869.4196,-20.1732 893,-40 935.0958,-75.395 948.0173,-145.7388 951.4216,-171.3706"/>
<polygon fill="#9a32cd" stroke="#9a32cd" points="807.9525,-6.8887 797.7293,-9.6703 807.4558,-13.8711 807.9525,-6.8887"/>
<text text-anchor="middle" x="861" y="-43" font-family="Helvetica,sans-Serif" font-size="10.00" fill="#000000"> char_convs</text>
</g>
</g>
</svg>
