<?xml version="1.0" encoding="UTF-8" standalone="no"?>
<!DOCTYPE svg PUBLIC "-//W3C//DTD SVG 1.1//EN"
 "http://www.w3.org/Graphics/SVG/1.1/DTD/svg11.dtd">
<!-- Generated by graphviz version 2.40.1 (20161225.0304)
 -->
<!-- Title: END_LOGIN_EVENT Pages: 1 -->
<svg width="434pt" height="231pt"
 viewBox="0.00 0.00 434.00 231.00" xmlns="http://www.w3.org/2000/svg" xmlns:xlink="http://www.w3.org/1999/xlink">
<g id="graph0" class="graph" transform="scale(1 1) rotate(0) translate(4 227)">
<title>END_LOGIN_EVENT</title>
<polygon fill="#ffffff" stroke="transparent" points="-4,4 -4,-227 430,-227 430,4 -4,4"/>
<!-- Node1 -->
<g id="node1" class="node">
<title>Node1</title>
<g id="a_node1"><a xlink:title=" ">
<polygon fill="#bfbfbf" stroke="#000000" points="71.5,-.5 71.5,-19.5 184.5,-19.5 184.5,-.5 71.5,-.5"/>
<text text-anchor="middle" x="128" y="-7.5" font-family="Helvetica,sans-Serif" font-size="10.00" fill="#000000">END_LOGIN_EVENT</text>
</a>
</g>
</g>
<!-- Node2 -->
<g id="node2" class="node">
<title>Node2</title>
<g id="a_node2"><a xlink:href="a00696.html" target="_top" xlink:title=" ">
<polygon fill="#ffffff" stroke="#000000" points="38.5,-67.5 38.5,-86.5 91.5,-86.5 91.5,-67.5 38.5,-67.5"/>
<text text-anchor="middle" x="65" y="-74.5" font-family="Helvetica,sans-Serif" font-size="10.00" fill="#000000">tds_pool</text>
</a>
</g>
</g>
<!-- Node2&#45;&gt;Node1 -->
<g id="edge1" class="edge">
<title>Node2&#45;&gt;Node1</title>
<path fill="none" stroke="#9a32cd" stroke-dasharray="5,2" d="M75.9624,-58.7586C80.5013,-51.8979 86.086,-44.2516 92,-38 98.4207,-31.2127 106.571,-24.7334 113.4923,-19.7203"/>
<polygon fill="#9a32cd" stroke="#9a32cd" points="72.871,-57.0988 70.4886,-67.4223 78.7888,-60.8378 72.871,-57.0988"/>
<text text-anchor="middle" x="103" y="-41" font-family="Helvetica,sans-Serif" font-size="10.00" fill="#000000"> pool</text>
</g>
<!-- Node3 -->
<g id="node3" class="node">
<title>Node3</title>
<g id="a_node3"><a xlink:href="a01204.html" target="_top" xlink:title=" ">
<polygon fill="#ffffff" stroke="#000000" points="0,-135.5 0,-154.5 68,-154.5 68,-135.5 0,-135.5"/>
<text text-anchor="middle" x="34" y="-142.5" font-family="Helvetica,sans-Serif" font-size="10.00" fill="#000000">tds_context</text>
</a>
</g>
</g>
<!-- Node3&#45;&gt;Node2 -->
<g id="edge2" class="edge">
<title>Node3&#45;&gt;Node2</title>
<path fill="none" stroke="#9a32cd" stroke-dasharray="5,2" d="M34.7095,-125.0888C35.5312,-118.458 37.0945,-111.1898 40,-105 43.2675,-98.039 48.8344,-91.5461 53.8867,-86.5689"/>
<polygon fill="#9a32cd" stroke="#9a32cd" points="31.1981,-125.1039 33.9206,-135.343 38.1774,-125.6409 31.1981,-125.1039"/>
<text text-anchor="middle" x="48.5" y="-108" font-family="Helvetica,sans-Serif" font-size="10.00" fill="#000000"> ctx</text>
</g>
<!-- Node4 -->
<g id="node4" class="node">
<title>Node4</title>
<g id="a_node4"><a xlink:href="a01140.html" target="_top" xlink:title=" ">
<polygon fill="#ffffff" stroke="#000000" points="3.5,-203.5 3.5,-222.5 64.5,-222.5 64.5,-203.5 3.5,-203.5"/>
<text text-anchor="middle" x="34" y="-210.5" font-family="Helvetica,sans-Serif" font-size="10.00" fill="#000000">tds_locale</text>
</a>
</g>
</g>
<!-- Node4&#45;&gt;Node3 -->
<g id="edge3" class="edge">
<title>Node4&#45;&gt;Node3</title>
<path fill="none" stroke="#9a32cd" stroke-dasharray="5,2" d="M34,-193.1951C34,-180.5514 34,-164.7157 34,-154.7247"/>
<polygon fill="#9a32cd" stroke="#9a32cd" points="30.5001,-193.2572 34,-203.2573 37.5001,-193.2573 30.5001,-193.2572"/>
<text text-anchor="middle" x="48.5" y="-177" font-family="Helvetica,sans-Serif" font-size="10.00" fill="#000000"> locale</text>
</g>
<!-- Node5 -->
<g id="node5" class="node">
<title>Node5</title>
<g id="a_node5"><a xlink:href="a00680.html" target="_top" xlink:title=" ">
<polygon fill="#ffffff" stroke="#000000" points="86.5,-135.5 86.5,-154.5 169.5,-154.5 169.5,-135.5 86.5,-135.5"/>
<text text-anchor="middle" x="128" y="-142.5" font-family="Helvetica,sans-Serif" font-size="10.00" fill="#000000">tds_pool_event</text>
</a>
</g>
</g>
<!-- Node5&#45;&gt;Node1 -->
<g id="edge12" class="edge">
<title>Node5&#45;&gt;Node1</title>
<path fill="none" stroke="#9a32cd" stroke-dasharray="5,2" d="M128,-124.9756C128,-95.4905 128,-41.5249 128,-19.6209"/>
<polygon fill="#9a32cd" stroke="#9a32cd" points="124.5001,-125.2911 128,-135.2911 131.5001,-125.2912 124.5001,-125.2911"/>
<text text-anchor="middle" x="148.5" y="-74.5" font-family="Helvetica,sans-Serif" font-size="10.00" fill="#000000"> common</text>
</g>
<!-- Node5&#45;&gt;Node2 -->
<g id="edge4" class="edge">
<title>Node5&#45;&gt;Node2</title>
<path fill="none" stroke="#9a32cd" stroke-dasharray="5,2" d="M97.4488,-130.0567C91.4394,-126.1036 85.5847,-121.4031 81,-116 73.7081,-107.4063 69.3992,-95.0387 67.1232,-86.5475"/>
<polygon fill="#9a32cd" stroke="#9a32cd" points="95.8549,-133.1815 106.234,-135.3086 99.4467,-127.1733 95.8549,-133.1815"/>
<text text-anchor="middle" x="97.5" y="-108" font-family="Helvetica,sans-Serif" font-size="10.00" fill="#000000"> events</text>
</g>
<!-- Node5&#45;&gt;Node5 -->
<g id="edge5" class="edge">
<title>Node5&#45;&gt;Node5</title>
<path fill="none" stroke="#9a32cd" stroke-dasharray="5,2" d="M179.819,-150.0661C184.5342,-149.0129 187.5,-147.3242 187.5,-145 187.5,-141.2813 179.9076,-139.1895 169.7052,-138.7246"/>
<polygon fill="#9a32cd" stroke="#9a32cd" points="179.2189,-146.6128 169.7052,-151.2754 180.05,-153.5633 179.2189,-146.6128"/>
<text text-anchor="middle" x="206.5" y="-148" font-family="Helvetica,sans-Serif" font-size="10.00" fill="#000000"> execute</text>
<text text-anchor="middle" x="206.5" y="-137" font-family="Helvetica,sans-Serif" font-size="10.00" fill="#000000">next</text>
</g>
<!-- Node6 -->
<g id="node6" class="node">
<title>Node6</title>
<g id="a_node6"><a xlink:href="a00688.html" target="_top" xlink:title=" ">
<polygon fill="#ffffff" stroke="#000000" points="244.5,-67.5 244.5,-86.5 321.5,-86.5 321.5,-67.5 244.5,-67.5"/>
<text text-anchor="middle" x="283" y="-74.5" font-family="Helvetica,sans-Serif" font-size="10.00" fill="#000000">tds_pool_user</text>
</a>
</g>
</g>
<!-- Node6&#45;&gt;Node1 -->
<g id="edge6" class="edge">
<title>Node6&#45;&gt;Node1</title>
<path fill="none" stroke="#9a32cd" stroke-dasharray="5,2" d="M234.4754,-64.7884C220.1895,-60.5154 204.7186,-55.2067 191,-49 172.9513,-40.8342 153.8192,-28.3797 141.4385,-19.7513"/>
<polygon fill="#9a32cd" stroke="#9a32cd" points="233.5617,-68.1675 244.1402,-67.5795 235.5039,-61.4423 233.5617,-68.1675"/>
<text text-anchor="middle" x="205" y="-41" font-family="Helvetica,sans-Serif" font-size="10.00" fill="#000000"> puser</text>
</g>
<!-- Node7 -->
<g id="node7" class="node">
<title>Node7</title>
<g id="a_node7"><a xlink:href="a00692.html" target="_top" xlink:title=" ">
<polygon fill="#ffffff" stroke="#000000" points="246,-.5 246,-19.5 340,-19.5 340,-.5 246,-.5"/>
<text text-anchor="middle" x="293" y="-7.5" font-family="Helvetica,sans-Serif" font-size="10.00" fill="#000000">tds_pool_member</text>
</a>
</g>
</g>
<!-- Node6&#45;&gt;Node7 -->
<g id="edge8" class="edge">
<title>Node6&#45;&gt;Node7</title>
<path fill="none" stroke="#9a32cd" stroke-dasharray="5,2" d="M239.0912,-63.4623C226.4954,-57.15 217.8683,-48.6492 225,-38 230.6123,-29.6196 239.2364,-23.745 248.479,-19.6278"/>
<polygon fill="#9a32cd" stroke="#9a32cd" points="237.7355,-66.6894 248.3006,-67.4823 240.5359,-60.274 237.7355,-66.6894"/>
<text text-anchor="middle" x="254" y="-41" font-family="Helvetica,sans-Serif" font-size="10.00" fill="#000000"> current_user</text>
</g>
<!-- Node7&#45;&gt;Node6 -->
<g id="edge7" class="edge">
<title>Node7&#45;&gt;Node6</title>
<path fill="none" stroke="#9a32cd" stroke-dasharray="5,2" d="M290.0909,-29.4912C288.2321,-41.9451 285.9031,-57.5495 284.4328,-67.4005"/>
<polygon fill="#9a32cd" stroke="#9a32cd" points="293.5553,-29.9888 291.5699,-19.5817 286.632,-28.9554 293.5553,-29.9888"/>
<text text-anchor="middle" x="329.5" y="-41" font-family="Helvetica,sans-Serif" font-size="10.00" fill="#000000"> assigned_member</text>
</g>
<!-- Node8 -->
<g id="node8" class="node">
<title>Node8</title>
<g id="a_node8"><a xlink:href="a00684.html" target="_top" xlink:title=" ">
<polygon fill="#ffffff" stroke="#ff0000" points="338,-135.5 338,-154.5 426,-154.5 426,-135.5 338,-135.5"/>
<text text-anchor="middle" x="382" y="-142.5" font-family="Helvetica,sans-Serif" font-size="10.00" fill="#000000">tds_pool_socket</text>
</a>
</g>
</g>
<!-- Node8&#45;&gt;Node6 -->
<g id="edge11" class="edge">
<title>Node8&#45;&gt;Node6</title>
<path fill="none" stroke="#9a32cd" stroke-dasharray="5,2" d="M359.3207,-129.4223C340.0554,-116.1895 313.0253,-97.6234 296.8388,-86.5054"/>
<polygon fill="#9a32cd" stroke="#9a32cd" points="357.5912,-132.4805 367.8157,-135.2573 361.5545,-126.7105 357.5912,-132.4805"/>
<text text-anchor="middle" x="350.5" y="-108" font-family="Helvetica,sans-Serif" font-size="10.00" fill="#000000"> sock</text>
</g>
<!-- Node8&#45;&gt;Node7 -->
<g id="edge9" class="edge">
<title>Node8&#45;&gt;Node7</title>
<path fill="none" stroke="#9a32cd" stroke-dasharray="5,2" d="M386.6702,-125.4211C391.0122,-102.0967 394.2491,-63.1359 375,-38 369.6495,-31.0131 352.0617,-24.5641 334.5399,-19.6207"/>
<polygon fill="#9a32cd" stroke="#9a32cd" points="383.2448,-124.7025 384.609,-135.2092 390.0946,-126.145 383.2448,-124.7025"/>
<text text-anchor="middle" x="401.5" y="-74.5" font-family="Helvetica,sans-Serif" font-size="10.00" fill="#000000"> sock</text>
</g>
<!-- Node10 -->
<g id="node9" class="node">
<title>Node10</title>
<g id="a_node9"><a xlink:href="a01132.html" target="_top" xlink:title=" ">
<polygon fill="#ffffff" stroke="#ff0000" points="255,-135.5 255,-154.5 311,-154.5 311,-135.5 255,-135.5"/>
<text text-anchor="middle" x="283" y="-142.5" font-family="Helvetica,sans-Serif" font-size="10.00" fill="#000000">tds_login</text>
</a>
</g>
</g>
<!-- Node10&#45;&gt;Node6 -->
<g id="edge10" class="edge">
<title>Node10&#45;&gt;Node6</title>
<path fill="none" stroke="#9a32cd" stroke-dasharray="5,2" d="M283,-125.1951C283,-112.5514 283,-96.7157 283,-86.7247"/>
<polygon fill="#9a32cd" stroke="#9a32cd" points="279.5001,-125.2572 283,-135.2573 286.5001,-125.2573 279.5001,-125.2572"/>
<text text-anchor="middle" x="295" y="-108" font-family="Helvetica,sans-Serif" font-size="10.00" fill="#000000"> login</text>
</g>
</g>
</svg>
