<?xml version="1.0" encoding="UTF-8" standalone="no"?>
<!DOCTYPE svg PUBLIC "-//W3C//DTD SVG 1.1//EN"
 "http://www.w3.org/Graphics/SVG/1.1/DTD/svg11.dtd">
<!-- Generated by graphviz version 2.40.1 (20161225.0304)
 -->
<!-- Title: tds_quoteout_stream Pages: 1 -->
<svg width="1048pt" height="544pt"
 viewBox="0.00 0.00 1048.00 544.00" xmlns="http://www.w3.org/2000/svg" xmlns:xlink="http://www.w3.org/1999/xlink">
<g id="graph0" class="graph" transform="scale(1 1) rotate(0) translate(4 540)">
<title>tds_quoteout_stream</title>
<polygon fill="#ffffff" stroke="transparent" points="-4,4 -4,-540 1044,-540 1044,4 -4,4"/>
<!-- Node1 -->
<g id="node1" class="node">
<title>Node1</title>
<g id="a_node1"><a xlink:title=" ">
<polygon fill="#bfbfbf" stroke="#000000" points="579,-271.5 579,-290.5 687,-290.5 687,-271.5 579,-271.5"/>
<text text-anchor="middle" x="633" y="-278.5" font-family="Helvetica,sans-Serif" font-size="10.00" fill="#000000">tds_quoteout_stream</text>
</a>
</g>
</g>
<!-- Node2 -->
<g id="node2" class="node">
<title>Node2</title>
<g id="a_node2"><a xlink:href="a01224.html" target="_top" xlink:title="Information for a server connection.">
<polygon fill="#ffffff" stroke="#000000" points="396.5,-342.5 396.5,-361.5 461.5,-361.5 461.5,-342.5 396.5,-342.5"/>
<text text-anchor="middle" x="429" y="-349.5" font-family="Helvetica,sans-Serif" font-size="10.00" fill="#000000">tds_socket</text>
</a>
</g>
</g>
<!-- Node2&#45;&gt;Node1 -->
<g id="edge1" class="edge">
<title>Node2&#45;&gt;Node1</title>
<path fill="none" stroke="#9a32cd" stroke-dasharray="5,2" d="M450.131,-336.536C462.8588,-327.8831 479.7102,-317.551 496,-311 522.3173,-300.4163 553.054,-293.2525 578.7374,-288.5879"/>
<polygon fill="#9a32cd" stroke="#9a32cd" points="447.8473,-333.8621 441.659,-342.4619 451.8595,-339.5982 447.8473,-333.8621"/>
<text text-anchor="middle" x="528.5" y="-314" font-family="Helvetica,sans-Serif" font-size="10.00" fill="#000000"> tds</text>
</g>
<!-- Node9 -->
<g id="node8" class="node">
<title>Node9</title>
<g id="a_node8"><a xlink:href="a01172.html" target="_top" xlink:title="Hold information for any results.">
<polygon fill="#ffffff" stroke="#ff0000" points="593,-394.5 593,-413.5 673,-413.5 673,-394.5 593,-394.5"/>
<text text-anchor="middle" x="633" y="-401.5" font-family="Helvetica,sans-Serif" font-size="10.00" fill="#000000">tds_result_info</text>
</a>
</g>
</g>
<!-- Node2&#45;&gt;Node9 -->
<g id="edge10" class="edge">
<title>Node2&#45;&gt;Node9</title>
<path fill="none" stroke="#9a32cd" stroke-dasharray="5,2" d="M471.7229,-351.885C498.3936,-353.2288 532.8805,-357.6064 561,-370 570.5292,-374.2 569.9449,-379.857 579,-385 585.4813,-388.6812 592.7999,-391.8362 599.9088,-394.4574"/>
<polygon fill="#9a32cd" stroke="#9a32cd" points="471.6738,-348.3807 461.5481,-351.4986 471.408,-355.3757 471.6738,-348.3807"/>
<text text-anchor="middle" x="528.5" y="-373" font-family="Helvetica,sans-Serif" font-size="10.00" fill="#000000"> attached_to</text>
</g>
<!-- Node3 -->
<g id="node3" class="node">
<title>Node3</title>
<g id="a_node3"><a xlink:href="a01132.html" target="_top" xlink:title=" ">
<polygon fill="#ffffff" stroke="#000000" points="213.5,-318.5 213.5,-337.5 269.5,-337.5 269.5,-318.5 213.5,-318.5"/>
<text text-anchor="middle" x="241.5" y="-325.5" font-family="Helvetica,sans-Serif" font-size="10.00" fill="#000000">tds_login</text>
</a>
</g>
</g>
<!-- Node3&#45;&gt;Node2 -->
<g id="edge2" class="edge">
<title>Node3&#45;&gt;Node2</title>
<path fill="none" stroke="#9a32cd" stroke-dasharray="5,2" d="M279.6812,-332.8872C313.9836,-337.2779 363.8163,-343.6565 396.3165,-347.8165"/>
<polygon fill="#9a32cd" stroke="#9a32cd" points="279.9341,-329.3911 269.5706,-331.593 279.0453,-336.3344 279.9341,-329.3911"/>
<text text-anchor="middle" x="327" y="-345" font-family="Helvetica,sans-Serif" font-size="10.00" fill="#000000"> login</text>
</g>
<!-- Node4 -->
<g id="node4" class="node">
<title>Node4</title>
<g id="a_node4"><a xlink:href="a01128.html" target="_top" xlink:title=" ">
<polygon fill="#ffffff" stroke="#ff0000" points="0,-243.5 0,-262.5 84,-262.5 84,-243.5 0,-243.5"/>
<text text-anchor="middle" x="42" y="-250.5" font-family="Helvetica,sans-Serif" font-size="10.00" fill="#000000">tds_capabilities</text>
</a>
</g>
</g>
<!-- Node4&#45;&gt;Node3 -->
<g id="edge3" class="edge">
<title>Node4&#45;&gt;Node3</title>
<path fill="none" stroke="#9a32cd" stroke-dasharray="5,2" d="M77.2304,-266.2445C116.9778,-281.1872 180.6648,-305.1296 215.9258,-318.3856"/>
<polygon fill="#9a32cd" stroke="#9a32cd" points="78.2648,-262.8943 67.6727,-262.6514 75.8015,-269.4465 78.2648,-262.8943"/>
<text text-anchor="middle" x="146.5" y="-310" font-family="Helvetica,sans-Serif" font-size="10.00" fill="#000000"> capabilities</text>
</g>
<!-- Node19 -->
<g id="node11" class="node">
<title>Node19</title>
<g id="a_node11"><a xlink:href="a01220.html" target="_top" xlink:title=" ">
<polygon fill="#ffffff" stroke="#000000" points="957,-171.5 957,-190.5 1040,-190.5 1040,-171.5 957,-171.5"/>
<text text-anchor="middle" x="998.5" y="-178.5" font-family="Helvetica,sans-Serif" font-size="10.00" fill="#000000">tds_connection</text>
</a>
</g>
</g>
<!-- Node4&#45;&gt;Node19 -->
<g id="edge17" class="edge">
<title>Node4&#45;&gt;Node19</title>
<path fill="none" stroke="#9a32cd" stroke-dasharray="5,2" d="M71.0309,-239.1888C109.2193,-222.319 178.839,-196 241.5,-196 241.5,-196 241.5,-196 528.5,-196 710.9986,-196 756.7684,-195.8677 939,-186 944.7966,-185.6861 950.9044,-185.2703 956.9098,-184.8122"/>
<polygon fill="#9a32cd" stroke="#9a32cd" points="69.2469,-236.154 61.5735,-243.4595 72.1279,-242.5337 69.2469,-236.154"/>
<text text-anchor="middle" x="528.5" y="-199" font-family="Helvetica,sans-Serif" font-size="10.00" fill="#000000"> capabilities</text>
</g>
<!-- Node6 -->
<g id="node5" class="node">
<title>Node6</title>
<g id="a_node5"><a xlink:href="a01268.html" target="_top" xlink:title="Structure to hold a string.">
<polygon fill="#ffffff" stroke="#000000" points="16,-318.5 16,-337.5 68,-337.5 68,-318.5 16,-318.5"/>
<text text-anchor="middle" x="42" y="-325.5" font-family="Helvetica,sans-Serif" font-size="10.00" fill="#000000">tds_dstr</text>
</a>
</g>
</g>
<!-- Node6&#45;&gt;Node3 -->
<g id="edge4" class="edge">
<title>Node6&#45;&gt;Node3</title>
<path fill="none" stroke="#9a32cd" stroke-dasharray="5,2" d="M78.4347,-328C117.3419,-328 178.1563,-328 213.4845,-328"/>
<polygon fill="#9a32cd" stroke="#9a32cd" points="78.0812,-324.5001 68.0811,-328 78.0811,-331.5001 78.0812,-324.5001"/>
<text text-anchor="middle" x="146.5" y="-452" font-family="Helvetica,sans-Serif" font-size="10.00" fill="#000000"> server_realm_name</text>
<text text-anchor="middle" x="146.5" y="-441" font-family="Helvetica,sans-Serif" font-size="10.00" fill="#000000">password</text>
<text text-anchor="middle" x="146.5" y="-430" font-family="Helvetica,sans-Serif" font-size="10.00" fill="#000000">server_name</text>
<text text-anchor="middle" x="146.5" y="-419" font-family="Helvetica,sans-Serif" font-size="10.00" fill="#000000">dump_file</text>
<text text-anchor="middle" x="146.5" y="-408" font-family="Helvetica,sans-Serif" font-size="10.00" fill="#000000">library</text>
<text text-anchor="middle" x="146.5" y="-397" font-family="Helvetica,sans-Serif" font-size="10.00" fill="#000000">crlfile</text>
<text text-anchor="middle" x="146.5" y="-386" font-family="Helvetica,sans-Serif" font-size="10.00" fill="#000000">server_spn</text>
<text text-anchor="start" x="102" y="-375" font-family="Helvetica,sans-Serif" font-size="10.00" fill="#000000">client_host</text>
<text text-anchor="middle" x="146.5" y="-364" font-family="Helvetica,sans-Serif" font-size="10.00" fill="#000000">_name</text>
<text text-anchor="middle" x="146.5" y="-353" font-family="Helvetica,sans-Serif" font-size="10.00" fill="#000000">client_charset</text>
<text text-anchor="middle" x="146.5" y="-342" font-family="Helvetica,sans-Serif" font-size="10.00" fill="#000000">openssl_ciphers</text>
<text text-anchor="middle" x="146.5" y="-331" font-family="Helvetica,sans-Serif" font-size="10.00" fill="#000000">...</text>
</g>
<!-- Node7 -->
<g id="node6" class="node">
<title>Node7</title>
<g id="a_node6"><a xlink:href="a01212.html" target="_top" xlink:title=" ">
<polygon fill="#ffffff" stroke="#000000" points="209,-238.5 209,-257.5 274,-257.5 274,-238.5 209,-238.5"/>
<text text-anchor="middle" x="241.5" y="-245.5" font-family="Helvetica,sans-Serif" font-size="10.00" fill="#000000">tds_packet</text>
</a>
</g>
</g>
<!-- Node7&#45;&gt;Node2 -->
<g id="edge5" class="edge">
<title>Node7&#45;&gt;Node2</title>
<path fill="none" stroke="#9a32cd" stroke-dasharray="5,2" d="M280.4397,-260.9412C304.7207,-269.7802 336.1538,-282.6527 362,-298 383.8376,-310.9671 406.2178,-330.5251 418.7899,-342.2023"/>
<polygon fill="#9a32cd" stroke="#9a32cd" points="281.4388,-257.5817 270.8441,-257.5215 279.0889,-264.1755 281.4388,-257.5817"/>
<text text-anchor="middle" x="327" y="-323" font-family="Helvetica,sans-Serif" font-size="10.00" fill="#000000"> frozen_packets</text>
<text text-anchor="middle" x="327" y="-312" font-family="Helvetica,sans-Serif" font-size="10.00" fill="#000000">recv_packet</text>
<text text-anchor="middle" x="327" y="-301" font-family="Helvetica,sans-Serif" font-size="10.00" fill="#000000">send_packet</text>
</g>
<!-- Node7&#45;&gt;Node7 -->
<g id="edge6" class="edge">
<title>Node7&#45;&gt;Node7</title>
<path fill="none" stroke="#9a32cd" stroke-dasharray="5,2" d="M226.0309,-267.7663C227.2459,-272.4965 232.4022,-276 241.5,-276 256.4297,-276 260.7453,-266.5653 254.4468,-257.7571"/>
<polygon fill="#9a32cd" stroke="#9a32cd" points="229.5034,-268.3092 228.5532,-257.7571 222.7156,-266.5986 229.5034,-268.3092"/>
<text text-anchor="middle" x="241.5" y="-279" font-family="Helvetica,sans-Serif" font-size="10.00" fill="#000000"> next</text>
</g>
<!-- Node7&#45;&gt;Node19 -->
<g id="edge22" class="edge">
<title>Node7&#45;&gt;Node19</title>
<path fill="none" stroke="#9a32cd" stroke-dasharray="5,2" d="M284.196,-245.8558C322.1916,-244.1333 379.2843,-242 429,-242 429,-242 429,-242 809,-242 868.1028,-242 883.6706,-234.7797 939,-214 955.1448,-207.9366 972.2272,-198.0558 983.9266,-190.684"/>
<polygon fill="#9a32cd" stroke="#9a32cd" points="283.8347,-242.3687 274.0078,-246.3287 284.1593,-249.3612 283.8347,-242.3687"/>
<text text-anchor="middle" x="633" y="-245" font-family="Helvetica,sans-Serif" font-size="10.00" fill="#000000"> packet_cache</text>
</g>
<!-- Node8 -->
<g id="node7" class="node">
<title>Node8</title>
<g id="a_node7"><a xlink:href="a01196.html" target="_top" xlink:title="Holds information for a dynamic (also called prepared) query.">
<polygon fill="#ffffff" stroke="#000000" points="773,-418.5 773,-437.5 845,-437.5 845,-418.5 773,-418.5"/>
<text text-anchor="middle" x="809" y="-425.5" font-family="Helvetica,sans-Serif" font-size="10.00" fill="#000000">tds_dynamic</text>
</a>
</g>
</g>
<!-- Node8&#45;&gt;Node2 -->
<g id="edge7" class="edge">
<title>Node8&#45;&gt;Node2</title>
<path fill="none" stroke="#9a32cd" stroke-dasharray="5,2" d="M772.4238,-440.6645C711.373,-459.4921 586.4901,-487.9903 496,-442 461.9642,-424.7018 440.7715,-381.1351 432.7071,-361.6635"/>
<polygon fill="#9a32cd" stroke="#9a32cd" points="773.5355,-443.9838 782.0095,-437.6245 771.4193,-437.3113 773.5355,-443.9838"/>
<text text-anchor="middle" x="633" y="-469" font-family="Helvetica,sans-Serif" font-size="10.00" fill="#000000"> cur_dyn</text>
</g>
<!-- Node8&#45;&gt;Node8 -->
<g id="edge8" class="edge">
<title>Node8&#45;&gt;Node8</title>
<path fill="none" stroke="#9a32cd" stroke-dasharray="5,2" d="M793.5309,-447.7663C794.7459,-452.4965 799.9022,-456 809,-456 823.9297,-456 828.2453,-446.5653 821.9468,-437.7571"/>
<polygon fill="#9a32cd" stroke="#9a32cd" points="797.0034,-448.3092 796.0532,-437.7571 790.2156,-446.5986 797.0034,-448.3092"/>
<text text-anchor="middle" x="809" y="-459" font-family="Helvetica,sans-Serif" font-size="10.00" fill="#000000"> next</text>
</g>
<!-- Node8&#45;&gt;Node19 -->
<g id="edge23" class="edge">
<title>Node8&#45;&gt;Node19</title>
<path fill="none" stroke="#9a32cd" stroke-dasharray="5,2" d="M833.3974,-412.6041C862.1463,-393.3634 909.6994,-357.94 939,-317 969.4483,-274.4563 989.0211,-213.8675 995.8203,-190.6035"/>
<polygon fill="#9a32cd" stroke="#9a32cd" points="831.2086,-409.8541 824.771,-418.2689 835.051,-415.7053 831.2086,-409.8541"/>
<text text-anchor="middle" x="907" y="-382" font-family="Helvetica,sans-Serif" font-size="10.00" fill="#000000"> dyns</text>
</g>
<!-- Node9&#45;&gt;Node2 -->
<g id="edge11" class="edge">
<title>Node9&#45;&gt;Node2</title>
<path fill="none" stroke="#9a32cd" stroke-dasharray="5,2" d="M582.7691,-398.5325C556.5621,-394.9394 524.1768,-389.3289 496,-381 479.1047,-376.0058 460.804,-367.8854 447.6051,-361.506"/>
<polygon fill="#9a32cd" stroke="#9a32cd" points="582.4837,-402.025 592.8546,-399.8584 583.3962,-395.0847 582.4837,-402.025"/>
<text text-anchor="middle" x="528.5" y="-430" font-family="Helvetica,sans-Serif" font-size="10.00" fill="#000000"> param_info</text>
<text text-anchor="middle" x="528.5" y="-419" font-family="Helvetica,sans-Serif" font-size="10.00" fill="#000000">current_results</text>
<text text-anchor="middle" x="528.5" y="-408" font-family="Helvetica,sans-Serif" font-size="10.00" fill="#000000">res_info</text>
<text text-anchor="middle" x="528.5" y="-397" font-family="Helvetica,sans-Serif" font-size="10.00" fill="#000000">comp_info</text>
</g>
<!-- Node9&#45;&gt;Node8 -->
<g id="edge9" class="edge">
<title>Node9&#45;&gt;Node8</title>
<path fill="none" stroke="#9a32cd" stroke-dasharray="5,2" d="M683.5859,-410.8981C712.167,-414.7955 747.2183,-419.5752 772.9923,-423.0899"/>
<polygon fill="#9a32cd" stroke="#9a32cd" points="683.7592,-407.3894 673.378,-409.5061 682.8133,-414.3252 683.7592,-407.3894"/>
<text text-anchor="middle" x="724" y="-432" font-family="Helvetica,sans-Serif" font-size="10.00" fill="#000000"> res_info</text>
<text text-anchor="middle" x="724" y="-421" font-family="Helvetica,sans-Serif" font-size="10.00" fill="#000000">params</text>
</g>
<!-- Node17 -->
<g id="node9" class="node">
<title>Node17</title>
<g id="a_node9"><a xlink:href="a01188.html" target="_top" xlink:title="Holds informations about a cursor.">
<polygon fill="#ffffff" stroke="#000000" points="778,-334.5 778,-353.5 840,-353.5 840,-334.5 778,-334.5"/>
<text text-anchor="middle" x="809" y="-341.5" font-family="Helvetica,sans-Serif" font-size="10.00" fill="#000000">tds_cursor</text>
</a>
</g>
</g>
<!-- Node9&#45;&gt;Node17 -->
<g id="edge14" class="edge">
<title>Node9&#45;&gt;Node17</title>
<path fill="none" stroke="#9a32cd" stroke-dasharray="5,2" d="M677.782,-391.6318C697.8704,-385.8109 721.7735,-378.5059 743,-371 757.9399,-365.7171 774.4399,-358.9671 787.205,-353.5378"/>
<polygon fill="#9a32cd" stroke="#9a32cd" points="676.6059,-388.3279 667.9581,-394.4488 678.5355,-395.0567 676.6059,-388.3279"/>
<text text-anchor="middle" x="724" y="-385" font-family="Helvetica,sans-Serif" font-size="10.00" fill="#000000"> res_info</text>
</g>
<!-- Node17&#45;&gt;Node2 -->
<g id="edge12" class="edge">
<title>Node17&#45;&gt;Node2</title>
<path fill="none" stroke="#9a32cd" stroke-dasharray="5,2" d="M767.9094,-340.6328C744.264,-338.8638 713.9807,-336.8837 687,-336 639.0257,-334.4288 626.9323,-333.4508 579,-336 538.4637,-338.1558 492.0255,-343.5666 461.6925,-347.5004"/>
<polygon fill="#9a32cd" stroke="#9a32cd" points="767.7005,-344.127 777.9384,-341.4001 768.2345,-337.1474 767.7005,-344.127"/>
<text text-anchor="middle" x="633" y="-339" font-family="Helvetica,sans-Serif" font-size="10.00" fill="#000000"> cur_cursor</text>
</g>
<!-- Node17&#45;&gt;Node17 -->
<g id="edge15" class="edge">
<title>Node17&#45;&gt;Node17</title>
<path fill="none" stroke="#9a32cd" stroke-dasharray="5,2" d="M793.5309,-363.7663C794.7459,-368.4965 799.9022,-372 809,-372 823.9297,-372 828.2453,-362.5653 821.9468,-353.7571"/>
<polygon fill="#9a32cd" stroke="#9a32cd" points="797.0034,-364.3092 796.0532,-353.7571 790.2156,-362.5986 797.0034,-364.3092"/>
<text text-anchor="middle" x="809" y="-375" font-family="Helvetica,sans-Serif" font-size="10.00" fill="#000000"> next</text>
</g>
<!-- Node17&#45;&gt;Node19 -->
<g id="edge25" class="edge">
<title>Node17&#45;&gt;Node19</title>
<path fill="none" stroke="#9a32cd" stroke-dasharray="5,2" d="M835.6605,-329.234C863.2123,-313.254 906.6405,-286.0013 939,-256 961.4265,-235.2078 982.3527,-205.5593 992.3497,-190.5267"/>
<polygon fill="#9a32cd" stroke="#9a32cd" points="833.5653,-326.4002 826.6214,-334.4023 837.0398,-332.4771 833.5653,-326.4002"/>
<text text-anchor="middle" x="907" y="-305" font-family="Helvetica,sans-Serif" font-size="10.00" fill="#000000"> cursors</text>
</g>
<!-- Node18 -->
<g id="node10" class="node">
<title>Node18</title>
<g id="a_node10"><a xlink:href="a01184.html" target="_top" xlink:title=" ">
<polygon fill="#ffffff" stroke="#000000" points="585.5,-356.5 585.5,-375.5 680.5,-375.5 680.5,-356.5 585.5,-356.5"/>
<text text-anchor="middle" x="633" y="-363.5" font-family="Helvetica,sans-Serif" font-size="10.00" fill="#000000">tds_cursor_status</text>
</a>
</g>
</g>
<!-- Node18&#45;&gt;Node17 -->
<g id="edge13" class="edge">
<title>Node18&#45;&gt;Node17</title>
<path fill="none" stroke="#9a32cd" stroke-dasharray="5,2" d="M690.6795,-358.7901C719.7593,-355.1551 753.8718,-350.891 777.9778,-347.8778"/>
<polygon fill="#9a32cd" stroke="#9a32cd" points="690.1168,-355.3331 680.6281,-360.0465 690.9851,-362.279 690.1168,-355.3331"/>
<text text-anchor="middle" x="724" y="-359" font-family="Helvetica,sans-Serif" font-size="10.00" fill="#000000"> status</text>
</g>
<!-- Node19&#45;&gt;Node2 -->
<g id="edge16" class="edge">
<title>Node19&#45;&gt;Node2</title>
<path fill="none" stroke="#9a32cd" stroke-dasharray="5,2" d="M997.1164,-200.7908C991.7985,-259.001 967.0106,-428.5255 857,-476 709.6308,-539.5963 627.6389,-557.8334 496,-466 457.9675,-439.4679 438.2395,-383.8281 431.609,-361.5356"/>
<polygon fill="#9a32cd" stroke="#9a32cd" points="1000.6147,-200.9537 997.9399,-190.702 993.6379,-200.3841 1000.6147,-200.9537"/>
<text text-anchor="middle" x="724" y="-528" font-family="Helvetica,sans-Serif" font-size="10.00" fill="#000000"> conn</text>
</g>
<!-- Node20 -->
<g id="node12" class="node">
<title>Node20</title>
<g id="a_node12"><a xlink:href="a01216.html" target="_top" xlink:title=" ">
<polygon fill="#ffffff" stroke="#000000" points="764.5,-152.5 764.5,-171.5 853.5,-171.5 853.5,-152.5 764.5,-152.5"/>
<text text-anchor="middle" x="809" y="-159.5" font-family="Helvetica,sans-Serif" font-size="10.00" fill="#000000">tds_poll_wakeup</text>
</a>
</g>
</g>
<!-- Node20&#45;&gt;Node19 -->
<g id="edge18" class="edge">
<title>Node20&#45;&gt;Node19</title>
<path fill="none" stroke="#9a32cd" stroke-dasharray="5,2" d="M863.5506,-167.4449C886.8026,-169.7684 914.2293,-172.5125 939,-175 944.785,-175.5809 950.8862,-176.1948 956.8885,-176.7994"/>
<polygon fill="#9a32cd" stroke="#9a32cd" points="863.8228,-163.9547 853.5244,-166.4432 863.1269,-170.9201 863.8228,-163.9547"/>
<text text-anchor="middle" x="907" y="-178" font-family="Helvetica,sans-Serif" font-size="10.00" fill="#000000"> wakeup</text>
</g>
<!-- Node21 -->
<g id="node13" class="node">
<title>Node21</title>
<g id="a_node13"><a xlink:href="a01192.html" target="_top" xlink:title="Current environment as reported by the server.">
<polygon fill="#ffffff" stroke="#000000" points="783.5,-114.5 783.5,-133.5 834.5,-133.5 834.5,-114.5 783.5,-114.5"/>
<text text-anchor="middle" x="809" y="-121.5" font-family="Helvetica,sans-Serif" font-size="10.00" fill="#000000">tds_env</text>
</a>
</g>
</g>
<!-- Node21&#45;&gt;Node19 -->
<g id="edge19" class="edge">
<title>Node21&#45;&gt;Node19</title>
<path fill="none" stroke="#9a32cd" stroke-dasharray="5,2" d="M844.8216,-129.7933C871.2633,-134.5955 907.9028,-142.3601 939,-153 953.5823,-157.9893 969.3313,-165.503 980.9613,-171.4912"/>
<polygon fill="#9a32cd" stroke="#9a32cd" points="845.3235,-126.3279 834.8676,-128.0377 844.1076,-133.2215 845.3235,-126.3279"/>
<text text-anchor="middle" x="907" y="-156" font-family="Helvetica,sans-Serif" font-size="10.00" fill="#000000"> env</text>
</g>
<!-- Node22 -->
<g id="node14" class="node">
<title>Node22</title>
<g id="a_node14"><a xlink:href="a01204.html" target="_top" xlink:title=" ">
<polygon fill="#ffffff" stroke="#ff0000" points="775,-76.5 775,-95.5 843,-95.5 843,-76.5 775,-76.5"/>
<text text-anchor="middle" x="809" y="-83.5" font-family="Helvetica,sans-Serif" font-size="10.00" fill="#000000">tds_context</text>
</a>
</g>
</g>
<!-- Node22&#45;&gt;Node19 -->
<g id="edge20" class="edge">
<title>Node22&#45;&gt;Node19</title>
<path fill="none" stroke="#9a32cd" stroke-dasharray="5,2" d="M853.295,-91.4967C879.5616,-96.1941 912.7417,-104.7265 939,-120 961.7626,-133.2401 981.6368,-157.5592 991.6345,-171.1495"/>
<polygon fill="#9a32cd" stroke="#9a32cd" points="853.6716,-88.0113 843.2327,-89.822 852.5223,-94.9163 853.6716,-88.0113"/>
<text text-anchor="middle" x="907" y="-123" font-family="Helvetica,sans-Serif" font-size="10.00" fill="#000000"> tds_ctx</text>
</g>
<!-- Node24 -->
<g id="node15" class="node">
<title>Node24</title>
<g id="a_node15"><a xlink:href="a01208.html" target="_top" xlink:title=" ">
<polygon fill="#ffffff" stroke="#000000" points="761,-38.5 761,-57.5 857,-57.5 857,-38.5 761,-38.5"/>
<text text-anchor="middle" x="809" y="-45.5" font-family="Helvetica,sans-Serif" font-size="10.00" fill="#000000">tds_authentication</text>
</a>
</g>
</g>
<!-- Node24&#45;&gt;Node19 -->
<g id="edge21" class="edge">
<title>Node24&#45;&gt;Node19</title>
<path fill="none" stroke="#9a32cd" stroke-dasharray="5,2" d="M867.144,-52.9226C891.251,-57.3257 918.3474,-65.5805 939,-81 970.8899,-104.8093 988.9339,-151.1925 995.5571,-171.3075"/>
<polygon fill="#9a32cd" stroke="#9a32cd" points="867.4577,-49.4274 857.0229,-51.2617 866.3241,-56.335 867.4577,-49.4274"/>
<text text-anchor="middle" x="907" y="-84" font-family="Helvetica,sans-Serif" font-size="10.00" fill="#000000"> authentication</text>
</g>
<!-- Node11 -->
<g id="node16" class="node">
<title>Node11</title>
<g id="a_node16"><a xlink:href="a00980.html" target="_top" xlink:title=" ">
<polygon fill="#ffffff" stroke="#ff0000" points="774.5,-.5 774.5,-19.5 843.5,-19.5 843.5,-.5 774.5,-.5"/>
<text text-anchor="middle" x="809" y="-7.5" font-family="Helvetica,sans-Serif" font-size="10.00" fill="#000000">tdsiconvinfo</text>
</a>
</g>
</g>
<!-- Node11&#45;&gt;Node19 -->
<g id="edge24" class="edge">
<title>Node11&#45;&gt;Node19</title>
<path fill="none" stroke="#9a32cd" stroke-dasharray="5,2" d="M853.8589,-10.3908C881.2494,-12.8505 915.4196,-20.1732 939,-40 981.0958,-75.395 994.0173,-145.7388 997.4216,-171.3706"/>
<polygon fill="#9a32cd" stroke="#9a32cd" points="853.9525,-6.8887 843.7293,-9.6703 853.4558,-13.8711 853.9525,-6.8887"/>
<text text-anchor="middle" x="907" y="-43" font-family="Helvetica,sans-Serif" font-size="10.00" fill="#000000"> char_convs</text>
</g>
<!-- Node25 -->
<g id="node17" class="node">
<title>Node25</title>
<g id="a_node17"><a xlink:href="a01080.html" target="_top" xlink:title="define a stream of data used for output">
<polygon fill="#ffffff" stroke="#000000" points="380,-270.5 380,-289.5 478,-289.5 478,-270.5 380,-270.5"/>
<text text-anchor="middle" x="429" y="-277.5" font-family="Helvetica,sans-Serif" font-size="10.00" fill="#000000">tds_output_stream</text>
</a>
</g>
</g>
<!-- Node25&#45;&gt;Node1 -->
<g id="edge26" class="edge">
<title>Node25&#45;&gt;Node1</title>
<path fill="none" stroke="#9a32cd" stroke-dasharray="5,2" d="M488.2265,-277.2049C490.8532,-277.1261 493.4536,-277.057 496,-277 524.8817,-276.3537 532.1222,-276.1985 561,-277 566.7566,-277.1598 572.7692,-277.3913 578.7598,-277.6636"/>
<polygon fill="#9a32cd" stroke="#9a32cd" points="487.8998,-273.7139 478.0244,-277.5516 488.1376,-280.7099 487.8998,-273.7139"/>
<text text-anchor="middle" x="528.5" y="-280" font-family="Helvetica,sans-Serif" font-size="10.00" fill="#000000"> stream</text>
</g>
</g>
</svg>
