<?xml version="1.0" encoding="UTF-8" standalone="no"?>
<!DOCTYPE svg PUBLIC "-//W3C//DTD SVG 1.1//EN"
 "http://www.w3.org/Graphics/SVG/1.1/DTD/svg11.dtd">
<!-- Generated by graphviz version 2.40.1 (20161225.0304)
 -->
<!-- Title: tds_save_context Pages: 1 -->
<svg width="270pt" height="162pt"
 viewBox="0.00 0.00 270.00 162.00" xmlns="http://www.w3.org/2000/svg" xmlns:xlink="http://www.w3.org/1999/xlink">
<g id="graph0" class="graph" transform="scale(1 1) rotate(0) translate(4 158)">
<title>tds_save_context</title>
<polygon fill="#ffffff" stroke="transparent" points="-4,4 -4,-158 266,-158 266,4 -4,4"/>
<!-- Node1 -->
<g id="node1" class="node">
<title>Node1</title>
<g id="a_node1"><a xlink:title=" ">
<polygon fill="#bfbfbf" stroke="#000000" points="78,-.5 78,-19.5 172,-19.5 172,-.5 78,-.5"/>
<text text-anchor="middle" x="125" y="-7.5" font-family="Helvetica,sans-Serif" font-size="10.00" fill="#000000">tds_save_context</text>
</a>
</g>
</g>
<!-- Node2 -->
<g id="node2" class="node">
<title>Node2</title>
<g id="a_node2"><a xlink:href="a01204.html" target="_top" xlink:title=" ">
<polygon fill="#ffffff" stroke="#000000" points="0,-67.5 0,-86.5 68,-86.5 68,-67.5 0,-67.5"/>
<text text-anchor="middle" x="34" y="-74.5" font-family="Helvetica,sans-Serif" font-size="10.00" fill="#000000">tds_context</text>
</a>
</g>
</g>
<!-- Node2&#45;&gt;Node1 -->
<g id="edge1" class="edge">
<title>Node2&#45;&gt;Node1</title>
<path fill="none" stroke="#9a32cd" stroke-dasharray="5,2" d="M55.5196,-61.1559C73.0628,-48.2395 97.2652,-30.4201 111.9861,-19.5817"/>
<polygon fill="#9a32cd" stroke="#9a32cd" points="53.0157,-58.653 47.0381,-67.4005 57.166,-64.29 53.0157,-58.653"/>
<text text-anchor="middle" x="93.5" y="-41" font-family="Helvetica,sans-Serif" font-size="10.00" fill="#000000"> ctx</text>
</g>
<!-- Node3 -->
<g id="node3" class="node">
<title>Node3</title>
<g id="a_node3"><a xlink:href="a01140.html" target="_top" xlink:title=" ">
<polygon fill="#ffffff" stroke="#000000" points="3.5,-134.5 3.5,-153.5 64.5,-153.5 64.5,-134.5 3.5,-134.5"/>
<text text-anchor="middle" x="34" y="-141.5" font-family="Helvetica,sans-Serif" font-size="10.00" fill="#000000">tds_locale</text>
</a>
</g>
</g>
<!-- Node3&#45;&gt;Node2 -->
<g id="edge2" class="edge">
<title>Node3&#45;&gt;Node2</title>
<path fill="none" stroke="#9a32cd" stroke-dasharray="5,2" d="M34,-124.1079C34,-111.714 34,-96.3263 34,-86.5817"/>
<polygon fill="#9a32cd" stroke="#9a32cd" points="30.5001,-124.4005 34,-134.4005 37.5001,-124.4006 30.5001,-124.4005"/>
<text text-anchor="middle" x="48.5" y="-108" font-family="Helvetica,sans-Serif" font-size="10.00" fill="#000000"> locale</text>
</g>
<!-- Node4 -->
<g id="node4" class="node">
<title>Node4</title>
<g id="a_node4"><a xlink:href="a00756.html" target="_top" xlink:title=" ">
<polygon fill="#ffffff" stroke="#000000" points="86.5,-67.5 86.5,-86.5 163.5,-86.5 163.5,-67.5 86.5,-67.5"/>
<text text-anchor="middle" x="125" y="-74.5" font-family="Helvetica,sans-Serif" font-size="10.00" fill="#000000">tds_save_env</text>
</a>
</g>
</g>
<!-- Node4&#45;&gt;Node1 -->
<g id="edge3" class="edge">
<title>Node4&#45;&gt;Node1</title>
<path fill="none" stroke="#9a32cd" stroke-dasharray="5,2" d="M125,-57.1079C125,-44.714 125,-29.3263 125,-19.5817"/>
<polygon fill="#9a32cd" stroke="#9a32cd" points="121.5001,-57.4005 125,-67.4005 128.5001,-57.4006 121.5001,-57.4005"/>
<text text-anchor="middle" x="137.5" y="-41" font-family="Helvetica,sans-Serif" font-size="10.00" fill="#000000"> envs</text>
</g>
<!-- Node5 -->
<g id="node5" class="node">
<title>Node5</title>
<g id="a_node5"><a xlink:href="a00752.html" target="_top" xlink:title=" ">
<polygon fill="#ffffff" stroke="#000000" points="182,-67.5 182,-86.5 262,-86.5 262,-67.5 182,-67.5"/>
<text text-anchor="middle" x="222" y="-74.5" font-family="Helvetica,sans-Serif" font-size="10.00" fill="#000000">tds_save_msg</text>
</a>
</g>
</g>
<!-- Node5&#45;&gt;Node1 -->
<g id="edge4" class="edge">
<title>Node5&#45;&gt;Node1</title>
<path fill="none" stroke="#9a32cd" stroke-dasharray="5,2" d="M199.8295,-61.6864C181.0736,-48.7312 154.7794,-30.5693 138.872,-19.5817"/>
<polygon fill="#9a32cd" stroke="#9a32cd" points="197.8851,-64.597 208.1023,-67.4005 201.8634,-58.8374 197.8851,-64.597"/>
<text text-anchor="middle" x="194" y="-41" font-family="Helvetica,sans-Serif" font-size="10.00" fill="#000000"> msgs</text>
</g>
<!-- Node6 -->
<g id="node6" class="node">
<title>Node6</title>
<g id="a_node6"><a xlink:href="a01176.html" target="_top" xlink:title=" ">
<polygon fill="#ffffff" stroke="#000000" points="184.5,-134.5 184.5,-153.5 259.5,-153.5 259.5,-134.5 184.5,-134.5"/>
<text text-anchor="middle" x="222" y="-141.5" font-family="Helvetica,sans-Serif" font-size="10.00" fill="#000000">tds_message</text>
</a>
</g>
</g>
<!-- Node6&#45;&gt;Node5 -->
<g id="edge5" class="edge">
<title>Node6&#45;&gt;Node5</title>
<path fill="none" stroke="#9a32cd" stroke-dasharray="5,2" d="M222,-124.1079C222,-111.714 222,-96.3263 222,-86.5817"/>
<polygon fill="#9a32cd" stroke="#9a32cd" points="218.5001,-124.4005 222,-134.4005 225.5001,-124.4006 218.5001,-124.4005"/>
<text text-anchor="middle" x="233" y="-108" font-family="Helvetica,sans-Serif" font-size="10.00" fill="#000000"> msg</text>
</g>
</g>
</svg>
