<?xml version="1.0" encoding="UTF-8" standalone="no"?>
<!DOCTYPE svg PUBLIC "-//W3C//DTD SVG 1.1//EN"
 "http://www.w3.org/Graphics/SVG/1.1/DTD/svg11.dtd">
<!-- Generated by graphviz version 2.40.1 (20161225.0304)
 -->
<!-- Title: tds_varmax_stream Pages: 1 -->
<svg width="1037pt" height="545pt"
 viewBox="0.00 0.00 1037.00 545.00" xmlns="http://www.w3.org/2000/svg" xmlns:xlink="http://www.w3.org/1999/xlink">
<g id="graph0" class="graph" transform="scale(1 1) rotate(0) translate(4 541)">
<title>tds_varmax_stream</title>
<polygon fill="#ffffff" stroke="transparent" points="-4,4 -4,-541 1033,-541 1033,4 -4,4"/>
<!-- Node1 -->
<g id="node1" class="node">
<title>Node1</title>
<g id="a_node1"><a xlink:title=" ">
<polygon fill="#bfbfbf" stroke="#000000" points="573,-271.5 573,-290.5 676,-290.5 676,-271.5 573,-271.5"/>
<text text-anchor="middle" x="624.5" y="-278.5" font-family="Helvetica,sans-Serif" font-size="10.00" fill="#000000">tds_varmax_stream</text>
</a>
</g>
</g>
<!-- Node2 -->
<g id="node2" class="node">
<title>Node2</title>
<g id="a_node2"><a xlink:href="a01224.html" target="_top" xlink:title="Information for a server connection.">
<polygon fill="#ffffff" stroke="#000000" points="393.5,-342.5 393.5,-361.5 458.5,-361.5 458.5,-342.5 393.5,-342.5"/>
<text text-anchor="middle" x="426" y="-349.5" font-family="Helvetica,sans-Serif" font-size="10.00" fill="#000000">tds_socket</text>
</a>
</g>
</g>
<!-- Node2&#45;&gt;Node1 -->
<g id="edge1" class="edge">
<title>Node2&#45;&gt;Node1</title>
<path fill="none" stroke="#9a32cd" stroke-dasharray="5,2" d="M446.0935,-336.5215C458.2202,-327.8637 474.3163,-317.5315 490,-311 516.2822,-300.0548 547.1929,-292.8028 572.7499,-288.1756"/>
<polygon fill="#9a32cd" stroke="#9a32cd" points="444.0112,-333.7082 438.0275,-342.4516 448.1576,-339.3481 444.0112,-333.7082"/>
<text text-anchor="middle" x="522.5" y="-314" font-family="Helvetica,sans-Serif" font-size="10.00" fill="#000000"> tds</text>
</g>
<!-- Node9 -->
<g id="node8" class="node">
<title>Node9</title>
<g id="a_node8"><a xlink:href="a01172.html" target="_top" xlink:title="Hold information for any results.">
<polygon fill="#ffffff" stroke="#ff0000" points="584.5,-394.5 584.5,-413.5 664.5,-413.5 664.5,-394.5 584.5,-394.5"/>
<text text-anchor="middle" x="624.5" y="-401.5" font-family="Helvetica,sans-Serif" font-size="10.00" fill="#000000">tds_result_info</text>
</a>
</g>
</g>
<!-- Node2&#45;&gt;Node9 -->
<g id="edge10" class="edge">
<title>Node2&#45;&gt;Node9</title>
<path fill="none" stroke="#9a32cd" stroke-dasharray="5,2" d="M468.8834,-352.1096C494.7891,-353.5811 527.9208,-358.0146 555,-370 564.5226,-374.2148 563.9841,-379.7887 573,-385 579.2707,-388.6245 586.3571,-391.7715 593.2222,-394.4051"/>
<polygon fill="#9a32cd" stroke="#9a32cd" points="468.7662,-348.6012 458.622,-351.6581 468.4584,-355.5944 468.7662,-348.6012"/>
<text text-anchor="middle" x="522.5" y="-373" font-family="Helvetica,sans-Serif" font-size="10.00" fill="#000000"> attached_to</text>
</g>
<!-- Node3 -->
<g id="node3" class="node">
<title>Node3</title>
<g id="a_node3"><a xlink:href="a01132.html" target="_top" xlink:title=" ">
<polygon fill="#ffffff" stroke="#000000" points="213.5,-318.5 213.5,-337.5 269.5,-337.5 269.5,-318.5 213.5,-318.5"/>
<text text-anchor="middle" x="241.5" y="-325.5" font-family="Helvetica,sans-Serif" font-size="10.00" fill="#000000">tds_login</text>
</a>
</g>
</g>
<!-- Node3&#45;&gt;Node2 -->
<g id="edge2" class="edge">
<title>Node3&#45;&gt;Node2</title>
<path fill="none" stroke="#9a32cd" stroke-dasharray="5,2" d="M279.8611,-332.9901C313.4132,-337.3546 361.6112,-343.6242 393.3504,-347.7529"/>
<polygon fill="#9a32cd" stroke="#9a32cd" points="279.8895,-329.4644 269.5216,-331.6451 278.9865,-336.4059 279.8895,-329.4644"/>
<text text-anchor="middle" x="327" y="-346" font-family="Helvetica,sans-Serif" font-size="10.00" fill="#000000"> login</text>
</g>
<!-- Node4 -->
<g id="node4" class="node">
<title>Node4</title>
<g id="a_node4"><a xlink:href="a01128.html" target="_top" xlink:title=" ">
<polygon fill="#ffffff" stroke="#ff0000" points="0,-243.5 0,-262.5 84,-262.5 84,-243.5 0,-243.5"/>
<text text-anchor="middle" x="42" y="-250.5" font-family="Helvetica,sans-Serif" font-size="10.00" fill="#000000">tds_capabilities</text>
</a>
</g>
</g>
<!-- Node4&#45;&gt;Node3 -->
<g id="edge3" class="edge">
<title>Node4&#45;&gt;Node3</title>
<path fill="none" stroke="#9a32cd" stroke-dasharray="5,2" d="M77.2304,-266.2445C116.9778,-281.1872 180.6648,-305.1296 215.9258,-318.3856"/>
<polygon fill="#9a32cd" stroke="#9a32cd" points="78.2648,-262.8943 67.6727,-262.6514 75.8015,-269.4465 78.2648,-262.8943"/>
<text text-anchor="middle" x="146.5" y="-310" font-family="Helvetica,sans-Serif" font-size="10.00" fill="#000000"> capabilities</text>
</g>
<!-- Node19 -->
<g id="node11" class="node">
<title>Node19</title>
<g id="a_node11"><a xlink:href="a01220.html" target="_top" xlink:title=" ">
<polygon fill="#ffffff" stroke="#000000" points="946,-171.5 946,-190.5 1029,-190.5 1029,-171.5 946,-171.5"/>
<text text-anchor="middle" x="987.5" y="-178.5" font-family="Helvetica,sans-Serif" font-size="10.00" fill="#000000">tds_connection</text>
</a>
</g>
</g>
<!-- Node4&#45;&gt;Node19 -->
<g id="edge17" class="edge">
<title>Node4&#45;&gt;Node19</title>
<path fill="none" stroke="#9a32cd" stroke-dasharray="5,2" d="M71.0309,-239.1888C109.2193,-222.319 178.839,-196 241.5,-196 241.5,-196 241.5,-196 522.5,-196 702.777,-196 747.9882,-195.7746 928,-186 933.7966,-185.6852 939.9043,-185.2689 945.9097,-184.8106"/>
<polygon fill="#9a32cd" stroke="#9a32cd" points="69.2469,-236.154 61.5735,-243.4595 72.1279,-242.5337 69.2469,-236.154"/>
<text text-anchor="middle" x="522.5" y="-199" font-family="Helvetica,sans-Serif" font-size="10.00" fill="#000000"> capabilities</text>
</g>
<!-- Node6 -->
<g id="node5" class="node">
<title>Node6</title>
<g id="a_node5"><a xlink:href="a01268.html" target="_top" xlink:title="Structure to hold a string.">
<polygon fill="#ffffff" stroke="#000000" points="16,-318.5 16,-337.5 68,-337.5 68,-318.5 16,-318.5"/>
<text text-anchor="middle" x="42" y="-325.5" font-family="Helvetica,sans-Serif" font-size="10.00" fill="#000000">tds_dstr</text>
</a>
</g>
</g>
<!-- Node6&#45;&gt;Node3 -->
<g id="edge4" class="edge">
<title>Node6&#45;&gt;Node3</title>
<path fill="none" stroke="#9a32cd" stroke-dasharray="5,2" d="M78.4347,-328C117.3419,-328 178.1563,-328 213.4845,-328"/>
<polygon fill="#9a32cd" stroke="#9a32cd" points="78.0812,-324.5001 68.0811,-328 78.0811,-331.5001 78.0812,-324.5001"/>
<text text-anchor="middle" x="146.5" y="-452" font-family="Helvetica,sans-Serif" font-size="10.00" fill="#000000"> server_realm_name</text>
<text text-anchor="middle" x="146.5" y="-441" font-family="Helvetica,sans-Serif" font-size="10.00" fill="#000000">password</text>
<text text-anchor="middle" x="146.5" y="-430" font-family="Helvetica,sans-Serif" font-size="10.00" fill="#000000">server_name</text>
<text text-anchor="middle" x="146.5" y="-419" font-family="Helvetica,sans-Serif" font-size="10.00" fill="#000000">dump_file</text>
<text text-anchor="middle" x="146.5" y="-408" font-family="Helvetica,sans-Serif" font-size="10.00" fill="#000000">library</text>
<text text-anchor="middle" x="146.5" y="-397" font-family="Helvetica,sans-Serif" font-size="10.00" fill="#000000">crlfile</text>
<text text-anchor="middle" x="146.5" y="-386" font-family="Helvetica,sans-Serif" font-size="10.00" fill="#000000">server_spn</text>
<text text-anchor="start" x="102" y="-375" font-family="Helvetica,sans-Serif" font-size="10.00" fill="#000000">client_host</text>
<text text-anchor="middle" x="146.5" y="-364" font-family="Helvetica,sans-Serif" font-size="10.00" fill="#000000">_name</text>
<text text-anchor="middle" x="146.5" y="-353" font-family="Helvetica,sans-Serif" font-size="10.00" fill="#000000">client_charset</text>
<text text-anchor="middle" x="146.5" y="-342" font-family="Helvetica,sans-Serif" font-size="10.00" fill="#000000">openssl_ciphers</text>
<text text-anchor="middle" x="146.5" y="-331" font-family="Helvetica,sans-Serif" font-size="10.00" fill="#000000">...</text>
</g>
<!-- Node7 -->
<g id="node6" class="node">
<title>Node7</title>
<g id="a_node6"><a xlink:href="a01212.html" target="_top" xlink:title=" ">
<polygon fill="#ffffff" stroke="#000000" points="209,-238.5 209,-257.5 274,-257.5 274,-238.5 209,-238.5"/>
<text text-anchor="middle" x="241.5" y="-245.5" font-family="Helvetica,sans-Serif" font-size="10.00" fill="#000000">tds_packet</text>
</a>
</g>
</g>
<!-- Node7&#45;&gt;Node2 -->
<g id="edge5" class="edge">
<title>Node7&#45;&gt;Node2</title>
<path fill="none" stroke="#9a32cd" stroke-dasharray="5,2" d="M281.0451,-260.9143C305.3046,-269.6717 336.498,-282.4667 362,-298 383.1071,-310.8564 404.404,-330.4507 416.3308,-342.1648"/>
<polygon fill="#9a32cd" stroke="#9a32cd" points="282.0406,-257.5541 271.4458,-257.5279 279.7118,-264.1554 282.0406,-257.5541"/>
<text text-anchor="middle" x="327" y="-323" font-family="Helvetica,sans-Serif" font-size="10.00" fill="#000000"> frozen_packets</text>
<text text-anchor="middle" x="327" y="-312" font-family="Helvetica,sans-Serif" font-size="10.00" fill="#000000">recv_packet</text>
<text text-anchor="middle" x="327" y="-301" font-family="Helvetica,sans-Serif" font-size="10.00" fill="#000000">send_packet</text>
</g>
<!-- Node7&#45;&gt;Node7 -->
<g id="edge6" class="edge">
<title>Node7&#45;&gt;Node7</title>
<path fill="none" stroke="#9a32cd" stroke-dasharray="5,2" d="M226.0309,-267.7663C227.2459,-272.4965 232.4022,-276 241.5,-276 256.4297,-276 260.7453,-266.5653 254.4468,-257.7571"/>
<polygon fill="#9a32cd" stroke="#9a32cd" points="229.5034,-268.3092 228.5532,-257.7571 222.7156,-266.5986 229.5034,-268.3092"/>
<text text-anchor="middle" x="241.5" y="-279" font-family="Helvetica,sans-Serif" font-size="10.00" fill="#000000"> next</text>
</g>
<!-- Node7&#45;&gt;Node19 -->
<g id="edge22" class="edge">
<title>Node7&#45;&gt;Node19</title>
<path fill="none" stroke="#9a32cd" stroke-dasharray="5,2" d="M284.1861,-245.8248C321.5724,-244.1078 377.3719,-242 426,-242 426,-242 426,-242 798,-242 857.1028,-242 872.6706,-234.7797 928,-214 944.1448,-207.9366 961.2272,-198.0558 972.9266,-190.684"/>
<polygon fill="#9a32cd" stroke="#9a32cd" points="283.9754,-242.3308 274.1508,-246.2967 284.3042,-249.3231 283.9754,-242.3308"/>
<text text-anchor="middle" x="624.5" y="-245" font-family="Helvetica,sans-Serif" font-size="10.00" fill="#000000"> packet_cache</text>
</g>
<!-- Node8 -->
<g id="node7" class="node">
<title>Node8</title>
<g id="a_node7"><a xlink:href="a01196.html" target="_top" xlink:title="Holds information for a dynamic (also called prepared) query.">
<polygon fill="#ffffff" stroke="#000000" points="762,-418.5 762,-437.5 834,-437.5 834,-418.5 762,-418.5"/>
<text text-anchor="middle" x="798" y="-425.5" font-family="Helvetica,sans-Serif" font-size="10.00" fill="#000000">tds_dynamic</text>
</a>
</g>
</g>
<!-- Node8&#45;&gt;Node2 -->
<g id="edge7" class="edge">
<title>Node8&#45;&gt;Node2</title>
<path fill="none" stroke="#9a32cd" stroke-dasharray="5,2" d="M762.4402,-440.7308C702.4044,-459.9288 578.8161,-489.3947 490,-443 456.4456,-425.4722 436.7557,-381.4413 429.3693,-361.7647"/>
<polygon fill="#9a32cd" stroke="#9a32cd" points="763.7975,-443.9689 772.2025,-437.5187 761.6096,-437.3196 763.7975,-443.9689"/>
<text text-anchor="middle" x="624.5" y="-470" font-family="Helvetica,sans-Serif" font-size="10.00" fill="#000000"> cur_dyn</text>
</g>
<!-- Node8&#45;&gt;Node8 -->
<g id="edge8" class="edge">
<title>Node8&#45;&gt;Node8</title>
<path fill="none" stroke="#9a32cd" stroke-dasharray="5,2" d="M782.5309,-447.7663C783.7459,-452.4965 788.9022,-456 798,-456 812.9297,-456 817.2453,-446.5653 810.9468,-437.7571"/>
<polygon fill="#9a32cd" stroke="#9a32cd" points="786.0034,-448.3092 785.0532,-437.7571 779.2156,-446.5986 786.0034,-448.3092"/>
<text text-anchor="middle" x="798" y="-459" font-family="Helvetica,sans-Serif" font-size="10.00" fill="#000000"> next</text>
</g>
<!-- Node8&#45;&gt;Node19 -->
<g id="edge23" class="edge">
<title>Node8&#45;&gt;Node19</title>
<path fill="none" stroke="#9a32cd" stroke-dasharray="5,2" d="M822.3974,-412.6041C851.1463,-393.3634 898.6994,-357.94 928,-317 958.4483,-274.4563 978.0211,-213.8675 984.8203,-190.6035"/>
<polygon fill="#9a32cd" stroke="#9a32cd" points="820.2086,-409.8541 813.771,-418.2689 824.051,-415.7053 820.2086,-409.8541"/>
<text text-anchor="middle" x="896" y="-382" font-family="Helvetica,sans-Serif" font-size="10.00" fill="#000000"> dyns</text>
</g>
<!-- Node9&#45;&gt;Node2 -->
<g id="edge11" class="edge">
<title>Node9&#45;&gt;Node2</title>
<path fill="none" stroke="#9a32cd" stroke-dasharray="5,2" d="M574.2276,-398.5131C548.6452,-394.9429 517.2725,-389.359 490,-381 473.7884,-376.0312 456.3134,-367.9085 443.7264,-361.5218"/>
<polygon fill="#9a32cd" stroke="#9a32cd" points="574.071,-402.0231 584.446,-399.8761 574.9965,-395.0846 574.071,-402.0231"/>
<text text-anchor="middle" x="522.5" y="-431" font-family="Helvetica,sans-Serif" font-size="10.00" fill="#000000"> param_info</text>
<text text-anchor="middle" x="522.5" y="-420" font-family="Helvetica,sans-Serif" font-size="10.00" fill="#000000">current_results</text>
<text text-anchor="middle" x="522.5" y="-409" font-family="Helvetica,sans-Serif" font-size="10.00" fill="#000000">res_info</text>
<text text-anchor="middle" x="522.5" y="-398" font-family="Helvetica,sans-Serif" font-size="10.00" fill="#000000">comp_info</text>
</g>
<!-- Node9&#45;&gt;Node8 -->
<g id="edge9" class="edge">
<title>Node9&#45;&gt;Node8</title>
<path fill="none" stroke="#9a32cd" stroke-dasharray="5,2" d="M674.6984,-410.9439C702.558,-414.7976 736.5726,-419.5028 761.8135,-422.9944"/>
<polygon fill="#9a32cd" stroke="#9a32cd" points="675.1258,-407.4697 664.7405,-409.5664 674.1665,-414.4037 675.1258,-407.4697"/>
<text text-anchor="middle" x="713" y="-432" font-family="Helvetica,sans-Serif" font-size="10.00" fill="#000000"> res_info</text>
<text text-anchor="middle" x="713" y="-421" font-family="Helvetica,sans-Serif" font-size="10.00" fill="#000000">params</text>
</g>
<!-- Node17 -->
<g id="node9" class="node">
<title>Node17</title>
<g id="a_node9"><a xlink:href="a01188.html" target="_top" xlink:title="Holds informations about a cursor.">
<polygon fill="#ffffff" stroke="#000000" points="767,-334.5 767,-353.5 829,-353.5 829,-334.5 767,-334.5"/>
<text text-anchor="middle" x="798" y="-341.5" font-family="Helvetica,sans-Serif" font-size="10.00" fill="#000000">tds_cursor</text>
</a>
</g>
</g>
<!-- Node9&#45;&gt;Node17 -->
<g id="edge14" class="edge">
<title>Node9&#45;&gt;Node17</title>
<path fill="none" stroke="#9a32cd" stroke-dasharray="5,2" d="M668.2486,-391.5475C687.8774,-385.7103 711.2393,-378.4159 732,-371 746.923,-365.6694 763.423,-358.9194 776.1922,-353.502"/>
<polygon fill="#9a32cd" stroke="#9a32cd" points="667.2535,-388.1918 658.6499,-394.3748 669.2314,-394.9066 667.2535,-388.1918"/>
<text text-anchor="middle" x="713" y="-385" font-family="Helvetica,sans-Serif" font-size="10.00" fill="#000000"> res_info</text>
</g>
<!-- Node17&#45;&gt;Node2 -->
<g id="edge12" class="edge">
<title>Node17&#45;&gt;Node2</title>
<path fill="none" stroke="#9a32cd" stroke-dasharray="5,2" d="M756.9094,-340.6328C733.264,-338.8638 702.9807,-336.8837 676,-336 630.2468,-334.5015 618.7105,-333.5197 573,-336 533.5239,-338.142 488.3465,-343.497 458.6127,-347.4241"/>
<polygon fill="#9a32cd" stroke="#9a32cd" points="756.7005,-344.127 766.9384,-341.4001 757.2345,-337.1474 756.7005,-344.127"/>
<text text-anchor="middle" x="624.5" y="-339" font-family="Helvetica,sans-Serif" font-size="10.00" fill="#000000"> cur_cursor</text>
</g>
<!-- Node17&#45;&gt;Node17 -->
<g id="edge15" class="edge">
<title>Node17&#45;&gt;Node17</title>
<path fill="none" stroke="#9a32cd" stroke-dasharray="5,2" d="M782.5309,-363.7663C783.7459,-368.4965 788.9022,-372 798,-372 812.9297,-372 817.2453,-362.5653 810.9468,-353.7571"/>
<polygon fill="#9a32cd" stroke="#9a32cd" points="786.0034,-364.3092 785.0532,-353.7571 779.2156,-362.5986 786.0034,-364.3092"/>
<text text-anchor="middle" x="798" y="-375" font-family="Helvetica,sans-Serif" font-size="10.00" fill="#000000"> next</text>
</g>
<!-- Node17&#45;&gt;Node19 -->
<g id="edge25" class="edge">
<title>Node17&#45;&gt;Node19</title>
<path fill="none" stroke="#9a32cd" stroke-dasharray="5,2" d="M824.6605,-329.234C852.2123,-313.254 895.6405,-286.0013 928,-256 950.4265,-235.2078 971.3527,-205.5593 981.3497,-190.5267"/>
<polygon fill="#9a32cd" stroke="#9a32cd" points="822.5653,-326.4002 815.6214,-334.4023 826.0398,-332.4771 822.5653,-326.4002"/>
<text text-anchor="middle" x="896" y="-305" font-family="Helvetica,sans-Serif" font-size="10.00" fill="#000000"> cursors</text>
</g>
<!-- Node18 -->
<g id="node10" class="node">
<title>Node18</title>
<g id="a_node10"><a xlink:href="a01184.html" target="_top" xlink:title=" ">
<polygon fill="#ffffff" stroke="#000000" points="577,-356.5 577,-375.5 672,-375.5 672,-356.5 577,-356.5"/>
<text text-anchor="middle" x="624.5" y="-363.5" font-family="Helvetica,sans-Serif" font-size="10.00" fill="#000000">tds_cursor_status</text>
</a>
</g>
</g>
<!-- Node18&#45;&gt;Node17 -->
<g id="edge13" class="edge">
<title>Node18&#45;&gt;Node17</title>
<path fill="none" stroke="#9a32cd" stroke-dasharray="5,2" d="M682.5338,-358.6412C710.7558,-355.0627 743.5481,-350.9046 766.959,-347.936"/>
<polygon fill="#9a32cd" stroke="#9a32cd" points="681.8492,-355.1999 672.3689,-359.9302 682.7298,-362.1443 681.8492,-355.1999"/>
<text text-anchor="middle" x="713" y="-359" font-family="Helvetica,sans-Serif" font-size="10.00" fill="#000000"> status</text>
</g>
<!-- Node19&#45;&gt;Node2 -->
<g id="edge16" class="edge">
<title>Node19&#45;&gt;Node2</title>
<path fill="none" stroke="#9a32cd" stroke-dasharray="5,2" d="M986.1034,-200.7607C980.7492,-258.8873 955.8706,-428.2025 846,-476 700.8661,-539.1382 618.7342,-559.0749 490,-467 452.4593,-440.1496 434.3148,-384.0712 428.3305,-361.6079"/>
<polygon fill="#9a32cd" stroke="#9a32cd" points="989.6004,-200.9405 986.9333,-190.6869 982.624,-200.3657 989.6004,-200.9405"/>
<text text-anchor="middle" x="713" y="-529" font-family="Helvetica,sans-Serif" font-size="10.00" fill="#000000"> conn</text>
</g>
<!-- Node20 -->
<g id="node12" class="node">
<title>Node20</title>
<g id="a_node12"><a xlink:href="a01216.html" target="_top" xlink:title=" ">
<polygon fill="#ffffff" stroke="#000000" points="753.5,-152.5 753.5,-171.5 842.5,-171.5 842.5,-152.5 753.5,-152.5"/>
<text text-anchor="middle" x="798" y="-159.5" font-family="Helvetica,sans-Serif" font-size="10.00" fill="#000000">tds_poll_wakeup</text>
</a>
</g>
</g>
<!-- Node20&#45;&gt;Node19 -->
<g id="edge18" class="edge">
<title>Node20&#45;&gt;Node19</title>
<path fill="none" stroke="#9a32cd" stroke-dasharray="5,2" d="M852.5506,-167.4449C875.8026,-169.7684 903.2293,-172.5125 928,-175 933.785,-175.5809 939.8862,-176.1948 945.8885,-176.7994"/>
<polygon fill="#9a32cd" stroke="#9a32cd" points="852.8228,-163.9547 842.5244,-166.4432 852.1269,-170.9201 852.8228,-163.9547"/>
<text text-anchor="middle" x="896" y="-178" font-family="Helvetica,sans-Serif" font-size="10.00" fill="#000000"> wakeup</text>
</g>
<!-- Node21 -->
<g id="node13" class="node">
<title>Node21</title>
<g id="a_node13"><a xlink:href="a01192.html" target="_top" xlink:title="Current environment as reported by the server.">
<polygon fill="#ffffff" stroke="#000000" points="772.5,-114.5 772.5,-133.5 823.5,-133.5 823.5,-114.5 772.5,-114.5"/>
<text text-anchor="middle" x="798" y="-121.5" font-family="Helvetica,sans-Serif" font-size="10.00" fill="#000000">tds_env</text>
</a>
</g>
</g>
<!-- Node21&#45;&gt;Node19 -->
<g id="edge19" class="edge">
<title>Node21&#45;&gt;Node19</title>
<path fill="none" stroke="#9a32cd" stroke-dasharray="5,2" d="M833.8216,-129.7933C860.2633,-134.5955 896.9028,-142.3601 928,-153 942.5823,-157.9893 958.3313,-165.503 969.9613,-171.4912"/>
<polygon fill="#9a32cd" stroke="#9a32cd" points="834.3235,-126.3279 823.8676,-128.0377 833.1076,-133.2215 834.3235,-126.3279"/>
<text text-anchor="middle" x="896" y="-156" font-family="Helvetica,sans-Serif" font-size="10.00" fill="#000000"> env</text>
</g>
<!-- Node22 -->
<g id="node14" class="node">
<title>Node22</title>
<g id="a_node14"><a xlink:href="a01204.html" target="_top" xlink:title=" ">
<polygon fill="#ffffff" stroke="#ff0000" points="764,-76.5 764,-95.5 832,-95.5 832,-76.5 764,-76.5"/>
<text text-anchor="middle" x="798" y="-83.5" font-family="Helvetica,sans-Serif" font-size="10.00" fill="#000000">tds_context</text>
</a>
</g>
</g>
<!-- Node22&#45;&gt;Node19 -->
<g id="edge20" class="edge">
<title>Node22&#45;&gt;Node19</title>
<path fill="none" stroke="#9a32cd" stroke-dasharray="5,2" d="M842.295,-91.4967C868.5616,-96.1941 901.7417,-104.7265 928,-120 950.7626,-133.2401 970.6368,-157.5592 980.6345,-171.1495"/>
<polygon fill="#9a32cd" stroke="#9a32cd" points="842.6716,-88.0113 832.2327,-89.822 841.5223,-94.9163 842.6716,-88.0113"/>
<text text-anchor="middle" x="896" y="-123" font-family="Helvetica,sans-Serif" font-size="10.00" fill="#000000"> tds_ctx</text>
</g>
<!-- Node24 -->
<g id="node15" class="node">
<title>Node24</title>
<g id="a_node15"><a xlink:href="a01208.html" target="_top" xlink:title=" ">
<polygon fill="#ffffff" stroke="#000000" points="750,-38.5 750,-57.5 846,-57.5 846,-38.5 750,-38.5"/>
<text text-anchor="middle" x="798" y="-45.5" font-family="Helvetica,sans-Serif" font-size="10.00" fill="#000000">tds_authentication</text>
</a>
</g>
</g>
<!-- Node24&#45;&gt;Node19 -->
<g id="edge21" class="edge">
<title>Node24&#45;&gt;Node19</title>
<path fill="none" stroke="#9a32cd" stroke-dasharray="5,2" d="M856.144,-52.9226C880.251,-57.3257 907.3474,-65.5805 928,-81 959.8899,-104.8093 977.9339,-151.1925 984.5571,-171.3075"/>
<polygon fill="#9a32cd" stroke="#9a32cd" points="856.4577,-49.4274 846.0229,-51.2617 855.3241,-56.335 856.4577,-49.4274"/>
<text text-anchor="middle" x="896" y="-84" font-family="Helvetica,sans-Serif" font-size="10.00" fill="#000000"> authentication</text>
</g>
<!-- Node11 -->
<g id="node16" class="node">
<title>Node11</title>
<g id="a_node16"><a xlink:href="a00980.html" target="_top" xlink:title=" ">
<polygon fill="#ffffff" stroke="#ff0000" points="763.5,-.5 763.5,-19.5 832.5,-19.5 832.5,-.5 763.5,-.5"/>
<text text-anchor="middle" x="798" y="-7.5" font-family="Helvetica,sans-Serif" font-size="10.00" fill="#000000">tdsiconvinfo</text>
</a>
</g>
</g>
<!-- Node11&#45;&gt;Node19 -->
<g id="edge24" class="edge">
<title>Node11&#45;&gt;Node19</title>
<path fill="none" stroke="#9a32cd" stroke-dasharray="5,2" d="M842.8589,-10.3908C870.2494,-12.8505 904.4196,-20.1732 928,-40 970.0958,-75.395 983.0173,-145.7388 986.4216,-171.3706"/>
<polygon fill="#9a32cd" stroke="#9a32cd" points="842.9525,-6.8887 832.7293,-9.6703 842.4558,-13.8711 842.9525,-6.8887"/>
<text text-anchor="middle" x="896" y="-43" font-family="Helvetica,sans-Serif" font-size="10.00" fill="#000000"> char_convs</text>
</g>
<!-- Node25 -->
<g id="node17" class="node">
<title>Node25</title>
<g id="a_node17"><a xlink:href="a01076.html" target="_top" xlink:title="define a stream of data used for input">
<polygon fill="#ffffff" stroke="#000000" points="380,-270.5 380,-289.5 472,-289.5 472,-270.5 380,-270.5"/>
<text text-anchor="middle" x="426" y="-277.5" font-family="Helvetica,sans-Serif" font-size="10.00" fill="#000000">tds_input_stream</text>
</a>
</g>
</g>
<!-- Node25&#45;&gt;Node1 -->
<g id="edge26" class="edge">
<title>Node25&#45;&gt;Node1</title>
<path fill="none" stroke="#9a32cd" stroke-dasharray="5,2" d="M482.2729,-277.2145C484.8845,-277.1317 487.4701,-277.0593 490,-277 518.881,-276.3235 526.123,-276.1697 555,-277 560.7989,-277.1667 566.8665,-277.4116 572.8983,-277.6994"/>
<polygon fill="#9a32cd" stroke="#9a32cd" points="482.0027,-273.7218 472.135,-277.5791 482.2544,-280.7173 482.0027,-273.7218"/>
<text text-anchor="middle" x="522.5" y="-280" font-family="Helvetica,sans-Serif" font-size="10.00" fill="#000000"> stream</text>
</g>
</g>
</svg>
