<?xml version="1.0" encoding="UTF-8" standalone="no"?>
<!DOCTYPE svg PUBLIC "-//W3C//DTD SVG 1.1//EN"
 "http://www.w3.org/Graphics/SVG/1.1/DTD/svg11.dtd">
<!-- Generated by graphviz version 2.40.1 (20161225.0304)
 -->
<!-- Title: _cs_connection Pages: 1 -->
<svg width="1374pt" height="820pt"
 viewBox="0.00 0.00 1374.00 820.00" xmlns="http://www.w3.org/2000/svg" xmlns:xlink="http://www.w3.org/1999/xlink">
<g id="graph0" class="graph" transform="scale(1 1) rotate(0) translate(4 816)">
<title>_cs_connection</title>
<polygon fill="#ffffff" stroke="transparent" points="-4,4 -4,-816 1370,-816 1370,4 -4,4"/>
<!-- Node1 -->
<g id="node1" class="node">
<title>Node1</title>
<g id="a_node1"><a xlink:title=" ">
<polygon fill="#bfbfbf" stroke="#000000" points="1133,-226.5 1133,-245.5 1218,-245.5 1218,-226.5 1133,-226.5"/>
<text text-anchor="middle" x="1175.5" y="-233.5" font-family="Helvetica,sans-Serif" font-size="10.00" fill="#000000">_cs_connection</text>
</a>
</g>
</g>
<!-- Node26 -->
<g id="node18" class="node">
<title>Node26</title>
<g id="a_node18"><a xlink:href="a00896.html" target="_top" xlink:title=" ">
<polygon fill="#ffffff" stroke="#000000" points="1286,-113.5 1286,-132.5 1366,-132.5 1366,-113.5 1286,-113.5"/>
<text text-anchor="middle" x="1326" y="-120.5" font-family="Helvetica,sans-Serif" font-size="10.00" fill="#000000">_cs_command</text>
</a>
</g>
</g>
<!-- Node1&#45;&gt;Node26 -->
<g id="edge39" class="edge">
<title>Node1&#45;&gt;Node26</title>
<path fill="none" stroke="#9a32cd" stroke-dasharray="5,2" d="M1201.3257,-221.2676C1224.436,-207.9212 1256.4043,-189.0096 1268,-180 1287.1754,-165.1012 1306.766,-144.4919 1317.5578,-132.5712"/>
<polygon fill="#9a32cd" stroke="#9a32cd" points="1199.2784,-218.4074 1192.3543,-226.4267 1202.768,-224.4756 1199.2784,-218.4074"/>
<text text-anchor="middle" x="1252" y="-203" font-family="Helvetica,sans-Serif" font-size="10.00" fill="#000000"> con</text>
</g>
<!-- Node2 -->
<g id="node2" class="node">
<title>Node2</title>
<g id="a_node2"><a xlink:href="a00904.html" target="_top" xlink:title=" ">
<polygon fill="#ffffff" stroke="#000000" points="938,-113.5 938,-132.5 1001,-132.5 1001,-113.5 938,-113.5"/>
<text text-anchor="middle" x="969.5" y="-120.5" font-family="Helvetica,sans-Serif" font-size="10.00" fill="#000000">_cs_locale</text>
</a>
</g>
</g>
<!-- Node2&#45;&gt;Node1 -->
<g id="edge1" class="edge">
<title>Node2&#45;&gt;Node1</title>
<path fill="none" stroke="#9a32cd" stroke-dasharray="5,2" d="M1011.0866,-131.7054C1041.5287,-139.3606 1082.9429,-152.5284 1115,-173 1137.7492,-187.5276 1158.1121,-212.3107 1168.4088,-226.0643"/>
<polygon fill="#9a32cd" stroke="#9a32cd" points="1011.7552,-128.2663 1001.2127,-129.318 1010.1101,-135.0702 1011.7552,-128.2663"/>
<text text-anchor="middle" x="1072" y="-176" font-family="Helvetica,sans-Serif" font-size="10.00" fill="#000000"> locale</text>
</g>
<!-- Node27 -->
<g id="node19" class="node">
<title>Node27</title>
<g id="a_node19"><a xlink:href="a00820.html" target="_top" xlink:title=" ">
<polygon fill="#ffffff" stroke="#000000" points="1142.5,-113.5 1142.5,-132.5 1208.5,-132.5 1208.5,-113.5 1142.5,-113.5"/>
<text text-anchor="middle" x="1175.5" y="-120.5" font-family="Helvetica,sans-Serif" font-size="10.00" fill="#000000">_cs_iodesc</text>
</a>
</g>
</g>
<!-- Node2&#45;&gt;Node27 -->
<g id="edge30" class="edge">
<title>Node2&#45;&gt;Node27</title>
<path fill="none" stroke="#9a32cd" stroke-dasharray="5,2" d="M1011.0106,-112.7417C1017.0129,-111.6059 1023.141,-110.6326 1029,-110 1067.0014,-105.897 1076.9916,-105.9625 1115,-110 1123.9738,-110.9532 1133.5724,-112.6806 1142.4195,-114.5714"/>
<polygon fill="#9a32cd" stroke="#9a32cd" points="1010.1905,-109.3369 1001.0977,-114.7748 1011.597,-116.1942 1010.1905,-109.3369"/>
<text text-anchor="middle" x="1072" y="-113" font-family="Helvetica,sans-Serif" font-size="10.00" fill="#000000"> locale</text>
</g>
<!-- Node3 -->
<g id="node3" class="node">
<title>Node3</title>
<g id="a_node3"><a xlink:href="a01224.html" target="_top" xlink:title="Information for a server connection.">
<polygon fill="#ffffff" stroke="#000000" points="391,-555.5 391,-574.5 456,-574.5 456,-555.5 391,-555.5"/>
<text text-anchor="middle" x="423.5" y="-562.5" font-family="Helvetica,sans-Serif" font-size="10.00" fill="#000000">tds_socket</text>
</a>
</g>
</g>
<!-- Node3&#45;&gt;Node1 -->
<g id="edge2" class="edge">
<title>Node3&#45;&gt;Node1</title>
<path fill="none" stroke="#9a32cd" stroke-dasharray="5,2" d="M444.7864,-580.8394C515.0639,-631.0535 744.6177,-778.3632 910,-691 1096.4011,-592.5336 1162.3763,-302.5136 1173.6703,-245.7132"/>
<polygon fill="#9a32cd" stroke="#9a32cd" points="446.4553,-577.7264 436.3039,-574.6931 442.348,-583.3948 446.4553,-577.7264"/>
<text text-anchor="middle" x="776.5" y="-721" font-family="Helvetica,sans-Serif" font-size="10.00" fill="#000000"> tds_socket</text>
</g>
<!-- Node10 -->
<g id="node9" class="node">
<title>Node10</title>
<g id="a_node9"><a xlink:href="a01172.html" target="_top" xlink:title="Hold information for any results.">
<polygon fill="#ffffff" stroke="#ff0000" points="558.5,-441.5 558.5,-460.5 638.5,-460.5 638.5,-441.5 558.5,-441.5"/>
<text text-anchor="middle" x="598.5" y="-448.5" font-family="Helvetica,sans-Serif" font-size="10.00" fill="#000000">tds_result_info</text>
</a>
</g>
</g>
<!-- Node3&#45;&gt;Node10 -->
<g id="edge11" class="edge">
<title>Node3&#45;&gt;Node10</title>
<path fill="none" stroke="#9a32cd" stroke-dasharray="5,2" d="M448.8499,-550.5708C456.7887,-546.2906 465.6572,-541.7491 474,-538 502.0893,-525.3771 513.3058,-530.9751 539,-514 561.3433,-499.2387 581.3813,-474.5469 591.5177,-460.8707"/>
<polygon fill="#9a32cd" stroke="#9a32cd" points="447.121,-547.5271 440.0445,-555.4121 450.4937,-553.6611 447.121,-547.5271"/>
<text text-anchor="middle" x="506.5" y="-541" font-family="Helvetica,sans-Serif" font-size="10.00" fill="#000000"> attached_to</text>
</g>
<!-- Node4 -->
<g id="node4" class="node">
<title>Node4</title>
<g id="a_node4"><a xlink:href="a01132.html" target="_top" xlink:title=" ">
<polygon fill="#ffffff" stroke="#000000" points="224.5,-709.5 224.5,-728.5 280.5,-728.5 280.5,-709.5 224.5,-709.5"/>
<text text-anchor="middle" x="252.5" y="-716.5" font-family="Helvetica,sans-Serif" font-size="10.00" fill="#000000">tds_login</text>
</a>
</g>
</g>
<!-- Node4&#45;&gt;Node1 -->
<g id="edge27" class="edge">
<title>Node4&#45;&gt;Node1</title>
<path fill="none" stroke="#9a32cd" stroke-dasharray="5,2" d="M278.5007,-733.3863C323.5165,-756.9059 419.5113,-801 506.5,-801 506.5,-801 506.5,-801 969.5,-801 1092.6999,-801 1163.8198,-320.8328 1174.1803,-245.8066"/>
<polygon fill="#9a32cd" stroke="#9a32cd" points="279.9112,-730.1723 269.4387,-728.5669 276.6243,-736.3526 279.9112,-730.1723"/>
<text text-anchor="middle" x="682.5" y="-804" font-family="Helvetica,sans-Serif" font-size="10.00" fill="#000000"> tds_login</text>
</g>
<!-- Node4&#45;&gt;Node3 -->
<g id="edge3" class="edge">
<title>Node4&#45;&gt;Node3</title>
<path fill="none" stroke="#9a32cd" stroke-dasharray="5,2" d="M281.6538,-704.8887C307.6844,-691.3024 345.7916,-668.8875 373,-642 393.9228,-621.324 410.8575,-590.5914 418.7282,-574.9399"/>
<polygon fill="#9a32cd" stroke="#9a32cd" points="279.9658,-701.8207 272.6525,-709.4866 283.1501,-708.0545 279.9658,-701.8207"/>
<text text-anchor="middle" x="338" y="-695" font-family="Helvetica,sans-Serif" font-size="10.00" fill="#000000"> login</text>
</g>
<!-- Node5 -->
<g id="node5" class="node">
<title>Node5</title>
<g id="a_node5"><a xlink:href="a01128.html" target="_top" xlink:title=" ">
<polygon fill="#ffffff" stroke="#ff0000" points="5.5,-740.5 5.5,-759.5 89.5,-759.5 89.5,-740.5 5.5,-740.5"/>
<text text-anchor="middle" x="47.5" y="-747.5" font-family="Helvetica,sans-Serif" font-size="10.00" fill="#000000">tds_capabilities</text>
</a>
</g>
</g>
<!-- Node5&#45;&gt;Node4 -->
<g id="edge4" class="edge">
<title>Node5&#45;&gt;Node4</title>
<path fill="none" stroke="#9a32cd" stroke-dasharray="5,2" d="M99.6056,-740.2307C104.1314,-739.4499 108.644,-738.6953 113,-738 151.4982,-731.855 196.1762,-725.9917 224.3888,-722.4445"/>
<polygon fill="#9a32cd" stroke="#9a32cd" points="98.9742,-736.788 89.7326,-741.969 100.1881,-743.6819 98.9742,-736.788"/>
<text text-anchor="middle" x="157.5" y="-741" font-family="Helvetica,sans-Serif" font-size="10.00" fill="#000000"> capabilities</text>
</g>
<!-- Node20 -->
<g id="node12" class="node">
<title>Node20</title>
<g id="a_node12"><a xlink:href="a01220.html" target="_top" xlink:title=" ">
<polygon fill="#ffffff" stroke="#000000" points="928,-535.5 928,-554.5 1011,-554.5 1011,-535.5 928,-535.5"/>
<text text-anchor="middle" x="969.5" y="-542.5" font-family="Helvetica,sans-Serif" font-size="10.00" fill="#000000">tds_connection</text>
</a>
</g>
</g>
<!-- Node5&#45;&gt;Node20 -->
<g id="edge18" class="edge">
<title>Node5&#45;&gt;Node20</title>
<path fill="none" stroke="#9a32cd" stroke-dasharray="5,2" d="M99.975,-755.1636C141.3575,-758.7916 200.5564,-763 252.5,-763 252.5,-763 252.5,-763 776.5,-763 843.9125,-763 864.9651,-741.1628 910,-691 947.6679,-649.0431 963.2416,-580.0724 967.8881,-554.7312"/>
<polygon fill="#9a32cd" stroke="#9a32cd" points="100.1256,-751.6632 89.8531,-754.2567 99.5008,-758.6352 100.1256,-751.6632"/>
<text text-anchor="middle" x="506.5" y="-766" font-family="Helvetica,sans-Serif" font-size="10.00" fill="#000000"> capabilities</text>
</g>
<!-- Node7 -->
<g id="node6" class="node">
<title>Node7</title>
<g id="a_node6"><a xlink:href="a01268.html" target="_top" xlink:title="Structure to hold a string.">
<polygon fill="#ffffff" stroke="#000000" points="21.5,-572.5 21.5,-591.5 73.5,-591.5 73.5,-572.5 21.5,-572.5"/>
<text text-anchor="middle" x="47.5" y="-579.5" font-family="Helvetica,sans-Serif" font-size="10.00" fill="#000000">tds_dstr</text>
</a>
</g>
</g>
<!-- Node7&#45;&gt;Node4 -->
<g id="edge5" class="edge">
<title>Node7&#45;&gt;Node4</title>
<path fill="none" stroke="#9a32cd" stroke-dasharray="5,2" d="M83.8045,-572.2095C118.3405,-565.2664 169.6892,-561.4503 202,-589 232.0464,-614.6189 203.6972,-640.0371 220,-676 225.7182,-688.6138 235.6871,-701.0147 243.0807,-709.233"/>
<polygon fill="#9a32cd" stroke="#9a32cd" points="82.6838,-568.8721 73.6659,-574.4334 84.1836,-575.7095 82.6838,-568.8721"/>
<text text-anchor="middle" x="157.5" y="-713" font-family="Helvetica,sans-Serif" font-size="10.00" fill="#000000"> server_realm_name</text>
<text text-anchor="middle" x="157.5" y="-702" font-family="Helvetica,sans-Serif" font-size="10.00" fill="#000000">password</text>
<text text-anchor="middle" x="157.5" y="-691" font-family="Helvetica,sans-Serif" font-size="10.00" fill="#000000">server_name</text>
<text text-anchor="middle" x="157.5" y="-680" font-family="Helvetica,sans-Serif" font-size="10.00" fill="#000000">dump_file</text>
<text text-anchor="middle" x="157.5" y="-669" font-family="Helvetica,sans-Serif" font-size="10.00" fill="#000000">library</text>
<text text-anchor="middle" x="157.5" y="-658" font-family="Helvetica,sans-Serif" font-size="10.00" fill="#000000">crlfile</text>
<text text-anchor="middle" x="157.5" y="-647" font-family="Helvetica,sans-Serif" font-size="10.00" fill="#000000">server_spn</text>
<text text-anchor="start" x="113" y="-636" font-family="Helvetica,sans-Serif" font-size="10.00" fill="#000000">client_host</text>
<text text-anchor="middle" x="157.5" y="-625" font-family="Helvetica,sans-Serif" font-size="10.00" fill="#000000">_name</text>
<text text-anchor="middle" x="157.5" y="-614" font-family="Helvetica,sans-Serif" font-size="10.00" fill="#000000">client_charset</text>
<text text-anchor="middle" x="157.5" y="-603" font-family="Helvetica,sans-Serif" font-size="10.00" fill="#000000">openssl_ciphers</text>
<text text-anchor="middle" x="157.5" y="-592" font-family="Helvetica,sans-Serif" font-size="10.00" fill="#000000">...</text>
</g>
<!-- Node8 -->
<g id="node7" class="node">
<title>Node8</title>
<g id="a_node7"><a xlink:href="a01212.html" target="_top" xlink:title=" ">
<polygon fill="#ffffff" stroke="#000000" points="220,-618.5 220,-637.5 285,-637.5 285,-618.5 220,-618.5"/>
<text text-anchor="middle" x="252.5" y="-625.5" font-family="Helvetica,sans-Serif" font-size="10.00" fill="#000000">tds_packet</text>
</a>
</g>
</g>
<!-- Node8&#45;&gt;Node3 -->
<g id="edge6" class="edge">
<title>Node8&#45;&gt;Node3</title>
<path fill="none" stroke="#9a32cd" stroke-dasharray="5,2" d="M281.5468,-614.1308C288.5129,-610.9832 295.9712,-607.7581 303,-605 332.6505,-593.3651 367.2206,-582.1206 391.7096,-574.5328"/>
<polygon fill="#9a32cd" stroke="#9a32cd" points="280.0591,-610.9625 272.4393,-618.3238 282.9866,-617.321 280.0591,-610.9625"/>
<text text-anchor="middle" x="338" y="-630" font-family="Helvetica,sans-Serif" font-size="10.00" fill="#000000"> frozen_packets</text>
<text text-anchor="middle" x="338" y="-619" font-family="Helvetica,sans-Serif" font-size="10.00" fill="#000000">recv_packet</text>
<text text-anchor="middle" x="338" y="-608" font-family="Helvetica,sans-Serif" font-size="10.00" fill="#000000">send_packet</text>
</g>
<!-- Node8&#45;&gt;Node8 -->
<g id="edge7" class="edge">
<title>Node8&#45;&gt;Node8</title>
<path fill="none" stroke="#9a32cd" stroke-dasharray="5,2" d="M237.0309,-647.7663C238.2459,-652.4965 243.4022,-656 252.5,-656 267.4297,-656 271.7453,-646.5653 265.4468,-637.7571"/>
<polygon fill="#9a32cd" stroke="#9a32cd" points="240.5034,-648.3092 239.5532,-637.7571 233.7156,-646.5986 240.5034,-648.3092"/>
<text text-anchor="middle" x="252.5" y="-659" font-family="Helvetica,sans-Serif" font-size="10.00" fill="#000000"> next</text>
</g>
<!-- Node8&#45;&gt;Node20 -->
<g id="edge23" class="edge">
<title>Node8&#45;&gt;Node20</title>
<path fill="none" stroke="#9a32cd" stroke-dasharray="5,2" d="M295.2728,-637.0692C297.8798,-637.4356 300.4705,-637.752 303,-638 333.9626,-641.0361 341.9188,-639.3636 373,-638 575.8071,-629.1026 625.8651,-616.7449 828,-598 864.461,-594.6188 875.8922,-603.3229 910,-590 930.0259,-582.1776 949.0988,-565.5787 960.0342,-554.8744"/>
<polygon fill="#9a32cd" stroke="#9a32cd" points="295.6613,-633.5867 285.231,-635.4466 294.5446,-640.4971 295.6613,-633.5867"/>
<text text-anchor="middle" x="598.5" y="-628" font-family="Helvetica,sans-Serif" font-size="10.00" fill="#000000"> packet_cache</text>
</g>
<!-- Node9 -->
<g id="node8" class="node">
<title>Node9</title>
<g id="a_node8"><a xlink:href="a01196.html" target="_top" xlink:title="Holds information for a dynamic (also called prepared) query.">
<polygon fill="#ffffff" stroke="#000000" points="740.5,-411.5 740.5,-430.5 812.5,-430.5 812.5,-411.5 740.5,-411.5"/>
<text text-anchor="middle" x="776.5" y="-418.5" font-family="Helvetica,sans-Serif" font-size="10.00" fill="#000000">tds_dynamic</text>
</a>
</g>
</g>
<!-- Node9&#45;&gt;Node3 -->
<g id="edge8" class="edge">
<title>Node9&#45;&gt;Node3</title>
<path fill="none" stroke="#9a32cd" stroke-dasharray="5,2" d="M754.9124,-436.4586C714.6787,-464.3667 624.5366,-522.7031 539,-549 511.9103,-557.3283 479.9071,-561.3327 456.4663,-563.2517"/>
<polygon fill="#9a32cd" stroke="#9a32cd" points="756.9821,-439.2821 763.1611,-430.6756 752.9637,-433.5503 756.9821,-439.2821"/>
<text text-anchor="middle" x="598.5" y="-545" font-family="Helvetica,sans-Serif" font-size="10.00" fill="#000000"> cur_dyn</text>
</g>
<!-- Node9&#45;&gt;Node9 -->
<g id="edge9" class="edge">
<title>Node9&#45;&gt;Node9</title>
<path fill="none" stroke="#9a32cd" stroke-dasharray="5,2" d="M759.0934,-440.4C760.2559,-445.3146 766.0581,-449 776.5,-449 793.207,-449 798.0364,-439.5653 790.9881,-430.7571"/>
<polygon fill="#9a32cd" stroke="#9a32cd" points="762.465,-441.3422 762.0119,-430.7571 755.7651,-439.3144 762.465,-441.3422"/>
<text text-anchor="middle" x="776.5" y="-452" font-family="Helvetica,sans-Serif" font-size="10.00" fill="#000000"> next</text>
</g>
<!-- Node9&#45;&gt;Node20 -->
<g id="edge24" class="edge">
<title>Node9&#45;&gt;Node20</title>
<path fill="none" stroke="#9a32cd" stroke-dasharray="5,2" d="M814.1173,-434.1301C842.0284,-444.8704 880.2403,-461.7374 910,-483 931.3642,-498.2642 951.4757,-521.8448 961.959,-535.0921"/>
<polygon fill="#9a32cd" stroke="#9a32cd" points="815.2971,-430.8345 804.7051,-430.5894 812.8325,-437.3863 815.2971,-430.8345"/>
<text text-anchor="middle" x="878" y="-486" font-family="Helvetica,sans-Serif" font-size="10.00" fill="#000000"> dyns</text>
</g>
<!-- Node29 -->
<g id="node21" class="node">
<title>Node29</title>
<g id="a_node21"><a xlink:href="a00892.html" target="_top" xlink:title=" ">
<polygon fill="#ffffff" stroke="#000000" points="932.5,-159.5 932.5,-178.5 1006.5,-178.5 1006.5,-159.5 932.5,-159.5"/>
<text text-anchor="middle" x="969.5" y="-166.5" font-family="Helvetica,sans-Serif" font-size="10.00" fill="#000000">_cs_dynamic</text>
</a>
</g>
</g>
<!-- Node9&#45;&gt;Node29 -->
<g id="edge35" class="edge">
<title>Node9&#45;&gt;Node29</title>
<path fill="none" stroke="#9a32cd" stroke-dasharray="5,2" d="M795.7587,-404.4426C806.7954,-393.9324 820.002,-379.4368 828,-364 844.7656,-331.6409 821.4926,-310.9738 846,-284 866.1311,-261.843 888.248,-283.5681 910,-263 925.9518,-247.9164 916.6573,-235.7968 928,-217 936.8788,-202.2862 950.3471,-187.6807 959.5144,-178.5152"/>
<polygon fill="#9a32cd" stroke="#9a32cd" points="793.2268,-402.0153 788.2113,-411.3478 797.9519,-407.1799 793.2268,-402.0153"/>
<text text-anchor="middle" x="878" y="-287" font-family="Helvetica,sans-Serif" font-size="10.00" fill="#000000"> tdsdyn</text>
</g>
<!-- Node10&#45;&gt;Node3 -->
<g id="edge12" class="edge">
<title>Node10&#45;&gt;Node3</title>
<path fill="none" stroke="#9a32cd" stroke-dasharray="5,2" d="M548.2142,-446.5438C523.8467,-446.8537 495.3204,-451.1146 474,-466 442.676,-487.8697 429.597,-535.1321 425.2784,-555.4252"/>
<polygon fill="#9a32cd" stroke="#9a32cd" points="548.3392,-450.0449 558.3697,-446.6334 548.401,-443.0452 548.3392,-450.0449"/>
<text text-anchor="middle" x="506.5" y="-502" font-family="Helvetica,sans-Serif" font-size="10.00" fill="#000000"> param_info</text>
<text text-anchor="middle" x="506.5" y="-491" font-family="Helvetica,sans-Serif" font-size="10.00" fill="#000000">current_results</text>
<text text-anchor="middle" x="506.5" y="-480" font-family="Helvetica,sans-Serif" font-size="10.00" fill="#000000">res_info</text>
<text text-anchor="middle" x="506.5" y="-469" font-family="Helvetica,sans-Serif" font-size="10.00" fill="#000000">comp_info</text>
</g>
<!-- Node10&#45;&gt;Node9 -->
<g id="edge10" class="edge">
<title>Node10&#45;&gt;Node9</title>
<path fill="none" stroke="#9a32cd" stroke-dasharray="5,2" d="M648.9035,-442.505C678.0978,-437.5846 714.164,-431.5061 740.4958,-427.0681"/>
<polygon fill="#9a32cd" stroke="#9a32cd" points="648.1702,-439.0792 638.891,-444.1925 649.3336,-445.9818 648.1702,-439.0792"/>
<text text-anchor="middle" x="682.5" y="-454" font-family="Helvetica,sans-Serif" font-size="10.00" fill="#000000"> res_info</text>
<text text-anchor="middle" x="682.5" y="-443" font-family="Helvetica,sans-Serif" font-size="10.00" fill="#000000">params</text>
</g>
<!-- Node18 -->
<g id="node10" class="node">
<title>Node18</title>
<g id="a_node10"><a xlink:href="a01188.html" target="_top" xlink:title="Holds informations about a cursor.">
<polygon fill="#ffffff" stroke="#000000" points="221.5,-398.5 221.5,-417.5 283.5,-417.5 283.5,-398.5 221.5,-398.5"/>
<text text-anchor="middle" x="252.5" y="-405.5" font-family="Helvetica,sans-Serif" font-size="10.00" fill="#000000">tds_cursor</text>
</a>
</g>
</g>
<!-- Node10&#45;&gt;Node18 -->
<g id="edge15" class="edge">
<title>Node10&#45;&gt;Node18</title>
<path fill="none" stroke="#9a32cd" stroke-dasharray="5,2" d="M547.9461,-444.7173C475.2449,-435.6822 343.349,-419.2905 283.5097,-411.8538"/>
<polygon fill="#9a32cd" stroke="#9a32cd" points="547.8721,-448.2349 558.2274,-445.995 548.7354,-441.2884 547.8721,-448.2349"/>
<text text-anchor="middle" x="423.5" y="-436" font-family="Helvetica,sans-Serif" font-size="10.00" fill="#000000"> res_info</text>
</g>
<!-- Node18&#45;&gt;Node3 -->
<g id="edge13" class="edge">
<title>Node18&#45;&gt;Node3</title>
<path fill="none" stroke="#9a32cd" stroke-dasharray="5,2" d="M270.6329,-424.6483C306.2186,-457.3206 384.216,-528.9322 412.7607,-555.1399"/>
<polygon fill="#9a32cd" stroke="#9a32cd" points="272.6727,-421.7697 262.9394,-417.5847 267.9385,-426.926 272.6727,-421.7697"/>
<text text-anchor="middle" x="338" y="-521" font-family="Helvetica,sans-Serif" font-size="10.00" fill="#000000"> cur_cursor</text>
</g>
<!-- Node18&#45;&gt;Node18 -->
<g id="edge16" class="edge">
<title>Node18&#45;&gt;Node18</title>
<path fill="none" stroke="#9a32cd" stroke-dasharray="5,2" d="M237.0309,-427.7663C238.2459,-432.4965 243.4022,-436 252.5,-436 267.4297,-436 271.7453,-426.5653 265.4468,-417.7571"/>
<polygon fill="#9a32cd" stroke="#9a32cd" points="240.5034,-428.3092 239.5532,-417.7571 233.7156,-426.5986 240.5034,-428.3092"/>
<text text-anchor="middle" x="252.5" y="-439" font-family="Helvetica,sans-Serif" font-size="10.00" fill="#000000"> next</text>
</g>
<!-- Node18&#45;&gt;Node20 -->
<g id="edge26" class="edge">
<title>Node18&#45;&gt;Node20</title>
<path fill="none" stroke="#9a32cd" stroke-dasharray="5,2" d="M293.6641,-398.5597C328.1487,-391.4779 378.7719,-383 423.5,-383 423.5,-383 423.5,-383 776.5,-383 804.6813,-383 909.6936,-442.7128 910,-443 939.3133,-470.4831 958.6184,-515.6732 966.0575,-535.3464"/>
<polygon fill="#9a32cd" stroke="#9a32cd" points="292.5674,-395.2139 283.5046,-400.7018 294.0115,-402.0633 292.5674,-395.2139"/>
<text text-anchor="middle" x="598.5" y="-386" font-family="Helvetica,sans-Serif" font-size="10.00" fill="#000000"> cursors</text>
</g>
<!-- Node18&#45;&gt;Node26 -->
<g id="edge38" class="edge">
<title>Node18&#45;&gt;Node26</title>
<path fill="none" stroke="#9a32cd" stroke-dasharray="5,2" d="M256.2244,-388.3826C272.2276,-306.9757 338.2272,0 423.5,0 423.5,0 423.5,0 1175.5,0 1247.0385,0 1303.3029,-84.3523 1320.5305,-113.3484"/>
<polygon fill="#9a32cd" stroke="#9a32cd" points="252.7656,-387.834 254.3012,-398.317 259.6381,-389.1644 252.7656,-387.834"/>
<text text-anchor="middle" x="776.5" y="-3" font-family="Helvetica,sans-Serif" font-size="10.00" fill="#000000"> cursor</text>
</g>
<!-- Node19 -->
<g id="node11" class="node">
<title>Node19</title>
<g id="a_node11"><a xlink:href="a01184.html" target="_top" xlink:title=" ">
<polygon fill="#ffffff" stroke="#000000" points="0,-398.5 0,-417.5 95,-417.5 95,-398.5 0,-398.5"/>
<text text-anchor="middle" x="47.5" y="-405.5" font-family="Helvetica,sans-Serif" font-size="10.00" fill="#000000">tds_cursor_status</text>
</a>
</g>
</g>
<!-- Node19&#45;&gt;Node18 -->
<g id="edge14" class="edge">
<title>Node19&#45;&gt;Node18</title>
<path fill="none" stroke="#9a32cd" stroke-dasharray="5,2" d="M105.3889,-408C143.0771,-408 190.7624,-408 221.4484,-408"/>
<polygon fill="#9a32cd" stroke="#9a32cd" points="105.0464,-404.5001 95.0464,-408 105.0464,-411.5001 105.0464,-404.5001"/>
<text text-anchor="middle" x="157.5" y="-411" font-family="Helvetica,sans-Serif" font-size="10.00" fill="#000000"> status</text>
</g>
<!-- Node20&#45;&gt;Node3 -->
<g id="edge17" class="edge">
<title>Node20&#45;&gt;Node3</title>
<path fill="none" stroke="#9a32cd" stroke-dasharray="5,2" d="M941.9196,-558.8788C932.0591,-563.3466 920.7299,-567.9304 910,-571 874.588,-581.1307 864.7354,-580.3263 828,-583 689.8838,-593.0525 524.8009,-576.9744 456.0442,-569.0294"/>
<polygon fill="#9a32cd" stroke="#9a32cd" points="943.6526,-561.9316 951.2138,-554.5101 940.6748,-555.5966 943.6526,-561.9316"/>
<text text-anchor="middle" x="682.5" y="-588" font-family="Helvetica,sans-Serif" font-size="10.00" fill="#000000"> conn</text>
</g>
<!-- Node21 -->
<g id="node13" class="node">
<title>Node21</title>
<g id="a_node13"><a xlink:href="a01216.html" target="_top" xlink:title=" ">
<polygon fill="#ffffff" stroke="#000000" points="732,-554.5 732,-573.5 821,-573.5 821,-554.5 732,-554.5"/>
<text text-anchor="middle" x="776.5" y="-561.5" font-family="Helvetica,sans-Serif" font-size="10.00" fill="#000000">tds_poll_wakeup</text>
</a>
</g>
</g>
<!-- Node21&#45;&gt;Node20 -->
<g id="edge19" class="edge">
<title>Node21&#45;&gt;Node20</title>
<path fill="none" stroke="#9a32cd" stroke-dasharray="5,2" d="M831.3822,-558.5971C862.0756,-555.5755 899.7173,-551.8698 927.9485,-549.0906"/>
<polygon fill="#9a32cd" stroke="#9a32cd" points="830.8721,-555.1303 821.2632,-559.5933 831.558,-562.0966 830.8721,-555.1303"/>
<text text-anchor="middle" x="878" y="-559" font-family="Helvetica,sans-Serif" font-size="10.00" fill="#000000"> wakeup</text>
</g>
<!-- Node22 -->
<g id="node14" class="node">
<title>Node22</title>
<g id="a_node14"><a xlink:href="a01192.html" target="_top" xlink:title="Current environment as reported by the server.">
<polygon fill="#ffffff" stroke="#000000" points="751,-516.5 751,-535.5 802,-535.5 802,-516.5 751,-516.5"/>
<text text-anchor="middle" x="776.5" y="-523.5" font-family="Helvetica,sans-Serif" font-size="10.00" fill="#000000">tds_env</text>
</a>
</g>
</g>
<!-- Node22&#45;&gt;Node20 -->
<g id="edge20" class="edge">
<title>Node22&#45;&gt;Node20</title>
<path fill="none" stroke="#9a32cd" stroke-dasharray="5,2" d="M812.2571,-527.9447C839.1802,-529.5868 876.9702,-532.2702 910,-536 915.8136,-536.6565 921.9309,-537.4564 927.9408,-538.3056"/>
<polygon fill="#9a32cd" stroke="#9a32cd" points="812.336,-524.4433 802.1465,-527.3458 811.922,-531.4311 812.336,-524.4433"/>
<text text-anchor="middle" x="878" y="-539" font-family="Helvetica,sans-Serif" font-size="10.00" fill="#000000"> env</text>
</g>
<!-- Node23 -->
<g id="node15" class="node">
<title>Node23</title>
<g id="a_node15"><a xlink:href="a01204.html" target="_top" xlink:title=" ">
<polygon fill="#ffffff" stroke="#ff0000" points="742.5,-335.5 742.5,-354.5 810.5,-354.5 810.5,-335.5 742.5,-335.5"/>
<text text-anchor="middle" x="776.5" y="-342.5" font-family="Helvetica,sans-Serif" font-size="10.00" fill="#000000">tds_context</text>
</a>
</g>
</g>
<!-- Node23&#45;&gt;Node20 -->
<g id="edge21" class="edge">
<title>Node23&#45;&gt;Node20</title>
<path fill="none" stroke="#9a32cd" stroke-dasharray="5,2" d="M820.8793,-337.7578C849.3299,-335.6704 885.405,-338.1147 910,-358 938.8775,-381.3477 961.72,-500.536 967.865,-535.4056"/>
<polygon fill="#9a32cd" stroke="#9a32cd" points="820.406,-334.2868 810.7778,-338.708 821.0616,-341.256 820.406,-334.2868"/>
<text text-anchor="middle" x="878" y="-361" font-family="Helvetica,sans-Serif" font-size="10.00" fill="#000000"> tds_ctx</text>
</g>
<!-- Node31 -->
<g id="node23" class="node">
<title>Node31</title>
<g id="a_node23"><a xlink:href="a00872.html" target="_top" xlink:title=" ">
<polygon fill="#ffffff" stroke="#000000" points="934.5,-226.5 934.5,-245.5 1004.5,-245.5 1004.5,-226.5 934.5,-226.5"/>
<text text-anchor="middle" x="969.5" y="-233.5" font-family="Helvetica,sans-Serif" font-size="10.00" fill="#000000">_cs_context</text>
</a>
</g>
</g>
<!-- Node23&#45;&gt;Node31 -->
<g id="edge46" class="edge">
<title>Node23&#45;&gt;Node31</title>
<path fill="none" stroke="#9a32cd" stroke-dasharray="5,2" d="M816.5441,-332.275C852.8348,-320.5685 901.856,-304.2533 910,-299 932.5034,-284.4839 952.4789,-259.6963 962.5623,-245.939"/>
<polygon fill="#9a32cd" stroke="#9a32cd" points="815.1399,-329.0499 806.6903,-335.4416 817.2817,-335.7142 815.1399,-329.0499"/>
<text text-anchor="middle" x="878" y="-324" font-family="Helvetica,sans-Serif" font-size="10.00" fill="#000000"> tds_ctx</text>
</g>
<!-- Node25 -->
<g id="node16" class="node">
<title>Node25</title>
<g id="a_node16"><a xlink:href="a01208.html" target="_top" xlink:title=" ">
<polygon fill="#ffffff" stroke="#000000" points="728.5,-478.5 728.5,-497.5 824.5,-497.5 824.5,-478.5 728.5,-478.5"/>
<text text-anchor="middle" x="776.5" y="-485.5" font-family="Helvetica,sans-Serif" font-size="10.00" fill="#000000">tds_authentication</text>
</a>
</g>
</g>
<!-- Node25&#45;&gt;Node20 -->
<g id="edge22" class="edge">
<title>Node25&#45;&gt;Node20</title>
<path fill="none" stroke="#9a32cd" stroke-dasharray="5,2" d="M834.5283,-496.2538C858.3044,-500.5275 885.8532,-506.6406 910,-515 925.3049,-520.2984 941.6648,-528.7739 953.3486,-535.3669"/>
<polygon fill="#9a32cd" stroke="#9a32cd" points="835.0409,-492.7906 824.5905,-494.5337 833.847,-499.688 835.0409,-492.7906"/>
<text text-anchor="middle" x="878" y="-518" font-family="Helvetica,sans-Serif" font-size="10.00" fill="#000000"> authentication</text>
</g>
<!-- Node12 -->
<g id="node17" class="node">
<title>Node12</title>
<g id="a_node17"><a xlink:href="a00980.html" target="_top" xlink:title=" ">
<polygon fill="#ffffff" stroke="#ff0000" points="742,-668.5 742,-687.5 811,-687.5 811,-668.5 742,-668.5"/>
<text text-anchor="middle" x="776.5" y="-675.5" font-family="Helvetica,sans-Serif" font-size="10.00" fill="#000000">tdsiconvinfo</text>
</a>
</g>
</g>
<!-- Node12&#45;&gt;Node20 -->
<g id="edge25" class="edge">
<title>Node12&#45;&gt;Node20</title>
<path fill="none" stroke="#9a32cd" stroke-dasharray="5,2" d="M821.4616,-679.3982C849.3131,-678.1139 884.5056,-672.3745 910,-654 944.9804,-628.7887 961.6198,-576.4417 967.2257,-554.7463"/>
<polygon fill="#9a32cd" stroke="#9a32cd" points="821.0791,-675.9075 811.1823,-679.6893 821.2774,-682.9047 821.0791,-675.9075"/>
<text text-anchor="middle" x="878" y="-679" font-family="Helvetica,sans-Serif" font-size="10.00" fill="#000000"> char_convs</text>
</g>
<!-- Node26&#45;&gt;Node1 -->
<g id="edge28" class="edge">
<title>Node26&#45;&gt;Node1</title>
<path fill="none" stroke="#9a32cd" stroke-dasharray="5,2" d="M1318.9242,-142.1629C1310.1964,-163.0751 1293.3337,-195.9741 1268,-214 1253.6088,-224.2399 1235.0882,-229.7632 1218.4042,-232.7239"/>
<polygon fill="#9a32cd" stroke="#9a32cd" points="1322.2357,-143.3062 1322.6529,-132.7195 1315.7248,-140.7353 1322.2357,-143.3062"/>
<text text-anchor="middle" x="1252" y="-231" font-family="Helvetica,sans-Serif" font-size="10.00" fill="#000000"> cmds</text>
</g>
<!-- Node26&#45;&gt;Node26 -->
<g id="edge31" class="edge">
<title>Node26&#45;&gt;Node26</title>
<path fill="none" stroke="#9a32cd" stroke-dasharray="5,2" d="M1312.3725,-142.7663C1313.4428,-147.4965 1317.9853,-151 1326,-151 1339.1523,-151 1342.9542,-141.5653 1337.4055,-132.7571"/>
<polygon fill="#9a32cd" stroke="#9a32cd" points="1315.844,-143.2779 1314.5945,-132.7571 1309.0104,-141.7609 1315.844,-143.2779"/>
<text text-anchor="middle" x="1326" y="-154" font-family="Helvetica,sans-Serif" font-size="10.00" fill="#000000"> next</text>
</g>
<!-- Node27&#45;&gt;Node26 -->
<g id="edge29" class="edge">
<title>Node27&#45;&gt;Node26</title>
<path fill="none" stroke="#9a32cd" stroke-dasharray="5,2" d="M1218.5418,-123C1239.7044,-123 1265.0561,-123 1285.8194,-123"/>
<polygon fill="#9a32cd" stroke="#9a32cd" points="1218.5279,-119.5001 1208.5279,-123 1218.5278,-126.5001 1218.5279,-119.5001"/>
<text text-anchor="middle" x="1252" y="-126" font-family="Helvetica,sans-Serif" font-size="10.00" fill="#000000"> iodesc</text>
</g>
<!-- Node28 -->
<g id="node20" class="node">
<title>Node28</title>
<g id="a_node20"><a xlink:href="a00884.html" target="_top" xlink:title=" ">
<polygon fill="#ffffff" stroke="#000000" points="744,-29.5 744,-48.5 809,-48.5 809,-29.5 744,-29.5"/>
<text text-anchor="middle" x="776.5" y="-36.5" font-family="Helvetica,sans-Serif" font-size="10.00" fill="#000000">_cs_param</text>
</a>
</g>
</g>
<!-- Node28&#45;&gt;Node26 -->
<g id="edge32" class="edge">
<title>Node28&#45;&gt;Node26</title>
<path fill="none" stroke="#9a32cd" stroke-dasharray="5,2" d="M819.6547,-36.1762C884.3096,-32.7811 1009.9507,-29.423 1115,-46 1162.2219,-53.4517 1172.3435,-62.8255 1218,-77 1240.2831,-83.918 1246.4512,-84.0533 1268,-93 1282.2394,-98.9119 1297.7186,-107.0092 1309.1015,-113.3014"/>
<polygon fill="#9a32cd" stroke="#9a32cd" points="819.2296,-32.6942 809.4378,-36.7401 819.6155,-39.6836 819.2296,-32.6942"/>
<text text-anchor="middle" x="1072" y="-49" font-family="Helvetica,sans-Serif" font-size="10.00" fill="#000000"> input_params</text>
</g>
<!-- Node28&#45;&gt;Node28 -->
<g id="edge33" class="edge">
<title>Node28&#45;&gt;Node28</title>
<path fill="none" stroke="#9a32cd" stroke-dasharray="5,2" d="M759.0934,-58.4C760.2559,-63.3146 766.0581,-67 776.5,-67 793.207,-67 798.0364,-57.5653 790.9881,-48.7571"/>
<polygon fill="#9a32cd" stroke="#9a32cd" points="762.465,-59.3422 762.0119,-48.7571 755.7651,-57.3144 762.465,-59.3422"/>
<text text-anchor="middle" x="776.5" y="-70" font-family="Helvetica,sans-Serif" font-size="10.00" fill="#000000"> next</text>
</g>
<!-- Node28&#45;&gt;Node29 -->
<g id="edge36" class="edge">
<title>Node28&#45;&gt;Node29</title>
<path fill="none" stroke="#9a32cd" stroke-dasharray="5,2" d="M796.2033,-55.0603C809.6385,-65.4527 828.1641,-78.7246 846,-88 872.8161,-101.9454 886.7826,-91.6471 910,-111 922.238,-121.201 917.0238,-130.4523 928,-142 934.514,-148.8532 943.0922,-154.8019 950.7581,-159.3582"/>
<polygon fill="#9a32cd" stroke="#9a32cd" points="798.1859,-52.1663 788.168,-48.7178 793.8489,-57.6609 798.1859,-52.1663"/>
<text text-anchor="middle" x="878" y="-114" font-family="Helvetica,sans-Serif" font-size="10.00" fill="#000000"> param_list</text>
</g>
<!-- Node30 -->
<g id="node22" class="node">
<title>Node30</title>
<g id="a_node22"><a xlink:href="a00888.html" target="_top" xlink:title=" ">
<polygon fill="#ffffff" stroke="#000000" points="1029,-66.5 1029,-85.5 1115,-85.5 1115,-66.5 1029,-66.5"/>
<text text-anchor="middle" x="1072" y="-73.5" font-family="Helvetica,sans-Serif" font-size="10.00" fill="#000000">_csremote_proc</text>
</a>
</g>
</g>
<!-- Node28&#45;&gt;Node30 -->
<g id="edge41" class="edge">
<title>Node28&#45;&gt;Node30</title>
<path fill="none" stroke="#9a32cd" stroke-dasharray="5,2" d="M819.3592,-47.5665C828.15,-49.1686 837.3575,-50.7348 846,-52 909.441,-61.287 983.4033,-68.4541 1028.9676,-72.4506"/>
<polygon fill="#9a32cd" stroke="#9a32cd" points="819.7627,-44.0814 809.29,-45.6851 818.477,-50.9623 819.7627,-44.0814"/>
<text text-anchor="middle" x="878" y="-63" font-family="Helvetica,sans-Serif" font-size="10.00" fill="#000000"> param_list</text>
</g>
<!-- Node29&#45;&gt;Node1 -->
<g id="edge55" class="edge">
<title>Node29&#45;&gt;Node1</title>
<path fill="none" stroke="#9a32cd" stroke-dasharray="5,2" d="M1008.7063,-181.7516C1048.734,-194.7703 1109.9642,-214.685 1146.04,-226.4183"/>
<polygon fill="#9a32cd" stroke="#9a32cd" points="1009.607,-178.3641 999.0148,-178.5995 1007.4419,-185.0209 1009.607,-178.3641"/>
<text text-anchor="middle" x="1072" y="-219" font-family="Helvetica,sans-Serif" font-size="10.00" fill="#000000"> dynlist</text>
</g>
<!-- Node29&#45;&gt;Node26 -->
<g id="edge34" class="edge">
<title>Node29&#45;&gt;Node26</title>
<path fill="none" stroke="#9a32cd" stroke-dasharray="5,2" d="M1016.6744,-166.3922C1075.7873,-162.6003 1180.0213,-154.1792 1268,-138 1275.9788,-136.5327 1284.4799,-134.567 1292.4443,-132.5429"/>
<polygon fill="#9a32cd" stroke="#9a32cd" points="1016.2904,-162.9093 1006.528,-167.0258 1016.7268,-169.8957 1016.2904,-162.9093"/>
<text text-anchor="middle" x="1175.5" y="-159" font-family="Helvetica,sans-Serif" font-size="10.00" fill="#000000"> dyn</text>
</g>
<!-- Node29&#45;&gt;Node29 -->
<g id="edge37" class="edge">
<title>Node29&#45;&gt;Node29</title>
<path fill="none" stroke="#9a32cd" stroke-dasharray="5,2" d="M952.8341,-188.4C953.9472,-193.3146 959.5024,-197 969.5,-197 985.4961,-197 990.12,-187.5653 983.3716,-178.7571"/>
<polygon fill="#9a32cd" stroke="#9a32cd" points="956.2068,-189.3361 955.6284,-178.7571 949.4834,-187.3878 956.2068,-189.3361"/>
<text text-anchor="middle" x="969.5" y="-200" font-family="Helvetica,sans-Serif" font-size="10.00" fill="#000000"> next</text>
</g>
<!-- Node30&#45;&gt;Node26 -->
<g id="edge40" class="edge">
<title>Node30&#45;&gt;Node26</title>
<path fill="none" stroke="#9a32cd" stroke-dasharray="5,2" d="M1125.3726,-80.2127C1153.1522,-82.9093 1187.5782,-87.041 1218,-93 1244.9268,-98.2744 1274.9549,-106.8396 1296.4996,-113.4704"/>
<polygon fill="#9a32cd" stroke="#9a32cd" points="1125.3562,-76.6959 1115.0735,-79.2486 1124.7037,-83.6655 1125.3562,-76.6959"/>
<text text-anchor="middle" x="1175.5" y="-96" font-family="Helvetica,sans-Serif" font-size="10.00" fill="#000000"> rpc</text>
</g>
<!-- Node31&#45;&gt;Node1 -->
<g id="edge42" class="edge">
<title>Node31&#45;&gt;Node1</title>
<path fill="none" stroke="#9a32cd" stroke-dasharray="5,2" d="M1015.3519,-236C1050.4222,-236 1098.4253,-236 1132.7111,-236"/>
<polygon fill="#9a32cd" stroke="#9a32cd" points="1014.9127,-232.5001 1004.9127,-236 1014.9126,-239.5001 1014.9127,-232.5001"/>
<text text-anchor="middle" x="1072" y="-261" font-family="Helvetica,sans-Serif" font-size="10.00" fill="#000000"> ctx</text>
<text text-anchor="middle" x="1072" y="-250" font-family="Helvetica,sans-Serif" font-size="10.00" fill="#000000">_clientmsg_cb</text>
<text text-anchor="middle" x="1072" y="-239" font-family="Helvetica,sans-Serif" font-size="10.00" fill="#000000">_servermsg_cb</text>
</g>
<!-- Node31&#45;&gt;Node31 -->
<g id="edge48" class="edge">
<title>Node31&#45;&gt;Node31</title>
<path fill="none" stroke="#9a32cd" stroke-dasharray="5,2" d="M952.8341,-255.4C953.9472,-260.3146 959.5024,-264 969.5,-264 985.4961,-264 990.12,-254.5653 983.3716,-245.7571"/>
<polygon fill="#9a32cd" stroke="#9a32cd" points="956.2068,-256.3361 955.6284,-245.7571 949.4834,-254.3878 956.2068,-256.3361"/>
<text text-anchor="middle" x="969.5" y="-289" font-family="Helvetica,sans-Serif" font-size="10.00" fill="#000000"> _clientmsg_cb</text>
<text text-anchor="middle" x="969.5" y="-278" font-family="Helvetica,sans-Serif" font-size="10.00" fill="#000000">_servermsg_cb</text>
<text text-anchor="middle" x="969.5" y="-267" font-family="Helvetica,sans-Serif" font-size="10.00" fill="#000000">_cslibmsg_cb</text>
</g>
<!-- Node32 -->
<g id="node24" class="node">
<title>Node32</title>
<g id="a_node24"><a xlink:href="a00860.html" target="_top" xlink:title=" ">
<polygon fill="#ffffff" stroke="#000000" points="725,-268.5 725,-287.5 828,-287.5 828,-268.5 725,-268.5"/>
<text text-anchor="middle" x="776.5" y="-275.5" font-family="Helvetica,sans-Serif" font-size="10.00" fill="#000000">cs_diag_msg_client</text>
</a>
</g>
</g>
<!-- Node32&#45;&gt;Node31 -->
<g id="edge43" class="edge">
<title>Node32&#45;&gt;Node31</title>
<path fill="none" stroke="#9a32cd" stroke-dasharray="5,2" d="M812.13,-264.9469C817.4552,-262.9694 822.8757,-260.9415 828,-259 836.0268,-255.9588 837.6829,-254.1225 846,-252 875.3283,-244.5155 909.5142,-240.432 934.4734,-238.2681"/>
<polygon fill="#9a32cd" stroke="#9a32cd" points="810.8974,-261.671 802.7323,-268.4224 813.3256,-268.2364 810.8974,-261.671"/>
<text text-anchor="middle" x="878" y="-255" font-family="Helvetica,sans-Serif" font-size="10.00" fill="#000000"> clientstore</text>
</g>
<!-- Node32&#45;&gt;Node32 -->
<g id="edge44" class="edge">
<title>Node32&#45;&gt;Node32</title>
<path fill="none" stroke="#9a32cd" stroke-dasharray="5,2" d="M759.0934,-297.4C760.2559,-302.3146 766.0581,-306 776.5,-306 793.207,-306 798.0364,-296.5653 790.9881,-287.7571"/>
<polygon fill="#9a32cd" stroke="#9a32cd" points="762.465,-298.3422 762.0119,-287.7571 755.7651,-296.3144 762.465,-298.3422"/>
<text text-anchor="middle" x="776.5" y="-309" font-family="Helvetica,sans-Serif" font-size="10.00" fill="#000000"> next</text>
</g>
<!-- Node33 -->
<g id="node25" class="node">
<title>Node33</title>
<g id="a_node25"><a xlink:href="a00848.html" target="_top" xlink:title=" ">
<polygon fill="#ffffff" stroke="#000000" points="558.5,-234.5 558.5,-253.5 638.5,-253.5 638.5,-234.5 558.5,-234.5"/>
<text text-anchor="middle" x="598.5" y="-241.5" font-family="Helvetica,sans-Serif" font-size="10.00" fill="#000000">_cs_clientmsg</text>
</a>
</g>
</g>
<!-- Node33&#45;&gt;Node32 -->
<g id="edge45" class="edge">
<title>Node33&#45;&gt;Node32</title>
<path fill="none" stroke="#9a32cd" stroke-dasharray="5,2" d="M649.0088,-253.6477C673.3629,-258.2997 702.48,-263.8614 726.7359,-268.4945"/>
<polygon fill="#9a32cd" stroke="#9a32cd" points="649.3701,-250.1536 638.891,-251.7151 648.0567,-257.0292 649.3701,-250.1536"/>
<text text-anchor="middle" x="682.5" y="-267" font-family="Helvetica,sans-Serif" font-size="10.00" fill="#000000"> clientmsg</text>
</g>
<!-- Node37 -->
<g id="node29" class="node">
<title>Node37</title>
<g id="a_node29"><a xlink:href="a00868.html" target="_top" xlink:title=" ">
<polygon fill="#ffffff" stroke="#000000" points="739.5,-201.5 739.5,-220.5 813.5,-220.5 813.5,-201.5 739.5,-201.5"/>
<text text-anchor="middle" x="776.5" y="-208.5" font-family="Helvetica,sans-Serif" font-size="10.00" fill="#000000">cs_diag_msg</text>
</a>
</g>
</g>
<!-- Node33&#45;&gt;Node37 -->
<g id="edge53" class="edge">
<title>Node33&#45;&gt;Node37</title>
<path fill="none" stroke="#9a32cd" stroke-dasharray="5,2" d="M643.7053,-232.1221C648.5166,-231.0021 653.3495,-229.9371 658,-229 685.0285,-223.5534 715.8229,-218.9229 739.2443,-215.7228"/>
<polygon fill="#9a32cd" stroke="#9a32cd" points="642.8294,-228.7329 633.9255,-234.475 644.4668,-235.5387 642.8294,-228.7329"/>
<text text-anchor="middle" x="682.5" y="-232" font-family="Helvetica,sans-Serif" font-size="10.00" fill="#000000"> msg</text>
</g>
<!-- Node34 -->
<g id="node26" class="node">
<title>Node34</title>
<g id="a_node26"><a xlink:href="a00856.html" target="_top" xlink:title=" ">
<polygon fill="#ffffff" stroke="#000000" points="744.5,-163.5 744.5,-182.5 808.5,-182.5 808.5,-163.5 744.5,-163.5"/>
<text text-anchor="middle" x="776.5" y="-170.5" font-family="Helvetica,sans-Serif" font-size="10.00" fill="#000000">_cs_config</text>
</a>
</g>
</g>
<!-- Node34&#45;&gt;Node31 -->
<g id="edge47" class="edge">
<title>Node34&#45;&gt;Node31</title>
<path fill="none" stroke="#9a32cd" stroke-dasharray="5,2" d="M818.7019,-172.4268C846.336,-173.7923 882.3209,-178.9974 910,-195 920.9371,-201.3233 917.9981,-209.2821 928,-217 932.7679,-220.6791 938.3624,-223.8482 943.8726,-226.486"/>
<polygon fill="#9a32cd" stroke="#9a32cd" points="818.6692,-168.9237 808.5545,-172.0769 818.4279,-175.9195 818.6692,-168.9237"/>
<text text-anchor="middle" x="878" y="-198" font-family="Helvetica,sans-Serif" font-size="10.00" fill="#000000"> config</text>
</g>
<!-- Node35 -->
<g id="node27" class="node">
<title>Node35</title>
<g id="a_node27"><a xlink:href="a00864.html" target="_top" xlink:title=" ">
<polygon fill="#ffffff" stroke="#000000" points="730,-96.5 730,-115.5 823,-115.5 823,-96.5 730,-96.5"/>
<text text-anchor="middle" x="776.5" y="-103.5" font-family="Helvetica,sans-Serif" font-size="10.00" fill="#000000">cs_diag_msg_svr</text>
</a>
</g>
</g>
<!-- Node35&#45;&gt;Node31 -->
<g id="edge49" class="edge">
<title>Node35&#45;&gt;Node31</title>
<path fill="none" stroke="#9a32cd" stroke-dasharray="5,2" d="M818.62,-118.6872C852.7256,-129.7255 897.1407,-146.0895 910,-160 928.0338,-179.508 910.4094,-197.0915 928,-217 931.358,-220.8004 935.6307,-223.8881 940.1509,-226.382"/>
<polygon fill="#9a32cd" stroke="#9a32cd" points="819.4523,-115.2792 808.8618,-115.5815 817.3293,-121.9495 819.4523,-115.2792"/>
<text text-anchor="middle" x="878" y="-163" font-family="Helvetica,sans-Serif" font-size="10.00" fill="#000000"> svrstore</text>
</g>
<!-- Node35&#45;&gt;Node35 -->
<g id="edge50" class="edge">
<title>Node35&#45;&gt;Node35</title>
<path fill="none" stroke="#9a32cd" stroke-dasharray="5,2" d="M759.0934,-125.4C760.2559,-130.3146 766.0581,-134 776.5,-134 793.207,-134 798.0364,-124.5653 790.9881,-115.7571"/>
<polygon fill="#9a32cd" stroke="#9a32cd" points="762.465,-126.3422 762.0119,-115.7571 755.7651,-124.3144 762.465,-126.3422"/>
<text text-anchor="middle" x="776.5" y="-137" font-family="Helvetica,sans-Serif" font-size="10.00" fill="#000000"> next</text>
</g>
<!-- Node36 -->
<g id="node28" class="node">
<title>Node36</title>
<g id="a_node28"><a xlink:href="a00852.html" target="_top" xlink:title=" ">
<polygon fill="#ffffff" stroke="#000000" points="557,-96.5 557,-115.5 640,-115.5 640,-96.5 557,-96.5"/>
<text text-anchor="middle" x="598.5" y="-103.5" font-family="Helvetica,sans-Serif" font-size="10.00" fill="#000000">_cs_servermsg</text>
</a>
</g>
</g>
<!-- Node36&#45;&gt;Node35 -->
<g id="edge51" class="edge">
<title>Node36&#45;&gt;Node35</title>
<path fill="none" stroke="#9a32cd" stroke-dasharray="5,2" d="M650.304,-106C675.3972,-106 705.3008,-106 729.699,-106"/>
<polygon fill="#9a32cd" stroke="#9a32cd" points="650.2331,-102.5001 640.2331,-106 650.2331,-109.5001 650.2331,-102.5001"/>
<text text-anchor="middle" x="682.5" y="-109" font-family="Helvetica,sans-Serif" font-size="10.00" fill="#000000"> servermsg</text>
</g>
<!-- Node37&#45;&gt;Node31 -->
<g id="edge52" class="edge">
<title>Node37&#45;&gt;Node31</title>
<path fill="none" stroke="#9a32cd" stroke-dasharray="5,2" d="M823.8365,-210.1007C849.5128,-210.3703 881.6978,-211.9374 910,-217 921.635,-219.0812 934.1488,-222.8347 944.6838,-226.459"/>
<polygon fill="#9a32cd" stroke="#9a32cd" points="823.6362,-206.5999 813.6214,-210.0574 823.6065,-213.5999 823.6362,-206.5999"/>
<text text-anchor="middle" x="878" y="-220" font-family="Helvetica,sans-Serif" font-size="10.00" fill="#000000"> msgstore</text>
</g>
<!-- Node37&#45;&gt;Node37 -->
<g id="edge54" class="edge">
<title>Node37&#45;&gt;Node37</title>
<path fill="none" stroke="#9a32cd" stroke-dasharray="5,2" d="M759.0934,-230.4C760.2559,-235.3146 766.0581,-239 776.5,-239 793.207,-239 798.0364,-229.5653 790.9881,-220.7571"/>
<polygon fill="#9a32cd" stroke="#9a32cd" points="762.465,-231.3422 762.0119,-220.7571 755.7651,-229.3144 762.465,-231.3422"/>
<text text-anchor="middle" x="776.5" y="-242" font-family="Helvetica,sans-Serif" font-size="10.00" fill="#000000"> next</text>
</g>
</g>
</svg>
