<?xml version="1.0" encoding="UTF-8" standalone="no"?>
<!DOCTYPE svg PUBLIC "-//W3C//DTD SVG 1.1//EN"
 "http://www.w3.org/Graphics/SVG/1.1/DTD/svg11.dtd">
<!-- Generated by graphviz version 2.40.1 (20161225.0304)
 -->
<!-- Title: _cs_context Pages: 1 -->
<svg width="603pt" height="175pt"
 viewBox="0.00 0.00 603.00 175.00" xmlns="http://www.w3.org/2000/svg" xmlns:xlink="http://www.w3.org/1999/xlink">
<g id="graph0" class="graph" transform="scale(1 1) rotate(0) translate(4 171)">
<title>_cs_context</title>
<polygon fill="#ffffff" stroke="transparent" points="-4,4 -4,-171 599,-171 599,4 -4,4"/>
<!-- Node1 -->
<g id="node1" class="node">
<title>Node1</title>
<g id="a_node1"><a xlink:title=" ">
<polygon fill="#bfbfbf" stroke="#000000" points="292.5,-7 292.5,-26 362.5,-26 362.5,-7 292.5,-7"/>
<text text-anchor="middle" x="327.5" y="-14" font-family="Helvetica,sans-Serif" font-size="10.00" fill="#000000">_cs_context</text>
</a>
</g>
</g>
<!-- Node1&#45;&gt;Node1 -->
<g id="edge7" class="edge">
<title>Node1&#45;&gt;Node1</title>
<path fill="none" stroke="#9a32cd" stroke-dasharray="5,2" d="M372.7347,-22.7141C377.4673,-21.5011 380.5,-19.4297 380.5,-16.5 380.5,-11.8125 372.7363,-9.3223 362.6678,-9.0293"/>
<polygon fill="#9a32cd" stroke="#9a32cd" points="372.1573,-19.259 362.6678,-23.9707 373.0244,-26.2051 372.1573,-19.259"/>
<text text-anchor="middle" x="414" y="-25" font-family="Helvetica,sans-Serif" font-size="10.00" fill="#000000"> _clientmsg_cb</text>
<text text-anchor="middle" x="414" y="-14" font-family="Helvetica,sans-Serif" font-size="10.00" fill="#000000">_servermsg_cb</text>
<text text-anchor="middle" x="414" y="-3" font-family="Helvetica,sans-Serif" font-size="10.00" fill="#000000">_cslibmsg_cb</text>
</g>
<!-- Node2 -->
<g id="node2" class="node">
<title>Node2</title>
<g id="a_node2"><a xlink:href="a00860.html" target="_top" xlink:title=" ">
<polygon fill="#ffffff" stroke="#000000" points="0,-80.5 0,-99.5 103,-99.5 103,-80.5 0,-80.5"/>
<text text-anchor="middle" x="51.5" y="-87.5" font-family="Helvetica,sans-Serif" font-size="10.00" fill="#000000">cs_diag_msg_client</text>
</a>
</g>
</g>
<!-- Node2&#45;&gt;Node1 -->
<g id="edge1" class="edge">
<title>Node2&#45;&gt;Node1</title>
<path fill="none" stroke="#9a32cd" stroke-dasharray="5,2" d="M96.0461,-77.8264C124.4823,-70.0823 162.1391,-59.8771 195.5,-51 228.3471,-42.2596 265.8456,-32.4777 292.4599,-25.5682"/>
<polygon fill="#9a32cd" stroke="#9a32cd" points="95.1224,-74.4504 86.3945,-80.4567 96.963,-81.2041 95.1224,-74.4504"/>
<text text-anchor="middle" x="220" y="-54" font-family="Helvetica,sans-Serif" font-size="10.00" fill="#000000"> clientstore</text>
</g>
<!-- Node2&#45;&gt;Node2 -->
<g id="edge2" class="edge">
<title>Node2&#45;&gt;Node2</title>
<path fill="none" stroke="#9a32cd" stroke-dasharray="5,2" d="M112.9555,-94.5916C117.9218,-93.5925 121,-92.062 121,-90 121,-86.7813 113.4995,-84.8575 103.0253,-84.2289"/>
<polygon fill="#9a32cd" stroke="#9a32cd" points="112.5426,-91.1159 103.0253,-95.7711 113.3683,-98.0671 112.5426,-91.1159"/>
<text text-anchor="middle" x="132" y="-87.5" font-family="Helvetica,sans-Serif" font-size="10.00" fill="#000000"> next</text>
</g>
<!-- Node3 -->
<g id="node3" class="node">
<title>Node3</title>
<g id="a_node3"><a xlink:href="a00848.html" target="_top" xlink:title=" ">
<polygon fill="#ffffff" stroke="#000000" points="75.5,-147.5 75.5,-166.5 155.5,-166.5 155.5,-147.5 75.5,-147.5"/>
<text text-anchor="middle" x="115.5" y="-154.5" font-family="Helvetica,sans-Serif" font-size="10.00" fill="#000000">_cs_clientmsg</text>
</a>
</g>
</g>
<!-- Node3&#45;&gt;Node2 -->
<g id="edge3" class="edge">
<title>Node3&#45;&gt;Node2</title>
<path fill="none" stroke="#9a32cd" stroke-dasharray="5,2" d="M99.3362,-140.0785C87.0953,-127.2639 70.7208,-110.1218 60.6526,-99.5817"/>
<polygon fill="#9a32cd" stroke="#9a32cd" points="96.8921,-142.587 106.3304,-147.4005 101.9539,-137.7518 96.8921,-142.587"/>
<text text-anchor="middle" x="110.5" y="-121" font-family="Helvetica,sans-Serif" font-size="10.00" fill="#000000"> clientmsg</text>
</g>
<!-- Node9 -->
<g id="node9" class="node">
<title>Node9</title>
<g id="a_node9"><a xlink:href="a00868.html" target="_top" xlink:title=" ">
<polygon fill="#ffffff" stroke="#000000" points="161.5,-80.5 161.5,-99.5 235.5,-99.5 235.5,-80.5 161.5,-80.5"/>
<text text-anchor="middle" x="198.5" y="-87.5" font-family="Helvetica,sans-Serif" font-size="10.00" fill="#000000">cs_diag_msg</text>
</a>
</g>
</g>
<!-- Node3&#45;&gt;Node9 -->
<g id="edge12" class="edge">
<title>Node3&#45;&gt;Node9</title>
<path fill="none" stroke="#9a32cd" stroke-dasharray="5,2" d="M135.5697,-140.7992C151.533,-127.9131 173.3266,-110.3207 186.6302,-99.5817"/>
<polygon fill="#9a32cd" stroke="#9a32cd" points="132.9746,-138.3959 127.3919,-147.4005 137.3715,-143.8427 132.9746,-138.3959"/>
<text text-anchor="middle" x="173.5" y="-121" font-family="Helvetica,sans-Serif" font-size="10.00" fill="#000000"> msg</text>
</g>
<!-- Node4 -->
<g id="node4" class="node">
<title>Node4</title>
<g id="a_node4"><a xlink:href="a01204.html" target="_top" xlink:title=" ">
<polygon fill="#ffffff" stroke="#000000" points="293.5,-80.5 293.5,-99.5 361.5,-99.5 361.5,-80.5 293.5,-80.5"/>
<text text-anchor="middle" x="327.5" y="-87.5" font-family="Helvetica,sans-Serif" font-size="10.00" fill="#000000">tds_context</text>
</a>
</g>
</g>
<!-- Node4&#45;&gt;Node1 -->
<g id="edge4" class="edge">
<title>Node4&#45;&gt;Node1</title>
<path fill="none" stroke="#9a32cd" stroke-dasharray="5,2" d="M327.5,-70.1616C327.5,-55.981 327.5,-37.504 327.5,-26.3458"/>
<polygon fill="#9a32cd" stroke="#9a32cd" points="324.0001,-70.3911 327.5,-80.3912 331.0001,-70.3912 324.0001,-70.3911"/>
<text text-anchor="middle" x="345.5" y="-54" font-family="Helvetica,sans-Serif" font-size="10.00" fill="#000000"> tds_ctx</text>
</g>
<!-- Node5 -->
<g id="node5" class="node">
<title>Node5</title>
<g id="a_node5"><a xlink:href="a01140.html" target="_top" xlink:title=" ">
<polygon fill="#ffffff" stroke="#000000" points="297,-147.5 297,-166.5 358,-166.5 358,-147.5 297,-147.5"/>
<text text-anchor="middle" x="327.5" y="-154.5" font-family="Helvetica,sans-Serif" font-size="10.00" fill="#000000">tds_locale</text>
</a>
</g>
</g>
<!-- Node5&#45;&gt;Node4 -->
<g id="edge5" class="edge">
<title>Node5&#45;&gt;Node4</title>
<path fill="none" stroke="#9a32cd" stroke-dasharray="5,2" d="M327.5,-137.1079C327.5,-124.714 327.5,-109.3263 327.5,-99.5817"/>
<polygon fill="#9a32cd" stroke="#9a32cd" points="324.0001,-137.4005 327.5,-147.4005 331.0001,-137.4006 324.0001,-137.4005"/>
<text text-anchor="middle" x="342" y="-121" font-family="Helvetica,sans-Serif" font-size="10.00" fill="#000000"> locale</text>
</g>
<!-- Node6 -->
<g id="node6" class="node">
<title>Node6</title>
<g id="a_node6"><a xlink:href="a00856.html" target="_top" xlink:title=" ">
<polygon fill="#ffffff" stroke="#000000" points="379.5,-80.5 379.5,-99.5 443.5,-99.5 443.5,-80.5 379.5,-80.5"/>
<text text-anchor="middle" x="411.5" y="-87.5" font-family="Helvetica,sans-Serif" font-size="10.00" fill="#000000">_cs_config</text>
</a>
</g>
</g>
<!-- Node6&#45;&gt;Node1 -->
<g id="edge6" class="edge">
<title>Node6&#45;&gt;Node1</title>
<path fill="none" stroke="#9a32cd" stroke-dasharray="5,2" d="M393.1045,-73.5959C385.239,-66.6075 375.9409,-58.3804 367.5,-51 357.8347,-42.549 346.7779,-33.0233 338.7422,-26.1258"/>
<polygon fill="#9a32cd" stroke="#9a32cd" points="390.8895,-76.3099 400.6868,-80.3427 395.5427,-71.0804 390.8895,-76.3099"/>
<text text-anchor="middle" x="395.5" y="-54" font-family="Helvetica,sans-Serif" font-size="10.00" fill="#000000"> config</text>
</g>
<!-- Node7 -->
<g id="node7" class="node">
<title>Node7</title>
<g id="a_node7"><a xlink:href="a00864.html" target="_top" xlink:title=" ">
<polygon fill="#ffffff" stroke="#000000" points="462,-80.5 462,-99.5 555,-99.5 555,-80.5 462,-80.5"/>
<text text-anchor="middle" x="508.5" y="-87.5" font-family="Helvetica,sans-Serif" font-size="10.00" fill="#000000">cs_diag_msg_svr</text>
</a>
</g>
</g>
<!-- Node7&#45;&gt;Node1 -->
<g id="edge8" class="edge">
<title>Node7&#45;&gt;Node1</title>
<path fill="none" stroke="#9a32cd" stroke-dasharray="5,2" d="M476.2361,-76.4668C458.1196,-68.9048 435.083,-59.3504 414.5,-51 393.4209,-42.4483 369.3777,-32.9321 351.9167,-26.0638"/>
<polygon fill="#9a32cd" stroke="#9a32cd" points="475.1715,-79.8152 485.7477,-80.4426 477.8711,-73.3567 475.1715,-79.8152"/>
<text text-anchor="middle" x="460" y="-54" font-family="Helvetica,sans-Serif" font-size="10.00" fill="#000000"> svrstore</text>
</g>
<!-- Node7&#45;&gt;Node7 -->
<g id="edge9" class="edge">
<title>Node7&#45;&gt;Node7</title>
<path fill="none" stroke="#9a32cd" stroke-dasharray="5,2" d="M565.3467,-94.6317C570.0656,-93.6338 573,-92.0898 573,-90 573,-86.6563 565.488,-84.7101 555.1737,-84.1615"/>
<polygon fill="#9a32cd" stroke="#9a32cd" points="564.6917,-91.1848 555.1737,-95.8385 565.5164,-98.1361 564.6917,-91.1848"/>
<text text-anchor="middle" x="584" y="-87.5" font-family="Helvetica,sans-Serif" font-size="10.00" fill="#000000"> next</text>
</g>
<!-- Node8 -->
<g id="node8" class="node">
<title>Node8</title>
<g id="a_node8"><a xlink:href="a00852.html" target="_top" xlink:title=" ">
<polygon fill="#ffffff" stroke="#000000" points="467,-147.5 467,-166.5 550,-166.5 550,-147.5 467,-147.5"/>
<text text-anchor="middle" x="508.5" y="-154.5" font-family="Helvetica,sans-Serif" font-size="10.00" fill="#000000">_cs_servermsg</text>
</a>
</g>
</g>
<!-- Node8&#45;&gt;Node7 -->
<g id="edge10" class="edge">
<title>Node8&#45;&gt;Node7</title>
<path fill="none" stroke="#9a32cd" stroke-dasharray="5,2" d="M508.5,-137.1079C508.5,-124.714 508.5,-109.3263 508.5,-99.5817"/>
<polygon fill="#9a32cd" stroke="#9a32cd" points="505.0001,-137.4005 508.5,-147.4005 512.0001,-137.4006 505.0001,-137.4005"/>
<text text-anchor="middle" x="533" y="-121" font-family="Helvetica,sans-Serif" font-size="10.00" fill="#000000"> servermsg</text>
</g>
<!-- Node9&#45;&gt;Node1 -->
<g id="edge11" class="edge">
<title>Node9&#45;&gt;Node1</title>
<path fill="none" stroke="#9a32cd" stroke-dasharray="5,2" d="M224.1786,-75.3692C249.8578,-60.738 288.6106,-38.6579 310.6314,-26.1112"/>
<polygon fill="#9a32cd" stroke="#9a32cd" points="222.3205,-72.3996 215.3645,-80.3912 225.7858,-78.4816 222.3205,-72.3996"/>
<text text-anchor="middle" x="289.5" y="-54" font-family="Helvetica,sans-Serif" font-size="10.00" fill="#000000"> msgstore</text>
</g>
<!-- Node9&#45;&gt;Node9 -->
<g id="edge13" class="edge">
<title>Node9&#45;&gt;Node9</title>
<path fill="none" stroke="#9a32cd" stroke-dasharray="5,2" d="M245.6857,-94.9222C250.4569,-93.9454 253.5,-92.3047 253.5,-90 253.5,-86.3125 245.7097,-84.3247 235.5153,-84.0366"/>
<polygon fill="#9a32cd" stroke="#9a32cd" points="245.1068,-91.4631 235.5153,-95.9634 245.8198,-98.4267 245.1068,-91.4631"/>
<text text-anchor="middle" x="264.5" y="-87.5" font-family="Helvetica,sans-Serif" font-size="10.00" fill="#000000"> next</text>
</g>
</g>
</svg>
