<?xml version="1.0" encoding="UTF-8" standalone="no"?>
<!DOCTYPE svg PUBLIC "-//W3C//DTD SVG 1.1//EN"
 "http://www.w3.org/Graphics/SVG/1.1/DTD/svg11.dtd">
<!-- Generated by graphviz version 2.40.1 (20161225.0304)
 -->
<!-- Title: cs_diag_msg_client Pages: 1 -->
<svg width="151pt" height="95pt"
 viewBox="0.00 0.00 151.00 95.00" xmlns="http://www.w3.org/2000/svg" xmlns:xlink="http://www.w3.org/1999/xlink">
<g id="graph0" class="graph" transform="scale(1 1) rotate(0) translate(4 91)">
<title>cs_diag_msg_client</title>
<polygon fill="#ffffff" stroke="transparent" points="-4,4 -4,-91 147,-91 147,4 -4,4"/>
<!-- Node1 -->
<g id="node1" class="node">
<title>Node1</title>
<g id="a_node1"><a xlink:title=" ">
<polygon fill="#bfbfbf" stroke="#000000" points="0,-.5 0,-19.5 103,-19.5 103,-.5 0,-.5"/>
<text text-anchor="middle" x="51.5" y="-7.5" font-family="Helvetica,sans-Serif" font-size="10.00" fill="#000000">cs_diag_msg_client</text>
</a>
</g>
</g>
<!-- Node1&#45;&gt;Node1 -->
<g id="edge1" class="edge">
<title>Node1&#45;&gt;Node1</title>
<path fill="none" stroke="#9a32cd" stroke-dasharray="5,2" d="M112.9555,-14.5916C117.9218,-13.5925 121,-12.062 121,-10 121,-6.7813 113.4995,-4.8575 103.0253,-4.2289"/>
<polygon fill="#9a32cd" stroke="#9a32cd" points="112.5426,-11.1159 103.0253,-15.7711 113.3683,-18.0671 112.5426,-11.1159"/>
<text text-anchor="middle" x="132" y="-7.5" font-family="Helvetica,sans-Serif" font-size="10.00" fill="#000000"> next</text>
</g>
<!-- Node2 -->
<g id="node2" class="node">
<title>Node2</title>
<g id="a_node2"><a xlink:href="a00848.html" target="_top" xlink:title=" ">
<polygon fill="#ffffff" stroke="#000000" points="11.5,-67.5 11.5,-86.5 91.5,-86.5 91.5,-67.5 11.5,-67.5"/>
<text text-anchor="middle" x="51.5" y="-74.5" font-family="Helvetica,sans-Serif" font-size="10.00" fill="#000000">_cs_clientmsg</text>
</a>
</g>
</g>
<!-- Node2&#45;&gt;Node1 -->
<g id="edge2" class="edge">
<title>Node2&#45;&gt;Node1</title>
<path fill="none" stroke="#9a32cd" stroke-dasharray="5,2" d="M51.5,-57.1079C51.5,-44.714 51.5,-29.3263 51.5,-19.5817"/>
<polygon fill="#9a32cd" stroke="#9a32cd" points="48.0001,-57.4005 51.5,-67.4005 55.0001,-57.4006 48.0001,-57.4005"/>
<text text-anchor="middle" x="74.5" y="-41" font-family="Helvetica,sans-Serif" font-size="10.00" fill="#000000"> clientmsg</text>
</g>
</g>
</svg>
