<?xml version="1.0" encoding="UTF-8" standalone="no"?>
<!DOCTYPE svg PUBLIC "-//W3C//DTD SVG 1.1//EN"
 "http://www.w3.org/Graphics/SVG/1.1/DTD/svg11.dtd">
<!-- Generated by graphviz version 2.40.1 (20161225.0304)
 -->
<!-- Title: _cs_command Pages: 1 -->
<svg width="1320pt" height="433pt"
 viewBox="0.00 0.00 1320.00 433.00" xmlns="http://www.w3.org/2000/svg" xmlns:xlink="http://www.w3.org/1999/xlink">
<g id="graph0" class="graph" transform="scale(1 1) rotate(0) translate(4 429)">
<title>_cs_command</title>
<polygon fill="#ffffff" stroke="transparent" points="-4,4 -4,-429 1316,-429 1316,4 -4,4"/>
<!-- Node1 -->
<g id="node1" class="node">
<title>Node1</title>
<g id="a_node1"><a xlink:title=" ">
<polygon fill="#bfbfbf" stroke="#000000" points="343.5,-96 343.5,-115 423.5,-115 423.5,-96 343.5,-96"/>
<text text-anchor="middle" x="383.5" y="-103" font-family="Helvetica,sans-Serif" font-size="10.00" fill="#000000">_cs_command</text>
</a>
</g>
</g>
<!-- Node1&#45;&gt;Node1 -->
<g id="edge3" class="edge">
<title>Node1&#45;&gt;Node1</title>
<path fill="none" stroke="#9a32cd" stroke-dasharray="5,2" d="M433.7648,-111.5257C438.5048,-110.2918 441.5,-108.2832 441.5,-105.5 441.5,-101.0469 433.8323,-98.5768 423.6186,-98.0897"/>
<polygon fill="#9a32cd" stroke="#9a32cd" points="433.0536,-108.0903 423.6186,-112.9103 434.0001,-115.026 433.0536,-108.0903"/>
<text text-anchor="middle" x="452.5" y="-103" font-family="Helvetica,sans-Serif" font-size="10.00" fill="#000000"> next</text>
</g>
<!-- Node29 -->
<g id="node11" class="node">
<title>Node29</title>
<g id="a_node11"><a xlink:href="a00880.html" target="_top" xlink:title=" ">
<polygon fill="#ffffff" stroke="#000000" points="457,-.5 457,-19.5 542,-19.5 542,-.5 457,-.5"/>
<text text-anchor="middle" x="499.5" y="-7.5" font-family="Helvetica,sans-Serif" font-size="10.00" fill="#000000">_cs_connection</text>
</a>
</g>
</g>
<!-- Node1&#45;&gt;Node29 -->
<g id="edge24" class="edge">
<title>Node1&#45;&gt;Node29</title>
<path fill="none" stroke="#9a32cd" stroke-dasharray="5,2" d="M401.2723,-88.7143C419.3785,-71.7185 446.3347,-46.7327 457.5,-38 465.9215,-31.4133 475.855,-24.7454 483.9467,-19.5696"/>
<polygon fill="#9a32cd" stroke="#9a32cd" points="398.5482,-86.4718 393.6645,-95.874 403.3455,-91.5694 398.5482,-86.4718"/>
<text text-anchor="middle" x="471.5" y="-52" font-family="Helvetica,sans-Serif" font-size="10.00" fill="#000000"> cmds</text>
</g>
<!-- Node2 -->
<g id="node2" class="node">
<title>Node2</title>
<g id="a_node2"><a xlink:href="a00820.html" target="_top" xlink:title=" ">
<polygon fill="#ffffff" stroke="#000000" points="52.5,-169.5 52.5,-188.5 118.5,-188.5 118.5,-169.5 52.5,-169.5"/>
<text text-anchor="middle" x="85.5" y="-176.5" font-family="Helvetica,sans-Serif" font-size="10.00" fill="#000000">_cs_iodesc</text>
</a>
</g>
</g>
<!-- Node2&#45;&gt;Node1 -->
<g id="edge1" class="edge">
<title>Node2&#45;&gt;Node1</title>
<path fill="none" stroke="#9a32cd" stroke-dasharray="5,2" d="M112.5238,-164.6925C129.3555,-156.3402 151.6943,-146.2483 172.5,-140 230.4463,-122.5978 300.1433,-113.3696 343.1351,-108.9613"/>
<polygon fill="#9a32cd" stroke="#9a32cd" points="110.6398,-161.7235 103.3032,-169.3671 113.8051,-167.967 110.6398,-161.7235"/>
<text text-anchor="middle" x="188.5" y="-143" font-family="Helvetica,sans-Serif" font-size="10.00" fill="#000000"> iodesc</text>
</g>
<!-- Node3 -->
<g id="node3" class="node">
<title>Node3</title>
<g id="a_node3"><a xlink:href="a00904.html" target="_top" xlink:title=" ">
<polygon fill="#ffffff" stroke="#000000" points="0,-236.5 0,-255.5 63,-255.5 63,-236.5 0,-236.5"/>
<text text-anchor="middle" x="31.5" y="-243.5" font-family="Helvetica,sans-Serif" font-size="10.00" fill="#000000">_cs_locale</text>
</a>
</g>
</g>
<!-- Node3&#45;&gt;Node2 -->
<g id="edge2" class="edge">
<title>Node3&#45;&gt;Node2</title>
<path fill="none" stroke="#9a32cd" stroke-dasharray="5,2" d="M45.7265,-228.3486C55.9859,-215.6194 69.4427,-198.9229 77.7775,-188.5817"/>
<polygon fill="#9a32cd" stroke="#9a32cd" points="42.7871,-226.4182 39.2369,-236.4005 48.2373,-230.8109 42.7871,-226.4182"/>
<text text-anchor="middle" x="77" y="-210" font-family="Helvetica,sans-Serif" font-size="10.00" fill="#000000"> locale</text>
</g>
<!-- Node3&#45;&gt;Node29 -->
<g id="edge21" class="edge">
<title>Node3&#45;&gt;Node29</title>
<path fill="none" stroke="#9a32cd" stroke-dasharray="5,2" d="M29.5926,-225.9621C29.0674,-209.084 30.989,-185.1718 43.5,-169 95.7639,-101.4433 353.6895,-40.7039 456.7983,-18.7241"/>
<polygon fill="#9a32cd" stroke="#9a32cd" points="26.1247,-226.5816 30.2471,-236.3415 33.1108,-226.141 26.1247,-226.5816"/>
<text text-anchor="middle" x="93" y="-143" font-family="Helvetica,sans-Serif" font-size="10.00" fill="#000000"> locale</text>
</g>
<!-- Node4 -->
<g id="node4" class="node">
<title>Node4</title>
<g id="a_node4"><a xlink:href="a00884.html" target="_top" xlink:title=" ">
<polygon fill="#ffffff" stroke="#000000" points="365,-236.5 365,-255.5 430,-255.5 430,-236.5 365,-236.5"/>
<text text-anchor="middle" x="397.5" y="-243.5" font-family="Helvetica,sans-Serif" font-size="10.00" fill="#000000">_cs_param</text>
</a>
</g>
</g>
<!-- Node4&#45;&gt;Node1 -->
<g id="edge4" class="edge">
<title>Node4&#45;&gt;Node1</title>
<path fill="none" stroke="#9a32cd" stroke-dasharray="5,2" d="M354.9807,-236.6419C329.4768,-228.603 299.059,-214.175 283.5,-189 262.6317,-155.2343 317.3732,-128.5217 353.864,-115.0607"/>
<polygon fill="#9a32cd" stroke="#9a32cd" points="354.2511,-240.0749 364.8311,-239.5157 356.2116,-233.355 354.2511,-240.0749"/>
<text text-anchor="middle" x="314.5" y="-176.5" font-family="Helvetica,sans-Serif" font-size="10.00" fill="#000000"> input_params</text>
</g>
<!-- Node4&#45;&gt;Node4 -->
<g id="edge5" class="edge">
<title>Node4&#45;&gt;Node4</title>
<path fill="none" stroke="#9a32cd" stroke-dasharray="5,2" d="M440.1447,-251.0661C444.9145,-250.1106 448,-248.4219 448,-246 448,-242.125 440.1012,-240.127 430.0425,-240.0059"/>
<polygon fill="#9a32cd" stroke="#9a32cd" points="439.6803,-247.5939 430.0425,-251.9941 440.3208,-254.5645 439.6803,-247.5939"/>
<text text-anchor="middle" x="459" y="-243.5" font-family="Helvetica,sans-Serif" font-size="10.00" fill="#000000"> next</text>
</g>
<!-- Node5 -->
<g id="node5" class="node">
<title>Node5</title>
<g id="a_node5"><a xlink:href="a00892.html" target="_top" xlink:title=" ">
<polygon fill="#ffffff" stroke="#000000" points="458.5,-169.5 458.5,-188.5 532.5,-188.5 532.5,-169.5 458.5,-169.5"/>
<text text-anchor="middle" x="495.5" y="-176.5" font-family="Helvetica,sans-Serif" font-size="10.00" fill="#000000">_cs_dynamic</text>
</a>
</g>
</g>
<!-- Node4&#45;&gt;Node5 -->
<g id="edge17" class="edge">
<title>Node4&#45;&gt;Node5</title>
<path fill="none" stroke="#9a32cd" stroke-dasharray="5,2" d="M427.3861,-231.7345C435.1207,-227.6355 443.295,-222.9298 450.5,-218 463.4689,-209.1263 476.9015,-197.0411 485.6751,-188.6864"/>
<polygon fill="#9a32cd" stroke="#9a32cd" points="425.5684,-228.7331 418.2643,-236.4078 428.7602,-234.9631 425.5684,-228.7331"/>
<text text-anchor="middle" x="490" y="-210" font-family="Helvetica,sans-Serif" font-size="10.00" fill="#000000"> param_list</text>
</g>
<!-- Node37 -->
<g id="node18" class="node">
<title>Node37</title>
<g id="a_node18"><a xlink:href="a00888.html" target="_top" xlink:title=" ">
<polygon fill="#ffffff" stroke="#000000" points="354.5,-169.5 354.5,-188.5 440.5,-188.5 440.5,-169.5 354.5,-169.5"/>
<text text-anchor="middle" x="397.5" y="-176.5" font-family="Helvetica,sans-Serif" font-size="10.00" fill="#000000">_csremote_proc</text>
</a>
</g>
</g>
<!-- Node4&#45;&gt;Node37 -->
<g id="edge37" class="edge">
<title>Node4&#45;&gt;Node37</title>
<path fill="none" stroke="#9a32cd" stroke-dasharray="5,2" d="M397.5,-226.1079C397.5,-213.714 397.5,-198.3263 397.5,-188.5817"/>
<polygon fill="#9a32cd" stroke="#9a32cd" points="394.0001,-226.4005 397.5,-236.4005 401.0001,-226.4006 394.0001,-226.4005"/>
<text text-anchor="middle" x="422" y="-210" font-family="Helvetica,sans-Serif" font-size="10.00" fill="#000000"> param_list</text>
</g>
<!-- Node5&#45;&gt;Node1 -->
<g id="edge6" class="edge">
<title>Node5&#45;&gt;Node1</title>
<path fill="none" stroke="#9a32cd" stroke-dasharray="5,2" d="M472.3195,-163.7878C450.0274,-149.1586 417.0129,-127.4928 398.1456,-115.1112"/>
<polygon fill="#9a32cd" stroke="#9a32cd" points="470.5771,-166.8307 480.858,-169.3912 474.4178,-160.9784 470.5771,-166.8307"/>
<text text-anchor="middle" x="463" y="-143" font-family="Helvetica,sans-Serif" font-size="10.00" fill="#000000"> dyn</text>
</g>
<!-- Node5&#45;&gt;Node5 -->
<g id="edge18" class="edge">
<title>Node5&#45;&gt;Node5</title>
<path fill="none" stroke="#9a32cd" stroke-dasharray="5,2" d="M542.6857,-183.9222C547.4569,-182.9454 550.5,-181.3047 550.5,-179 550.5,-175.3125 542.7097,-173.3247 532.5153,-173.0366"/>
<polygon fill="#9a32cd" stroke="#9a32cd" points="542.1068,-180.4631 532.5153,-184.9634 542.8198,-187.4267 542.1068,-180.4631"/>
<text text-anchor="middle" x="561.5" y="-176.5" font-family="Helvetica,sans-Serif" font-size="10.00" fill="#000000"> next</text>
</g>
<!-- Node5&#45;&gt;Node29 -->
<g id="edge35" class="edge">
<title>Node5&#45;&gt;Node29</title>
<path fill="none" stroke="#9a32cd" stroke-dasharray="5,2" d="M495.97,-159.1426C496.8294,-122.8346 498.6246,-46.9844 499.266,-19.8864"/>
<polygon fill="#9a32cd" stroke="#9a32cd" points="492.4642,-159.3496 495.7265,-169.4296 499.4623,-159.5153 492.4642,-159.3496"/>
<text text-anchor="middle" x="514.5" y="-103" font-family="Helvetica,sans-Serif" font-size="10.00" fill="#000000"> dynlist</text>
</g>
<!-- Node6 -->
<g id="node6" class="node">
<title>Node6</title>
<g id="a_node6"><a xlink:href="a01196.html" target="_top" xlink:title="Holds information for a dynamic (also called prepared) query.">
<polygon fill="#ffffff" stroke="#000000" points="259.5,-405.5 259.5,-424.5 331.5,-424.5 331.5,-405.5 259.5,-405.5"/>
<text text-anchor="middle" x="295.5" y="-412.5" font-family="Helvetica,sans-Serif" font-size="10.00" fill="#000000">tds_dynamic</text>
</a>
</g>
</g>
<!-- Node6&#45;&gt;Node5 -->
<g id="edge7" class="edge">
<title>Node6&#45;&gt;Node5</title>
<path fill="none" stroke="#9a32cd" stroke-dasharray="5,2" d="M341.87,-406.6517C417.6698,-391.9567 562.6893,-359.0965 592.5,-318 627.4029,-269.8835 546.8305,-211.1567 511.2861,-188.5223"/>
<polygon fill="#9a32cd" stroke="#9a32cd" points="340.8184,-403.2892 331.6529,-408.6036 342.132,-410.1648 340.8184,-403.2892"/>
<text text-anchor="middle" x="618" y="-293.5" font-family="Helvetica,sans-Serif" font-size="10.00" fill="#000000"> tdsdyn</text>
</g>
<!-- Node6&#45;&gt;Node6 -->
<g id="edge8" class="edge">
<title>Node6&#45;&gt;Node6</title>
<path fill="none" stroke="#9a32cd" stroke-dasharray="5,2" d="M341.7083,-419.9469C346.4614,-418.9732 349.5,-417.3242 349.5,-415 349.5,-411.2813 341.7211,-409.2911 331.5873,-409.0297"/>
<polygon fill="#9a32cd" stroke="#9a32cd" points="341.1844,-416.4819 331.5873,-420.9703 341.8887,-423.4464 341.1844,-416.4819"/>
<text text-anchor="middle" x="360.5" y="-412.5" font-family="Helvetica,sans-Serif" font-size="10.00" fill="#000000"> next</text>
</g>
<!-- Node8 -->
<g id="node8" class="node">
<title>Node8</title>
<g id="a_node8"><a xlink:href="a01224.html" target="_top" xlink:title="Information for a server connection.">
<polygon fill="#ffffff" stroke="#ff0000" points="263,-337.5 263,-356.5 328,-356.5 328,-337.5 263,-337.5"/>
<text text-anchor="middle" x="295.5" y="-344.5" font-family="Helvetica,sans-Serif" font-size="10.00" fill="#000000">tds_socket</text>
</a>
</g>
</g>
<!-- Node6&#45;&gt;Node8 -->
<g id="edge12" class="edge">
<title>Node6&#45;&gt;Node8</title>
<path fill="none" stroke="#9a32cd" stroke-dasharray="5,2" d="M295.5,-395.1951C295.5,-382.5514 295.5,-366.7157 295.5,-356.7247"/>
<polygon fill="#9a32cd" stroke="#9a32cd" points="292.0001,-395.2572 295.5,-405.2573 299.0001,-395.2573 292.0001,-395.2572"/>
<text text-anchor="middle" x="314.5" y="-379" font-family="Helvetica,sans-Serif" font-size="10.00" fill="#000000"> cur_dyn</text>
</g>
<!-- Node7 -->
<g id="node7" class="node">
<title>Node7</title>
<g id="a_node7"><a xlink:href="a01172.html" target="_top" xlink:title="Hold information for any results.">
<polygon fill="#ffffff" stroke="#ff0000" points="107.5,-236.5 107.5,-255.5 187.5,-255.5 187.5,-236.5 107.5,-236.5"/>
<text text-anchor="middle" x="147.5" y="-243.5" font-family="Helvetica,sans-Serif" font-size="10.00" fill="#000000">tds_result_info</text>
</a>
</g>
</g>
<!-- Node7&#45;&gt;Node6 -->
<g id="edge9" class="edge">
<title>Node7&#45;&gt;Node6</title>
<path fill="none" stroke="#9a32cd" stroke-dasharray="5,2" d="M130.2361,-263.4342C127.8869,-266.7138 125.8294,-270.2872 124.5,-274 117.9078,-292.4109 114.6579,-301.1017 124.5,-318 153.4448,-367.6964 218.3691,-393.9956 259.3694,-406.1678"/>
<polygon fill="#9a32cd" stroke="#9a32cd" points="133.1042,-265.4604 136.8366,-255.5448 127.7354,-260.9687 133.1042,-265.4604"/>
<text text-anchor="middle" x="178.5" y="-350" font-family="Helvetica,sans-Serif" font-size="10.00" fill="#000000"> res_info</text>
<text text-anchor="middle" x="178.5" y="-339" font-family="Helvetica,sans-Serif" font-size="10.00" fill="#000000">params</text>
</g>
<!-- Node7&#45;&gt;Node8 -->
<g id="edge13" class="edge">
<title>Node7&#45;&gt;Node8</title>
<path fill="none" stroke="#9a32cd" stroke-dasharray="5,2" d="M136.7322,-264.5418C129.0558,-280.47 122.0862,-303.1505 134.5,-318 150.53,-337.1753 220.6164,-343.6916 262.855,-345.8917"/>
<polygon fill="#9a32cd" stroke="#9a32cd" points="139.8648,-266.1048 141.4362,-255.6271 133.6738,-262.8379 139.8648,-266.1048"/>
<text text-anchor="middle" x="167" y="-310" font-family="Helvetica,sans-Serif" font-size="10.00" fill="#000000"> param_info</text>
<text text-anchor="middle" x="167" y="-299" font-family="Helvetica,sans-Serif" font-size="10.00" fill="#000000">current_results</text>
<text text-anchor="middle" x="167" y="-288" font-family="Helvetica,sans-Serif" font-size="10.00" fill="#000000">res_info</text>
<text text-anchor="middle" x="167" y="-277" font-family="Helvetica,sans-Serif" font-size="10.00" fill="#000000">comp_info</text>
</g>
<!-- Node14 -->
<g id="node10" class="node">
<title>Node14</title>
<g id="a_node10"><a xlink:href="a01188.html" target="_top" xlink:title="Holds informations about a cursor.">
<polygon fill="#ffffff" stroke="#ff0000" points="136.5,-169.5 136.5,-188.5 198.5,-188.5 198.5,-169.5 136.5,-169.5"/>
<text text-anchor="middle" x="167.5" y="-176.5" font-family="Helvetica,sans-Serif" font-size="10.00" fill="#000000">tds_cursor</text>
</a>
</g>
</g>
<!-- Node7&#45;&gt;Node14 -->
<g id="edge15" class="edge">
<title>Node7&#45;&gt;Node14</title>
<path fill="none" stroke="#9a32cd" stroke-dasharray="5,2" d="M153.325,-226.4863C157.0437,-214.0286 161.7013,-198.4258 164.6398,-188.5817"/>
<polygon fill="#9a32cd" stroke="#9a32cd" points="149.8722,-225.8172 150.3655,-236.4005 156.5797,-227.8195 149.8722,-225.8172"/>
<text text-anchor="middle" x="178.5" y="-210" font-family="Helvetica,sans-Serif" font-size="10.00" fill="#000000"> res_info</text>
</g>
<!-- Node8&#45;&gt;Node7 -->
<g id="edge10" class="edge">
<title>Node8&#45;&gt;Node7</title>
<path fill="none" stroke="#9a32cd" stroke-dasharray="5,2" d="M253.4437,-334.7426C243.8199,-330.5411 234.1759,-325.0583 226.5,-318 210.2571,-303.0641 219.243,-289.4619 203.5,-274 195.4348,-266.0788 184.6804,-259.9725 174.7528,-255.5138"/>
<polygon fill="#9a32cd" stroke="#9a32cd" points="252.4012,-338.0944 262.9872,-338.5279 254.9821,-331.5875 252.4012,-338.0944"/>
<text text-anchor="middle" x="254" y="-293.5" font-family="Helvetica,sans-Serif" font-size="10.00" fill="#000000"> attached_to</text>
</g>
<!-- Node8&#45;&gt;Node29 -->
<g id="edge22" class="edge">
<title>Node8&#45;&gt;Node29</title>
<path fill="none" stroke="#9a32cd" stroke-dasharray="5,2" d="M338.2593,-338.4454C405.0342,-322.4676 531.5883,-281.009 581.5,-189 615.5646,-126.2041 539.3535,-46.6352 510.2216,-19.5351"/>
<polygon fill="#9a32cd" stroke="#9a32cd" points="337.4221,-335.0465 328.4668,-340.708 338.998,-341.8668 337.4221,-335.0465"/>
<text text-anchor="middle" x="615.5" y="-176.5" font-family="Helvetica,sans-Serif" font-size="10.00" fill="#000000"> tds_socket</text>
</g>
<!-- Node9 -->
<g id="node9" class="node">
<title>Node9</title>
<g id="a_node9"><a xlink:href="a01132.html" target="_top" xlink:title=" ">
<polygon fill="#ffffff" stroke="#ff0000" points="640.5,-405.5 640.5,-424.5 696.5,-424.5 696.5,-405.5 640.5,-405.5"/>
<text text-anchor="middle" x="668.5" y="-412.5" font-family="Helvetica,sans-Serif" font-size="10.00" fill="#000000">tds_login</text>
</a>
</g>
</g>
<!-- Node9&#45;&gt;Node8 -->
<g id="edge11" class="edge">
<title>Node9&#45;&gt;Node8</title>
<path fill="none" stroke="#9a32cd" stroke-dasharray="5,2" d="M630.2655,-408.0296C556.7495,-394.6273 396.8814,-365.4824 328.0707,-352.9378"/>
<polygon fill="#9a32cd" stroke="#9a32cd" points="629.9988,-411.5386 640.4644,-409.8889 631.2543,-404.6521 629.9988,-411.5386"/>
<text text-anchor="middle" x="516.5" y="-379" font-family="Helvetica,sans-Serif" font-size="10.00" fill="#000000"> login</text>
</g>
<!-- Node9&#45;&gt;Node29 -->
<g id="edge23" class="edge">
<title>Node9&#45;&gt;Node29</title>
<path fill="none" stroke="#9a32cd" stroke-dasharray="5,2" d="M677.4124,-395.5953C682.7473,-382.2272 688.5,-363.8952 688.5,-347 688.5,-347 688.5,-347 688.5,-105.5 688.5,-40.4287 598.1499,-19.6857 542.387,-13.0802"/>
<polygon fill="#9a32cd" stroke="#9a32cd" points="674.0495,-394.5585 673.3414,-405.1296 680.4872,-397.3073 674.0495,-394.5585"/>
<text text-anchor="middle" x="710" y="-210" font-family="Helvetica,sans-Serif" font-size="10.00" fill="#000000"> tds_login</text>
</g>
<!-- Node14&#45;&gt;Node1 -->
<g id="edge19" class="edge">
<title>Node14&#45;&gt;Node1</title>
<path fill="none" stroke="#9a32cd" stroke-dasharray="5,2" d="M188.2371,-163.4395C199.8438,-155.3936 214.8847,-146.0238 229.5,-140 266.6108,-124.7046 311.6803,-115.6169 343.4461,-110.6411"/>
<polygon fill="#9a32cd" stroke="#9a32cd" points="186.1968,-160.5956 180.0946,-169.2567 190.266,-166.2914 186.1968,-160.5956"/>
<text text-anchor="middle" x="245" y="-143" font-family="Helvetica,sans-Serif" font-size="10.00" fill="#000000"> cursor</text>
</g>
<!-- Node14&#45;&gt;Node8 -->
<g id="edge14" class="edge">
<title>Node14&#45;&gt;Node8</title>
<path fill="none" stroke="#9a32cd" stroke-dasharray="5,2" d="M194.2521,-193.7614C220.799,-209.8825 260.4741,-238.2411 281.5,-274 293.4044,-294.2458 295.4583,-322.6012 295.651,-337.3024"/>
<polygon fill="#9a32cd" stroke="#9a32cd" points="195.8533,-190.6425 185.4617,-188.5775 192.2975,-196.6721 195.8533,-190.6425"/>
<text text-anchor="middle" x="294" y="-243.5" font-family="Helvetica,sans-Serif" font-size="10.00" fill="#000000"> cur_cursor</text>
</g>
<!-- Node14&#45;&gt;Node14 -->
<g id="edge16" class="edge">
<title>Node14&#45;&gt;Node14</title>
<path fill="none" stroke="#9a32cd" stroke-dasharray="5,2" d="M208.6528,-184.1117C213.4088,-183.1648 216.5,-181.4609 216.5,-179 216.5,-175.0625 208.5865,-173.063 198.602,-173.0015"/>
<polygon fill="#9a32cd" stroke="#9a32cd" points="208.2556,-180.6331 198.602,-184.9985 208.8709,-187.606 208.2556,-180.6331"/>
<text text-anchor="middle" x="227.5" y="-176.5" font-family="Helvetica,sans-Serif" font-size="10.00" fill="#000000"> next</text>
</g>
<!-- Node29&#45;&gt;Node1 -->
<g id="edge20" class="edge">
<title>Node29&#45;&gt;Node1</title>
<path fill="none" stroke="#9a32cd" stroke-dasharray="5,2" d="M447.0005,-19.8923C427.0393,-24.6489 407.4257,-30.8712 400.5,-38 385.1742,-53.7754 383.0474,-81.2368 383.0985,-95.7948"/>
<polygon fill="#9a32cd" stroke="#9a32cd" points="447.7944,-23.3012 456.7735,-17.6774 446.2472,-16.4743 447.7944,-23.3012"/>
<text text-anchor="middle" x="410" y="-52" font-family="Helvetica,sans-Serif" font-size="10.00" fill="#000000"> con</text>
</g>
<!-- Node30 -->
<g id="node12" class="node">
<title>Node30</title>
<g id="a_node12"><a xlink:href="a00872.html" target="_top" xlink:title=" ">
<polygon fill="#ffffff" stroke="#000000" points="973.5,-96 973.5,-115 1043.5,-115 1043.5,-96 973.5,-96"/>
<text text-anchor="middle" x="1008.5" y="-103" font-family="Helvetica,sans-Serif" font-size="10.00" fill="#000000">_cs_context</text>
</a>
</g>
</g>
<!-- Node30&#45;&gt;Node29 -->
<g id="edge25" class="edge">
<title>Node30&#45;&gt;Node29</title>
<path fill="none" stroke="#9a32cd" stroke-dasharray="5,2" d="M963.5269,-94.3948C904.0661,-79.985 795.899,-54.715 702.5,-38 647.343,-28.1289 583.2167,-19.8055 542.0353,-14.8618"/>
<polygon fill="#9a32cd" stroke="#9a32cd" points="962.8013,-97.8202 973.3452,-96.7828 964.4557,-91.0185 962.8013,-97.8202"/>
<text text-anchor="middle" x="895" y="-63" font-family="Helvetica,sans-Serif" font-size="10.00" fill="#000000"> ctx</text>
<text text-anchor="middle" x="895" y="-52" font-family="Helvetica,sans-Serif" font-size="10.00" fill="#000000">_clientmsg_cb</text>
<text text-anchor="middle" x="895" y="-41" font-family="Helvetica,sans-Serif" font-size="10.00" fill="#000000">_servermsg_cb</text>
</g>
<!-- Node30&#45;&gt;Node30 -->
<g id="edge30" class="edge">
<title>Node30&#45;&gt;Node30</title>
<path fill="none" stroke="#9a32cd" stroke-dasharray="5,2" d="M1053.7347,-111.7141C1058.4673,-110.5011 1061.5,-108.4297 1061.5,-105.5 1061.5,-100.8125 1053.7363,-98.3223 1043.6678,-98.0293"/>
<polygon fill="#9a32cd" stroke="#9a32cd" points="1053.1573,-108.259 1043.6678,-112.9707 1054.0244,-115.2051 1053.1573,-108.259"/>
<text text-anchor="middle" x="1095" y="-114" font-family="Helvetica,sans-Serif" font-size="10.00" fill="#000000"> _clientmsg_cb</text>
<text text-anchor="middle" x="1095" y="-103" font-family="Helvetica,sans-Serif" font-size="10.00" fill="#000000">_servermsg_cb</text>
<text text-anchor="middle" x="1095" y="-92" font-family="Helvetica,sans-Serif" font-size="10.00" fill="#000000">_cslibmsg_cb</text>
</g>
<!-- Node31 -->
<g id="node13" class="node">
<title>Node31</title>
<g id="a_node13"><a xlink:href="a00860.html" target="_top" xlink:title=" ">
<polygon fill="#ffffff" stroke="#ff0000" points="849,-169.5 849,-188.5 952,-188.5 952,-169.5 849,-169.5"/>
<text text-anchor="middle" x="900.5" y="-176.5" font-family="Helvetica,sans-Serif" font-size="10.00" fill="#000000">cs_diag_msg_client</text>
</a>
</g>
</g>
<!-- Node31&#45;&gt;Node30 -->
<g id="edge26" class="edge">
<title>Node31&#45;&gt;Node30</title>
<path fill="none" stroke="#9a32cd" stroke-dasharray="5,2" d="M923.1398,-163.5923C944.6313,-148.9662 976.2648,-127.4378 994.3774,-115.1112"/>
<polygon fill="#9a32cd" stroke="#9a32cd" points="920.9171,-160.8714 914.6191,-169.3912 924.8555,-166.6584 920.9171,-160.8714"/>
<text text-anchor="middle" x="982" y="-143" font-family="Helvetica,sans-Serif" font-size="10.00" fill="#000000"> clientstore</text>
</g>
<!-- Node31&#45;&gt;Node31 -->
<g id="edge27" class="edge">
<title>Node31&#45;&gt;Node31</title>
<path fill="none" stroke="#9a32cd" stroke-dasharray="5,2" d="M961.9555,-183.5916C966.9218,-182.5925 970,-181.062 970,-179 970,-175.7813 962.4995,-173.8575 952.0253,-173.2289"/>
<polygon fill="#9a32cd" stroke="#9a32cd" points="961.5426,-180.1159 952.0253,-184.7711 962.3683,-187.0671 961.5426,-180.1159"/>
<text text-anchor="middle" x="981" y="-176.5" font-family="Helvetica,sans-Serif" font-size="10.00" fill="#000000"> next</text>
</g>
<!-- Node19 -->
<g id="node14" class="node">
<title>Node19</title>
<g id="a_node14"><a xlink:href="a01204.html" target="_top" xlink:title=" ">
<polygon fill="#ffffff" stroke="#ff0000" points="1010.5,-169.5 1010.5,-188.5 1078.5,-188.5 1078.5,-169.5 1010.5,-169.5"/>
<text text-anchor="middle" x="1044.5" y="-176.5" font-family="Helvetica,sans-Serif" font-size="10.00" fill="#000000">tds_context</text>
</a>
</g>
</g>
<!-- Node19&#45;&gt;Node30 -->
<g id="edge28" class="edge">
<title>Node19&#45;&gt;Node30</title>
<path fill="none" stroke="#9a32cd" stroke-dasharray="5,2" d="M1035.1933,-159.9988C1028.1974,-145.7156 1018.8959,-126.7249 1013.3224,-115.3458"/>
<polygon fill="#9a32cd" stroke="#9a32cd" points="1032.2517,-161.9501 1039.7936,-169.3912 1038.5381,-158.871 1032.2517,-161.9501"/>
<text text-anchor="middle" x="1048.5" y="-143" font-family="Helvetica,sans-Serif" font-size="10.00" fill="#000000"> tds_ctx</text>
</g>
<!-- Node33 -->
<g id="node15" class="node">
<title>Node33</title>
<g id="a_node15"><a xlink:href="a00856.html" target="_top" xlink:title=" ">
<polygon fill="#ffffff" stroke="#000000" points="1096.5,-169.5 1096.5,-188.5 1160.5,-188.5 1160.5,-169.5 1096.5,-169.5"/>
<text text-anchor="middle" x="1128.5" y="-176.5" font-family="Helvetica,sans-Serif" font-size="10.00" fill="#000000">_cs_config</text>
</a>
</g>
</g>
<!-- Node33&#45;&gt;Node30 -->
<g id="edge29" class="edge">
<title>Node33&#45;&gt;Node30</title>
<path fill="none" stroke="#9a32cd" stroke-dasharray="5,2" d="M1106.5279,-163.5896C1095.8014,-156.231 1082.6236,-147.431 1070.5,-140 1056.0068,-131.1166 1039.1226,-121.7853 1026.6368,-115.0704"/>
<polygon fill="#9a32cd" stroke="#9a32cd" points="1104.6693,-166.5597 1114.8846,-169.3701 1108.6515,-160.8028 1104.6693,-166.5597"/>
<text text-anchor="middle" x="1101.5" y="-143" font-family="Helvetica,sans-Serif" font-size="10.00" fill="#000000"> config</text>
</g>
<!-- Node34 -->
<g id="node16" class="node">
<title>Node34</title>
<g id="a_node16"><a xlink:href="a00864.html" target="_top" xlink:title=" ">
<polygon fill="#ffffff" stroke="#ff0000" points="1179,-169.5 1179,-188.5 1272,-188.5 1272,-169.5 1179,-169.5"/>
<text text-anchor="middle" x="1225.5" y="-176.5" font-family="Helvetica,sans-Serif" font-size="10.00" fill="#000000">cs_diag_msg_svr</text>
</a>
</g>
</g>
<!-- Node34&#45;&gt;Node30 -->
<g id="edge31" class="edge">
<title>Node34&#45;&gt;Node30</title>
<path fill="none" stroke="#9a32cd" stroke-dasharray="5,2" d="M1191.5166,-165.8198C1171.0448,-158.0196 1144.3952,-148.1107 1120.5,-140 1094.105,-131.0408 1063.8849,-121.7902 1041.4932,-115.126"/>
<polygon fill="#9a32cd" stroke="#9a32cd" points="1190.4406,-169.1555 1201.031,-169.4624 1192.9435,-162.6183 1190.4406,-169.1555"/>
<text text-anchor="middle" x="1169" y="-143" font-family="Helvetica,sans-Serif" font-size="10.00" fill="#000000"> svrstore</text>
</g>
<!-- Node34&#45;&gt;Node34 -->
<g id="edge32" class="edge">
<title>Node34&#45;&gt;Node34</title>
<path fill="none" stroke="#9a32cd" stroke-dasharray="5,2" d="M1282.3467,-183.6317C1287.0656,-182.6338 1290,-181.0898 1290,-179 1290,-175.6563 1282.488,-173.7101 1272.1737,-173.1615"/>
<polygon fill="#9a32cd" stroke="#9a32cd" points="1281.6917,-180.1848 1272.1737,-184.8385 1282.5164,-187.1361 1281.6917,-180.1848"/>
<text text-anchor="middle" x="1301" y="-176.5" font-family="Helvetica,sans-Serif" font-size="10.00" fill="#000000"> next</text>
</g>
<!-- Node36 -->
<g id="node17" class="node">
<title>Node36</title>
<g id="a_node17"><a xlink:href="a00868.html" target="_top" xlink:title=" ">
<polygon fill="#ffffff" stroke="#ff0000" points="716.5,-169.5 716.5,-188.5 790.5,-188.5 790.5,-169.5 716.5,-169.5"/>
<text text-anchor="middle" x="753.5" y="-176.5" font-family="Helvetica,sans-Serif" font-size="10.00" fill="#000000">cs_diag_msg</text>
</a>
</g>
</g>
<!-- Node36&#45;&gt;Node30 -->
<g id="edge33" class="edge">
<title>Node36&#45;&gt;Node30</title>
<path fill="none" stroke="#9a32cd" stroke-dasharray="5,2" d="M796.2212,-166.6862C846.7164,-152.1318 929.6546,-128.226 975.4832,-115.0166"/>
<polygon fill="#9a32cd" stroke="#9a32cd" points="795.2148,-163.3338 786.5754,-169.4665 797.1536,-170.0599 795.2148,-163.3338"/>
<text text-anchor="middle" x="910.5" y="-143" font-family="Helvetica,sans-Serif" font-size="10.00" fill="#000000"> msgstore</text>
</g>
<!-- Node36&#45;&gt;Node36 -->
<g id="edge34" class="edge">
<title>Node36&#45;&gt;Node36</title>
<path fill="none" stroke="#9a32cd" stroke-dasharray="5,2" d="M800.6857,-183.9222C805.4569,-182.9454 808.5,-181.3047 808.5,-179 808.5,-175.3125 800.7097,-173.3247 790.5153,-173.0366"/>
<polygon fill="#9a32cd" stroke="#9a32cd" points="800.1068,-180.4631 790.5153,-184.9634 800.8198,-187.4267 800.1068,-180.4631"/>
<text text-anchor="middle" x="819.5" y="-176.5" font-family="Helvetica,sans-Serif" font-size="10.00" fill="#000000"> next</text>
</g>
<!-- Node37&#45;&gt;Node1 -->
<g id="edge36" class="edge">
<title>Node37&#45;&gt;Node1</title>
<path fill="none" stroke="#9a32cd" stroke-dasharray="5,2" d="M393.7213,-159.1616C391.0202,-144.981 387.5008,-126.504 385.3754,-115.3458"/>
<polygon fill="#9a32cd" stroke="#9a32cd" points="390.3604,-160.2227 395.6697,-169.3912 397.2367,-158.9129 390.3604,-160.2227"/>
<text text-anchor="middle" x="401" y="-143" font-family="Helvetica,sans-Serif" font-size="10.00" fill="#000000"> rpc</text>
</g>
</g>
</svg>
