<?xml version="1.0" encoding="UTF-8" standalone="no"?>
<!DOCTYPE svg PUBLIC "-//W3C//DTD SVG 1.1//EN"
 "http://www.w3.org/Graphics/SVG/1.1/DTD/svg11.dtd">
<!-- Generated by graphviz version 2.40.1 (20161225.0304)
 -->
<!-- Title: _cs_objdata Pages: 1 -->
<svg width="716pt" height="331pt"
 viewBox="0.00 0.00 715.50 331.00" xmlns="http://www.w3.org/2000/svg" xmlns:xlink="http://www.w3.org/1999/xlink">
<g id="graph0" class="graph" transform="scale(1 1) rotate(0) translate(4 327)">
<title>_cs_objdata</title>
<polygon fill="#ffffff" stroke="transparent" points="-4,4 -4,-327 711.5,-327 711.5,4 -4,4"/>
<!-- Node1 -->
<g id="node1" class="node">
<title>Node1</title>
<g id="a_node1"><a xlink:title=" ">
<polygon fill="#bfbfbf" stroke="#000000" points="217,-.5 217,-19.5 286,-19.5 286,-.5 217,-.5"/>
<text text-anchor="middle" x="251.5" y="-7.5" font-family="Helvetica,sans-Serif" font-size="10.00" fill="#000000">_cs_objdata</text>
</a>
</g>
</g>
<!-- Node2 -->
<g id="node2" class="node">
<title>Node2</title>
<g id="a_node2"><a xlink:href="a00896.html" target="_top" xlink:title=" ">
<polygon fill="#ffffff" stroke="#000000" points="196.5,-163 196.5,-182 276.5,-182 276.5,-163 196.5,-163"/>
<text text-anchor="middle" x="236.5" y="-170" font-family="Helvetica,sans-Serif" font-size="10.00" fill="#000000">_cs_command</text>
</a>
</g>
</g>
<!-- Node2&#45;&gt;Node1 -->
<g id="edge1" class="edge">
<title>Node2&#45;&gt;Node1</title>
<path fill="none" stroke="#9a32cd" stroke-dasharray="5,2" d="M238.3543,-152.4122C241.5976,-117.2761 248.1844,-45.9186 250.5923,-19.8332"/>
<polygon fill="#9a32cd" stroke="#9a32cd" points="234.8275,-152.5421 237.3934,-162.8215 241.7978,-153.1856 234.8275,-152.5421"/>
<text text-anchor="middle" x="269.5" y="-74.5" font-family="Helvetica,sans-Serif" font-size="10.00" fill="#000000"> command</text>
</g>
<!-- Node2&#45;&gt;Node2 -->
<g id="edge4" class="edge">
<title>Node2&#45;&gt;Node2</title>
<path fill="none" stroke="#9a32cd" stroke-dasharray="5,2" d="M286.7648,-178.5257C291.5048,-177.2918 294.5,-175.2832 294.5,-172.5 294.5,-168.0469 286.8323,-165.5768 276.6186,-165.0897"/>
<polygon fill="#9a32cd" stroke="#9a32cd" points="286.0536,-175.0903 276.6186,-179.9103 287.0001,-182.026 286.0536,-175.0903"/>
<text text-anchor="middle" x="305.5" y="-170" font-family="Helvetica,sans-Serif" font-size="10.00" fill="#000000"> next</text>
</g>
<!-- Node30 -->
<g id="node9" class="node">
<title>Node30</title>
<g id="a_node9"><a xlink:href="a00880.html" target="_top" xlink:title=" ">
<polygon fill="#ffffff" stroke="#000000" points="305,-67.5 305,-86.5 390,-86.5 390,-67.5 305,-67.5"/>
<text text-anchor="middle" x="347.5" y="-74.5" font-family="Helvetica,sans-Serif" font-size="10.00" fill="#000000">_cs_connection</text>
</a>
</g>
</g>
<!-- Node2&#45;&gt;Node30 -->
<g id="edge21" class="edge">
<title>Node2&#45;&gt;Node30</title>
<path fill="none" stroke="#9a32cd" stroke-dasharray="5,2" d="M242.821,-153.19C248.8705,-135.7539 258.1378,-111.8179 265.5,-105 276.3166,-94.9831 290.8684,-88.5322 304.7106,-84.3849"/>
<polygon fill="#9a32cd" stroke="#9a32cd" points="239.3935,-152.4013 239.516,-162.9954 246.0268,-154.6371 239.3935,-152.4013"/>
<text text-anchor="middle" x="279.5" y="-119" font-family="Helvetica,sans-Serif" font-size="10.00" fill="#000000"> cmds</text>
</g>
<!-- Node3 -->
<g id="node3" class="node">
<title>Node3</title>
<g id="a_node3"><a xlink:href="a00820.html" target="_top" xlink:title=" ">
<polygon fill="#ffffff" stroke="#000000" points="28.5,-236.5 28.5,-255.5 94.5,-255.5 94.5,-236.5 28.5,-236.5"/>
<text text-anchor="middle" x="61.5" y="-243.5" font-family="Helvetica,sans-Serif" font-size="10.00" fill="#000000">_cs_iodesc</text>
</a>
</g>
</g>
<!-- Node3&#45;&gt;Node2 -->
<g id="edge2" class="edge">
<title>Node3&#45;&gt;Node2</title>
<path fill="none" stroke="#9a32cd" stroke-dasharray="5,2" d="M92.4715,-232.1425C109.5343,-224.5803 131.1242,-215.1293 150.5,-207 171.1198,-198.3487 194.7019,-188.9211 211.9504,-182.1107"/>
<polygon fill="#9a32cd" stroke="#9a32cd" points="90.7159,-229.0926 82.9993,-236.3525 93.559,-235.4893 90.7159,-229.0926"/>
<text text-anchor="middle" x="166.5" y="-210" font-family="Helvetica,sans-Serif" font-size="10.00" fill="#000000"> iodesc</text>
</g>
<!-- Node4 -->
<g id="node4" class="node">
<title>Node4</title>
<g id="a_node4"><a xlink:href="a00904.html" target="_top" xlink:title=" ">
<polygon fill="#ffffff" stroke="#000000" points="0,-303.5 0,-322.5 63,-322.5 63,-303.5 0,-303.5"/>
<text text-anchor="middle" x="31.5" y="-310.5" font-family="Helvetica,sans-Serif" font-size="10.00" fill="#000000">_cs_locale</text>
</a>
</g>
</g>
<!-- Node4&#45;&gt;Node3 -->
<g id="edge3" class="edge">
<title>Node4&#45;&gt;Node3</title>
<path fill="none" stroke="#9a32cd" stroke-dasharray="5,2" d="M39.9012,-294.2374C45.5322,-281.6614 52.7129,-265.6246 57.2097,-255.5817"/>
<polygon fill="#9a32cd" stroke="#9a32cd" points="36.6906,-292.8433 35.7983,-303.4005 43.0794,-295.704 36.6906,-292.8433"/>
<text text-anchor="middle" x="63" y="-277" font-family="Helvetica,sans-Serif" font-size="10.00" fill="#000000"> locale</text>
</g>
<!-- Node4&#45;&gt;Node30 -->
<g id="edge15" class="edge">
<title>Node4&#45;&gt;Node30</title>
<path fill="none" stroke="#9a32cd" stroke-dasharray="5,2" d="M22.1339,-294.1447C15.419,-277.7405 9.2076,-253.8624 19.5,-236 77.4629,-135.4057 138.4136,-149.8487 245.5,-105 264.4705,-97.055 286.3653,-90.7025 304.9945,-86.0698"/>
<polygon fill="#9a32cd" stroke="#9a32cd" points="18.9446,-295.5864 26.2369,-303.2722 25.3291,-292.7163 18.9446,-295.5864"/>
<text text-anchor="middle" x="53" y="-210" font-family="Helvetica,sans-Serif" font-size="10.00" fill="#000000"> locale</text>
</g>
<!-- Node5 -->
<g id="node5" class="node">
<title>Node5</title>
<g id="a_node5"><a xlink:href="a00884.html" target="_top" xlink:title=" ">
<polygon fill="#ffffff" stroke="#000000" points="202,-303.5 202,-322.5 267,-322.5 267,-303.5 202,-303.5"/>
<text text-anchor="middle" x="234.5" y="-310.5" font-family="Helvetica,sans-Serif" font-size="10.00" fill="#000000">_cs_param</text>
</a>
</g>
</g>
<!-- Node5&#45;&gt;Node2 -->
<g id="edge5" class="edge">
<title>Node5&#45;&gt;Node2</title>
<path fill="none" stroke="#9a32cd" stroke-dasharray="5,2" d="M234.7839,-293.0525C235.2196,-262.4469 236.0366,-205.0526 236.3616,-182.2247"/>
<polygon fill="#9a32cd" stroke="#9a32cd" points="231.2803,-293.294 234.6375,-303.3429 238.2795,-293.3937 231.2803,-293.294"/>
<text text-anchor="middle" x="267.5" y="-243.5" font-family="Helvetica,sans-Serif" font-size="10.00" fill="#000000"> input_params</text>
</g>
<!-- Node5&#45;&gt;Node5 -->
<g id="edge6" class="edge">
<title>Node5&#45;&gt;Node5</title>
<path fill="none" stroke="#9a32cd" stroke-dasharray="5,2" d="M277.1447,-318.0661C281.9145,-317.1106 285,-315.4219 285,-313 285,-309.125 277.1012,-307.127 267.0425,-307.0059"/>
<polygon fill="#9a32cd" stroke="#9a32cd" points="276.6803,-314.5939 267.0425,-318.9941 277.3208,-321.5645 276.6803,-314.5939"/>
<text text-anchor="middle" x="296" y="-310.5" font-family="Helvetica,sans-Serif" font-size="10.00" fill="#000000"> next</text>
</g>
<!-- Node6 -->
<g id="node6" class="node">
<title>Node6</title>
<g id="a_node6"><a xlink:href="a00892.html" target="_top" xlink:title=" ">
<polygon fill="#ffffff" stroke="#000000" points="434.5,-236.5 434.5,-255.5 508.5,-255.5 508.5,-236.5 434.5,-236.5"/>
<text text-anchor="middle" x="471.5" y="-243.5" font-family="Helvetica,sans-Serif" font-size="10.00" fill="#000000">_cs_dynamic</text>
</a>
</g>
</g>
<!-- Node5&#45;&gt;Node6 -->
<g id="edge10" class="edge">
<title>Node5&#45;&gt;Node6</title>
<path fill="none" stroke="#9a32cd" stroke-dasharray="5,2" d="M277.131,-300.9482C323.1248,-287.9457 395.4319,-267.5045 437.6775,-255.5616"/>
<polygon fill="#9a32cd" stroke="#9a32cd" points="276.1245,-297.5955 267.4538,-303.6839 278.0289,-304.3315 276.1245,-297.5955"/>
<text text-anchor="middle" x="392" y="-277" font-family="Helvetica,sans-Serif" font-size="10.00" fill="#000000"> param_list</text>
</g>
<!-- Node38 -->
<g id="node13" class="node">
<title>Node38</title>
<g id="a_node13"><a xlink:href="a00888.html" target="_top" xlink:title=" ">
<polygon fill="#ffffff" stroke="#000000" points="112.5,-236.5 112.5,-255.5 198.5,-255.5 198.5,-236.5 112.5,-236.5"/>
<text text-anchor="middle" x="155.5" y="-243.5" font-family="Helvetica,sans-Serif" font-size="10.00" fill="#000000">_csremote_proc</text>
</a>
</g>
</g>
<!-- Node5&#45;&gt;Node38 -->
<g id="edge26" class="edge">
<title>Node5&#45;&gt;Node38</title>
<path fill="none" stroke="#9a32cd" stroke-dasharray="5,2" d="M192.4258,-299.7153C184.7745,-295.8786 177.3701,-291.0423 171.5,-285 163.6466,-276.9162 159.4518,-264.445 157.3558,-255.7903"/>
<polygon fill="#9a32cd" stroke="#9a32cd" points="191.2376,-303.0182 201.7946,-303.9134 194.1001,-296.6302 191.2376,-303.0182"/>
<text text-anchor="middle" x="196" y="-277" font-family="Helvetica,sans-Serif" font-size="10.00" fill="#000000"> param_list</text>
</g>
<!-- Node6&#45;&gt;Node2 -->
<g id="edge7" class="edge">
<title>Node6&#45;&gt;Node2</title>
<path fill="none" stroke="#9a32cd" stroke-dasharray="5,2" d="M424.3293,-235.915C378.0381,-227.7467 363.633,-232.0808 322.5,-218 315.4284,-215.5792 277.0238,-194.755 253.9944,-182.1331"/>
<polygon fill="#9a32cd" stroke="#9a32cd" points="423.8972,-239.3948 434.37,-237.7914 425.1831,-232.5139 423.8972,-239.3948"/>
<text text-anchor="middle" x="332" y="-210" font-family="Helvetica,sans-Serif" font-size="10.00" fill="#000000"> dyn</text>
</g>
<!-- Node6&#45;&gt;Node6 -->
<g id="edge11" class="edge">
<title>Node6&#45;&gt;Node6</title>
<path fill="none" stroke="#9a32cd" stroke-dasharray="5,2" d="M518.6857,-250.9222C523.4569,-249.9454 526.5,-248.3047 526.5,-246 526.5,-242.3125 518.7097,-240.3247 508.5153,-240.0366"/>
<polygon fill="#9a32cd" stroke="#9a32cd" points="518.1068,-247.4631 508.5153,-251.9634 518.8198,-254.4267 518.1068,-247.4631"/>
<text text-anchor="middle" x="537.5" y="-243.5" font-family="Helvetica,sans-Serif" font-size="10.00" fill="#000000"> next</text>
</g>
<!-- Node6&#45;&gt;Node30 -->
<g id="edge24" class="edge">
<title>Node6&#45;&gt;Node30</title>
<path fill="none" stroke="#9a32cd" stroke-dasharray="5,2" d="M425.4916,-233.0504C402.9293,-224.2984 377.455,-210.3495 362.5,-189 340.2142,-157.1852 343.4287,-107.5849 346.0292,-86.7428"/>
<polygon fill="#9a32cd" stroke="#9a32cd" points="424.3496,-236.3594 434.9437,-236.4895 426.7431,-229.7812 424.3496,-236.3594"/>
<text text-anchor="middle" x="378.5" y="-170" font-family="Helvetica,sans-Serif" font-size="10.00" fill="#000000"> dynlist</text>
</g>
<!-- Node7 -->
<g id="node7" class="node">
<title>Node7</title>
<g id="a_node7"><a xlink:href="a01196.html" target="_top" xlink:title="Holds information for a dynamic (also called prepared) query.">
<polygon fill="#ffffff" stroke="#ff0000" points="512.5,-303.5 512.5,-322.5 584.5,-322.5 584.5,-303.5 512.5,-303.5"/>
<text text-anchor="middle" x="548.5" y="-310.5" font-family="Helvetica,sans-Serif" font-size="10.00" fill="#000000">tds_dynamic</text>
</a>
</g>
</g>
<!-- Node7&#45;&gt;Node6 -->
<g id="edge8" class="edge">
<title>Node7&#45;&gt;Node6</title>
<path fill="none" stroke="#9a32cd" stroke-dasharray="5,2" d="M529.8812,-296.7992C515.0718,-283.9131 494.8536,-266.3207 482.5118,-255.5817"/>
<polygon fill="#9a32cd" stroke="#9a32cd" points="527.6263,-299.4767 537.4678,-303.4005 532.2213,-294.1959 527.6263,-299.4767"/>
<text text-anchor="middle" x="531" y="-277" font-family="Helvetica,sans-Serif" font-size="10.00" fill="#000000"> tdsdyn</text>
</g>
<!-- Node7&#45;&gt;Node7 -->
<g id="edge9" class="edge">
<title>Node7&#45;&gt;Node7</title>
<path fill="none" stroke="#9a32cd" stroke-dasharray="5,2" d="M594.7083,-317.9469C599.4614,-316.9732 602.5,-315.3242 602.5,-313 602.5,-309.2813 594.7211,-307.2911 584.5873,-307.0297"/>
<polygon fill="#9a32cd" stroke="#9a32cd" points="594.1844,-314.4819 584.5873,-318.9703 594.8887,-321.4464 594.1844,-314.4819"/>
<text text-anchor="middle" x="613.5" y="-310.5" font-family="Helvetica,sans-Serif" font-size="10.00" fill="#000000"> next</text>
</g>
<!-- Node9 -->
<g id="node10" class="node">
<title>Node9</title>
<g id="a_node10"><a xlink:href="a01224.html" target="_top" xlink:title="Information for a server connection.">
<polygon fill="#ffffff" stroke="#ff0000" points="577,-163 577,-182 642,-182 642,-163 577,-163"/>
<text text-anchor="middle" x="609.5" y="-170" font-family="Helvetica,sans-Serif" font-size="10.00" fill="#000000">tds_socket</text>
</a>
</g>
</g>
<!-- Node7&#45;&gt;Node9 -->
<g id="edge18" class="edge">
<title>Node7&#45;&gt;Node9</title>
<path fill="none" stroke="#9a32cd" stroke-dasharray="5,2" d="M556.812,-293.8552C570.008,-263.461 595.2795,-205.2538 605.2779,-182.2247"/>
<polygon fill="#9a32cd" stroke="#9a32cd" points="553.4648,-292.7762 552.6928,-303.3429 559.8858,-295.564 553.4648,-292.7762"/>
<text text-anchor="middle" x="599.5" y="-243.5" font-family="Helvetica,sans-Serif" font-size="10.00" fill="#000000"> cur_dyn</text>
</g>
<!-- Node15 -->
<g id="node8" class="node">
<title>Node15</title>
<g id="a_node8"><a xlink:href="a01188.html" target="_top" xlink:title="Holds informations about a cursor.">
<polygon fill="#ffffff" stroke="#ff0000" points="314.5,-236.5 314.5,-255.5 376.5,-255.5 376.5,-236.5 314.5,-236.5"/>
<text text-anchor="middle" x="345.5" y="-243.5" font-family="Helvetica,sans-Serif" font-size="10.00" fill="#000000">tds_cursor</text>
</a>
</g>
</g>
<!-- Node15&#45;&gt;Node2 -->
<g id="edge12" class="edge">
<title>Node15&#45;&gt;Node2</title>
<path fill="none" stroke="#9a32cd" stroke-dasharray="5,2" d="M304.736,-236.3029C292.291,-232.0483 279.1061,-226.1184 268.5,-218 255.9235,-208.3733 246.3278,-192.4076 241.0552,-182.1755"/>
<polygon fill="#9a32cd" stroke="#9a32cd" points="303.9054,-239.7105 314.4946,-239.3657 306.0016,-233.0317 303.9054,-239.7105"/>
<text text-anchor="middle" x="284" y="-210" font-family="Helvetica,sans-Serif" font-size="10.00" fill="#000000"> cursor</text>
</g>
<!-- Node15&#45;&gt;Node15 -->
<g id="edge13" class="edge">
<title>Node15&#45;&gt;Node15</title>
<path fill="none" stroke="#9a32cd" stroke-dasharray="5,2" d="M386.6528,-251.1117C391.4088,-250.1648 394.5,-248.4609 394.5,-246 394.5,-242.0625 386.5865,-240.063 376.602,-240.0015"/>
<polygon fill="#9a32cd" stroke="#9a32cd" points="386.2556,-247.6331 376.602,-251.9985 386.8709,-254.606 386.2556,-247.6331"/>
<text text-anchor="middle" x="405.5" y="-243.5" font-family="Helvetica,sans-Serif" font-size="10.00" fill="#000000"> next</text>
</g>
<!-- Node15&#45;&gt;Node9 -->
<g id="edge19" class="edge">
<title>Node15&#45;&gt;Node9</title>
<path fill="none" stroke="#9a32cd" stroke-dasharray="5,2" d="M386.6777,-237.0266C431.5753,-226.8731 505.3296,-209.1091 567.5,-189 573.7613,-186.9748 580.4356,-184.5021 586.5778,-182.0937"/>
<polygon fill="#9a32cd" stroke="#9a32cd" points="385.7215,-233.654 376.7302,-239.2583 387.2539,-240.4843 385.7215,-233.654"/>
<text text-anchor="middle" x="525" y="-210" font-family="Helvetica,sans-Serif" font-size="10.00" fill="#000000"> cur_cursor</text>
</g>
<!-- Node30&#45;&gt;Node1 -->
<g id="edge27" class="edge">
<title>Node30&#45;&gt;Node1</title>
<path fill="none" stroke="#9a32cd" stroke-dasharray="5,2" d="M325.3056,-61.5102C306.7602,-48.567 280.9011,-30.5195 265.2289,-19.5817"/>
<polygon fill="#9a32cd" stroke="#9a32cd" points="323.5421,-64.5475 333.7455,-67.4005 327.5483,-58.8072 323.5421,-64.5475"/>
<text text-anchor="middle" x="331" y="-41" font-family="Helvetica,sans-Serif" font-size="10.00" fill="#000000"> connection</text>
</g>
<!-- Node30&#45;&gt;Node2 -->
<g id="edge14" class="edge">
<title>Node30&#45;&gt;Node2</title>
<path fill="none" stroke="#9a32cd" stroke-dasharray="5,2" d="M330.2813,-94.0008C326.9316,-97.5429 323.5243,-101.3204 320.5,-105 309.1485,-118.8112 310.7211,-125.9664 297.5,-138 286.0729,-148.4008 270.9709,-156.9728 258.6526,-162.9708"/>
<polygon fill="#9a32cd" stroke="#9a32cd" points="332.8746,-96.3547 337.3513,-86.7521 327.8635,-91.4671 332.8746,-96.3547"/>
<text text-anchor="middle" x="330" y="-119" font-family="Helvetica,sans-Serif" font-size="10.00" fill="#000000"> con</text>
</g>
<!-- Node9&#45;&gt;Node30 -->
<g id="edge16" class="edge">
<title>Node9&#45;&gt;Node30</title>
<path fill="none" stroke="#9a32cd" stroke-dasharray="5,2" d="M584.4935,-157.6387C557.9978,-142.4632 514.5388,-119.1778 474.5,-105 447.1511,-95.3157 415.2594,-88.2987 390.2762,-83.7114"/>
<polygon fill="#9a32cd" stroke="#9a32cd" points="583.0431,-160.8434 593.4499,-162.8308 586.5539,-154.7874 583.0431,-160.8434"/>
<text text-anchor="middle" x="571.5" y="-119" font-family="Helvetica,sans-Serif" font-size="10.00" fill="#000000"> tds_socket</text>
</g>
<!-- Node10 -->
<g id="node11" class="node">
<title>Node10</title>
<g id="a_node11"><a xlink:href="a01132.html" target="_top" xlink:title=" ">
<polygon fill="#ffffff" stroke="#ff0000" points="647.5,-236.5 647.5,-255.5 703.5,-255.5 703.5,-236.5 647.5,-236.5"/>
<text text-anchor="middle" x="675.5" y="-243.5" font-family="Helvetica,sans-Serif" font-size="10.00" fill="#000000">tds_login</text>
</a>
</g>
</g>
<!-- Node10&#45;&gt;Node30 -->
<g id="edge20" class="edge">
<title>Node10&#45;&gt;Node30</title>
<path fill="none" stroke="#9a32cd" stroke-dasharray="5,2" d="M673.2085,-226.3205C670.3356,-207.3096 664.159,-178.2097 651.5,-156 635.7814,-128.4223 630.0475,-118.8797 601.5,-105 565.2422,-87.3715 452.4404,-80.6609 390.0565,-78.2511"/>
<polygon fill="#9a32cd" stroke="#9a32cd" points="669.7704,-227.0161 674.5707,-236.461 676.7081,-226.0841 669.7704,-227.0161"/>
<text text-anchor="middle" x="686" y="-170" font-family="Helvetica,sans-Serif" font-size="10.00" fill="#000000"> tds_login</text>
</g>
<!-- Node10&#45;&gt;Node9 -->
<g id="edge17" class="edge">
<title>Node10&#45;&gt;Node9</title>
<path fill="none" stroke="#9a32cd" stroke-dasharray="5,2" d="M653.6992,-230.2231C649.1117,-226.4582 644.4656,-222.2819 640.5,-218 630.1082,-206.7793 620.5968,-191.8111 614.9245,-182.1628"/>
<polygon fill="#9a32cd" stroke="#9a32cd" points="651.696,-233.0994 661.7337,-236.4899 656.0012,-227.5798 651.696,-233.0994"/>
<text text-anchor="middle" x="652.5" y="-210" font-family="Helvetica,sans-Serif" font-size="10.00" fill="#000000"> login</text>
</g>
<!-- Node31 -->
<g id="node12" class="node">
<title>Node31</title>
<g id="a_node12"><a xlink:href="a00872.html" target="_top" xlink:title=" ">
<polygon fill="#ffffff" stroke="#ff0000" points="403.5,-163 403.5,-182 473.5,-182 473.5,-163 403.5,-163"/>
<text text-anchor="middle" x="438.5" y="-170" font-family="Helvetica,sans-Serif" font-size="10.00" fill="#000000">_cs_context</text>
</a>
</g>
</g>
<!-- Node31&#45;&gt;Node30 -->
<g id="edge22" class="edge">
<title>Node31&#45;&gt;Node30</title>
<path fill="none" stroke="#9a32cd" stroke-dasharray="5,2" d="M422.3122,-155.5117C403.2401,-135.4965 372.2039,-102.9255 356.7924,-86.7519"/>
<polygon fill="#9a32cd" stroke="#9a32cd" points="420.0095,-158.1688 429.4419,-162.994 425.0773,-153.3399 420.0095,-158.1688"/>
<text text-anchor="middle" x="437" y="-130" font-family="Helvetica,sans-Serif" font-size="10.00" fill="#000000"> ctx</text>
<text text-anchor="middle" x="437" y="-119" font-family="Helvetica,sans-Serif" font-size="10.00" fill="#000000">_clientmsg_cb</text>
<text text-anchor="middle" x="437" y="-108" font-family="Helvetica,sans-Serif" font-size="10.00" fill="#000000">_servermsg_cb</text>
</g>
<!-- Node31&#45;&gt;Node31 -->
<g id="edge23" class="edge">
<title>Node31&#45;&gt;Node31</title>
<path fill="none" stroke="#9a32cd" stroke-dasharray="5,2" d="M483.7347,-178.7141C488.4673,-177.5011 491.5,-175.4297 491.5,-172.5 491.5,-167.8125 483.7363,-165.3223 473.6678,-165.0293"/>
<polygon fill="#9a32cd" stroke="#9a32cd" points="483.1573,-175.259 473.6678,-179.9707 484.0244,-182.2051 483.1573,-175.259"/>
<text text-anchor="middle" x="525" y="-181" font-family="Helvetica,sans-Serif" font-size="10.00" fill="#000000"> _clientmsg_cb</text>
<text text-anchor="middle" x="525" y="-170" font-family="Helvetica,sans-Serif" font-size="10.00" fill="#000000">_servermsg_cb</text>
<text text-anchor="middle" x="525" y="-159" font-family="Helvetica,sans-Serif" font-size="10.00" fill="#000000">_cslibmsg_cb</text>
</g>
<!-- Node38&#45;&gt;Node2 -->
<g id="edge25" class="edge">
<title>Node38&#45;&gt;Node2</title>
<path fill="none" stroke="#9a32cd" stroke-dasharray="5,2" d="M173.7911,-229.4025C189.8622,-214.8195 212.6875,-194.1076 225.9081,-182.1112"/>
<polygon fill="#9a32cd" stroke="#9a32cd" points="171.143,-227.0793 166.0893,-236.3912 175.8469,-232.2632 171.143,-227.0793"/>
<text text-anchor="middle" x="207" y="-210" font-family="Helvetica,sans-Serif" font-size="10.00" fill="#000000"> rpc</text>
</g>
</g>
</svg>
