<?xml version="1.0" encoding="UTF-8" standalone="no"?>
<!DOCTYPE svg PUBLIC "-//W3C//DTD SVG 1.1//EN"
 "http://www.w3.org/Graphics/SVG/1.1/DTD/svg11.dtd">
<!-- Generated by graphviz version 2.40.1 (20161225.0304)
 -->
<!-- Title: cs_diag_msg Pages: 1 -->
<svg width="125pt" height="95pt"
 viewBox="0.00 0.00 125.00 95.00" xmlns="http://www.w3.org/2000/svg" xmlns:xlink="http://www.w3.org/1999/xlink">
<g id="graph0" class="graph" transform="scale(1 1) rotate(0) translate(4 91)">
<title>cs_diag_msg</title>
<polygon fill="#ffffff" stroke="transparent" points="-4,4 -4,-91 121,-91 121,4 -4,4"/>
<!-- Node1 -->
<g id="node1" class="node">
<title>Node1</title>
<g id="a_node1"><a xlink:title=" ">
<polygon fill="#bfbfbf" stroke="#000000" points="3,-.5 3,-19.5 77,-19.5 77,-.5 3,-.5"/>
<text text-anchor="middle" x="40" y="-7.5" font-family="Helvetica,sans-Serif" font-size="10.00" fill="#000000">cs_diag_msg</text>
</a>
</g>
</g>
<!-- Node1&#45;&gt;Node1 -->
<g id="edge2" class="edge">
<title>Node1&#45;&gt;Node1</title>
<path fill="none" stroke="#9a32cd" stroke-dasharray="5,2" d="M87.1857,-14.9222C91.9569,-13.9454 95,-12.3047 95,-10 95,-6.3125 87.2097,-4.3247 77.0153,-4.0366"/>
<polygon fill="#9a32cd" stroke="#9a32cd" points="86.6068,-11.4631 77.0153,-15.9634 87.3198,-18.4267 86.6068,-11.4631"/>
<text text-anchor="middle" x="106" y="-7.5" font-family="Helvetica,sans-Serif" font-size="10.00" fill="#000000"> next</text>
</g>
<!-- Node2 -->
<g id="node2" class="node">
<title>Node2</title>
<g id="a_node2"><a xlink:href="a00848.html" target="_top" xlink:title=" ">
<polygon fill="#ffffff" stroke="#000000" points="0,-67.5 0,-86.5 80,-86.5 80,-67.5 0,-67.5"/>
<text text-anchor="middle" x="40" y="-74.5" font-family="Helvetica,sans-Serif" font-size="10.00" fill="#000000">_cs_clientmsg</text>
</a>
</g>
</g>
<!-- Node2&#45;&gt;Node1 -->
<g id="edge1" class="edge">
<title>Node2&#45;&gt;Node1</title>
<path fill="none" stroke="#9a32cd" stroke-dasharray="5,2" d="M40,-57.1079C40,-44.714 40,-29.3263 40,-19.5817"/>
<polygon fill="#9a32cd" stroke="#9a32cd" points="36.5001,-57.4005 40,-67.4005 43.5001,-57.4006 36.5001,-57.4005"/>
<text text-anchor="middle" x="51" y="-41" font-family="Helvetica,sans-Serif" font-size="10.00" fill="#000000"> msg</text>
</g>
</g>
</svg>
