<?xml version="1.0" encoding="UTF-8" standalone="no"?>
<!DOCTYPE svg PUBLIC "-//W3C//DTD SVG 1.1//EN"
 "http://www.w3.org/Graphics/SVG/1.1/DTD/svg11.dtd">
<!-- Generated by graphviz version 2.40.1 (20161225.0304)
 -->
<!-- Title: cs_diag_msg_svr Pages: 1 -->
<svg width="141pt" height="95pt"
 viewBox="0.00 0.00 141.00 95.00" xmlns="http://www.w3.org/2000/svg" xmlns:xlink="http://www.w3.org/1999/xlink">
<g id="graph0" class="graph" transform="scale(1 1) rotate(0) translate(4 91)">
<title>cs_diag_msg_svr</title>
<polygon fill="#ffffff" stroke="transparent" points="-4,4 -4,-91 137,-91 137,4 -4,4"/>
<!-- Node1 -->
<g id="node1" class="node">
<title>Node1</title>
<g id="a_node1"><a xlink:title=" ">
<polygon fill="#bfbfbf" stroke="#000000" points="0,-.5 0,-19.5 93,-19.5 93,-.5 0,-.5"/>
<text text-anchor="middle" x="46.5" y="-7.5" font-family="Helvetica,sans-Serif" font-size="10.00" fill="#000000">cs_diag_msg_svr</text>
</a>
</g>
</g>
<!-- Node1&#45;&gt;Node1 -->
<g id="edge1" class="edge">
<title>Node1&#45;&gt;Node1</title>
<path fill="none" stroke="#9a32cd" stroke-dasharray="5,2" d="M103.3467,-14.6317C108.0656,-13.6338 111,-12.0898 111,-10 111,-6.6563 103.488,-4.7101 93.1737,-4.1615"/>
<polygon fill="#9a32cd" stroke="#9a32cd" points="102.6917,-11.1848 93.1737,-15.8385 103.5164,-18.1361 102.6917,-11.1848"/>
<text text-anchor="middle" x="122" y="-7.5" font-family="Helvetica,sans-Serif" font-size="10.00" fill="#000000"> next</text>
</g>
<!-- Node2 -->
<g id="node2" class="node">
<title>Node2</title>
<g id="a_node2"><a xlink:href="a00852.html" target="_top" xlink:title=" ">
<polygon fill="#ffffff" stroke="#000000" points="5,-67.5 5,-86.5 88,-86.5 88,-67.5 5,-67.5"/>
<text text-anchor="middle" x="46.5" y="-74.5" font-family="Helvetica,sans-Serif" font-size="10.00" fill="#000000">_cs_servermsg</text>
</a>
</g>
</g>
<!-- Node2&#45;&gt;Node1 -->
<g id="edge2" class="edge">
<title>Node2&#45;&gt;Node1</title>
<path fill="none" stroke="#9a32cd" stroke-dasharray="5,2" d="M46.5,-57.1079C46.5,-44.714 46.5,-29.3263 46.5,-19.5817"/>
<polygon fill="#9a32cd" stroke="#9a32cd" points="43.0001,-57.4005 46.5,-67.4005 50.0001,-57.4006 43.0001,-57.4005"/>
<text text-anchor="middle" x="71" y="-41" font-family="Helvetica,sans-Serif" font-size="10.00" fill="#000000"> servermsg</text>
</g>
</g>
</svg>
