<?xml version="1.0" encoding="UTF-8" standalone="no"?>
<!DOCTYPE svg PUBLIC "-//W3C//DTD SVG 1.1//EN"
 "http://www.w3.org/Graphics/SVG/1.1/DTD/svg11.dtd">
<!-- Generated by graphviz version 2.40.1 (20161225.0304)
 -->
<!-- Title: _cs_blkdesc Pages: 1 -->
<svg width="246pt" height="351pt"
 viewBox="0.00 0.00 245.50 351.00" xmlns="http://www.w3.org/2000/svg" xmlns:xlink="http://www.w3.org/1999/xlink">
<g id="graph0" class="graph" transform="scale(1 1) rotate(0) translate(4 347)">
<title>_cs_blkdesc</title>
<polygon fill="#ffffff" stroke="transparent" points="-4,4 -4,-347 241.5,-347 241.5,4 -4,4"/>
<!-- Node1 -->
<g id="node1" class="node">
<title>Node1</title>
<g id="a_node1"><a xlink:title=" ">
<polygon fill="#bfbfbf" stroke="#000000" points="0,-.5 0,-19.5 71,-19.5 71,-.5 0,-.5"/>
<text text-anchor="middle" x="35.5" y="-7.5" font-family="Helvetica,sans-Serif" font-size="10.00" fill="#000000">_cs_blkdesc</text>
</a>
</g>
</g>
<!-- Node2 -->
<g id="node2" class="node">
<title>Node2</title>
<g id="a_node2"><a xlink:href="a01232.html" target="_top" xlink:title=" ">
<polygon fill="#ffffff" stroke="#000000" points="2,-67.5 2,-86.5 69,-86.5 69,-67.5 2,-67.5"/>
<text text-anchor="middle" x="35.5" y="-74.5" font-family="Helvetica,sans-Serif" font-size="10.00" fill="#000000">tds_bcpinfo</text>
</a>
</g>
</g>
<!-- Node2&#45;&gt;Node1 -->
<g id="edge1" class="edge">
<title>Node2&#45;&gt;Node1</title>
<path fill="none" stroke="#9a32cd" stroke-dasharray="5,2" d="M35.5,-57.1079C35.5,-44.714 35.5,-29.3263 35.5,-19.5817"/>
<polygon fill="#9a32cd" stroke="#9a32cd" points="32.0001,-57.4005 35.5,-67.4005 39.0001,-57.4006 32.0001,-57.4005"/>
<text text-anchor="middle" x="53" y="-41" font-family="Helvetica,sans-Serif" font-size="10.00" fill="#000000"> bcpinfo</text>
</g>
<!-- Node3 -->
<g id="node3" class="node">
<title>Node3</title>
<g id="a_node3"><a xlink:href="a01172.html" target="_top" xlink:title="Hold information for any results.">
<polygon fill="#ffffff" stroke="#000000" points="63.5,-167.5 63.5,-186.5 143.5,-186.5 143.5,-167.5 63.5,-167.5"/>
<text text-anchor="middle" x="103.5" y="-174.5" font-family="Helvetica,sans-Serif" font-size="10.00" fill="#000000">tds_result_info</text>
</a>
</g>
</g>
<!-- Node3&#45;&gt;Node2 -->
<g id="edge2" class="edge">
<title>Node3&#45;&gt;Node2</title>
<path fill="none" stroke="#9a32cd" stroke-dasharray="5,2" d="M73.5634,-161.9184C68.3405,-158.2517 63.3553,-153.9377 59.5,-149 44.742,-130.0984 38.8377,-101.6814 36.6574,-86.8322"/>
<polygon fill="#9a32cd" stroke="#9a32cd" points="72.0887,-165.1249 82.4199,-167.4739 75.8084,-159.195 72.0887,-165.1249"/>
<text text-anchor="middle" x="78" y="-124.5" font-family="Helvetica,sans-Serif" font-size="10.00" fill="#000000"> bindinfo</text>
</g>
<!-- Node4 -->
<g id="node4" class="node">
<title>Node4</title>
<g id="a_node4"><a xlink:href="a01224.html" target="_top" xlink:title="Information for a server connection.">
<polygon fill="#ffffff" stroke="#ff0000" points="91,-67.5 91,-86.5 156,-86.5 156,-67.5 91,-67.5"/>
<text text-anchor="middle" x="123.5" y="-74.5" font-family="Helvetica,sans-Serif" font-size="10.00" fill="#000000">tds_socket</text>
</a>
</g>
</g>
<!-- Node3&#45;&gt;Node4 -->
<g id="edge4" class="edge">
<title>Node3&#45;&gt;Node4</title>
<path fill="none" stroke="#9a32cd" stroke-dasharray="5,2" d="M101.7173,-157.4438C100.9904,-142.7091 101.3058,-122.1771 106.5,-105 108.5082,-98.3589 112.4632,-91.6885 116.0534,-86.525"/>
<polygon fill="#9a32cd" stroke="#9a32cd" points="98.2264,-157.6974 102.4128,-167.43 105.2095,-157.211 98.2264,-157.6974"/>
<text text-anchor="middle" x="139" y="-141" font-family="Helvetica,sans-Serif" font-size="10.00" fill="#000000"> param_info</text>
<text text-anchor="middle" x="139" y="-130" font-family="Helvetica,sans-Serif" font-size="10.00" fill="#000000">current_results</text>
<text text-anchor="middle" x="139" y="-119" font-family="Helvetica,sans-Serif" font-size="10.00" fill="#000000">res_info</text>
<text text-anchor="middle" x="139" y="-108" font-family="Helvetica,sans-Serif" font-size="10.00" fill="#000000">comp_info</text>
</g>
<!-- Node4&#45;&gt;Node3 -->
<g id="edge3" class="edge">
<title>Node4&#45;&gt;Node3</title>
<path fill="none" stroke="#9a32cd" stroke-dasharray="5,2" d="M162.6663,-91.7799C167.7799,-95.3428 172.3338,-99.6991 175.5,-105 185.5278,-121.7888 186.5411,-132.8596 175.5,-149 170.9187,-155.6972 154.5831,-162.3187 138.6281,-167.44"/>
<polygon fill="#9a32cd" stroke="#9a32cd" points="164.0745,-88.5482 153.6783,-86.5063 160.532,-94.5857 164.0745,-88.5482"/>
<text text-anchor="middle" x="210" y="-124.5" font-family="Helvetica,sans-Serif" font-size="10.00" fill="#000000"> attached_to</text>
</g>
<!-- Node23 -->
<g id="node5" class="node">
<title>Node23</title>
<g id="a_node5"><a xlink:href="a01164.html" target="_top" xlink:title="Metadata about columns in regular and compute rows.">
<polygon fill="#ffffff" stroke="#ff0000" points="50,-234.5 50,-253.5 117,-253.5 117,-234.5 50,-234.5"/>
<text text-anchor="middle" x="83.5" y="-241.5" font-family="Helvetica,sans-Serif" font-size="10.00" fill="#000000">tds_column</text>
</a>
</g>
</g>
<!-- Node23&#45;&gt;Node3 -->
<g id="edge5" class="edge">
<title>Node23&#45;&gt;Node3</title>
<path fill="none" stroke="#9a32cd" stroke-dasharray="5,2" d="M89.325,-224.4863C93.0437,-212.0286 97.7013,-196.4258 100.6398,-186.5817"/>
<polygon fill="#9a32cd" stroke="#9a32cd" points="85.8722,-223.8172 86.3655,-234.4005 92.5797,-225.8195 85.8722,-223.8172"/>
<text text-anchor="middle" x="114.5" y="-208" font-family="Helvetica,sans-Serif" font-size="10.00" fill="#000000"> columns</text>
</g>
<!-- Node8 -->
<g id="node6" class="node">
<title>Node8</title>
<g id="a_node6"><a xlink:href="a01268.html" target="_top" xlink:title="Structure to hold a string.">
<polygon fill="#ffffff" stroke="#000000" points="6.5,-323.5 6.5,-342.5 58.5,-342.5 58.5,-323.5 6.5,-323.5"/>
<text text-anchor="middle" x="32.5" y="-330.5" font-family="Helvetica,sans-Serif" font-size="10.00" fill="#000000">tds_dstr</text>
</a>
</g>
</g>
<!-- Node8&#45;&gt;Node2 -->
<g id="edge7" class="edge">
<title>Node8&#45;&gt;Node2</title>
<path fill="none" stroke="#9a32cd" stroke-dasharray="5,2" d="M32.7332,-313.0995C33.3386,-261.4374 34.944,-124.4494 35.3859,-86.7326"/>
<polygon fill="#9a32cd" stroke="#9a32cd" points="29.2315,-313.2367 32.6139,-323.2771 36.231,-313.3188 29.2315,-313.2367"/>
<text text-anchor="middle" x="59" y="-208" font-family="Helvetica,sans-Serif" font-size="10.00" fill="#000000"> tablename</text>
</g>
<!-- Node8&#45;&gt;Node23 -->
<g id="edge6" class="edge">
<title>Node8&#45;&gt;Node23</title>
<path fill="none" stroke="#9a32cd" stroke-dasharray="5,2" d="M42.9374,-314.7858C53.5344,-296.2929 69.541,-268.3597 77.9267,-253.7259"/>
<polygon fill="#9a32cd" stroke="#9a32cd" points="39.8931,-313.0588 37.9579,-323.4754 45.9666,-316.5392 39.8931,-313.0588"/>
<text text-anchor="middle" x="110.5" y="-297" font-family="Helvetica,sans-Serif" font-size="10.00" fill="#000000"> column_name</text>
<text text-anchor="middle" x="110.5" y="-286" font-family="Helvetica,sans-Serif" font-size="10.00" fill="#000000">table_name</text>
<text text-anchor="middle" x="110.5" y="-275" font-family="Helvetica,sans-Serif" font-size="10.00" fill="#000000">table_column_name</text>
</g>
</g>
</svg>
