<?xml version="1.0" encoding="UTF-8" standalone="no"?>
<!DOCTYPE svg PUBLIC "-//W3C//DTD SVG 1.1//EN"
 "http://www.w3.org/Graphics/SVG/1.1/DTD/svg11.dtd">
<!-- Generated by graphviz version 2.40.1 (20161225.0304)
 -->
<!-- Title: _cs_dynamic Pages: 1 -->
<svg width="429pt" height="197pt"
 viewBox="0.00 0.00 429.28 197.00" xmlns="http://www.w3.org/2000/svg" xmlns:xlink="http://www.w3.org/1999/xlink">
<g id="graph0" class="graph" transform="scale(1 1) rotate(0) translate(4 193)">
<title>_cs_dynamic</title>
<polygon fill="#ffffff" stroke="transparent" points="-4,4 -4,-193 425.2764,-193 425.2764,4 -4,4"/>
<!-- Node1 -->
<g id="node1" class="node">
<title>Node1</title>
<g id="a_node1"><a xlink:title=" ">
<polygon fill="#bfbfbf" stroke="#000000" points="221.7764,-101.5 221.7764,-120.5 295.7764,-120.5 295.7764,-101.5 221.7764,-101.5"/>
<text text-anchor="middle" x="258.7764" y="-108.5" font-family="Helvetica,sans-Serif" font-size="10.00" fill="#000000">_cs_dynamic</text>
</a>
</g>
</g>
<!-- Node1&#45;&gt;Node1 -->
<g id="edge10" class="edge">
<title>Node1&#45;&gt;Node1</title>
<path fill="none" stroke="#9a32cd" stroke-dasharray="5,2" d="M305.9621,-116.2299C310.7333,-115.192 313.7764,-113.4487 313.7764,-111 313.7764,-107.082 305.9861,-104.97 295.7917,-104.6639"/>
<polygon fill="#9a32cd" stroke="#9a32cd" points="305.3546,-112.7752 295.7917,-117.3361 306.1116,-119.7342 305.3546,-112.7752"/>
<text text-anchor="middle" x="324.7764" y="-108.5" font-family="Helvetica,sans-Serif" font-size="10.00" fill="#000000"> next</text>
</g>
<!-- Node2 -->
<g id="node2" class="node">
<title>Node2</title>
<g id="a_node2"><a xlink:href="a01196.html" target="_top" xlink:title="Holds information for a dynamic (also called prepared) query.">
<polygon fill="#ffffff" stroke="#000000" points="120.7764,-169.5 120.7764,-188.5 192.7764,-188.5 192.7764,-169.5 120.7764,-169.5"/>
<text text-anchor="middle" x="156.7764" y="-176.5" font-family="Helvetica,sans-Serif" font-size="10.00" fill="#000000">tds_dynamic</text>
</a>
</g>
</g>
<!-- Node2&#45;&gt;Node1 -->
<g id="edge1" class="edge">
<title>Node2&#45;&gt;Node1</title>
<path fill="none" stroke="#9a32cd" stroke-dasharray="5,2" d="M179.874,-163.6016C199.7398,-150.3577 227.7658,-131.6738 244.5183,-120.5054"/>
<polygon fill="#9a32cd" stroke="#9a32cd" points="177.7696,-160.798 171.3905,-169.2573 181.6525,-166.6224 177.7696,-160.798"/>
<text text-anchor="middle" x="231.2764" y="-143" font-family="Helvetica,sans-Serif" font-size="10.00" fill="#000000"> tdsdyn</text>
</g>
<!-- Node2&#45;&gt;Node2 -->
<g id="edge2" class="edge">
<title>Node2&#45;&gt;Node2</title>
<path fill="none" stroke="#9a32cd" stroke-dasharray="5,2" d="M202.9847,-183.9469C207.7378,-182.9732 210.7764,-181.3242 210.7764,-179 210.7764,-175.2813 202.9975,-173.2911 192.8637,-173.0297"/>
<polygon fill="#9a32cd" stroke="#9a32cd" points="202.4608,-180.4819 192.8637,-184.9703 203.1651,-187.4464 202.4608,-180.4819"/>
<text text-anchor="middle" x="221.7764" y="-176.5" font-family="Helvetica,sans-Serif" font-size="10.00" fill="#000000"> next</text>
</g>
<!-- Node4 -->
<g id="node4" class="node">
<title>Node4</title>
<g id="a_node4"><a xlink:href="a01224.html" target="_top" xlink:title="Information for a server connection.">
<polygon fill="#ffffff" stroke="#ff0000" points="53.2764,-101.5 53.2764,-120.5 118.2764,-120.5 118.2764,-101.5 53.2764,-101.5"/>
<text text-anchor="middle" x="85.7764" y="-108.5" font-family="Helvetica,sans-Serif" font-size="10.00" fill="#000000">tds_socket</text>
</a>
</g>
</g>
<!-- Node2&#45;&gt;Node4 -->
<g id="edge5" class="edge">
<title>Node2&#45;&gt;Node4</title>
<path fill="none" stroke="#9a32cd" stroke-dasharray="5,2" d="M130.1423,-163.9374C124.4294,-160.1007 118.6514,-155.7142 113.7764,-151 104.3922,-141.9253 96.1658,-129.2935 91.1001,-120.6682"/>
<polygon fill="#9a32cd" stroke="#9a32cd" points="128.6023,-167.1043 138.9269,-169.4822 132.3387,-161.1849 128.6023,-167.1043"/>
<text text-anchor="middle" x="132.7764" y="-143" font-family="Helvetica,sans-Serif" font-size="10.00" fill="#000000"> cur_dyn</text>
</g>
<!-- Node3 -->
<g id="node3" class="node">
<title>Node3</title>
<g id="a_node3"><a xlink:href="a01172.html" target="_top" xlink:title="Hold information for any results.">
<polygon fill="#ffffff" stroke="#000000" points="85.7764,-.5 85.7764,-19.5 165.7764,-19.5 165.7764,-.5 85.7764,-.5"/>
<text text-anchor="middle" x="125.7764" y="-7.5" font-family="Helvetica,sans-Serif" font-size="10.00" fill="#000000">tds_result_info</text>
</a>
</g>
</g>
<!-- Node3&#45;&gt;Node2 -->
<g id="edge3" class="edge">
<title>Node3&#45;&gt;Node2</title>
<path fill="none" stroke="#9a32cd" stroke-dasharray="5,2" d="M145.0496,-27.0925C147.7617,-30.4298 150.169,-34.1108 151.7764,-38 170.7688,-83.9539 162.7844,-145.6885 158.6644,-169.2808"/>
<polygon fill="#9a32cd" stroke="#9a32cd" points="147.3711,-24.4529 137.9621,-19.5823 142.2801,-29.2573 147.3711,-24.4529"/>
<text text-anchor="middle" x="183.7764" y="-114" font-family="Helvetica,sans-Serif" font-size="10.00" fill="#000000"> res_info</text>
<text text-anchor="middle" x="183.7764" y="-103" font-family="Helvetica,sans-Serif" font-size="10.00" fill="#000000">params</text>
</g>
<!-- Node3&#45;&gt;Node4 -->
<g id="edge6" class="edge">
<title>Node3&#45;&gt;Node4</title>
<path fill="none" stroke="#9a32cd" stroke-dasharray="5,2" d="M97.1491,-25.5465C92.9836,-29.0796 89.267,-33.2267 86.7764,-38 76.1054,-58.4516 80.1018,-86.7201 83.3038,-101.354"/>
<polygon fill="#9a32cd" stroke="#9a32cd" points="99.4529,-28.2 105.5081,-19.506 95.3529,-22.5263 99.4529,-28.2"/>
<text text-anchor="middle" x="119.2764" y="-74" font-family="Helvetica,sans-Serif" font-size="10.00" fill="#000000"> param_info</text>
<text text-anchor="middle" x="119.2764" y="-63" font-family="Helvetica,sans-Serif" font-size="10.00" fill="#000000">current_results</text>
<text text-anchor="middle" x="119.2764" y="-52" font-family="Helvetica,sans-Serif" font-size="10.00" fill="#000000">res_info</text>
<text text-anchor="middle" x="119.2764" y="-41" font-family="Helvetica,sans-Serif" font-size="10.00" fill="#000000">comp_info</text>
</g>
<!-- Node4&#45;&gt;Node3 -->
<g id="edge4" class="edge">
<title>Node4&#45;&gt;Node3</title>
<path fill="none" stroke="#9a32cd" stroke-dasharray="5,2" d="M43.6304,-99.7851C28.1301,-94.7396 13.2526,-88.469 8.7764,-82 -2.3509,-65.9189 -3.3359,-53.3529 8.7764,-38 18.317,-25.9068 55.7045,-18.4539 85.6825,-14.3086"/>
<polygon fill="#9a32cd" stroke="#9a32cd" points="42.6871,-103.1568 53.2745,-102.7591 44.75,-96.4676 42.6871,-103.1568"/>
<text text-anchor="middle" x="36.2764" y="-57.5" font-family="Helvetica,sans-Serif" font-size="10.00" fill="#000000"> attached_to</text>
</g>
<!-- Node22 -->
<g id="node5" class="node">
<title>Node22</title>
<g id="a_node5"><a xlink:href="a01164.html" target="_top" xlink:title="Metadata about columns in regular and compute rows.">
<polygon fill="#ffffff" stroke="#ff0000" points="354.2764,-101.5 354.2764,-120.5 421.2764,-120.5 421.2764,-101.5 354.2764,-101.5"/>
<text text-anchor="middle" x="387.7764" y="-108.5" font-family="Helvetica,sans-Serif" font-size="10.00" fill="#000000">tds_column</text>
</a>
</g>
</g>
<!-- Node22&#45;&gt;Node3 -->
<g id="edge7" class="edge">
<title>Node22&#45;&gt;Node3</title>
<path fill="none" stroke="#9a32cd" stroke-dasharray="5,2" d="M353.7302,-97.8753C300.2121,-77.2443 197.6578,-37.71 150.5501,-19.5502"/>
<polygon fill="#9a32cd" stroke="#9a32cd" points="352.5384,-101.1669 363.1281,-101.4982 355.0563,-94.6354 352.5384,-101.1669"/>
<text text-anchor="middle" x="329.7764" y="-57.5" font-family="Helvetica,sans-Serif" font-size="10.00" fill="#000000"> columns</text>
</g>
<!-- Node25 -->
<g id="node6" class="node">
<title>Node25</title>
<g id="a_node6"><a xlink:href="a00884.html" target="_top" xlink:title=" ">
<polygon fill="#ffffff" stroke="#000000" points="251.2764,-169.5 251.2764,-188.5 316.2764,-188.5 316.2764,-169.5 251.2764,-169.5"/>
<text text-anchor="middle" x="283.7764" y="-176.5" font-family="Helvetica,sans-Serif" font-size="10.00" fill="#000000">_cs_param</text>
</a>
</g>
</g>
<!-- Node25&#45;&gt;Node1 -->
<g id="edge8" class="edge">
<title>Node25&#45;&gt;Node1</title>
<path fill="none" stroke="#9a32cd" stroke-dasharray="5,2" d="M276.6357,-159.5772C271.9646,-146.8719 266.0619,-130.8166 262.3516,-120.7247"/>
<polygon fill="#9a32cd" stroke="#9a32cd" points="273.4588,-161.0792 280.1945,-169.2573 280.0288,-158.6637 273.4588,-161.0792"/>
<text text-anchor="middle" x="297.2764" y="-143" font-family="Helvetica,sans-Serif" font-size="10.00" fill="#000000"> param_list</text>
</g>
<!-- Node25&#45;&gt;Node25 -->
<g id="edge9" class="edge">
<title>Node25&#45;&gt;Node25</title>
<path fill="none" stroke="#9a32cd" stroke-dasharray="5,2" d="M326.4211,-184.0661C331.1909,-183.1106 334.2764,-181.4219 334.2764,-179 334.2764,-175.125 326.3776,-173.127 316.3189,-173.0059"/>
<polygon fill="#9a32cd" stroke="#9a32cd" points="325.9567,-180.5939 316.3189,-184.9941 326.5972,-187.5645 325.9567,-180.5939"/>
<text text-anchor="middle" x="345.2764" y="-176.5" font-family="Helvetica,sans-Serif" font-size="10.00" fill="#000000"> next</text>
</g>
</g>
</svg>
