<?xml version="1.0" encoding="UTF-8" standalone="no"?>
<!DOCTYPE svg PUBLIC "-//W3C//DTD SVG 1.1//EN"
 "http://www.w3.org/Graphics/SVG/1.1/DTD/svg11.dtd">
<!-- Generated by graphviz version 2.40.1 (20161225.0304)
 -->
<!-- Title: _hdesc Pages: 1 -->
<svg width="260pt" height="294pt"
 viewBox="0.00 0.00 259.50 294.00" xmlns="http://www.w3.org/2000/svg" xmlns:xlink="http://www.w3.org/1999/xlink">
<g id="graph0" class="graph" transform="scale(1 1) rotate(0) translate(4 290)">
<title>_hdesc</title>
<polygon fill="#ffffff" stroke="transparent" points="-4,4 -4,-290 255.5,-290 255.5,4 -4,4"/>
<!-- Node1 -->
<g id="node1" class="node">
<title>Node1</title>
<g id="a_node1"><a xlink:title=" ">
<polygon fill="#bfbfbf" stroke="#000000" points="77,-.5 77,-19.5 125,-19.5 125,-.5 77,-.5"/>
<text text-anchor="middle" x="101" y="-7.5" font-family="Helvetica,sans-Serif" font-size="10.00" fill="#000000">_hdesc</text>
</a>
</g>
</g>
<!-- Node2 -->
<g id="node2" class="node">
<title>Node2</title>
<g id="a_node2"><a xlink:href="a00992.html" target="_top" xlink:title=" ">
<polygon fill="#ffffff" stroke="#000000" points="0,-67.5 0,-86.5 56,-86.5 56,-67.5 0,-67.5"/>
<text text-anchor="middle" x="28" y="-74.5" font-family="Helvetica,sans-Serif" font-size="10.00" fill="#000000">_dheader</text>
</a>
</g>
</g>
<!-- Node2&#45;&gt;Node1 -->
<g id="edge1" class="edge">
<title>Node2&#45;&gt;Node1</title>
<path fill="none" stroke="#9a32cd" stroke-dasharray="5,2" d="M42.8255,-59.6336C49.0954,-52.6432 56.641,-44.6736 64,-38 71.2801,-31.3979 80.0245,-24.7293 87.1841,-19.557"/>
<polygon fill="#9a32cd" stroke="#9a32cd" points="40.104,-57.4286 36.1389,-67.2535 45.3654,-62.0456 40.104,-57.4286"/>
<text text-anchor="middle" x="80.5" y="-41" font-family="Helvetica,sans-Serif" font-size="10.00" fill="#000000"> header</text>
</g>
<!-- Node3 -->
<g id="node3" class="node">
<title>Node3</title>
<g id="a_node3"><a xlink:href="a00996.html" target="_top" xlink:title=" ">
<polygon fill="#ffffff" stroke="#000000" points="74,-67.5 74,-86.5 128,-86.5 128,-67.5 74,-67.5"/>
<text text-anchor="middle" x="101" y="-74.5" font-family="Helvetica,sans-Serif" font-size="10.00" fill="#000000">_drecord</text>
</a>
</g>
</g>
<!-- Node3&#45;&gt;Node1 -->
<g id="edge2" class="edge">
<title>Node3&#45;&gt;Node1</title>
<path fill="none" stroke="#9a32cd" stroke-dasharray="5,2" d="M101,-57.1079C101,-44.714 101,-29.3263 101,-19.5817"/>
<polygon fill="#9a32cd" stroke="#9a32cd" points="97.5001,-57.4005 101,-67.4005 104.5001,-57.4006 97.5001,-57.4005"/>
<text text-anchor="middle" x="119" y="-41" font-family="Helvetica,sans-Serif" font-size="10.00" fill="#000000"> records</text>
</g>
<!-- Node4 -->
<g id="node4" class="node">
<title>Node4</title>
<g id="a_node4"><a xlink:href="a01268.html" target="_top" xlink:title="Structure to hold a string.">
<polygon fill="#ffffff" stroke="#000000" points="61,-266.5 61,-285.5 113,-285.5 113,-266.5 61,-266.5"/>
<text text-anchor="middle" x="87" y="-273.5" font-family="Helvetica,sans-Serif" font-size="10.00" fill="#000000">tds_dstr</text>
</a>
</g>
</g>
<!-- Node4&#45;&gt;Node3 -->
<g id="edge3" class="edge">
<title>Node4&#45;&gt;Node3</title>
<path fill="none" stroke="#9a32cd" stroke-dasharray="5,2" d="M84.3817,-255.8685C80.7885,-223.5776 76.0419,-158.4103 88,-105 89.4286,-98.6194 92.448,-91.9612 95.2175,-86.739"/>
<polygon fill="#9a32cd" stroke="#9a32cd" points="80.9542,-256.683 85.6202,-266.195 87.9044,-255.8493 80.9542,-256.683"/>
<text text-anchor="middle" x="144" y="-240" font-family="Helvetica,sans-Serif" font-size="10.00" fill="#000000"> sql_desc_schema_name</text>
<text text-anchor="middle" x="144" y="-229" font-family="Helvetica,sans-Serif" font-size="10.00" fill="#000000">sql_desc_name</text>
<text text-anchor="start" x="88" y="-218" font-family="Helvetica,sans-Serif" font-size="10.00" fill="#000000">sql_desc_base_column</text>
<text text-anchor="middle" x="144" y="-207" font-family="Helvetica,sans-Serif" font-size="10.00" fill="#000000">_name</text>
<text text-anchor="start" x="88" y="-196" font-family="Helvetica,sans-Serif" font-size="10.00" fill="#000000">sql_desc_base_table</text>
<text text-anchor="middle" x="144" y="-185" font-family="Helvetica,sans-Serif" font-size="10.00" fill="#000000">_name</text>
<text text-anchor="start" x="88" y="-174" font-family="Helvetica,sans-Serif" font-size="10.00" fill="#000000">sql_desc_catalog</text>
<text text-anchor="middle" x="144" y="-163" font-family="Helvetica,sans-Serif" font-size="10.00" fill="#000000">_name</text>
<text text-anchor="start" x="88" y="-152" font-family="Helvetica,sans-Serif" font-size="10.00" fill="#000000">sql_desc_table</text>
<text text-anchor="middle" x="144" y="-141" font-family="Helvetica,sans-Serif" font-size="10.00" fill="#000000">_name</text>
<text text-anchor="middle" x="144" y="-130" font-family="Helvetica,sans-Serif" font-size="10.00" fill="#000000">sql_desc_label</text>
<text text-anchor="start" x="88" y="-119" font-family="Helvetica,sans-Serif" font-size="10.00" fill="#000000">sql_desc_local</text>
<text text-anchor="middle" x="144" y="-108" font-family="Helvetica,sans-Serif" font-size="10.00" fill="#000000">_type_name</text>
</g>
<!-- Node5 -->
<g id="node5" class="node">
<title>Node5</title>
<g id="a_node5"><a xlink:href="a00988.html" target="_top" xlink:title=" ">
<polygon fill="#ffffff" stroke="#000000" points="174.5,-67.5 174.5,-86.5 239.5,-86.5 239.5,-67.5 174.5,-67.5"/>
<text text-anchor="middle" x="207" y="-74.5" font-family="Helvetica,sans-Serif" font-size="10.00" fill="#000000">_sql_errors</text>
</a>
</g>
</g>
<!-- Node5&#45;&gt;Node1 -->
<g id="edge4" class="edge">
<title>Node5&#45;&gt;Node1</title>
<path fill="none" stroke="#9a32cd" stroke-dasharray="5,2" d="M183.3269,-62.0368C162.7973,-49.0605 133.6997,-30.6687 116.159,-19.5817"/>
<polygon fill="#9a32cd" stroke="#9a32cd" points="181.4897,-65.0161 191.8128,-67.4005 185.2298,-59.099 181.4897,-65.0161"/>
<text text-anchor="middle" x="171" y="-41" font-family="Helvetica,sans-Serif" font-size="10.00" fill="#000000"> errs</text>
</g>
<!-- Node6 -->
<g id="node6" class="node">
<title>Node6</title>
<g id="a_node6"><a xlink:href="a00984.html" target="_top" xlink:title=" ">
<polygon fill="#ffffff" stroke="#000000" points="192.5,-266.5 192.5,-285.5 251.5,-285.5 251.5,-266.5 192.5,-266.5"/>
<text text-anchor="middle" x="222" y="-273.5" font-family="Helvetica,sans-Serif" font-size="10.00" fill="#000000">_sql_error</text>
</a>
</g>
</g>
<!-- Node6&#45;&gt;Node5 -->
<g id="edge5" class="edge">
<title>Node6&#45;&gt;Node5</title>
<path fill="none" stroke="#9a32cd" stroke-dasharray="5,2" d="M220.5177,-256.3349C217.3524,-214.3412 210.0323,-117.2289 207.7162,-86.5019"/>
<polygon fill="#9a32cd" stroke="#9a32cd" points="217.0347,-256.6932 221.2765,-266.4018 224.0149,-256.167 217.0347,-256.6932"/>
<text text-anchor="middle" x="230" y="-174" font-family="Helvetica,sans-Serif" font-size="10.00" fill="#000000"> errs</text>
</g>
</g>
</svg>
