<?xml version="1.0" encoding="UTF-8" standalone="no"?>
<!DOCTYPE svg PUBLIC "-//W3C//DTD SVG 1.1//EN"
 "http://www.w3.org/Graphics/SVG/1.1/DTD/svg11.dtd">
<!-- Generated by graphviz version 2.40.1 (20161225.0304)
 -->
<!-- Title: tds_dblib_loginrec Pages: 1 -->
<svg width="231pt" height="350pt"
 viewBox="0.00 0.00 230.50 350.00" xmlns="http://www.w3.org/2000/svg" xmlns:xlink="http://www.w3.org/1999/xlink">
<g id="graph0" class="graph" transform="scale(1 1) rotate(0) translate(4 346)">
<title>tds_dblib_loginrec</title>
<polygon fill="#ffffff" stroke="transparent" points="-4,4 -4,-346 226.5,-346 226.5,4 -4,4"/>
<!-- Node1 -->
<g id="node1" class="node">
<title>Node1</title>
<g id="a_node1"><a xlink:title=" ">
<polygon fill="#bfbfbf" stroke="#000000" points="51,-.5 51,-19.5 146,-19.5 146,-.5 51,-.5"/>
<text text-anchor="middle" x="98.5" y="-7.5" font-family="Helvetica,sans-Serif" font-size="10.00" fill="#000000">tds_dblib_loginrec</text>
</a>
</g>
</g>
<!-- Node2 -->
<g id="node2" class="node">
<title>Node2</title>
<g id="a_node2"><a xlink:href="a01132.html" target="_top" xlink:title=" ">
<polygon fill="#ffffff" stroke="#000000" points="70.5,-67.5 70.5,-86.5 126.5,-86.5 126.5,-67.5 70.5,-67.5"/>
<text text-anchor="middle" x="98.5" y="-74.5" font-family="Helvetica,sans-Serif" font-size="10.00" fill="#000000">tds_login</text>
</a>
</g>
</g>
<!-- Node2&#45;&gt;Node1 -->
<g id="edge1" class="edge">
<title>Node2&#45;&gt;Node1</title>
<path fill="none" stroke="#9a32cd" stroke-dasharray="5,2" d="M98.5,-57.1079C98.5,-44.714 98.5,-29.3263 98.5,-19.5817"/>
<polygon fill="#9a32cd" stroke="#9a32cd" points="95.0001,-57.4005 98.5,-67.4005 102.0001,-57.4006 95.0001,-57.4005"/>
<text text-anchor="middle" x="120" y="-41" font-family="Helvetica,sans-Serif" font-size="10.00" fill="#000000"> tds_login</text>
</g>
<!-- Node3 -->
<g id="node3" class="node">
<title>Node3</title>
<g id="a_node3"><a xlink:href="a01128.html" target="_top" xlink:title=" ">
<polygon fill="#ffffff" stroke="#000000" points="8.5,-255.5 8.5,-274.5 92.5,-274.5 92.5,-255.5 8.5,-255.5"/>
<text text-anchor="middle" x="50.5" y="-262.5" font-family="Helvetica,sans-Serif" font-size="10.00" fill="#000000">tds_capabilities</text>
</a>
</g>
</g>
<!-- Node3&#45;&gt;Node2 -->
<g id="edge2" class="edge">
<title>Node3&#45;&gt;Node2</title>
<path fill="none" stroke="#9a32cd" stroke-dasharray="5,2" d="M45.6418,-245.3322C38.9221,-213.5284 30.2694,-149.851 55.5,-105 59.9551,-97.0805 67.6864,-91.0267 75.3759,-86.6092"/>
<polygon fill="#9a32cd" stroke="#9a32cd" points="42.2485,-246.1946 47.8794,-255.1693 49.0742,-244.642 42.2485,-246.1946"/>
<text text-anchor="middle" x="81.5" y="-168.5" font-family="Helvetica,sans-Serif" font-size="10.00" fill="#000000"> capabilities</text>
</g>
<!-- Node4 -->
<g id="node4" class="node">
<title>Node4</title>
<g id="a_node4"><a xlink:href="a01124.html" target="_top" xlink:title=" ">
<polygon fill="#ffffff" stroke="#000000" points="0,-322.5 0,-341.5 101,-341.5 101,-322.5 0,-322.5"/>
<text text-anchor="middle" x="50.5" y="-329.5" font-family="Helvetica,sans-Serif" font-size="10.00" fill="#000000">tds_capability_type</text>
</a>
</g>
</g>
<!-- Node4&#45;&gt;Node3 -->
<g id="edge3" class="edge">
<title>Node4&#45;&gt;Node3</title>
<path fill="none" stroke="#9a32cd" stroke-dasharray="5,2" d="M50.5,-312.1079C50.5,-299.714 50.5,-284.3263 50.5,-274.5817"/>
<polygon fill="#9a32cd" stroke="#9a32cd" points="47.0001,-312.4005 50.5,-322.4005 54.0001,-312.4006 47.0001,-312.4005"/>
<text text-anchor="middle" x="64.5" y="-296" font-family="Helvetica,sans-Serif" font-size="10.00" fill="#000000"> types</text>
</g>
<!-- Node5 -->
<g id="node5" class="node">
<title>Node5</title>
<g id="a_node5"><a xlink:href="a01268.html" target="_top" xlink:title="Structure to hold a string.">
<polygon fill="#ffffff" stroke="#000000" points="110.5,-255.5 110.5,-274.5 162.5,-274.5 162.5,-255.5 110.5,-255.5"/>
<text text-anchor="middle" x="136.5" y="-262.5" font-family="Helvetica,sans-Serif" font-size="10.00" fill="#000000">tds_dstr</text>
</a>
</g>
</g>
<!-- Node5&#45;&gt;Node2 -->
<g id="edge4" class="edge">
<title>Node5&#45;&gt;Node2</title>
<path fill="none" stroke="#9a32cd" stroke-dasharray="5,2" d="M135.1945,-245.2298C132.7781,-214.6143 126.423,-154.1397 111.5,-105 109.5689,-98.641 106.4585,-91.8729 103.7643,-86.584"/>
<polygon fill="#9a32cd" stroke="#9a32cd" points="131.7192,-245.6968 135.9375,-255.4157 138.7007,-245.1875 131.7192,-245.6968"/>
<text text-anchor="middle" x="178" y="-229" font-family="Helvetica,sans-Serif" font-size="10.00" fill="#000000"> server_realm_name</text>
<text text-anchor="middle" x="178" y="-218" font-family="Helvetica,sans-Serif" font-size="10.00" fill="#000000">password</text>
<text text-anchor="middle" x="178" y="-207" font-family="Helvetica,sans-Serif" font-size="10.00" fill="#000000">server_name</text>
<text text-anchor="middle" x="178" y="-196" font-family="Helvetica,sans-Serif" font-size="10.00" fill="#000000">dump_file</text>
<text text-anchor="middle" x="178" y="-185" font-family="Helvetica,sans-Serif" font-size="10.00" fill="#000000">library</text>
<text text-anchor="middle" x="178" y="-174" font-family="Helvetica,sans-Serif" font-size="10.00" fill="#000000">crlfile</text>
<text text-anchor="middle" x="178" y="-163" font-family="Helvetica,sans-Serif" font-size="10.00" fill="#000000">server_spn</text>
<text text-anchor="start" x="133.5" y="-152" font-family="Helvetica,sans-Serif" font-size="10.00" fill="#000000">client_host</text>
<text text-anchor="middle" x="178" y="-141" font-family="Helvetica,sans-Serif" font-size="10.00" fill="#000000">_name</text>
<text text-anchor="middle" x="178" y="-130" font-family="Helvetica,sans-Serif" font-size="10.00" fill="#000000">client_charset</text>
<text text-anchor="middle" x="178" y="-119" font-family="Helvetica,sans-Serif" font-size="10.00" fill="#000000">openssl_ciphers</text>
<text text-anchor="middle" x="178" y="-108" font-family="Helvetica,sans-Serif" font-size="10.00" fill="#000000">...</text>
</g>
</g>
</svg>
