<?xml version="1.0" encoding="UTF-8" standalone="no"?>
<!DOCTYPE svg PUBLIC "-//W3C//DTD SVG 1.1//EN"
 "http://www.w3.org/Graphics/SVG/1.1/DTD/svg11.dtd">
<!-- Generated by graphviz version 2.40.1 (20161225.0304)
 -->
<!-- Title: tdsiconvinfo Pages: 1 -->
<svg width="223pt" height="162pt"
 viewBox="0.00 0.00 223.00 162.00" xmlns="http://www.w3.org/2000/svg" xmlns:xlink="http://www.w3.org/1999/xlink">
<g id="graph0" class="graph" transform="scale(1 1) rotate(0) translate(4 158)">
<title>tdsiconvinfo</title>
<polygon fill="#ffffff" stroke="transparent" points="-4,4 -4,-158 219,-158 219,4 -4,4"/>
<!-- Node1 -->
<g id="node1" class="node">
<title>Node1</title>
<g id="a_node1"><a xlink:title=" ">
<polygon fill="#bfbfbf" stroke="#000000" points="74.5,-.5 74.5,-19.5 143.5,-19.5 143.5,-.5 74.5,-.5"/>
<text text-anchor="middle" x="109" y="-7.5" font-family="Helvetica,sans-Serif" font-size="10.00" fill="#000000">tdsiconvinfo</text>
</a>
</g>
</g>
<!-- Node2 -->
<g id="node2" class="node">
<title>Node2</title>
<g id="a_node2"><a xlink:href="a00972.html" target="_top" xlink:title=" ">
<polygon fill="#ffffff" stroke="#000000" points="0,-67.5 0,-86.5 128,-86.5 128,-67.5 0,-67.5"/>
<text text-anchor="middle" x="64" y="-74.5" font-family="Helvetica,sans-Serif" font-size="10.00" fill="#000000">tds_errno_message_flags</text>
</a>
</g>
</g>
<!-- Node2&#45;&gt;Node1 -->
<g id="edge1" class="edge">
<title>Node2&#45;&gt;Node1</title>
<path fill="none" stroke="#9a32cd" stroke-dasharray="5,2" d="M75.5837,-58.512C79.7441,-51.9842 84.5165,-44.6223 89,-38 93.2199,-31.7671 98.1308,-24.8868 102.0302,-19.5062"/>
<polygon fill="#9a32cd" stroke="#9a32cd" points="72.416,-56.9729 70.0311,-67.2958 78.333,-60.7132 72.416,-56.9729"/>
<text text-anchor="middle" x="110.5" y="-41" font-family="Helvetica,sans-Serif" font-size="10.00" fill="#000000"> suppress</text>
</g>
<!-- Node3 -->
<g id="node3" class="node">
<title>Node3</title>
<g id="a_node3"><a xlink:href="a00976.html" target="_top" xlink:title=" ">
<polygon fill="#ffffff" stroke="#000000" points="146,-67.5 146,-86.5 210,-86.5 210,-67.5 146,-67.5"/>
<text text-anchor="middle" x="178" y="-74.5" font-family="Helvetica,sans-Serif" font-size="10.00" fill="#000000">tdsiconvdir</text>
</a>
</g>
</g>
<!-- Node3&#45;&gt;Node1 -->
<g id="edge2" class="edge">
<title>Node3&#45;&gt;Node1</title>
<path fill="none" stroke="#9a32cd" stroke-dasharray="5,2" d="M160.5734,-60.0785C147.3762,-47.2639 129.7225,-30.1218 118.8677,-19.5817"/>
<polygon fill="#9a32cd" stroke="#9a32cd" points="158.5015,-62.9452 168.114,-67.4005 163.3779,-57.9232 158.5015,-62.9452"/>
<text text-anchor="middle" x="158.5" y="-41" font-family="Helvetica,sans-Serif" font-size="10.00" fill="#000000"> from</text>
</g>
<!-- Node4 -->
<g id="node4" class="node">
<title>Node4</title>
<g id="a_node4"><a xlink:href="a01152.html" target="_top" xlink:title="Information relevant to libiconv.">
<polygon fill="#ffffff" stroke="#000000" points="141,-134.5 141,-153.5 215,-153.5 215,-134.5 141,-134.5"/>
<text text-anchor="middle" x="178" y="-141.5" font-family="Helvetica,sans-Serif" font-size="10.00" fill="#000000">tds_encoding</text>
</a>
</g>
</g>
<!-- Node4&#45;&gt;Node3 -->
<g id="edge3" class="edge">
<title>Node4&#45;&gt;Node3</title>
<path fill="none" stroke="#9a32cd" stroke-dasharray="5,2" d="M178,-124.1079C178,-111.714 178,-96.3263 178,-86.5817"/>
<polygon fill="#9a32cd" stroke="#9a32cd" points="174.5001,-124.4005 178,-134.4005 181.5001,-124.4006 174.5001,-124.4005"/>
<text text-anchor="middle" x="196" y="-108" font-family="Helvetica,sans-Serif" font-size="10.00" fill="#000000"> charset</text>
</g>
</g>
</svg>
