<?xml version="1.0" encoding="UTF-8" standalone="no"?>
<!DOCTYPE svg PUBLIC "-//W3C//DTD SVG 1.1//EN"
 "http://www.w3.org/Graphics/SVG/1.1/DTD/svg11.dtd">
<!-- Generated by graphviz version 2.40.1 (20161225.0304)
 -->
<!-- Title: dboption Pages: 1 -->
<svg width="112pt" height="95pt"
 viewBox="0.00 0.00 112.00 95.00" xmlns="http://www.w3.org/2000/svg" xmlns:xlink="http://www.w3.org/1999/xlink">
<g id="graph0" class="graph" transform="scale(1 1) rotate(0) translate(4 91)">
<title>dboption</title>
<polygon fill="#ffffff" stroke="transparent" points="-4,4 -4,-91 108,-91 108,4 -4,4"/>
<!-- Node1 -->
<g id="node1" class="node">
<title>Node1</title>
<g id="a_node1"><a xlink:title=" ">
<polygon fill="#bfbfbf" stroke="#000000" points="0,-.5 0,-19.5 53,-19.5 53,-.5 0,-.5"/>
<text text-anchor="middle" x="26.5" y="-7.5" font-family="Helvetica,sans-Serif" font-size="10.00" fill="#000000">dboption</text>
</a>
</g>
</g>
<!-- Node2 -->
<g id="node2" class="node">
<title>Node2</title>
<g id="a_node2"><a xlink:href="a01324.html" target="_top" xlink:title=" ">
<polygon fill="#ffffff" stroke="#000000" points="1,-67.5 1,-86.5 52,-86.5 52,-67.5 1,-67.5"/>
<text text-anchor="middle" x="26.5" y="-74.5" font-family="Helvetica,sans-Serif" font-size="10.00" fill="#000000">dbstring</text>
</a>
</g>
</g>
<!-- Node2&#45;&gt;Node1 -->
<g id="edge1" class="edge">
<title>Node2&#45;&gt;Node1</title>
<path fill="none" stroke="#9a32cd" stroke-dasharray="5,2" d="M26.5,-57.1079C26.5,-44.714 26.5,-29.3263 26.5,-19.5817"/>
<polygon fill="#9a32cd" stroke="#9a32cd" points="23.0001,-57.4005 26.5,-67.4005 30.0001,-57.4006 23.0001,-57.4005"/>
<text text-anchor="middle" x="42" y="-41" font-family="Helvetica,sans-Serif" font-size="10.00" fill="#000000"> param</text>
</g>
<!-- Node2&#45;&gt;Node2 -->
<g id="edge2" class="edge">
<title>Node2&#45;&gt;Node2</title>
<path fill="none" stroke="#9a32cd" stroke-dasharray="5,2" d="M62.5602,-82.2135C67.0495,-81.2896 70,-79.5518 70,-77 70,-72.8125 62.0544,-70.8169 52.4017,-71.0132"/>
<polygon fill="#9a32cd" stroke="#9a32cd" points="62.1071,-78.7377 52.4017,-82.9868 62.6386,-85.7175 62.1071,-78.7377"/>
<text text-anchor="middle" x="87" y="-74.5" font-family="Helvetica,sans-Serif" font-size="10.00" fill="#000000"> strnext</text>
</g>
</g>
</svg>
