<?xml version="1.0" encoding="UTF-8" standalone="no"?>
<!DOCTYPE svg PUBLIC "-//W3C//DTD SVG 1.1//EN"
 "http://www.w3.org/Graphics/SVG/1.1/DTD/svg11.dtd">
<!-- Generated by graphviz version 2.40.1 (20161225.0304)
 -->
<!-- Title: tds_dblib_dbprocess Pages: 1 -->
<svg width="1280pt" height="798pt"
 viewBox="0.00 0.00 1280.00 798.00" xmlns="http://www.w3.org/2000/svg" xmlns:xlink="http://www.w3.org/1999/xlink">
<g id="graph0" class="graph" transform="scale(1 1) rotate(0) translate(4 794)">
<title>tds_dblib_dbprocess</title>
<polygon fill="#ffffff" stroke="transparent" points="-4,4 -4,-794 1276,-794 1276,4 -4,4"/>
<!-- Node1 -->
<g id="node1" class="node">
<title>Node1</title>
<g id="a_node1"><a xlink:title=" ">
<polygon fill="#bfbfbf" stroke="#000000" points="1166,-602.5 1166,-621.5 1272,-621.5 1272,-602.5 1166,-602.5"/>
<text text-anchor="middle" x="1219" y="-609.5" font-family="Helvetica,sans-Serif" font-size="10.00" fill="#000000">tds_dblib_dbprocess</text>
</a>
</g>
</g>
<!-- Node2 -->
<g id="node2" class="node">
<title>Node2</title>
<g id="a_node2"><a xlink:href="a00936.html" target="_top" xlink:title=" ">
<polygon fill="#ffffff" stroke="#000000" points="989.5,-770.5 989.5,-789.5 1052.5,-789.5 1052.5,-770.5 989.5,-770.5"/>
<text text-anchor="middle" x="1021" y="-777.5" font-family="Helvetica,sans-Serif" font-size="10.00" fill="#000000">NULLREP</text>
</a>
</g>
</g>
<!-- Node2&#45;&gt;Node1 -->
<g id="edge1" class="edge">
<title>Node2&#45;&gt;Node1</title>
<path fill="none" stroke="#9a32cd" stroke-dasharray="5,2" d="M1062.8443,-779.6849C1089.6483,-777.4861 1123.8149,-770.7402 1148,-752 1192.5924,-717.4469 1211.492,-647.2373 1217.0933,-621.6261"/>
<polygon fill="#9a32cd" stroke="#9a32cd" points="1062.3571,-776.2087 1052.5999,-780.3375 1062.8022,-783.1946 1062.3571,-776.2087"/>
<text text-anchor="middle" x="1122.5" y="-777" font-family="Helvetica,sans-Serif" font-size="10.00" fill="#000000"> nullreps</text>
</g>
<!-- Node3 -->
<g id="node3" class="node">
<title>Node3</title>
<g id="a_node3"><a xlink:href="a00920.html" target="_top" xlink:title=" ">
<polygon fill="#ffffff" stroke="#000000" points="963,-732.5 963,-751.5 1079,-751.5 1079,-732.5 963,-732.5"/>
<text text-anchor="middle" x="1021" y="-739.5" font-family="Helvetica,sans-Serif" font-size="10.00" fill="#000000">BCP_HOSTFILEINFO</text>
</a>
</g>
</g>
<!-- Node3&#45;&gt;Node1 -->
<g id="edge2" class="edge">
<title>Node3&#45;&gt;Node1</title>
<path fill="none" stroke="#9a32cd" stroke-dasharray="5,2" d="M1089.3987,-739.0743C1109.5445,-735.6713 1130.7812,-729.3724 1148,-718 1184.7797,-693.7083 1207.2812,-643.1307 1215.478,-621.8121"/>
<polygon fill="#9a32cd" stroke="#9a32cd" points="1088.6887,-735.641 1079.3058,-740.5616 1089.7093,-742.5662 1088.6887,-735.641"/>
<text text-anchor="middle" x="1122.5" y="-740" font-family="Helvetica,sans-Serif" font-size="10.00" fill="#000000"> hostfileinfo</text>
</g>
<!-- Node4 -->
<g id="node4" class="node">
<title>Node4</title>
<g id="a_node4"><a xlink:href="a00916.html" target="_top" xlink:title=" ">
<polygon fill="#ffffff" stroke="#000000" points="731.5,-733.5 731.5,-752.5 846.5,-752.5 846.5,-733.5 731.5,-733.5"/>
<text text-anchor="middle" x="789" y="-740.5" font-family="Helvetica,sans-Serif" font-size="10.00" fill="#000000">BCP_HOSTCOLINFO</text>
</a>
</g>
</g>
<!-- Node4&#45;&gt;Node3 -->
<g id="edge3" class="edge">
<title>Node4&#45;&gt;Node3</title>
<path fill="none" stroke="#9a32cd" stroke-dasharray="5,2" d="M856.8535,-742.7075C890.4734,-742.5626 930.6532,-742.3894 962.8449,-742.2507"/>
<polygon fill="#9a32cd" stroke="#9a32cd" points="856.6312,-739.2084 846.6464,-742.7515 856.6614,-746.2083 856.6312,-739.2084"/>
<text text-anchor="middle" x="913" y="-745" font-family="Helvetica,sans-Serif" font-size="10.00" fill="#000000"> host_columns</text>
</g>
<!-- Node5 -->
<g id="node5" class="node">
<title>Node5</title>
<g id="a_node5"><a xlink:href="a01224.html" target="_top" xlink:title="Information for a server connection.">
<polygon fill="#ffffff" stroke="#000000" points="380,-499.5 380,-518.5 445,-518.5 445,-499.5 380,-499.5"/>
<text text-anchor="middle" x="412.5" y="-506.5" font-family="Helvetica,sans-Serif" font-size="10.00" fill="#000000">tds_socket</text>
</a>
</g>
</g>
<!-- Node5&#45;&gt;Node1 -->
<g id="edge4" class="edge">
<title>Node5&#45;&gt;Node1</title>
<path fill="none" stroke="#9a32cd" stroke-dasharray="5,2" d="M416.5912,-528.4969C422.8113,-554.1212 436.7929,-599.3452 463,-629 507.299,-679.1269 526.6037,-704 593.5,-704 593.5,-704 593.5,-704 1021,-704 1098.3252,-704 1178.1453,-645.5791 1207.3818,-621.8456"/>
<polygon fill="#9a32cd" stroke="#9a32cd" points="419.9538,-527.4989 414.3253,-518.5227 413.1277,-529.0496 419.9538,-527.4989"/>
<text text-anchor="middle" x="789" y="-707" font-family="Helvetica,sans-Serif" font-size="10.00" fill="#000000"> tds_socket</text>
</g>
<!-- Node12 -->
<g id="node11" class="node">
<title>Node12</title>
<g id="a_node11"><a xlink:href="a01172.html" target="_top" xlink:title="Hold information for any results.">
<polygon fill="#ffffff" stroke="#ff0000" points="553.5,-576.5 553.5,-595.5 633.5,-595.5 633.5,-576.5 553.5,-576.5"/>
<text text-anchor="middle" x="593.5" y="-583.5" font-family="Helvetica,sans-Serif" font-size="10.00" fill="#000000">tds_result_info</text>
</a>
</g>
</g>
<!-- Node5&#45;&gt;Node12 -->
<g id="edge13" class="edge">
<title>Node5&#45;&gt;Node12</title>
<path fill="none" stroke="#9a32cd" stroke-dasharray="5,2" d="M453.4507,-521.7432C475.8228,-529.1495 503.8182,-539.148 528,-550 545.5209,-557.8628 564.6753,-568.6665 577.7184,-576.3826"/>
<polygon fill="#9a32cd" stroke="#9a32cd" points="454.5112,-518.4076 443.9187,-518.6311 452.3386,-525.062 454.5112,-518.4076"/>
<text text-anchor="middle" x="495.5" y="-553" font-family="Helvetica,sans-Serif" font-size="10.00" fill="#000000"> attached_to</text>
</g>
<!-- Node6 -->
<g id="node6" class="node">
<title>Node6</title>
<g id="a_node6"><a xlink:href="a01132.html" target="_top" xlink:title=" ">
<polygon fill="#ffffff" stroke="#000000" points="213.5,-499.5 213.5,-518.5 269.5,-518.5 269.5,-499.5 213.5,-499.5"/>
<text text-anchor="middle" x="241.5" y="-506.5" font-family="Helvetica,sans-Serif" font-size="10.00" fill="#000000">tds_login</text>
</a>
</g>
</g>
<!-- Node6&#45;&gt;Node5 -->
<g id="edge5" class="edge">
<title>Node6&#45;&gt;Node5</title>
<path fill="none" stroke="#9a32cd" stroke-dasharray="5,2" d="M279.8632,-509C309.9377,-509 351.3305,-509 379.836,-509"/>
<polygon fill="#9a32cd" stroke="#9a32cd" points="279.7372,-505.5001 269.7372,-509 279.7371,-512.5001 279.7372,-505.5001"/>
<text text-anchor="middle" x="327" y="-512" font-family="Helvetica,sans-Serif" font-size="10.00" fill="#000000"> login</text>
</g>
<!-- Node7 -->
<g id="node7" class="node">
<title>Node7</title>
<g id="a_node7"><a xlink:href="a01128.html" target="_top" xlink:title=" ">
<polygon fill="#ffffff" stroke="#ff0000" points="0,-426.5 0,-445.5 84,-445.5 84,-426.5 0,-426.5"/>
<text text-anchor="middle" x="42" y="-433.5" font-family="Helvetica,sans-Serif" font-size="10.00" fill="#000000">tds_capabilities</text>
</a>
</g>
</g>
<!-- Node7&#45;&gt;Node6 -->
<g id="edge6" class="edge">
<title>Node7&#45;&gt;Node6</title>
<path fill="none" stroke="#9a32cd" stroke-dasharray="5,2" d="M77.6085,-449.0297C117.1879,-463.5124 180.1621,-486.5556 215.4125,-499.4542"/>
<polygon fill="#9a32cd" stroke="#9a32cd" points="78.6749,-445.693 68.0811,-445.5435 76.2695,-452.2667 78.6749,-445.693"/>
<text text-anchor="middle" x="146.5" y="-492" font-family="Helvetica,sans-Serif" font-size="10.00" fill="#000000"> capabilities</text>
</g>
<!-- Node22 -->
<g id="node14" class="node">
<title>Node22</title>
<g id="a_node14"><a xlink:href="a01220.html" target="_top" xlink:title=" ">
<polygon fill="#ffffff" stroke="#000000" points="979.5,-343.5 979.5,-362.5 1062.5,-362.5 1062.5,-343.5 979.5,-343.5"/>
<text text-anchor="middle" x="1021" y="-350.5" font-family="Helvetica,sans-Serif" font-size="10.00" fill="#000000">tds_connection</text>
</a>
</g>
</g>
<!-- Node7&#45;&gt;Node22 -->
<g id="edge20" class="edge">
<title>Node7&#45;&gt;Node22</title>
<path fill="none" stroke="#9a32cd" stroke-dasharray="5,2" d="M47.0449,-416.3364C63.6461,-356.7113 122.4479,-182 241.5,-182 241.5,-182 241.5,-182 789,-182 860.4672,-182 891.3363,-173.8008 945,-221 961.4849,-235.4991 952.8005,-247.5592 963,-267 978.3946,-296.3429 1001.6224,-327.9331 1013.4702,-343.3815"/>
<polygon fill="#9a32cd" stroke="#9a32cd" points="43.5684,-415.7876 44.3561,-426.3531 50.329,-417.6024 43.5684,-415.7876"/>
<text text-anchor="middle" x="495.5" y="-185" font-family="Helvetica,sans-Serif" font-size="10.00" fill="#000000"> capabilities</text>
</g>
<!-- Node9 -->
<g id="node8" class="node">
<title>Node9</title>
<g id="a_node8"><a xlink:href="a01268.html" target="_top" xlink:title="Structure to hold a string.">
<polygon fill="#ffffff" stroke="#000000" points="16,-608.5 16,-627.5 68,-627.5 68,-608.5 16,-608.5"/>
<text text-anchor="middle" x="42" y="-615.5" font-family="Helvetica,sans-Serif" font-size="10.00" fill="#000000">tds_dstr</text>
</a>
</g>
</g>
<!-- Node9&#45;&gt;Node6 -->
<g id="edge7" class="edge">
<title>Node9&#45;&gt;Node6</title>
<path fill="none" stroke="#9a32cd" stroke-dasharray="5,2" d="M68.6663,-603.4304C110.0822,-580.8022 188.7455,-537.8232 223.8354,-518.6513"/>
<polygon fill="#9a32cd" stroke="#9a32cd" points="66.8017,-600.4608 59.7043,-608.327 70.1581,-606.6037 66.8017,-600.4608"/>
<text text-anchor="middle" x="146.5" y="-706" font-family="Helvetica,sans-Serif" font-size="10.00" fill="#000000"> server_realm_name</text>
<text text-anchor="middle" x="146.5" y="-695" font-family="Helvetica,sans-Serif" font-size="10.00" fill="#000000">password</text>
<text text-anchor="middle" x="146.5" y="-684" font-family="Helvetica,sans-Serif" font-size="10.00" fill="#000000">server_name</text>
<text text-anchor="middle" x="146.5" y="-673" font-family="Helvetica,sans-Serif" font-size="10.00" fill="#000000">dump_file</text>
<text text-anchor="middle" x="146.5" y="-662" font-family="Helvetica,sans-Serif" font-size="10.00" fill="#000000">library</text>
<text text-anchor="middle" x="146.5" y="-651" font-family="Helvetica,sans-Serif" font-size="10.00" fill="#000000">crlfile</text>
<text text-anchor="middle" x="146.5" y="-640" font-family="Helvetica,sans-Serif" font-size="10.00" fill="#000000">server_spn</text>
<text text-anchor="start" x="102" y="-629" font-family="Helvetica,sans-Serif" font-size="10.00" fill="#000000">client_host</text>
<text text-anchor="middle" x="146.5" y="-618" font-family="Helvetica,sans-Serif" font-size="10.00" fill="#000000">_name</text>
<text text-anchor="middle" x="146.5" y="-607" font-family="Helvetica,sans-Serif" font-size="10.00" fill="#000000">client_charset</text>
<text text-anchor="middle" x="146.5" y="-596" font-family="Helvetica,sans-Serif" font-size="10.00" fill="#000000">openssl_ciphers</text>
<text text-anchor="middle" x="146.5" y="-585" font-family="Helvetica,sans-Serif" font-size="10.00" fill="#000000">...</text>
</g>
<!-- Node28 -->
<g id="node20" class="node">
<title>Node28</title>
<g id="a_node20"><a xlink:href="a01232.html" target="_top" xlink:title=" ">
<polygon fill="#ffffff" stroke="#000000" points="755.5,-648.5 755.5,-667.5 822.5,-667.5 822.5,-648.5 755.5,-648.5"/>
<text text-anchor="middle" x="789" y="-655.5" font-family="Helvetica,sans-Serif" font-size="10.00" fill="#000000">tds_bcpinfo</text>
</a>
</g>
</g>
<!-- Node9&#45;&gt;Node28 -->
<g id="edge31" class="edge">
<title>Node9&#45;&gt;Node28</title>
<path fill="none" stroke="#9a32cd" stroke-dasharray="5,2" d="M48.0137,-637.312C56.273,-660.4244 73.4449,-698.4487 102,-718 153.9092,-753.5417 178.5891,-742 241.5,-742 241.5,-742 241.5,-742 593.5,-742 653.7255,-742 659.2093,-704.6829 715,-682 728.2621,-676.608 743.2287,-671.5665 756.2145,-667.5097"/>
<polygon fill="#9a32cd" stroke="#9a32cd" points="51.2495,-635.953 44.7503,-627.5857 44.6131,-638.1796 51.2495,-635.953"/>
<text text-anchor="middle" x="412.5" y="-745" font-family="Helvetica,sans-Serif" font-size="10.00" fill="#000000"> tablename</text>
</g>
<!-- Node10 -->
<g id="node9" class="node">
<title>Node10</title>
<g id="a_node9"><a xlink:href="a01212.html" target="_top" xlink:title=" ">
<polygon fill="#ffffff" stroke="#000000" points="209,-378.5 209,-397.5 274,-397.5 274,-378.5 209,-378.5"/>
<text text-anchor="middle" x="241.5" y="-385.5" font-family="Helvetica,sans-Serif" font-size="10.00" fill="#000000">tds_packet</text>
</a>
</g>
</g>
<!-- Node10&#45;&gt;Node5 -->
<g id="edge8" class="edge">
<title>Node10&#45;&gt;Node5</title>
<path fill="none" stroke="#9a32cd" stroke-dasharray="5,2" d="M264.195,-403.585C288.5015,-420.3314 328.15,-447.8062 362,-472 374.9099,-481.2271 389.5199,-491.964 399.6918,-499.4875"/>
<polygon fill="#9a32cd" stroke="#9a32cd" points="265.8966,-400.5073 255.6746,-397.7213 261.9281,-406.2737 265.8966,-400.5073"/>
<text text-anchor="middle" x="327" y="-497" font-family="Helvetica,sans-Serif" font-size="10.00" fill="#000000"> frozen_packets</text>
<text text-anchor="middle" x="327" y="-486" font-family="Helvetica,sans-Serif" font-size="10.00" fill="#000000">recv_packet</text>
<text text-anchor="middle" x="327" y="-475" font-family="Helvetica,sans-Serif" font-size="10.00" fill="#000000">send_packet</text>
</g>
<!-- Node10&#45;&gt;Node10 -->
<g id="edge9" class="edge">
<title>Node10&#45;&gt;Node10</title>
<path fill="none" stroke="#9a32cd" stroke-dasharray="5,2" d="M226.0309,-407.7663C227.2459,-412.4965 232.4022,-416 241.5,-416 256.4297,-416 260.7453,-406.5653 254.4468,-397.7571"/>
<polygon fill="#9a32cd" stroke="#9a32cd" points="229.5034,-408.3092 228.5532,-397.7571 222.7156,-406.5986 229.5034,-408.3092"/>
<text text-anchor="middle" x="241.5" y="-419" font-family="Helvetica,sans-Serif" font-size="10.00" fill="#000000"> next</text>
</g>
<!-- Node10&#45;&gt;Node22 -->
<g id="edge25" class="edge">
<title>Node10&#45;&gt;Node22</title>
<path fill="none" stroke="#9a32cd" stroke-dasharray="5,2" d="M268.3937,-373.8684C301.3973,-357.8687 359.5126,-334 412.5,-334 412.5,-334 412.5,-334 789,-334 855.6808,-334 932.7835,-341.893 979.173,-347.5044"/>
<polygon fill="#9a32cd" stroke="#9a32cd" points="266.781,-370.7614 259.3833,-378.3459 269.8961,-377.0301 266.781,-370.7614"/>
<text text-anchor="middle" x="593.5" y="-337" font-family="Helvetica,sans-Serif" font-size="10.00" fill="#000000"> packet_cache</text>
</g>
<!-- Node11 -->
<g id="node10" class="node">
<title>Node11</title>
<g id="a_node10"><a xlink:href="a01196.html" target="_top" xlink:title="Holds information for a dynamic (also called prepared) query.">
<polygon fill="#ffffff" stroke="#000000" points="753,-476.5 753,-495.5 825,-495.5 825,-476.5 753,-476.5"/>
<text text-anchor="middle" x="789" y="-483.5" font-family="Helvetica,sans-Serif" font-size="10.00" fill="#000000">tds_dynamic</text>
</a>
</g>
</g>
<!-- Node11&#45;&gt;Node5 -->
<g id="edge10" class="edge">
<title>Node11&#45;&gt;Node5</title>
<path fill="none" stroke="#9a32cd" stroke-dasharray="5,2" d="M742.9156,-475.5328C733.583,-473.0325 723.9044,-470.1599 715,-467 680.8899,-454.8952 676.3583,-440.7342 641,-433 599.753,-423.9777 586.8165,-422.1959 546,-433 496.7569,-446.0347 446.6802,-481.925 424.4252,-499.3103"/>
<polygon fill="#9a32cd" stroke="#9a32cd" points="742.2963,-478.9876 752.8535,-478.0959 744.0445,-472.2094 742.2963,-478.9876"/>
<text text-anchor="middle" x="593.5" y="-436" font-family="Helvetica,sans-Serif" font-size="10.00" fill="#000000"> cur_dyn</text>
</g>
<!-- Node11&#45;&gt;Node11 -->
<g id="edge11" class="edge">
<title>Node11&#45;&gt;Node11</title>
<path fill="none" stroke="#9a32cd" stroke-dasharray="5,2" d="M768.6306,-505.4C769.991,-510.3146 776.7808,-514 789,-514 808.5508,-514 814.2022,-504.5653 805.9542,-495.7571"/>
<polygon fill="#9a32cd" stroke="#9a32cd" points="772.0065,-506.3518 772.0458,-495.7571 765.4081,-504.0149 772.0065,-506.3518"/>
<text text-anchor="middle" x="789" y="-517" font-family="Helvetica,sans-Serif" font-size="10.00" fill="#000000"> next</text>
</g>
<!-- Node11&#45;&gt;Node22 -->
<g id="edge26" class="edge">
<title>Node11&#45;&gt;Node22</title>
<path fill="none" stroke="#9a32cd" stroke-dasharray="5,2" d="M835.2802,-483.051C868.0792,-479.1334 911.95,-470.0452 945,-449 980.1441,-426.6214 1006.0236,-382.2366 1016.2241,-362.6605"/>
<polygon fill="#9a32cd" stroke="#9a32cd" points="834.6171,-479.602 825.048,-484.1498 835.3646,-486.5619 834.6171,-479.602"/>
<text text-anchor="middle" x="913" y="-476" font-family="Helvetica,sans-Serif" font-size="10.00" fill="#000000"> dyns</text>
</g>
<!-- Node12&#45;&gt;Node5 -->
<g id="edge14" class="edge">
<title>Node12&#45;&gt;Node5</title>
<path fill="none" stroke="#9a32cd" stroke-dasharray="5,2" d="M543.3037,-583.5194C517.9887,-580.5449 487.5362,-574.2344 463,-561 443.9494,-550.7244 427.7015,-530.783 419.09,-518.8028"/>
<polygon fill="#9a32cd" stroke="#9a32cd" points="543.1388,-587.0209 553.4458,-584.5682 543.8589,-580.0581 543.1388,-587.0209"/>
<text text-anchor="middle" x="495.5" y="-617" font-family="Helvetica,sans-Serif" font-size="10.00" fill="#000000"> param_info</text>
<text text-anchor="middle" x="495.5" y="-606" font-family="Helvetica,sans-Serif" font-size="10.00" fill="#000000">current_results</text>
<text text-anchor="middle" x="495.5" y="-595" font-family="Helvetica,sans-Serif" font-size="10.00" fill="#000000">res_info</text>
<text text-anchor="middle" x="495.5" y="-584" font-family="Helvetica,sans-Serif" font-size="10.00" fill="#000000">comp_info</text>
</g>
<!-- Node12&#45;&gt;Node11 -->
<g id="edge12" class="edge">
<title>Node12&#45;&gt;Node11</title>
<path fill="none" stroke="#9a32cd" stroke-dasharray="5,2" d="M615.0247,-570.5522C627.5401,-561.9086 643.798,-551.2471 659,-543 694.308,-523.8453 737.3568,-505.9745 763.9748,-495.5181"/>
<polygon fill="#9a32cd" stroke="#9a32cd" points="612.823,-567.8212 606.6416,-576.426 616.8398,-573.554 612.823,-567.8212"/>
<text text-anchor="middle" x="678" y="-557" font-family="Helvetica,sans-Serif" font-size="10.00" fill="#000000"> res_info</text>
<text text-anchor="middle" x="678" y="-546" font-family="Helvetica,sans-Serif" font-size="10.00" fill="#000000">params</text>
</g>
<!-- Node20 -->
<g id="node12" class="node">
<title>Node20</title>
<g id="a_node12"><a xlink:href="a01188.html" target="_top" xlink:title="Holds informations about a cursor.">
<polygon fill="#ffffff" stroke="#000000" points="758,-543.5 758,-562.5 820,-562.5 820,-543.5 758,-543.5"/>
<text text-anchor="middle" x="789" y="-550.5" font-family="Helvetica,sans-Serif" font-size="10.00" fill="#000000">tds_cursor</text>
</a>
</g>
</g>
<!-- Node12&#45;&gt;Node20 -->
<g id="edge17" class="edge">
<title>Node12&#45;&gt;Node20</title>
<path fill="none" stroke="#9a32cd" stroke-dasharray="5,2" d="M643.824,-577.5054C679.777,-571.4366 727.0274,-563.4608 757.7005,-558.2833"/>
<polygon fill="#9a32cd" stroke="#9a32cd" points="642.812,-574.1266 633.5341,-579.2423 643.9772,-581.029 642.812,-574.1266"/>
<text text-anchor="middle" x="678" y="-577" font-family="Helvetica,sans-Serif" font-size="10.00" fill="#000000"> res_info</text>
</g>
<!-- Node12&#45;&gt;Node28 -->
<g id="edge30" class="edge">
<title>Node12&#45;&gt;Node28</title>
<path fill="none" stroke="#9a32cd" stroke-dasharray="5,2" d="M621.0852,-600.2043C632.6769,-605.9822 646.3769,-612.5644 659,-618 683.4141,-628.5128 689.6459,-631.0166 715,-639 728.0311,-643.1032 742.5554,-646.9803 755.2619,-650.1491"/>
<polygon fill="#9a32cd" stroke="#9a32cd" points="622.4191,-596.9572 611.9138,-595.5828 619.2691,-603.2084 622.4191,-596.9572"/>
<text text-anchor="middle" x="678" y="-635" font-family="Helvetica,sans-Serif" font-size="10.00" fill="#000000"> bindinfo</text>
</g>
<!-- Node31 -->
<g id="node23" class="node">
<title>Node31</title>
<g id="a_node23"><a xlink:href="a00608.html" target="_top" xlink:title=" ">
<polygon fill="#ffffff" stroke="#000000" points="745,-610.5 745,-629.5 833,-629.5 833,-610.5 745,-610.5"/>
<text text-anchor="middle" x="789" y="-617.5" font-family="Helvetica,sans-Serif" font-size="10.00" fill="#000000">dblib_buffer_row</text>
</a>
</g>
</g>
<!-- Node12&#45;&gt;Node31 -->
<g id="edge36" class="edge">
<title>Node12&#45;&gt;Node31</title>
<path fill="none" stroke="#9a32cd" stroke-dasharray="5,2" d="M643.7861,-594.7454C675.0622,-600.1847 714.8989,-607.1129 744.9337,-612.3363"/>
<polygon fill="#9a32cd" stroke="#9a32cd" points="643.9859,-591.2277 633.5341,-592.9625 642.7865,-598.1242 643.9859,-591.2277"/>
<text text-anchor="middle" x="678" y="-606" font-family="Helvetica,sans-Serif" font-size="10.00" fill="#000000"> resinfo</text>
</g>
<!-- Node20&#45;&gt;Node5 -->
<g id="edge15" class="edge">
<title>Node20&#45;&gt;Node5</title>
<path fill="none" stroke="#9a32cd" stroke-dasharray="5,2" d="M747.9511,-544.7674C737.027,-541.9578 725.3827,-538.389 715,-534 706.3643,-530.3495 705.96,-525.7605 697,-523 609.3326,-495.9908 499.3352,-500.773 445.3994,-505.4554"/>
<polygon fill="#9a32cd" stroke="#9a32cd" points="747.181,-548.182 757.7241,-547.1358 748.8298,-541.3789 747.181,-548.182"/>
<text text-anchor="middle" x="593.5" y="-512" font-family="Helvetica,sans-Serif" font-size="10.00" fill="#000000"> cur_cursor</text>
</g>
<!-- Node20&#45;&gt;Node20 -->
<g id="edge18" class="edge">
<title>Node20&#45;&gt;Node20</title>
<path fill="none" stroke="#9a32cd" stroke-dasharray="5,2" d="M768.6306,-572.4C769.991,-577.3146 776.7808,-581 789,-581 808.5508,-581 814.2022,-571.5653 805.9542,-562.7571"/>
<polygon fill="#9a32cd" stroke="#9a32cd" points="772.0065,-573.3518 772.0458,-562.7571 765.4081,-571.0149 772.0065,-573.3518"/>
<text text-anchor="middle" x="789" y="-584" font-family="Helvetica,sans-Serif" font-size="10.00" fill="#000000"> next</text>
</g>
<!-- Node20&#45;&gt;Node22 -->
<g id="edge28" class="edge">
<title>Node20&#45;&gt;Node22</title>
<path fill="none" stroke="#9a32cd" stroke-dasharray="5,2" d="M830.0087,-545.0569C864.6586,-536.415 913.5365,-519.416 945,-488 983.8271,-449.2315 1009.0343,-386.524 1017.6727,-362.6486"/>
<polygon fill="#9a32cd" stroke="#9a32cd" points="829.1202,-541.6704 820.1939,-547.3777 830.731,-548.4826 829.1202,-541.6704"/>
<text text-anchor="middle" x="913" y="-530" font-family="Helvetica,sans-Serif" font-size="10.00" fill="#000000"> cursors</text>
</g>
<!-- Node21 -->
<g id="node13" class="node">
<title>Node21</title>
<g id="a_node13"><a xlink:href="a01184.html" target="_top" xlink:title=" ">
<polygon fill="#ffffff" stroke="#000000" points="546,-453.5 546,-472.5 641,-472.5 641,-453.5 546,-453.5"/>
<text text-anchor="middle" x="593.5" y="-460.5" font-family="Helvetica,sans-Serif" font-size="10.00" fill="#000000">tds_cursor_status</text>
</a>
</g>
</g>
<!-- Node21&#45;&gt;Node20 -->
<g id="edge16" class="edge">
<title>Node21&#45;&gt;Node20</title>
<path fill="none" stroke="#9a32cd" stroke-dasharray="5,2" d="M651.2808,-464.3202C667.6149,-467.2709 684.3634,-473.0788 697,-484 714.8695,-499.4437 697.5313,-518.1044 715,-534 726.5762,-544.5337 743.2029,-549.3935 757.7646,-551.5719"/>
<polygon fill="#9a32cd" stroke="#9a32cd" points="651.6087,-460.8307 641.2046,-462.832 650.5858,-467.7556 651.6087,-460.8307"/>
<text text-anchor="middle" x="678" y="-487" font-family="Helvetica,sans-Serif" font-size="10.00" fill="#000000"> status</text>
</g>
<!-- Node22&#45;&gt;Node5 -->
<g id="edge19" class="edge">
<title>Node22&#45;&gt;Node5</title>
<path fill="none" stroke="#9a32cd" stroke-dasharray="5,2" d="M969.166,-355.2026C847.2586,-361.2285 546.3756,-381.275 463,-435 438.4201,-450.8386 422.7069,-483.323 416.0936,-499.4627"/>
<polygon fill="#9a32cd" stroke="#9a32cd" points="969.5396,-358.6888 979.3593,-354.711 969.2023,-351.6969 969.5396,-358.6888"/>
<text text-anchor="middle" x="678" y="-385" font-family="Helvetica,sans-Serif" font-size="10.00" fill="#000000"> conn</text>
</g>
<!-- Node23 -->
<g id="node15" class="node">
<title>Node23</title>
<g id="a_node15"><a xlink:href="a01216.html" target="_top" xlink:title=" ">
<polygon fill="#ffffff" stroke="#000000" points="744.5,-438.5 744.5,-457.5 833.5,-457.5 833.5,-438.5 744.5,-438.5"/>
<text text-anchor="middle" x="789" y="-445.5" font-family="Helvetica,sans-Serif" font-size="10.00" fill="#000000">tds_poll_wakeup</text>
</a>
</g>
</g>
<!-- Node23&#45;&gt;Node22 -->
<g id="edge21" class="edge">
<title>Node23&#45;&gt;Node22</title>
<path fill="none" stroke="#9a32cd" stroke-dasharray="5,2" d="M843.9483,-442.3199C874.7859,-437.6118 913.3124,-429.1301 945,-414 972.1765,-401.0238 998.3036,-376.6016 1011.7019,-362.924"/>
<polygon fill="#9a32cd" stroke="#9a32cd" points="843.2071,-438.8903 833.806,-443.7761 844.202,-445.8193 843.2071,-438.8903"/>
<text text-anchor="middle" x="913" y="-437" font-family="Helvetica,sans-Serif" font-size="10.00" fill="#000000"> wakeup</text>
</g>
<!-- Node24 -->
<g id="node16" class="node">
<title>Node24</title>
<g id="a_node16"><a xlink:href="a01192.html" target="_top" xlink:title="Current environment as reported by the server.">
<polygon fill="#ffffff" stroke="#000000" points="763.5,-400.5 763.5,-419.5 814.5,-419.5 814.5,-400.5 763.5,-400.5"/>
<text text-anchor="middle" x="789" y="-407.5" font-family="Helvetica,sans-Serif" font-size="10.00" fill="#000000">tds_env</text>
</a>
</g>
</g>
<!-- Node24&#45;&gt;Node22 -->
<g id="edge22" class="edge">
<title>Node24&#45;&gt;Node22</title>
<path fill="none" stroke="#9a32cd" stroke-dasharray="5,2" d="M824.7628,-407.1316C856.7511,-403.9482 904.6727,-397.6464 945,-386 965.4533,-380.0931 987.6589,-369.9865 1002.7545,-362.5104"/>
<polygon fill="#9a32cd" stroke="#9a32cd" points="824.1862,-403.6704 814.5594,-408.0948 824.8441,-410.6394 824.1862,-403.6704"/>
<text text-anchor="middle" x="913" y="-402" font-family="Helvetica,sans-Serif" font-size="10.00" fill="#000000"> env</text>
</g>
<!-- Node25 -->
<g id="node17" class="node">
<title>Node25</title>
<g id="a_node17"><a xlink:href="a01204.html" target="_top" xlink:title=" ">
<polygon fill="#ffffff" stroke="#ff0000" points="755,-286.5 755,-305.5 823,-305.5 823,-286.5 755,-286.5"/>
<text text-anchor="middle" x="789" y="-293.5" font-family="Helvetica,sans-Serif" font-size="10.00" fill="#000000">tds_context</text>
</a>
</g>
</g>
<!-- Node25&#45;&gt;Node22 -->
<g id="edge23" class="edge">
<title>Node25&#45;&gt;Node22</title>
<path fill="none" stroke="#9a32cd" stroke-dasharray="5,2" d="M833.5952,-294.5732C865.3478,-294.7853 908.6557,-297.5991 945,-309 969.1484,-316.5751 993.9352,-332.827 1008.3787,-343.3178"/>
<polygon fill="#9a32cd" stroke="#9a32cd" points="833.2901,-291.0736 823.2966,-294.5923 833.3032,-298.0736 833.2901,-291.0736"/>
<text text-anchor="middle" x="913" y="-312" font-family="Helvetica,sans-Serif" font-size="10.00" fill="#000000"> tds_ctx</text>
</g>
<!-- Node27 -->
<g id="node18" class="node">
<title>Node27</title>
<g id="a_node18"><a xlink:href="a01208.html" target="_top" xlink:title=" ">
<polygon fill="#ffffff" stroke="#000000" points="741,-248.5 741,-267.5 837,-267.5 837,-248.5 741,-248.5"/>
<text text-anchor="middle" x="789" y="-255.5" font-family="Helvetica,sans-Serif" font-size="10.00" fill="#000000">tds_authentication</text>
</a>
</g>
</g>
<!-- Node27&#45;&gt;Node22 -->
<g id="edge24" class="edge">
<title>Node27&#45;&gt;Node22</title>
<path fill="none" stroke="#9a32cd" stroke-dasharray="5,2" d="M847.2874,-258.8033C877.7034,-261.1991 914.7702,-267.3218 945,-282 975.2118,-296.6694 1001.6419,-327.5028 1013.8371,-343.2679"/>
<polygon fill="#9a32cd" stroke="#9a32cd" points="847.4596,-255.307 837.2469,-258.1267 846.9889,-262.2912 847.4596,-255.307"/>
<text text-anchor="middle" x="913" y="-285" font-family="Helvetica,sans-Serif" font-size="10.00" fill="#000000"> authentication</text>
</g>
<!-- Node14 -->
<g id="node19" class="node">
<title>Node14</title>
<g id="a_node19"><a xlink:href="a00980.html" target="_top" xlink:title=" ">
<polygon fill="#ffffff" stroke="#ff0000" points="754.5,-210.5 754.5,-229.5 823.5,-229.5 823.5,-210.5 754.5,-210.5"/>
<text text-anchor="middle" x="789" y="-217.5" font-family="Helvetica,sans-Serif" font-size="10.00" fill="#000000">tdsiconvinfo</text>
</a>
</g>
</g>
<!-- Node14&#45;&gt;Node22 -->
<g id="edge27" class="edge">
<title>Node14&#45;&gt;Node22</title>
<path fill="none" stroke="#9a32cd" stroke-dasharray="5,2" d="M833.8618,-219.3144C866.8965,-220.7821 911.6767,-227.0646 945,-248 954.8132,-254.1652 998.045,-318.3981 1014.558,-343.2539"/>
<polygon fill="#9a32cd" stroke="#9a32cd" points="833.6823,-215.8072 823.5783,-218.9946 833.4646,-222.8038 833.6823,-215.8072"/>
<text text-anchor="middle" x="913" y="-251" font-family="Helvetica,sans-Serif" font-size="10.00" fill="#000000"> char_convs</text>
</g>
<!-- Node28&#45;&gt;Node1 -->
<g id="edge29" class="edge">
<title>Node28&#45;&gt;Node1</title>
<path fill="none" stroke="#9a32cd" stroke-dasharray="5,2" d="M833.1371,-655.9267C901.0703,-652.3444 1035.22,-643.7189 1148,-627 1157.8452,-625.5405 1168.3754,-623.5534 1178.2303,-621.5032"/>
<polygon fill="#9a32cd" stroke="#9a32cd" points="832.6227,-652.4484 822.8162,-656.4587 832.9832,-659.4392 832.6227,-652.4484"/>
<text text-anchor="middle" x="1021" y="-650" font-family="Helvetica,sans-Serif" font-size="10.00" fill="#000000"> bcpinfo</text>
</g>
<!-- Node29 -->
<g id="node21" class="node">
<title>Node29</title>
<g id="a_node21"><a xlink:href="a01324.html" target="_top" xlink:title=" ">
<polygon fill="#ffffff" stroke="#000000" points="763.5,-105.5 763.5,-124.5 814.5,-124.5 814.5,-105.5 763.5,-105.5"/>
<text text-anchor="middle" x="789" y="-112.5" font-family="Helvetica,sans-Serif" font-size="10.00" fill="#000000">dbstring</text>
</a>
</g>
</g>
<!-- Node29&#45;&gt;Node1 -->
<g id="edge32" class="edge">
<title>Node29&#45;&gt;Node1</title>
<path fill="none" stroke="#9a32cd" stroke-dasharray="5,2" d="M824.893,-115.9817C857.1554,-117.8093 905.4116,-122.9113 945,-137 1010.5627,-160.3324 1032.5053,-166.2206 1079,-218 1188.8533,-340.3397 1213.9112,-554.6227 1218.2275,-602.3837"/>
<polygon fill="#9a32cd" stroke="#9a32cd" points="824.7593,-112.4711 814.6005,-115.4792 824.4179,-119.4628 824.7593,-112.4711"/>
<text text-anchor="middle" x="1021" y="-221" font-family="Helvetica,sans-Serif" font-size="10.00" fill="#000000"> dboptcmd</text>
</g>
<!-- Node29&#45;&gt;Node29 -->
<g id="edge33" class="edge">
<title>Node29&#45;&gt;Node29</title>
<path fill="none" stroke="#9a32cd" stroke-dasharray="5,2" d="M768.6306,-134.4C769.991,-139.3146 776.7808,-143 789,-143 808.5508,-143 814.2022,-133.5653 805.9542,-124.7571"/>
<polygon fill="#9a32cd" stroke="#9a32cd" points="772.0065,-135.3518 772.0458,-124.7571 765.4081,-133.0149 772.0065,-135.3518"/>
<text text-anchor="middle" x="789" y="-146" font-family="Helvetica,sans-Serif" font-size="10.00" fill="#000000"> strnext</text>
</g>
<!-- Node32 -->
<g id="node24" class="node">
<title>Node32</title>
<g id="a_node24"><a xlink:href="a00932.html" target="_top" xlink:title=" ">
<polygon fill="#ffffff" stroke="#000000" points="994.5,-238.5 994.5,-257.5 1047.5,-257.5 1047.5,-238.5 994.5,-238.5"/>
<text text-anchor="middle" x="1021" y="-245.5" font-family="Helvetica,sans-Serif" font-size="10.00" fill="#000000">dboption</text>
</a>
</g>
</g>
<!-- Node29&#45;&gt;Node32 -->
<g id="edge38" class="edge">
<title>Node29&#45;&gt;Node32</title>
<path fill="none" stroke="#9a32cd" stroke-dasharray="5,2" d="M824.3476,-121.9263C863.9197,-130.1271 925.111,-144.2802 945,-157 978.641,-178.5147 1004.9401,-219.6807 1015.7055,-238.3585"/>
<polygon fill="#9a32cd" stroke="#9a32cd" points="825.0446,-118.4964 814.5465,-119.9249 823.644,-125.3549 825.0446,-118.4964"/>
<text text-anchor="middle" x="913" y="-160" font-family="Helvetica,sans-Serif" font-size="10.00" fill="#000000"> param</text>
</g>
<!-- Node30 -->
<g id="node22" class="node">
<title>Node30</title>
<g id="a_node22"><a xlink:href="a00912.html" target="_top" xlink:title=" ">
<polygon fill="#ffffff" stroke="#000000" points="966,-602.5 966,-621.5 1076,-621.5 1076,-602.5 966,-602.5"/>
<text text-anchor="middle" x="1021" y="-609.5" font-family="Helvetica,sans-Serif" font-size="10.00" fill="#000000">DBPROC_ROWBUF</text>
</a>
</g>
</g>
<!-- Node30&#45;&gt;Node1 -->
<g id="edge34" class="edge">
<title>Node30&#45;&gt;Node1</title>
<path fill="none" stroke="#9a32cd" stroke-dasharray="5,2" d="M1086.2328,-612C1112.0523,-612 1141.3532,-612 1165.8481,-612"/>
<polygon fill="#9a32cd" stroke="#9a32cd" points="1086.1541,-608.5001 1076.154,-612 1086.154,-615.5001 1086.1541,-608.5001"/>
<text text-anchor="middle" x="1122.5" y="-615" font-family="Helvetica,sans-Serif" font-size="10.00" fill="#000000"> row_buf</text>
</g>
<!-- Node31&#45;&gt;Node30 -->
<g id="edge35" class="edge">
<title>Node31&#45;&gt;Node30</title>
<path fill="none" stroke="#9a32cd" stroke-dasharray="5,2" d="M843.2621,-618.1289C880.1707,-616.8562 928.8468,-615.1777 965.9262,-613.8991"/>
<polygon fill="#9a32cd" stroke="#9a32cd" points="843.0569,-614.6338 833.1835,-618.4764 843.2982,-621.6296 843.0569,-614.6338"/>
<text text-anchor="middle" x="913" y="-619" font-family="Helvetica,sans-Serif" font-size="10.00" fill="#000000"> rows</text>
</g>
<!-- Node32&#45;&gt;Node1 -->
<g id="edge37" class="edge">
<title>Node32&#45;&gt;Node1</title>
<path fill="none" stroke="#9a32cd" stroke-dasharray="5,2" d="M1034.3124,-266.2667C1046.5452,-283.3832 1064.8676,-309.8762 1079,-334 1138.5473,-435.646 1198.2003,-565.7703 1214.5978,-602.1613"/>
<polygon fill="#9a32cd" stroke="#9a32cd" points="1036.8945,-263.8632 1028.2082,-257.7969 1031.2156,-267.9559 1036.8945,-263.8632"/>
<text text-anchor="middle" x="1122.5" y="-464" font-family="Helvetica,sans-Serif" font-size="10.00" fill="#000000"> dbopts</text>
</g>
<!-- Node33 -->
<g id="node25" class="node">
<title>Node33</title>
<g id="a_node25"><a xlink:href="a00928.html" target="_top" xlink:title=" ">
<polygon fill="#ffffff" stroke="#000000" points="967,-38.5 967,-57.5 1075,-57.5 1075,-38.5 967,-38.5"/>
<text text-anchor="middle" x="1021" y="-45.5" font-family="Helvetica,sans-Serif" font-size="10.00" fill="#000000">DBREMOTE_PROC</text>
</a>
</g>
</g>
<!-- Node33&#45;&gt;Node1 -->
<g id="edge39" class="edge">
<title>Node33&#45;&gt;Node1</title>
<path fill="none" stroke="#9a32cd" stroke-dasharray="5,2" d="M1085.0871,-59.1637C1108.2877,-66.4194 1132.5538,-78.3625 1148,-98 1180.5804,-139.4208 1212.921,-534.5715 1218.2389,-602.1821"/>
<polygon fill="#9a32cd" stroke="#9a32cd" points="1085.8159,-55.7315 1075.2381,-56.3323 1083.8818,-62.459 1085.8159,-55.7315"/>
<text text-anchor="middle" x="1122.5" y="-101" font-family="Helvetica,sans-Serif" font-size="10.00" fill="#000000"> rpc</text>
</g>
<!-- Node33&#45;&gt;Node33 -->
<g id="edge42" class="edge">
<title>Node33&#45;&gt;Node33</title>
<path fill="none" stroke="#9a32cd" stroke-dasharray="5,2" d="M1002.4824,-67.4C1003.7191,-72.3146 1009.8916,-76 1021,-76 1038.7734,-76 1043.9111,-66.5653 1036.4129,-57.7571"/>
<polygon fill="#9a32cd" stroke="#9a32cd" points="1005.8539,-68.3485 1005.5871,-57.7571 999.1907,-66.2032 1005.8539,-68.3485"/>
<text text-anchor="middle" x="1021" y="-79" font-family="Helvetica,sans-Serif" font-size="10.00" fill="#000000"> next</text>
</g>
<!-- Node34 -->
<g id="node26" class="node">
<title>Node34</title>
<g id="a_node26"><a xlink:href="a00924.html" target="_top" xlink:title=" ">
<polygon fill="#ffffff" stroke="#000000" points="715,-38.5 715,-57.5 863,-57.5 863,-38.5 715,-38.5"/>
<text text-anchor="middle" x="789" y="-45.5" font-family="Helvetica,sans-Serif" font-size="10.00" fill="#000000">DBREMOTE_PROC_PARAM</text>
</a>
</g>
</g>
<!-- Node34&#45;&gt;Node33 -->
<g id="edge40" class="edge">
<title>Node34&#45;&gt;Node33</title>
<path fill="none" stroke="#9a32cd" stroke-dasharray="5,2" d="M873.0555,-48C904.2925,-48 938.8813,-48 966.7551,-48"/>
<polygon fill="#9a32cd" stroke="#9a32cd" points="873.0442,-44.5001 863.0441,-48 873.0441,-51.5001 873.0442,-44.5001"/>
<text text-anchor="middle" x="913" y="-51" font-family="Helvetica,sans-Serif" font-size="10.00" fill="#000000"> param_list</text>
</g>
<!-- Node34&#45;&gt;Node34 -->
<g id="edge41" class="edge">
<title>Node34&#45;&gt;Node34</title>
<path fill="none" stroke="#9a32cd" stroke-dasharray="5,2" d="M768.6306,-67.4C769.991,-72.3146 776.7808,-76 789,-76 808.5508,-76 814.2022,-66.5653 805.9542,-57.7571"/>
<polygon fill="#9a32cd" stroke="#9a32cd" points="772.0065,-68.3518 772.0458,-57.7571 765.4081,-66.0149 772.0065,-68.3518"/>
<text text-anchor="middle" x="789" y="-79" font-family="Helvetica,sans-Serif" font-size="10.00" fill="#000000"> next</text>
</g>
<!-- Node35 -->
<g id="node27" class="node">
<title>Node35</title>
<g id="a_node27"><a xlink:href="a01320.html" target="_top" xlink:title=" ">
<polygon fill="#ffffff" stroke="#000000" points="990,-.5 990,-19.5 1052,-19.5 1052,-.5 990,-.5"/>
<text text-anchor="middle" x="1021" y="-7.5" font-family="Helvetica,sans-Serif" font-size="10.00" fill="#000000">dbtypeinfo</text>
</a>
</g>
</g>
<!-- Node35&#45;&gt;Node1 -->
<g id="edge43" class="edge">
<title>Node35&#45;&gt;Node1</title>
<path fill="none" stroke="#9a32cd" stroke-dasharray="5,2" d="M1062.3344,-11.1421C1090.7776,-14.2594 1127.0712,-23.2854 1148,-48 1185.4689,-92.2467 1213.9766,-530.5232 1218.4015,-602.1302"/>
<polygon fill="#9a32cd" stroke="#9a32cd" points="1062.525,-7.6453 1052.2535,-10.2428 1061.903,-14.6176 1062.525,-7.6453"/>
<text text-anchor="middle" x="1122.5" y="-51" font-family="Helvetica,sans-Serif" font-size="10.00" fill="#000000"> typeinfo</text>
</g>
</g>
</svg>
