<?xml version="1.0" encoding="UTF-8" standalone="no"?>
<!DOCTYPE svg PUBLIC "-//W3C//DTD SVG 1.1//EN"
 "http://www.w3.org/Graphics/SVG/1.1/DTD/svg11.dtd">
<!-- Generated by graphviz version 2.40.1 (20161225.0304)
 -->
<!-- Title: DBPROC_ROWBUF Pages: 1 -->
<svg width="248pt" height="262pt"
 viewBox="0.00 0.00 248.00 262.00" xmlns="http://www.w3.org/2000/svg" xmlns:xlink="http://www.w3.org/1999/xlink">
<g id="graph0" class="graph" transform="scale(1 1) rotate(0) translate(4 258)">
<title>DBPROC_ROWBUF</title>
<polygon fill="#ffffff" stroke="transparent" points="-4,4 -4,-258 244,-258 244,4 -4,4"/>
<!-- Node1 -->
<g id="node1" class="node">
<title>Node1</title>
<g id="a_node1"><a xlink:title=" ">
<polygon fill="#bfbfbf" stroke="#000000" points="0,-.5 0,-19.5 110,-19.5 110,-.5 0,-.5"/>
<text text-anchor="middle" x="55" y="-7.5" font-family="Helvetica,sans-Serif" font-size="10.00" fill="#000000">DBPROC_ROWBUF</text>
</a>
</g>
</g>
<!-- Node2 -->
<g id="node2" class="node">
<title>Node2</title>
<g id="a_node2"><a xlink:href="a00608.html" target="_top" xlink:title=" ">
<polygon fill="#ffffff" stroke="#000000" points="11,-67.5 11,-86.5 99,-86.5 99,-67.5 11,-67.5"/>
<text text-anchor="middle" x="55" y="-74.5" font-family="Helvetica,sans-Serif" font-size="10.00" fill="#000000">dblib_buffer_row</text>
</a>
</g>
</g>
<!-- Node2&#45;&gt;Node1 -->
<g id="edge1" class="edge">
<title>Node2&#45;&gt;Node1</title>
<path fill="none" stroke="#9a32cd" stroke-dasharray="5,2" d="M55,-57.1079C55,-44.714 55,-29.3263 55,-19.5817"/>
<polygon fill="#9a32cd" stroke="#9a32cd" points="51.5001,-57.4005 55,-67.4005 58.5001,-57.4006 51.5001,-57.4005"/>
<text text-anchor="middle" x="67.5" y="-41" font-family="Helvetica,sans-Serif" font-size="10.00" fill="#000000"> rows</text>
</g>
<!-- Node3 -->
<g id="node3" class="node">
<title>Node3</title>
<g id="a_node3"><a xlink:href="a01172.html" target="_top" xlink:title="Hold information for any results.">
<polygon fill="#ffffff" stroke="#000000" points="71,-167.5 71,-186.5 151,-186.5 151,-167.5 71,-167.5"/>
<text text-anchor="middle" x="111" y="-174.5" font-family="Helvetica,sans-Serif" font-size="10.00" fill="#000000">tds_result_info</text>
</a>
</g>
</g>
<!-- Node3&#45;&gt;Node2 -->
<g id="edge2" class="edge">
<title>Node3&#45;&gt;Node2</title>
<path fill="none" stroke="#9a32cd" stroke-dasharray="5,2" d="M69.5472,-162.4399C64.1792,-158.8532 59.3821,-154.4319 56,-149 43.9743,-129.6857 48.5422,-101.4428 52.1879,-86.7287"/>
<polygon fill="#9a32cd" stroke="#9a32cd" points="67.9047,-165.532 78.331,-167.4143 71.3542,-159.4409 67.9047,-165.532"/>
<text text-anchor="middle" x="72.5" y="-124.5" font-family="Helvetica,sans-Serif" font-size="10.00" fill="#000000"> resinfo</text>
</g>
<!-- Node4 -->
<g id="node4" class="node">
<title>Node4</title>
<g id="a_node4"><a xlink:href="a01224.html" target="_top" xlink:title="Information for a server connection.">
<polygon fill="#ffffff" stroke="#ff0000" points="141.5,-67.5 141.5,-86.5 206.5,-86.5 206.5,-67.5 141.5,-67.5"/>
<text text-anchor="middle" x="174" y="-74.5" font-family="Helvetica,sans-Serif" font-size="10.00" fill="#000000">tds_socket</text>
</a>
</g>
</g>
<!-- Node3&#45;&gt;Node4 -->
<g id="edge4" class="edge">
<title>Node3&#45;&gt;Node4</title>
<path fill="none" stroke="#9a32cd" stroke-dasharray="5,2" d="M104.3811,-157.5731C100.3742,-142.0548 97.7874,-120.4262 108,-105 115.558,-93.5836 128.8065,-86.8085 141.4598,-82.7939"/>
<polygon fill="#9a32cd" stroke="#9a32cd" points="101.0356,-158.6024 107.2421,-167.189 107.7449,-156.6061 101.0356,-158.6024"/>
<text text-anchor="middle" x="140.5" y="-141" font-family="Helvetica,sans-Serif" font-size="10.00" fill="#000000"> param_info</text>
<text text-anchor="middle" x="140.5" y="-130" font-family="Helvetica,sans-Serif" font-size="10.00" fill="#000000">current_results</text>
<text text-anchor="middle" x="140.5" y="-119" font-family="Helvetica,sans-Serif" font-size="10.00" fill="#000000">res_info</text>
<text text-anchor="middle" x="140.5" y="-108" font-family="Helvetica,sans-Serif" font-size="10.00" fill="#000000">comp_info</text>
</g>
<!-- Node4&#45;&gt;Node3 -->
<g id="edge3" class="edge">
<title>Node4&#45;&gt;Node3</title>
<path fill="none" stroke="#9a32cd" stroke-dasharray="5,2" d="M180.6189,-96.4269C184.6258,-111.9452 187.2126,-133.5738 177,-149 170.9536,-158.1331 161.2653,-164.2958 151.1533,-168.4511"/>
<polygon fill="#9a32cd" stroke="#9a32cd" points="183.9644,-95.3976 177.7579,-86.811 177.2551,-97.3939 183.9644,-95.3976"/>
<text text-anchor="middle" x="212.5" y="-124.5" font-family="Helvetica,sans-Serif" font-size="10.00" fill="#000000"> attached_to</text>
</g>
<!-- Node23 -->
<g id="node5" class="node">
<title>Node23</title>
<g id="a_node5"><a xlink:href="a01164.html" target="_top" xlink:title="Metadata about columns in regular and compute rows.">
<polygon fill="#ffffff" stroke="#ff0000" points="77.5,-234.5 77.5,-253.5 144.5,-253.5 144.5,-234.5 77.5,-234.5"/>
<text text-anchor="middle" x="111" y="-241.5" font-family="Helvetica,sans-Serif" font-size="10.00" fill="#000000">tds_column</text>
</a>
</g>
</g>
<!-- Node23&#45;&gt;Node3 -->
<g id="edge5" class="edge">
<title>Node23&#45;&gt;Node3</title>
<path fill="none" stroke="#9a32cd" stroke-dasharray="5,2" d="M111,-224.1079C111,-211.714 111,-196.3263 111,-186.5817"/>
<polygon fill="#9a32cd" stroke="#9a32cd" points="107.5001,-224.4005 111,-234.4005 114.5001,-224.4006 107.5001,-224.4005"/>
<text text-anchor="middle" x="131" y="-208" font-family="Helvetica,sans-Serif" font-size="10.00" fill="#000000"> columns</text>
</g>
</g>
</svg>
