<?xml version="1.0" encoding="UTF-8" standalone="no"?>
<!DOCTYPE svg PUBLIC "-//W3C//DTD SVG 1.1//EN"
 "http://www.w3.org/Graphics/SVG/1.1/DTD/svg11.dtd">
<!-- Generated by graphviz version 2.40.1 (20161225.0304)
 -->
<!-- Title: conv_result Pages: 1 -->
<svg width="405pt" height="332pt"
 viewBox="0.00 0.00 405.00 332.00" xmlns="http://www.w3.org/2000/svg" xmlns:xlink="http://www.w3.org/1999/xlink">
<g id="graph0" class="graph" transform="scale(1 1) rotate(0) translate(4 328)">
<title>conv_result</title>
<polygon fill="#ffffff" stroke="transparent" points="-4,4 -4,-328 401,-328 401,4 -4,4"/>
<!-- Node1 -->
<g id="node1" class="node">
<title>Node1</title>
<g id="a_node1"><a xlink:title=" ">
<polygon fill="#bfbfbf" stroke="#000000" points="330,-152.5 330,-171.5 397,-171.5 397,-152.5 330,-152.5"/>
<text text-anchor="middle" x="363.5" y="-159.5" font-family="Helvetica,sans-Serif" font-size="10.00" fill="#000000">conv_result</text>
</a>
</g>
</g>
<!-- Node2 -->
<g id="node2" class="node">
<title>Node2</title>
<g id="a_node2"><a xlink:href="a01108.html" target="_top" xlink:title="this structure is not directed connected to a TDS protocol but keeps any DATE/TIME information.">
<polygon fill="#ffffff" stroke="#000000" points="167,-304.5 167,-323.5 277,-323.5 277,-304.5 167,-304.5"/>
<text text-anchor="middle" x="222" y="-311.5" font-family="Helvetica,sans-Serif" font-size="10.00" fill="#000000">TDS_DATETIMEALL</text>
</a>
</g>
</g>
<!-- Node2&#45;&gt;Node1 -->
<g id="edge1" class="edge">
<title>Node2&#45;&gt;Node1</title>
<path fill="none" stroke="#9a32cd" stroke-dasharray="5,2" d="M267.5649,-300.3062C270.8526,-298.7047 274.0363,-296.9398 277,-295 324.4759,-263.9261 351.5559,-196.7414 360.323,-171.6827"/>
<polygon fill="#9a32cd" stroke="#9a32cd" points="265.9057,-297.2105 258.1202,-304.3963 268.6876,-303.6341 265.9057,-297.2105"/>
<text text-anchor="middle" x="303.5" y="-281" font-family="Helvetica,sans-Serif" font-size="10.00" fill="#000000"> dta</text>
</g>
<!-- Node3 -->
<g id="node3" class="node">
<title>Node3</title>
<g id="a_node3"><a xlink:href="a00960.html" target="_top" xlink:title=" ">
<polygon fill="#ffffff" stroke="#000000" points="176,-266.5 176,-285.5 268,-285.5 268,-266.5 176,-266.5"/>
<text text-anchor="middle" x="222" y="-273.5" font-family="Helvetica,sans-Serif" font-size="10.00" fill="#000000">conv_result::cc_t</text>
</a>
</g>
</g>
<!-- Node3&#45;&gt;Node1 -->
<g id="edge2" class="edge">
<title>Node3&#45;&gt;Node1</title>
<path fill="none" stroke="#9a32cd" stroke-dasharray="5,2" d="M266.3761,-262.6179C270.0672,-260.9257 273.6596,-259.0562 277,-257 314.0413,-234.1998 344.8411,-191.0138 357.416,-171.7275"/>
<polygon fill="#9a32cd" stroke="#9a32cd" points="264.9859,-259.4053 257.0852,-266.4643 267.6635,-265.8729 264.9859,-259.4053"/>
<text text-anchor="middle" x="303.5" y="-245" font-family="Helvetica,sans-Serif" font-size="10.00" fill="#000000"> cc</text>
</g>
<!-- Node4 -->
<g id="node4" class="node">
<title>Node4</title>
<g id="a_node4"><a xlink:href="a00964.html" target="_top" xlink:title=" ">
<polygon fill="#ffffff" stroke="#000000" points="176,-228.5 176,-247.5 268,-247.5 268,-228.5 176,-228.5"/>
<text text-anchor="middle" x="222" y="-235.5" font-family="Helvetica,sans-Serif" font-size="10.00" fill="#000000">conv_result::cb_t</text>
</a>
</g>
</g>
<!-- Node4&#45;&gt;Node1 -->
<g id="edge3" class="edge">
<title>Node4&#45;&gt;Node1</title>
<path fill="none" stroke="#9a32cd" stroke-dasharray="5,2" d="M263.4555,-224.9387C268.0943,-223.1076 272.6952,-221.1201 277,-219 305.0733,-205.1738 334.9453,-183.81 351.2017,-171.5424"/>
<polygon fill="#9a32cd" stroke="#9a32cd" points="262.1152,-221.7029 253.963,-228.47 264.5559,-228.2637 262.1152,-221.7029"/>
<text text-anchor="middle" x="303.5" y="-211" font-family="Helvetica,sans-Serif" font-size="10.00" fill="#000000"> cb</text>
</g>
<!-- Node5 -->
<g id="node5" class="node">
<title>Node5</title>
<g id="a_node5"><a xlink:href="a01064.html" target="_top" xlink:title=" ">
<polygon fill="#ffffff" stroke="#000000" points="192.5,-190.5 192.5,-209.5 251.5,-209.5 251.5,-190.5 192.5,-190.5"/>
<text text-anchor="middle" x="222" y="-197.5" font-family="Helvetica,sans-Serif" font-size="10.00" fill="#000000">tdsunique</text>
</a>
</g>
</g>
<!-- Node5&#45;&gt;Node1 -->
<g id="edge4" class="edge">
<title>Node5&#45;&gt;Node1</title>
<path fill="none" stroke="#9a32cd" stroke-dasharray="5,2" d="M261.5833,-190.1863C277.3075,-186.2091 295.538,-181.4995 312,-177 318.2881,-175.2813 324.9879,-173.381 331.4042,-171.5269"/>
<polygon fill="#9a32cd" stroke="#9a32cd" points="260.4994,-186.8499 251.656,-192.6846 262.2078,-193.6382 260.4994,-186.8499"/>
<text text-anchor="middle" x="303.5" y="-183" font-family="Helvetica,sans-Serif" font-size="10.00" fill="#000000"> u</text>
</g>
<!-- Node6 -->
<g id="node6" class="node">
<title>Node6</title>
<g id="a_node6"><a xlink:href="a01056.html" target="_top" xlink:title=" ">
<polygon fill="#ffffff" stroke="#000000" points="188,-152.5 188,-171.5 256,-171.5 256,-152.5 188,-152.5"/>
<text text-anchor="middle" x="222" y="-159.5" font-family="Helvetica,sans-Serif" font-size="10.00" fill="#000000">tdsdatetime</text>
</a>
</g>
</g>
<!-- Node6&#45;&gt;Node1 -->
<g id="edge5" class="edge">
<title>Node6&#45;&gt;Node1</title>
<path fill="none" stroke="#9a32cd" stroke-dasharray="5,2" d="M266.2748,-162C286.7081,-162 310.5843,-162 329.5622,-162"/>
<polygon fill="#9a32cd" stroke="#9a32cd" points="266.2532,-158.5001 256.2532,-162 266.2532,-165.5001 266.2532,-158.5001"/>
<text text-anchor="middle" x="303.5" y="-165" font-family="Helvetica,sans-Serif" font-size="10.00" fill="#000000"> dt</text>
</g>
<!-- Node7 -->
<g id="node7" class="node">
<title>Node7</title>
<g id="a_node7"><a xlink:href="a01048.html" target="_top" xlink:title=" ">
<polygon fill="#ffffff" stroke="#000000" points="192.5,-114.5 192.5,-133.5 251.5,-133.5 251.5,-114.5 192.5,-114.5"/>
<text text-anchor="middle" x="222" y="-121.5" font-family="Helvetica,sans-Serif" font-size="10.00" fill="#000000">tdsmoney</text>
</a>
</g>
</g>
<!-- Node7&#45;&gt;Node1 -->
<g id="edge6" class="edge">
<title>Node7&#45;&gt;Node1</title>
<path fill="none" stroke="#9a32cd" stroke-dasharray="5,2" d="M261.5833,-133.8137C277.3075,-137.7909 295.538,-142.5005 312,-147 318.2881,-148.7187 324.9879,-150.619 331.4042,-152.4731"/>
<polygon fill="#9a32cd" stroke="#9a32cd" points="262.2078,-130.3618 251.656,-131.3154 260.4994,-137.1501 262.2078,-130.3618"/>
<text text-anchor="middle" x="303.5" y="-150" font-family="Helvetica,sans-Serif" font-size="10.00" fill="#000000"> m</text>
</g>
<!-- Node8 -->
<g id="node8" class="node">
<title>Node8</title>
<g id="a_node8"><a xlink:href="a01044.html" target="_top" xlink:title=" ">
<polygon fill="#ffffff" stroke="#000000" points="0,-114.5 0,-133.5 72,-133.5 72,-114.5 0,-114.5"/>
<text text-anchor="middle" x="36" y="-121.5" font-family="Helvetica,sans-Serif" font-size="10.00" fill="#000000">tdsoldmoney</text>
</a>
</g>
</g>
<!-- Node8&#45;&gt;Node7 -->
<g id="edge7" class="edge">
<title>Node8&#45;&gt;Node7</title>
<path fill="none" stroke="#9a32cd" stroke-dasharray="5,2" d="M82.5724,-124C116.9334,-124 162.6676,-124 192.2231,-124"/>
<polygon fill="#9a32cd" stroke="#9a32cd" points="82.3043,-120.5001 72.3042,-124 82.3042,-127.5001 82.3043,-120.5001"/>
<text text-anchor="middle" x="119.5" y="-127" font-family="Helvetica,sans-Serif" font-size="10.00" fill="#000000"> tdsoldmoney</text>
</g>
<!-- Node9 -->
<g id="node9" class="node">
<title>Node9</title>
<g id="a_node9"><a xlink:href="a01040.html" target="_top" xlink:title=" ">
<polygon fill="#ffffff" stroke="#000000" points="189.5,-76.5 189.5,-95.5 254.5,-95.5 254.5,-76.5 189.5,-76.5"/>
<text text-anchor="middle" x="222" y="-83.5" font-family="Helvetica,sans-Serif" font-size="10.00" fill="#000000">tdsnumeric</text>
</a>
</g>
</g>
<!-- Node9&#45;&gt;Node1 -->
<g id="edge8" class="edge">
<title>Node9&#45;&gt;Node1</title>
<path fill="none" stroke="#9a32cd" stroke-dasharray="5,2" d="M263.4528,-99.0667C268.0921,-100.8968 272.6938,-102.8826 277,-105 305.082,-118.8084 334.9509,-140.1786 351.2044,-152.4521"/>
<polygon fill="#9a32cd" stroke="#9a32cd" points="264.5527,-95.7416 253.9598,-95.5365 262.1128,-102.3026 264.5527,-95.7416"/>
<text text-anchor="middle" x="303.5" y="-127" font-family="Helvetica,sans-Serif" font-size="10.00" fill="#000000"> n</text>
</g>
<!-- Node10 -->
<g id="node10" class="node">
<title>Node10</title>
<g id="a_node10"><a xlink:href="a01052.html" target="_top" xlink:title=" ">
<polygon fill="#ffffff" stroke="#000000" points="189.5,-38.5 189.5,-57.5 254.5,-57.5 254.5,-38.5 189.5,-38.5"/>
<text text-anchor="middle" x="222" y="-45.5" font-family="Helvetica,sans-Serif" font-size="10.00" fill="#000000">tdsmoney4</text>
</a>
</g>
</g>
<!-- Node10&#45;&gt;Node1 -->
<g id="edge9" class="edge">
<title>Node10&#45;&gt;Node1</title>
<path fill="none" stroke="#9a32cd" stroke-dasharray="5,2" d="M264.416,-60.5038C268.793,-62.4211 273.0708,-64.5814 277,-67 314.0413,-89.8002 344.8411,-132.9862 357.416,-152.2725"/>
<polygon fill="#9a32cd" stroke="#9a32cd" points="265.359,-57.113 254.7726,-56.689 262.784,-63.6222 265.359,-57.113"/>
<text text-anchor="middle" x="303.5" y="-97" font-family="Helvetica,sans-Serif" font-size="10.00" fill="#000000"> m4</text>
</g>
<!-- Node11 -->
<g id="node11" class="node">
<title>Node11</title>
<g id="a_node11"><a xlink:href="a01060.html" target="_top" xlink:title=" ">
<polygon fill="#ffffff" stroke="#000000" points="185.5,-.5 185.5,-19.5 258.5,-19.5 258.5,-.5 185.5,-.5"/>
<text text-anchor="middle" x="222" y="-7.5" font-family="Helvetica,sans-Serif" font-size="10.00" fill="#000000">tdsdatetime4</text>
</a>
</g>
</g>
<!-- Node11&#45;&gt;Node1 -->
<g id="edge10" class="edge">
<title>Node11&#45;&gt;Node1</title>
<path fill="none" stroke="#9a32cd" stroke-dasharray="5,2" d="M267.5649,-23.6938C270.8526,-25.2953 274.0363,-27.0602 277,-29 324.4759,-60.0739 351.5559,-127.2586 360.323,-152.3173"/>
<polygon fill="#9a32cd" stroke="#9a32cd" points="268.6876,-20.3659 258.1202,-19.6037 265.9057,-26.7895 268.6876,-20.3659"/>
<text text-anchor="middle" x="303.5" y="-64" font-family="Helvetica,sans-Serif" font-size="10.00" fill="#000000"> dt4</text>
</g>
</g>
</svg>
