<?xml version="1.0" encoding="UTF-8" standalone="no"?>
<!DOCTYPE svg PUBLIC "-//W3C//DTD SVG 1.1//EN"
 "http://www.w3.org/Graphics/SVG/1.1/DTD/svg11.dtd">
<!-- Generated by graphviz version 2.40.1 (20161225.0304)
 -->
<!-- Title: _hdbc Pages: 1 -->
<svg width="1120pt" height="691pt"
 viewBox="0.00 0.00 1120.00 691.00" xmlns="http://www.w3.org/2000/svg" xmlns:xlink="http://www.w3.org/1999/xlink">
<g id="graph0" class="graph" transform="scale(1 1) rotate(0) translate(4 687)">
<title>_hdbc</title>
<polygon fill="#ffffff" stroke="transparent" points="-4,4 -4,-687 1116,-687 1116,4 -4,4"/>
<!-- Node1 -->
<g id="node1" class="node">
<title>Node1</title>
<g id="a_node1"><a xlink:title=" ">
<polygon fill="#bfbfbf" stroke="#000000" points="648.5,-103.5 648.5,-122.5 691.5,-122.5 691.5,-103.5 648.5,-103.5"/>
<text text-anchor="middle" x="670" y="-110.5" font-family="Helvetica,sans-Serif" font-size="10.00" fill="#000000">_hdbc</text>
</a>
</g>
</g>
<!-- Node2 -->
<g id="node2" class="node">
<title>Node2</title>
<g id="a_node2"><a xlink:href="a01028.html" target="_top" xlink:title=" ">
<polygon fill="#ffffff" stroke="#000000" points="646.5,-1.5 646.5,-20.5 693.5,-20.5 693.5,-1.5 646.5,-1.5"/>
<text text-anchor="middle" x="670" y="-8.5" font-family="Helvetica,sans-Serif" font-size="10.00" fill="#000000">_hstmt</text>
</a>
</g>
</g>
<!-- Node1&#45;&gt;Node2 -->
<g id="edge22" class="edge">
<title>Node1&#45;&gt;Node2</title>
<path fill="none" stroke="#9a32cd" stroke-dasharray="5,2" d="M657.6594,-94.7973C649.1875,-79.9681 640.5446,-58.5279 647,-40 649.5371,-32.7182 654.7494,-25.891 659.5714,-20.6922"/>
<polygon fill="#9a32cd" stroke="#9a32cd" points="654.8017,-96.8305 663.0416,-103.4905 660.7534,-93.1457 654.8017,-96.8305"/>
<text text-anchor="middle" x="656.5" y="-48.5" font-family="Helvetica,sans-Serif" font-size="10.00" fill="#000000"> dbc</text>
</g>
<!-- Node2&#45;&gt;Node1 -->
<g id="edge1" class="edge">
<title>Node2&#45;&gt;Node1</title>
<path fill="none" stroke="#9a32cd" stroke-dasharray="5,2" d="M670,-30.6863C670,-52.4339 670,-86.575 670,-103.2198"/>
<polygon fill="#9a32cd" stroke="#9a32cd" points="673.5001,-30.6016 670,-20.6016 666.5001,-30.6017 673.5001,-30.6016"/>
<text text-anchor="middle" x="709.5" y="-54" font-family="Helvetica,sans-Serif" font-size="10.00" fill="#000000"> stmt_list</text>
<text text-anchor="middle" x="709.5" y="-43" font-family="Helvetica,sans-Serif" font-size="10.00" fill="#000000">current_statement</text>
</g>
<!-- Node2&#45;&gt;Node2 -->
<g id="edge2" class="edge">
<title>Node2&#45;&gt;Node2</title>
<path fill="none" stroke="#9a32cd" stroke-dasharray="5,2" d="M704.0148,-17.6175C708.5146,-16.4908 711.5,-14.2849 711.5,-11 711.5,-5.6094 703.4604,-3.1246 693.8819,-3.5458"/>
<polygon fill="#9a32cd" stroke="#9a32cd" points="703.56,-14.1431 693.8819,-18.4542 704.1361,-21.1194 703.56,-14.1431"/>
<text text-anchor="middle" x="722.5" y="-14" font-family="Helvetica,sans-Serif" font-size="10.00" fill="#000000"> prev</text>
<text text-anchor="middle" x="722.5" y="-3" font-family="Helvetica,sans-Serif" font-size="10.00" fill="#000000">next</text>
</g>
<!-- Node3 -->
<g id="node3" class="node">
<title>Node3</title>
<g id="a_node3"><a xlink:href="a01224.html" target="_top" xlink:title="Information for a server connection.">
<polygon fill="#ffffff" stroke="#000000" points="200.5,-373.5 200.5,-392.5 265.5,-392.5 265.5,-373.5 200.5,-373.5"/>
<text text-anchor="middle" x="233" y="-380.5" font-family="Helvetica,sans-Serif" font-size="10.00" fill="#000000">tds_socket</text>
</a>
</g>
</g>
<!-- Node3&#45;&gt;Node1 -->
<g id="edge34" class="edge">
<title>Node3&#45;&gt;Node1</title>
<path fill="none" stroke="#9a32cd" stroke-dasharray="5,2" d="M275.4837,-372.5245C319.3457,-359.8944 387.6016,-334.957 433,-293 456.0798,-271.6698 449.3985,-257.0354 467,-231 488.5775,-199.0836 490.3705,-185.9959 522,-164 561.8275,-136.3031 618.0688,-122.4352 648.4711,-116.5771"/>
<polygon fill="#9a32cd" stroke="#9a32cd" points="274.3917,-369.1954 265.7002,-375.2542 276.273,-375.9379 274.3917,-369.1954"/>
<text text-anchor="middle" x="493" y="-239.5" font-family="Helvetica,sans-Serif" font-size="10.00" fill="#000000"> tds_socket</text>
</g>
<!-- Node3&#45;&gt;Node2 -->
<g id="edge3" class="edge">
<title>Node3&#45;&gt;Node2</title>
<path fill="none" stroke="#9a32cd" stroke-dasharray="5,2" d="M190.1622,-380.3703C143.573,-376.8331 72.7068,-369.269 50,-355 16.7033,-334.0763 0,-321.3252 0,-282 0,-282 0,-282 0,-113 0,-37.2551 80.5986,-58.6954 154,-40 249.1002,-15.7779 558.4366,-11.7764 646.4448,-11.1248"/>
<polygon fill="#9a32cd" stroke="#9a32cd" points="190.0579,-383.8719 200.285,-381.105 190.5646,-376.8903 190.0579,-383.8719"/>
<text text-anchor="middle" x="8.5" y="-200.5" font-family="Helvetica,sans-Serif" font-size="10.00" fill="#000000"> tds</text>
</g>
<!-- Node10 -->
<g id="node8" class="node">
<title>Node10</title>
<g id="a_node8"><a xlink:href="a01172.html" target="_top" xlink:title="Hold information for any results.">
<polygon fill="#ffffff" stroke="#ff0000" points="112,-272.5 112,-291.5 192,-291.5 192,-272.5 112,-272.5"/>
<text text-anchor="middle" x="152" y="-279.5" font-family="Helvetica,sans-Serif" font-size="10.00" fill="#000000">tds_result_info</text>
</a>
</g>
</g>
<!-- Node3&#45;&gt;Node10 -->
<g id="edge11" class="edge">
<title>Node3&#45;&gt;Node10</title>
<path fill="none" stroke="#9a32cd" stroke-dasharray="5,2" d="M190.973,-371.7961C182.325,-367.7536 174.0303,-362.3078 168,-355 152.8056,-336.5866 151.1876,-306.9306 151.4793,-291.7056"/>
<polygon fill="#9a32cd" stroke="#9a32cd" points="189.8244,-375.1077 200.4051,-375.6535 192.4742,-368.6286 189.8244,-375.1077"/>
<text text-anchor="middle" x="195.5" y="-330.5" font-family="Helvetica,sans-Serif" font-size="10.00" fill="#000000"> attached_to</text>
</g>
<!-- Node4 -->
<g id="node4" class="node">
<title>Node4</title>
<g id="a_node4"><a xlink:href="a01132.html" target="_top" xlink:title=" ">
<polygon fill="#ffffff" stroke="#ff0000" points="219,-463.5 219,-482.5 275,-482.5 275,-463.5 219,-463.5"/>
<text text-anchor="middle" x="247" y="-470.5" font-family="Helvetica,sans-Serif" font-size="10.00" fill="#000000">tds_login</text>
</a>
</g>
</g>
<!-- Node4&#45;&gt;Node3 -->
<g id="edge4" class="edge">
<title>Node4&#45;&gt;Node3</title>
<path fill="none" stroke="#9a32cd" stroke-dasharray="5,2" d="M237.2615,-454.19C235.9255,-450.8724 234.7549,-447.393 234,-444 230.0438,-426.217 230.9523,-404.7935 231.9745,-392.649"/>
<polygon fill="#9a32cd" stroke="#9a32cd" points="234.148,-455.7963 241.5156,-463.41 240.5041,-452.8636 234.148,-455.7963"/>
<text text-anchor="middle" x="246" y="-425" font-family="Helvetica,sans-Serif" font-size="10.00" fill="#000000"> login</text>
</g>
<!-- Node7 -->
<g id="node5" class="node">
<title>Node7</title>
<g id="a_node5"><a xlink:href="a01268.html" target="_top" xlink:title="Structure to hold a string.">
<polygon fill="#ffffff" stroke="#000000" points="697,-663.5 697,-682.5 749,-682.5 749,-663.5 697,-663.5"/>
<text text-anchor="middle" x="723" y="-670.5" font-family="Helvetica,sans-Serif" font-size="10.00" fill="#000000">tds_dstr</text>
</a>
</g>
</g>
<!-- Node7&#45;&gt;Node1 -->
<g id="edge40" class="edge">
<title>Node7&#45;&gt;Node1</title>
<path fill="none" stroke="#9a32cd" stroke-dasharray="5,2" d="M711.9261,-654.8355C680.1278,-601.6028 588.4898,-440.426 552,-293 541.3083,-249.8035 525.7802,-232.1148 547,-193 568.5003,-153.3682 619.069,-130.2963 648.2318,-119.8308"/>
<polygon fill="#9a32cd" stroke="#9a32cd" points="708.9822,-656.7316 717.1404,-663.4914 714.9783,-653.1195 708.9822,-656.7316"/>
<text text-anchor="middle" x="586" y="-336" font-family="Helvetica,sans-Serif" font-size="10.00" fill="#000000"> oldpwd</text>
<text text-anchor="middle" x="586" y="-325" font-family="Helvetica,sans-Serif" font-size="10.00" fill="#000000">dsn</text>
</g>
<!-- Node7&#45;&gt;Node2 -->
<g id="edge27" class="edge">
<title>Node7&#45;&gt;Node2</title>
<path fill="none" stroke="#9a32cd" stroke-dasharray="5,2" d="M759.476,-669.811C798.3701,-665.8031 856.8246,-657.8484 875,-645 947.0241,-594.0856 974,-561.2029 974,-473 974,-473 974,-473 974,-113 974,-53.9209 765.0275,-22.6912 693.6014,-13.7425"/>
<polygon fill="#9a32cd" stroke="#9a32cd" points="758.6821,-666.3722 749.0743,-670.8375 759.3697,-673.3384 758.6821,-666.3722"/>
<text text-anchor="middle" x="1002.5" y="-285" font-family="Helvetica,sans-Serif" font-size="10.00" fill="#000000"> query</text>
<text text-anchor="middle" x="1002.5" y="-274" font-family="Helvetica,sans-Serif" font-size="10.00" fill="#000000">cursor_name</text>
</g>
<!-- Node7&#45;&gt;Node4 -->
<g id="edge5" class="edge">
<title>Node7&#45;&gt;Node4</title>
<path fill="none" stroke="#9a32cd" stroke-dasharray="5,2" d="M686.6916,-671.4952C606.1669,-667.934 417.6753,-658.2814 392,-645 318.1105,-606.7781 266.7977,-513.0884 251.6445,-482.6928"/>
<polygon fill="#9a32cd" stroke="#9a32cd" points="686.7176,-674.9995 696.8604,-671.9378 687.0221,-668.0062 686.7176,-674.9995"/>
<text text-anchor="middle" x="436.5" y="-631.5" font-family="Helvetica,sans-Serif" font-size="10.00" fill="#000000"> server_realm_name</text>
<text text-anchor="middle" x="436.5" y="-620.5" font-family="Helvetica,sans-Serif" font-size="10.00" fill="#000000">password</text>
<text text-anchor="middle" x="436.5" y="-609.5" font-family="Helvetica,sans-Serif" font-size="10.00" fill="#000000">server_name</text>
<text text-anchor="middle" x="436.5" y="-598.5" font-family="Helvetica,sans-Serif" font-size="10.00" fill="#000000">dump_file</text>
<text text-anchor="middle" x="436.5" y="-587.5" font-family="Helvetica,sans-Serif" font-size="10.00" fill="#000000">library</text>
<text text-anchor="middle" x="436.5" y="-576.5" font-family="Helvetica,sans-Serif" font-size="10.00" fill="#000000">crlfile</text>
<text text-anchor="middle" x="436.5" y="-565.5" font-family="Helvetica,sans-Serif" font-size="10.00" fill="#000000">server_spn</text>
<text text-anchor="start" x="392" y="-554.5" font-family="Helvetica,sans-Serif" font-size="10.00" fill="#000000">client_host</text>
<text text-anchor="middle" x="436.5" y="-543.5" font-family="Helvetica,sans-Serif" font-size="10.00" fill="#000000">_name</text>
<text text-anchor="middle" x="436.5" y="-532.5" font-family="Helvetica,sans-Serif" font-size="10.00" fill="#000000">client_charset</text>
<text text-anchor="middle" x="436.5" y="-521.5" font-family="Helvetica,sans-Serif" font-size="10.00" fill="#000000">openssl_ciphers</text>
<text text-anchor="middle" x="436.5" y="-510.5" font-family="Helvetica,sans-Serif" font-size="10.00" fill="#000000">...</text>
</g>
<!-- Node26 -->
<g id="node12" class="node">
<title>Node26</title>
<g id="a_node12"><a xlink:href="a01024.html" target="_top" xlink:title=" ">
<polygon fill="#ffffff" stroke="#000000" points="1025.5,-323.5 1025.5,-342.5 1072.5,-342.5 1072.5,-323.5 1025.5,-323.5"/>
<text text-anchor="middle" x="1049" y="-330.5" font-family="Helvetica,sans-Serif" font-size="10.00" fill="#000000">_hsattr</text>
</a>
</g>
</g>
<!-- Node7&#45;&gt;Node26 -->
<g id="edge24" class="edge">
<title>Node7&#45;&gt;Node26</title>
<path fill="none" stroke="#9a32cd" stroke-dasharray="5,2" d="M759.5721,-671.5177C828.3328,-668.3895 971.4838,-660.1261 988,-645 1078.9691,-561.6874 1057.5925,-386.0366 1050.6987,-342.7806"/>
<polygon fill="#9a32cd" stroke="#9a32cd" points="759.0416,-668.0377 749.2059,-671.976 759.3508,-675.0308 759.0416,-668.0377"/>
<text text-anchor="middle" x="1084.5" y="-476" font-family="Helvetica,sans-Serif" font-size="10.00" fill="#000000"> qn_msgtext</text>
<text text-anchor="middle" x="1084.5" y="-465" font-family="Helvetica,sans-Serif" font-size="10.00" fill="#000000">qn_options</text>
</g>
<!-- Node29 -->
<g id="node15" class="node">
<title>Node29</title>
<g id="a_node15"><a xlink:href="a00996.html" target="_top" xlink:title=" ">
<polygon fill="#ffffff" stroke="#000000" points="696,-418 696,-437 750,-437 750,-418 696,-418"/>
<text text-anchor="middle" x="723" y="-425" font-family="Helvetica,sans-Serif" font-size="10.00" fill="#000000">_drecord</text>
</a>
</g>
</g>
<!-- Node7&#45;&gt;Node29 -->
<g id="edge31" class="edge">
<title>Node7&#45;&gt;Node29</title>
<path fill="none" stroke="#9a32cd" stroke-dasharray="5,2" d="M723,-653.2422C723,-603.2958 723,-473.3777 723,-437.0574"/>
<polygon fill="#9a32cd" stroke="#9a32cd" points="719.5001,-653.3761 723,-663.3761 726.5001,-653.3761 719.5001,-653.3761"/>
<text text-anchor="middle" x="779" y="-637" font-family="Helvetica,sans-Serif" font-size="10.00" fill="#000000"> sql_desc_schema_name</text>
<text text-anchor="middle" x="779" y="-626" font-family="Helvetica,sans-Serif" font-size="10.00" fill="#000000">sql_desc_name</text>
<text text-anchor="start" x="723" y="-615" font-family="Helvetica,sans-Serif" font-size="10.00" fill="#000000">sql_desc_base_column</text>
<text text-anchor="middle" x="779" y="-604" font-family="Helvetica,sans-Serif" font-size="10.00" fill="#000000">_name</text>
<text text-anchor="start" x="723" y="-593" font-family="Helvetica,sans-Serif" font-size="10.00" fill="#000000">sql_desc_base_table</text>
<text text-anchor="middle" x="779" y="-582" font-family="Helvetica,sans-Serif" font-size="10.00" fill="#000000">_name</text>
<text text-anchor="start" x="723" y="-571" font-family="Helvetica,sans-Serif" font-size="10.00" fill="#000000">sql_desc_catalog</text>
<text text-anchor="middle" x="779" y="-560" font-family="Helvetica,sans-Serif" font-size="10.00" fill="#000000">_name</text>
<text text-anchor="start" x="723" y="-549" font-family="Helvetica,sans-Serif" font-size="10.00" fill="#000000">sql_desc_table</text>
<text text-anchor="middle" x="779" y="-538" font-family="Helvetica,sans-Serif" font-size="10.00" fill="#000000">_name</text>
<text text-anchor="middle" x="779" y="-527" font-family="Helvetica,sans-Serif" font-size="10.00" fill="#000000">sql_desc_label</text>
<text text-anchor="start" x="723" y="-516" font-family="Helvetica,sans-Serif" font-size="10.00" fill="#000000">sql_desc_local</text>
<text text-anchor="middle" x="779" y="-505" font-family="Helvetica,sans-Serif" font-size="10.00" fill="#000000">_type_name</text>
</g>
<!-- Node32 -->
<g id="node17" class="node">
<title>Node32</title>
<g id="a_node17"><a xlink:href="a01232.html" target="_top" xlink:title=" ">
<polygon fill="#ffffff" stroke="#000000" points="399.5,-193.5 399.5,-212.5 466.5,-212.5 466.5,-193.5 399.5,-193.5"/>
<text text-anchor="middle" x="433" y="-200.5" font-family="Helvetica,sans-Serif" font-size="10.00" fill="#000000">tds_bcpinfo</text>
</a>
</g>
</g>
<!-- Node7&#45;&gt;Node32 -->
<g id="edge37" class="edge">
<title>Node7&#45;&gt;Node32</title>
<path fill="none" stroke="#9a32cd" stroke-dasharray="5,2" d="M686.4862,-671.0199C643.9464,-668.0055 577.0472,-660.8455 558,-645 495.4144,-592.9347 495,-554.411 495,-473 495,-473 495,-473 495,-333 495,-292.4215 467.7018,-289.982 451,-253 444.8484,-239.3787 439.2743,-222.9743 436.0102,-212.7638"/>
<polygon fill="#9a32cd" stroke="#9a32cd" points="686.5228,-674.53 696.7326,-671.6998 686.9862,-667.5453 686.5228,-674.53"/>
<text text-anchor="middle" x="519.5" y="-380.5" font-family="Helvetica,sans-Serif" font-size="10.00" fill="#000000"> tablename</text>
</g>
<!-- Node33 -->
<g id="node18" class="node">
<title>Node33</title>
<g id="a_node18"><a xlink:href="a01016.html" target="_top" xlink:title=" ">
<polygon fill="#ffffff" stroke="#000000" points="911.5,-232.5 911.5,-251.5 958.5,-251.5 958.5,-232.5 911.5,-232.5"/>
<text text-anchor="middle" x="935" y="-239.5" font-family="Helvetica,sans-Serif" font-size="10.00" fill="#000000">_hcattr</text>
</a>
</g>
</g>
<!-- Node7&#45;&gt;Node33 -->
<g id="edge39" class="edge">
<title>Node7&#45;&gt;Node33</title>
<path fill="none" stroke="#9a32cd" stroke-dasharray="5,2" d="M759.0909,-668.4769C788.8404,-664.0153 827.8849,-656.2274 839,-645 914.0917,-569.1499 868.1279,-514.7949 893,-411 907.5834,-350.1411 926.0433,-277.2062 932.5757,-251.5155"/>
<polygon fill="#9a32cd" stroke="#9a32cd" points="758.421,-665.037 749.0167,-669.9165 759.4113,-671.9666 758.421,-665.037"/>
<text text-anchor="middle" x="926.5" y="-430.5" font-family="Helvetica,sans-Serif" font-size="10.00" fill="#000000"> translate_lib</text>
<text text-anchor="middle" x="926.5" y="-419.5" font-family="Helvetica,sans-Serif" font-size="10.00" fill="#000000">current_catalog</text>
</g>
<!-- Node8 -->
<g id="node6" class="node">
<title>Node8</title>
<g id="a_node6"><a xlink:href="a01212.html" target="_top" xlink:title=" ">
<polygon fill="#ffffff" stroke="#000000" points="319.5,-463.5 319.5,-482.5 384.5,-482.5 384.5,-463.5 319.5,-463.5"/>
<text text-anchor="middle" x="352" y="-470.5" font-family="Helvetica,sans-Serif" font-size="10.00" fill="#000000">tds_packet</text>
</a>
</g>
</g>
<!-- Node8&#45;&gt;Node3 -->
<g id="edge6" class="edge">
<title>Node8&#45;&gt;Node3</title>
<path fill="none" stroke="#9a32cd" stroke-dasharray="5,2" d="M309.6625,-460.3335C299.642,-456.1283 289.4294,-450.7462 281,-444 267.0422,-432.8293 269.0845,-425.0264 258,-411 252.9897,-404.6599 246.9677,-397.8925 242.0895,-392.5992"/>
<polygon fill="#9a32cd" stroke="#9a32cd" points="308.5575,-463.6589 319.1464,-464.0108 311.0881,-457.1323 308.5575,-463.6589"/>
<text text-anchor="middle" x="316" y="-436" font-family="Helvetica,sans-Serif" font-size="10.00" fill="#000000"> frozen_packets</text>
<text text-anchor="middle" x="316" y="-425" font-family="Helvetica,sans-Serif" font-size="10.00" fill="#000000">recv_packet</text>
<text text-anchor="middle" x="316" y="-414" font-family="Helvetica,sans-Serif" font-size="10.00" fill="#000000">send_packet</text>
</g>
<!-- Node8&#45;&gt;Node8 -->
<g id="edge7" class="edge">
<title>Node8&#45;&gt;Node8</title>
<path fill="none" stroke="#9a32cd" stroke-dasharray="5,2" d="M394.6447,-479.9658C399.4145,-478.652 402.5,-476.3301 402.5,-473 402.5,-467.6719 394.6012,-464.9246 384.5425,-464.7581"/>
<polygon fill="#9a32cd" stroke="#9a32cd" points="394.025,-476.5162 384.5425,-481.2419 394.9023,-483.461 394.025,-476.5162"/>
<text text-anchor="middle" x="413.5" y="-470.5" font-family="Helvetica,sans-Serif" font-size="10.00" fill="#000000"> next</text>
</g>
<!-- Node20 -->
<g id="node10" class="node">
<title>Node20</title>
<g id="a_node10"><a xlink:href="a01220.html" target="_top" xlink:title=" ">
<polygon fill="#ffffff" stroke="#ff0000" points="291.5,-103.5 291.5,-122.5 374.5,-122.5 374.5,-103.5 291.5,-103.5"/>
<text text-anchor="middle" x="333" y="-110.5" font-family="Helvetica,sans-Serif" font-size="10.00" fill="#000000">tds_connection</text>
</a>
</g>
</g>
<!-- Node8&#45;&gt;Node20 -->
<g id="edge18" class="edge">
<title>Node8&#45;&gt;Node20</title>
<path fill="none" stroke="#9a32cd" stroke-dasharray="5,2" d="M351.8007,-452.9893C351.649,-440.8423 351.397,-425.0263 351,-411 347.8916,-301.1763 351.753,-273.3402 341,-164 339.579,-149.5506 336.7528,-132.9657 334.869,-122.7343"/>
<polygon fill="#9a32cd" stroke="#9a32cd" points="348.3047,-453.3731 351.9169,-463.3331 355.3042,-453.2944 348.3047,-453.3731"/>
<text text-anchor="middle" x="380" y="-279.5" font-family="Helvetica,sans-Serif" font-size="10.00" fill="#000000"> packet_cache</text>
</g>
<!-- Node9 -->
<g id="node7" class="node">
<title>Node9</title>
<g id="a_node7"><a xlink:href="a01196.html" target="_top" xlink:title="Holds information for a dynamic (also called prepared) query.">
<polygon fill="#ffffff" stroke="#000000" points="73,-193.5 73,-212.5 145,-212.5 145,-193.5 73,-193.5"/>
<text text-anchor="middle" x="109" y="-200.5" font-family="Helvetica,sans-Serif" font-size="10.00" fill="#000000">tds_dynamic</text>
</a>
</g>
</g>
<!-- Node9&#45;&gt;Node2 -->
<g id="edge21" class="edge">
<title>Node9&#45;&gt;Node2</title>
<path fill="none" stroke="#9a32cd" stroke-dasharray="5,2" d="M118.0281,-184.0446C131.4762,-157.5755 159.0863,-109.4829 195,-80 229.1467,-51.9677 243.1375,-50.7056 286,-40 354.9179,-22.7867 574.0087,-14.1683 646.4755,-11.7364"/>
<polygon fill="#9a32cd" stroke="#9a32cd" points="114.7235,-182.832 113.435,-193.3482 121.0003,-185.9308 114.7235,-182.832"/>
<text text-anchor="middle" x="204.5" y="-110.5" font-family="Helvetica,sans-Serif" font-size="10.00" fill="#000000"> dyn</text>
</g>
<!-- Node9&#45;&gt;Node3 -->
<g id="edge8" class="edge">
<title>Node9&#45;&gt;Node3</title>
<path fill="none" stroke="#9a32cd" stroke-dasharray="5,2" d="M93.4638,-220.6728C83.1669,-233.6195 70.5656,-252.1538 65,-271 54.4076,-306.8681 44.7662,-327.3962 70,-355 87.0483,-373.6495 157.6982,-379.8903 200.1894,-381.9696"/>
<polygon fill="#9a32cd" stroke="#9a32cd" points="96.4151,-222.5971 100.1095,-212.6672 91.0291,-218.126 96.4151,-222.5971"/>
<text text-anchor="middle" x="84" y="-279.5" font-family="Helvetica,sans-Serif" font-size="10.00" fill="#000000"> cur_dyn</text>
</g>
<!-- Node9&#45;&gt;Node9 -->
<g id="edge9" class="edge">
<title>Node9&#45;&gt;Node9</title>
<path fill="none" stroke="#9a32cd" stroke-dasharray="5,2" d="M155.2083,-207.9469C159.9614,-206.9732 163,-205.3242 163,-203 163,-199.2813 155.2211,-197.2911 145.0873,-197.0297"/>
<polygon fill="#9a32cd" stroke="#9a32cd" points="154.6844,-204.4819 145.0873,-208.9703 155.3887,-211.4464 154.6844,-204.4819"/>
<text text-anchor="middle" x="174" y="-200.5" font-family="Helvetica,sans-Serif" font-size="10.00" fill="#000000"> next</text>
</g>
<!-- Node9&#45;&gt;Node20 -->
<g id="edge19" class="edge">
<title>Node9&#45;&gt;Node20</title>
<path fill="none" stroke="#9a32cd" stroke-dasharray="5,2" d="M142.4426,-189.5632C188.1874,-171.1837 269.151,-138.6536 309.2004,-122.5623"/>
<polygon fill="#9a32cd" stroke="#9a32cd" points="140.9461,-186.3925 132.9719,-193.3684 143.5559,-192.8878 140.9461,-186.3925"/>
<text text-anchor="middle" x="212.5" y="-167" font-family="Helvetica,sans-Serif" font-size="10.00" fill="#000000"> dyns</text>
</g>
<!-- Node10&#45;&gt;Node2 -->
<g id="edge25" class="edge">
<title>Node10&#45;&gt;Node2</title>
<path fill="none" stroke="#9a32cd" stroke-dasharray="5,2" d="M120.5941,-267.6315C99.883,-256.1761 74.6774,-237.9139 64,-213 47.6136,-174.7651 128.1597,-87.0383 136,-80 165.5812,-53.4444 177.622,-50.3623 216,-40 298.3495,-17.765 564.9432,-12.4061 646.2432,-11.2742"/>
<polygon fill="#9a32cd" stroke="#9a32cd" points="119.2431,-270.8749 129.7254,-272.4153 122.4916,-264.6743 119.2431,-270.8749"/>
<text text-anchor="middle" x="90" y="-167" font-family="Helvetica,sans-Serif" font-size="10.00" fill="#000000"> params</text>
</g>
<!-- Node10&#45;&gt;Node3 -->
<g id="edge12" class="edge">
<title>Node10&#45;&gt;Node3</title>
<path fill="none" stroke="#9a32cd" stroke-dasharray="5,2" d="M102.5292,-294.2519C94.8078,-298.3319 87.8069,-303.7656 83,-311 72.1776,-327.2879 70.5051,-339.9569 83,-355 97.5992,-372.5766 160.6304,-379.1792 200.1951,-381.6165"/>
<polygon fill="#9a32cd" stroke="#9a32cd" points="104.1575,-297.3571 111.8362,-290.0573 101.2812,-290.9753 104.1575,-297.3571"/>
<text text-anchor="middle" x="115.5" y="-347" font-family="Helvetica,sans-Serif" font-size="10.00" fill="#000000"> param_info</text>
<text text-anchor="middle" x="115.5" y="-336" font-family="Helvetica,sans-Serif" font-size="10.00" fill="#000000">current_results</text>
<text text-anchor="middle" x="115.5" y="-325" font-family="Helvetica,sans-Serif" font-size="10.00" fill="#000000">res_info</text>
<text text-anchor="middle" x="115.5" y="-314" font-family="Helvetica,sans-Serif" font-size="10.00" fill="#000000">comp_info</text>
</g>
<!-- Node10&#45;&gt;Node9 -->
<g id="edge10" class="edge">
<title>Node10&#45;&gt;Node9</title>
<path fill="none" stroke="#9a32cd" stroke-dasharray="5,2" d="M127.6622,-265.83C123.5382,-262.0731 119.718,-257.7607 117,-253 109.8518,-240.4797 108.5791,-223.481 108.5874,-212.8802"/>
<polygon fill="#9a32cd" stroke="#9a32cd" points="125.7716,-268.801 135.7573,-272.3417 130.1591,-263.3466 125.7716,-268.801"/>
<text text-anchor="middle" x="136" y="-245" font-family="Helvetica,sans-Serif" font-size="10.00" fill="#000000"> res_info</text>
<text text-anchor="middle" x="136" y="-234" font-family="Helvetica,sans-Serif" font-size="10.00" fill="#000000">params</text>
</g>
<!-- Node18 -->
<g id="node9" class="node">
<title>Node18</title>
<g id="a_node9"><a xlink:href="a01188.html" target="_top" xlink:title="Holds informations about a cursor.">
<polygon fill="#ffffff" stroke="#ff0000" points="203,-193.5 203,-212.5 265,-212.5 265,-193.5 203,-193.5"/>
<text text-anchor="middle" x="234" y="-200.5" font-family="Helvetica,sans-Serif" font-size="10.00" fill="#000000">tds_cursor</text>
</a>
</g>
</g>
<!-- Node10&#45;&gt;Node18 -->
<g id="edge14" class="edge">
<title>Node10&#45;&gt;Node18</title>
<path fill="none" stroke="#9a32cd" stroke-dasharray="5,2" d="M161.24,-263.2905C167.0339,-252.8915 175.2479,-240.2285 185,-231 192.8282,-223.5921 202.976,-217.3807 212.0046,-212.7052"/>
<polygon fill="#9a32cd" stroke="#9a32cd" points="158.0159,-261.9017 156.4555,-272.381 164.2103,-265.162 158.0159,-261.9017"/>
<text text-anchor="middle" x="204" y="-239.5" font-family="Helvetica,sans-Serif" font-size="10.00" fill="#000000"> res_info</text>
</g>
<!-- Node10&#45;&gt;Node32 -->
<g id="edge36" class="edge">
<title>Node10&#45;&gt;Node32</title>
<path fill="none" stroke="#9a32cd" stroke-dasharray="5,2" d="M188.2027,-268.7952C200.6082,-264.0612 214.5073,-258.5236 227,-253 246.9964,-244.1587 250.2283,-237.8236 271,-231 314.115,-216.8365 366.1658,-209.4655 399.4205,-205.9132"/>
<polygon fill="#9a32cd" stroke="#9a32cd" points="186.752,-265.6016 178.6293,-272.4039 189.2211,-272.1517 186.752,-265.6016"/>
<text text-anchor="middle" x="289.5" y="-239.5" font-family="Helvetica,sans-Serif" font-size="10.00" fill="#000000"> bindinfo</text>
</g>
<!-- Node18&#45;&gt;Node2 -->
<g id="edge26" class="edge">
<title>Node18&#45;&gt;Node2</title>
<path fill="none" stroke="#9a32cd" stroke-dasharray="5,2" d="M219.635,-185.1104C217.7291,-181.9053 216.0676,-178.4746 215,-175 213.5641,-170.3267 213.993,-168.7841 215,-164 223.4024,-124.0801 219.7662,-105.0036 252,-80 314.5481,-31.4818 567.4299,-15.7722 646.3524,-12.0003"/>
<polygon fill="#9a32cd" stroke="#9a32cd" points="216.7972,-187.1603 225.3636,-193.3947 222.5547,-183.179 216.7972,-187.1603"/>
<text text-anchor="middle" x="267.5" y="-110.5" font-family="Helvetica,sans-Serif" font-size="10.00" fill="#000000"> cursor</text>
</g>
<!-- Node18&#45;&gt;Node3 -->
<g id="edge13" class="edge">
<title>Node18&#45;&gt;Node3</title>
<path fill="none" stroke="#9a32cd" stroke-dasharray="5,2" d="M233.8879,-223.1834C233.6731,-261.8395 233.2111,-344.9986 233.0538,-373.3224"/>
<polygon fill="#9a32cd" stroke="#9a32cd" points="237.3903,-222.7448 233.946,-212.7254 230.3904,-222.7058 237.3903,-222.7448"/>
<text text-anchor="middle" x="257.5" y="-279.5" font-family="Helvetica,sans-Serif" font-size="10.00" fill="#000000"> cur_cursor</text>
</g>
<!-- Node18&#45;&gt;Node18 -->
<g id="edge15" class="edge">
<title>Node18&#45;&gt;Node18</title>
<path fill="none" stroke="#9a32cd" stroke-dasharray="5,2" d="M275.1528,-208.1117C279.9088,-207.1648 283,-205.4609 283,-203 283,-199.0625 275.0865,-197.063 265.102,-197.0015"/>
<polygon fill="#9a32cd" stroke="#9a32cd" points="274.7556,-204.6331 265.102,-208.9985 275.3709,-211.606 274.7556,-204.6331"/>
<text text-anchor="middle" x="294" y="-200.5" font-family="Helvetica,sans-Serif" font-size="10.00" fill="#000000"> next</text>
</g>
<!-- Node18&#45;&gt;Node20 -->
<g id="edge20" class="edge">
<title>Node18&#45;&gt;Node20</title>
<path fill="none" stroke="#9a32cd" stroke-dasharray="5,2" d="M252.0827,-186.5612C272.6992,-167.8189 305.7087,-137.8102 322.4814,-122.5623"/>
<polygon fill="#9a32cd" stroke="#9a32cd" points="249.6398,-184.0519 244.5947,-193.3684 254.3485,-189.2315 249.6398,-184.0519"/>
<text text-anchor="middle" x="292" y="-167" font-family="Helvetica,sans-Serif" font-size="10.00" fill="#000000"> cursors</text>
</g>
<!-- Node20&#45;&gt;Node3 -->
<g id="edge16" class="edge">
<title>Node20&#45;&gt;Node3</title>
<path fill="none" stroke="#9a32cd" stroke-dasharray="5,2" d="M331.4773,-133.1142C328.9221,-160.7886 322.544,-211.8553 308,-253 301.2381,-272.1293 296.0377,-275.3677 286,-293 269.2243,-322.4682 248.6768,-356.9078 238.8192,-373.3321"/>
<polygon fill="#9a32cd" stroke="#9a32cd" points="334.9957,-133.0424 332.3509,-122.783 328.0206,-132.4525 334.9957,-133.0424"/>
<text text-anchor="middle" x="326.5" y="-239.5" font-family="Helvetica,sans-Serif" font-size="10.00" fill="#000000"> conn</text>
</g>
<!-- Node23 -->
<g id="node11" class="node">
<title>Node23</title>
<g id="a_node11"><a xlink:href="a01204.html" target="_top" xlink:title=" ">
<polygon fill="#ffffff" stroke="#ff0000" points="561,-272.5 561,-291.5 629,-291.5 629,-272.5 561,-272.5"/>
<text text-anchor="middle" x="595" y="-279.5" font-family="Helvetica,sans-Serif" font-size="10.00" fill="#000000">tds_context</text>
</a>
</g>
</g>
<!-- Node23&#45;&gt;Node20 -->
<g id="edge17" class="edge">
<title>Node23&#45;&gt;Node20</title>
<path fill="none" stroke="#9a32cd" stroke-dasharray="5,2" d="M580.6091,-264.7458C558.7876,-239.5393 514.978,-192.551 469,-164 450.791,-152.6927 396.7927,-133.913 362.5675,-122.5714"/>
<polygon fill="#9a32cd" stroke="#9a32cd" points="577.9856,-267.0634 587.1378,-272.401 583.3117,-262.5211 577.9856,-267.0634"/>
<text text-anchor="middle" x="548" y="-200.5" font-family="Helvetica,sans-Serif" font-size="10.00" fill="#000000"> tds_ctx</text>
</g>
<!-- Node34 -->
<g id="node19" class="node">
<title>Node34</title>
<g id="a_node19"><a xlink:href="a01012.html" target="_top" xlink:title=" ">
<polygon fill="#ffffff" stroke="#000000" points="648.5,-193.5 648.5,-212.5 691.5,-212.5 691.5,-193.5 648.5,-193.5"/>
<text text-anchor="middle" x="670" y="-200.5" font-family="Helvetica,sans-Serif" font-size="10.00" fill="#000000">_henv</text>
</a>
</g>
</g>
<!-- Node23&#45;&gt;Node34 -->
<g id="edge44" class="edge">
<title>Node23&#45;&gt;Node34</title>
<path fill="none" stroke="#9a32cd" stroke-dasharray="5,2" d="M605.3791,-263.604C611.6996,-253.3341 620.3941,-240.6953 630,-231 636.9207,-224.0148 645.7824,-217.6109 653.4051,-212.6958"/>
<polygon fill="#9a32cd" stroke="#9a32cd" points="602.3629,-261.8284 600.2839,-272.2173 608.3877,-265.3924 602.3629,-261.8284"/>
<text text-anchor="middle" x="648" y="-239.5" font-family="Helvetica,sans-Serif" font-size="10.00" fill="#000000"> tds_ctx</text>
</g>
<!-- Node26&#45;&gt;Node2 -->
<g id="edge23" class="edge">
<title>Node26&#45;&gt;Node2</title>
<path fill="none" stroke="#9a32cd" stroke-dasharray="5,2" d="M1052.403,-313.4309C1055.3015,-295.0486 1059,-266.7445 1059,-242 1059,-242 1059,-242 1059,-113 1059,-67.7408 1028.8492,-59.4869 988,-40 961.6062,-27.409 762.6919,-15.8727 693.5766,-12.206"/>
<polygon fill="#9a32cd" stroke="#9a32cd" points="1048.9207,-313.0366 1050.7419,-323.4737 1055.8269,-314.179 1048.9207,-313.0366"/>
<text text-anchor="middle" x="1068" y="-200.5" font-family="Helvetica,sans-Serif" font-size="10.00" fill="#000000"> attr</text>
</g>
<!-- Node27 -->
<g id="node13" class="node">
<title>Node27</title>
<g id="a_node13"><a xlink:href="a01000.html" target="_top" xlink:title=" ">
<polygon fill="#ffffff" stroke="#000000" points="766,-193.5 766,-212.5 814,-212.5 814,-193.5 766,-193.5"/>
<text text-anchor="middle" x="790" y="-200.5" font-family="Helvetica,sans-Serif" font-size="10.00" fill="#000000">_hdesc</text>
</a>
</g>
</g>
<!-- Node27&#45;&gt;Node1 -->
<g id="edge41" class="edge">
<title>Node27&#45;&gt;Node1</title>
<path fill="none" stroke="#9a32cd" stroke-dasharray="5,2" d="M771.0019,-187.0827C762.2736,-179.8951 751.7215,-171.3797 742,-164 722.2344,-148.9957 698.6521,-132.5582 683.9988,-122.5099"/>
<polygon fill="#9a32cd" stroke="#9a32cd" points="768.7928,-189.7977 778.7248,-193.4866 773.261,-184.4092 768.7928,-189.7977"/>
<text text-anchor="middle" x="764.5" y="-167" font-family="Helvetica,sans-Serif" font-size="10.00" fill="#000000"> uad</text>
</g>
<!-- Node27&#45;&gt;Node2 -->
<g id="edge28" class="edge">
<title>Node27&#45;&gt;Node2</title>
<path fill="none" stroke="#9a32cd" stroke-dasharray="5,2" d="M791.2503,-183.0988C792.2516,-149.3585 789.2938,-80.6425 753,-40 744.9681,-31.0057 715.2342,-22.0671 693.6462,-16.5415"/>
<polygon fill="#9a32cd" stroke="#9a32cd" points="787.753,-182.9624 790.8014,-193.1092 794.746,-183.2761 787.753,-182.9624"/>
<text text-anchor="middle" x="808.5" y="-138" font-family="Helvetica,sans-Serif" font-size="10.00" fill="#000000"> apd</text>
<text text-anchor="middle" x="808.5" y="-127" font-family="Helvetica,sans-Serif" font-size="10.00" fill="#000000">orig_apd</text>
<text text-anchor="middle" x="808.5" y="-116" font-family="Helvetica,sans-Serif" font-size="10.00" fill="#000000">orig_ard</text>
<text text-anchor="middle" x="808.5" y="-105" font-family="Helvetica,sans-Serif" font-size="10.00" fill="#000000">ird</text>
<text text-anchor="middle" x="808.5" y="-94" font-family="Helvetica,sans-Serif" font-size="10.00" fill="#000000">ipd</text>
<text text-anchor="middle" x="808.5" y="-83" font-family="Helvetica,sans-Serif" font-size="10.00" fill="#000000">ard</text>
</g>
<!-- Node28 -->
<g id="node14" class="node">
<title>Node28</title>
<g id="a_node14"><a xlink:href="a00992.html" target="_top" xlink:title=" ">
<polygon fill="#ffffff" stroke="#000000" points="835,-272.5 835,-291.5 891,-291.5 891,-272.5 835,-272.5"/>
<text text-anchor="middle" x="863" y="-279.5" font-family="Helvetica,sans-Serif" font-size="10.00" fill="#000000">_dheader</text>
</a>
</g>
</g>
<!-- Node28&#45;&gt;Node27 -->
<g id="edge29" class="edge">
<title>Node28&#45;&gt;Node27</title>
<path fill="none" stroke="#9a32cd" stroke-dasharray="5,2" d="M847.0384,-264.7264C832.3192,-248.7975 810.9937,-225.7192 799.0244,-212.7662"/>
<polygon fill="#9a32cd" stroke="#9a32cd" points="844.6915,-267.3439 854.0488,-272.313 849.8326,-262.5932 844.6915,-267.3439"/>
<text text-anchor="middle" x="851.5" y="-239.5" font-family="Helvetica,sans-Serif" font-size="10.00" fill="#000000"> header</text>
</g>
<!-- Node29&#45;&gt;Node27 -->
<g id="edge30" class="edge">
<title>Node29&#45;&gt;Node27</title>
<path fill="none" stroke="#9a32cd" stroke-dasharray="5,2" d="M719.6778,-407.8072C712.6979,-363.8225 698.6803,-259.2425 718,-231 719.4672,-228.8552 745.5523,-219.0431 765.9068,-211.6345"/>
<polygon fill="#9a32cd" stroke="#9a32cd" points="716.2479,-408.5207 721.314,-417.8259 723.1564,-407.3925 716.2479,-408.5207"/>
<text text-anchor="middle" x="730" y="-330.5" font-family="Helvetica,sans-Serif" font-size="10.00" fill="#000000"> records</text>
</g>
<!-- Node30 -->
<g id="node16" class="node">
<title>Node30</title>
<g id="a_node16"><a xlink:href="a00988.html" target="_top" xlink:title=" ">
<polygon fill="#ffffff" stroke="#ff0000" points="751.5,-272.5 751.5,-291.5 816.5,-291.5 816.5,-272.5 751.5,-272.5"/>
<text text-anchor="middle" x="784" y="-279.5" font-family="Helvetica,sans-Serif" font-size="10.00" fill="#000000">_sql_errors</text>
</a>
</g>
</g>
<!-- Node30&#45;&gt;Node1 -->
<g id="edge42" class="edge">
<title>Node30&#45;&gt;Node1</title>
<path fill="none" stroke="#9a32cd" stroke-dasharray="5,2" d="M776.383,-262.8344C771.8787,-252.7944 765.573,-240.6216 758,-231 750.3971,-221.3404 745.1631,-222.191 737,-213 710.2168,-182.8444 685.7365,-141.3203 675.3097,-122.709"/>
<polygon fill="#9a32cd" stroke="#9a32cd" points="773.2807,-264.4844 780.4024,-272.3287 779.7269,-261.7554 773.2807,-264.4844"/>
<text text-anchor="middle" x="747" y="-200.5" font-family="Helvetica,sans-Serif" font-size="10.00" fill="#000000"> errs</text>
</g>
<!-- Node30&#45;&gt;Node2 -->
<g id="edge33" class="edge">
<title>Node30&#45;&gt;Node2</title>
<path fill="none" stroke="#9a32cd" stroke-dasharray="5,2" d="M826.3435,-270.0376C847.1658,-263.7996 868.5498,-256.7131 872,-253 890.4024,-233.1956 887.6879,-219.4294 882,-193 864.4879,-111.6285 849.2384,-75.5975 774,-40 747.7374,-27.5744 715.1515,-19.5642 693.5272,-15.1778"/>
<polygon fill="#9a32cd" stroke="#9a32cd" points="825.1679,-266.7352 816.5662,-272.9208 827.1478,-273.4494 825.1679,-266.7352"/>
<text text-anchor="middle" x="887" y="-167" font-family="Helvetica,sans-Serif" font-size="10.00" fill="#000000"> errs</text>
</g>
<!-- Node30&#45;&gt;Node27 -->
<g id="edge32" class="edge">
<title>Node30&#45;&gt;Node27</title>
<path fill="none" stroke="#9a32cd" stroke-dasharray="5,2" d="M785.5164,-262.0339C786.7123,-246.2875 788.3286,-225.0062 789.2583,-212.7662"/>
<polygon fill="#9a32cd" stroke="#9a32cd" points="782.0032,-262.0767 784.7357,-272.313 788.9831,-262.6069 782.0032,-262.0767"/>
<text text-anchor="middle" x="797" y="-239.5" font-family="Helvetica,sans-Serif" font-size="10.00" fill="#000000"> errs</text>
</g>
<!-- Node30&#45;&gt;Node34 -->
<g id="edge46" class="edge">
<title>Node30&#45;&gt;Node34</title>
<path fill="none" stroke="#9a32cd" stroke-dasharray="5,2" d="M759.1108,-266.7629C752.209,-262.4152 744.7576,-257.6059 738,-253 718.3844,-239.6303 696.3641,-223.159 682.8376,-212.8656"/>
<polygon fill="#9a32cd" stroke="#9a32cd" points="757.727,-270.0245 768.0651,-272.343 761.4293,-264.0837 757.727,-270.0245"/>
<text text-anchor="middle" x="748" y="-239.5" font-family="Helvetica,sans-Serif" font-size="10.00" fill="#000000"> errs</text>
</g>
<!-- Node32&#45;&gt;Node1 -->
<g id="edge35" class="edge">
<title>Node32&#45;&gt;Node1</title>
<path fill="none" stroke="#9a32cd" stroke-dasharray="5,2" d="M441.7256,-184.1408C445.9768,-176.8518 451.7547,-169.0636 459,-164 489.8132,-142.4652 600.7422,-123.5219 648.2061,-116.2092"/>
<polygon fill="#9a32cd" stroke="#9a32cd" points="438.3843,-182.9804 436.8802,-193.468 444.5961,-186.2074 438.3843,-182.9804"/>
<text text-anchor="middle" x="476.5" y="-167" font-family="Helvetica,sans-Serif" font-size="10.00" fill="#000000"> bcpinfo</text>
</g>
<!-- Node33&#45;&gt;Node1 -->
<g id="edge38" class="edge">
<title>Node33&#45;&gt;Node1</title>
<path fill="none" stroke="#9a32cd" stroke-dasharray="5,2" d="M906.6854,-227.721C875.3118,-211.9489 823.1771,-185.8865 778,-164 747.7693,-149.3545 712.5506,-132.8217 690.7627,-122.655"/>
<polygon fill="#9a32cd" stroke="#9a32cd" points="905.2187,-230.9011 915.7248,-232.2694 908.3651,-224.648 905.2187,-230.9011"/>
<text text-anchor="middle" x="883" y="-200.5" font-family="Helvetica,sans-Serif" font-size="10.00" fill="#000000"> attr</text>
</g>
<!-- Node34&#45;&gt;Node1 -->
<g id="edge43" class="edge">
<title>Node34&#45;&gt;Node1</title>
<path fill="none" stroke="#9a32cd" stroke-dasharray="5,2" d="M670,-183.22C670,-164.4155 670,-136.9332 670,-122.5623"/>
<polygon fill="#9a32cd" stroke="#9a32cd" points="666.5001,-183.3684 670,-193.3684 673.5001,-183.3685 666.5001,-183.3684"/>
<text text-anchor="middle" x="679.5" y="-167" font-family="Helvetica,sans-Serif" font-size="10.00" fill="#000000"> env</text>
</g>
<!-- Node35 -->
<g id="node20" class="node">
<title>Node35</title>
<g id="a_node20"><a xlink:href="a01004.html" target="_top" xlink:title=" ">
<polygon fill="#ffffff" stroke="#000000" points="647.5,-272.5 647.5,-291.5 694.5,-291.5 694.5,-272.5 647.5,-272.5"/>
<text text-anchor="middle" x="671" y="-279.5" font-family="Helvetica,sans-Serif" font-size="10.00" fill="#000000">_heattr</text>
</a>
</g>
</g>
<!-- Node35&#45;&gt;Node34 -->
<g id="edge45" class="edge">
<title>Node35&#45;&gt;Node34</title>
<path fill="none" stroke="#9a32cd" stroke-dasharray="5,2" d="M670.7473,-262.0339C670.5479,-246.2875 670.2786,-225.0062 670.1236,-212.7662"/>
<polygon fill="#9a32cd" stroke="#9a32cd" points="667.251,-262.3582 670.8774,-272.313 674.2504,-262.2695 667.251,-262.3582"/>
<text text-anchor="middle" x="679" y="-239.5" font-family="Helvetica,sans-Serif" font-size="10.00" fill="#000000"> attr</text>
</g>
</g>
</svg>
