<?xml version="1.0" encoding="UTF-8" standalone="no"?>
<!DOCTYPE svg PUBLIC "-//W3C//DTD SVG 1.1//EN"
 "http://www.w3.org/Graphics/SVG/1.1/DTD/svg11.dtd">
<!-- Generated by graphviz version 2.40.1 (20161225.0304)
 -->
<!-- Title: _hstmt Pages: 1 -->
<svg width="1216pt" height="1026pt"
 viewBox="0.00 0.00 1216.00 1026.00" xmlns="http://www.w3.org/2000/svg" xmlns:xlink="http://www.w3.org/1999/xlink">
<g id="graph0" class="graph" transform="scale(1 1) rotate(0) translate(4 1022)">
<title>_hstmt</title>
<polygon fill="#ffffff" stroke="transparent" points="-4,4 -4,-1022 1212,-1022 1212,4 -4,4"/>
<!-- Node1 -->
<g id="node1" class="node">
<title>Node1</title>
<g id="a_node1"><a xlink:title=" ">
<polygon fill="#bfbfbf" stroke="#000000" points="985,-656.5 985,-675.5 1032,-675.5 1032,-656.5 985,-656.5"/>
<text text-anchor="middle" x="1008.5" y="-663.5" font-family="Helvetica,sans-Serif" font-size="10.00" fill="#000000">_hstmt</text>
</a>
</g>
</g>
<!-- Node1&#45;&gt;Node1 -->
<g id="edge1" class="edge">
<title>Node1&#45;&gt;Node1</title>
<path fill="none" stroke="#9a32cd" stroke-dasharray="5,2" d="M991.8341,-685.4C992.9472,-690.3146 998.5024,-694 1008.5,-694 1024.4961,-694 1029.12,-684.5653 1022.3716,-675.7571"/>
<polygon fill="#9a32cd" stroke="#9a32cd" points="995.2068,-686.3361 994.6284,-675.7571 988.4834,-684.3878 995.2068,-686.3361"/>
<text text-anchor="middle" x="1008.5" y="-708" font-family="Helvetica,sans-Serif" font-size="10.00" fill="#000000"> prev</text>
<text text-anchor="middle" x="1008.5" y="-697" font-family="Helvetica,sans-Serif" font-size="10.00" fill="#000000">next</text>
</g>
<!-- Node25 -->
<g id="node17" class="node">
<title>Node25</title>
<g id="a_node17"><a xlink:href="a01020.html" target="_top" xlink:title=" ">
<polygon fill="#ffffff" stroke="#000000" points="1165,-701.5 1165,-720.5 1208,-720.5 1208,-701.5 1165,-701.5"/>
<text text-anchor="middle" x="1186.5" y="-708.5" font-family="Helvetica,sans-Serif" font-size="10.00" fill="#000000">_hdbc</text>
</a>
</g>
</g>
<!-- Node1&#45;&gt;Node25 -->
<g id="edge29" class="edge">
<title>Node1&#45;&gt;Node25</title>
<path fill="none" stroke="#9a32cd" stroke-dasharray="5,2" d="M1042.2198,-657.172C1071.3972,-651.3682 1113.9745,-647.4071 1147,-663 1163.7857,-670.9253 1175.8465,-689.869 1181.9542,-701.4474"/>
<polygon fill="#9a32cd" stroke="#9a32cd" points="1041.1509,-653.8224 1032.119,-659.3609 1042.6334,-660.6636 1041.1509,-653.8224"/>
<text text-anchor="middle" x="1107.5" y="-677" font-family="Helvetica,sans-Serif" font-size="10.00" fill="#000000"> stmt_list</text>
<text text-anchor="middle" x="1107.5" y="-666" font-family="Helvetica,sans-Serif" font-size="10.00" fill="#000000">current_statement</text>
</g>
<!-- Node2 -->
<g id="node2" class="node">
<title>Node2</title>
<g id="a_node2"><a xlink:href="a01224.html" target="_top" xlink:title="Information for a server connection.">
<polygon fill="#ffffff" stroke="#000000" points="427,-408.5 427,-427.5 492,-427.5 492,-408.5 427,-408.5"/>
<text text-anchor="middle" x="459.5" y="-415.5" font-family="Helvetica,sans-Serif" font-size="10.00" fill="#000000">tds_socket</text>
</a>
</g>
</g>
<!-- Node2&#45;&gt;Node1 -->
<g id="edge2" class="edge">
<title>Node2&#45;&gt;Node1</title>
<path fill="none" stroke="#9a32cd" stroke-dasharray="5,2" d="M461.2358,-438.1571C464.8943,-467.6904 476.1032,-522.4135 510,-552 583.2389,-615.9258 895.9863,-653.9068 984.8599,-663.5503"/>
<polygon fill="#9a32cd" stroke="#9a32cd" points="464.6774,-437.4206 460.1425,-427.8453 457.7164,-438.1586 464.6774,-437.4206"/>
<text text-anchor="middle" x="729.5" y="-633" font-family="Helvetica,sans-Serif" font-size="10.00" fill="#000000"> tds</text>
</g>
<!-- Node9 -->
<g id="node8" class="node">
<title>Node9</title>
<g id="a_node8"><a xlink:href="a01172.html" target="_top" xlink:title="Hold information for any results.">
<polygon fill="#ffffff" stroke="#ff0000" points="600.5,-459.5 600.5,-478.5 680.5,-478.5 680.5,-459.5 600.5,-459.5"/>
<text text-anchor="middle" x="640.5" y="-466.5" font-family="Helvetica,sans-Serif" font-size="10.00" fill="#000000">tds_result_info</text>
</a>
</g>
</g>
<!-- Node2&#45;&gt;Node9 -->
<g id="edge11" class="edge">
<title>Node2&#45;&gt;Node9</title>
<path fill="none" stroke="#9a32cd" stroke-dasharray="5,2" d="M467.2451,-437.1956C475.1967,-454.0331 489.341,-477.43 510,-488 546.0766,-506.4582 594.6506,-490.3094 621.1943,-478.5847"/>
<polygon fill="#9a32cd" stroke="#9a32cd" points="470.3157,-435.4828 463.0915,-427.7328 463.906,-438.2963 470.3157,-435.4828"/>
<text text-anchor="middle" x="542.5" y="-500" font-family="Helvetica,sans-Serif" font-size="10.00" fill="#000000"> attached_to</text>
</g>
<!-- Node2&#45;&gt;Node25 -->
<g id="edge30" class="edge">
<title>Node2&#45;&gt;Node25</title>
<path fill="none" stroke="#9a32cd" stroke-dasharray="5,2" d="M464.624,-437.5131C471.3485,-459.1441 485.3018,-493.4252 510,-512 625.7188,-599.0288 1028.1303,-566.327 1147,-649 1165.8601,-662.117 1177.7264,-687.4401 1183.1097,-701.3196"/>
<polygon fill="#9a32cd" stroke="#9a32cd" points="467.9487,-436.4102 461.8177,-427.7695 461.2221,-438.3475 467.9487,-436.4102"/>
<text text-anchor="middle" x="819" y="-589" font-family="Helvetica,sans-Serif" font-size="10.00" fill="#000000"> tds_socket</text>
</g>
<!-- Node3 -->
<g id="node3" class="node">
<title>Node3</title>
<g id="a_node3"><a xlink:href="a01132.html" target="_top" xlink:title=" ">
<polygon fill="#ffffff" stroke="#000000" points="237,-408.5 237,-427.5 293,-427.5 293,-408.5 237,-408.5"/>
<text text-anchor="middle" x="265" y="-415.5" font-family="Helvetica,sans-Serif" font-size="10.00" fill="#000000">tds_login</text>
</a>
</g>
</g>
<!-- Node3&#45;&gt;Node2 -->
<g id="edge3" class="edge">
<title>Node3&#45;&gt;Node2</title>
<path fill="none" stroke="#9a32cd" stroke-dasharray="5,2" d="M303.4287,-418C339.5202,-418 392.9246,-418 426.963,-418"/>
<polygon fill="#9a32cd" stroke="#9a32cd" points="303.282,-414.5001 293.282,-418 303.2819,-421.5001 303.282,-414.5001"/>
<text text-anchor="middle" x="374" y="-421" font-family="Helvetica,sans-Serif" font-size="10.00" fill="#000000"> login</text>
</g>
<!-- Node4 -->
<g id="node4" class="node">
<title>Node4</title>
<g id="a_node4"><a xlink:href="a01128.html" target="_top" xlink:title=" ">
<polygon fill="#ffffff" stroke="#ff0000" points="0,-87.5 0,-106.5 84,-106.5 84,-87.5 0,-87.5"/>
<text text-anchor="middle" x="42" y="-94.5" font-family="Helvetica,sans-Serif" font-size="10.00" fill="#000000">tds_capabilities</text>
</a>
</g>
</g>
<!-- Node4&#45;&gt;Node3 -->
<g id="edge4" class="edge">
<title>Node4&#45;&gt;Node3</title>
<path fill="none" stroke="#9a32cd" stroke-dasharray="5,2" d="M54.5067,-115.0029C95.8487,-174.5132 227.2463,-363.655 258.3521,-408.4306"/>
<polygon fill="#9a32cd" stroke="#9a32cd" points="57.2538,-112.8227 48.6739,-106.6069 51.5049,-116.8165 57.2538,-112.8227"/>
<text text-anchor="middle" x="146.5" y="-309" font-family="Helvetica,sans-Serif" font-size="10.00" fill="#000000"> capabilities</text>
</g>
<!-- Node19 -->
<g id="node11" class="node">
<title>Node19</title>
<g id="a_node11"><a xlink:href="a01220.html" target="_top" xlink:title=" ">
<polygon fill="#ffffff" stroke="#000000" points="967,-169.5 967,-188.5 1050,-188.5 1050,-169.5 967,-169.5"/>
<text text-anchor="middle" x="1008.5" y="-176.5" font-family="Helvetica,sans-Serif" font-size="10.00" fill="#000000">tds_connection</text>
</a>
</g>
</g>
<!-- Node4&#45;&gt;Node19 -->
<g id="edge18" class="edge">
<title>Node4&#45;&gt;Node19</title>
<path fill="none" stroke="#9a32cd" stroke-dasharray="5,2" d="M62.4043,-81.2906C100.1719,-53.8323 184.4832,0 265,0 265,0 265,0 819,0 879.9975,0 903.997,-2.8245 949,-44 987.7385,-79.4438 1002.5893,-144.691 1006.9689,-169.2812"/>
<polygon fill="#9a32cd" stroke="#9a32cd" points="60.1899,-78.5754 54.2442,-87.3446 64.3608,-84.1971 60.1899,-78.5754"/>
<text text-anchor="middle" x="542.5" y="-3" font-family="Helvetica,sans-Serif" font-size="10.00" fill="#000000"> capabilities</text>
</g>
<!-- Node6 -->
<g id="node5" class="node">
<title>Node6</title>
<g id="a_node5"><a xlink:href="a01268.html" target="_top" xlink:title="Structure to hold a string.">
<polygon fill="#ffffff" stroke="#000000" points="16,-723.5 16,-742.5 68,-742.5 68,-723.5 16,-723.5"/>
<text text-anchor="middle" x="42" y="-730.5" font-family="Helvetica,sans-Serif" font-size="10.00" fill="#000000">tds_dstr</text>
</a>
</g>
</g>
<!-- Node6&#45;&gt;Node1 -->
<g id="edge51" class="edge">
<title>Node6&#45;&gt;Node1</title>
<path fill="none" stroke="#9a32cd" stroke-dasharray="5,2" d="M78.32,-733C122.4557,-733 199.1901,-733 265,-733 265,-733 265,-733 640.5,-733 741.1676,-733 768.8471,-756.3604 867,-734 916.6944,-722.679 969.2906,-691.6135 994.0331,-675.6897"/>
<polygon fill="#9a32cd" stroke="#9a32cd" points="78.092,-729.5001 68.092,-733 78.0919,-736.5001 78.092,-729.5001"/>
<text text-anchor="middle" x="542.5" y="-747" font-family="Helvetica,sans-Serif" font-size="10.00" fill="#000000"> query</text>
<text text-anchor="middle" x="542.5" y="-736" font-family="Helvetica,sans-Serif" font-size="10.00" fill="#000000">cursor_name</text>
</g>
<!-- Node6&#45;&gt;Node3 -->
<g id="edge5" class="edge">
<title>Node6&#45;&gt;Node3</title>
<path fill="none" stroke="#9a32cd" stroke-dasharray="5,2" d="M42.8993,-713.2451C46.1216,-652.1031 59.2723,-467.8087 102,-430 138.9753,-397.2814 200.9892,-403.496 236.9233,-410.8341"/>
<polygon fill="#9a32cd" stroke="#9a32cd" points="39.3925,-713.2994 42.3948,-723.46 46.3839,-713.6449 39.3925,-713.2994"/>
<text text-anchor="middle" x="146.5" y="-554" font-family="Helvetica,sans-Serif" font-size="10.00" fill="#000000"> server_realm_name</text>
<text text-anchor="middle" x="146.5" y="-543" font-family="Helvetica,sans-Serif" font-size="10.00" fill="#000000">password</text>
<text text-anchor="middle" x="146.5" y="-532" font-family="Helvetica,sans-Serif" font-size="10.00" fill="#000000">server_name</text>
<text text-anchor="middle" x="146.5" y="-521" font-family="Helvetica,sans-Serif" font-size="10.00" fill="#000000">dump_file</text>
<text text-anchor="middle" x="146.5" y="-510" font-family="Helvetica,sans-Serif" font-size="10.00" fill="#000000">library</text>
<text text-anchor="middle" x="146.5" y="-499" font-family="Helvetica,sans-Serif" font-size="10.00" fill="#000000">crlfile</text>
<text text-anchor="middle" x="146.5" y="-488" font-family="Helvetica,sans-Serif" font-size="10.00" fill="#000000">server_spn</text>
<text text-anchor="start" x="102" y="-477" font-family="Helvetica,sans-Serif" font-size="10.00" fill="#000000">client_host</text>
<text text-anchor="middle" x="146.5" y="-466" font-family="Helvetica,sans-Serif" font-size="10.00" fill="#000000">_name</text>
<text text-anchor="middle" x="146.5" y="-455" font-family="Helvetica,sans-Serif" font-size="10.00" fill="#000000">client_charset</text>
<text text-anchor="middle" x="146.5" y="-444" font-family="Helvetica,sans-Serif" font-size="10.00" fill="#000000">openssl_ciphers</text>
<text text-anchor="middle" x="146.5" y="-433" font-family="Helvetica,sans-Serif" font-size="10.00" fill="#000000">...</text>
</g>
<!-- Node6&#45;&gt;Node25 -->
<g id="edge36" class="edge">
<title>Node6&#45;&gt;Node25</title>
<path fill="none" stroke="#9a32cd" stroke-dasharray="5,2" d="M45.3315,-752.4541C53.5479,-798.3536 76.0108,-911.5961 102,-939 154.8113,-994.6861 188.2538,-996 265,-996 265,-996 265,-996 1008.5,-996 1082.894,-996 1105.6583,-963.8493 1147,-902 1167.4167,-871.4556 1181.6023,-755.456 1185.4506,-720.8212"/>
<polygon fill="#9a32cd" stroke="#9a32cd" points="48.7711,-751.8046 43.5957,-742.5598 41.8764,-753.0142 48.7711,-751.8046"/>
<text text-anchor="middle" x="640.5" y="-1010" font-family="Helvetica,sans-Serif" font-size="10.00" fill="#000000"> oldpwd</text>
<text text-anchor="middle" x="640.5" y="-999" font-family="Helvetica,sans-Serif" font-size="10.00" fill="#000000">dsn</text>
</g>
<!-- Node26 -->
<g id="node18" class="node">
<title>Node26</title>
<g id="a_node18"><a xlink:href="a01232.html" target="_top" xlink:title=" ">
<polygon fill="#ffffff" stroke="#000000" points="785.5,-474.5 785.5,-493.5 852.5,-493.5 852.5,-474.5 785.5,-474.5"/>
<text text-anchor="middle" x="819" y="-481.5" font-family="Helvetica,sans-Serif" font-size="10.00" fill="#000000">tds_bcpinfo</text>
</a>
</g>
</g>
<!-- Node6&#45;&gt;Node26 -->
<g id="edge33" class="edge">
<title>Node6&#45;&gt;Node26</title>
<path fill="none" stroke="#9a32cd" stroke-dasharray="5,2" d="M54.7379,-715.0917C85.6693,-673.912 169.2788,-576 265,-576 265,-576 265,-576 542.5,-576 594.2293,-576 739.7549,-517.2924 796.2127,-493.6717"/>
<polygon fill="#9a32cd" stroke="#9a32cd" points="51.8964,-713.0479 48.796,-723.1789 57.5375,-717.1926 51.8964,-713.0479"/>
<text text-anchor="middle" x="459.5" y="-579" font-family="Helvetica,sans-Serif" font-size="10.00" fill="#000000"> tablename</text>
</g>
<!-- Node27 -->
<g id="node19" class="node">
<title>Node27</title>
<g id="a_node19"><a xlink:href="a01016.html" target="_top" xlink:title=" ">
<polygon fill="#ffffff" stroke="#000000" points="350.5,-940.5 350.5,-959.5 397.5,-959.5 397.5,-940.5 350.5,-940.5"/>
<text text-anchor="middle" x="374" y="-947.5" font-family="Helvetica,sans-Serif" font-size="10.00" fill="#000000">_hcattr</text>
</a>
</g>
</g>
<!-- Node6&#45;&gt;Node27 -->
<g id="edge35" class="edge">
<title>Node6&#45;&gt;Node27</title>
<path fill="none" stroke="#9a32cd" stroke-dasharray="5,2" d="M51.9141,-751.6208C74.1124,-791.2639 131.9694,-883.8211 209,-926 254.3215,-950.8162 316.6603,-952.6938 350.2509,-951.5562"/>
<polygon fill="#9a32cd" stroke="#9a32cd" points="54.9247,-749.8316 47.0487,-742.7449 48.7864,-753.1963 54.9247,-749.8316"/>
<text text-anchor="middle" x="146.5" y="-927" font-family="Helvetica,sans-Serif" font-size="10.00" fill="#000000"> translate_lib</text>
<text text-anchor="middle" x="146.5" y="-916" font-family="Helvetica,sans-Serif" font-size="10.00" fill="#000000">current_catalog</text>
</g>
<!-- Node30 -->
<g id="node22" class="node">
<title>Node30</title>
<g id="a_node22"><a xlink:href="a00996.html" target="_top" xlink:title=" ">
<polygon fill="#ffffff" stroke="#000000" points="515.5,-823.5 515.5,-842.5 569.5,-842.5 569.5,-823.5 515.5,-823.5"/>
<text text-anchor="middle" x="542.5" y="-830.5" font-family="Helvetica,sans-Serif" font-size="10.00" fill="#000000">_drecord</text>
</a>
</g>
</g>
<!-- Node6&#45;&gt;Node30 -->
<g id="edge40" class="edge">
<title>Node6&#45;&gt;Node30</title>
<path fill="none" stroke="#9a32cd" stroke-dasharray="5,2" d="M78.1603,-741.9553C85.995,-743.7504 94.254,-745.5331 102,-747 198.6491,-765.3032 224.4427,-760.2188 321,-779 391.7124,-792.7542 473.8339,-814.245 515.4018,-825.5201"/>
<polygon fill="#9a32cd" stroke="#9a32cd" points="78.7193,-738.4915 68.1841,-739.614 77.1198,-745.3063 78.7193,-738.4915"/>
<text text-anchor="middle" x="265" y="-914" font-family="Helvetica,sans-Serif" font-size="10.00" fill="#000000"> sql_desc_schema_name</text>
<text text-anchor="middle" x="265" y="-903" font-family="Helvetica,sans-Serif" font-size="10.00" fill="#000000">sql_desc_name</text>
<text text-anchor="start" x="209" y="-892" font-family="Helvetica,sans-Serif" font-size="10.00" fill="#000000">sql_desc_base_column</text>
<text text-anchor="middle" x="265" y="-881" font-family="Helvetica,sans-Serif" font-size="10.00" fill="#000000">_name</text>
<text text-anchor="start" x="209" y="-870" font-family="Helvetica,sans-Serif" font-size="10.00" fill="#000000">sql_desc_base_table</text>
<text text-anchor="middle" x="265" y="-859" font-family="Helvetica,sans-Serif" font-size="10.00" fill="#000000">_name</text>
<text text-anchor="start" x="209" y="-848" font-family="Helvetica,sans-Serif" font-size="10.00" fill="#000000">sql_desc_catalog</text>
<text text-anchor="middle" x="265" y="-837" font-family="Helvetica,sans-Serif" font-size="10.00" fill="#000000">_name</text>
<text text-anchor="start" x="209" y="-826" font-family="Helvetica,sans-Serif" font-size="10.00" fill="#000000">sql_desc_table</text>
<text text-anchor="middle" x="265" y="-815" font-family="Helvetica,sans-Serif" font-size="10.00" fill="#000000">_name</text>
<text text-anchor="middle" x="265" y="-804" font-family="Helvetica,sans-Serif" font-size="10.00" fill="#000000">sql_desc_label</text>
<text text-anchor="start" x="209" y="-793" font-family="Helvetica,sans-Serif" font-size="10.00" fill="#000000">sql_desc_local</text>
<text text-anchor="middle" x="265" y="-782" font-family="Helvetica,sans-Serif" font-size="10.00" fill="#000000">_type_name</text>
</g>
<!-- Node35 -->
<g id="node26" class="node">
<title>Node35</title>
<g id="a_node26"><a xlink:href="a01024.html" target="_top" xlink:title=" ">
<polygon fill="#ffffff" stroke="#000000" points="706,-668.5 706,-687.5 753,-687.5 753,-668.5 706,-668.5"/>
<text text-anchor="middle" x="729.5" y="-675.5" font-family="Helvetica,sans-Serif" font-size="10.00" fill="#000000">_hsattr</text>
</a>
</g>
</g>
<!-- Node6&#45;&gt;Node35 -->
<g id="edge48" class="edge">
<title>Node6&#45;&gt;Node35</title>
<path fill="none" stroke="#9a32cd" stroke-dasharray="5,2" d="M77.6545,-720.9715C121.2958,-707.3422 197.7038,-687 265,-687 265,-687 265,-687 542.5,-687 601.3302,-687 670.4508,-682.501 705.9018,-679.8648"/>
<polygon fill="#9a32cd" stroke="#9a32cd" points="76.5398,-717.6533 68.0725,-724.0215 78.663,-724.3235 76.5398,-717.6533"/>
<text text-anchor="middle" x="374" y="-701" font-family="Helvetica,sans-Serif" font-size="10.00" fill="#000000"> qn_msgtext</text>
<text text-anchor="middle" x="374" y="-690" font-family="Helvetica,sans-Serif" font-size="10.00" fill="#000000">qn_options</text>
</g>
<!-- Node7 -->
<g id="node6" class="node">
<title>Node7</title>
<g id="a_node6"><a xlink:href="a01212.html" target="_top" xlink:title=" ">
<polygon fill="#ffffff" stroke="#000000" points="232.5,-184.5 232.5,-203.5 297.5,-203.5 297.5,-184.5 232.5,-184.5"/>
<text text-anchor="middle" x="265" y="-191.5" font-family="Helvetica,sans-Serif" font-size="10.00" fill="#000000">tds_packet</text>
</a>
</g>
</g>
<!-- Node7&#45;&gt;Node2 -->
<g id="edge6" class="edge">
<title>Node7&#45;&gt;Node2</title>
<path fill="none" stroke="#9a32cd" stroke-dasharray="5,2" d="M280.022,-211.3004C318.7849,-255.9425 421.2361,-373.9326 451.1737,-408.4109"/>
<polygon fill="#9a32cd" stroke="#9a32cd" points="282.5566,-208.8811 273.3574,-203.625 277.271,-213.4705 282.5566,-208.8811"/>
<text text-anchor="middle" x="374" y="-383" font-family="Helvetica,sans-Serif" font-size="10.00" fill="#000000"> frozen_packets</text>
<text text-anchor="middle" x="374" y="-372" font-family="Helvetica,sans-Serif" font-size="10.00" fill="#000000">recv_packet</text>
<text text-anchor="middle" x="374" y="-361" font-family="Helvetica,sans-Serif" font-size="10.00" fill="#000000">send_packet</text>
</g>
<!-- Node7&#45;&gt;Node7 -->
<g id="edge7" class="edge">
<title>Node7&#45;&gt;Node7</title>
<path fill="none" stroke="#9a32cd" stroke-dasharray="5,2" d="M245.001,-213.4C246.3366,-218.3146 253.0029,-222 265,-222 284.1953,-222 289.744,-212.5653 281.6459,-203.7571"/>
<polygon fill="#9a32cd" stroke="#9a32cd" points="248.3755,-214.3519 248.3541,-203.7571 241.7638,-212.0528 248.3755,-214.3519"/>
<text text-anchor="middle" x="265" y="-225" font-family="Helvetica,sans-Serif" font-size="10.00" fill="#000000"> next</text>
</g>
<!-- Node7&#45;&gt;Node19 -->
<g id="edge23" class="edge">
<title>Node7&#45;&gt;Node19</title>
<path fill="none" stroke="#9a32cd" stroke-dasharray="5,2" d="M276.6797,-175.8338C303.6812,-136.3038 374.6501,-46 459.5,-46 459.5,-46 459.5,-46 819,-46 878.3978,-46 901.3008,-41.6039 949,-77 981.5973,-101.1894 999.3639,-148.9778 1005.7411,-169.3903"/>
<polygon fill="#9a32cd" stroke="#9a32cd" points="273.6785,-174.026 271.0489,-184.2893 279.5048,-177.9059 273.6785,-174.026"/>
<text text-anchor="middle" x="640.5" y="-49" font-family="Helvetica,sans-Serif" font-size="10.00" fill="#000000"> packet_cache</text>
</g>
<!-- Node8 -->
<g id="node7" class="node">
<title>Node8</title>
<g id="a_node7"><a xlink:href="a01196.html" target="_top" xlink:title="Holds information for a dynamic (also called prepared) query.">
<polygon fill="#ffffff" stroke="#000000" points="783,-407.5 783,-426.5 855,-426.5 855,-407.5 783,-407.5"/>
<text text-anchor="middle" x="819" y="-414.5" font-family="Helvetica,sans-Serif" font-size="10.00" fill="#000000">tds_dynamic</text>
</a>
</g>
</g>
<!-- Node8&#45;&gt;Node1 -->
<g id="edge27" class="edge">
<title>Node8&#45;&gt;Node1</title>
<path fill="none" stroke="#9a32cd" stroke-dasharray="5,2" d="M844.5804,-431.7413C878.0435,-451.4468 934.1684,-486.0804 949,-505 987.2399,-553.78 1002.6193,-629.5777 1007.0421,-656.2869"/>
<polygon fill="#9a32cd" stroke="#9a32cd" points="846.1954,-428.6312 835.7962,-426.6047 842.6618,-434.674 846.1954,-428.6312"/>
<text text-anchor="middle" x="917" y="-508" font-family="Helvetica,sans-Serif" font-size="10.00" fill="#000000"> dyn</text>
</g>
<!-- Node8&#45;&gt;Node2 -->
<g id="edge8" class="edge">
<title>Node8&#45;&gt;Node2</title>
<path fill="none" stroke="#9a32cd" stroke-dasharray="5,2" d="M772.4313,-417.1295C698.4828,-417.3352 556.0381,-417.7315 492.0373,-417.9095"/>
<polygon fill="#9a32cd" stroke="#9a32cd" points="772.8371,-420.6285 782.8273,-417.1006 772.8176,-413.6285 772.8371,-420.6285"/>
<text text-anchor="middle" x="640.5" y="-421" font-family="Helvetica,sans-Serif" font-size="10.00" fill="#000000"> cur_dyn</text>
</g>
<!-- Node8&#45;&gt;Node8 -->
<g id="edge9" class="edge">
<title>Node8&#45;&gt;Node8</title>
<path fill="none" stroke="#9a32cd" stroke-dasharray="5,2" d="M802.7045,-436.4C803.7928,-441.3146 809.2246,-445 819,-445 834.6406,-445 839.1617,-435.5653 832.5634,-426.7571"/>
<polygon fill="#9a32cd" stroke="#9a32cd" points="806.078,-437.3325 805.4366,-426.7571 799.3431,-435.4242 806.078,-437.3325"/>
<text text-anchor="middle" x="819" y="-448" font-family="Helvetica,sans-Serif" font-size="10.00" fill="#000000"> next</text>
</g>
<!-- Node8&#45;&gt;Node19 -->
<g id="edge24" class="edge">
<title>Node8&#45;&gt;Node19</title>
<path fill="none" stroke="#9a32cd" stroke-dasharray="5,2" d="M865.3028,-410.5836C897.5986,-405.2075 936.9774,-396.553 949,-385 978.4586,-356.6919 1001.1431,-225.4823 1007.0128,-188.6425"/>
<polygon fill="#9a32cd" stroke="#9a32cd" points="864.4317,-407.1783 855.1097,-412.2134 865.5369,-414.0905 864.4317,-407.1783"/>
<text text-anchor="middle" x="917" y="-410" font-family="Helvetica,sans-Serif" font-size="10.00" fill="#000000"> dyns</text>
</g>
<!-- Node9&#45;&gt;Node1 -->
<g id="edge49" class="edge">
<title>Node9&#45;&gt;Node1</title>
<path fill="none" stroke="#9a32cd" stroke-dasharray="5,2" d="M673.7744,-482.1688C684.0566,-486.1114 695.4518,-490.3532 706,-494 776.8141,-518.4825 799.8075,-510.846 867,-544 907.0317,-563.7523 915.4021,-572.6083 949,-602 969.0966,-619.5806 989.6834,-643.2379 1000.5876,-656.3068"/>
<polygon fill="#9a32cd" stroke="#9a32cd" points="674.9105,-478.8555 664.3213,-478.5096 672.3835,-485.3835 674.9105,-478.8555"/>
<text text-anchor="middle" x="819" y="-547" font-family="Helvetica,sans-Serif" font-size="10.00" fill="#000000"> params</text>
</g>
<!-- Node9&#45;&gt;Node2 -->
<g id="edge12" class="edge">
<title>Node9&#45;&gt;Node2</title>
<path fill="none" stroke="#9a32cd" stroke-dasharray="5,2" d="M612.9324,-455.1135C601.4347,-449.7679 587.799,-443.9945 575,-440 547.7201,-431.4861 515.7347,-425.7047 492.3492,-422.2134"/>
<polygon fill="#9a32cd" stroke="#9a32cd" points="611.4901,-458.3033 622.0222,-459.4547 614.5069,-451.9867 611.4901,-458.3033"/>
<text text-anchor="middle" x="542.5" y="-476" font-family="Helvetica,sans-Serif" font-size="10.00" fill="#000000"> param_info</text>
<text text-anchor="middle" x="542.5" y="-465" font-family="Helvetica,sans-Serif" font-size="10.00" fill="#000000">current_results</text>
<text text-anchor="middle" x="542.5" y="-454" font-family="Helvetica,sans-Serif" font-size="10.00" fill="#000000">res_info</text>
<text text-anchor="middle" x="542.5" y="-443" font-family="Helvetica,sans-Serif" font-size="10.00" fill="#000000">comp_info</text>
</g>
<!-- Node9&#45;&gt;Node8 -->
<g id="edge10" class="edge">
<title>Node9&#45;&gt;Node8</title>
<path fill="none" stroke="#9a32cd" stroke-dasharray="5,2" d="M681.2077,-456.4295C689.4072,-453.9372 697.9719,-451.3621 706,-449 732.2109,-441.2879 761.9428,-432.8818 784.3282,-426.6213"/>
<polygon fill="#9a32cd" stroke="#9a32cd" points="679.9904,-453.1416 671.4479,-459.4087 682.0341,-459.8366 679.9904,-453.1416"/>
<text text-anchor="middle" x="729.5" y="-463" font-family="Helvetica,sans-Serif" font-size="10.00" fill="#000000"> res_info</text>
<text text-anchor="middle" x="729.5" y="-452" font-family="Helvetica,sans-Serif" font-size="10.00" fill="#000000">params</text>
</g>
<!-- Node17 -->
<g id="node9" class="node">
<title>Node17</title>
<g id="a_node9"><a xlink:href="a01188.html" target="_top" xlink:title="Holds informations about a cursor.">
<polygon fill="#ffffff" stroke="#000000" points="788,-340.5 788,-359.5 850,-359.5 850,-340.5 788,-340.5"/>
<text text-anchor="middle" x="819" y="-347.5" font-family="Helvetica,sans-Serif" font-size="10.00" fill="#000000">tds_cursor</text>
</a>
</g>
</g>
<!-- Node9&#45;&gt;Node17 -->
<g id="edge15" class="edge">
<title>Node9&#45;&gt;Node17</title>
<path fill="none" stroke="#9a32cd" stroke-dasharray="5,2" d="M661.4647,-453.0469C674.1857,-443.5155 690.8396,-431.2985 706,-421 739.9227,-397.9562 780.9555,-372.8366 803.0499,-359.5276"/>
<polygon fill="#9a32cd" stroke="#9a32cd" points="659.2327,-450.3463 653.3529,-459.1598 663.4455,-455.9367 659.2327,-450.3463"/>
<text text-anchor="middle" x="729.5" y="-424" font-family="Helvetica,sans-Serif" font-size="10.00" fill="#000000"> res_info</text>
</g>
<!-- Node9&#45;&gt;Node26 -->
<g id="edge32" class="edge">
<title>Node9&#45;&gt;Node26</title>
<path fill="none" stroke="#9a32cd" stroke-dasharray="5,2" d="M690.9115,-473.2363C721.1354,-475.7761 758.7416,-478.9363 785.3674,-481.1737"/>
<polygon fill="#9a32cd" stroke="#9a32cd" points="690.8169,-469.7161 680.5589,-472.3663 690.2306,-476.6915 690.8169,-469.7161"/>
<text text-anchor="middle" x="729.5" y="-482" font-family="Helvetica,sans-Serif" font-size="10.00" fill="#000000"> bindinfo</text>
</g>
<!-- Node17&#45;&gt;Node1 -->
<g id="edge50" class="edge">
<title>Node17&#45;&gt;Node1</title>
<path fill="none" stroke="#9a32cd" stroke-dasharray="5,2" d="M836.3317,-366.6966C845.6038,-375.7861 857.1159,-387.3264 867,-398 875.3523,-407.0194 874.9276,-411.9532 885,-419 909.8916,-436.4147 928.9165,-420.2071 949,-443 971.9484,-469.0443 958.2825,-485.4003 967,-519 980.5193,-571.107 998.693,-633.0091 1005.6386,-656.407"/>
<polygon fill="#9a32cd" stroke="#9a32cd" points="838.7619,-364.1778 829.1549,-359.7106 833.8793,-369.1938 838.7619,-364.1778"/>
<text text-anchor="middle" x="917" y="-446" font-family="Helvetica,sans-Serif" font-size="10.00" fill="#000000"> cursor</text>
</g>
<!-- Node17&#45;&gt;Node2 -->
<g id="edge13" class="edge">
<title>Node17&#45;&gt;Node2</title>
<path fill="none" stroke="#9a32cd" stroke-dasharray="5,2" d="M784.6967,-337.1049C739.6582,-322.1412 658.614,-302.0371 593,-323 539.3478,-340.1412 488.8284,-387.5966 468.6908,-408.22"/>
<polygon fill="#9a32cd" stroke="#9a32cd" points="783.6807,-340.4566 794.2754,-340.3919 785.9528,-333.8356 783.6807,-340.4566"/>
<text text-anchor="middle" x="640.5" y="-326" font-family="Helvetica,sans-Serif" font-size="10.00" fill="#000000"> cur_cursor</text>
</g>
<!-- Node17&#45;&gt;Node17 -->
<g id="edge16" class="edge">
<title>Node17&#45;&gt;Node17</title>
<path fill="none" stroke="#9a32cd" stroke-dasharray="5,2" d="M802.7045,-369.4C803.7928,-374.3146 809.2246,-378 819,-378 834.6406,-378 839.1617,-368.5653 832.5634,-359.7571"/>
<polygon fill="#9a32cd" stroke="#9a32cd" points="806.078,-370.3325 805.4366,-359.7571 799.3431,-368.4242 806.078,-370.3325"/>
<text text-anchor="middle" x="819" y="-381" font-family="Helvetica,sans-Serif" font-size="10.00" fill="#000000"> next</text>
</g>
<!-- Node17&#45;&gt;Node19 -->
<g id="edge26" class="edge">
<title>Node17&#45;&gt;Node19</title>
<path fill="none" stroke="#9a32cd" stroke-dasharray="5,2" d="M860.4087,-340.4123C895.8179,-331.9086 942.1272,-319.9422 949,-314 988.7191,-279.6587 1002.98,-213.7483 1007.0857,-188.8501"/>
<polygon fill="#9a32cd" stroke="#9a32cd" points="859.2078,-337.1002 850.2897,-342.8202 860.8283,-343.9101 859.2078,-337.1002"/>
<text text-anchor="middle" x="917" y="-337" font-family="Helvetica,sans-Serif" font-size="10.00" fill="#000000"> cursors</text>
</g>
<!-- Node18 -->
<g id="node10" class="node">
<title>Node18</title>
<g id="a_node10"><a xlink:href="a01184.html" target="_top" xlink:title=" ">
<polygon fill="#ffffff" stroke="#000000" points="593,-343.5 593,-362.5 688,-362.5 688,-343.5 593,-343.5"/>
<text text-anchor="middle" x="640.5" y="-350.5" font-family="Helvetica,sans-Serif" font-size="10.00" fill="#000000">tds_cursor_status</text>
</a>
</g>
</g>
<!-- Node18&#45;&gt;Node17 -->
<g id="edge14" class="edge">
<title>Node18&#45;&gt;Node17</title>
<path fill="none" stroke="#9a32cd" stroke-dasharray="5,2" d="M698.2495,-351.1679C700.8689,-351.1064 703.462,-351.05 706,-351 733.6572,-350.4554 765.1279,-350.2074 787.8213,-350.0944"/>
<polygon fill="#9a32cd" stroke="#9a32cd" points="697.9851,-347.6733 688.0773,-351.4262 698.1629,-354.6711 697.9851,-347.6733"/>
<text text-anchor="middle" x="729.5" y="-354" font-family="Helvetica,sans-Serif" font-size="10.00" fill="#000000"> status</text>
</g>
<!-- Node19&#45;&gt;Node2 -->
<g id="edge17" class="edge">
<title>Node19&#45;&gt;Node2</title>
<path fill="none" stroke="#9a32cd" stroke-dasharray="5,2" d="M978.6854,-165.548C933.0213,-146.8641 843.439,-117.8293 771,-141 635.3293,-184.3963 604.8984,-220.7734 510,-327 487.0083,-352.7362 470.2134,-390.7249 463.167,-408.3568"/>
<polygon fill="#9a32cd" stroke="#9a32cd" points="977.429,-168.8165 988.0037,-169.4689 980.1439,-162.3644 977.429,-168.8165"/>
<text text-anchor="middle" x="729.5" y="-167" font-family="Helvetica,sans-Serif" font-size="10.00" fill="#000000"> conn</text>
</g>
<!-- Node20 -->
<g id="node12" class="node">
<title>Node20</title>
<g id="a_node12"><a xlink:href="a01216.html" target="_top" xlink:title=" ">
<polygon fill="#ffffff" stroke="#000000" points="774.5,-150.5 774.5,-169.5 863.5,-169.5 863.5,-150.5 774.5,-150.5"/>
<text text-anchor="middle" x="819" y="-157.5" font-family="Helvetica,sans-Serif" font-size="10.00" fill="#000000">tds_poll_wakeup</text>
</a>
</g>
</g>
<!-- Node20&#45;&gt;Node19 -->
<g id="edge19" class="edge">
<title>Node20&#45;&gt;Node19</title>
<path fill="none" stroke="#9a32cd" stroke-dasharray="5,2" d="M873.7517,-159.77C897.0373,-160.2754 924.4347,-161.6692 949,-165 956.7816,-166.0551 965.0362,-167.67 972.84,-169.433"/>
<polygon fill="#9a32cd" stroke="#9a32cd" points="873.7645,-156.2698 863.7068,-159.6005 873.6463,-163.2688 873.7645,-156.2698"/>
<text text-anchor="middle" x="917" y="-168" font-family="Helvetica,sans-Serif" font-size="10.00" fill="#000000"> wakeup</text>
</g>
<!-- Node21 -->
<g id="node13" class="node">
<title>Node21</title>
<g id="a_node13"><a xlink:href="a01192.html" target="_top" xlink:title="Current environment as reported by the server.">
<polygon fill="#ffffff" stroke="#000000" points="793.5,-74.5 793.5,-93.5 844.5,-93.5 844.5,-74.5 793.5,-74.5"/>
<text text-anchor="middle" x="819" y="-81.5" font-family="Helvetica,sans-Serif" font-size="10.00" fill="#000000">tds_env</text>
</a>
</g>
</g>
<!-- Node21&#45;&gt;Node19 -->
<g id="edge20" class="edge">
<title>Node21&#45;&gt;Node19</title>
<path fill="none" stroke="#9a32cd" stroke-dasharray="5,2" d="M854.5503,-79.998C882.1097,-78.6005 920.3107,-80.5211 949,-97 978.2839,-113.8205 997.1107,-151.5352 1004.6938,-169.3413"/>
<polygon fill="#9a32cd" stroke="#9a32cd" points="854.2927,-76.5074 844.551,-80.6727 854.7639,-83.4915 854.2927,-76.5074"/>
<text text-anchor="middle" x="917" y="-100" font-family="Helvetica,sans-Serif" font-size="10.00" fill="#000000"> env</text>
</g>
<!-- Node22 -->
<g id="node14" class="node">
<title>Node22</title>
<g id="a_node14"><a xlink:href="a01204.html" target="_top" xlink:title=" ">
<polygon fill="#ffffff" stroke="#ff0000" points="785,-264.5 785,-283.5 853,-283.5 853,-264.5 785,-264.5"/>
<text text-anchor="middle" x="819" y="-271.5" font-family="Helvetica,sans-Serif" font-size="10.00" fill="#000000">tds_context</text>
</a>
</g>
</g>
<!-- Node22&#45;&gt;Node19 -->
<g id="edge21" class="edge">
<title>Node22&#45;&gt;Node19</title>
<path fill="none" stroke="#9a32cd" stroke-dasharray="5,2" d="M863.295,-268.5033C889.5616,-263.8059 922.7417,-255.2735 949,-240 971.7626,-226.7599 991.6368,-202.4408 1001.6345,-188.8505"/>
<polygon fill="#9a32cd" stroke="#9a32cd" points="862.5223,-265.0837 853.2327,-270.178 863.6716,-271.9887 862.5223,-265.0837"/>
<text text-anchor="middle" x="917" y="-267" font-family="Helvetica,sans-Serif" font-size="10.00" fill="#000000"> tds_ctx</text>
</g>
<!-- Node33 -->
<g id="node24" class="node">
<title>Node33</title>
<g id="a_node24"><a xlink:href="a01012.html" target="_top" xlink:title=" ">
<polygon fill="#ffffff" stroke="#000000" points="987,-407.5 987,-426.5 1030,-426.5 1030,-407.5 987,-407.5"/>
<text text-anchor="middle" x="1008.5" y="-414.5" font-family="Helvetica,sans-Serif" font-size="10.00" fill="#000000">_henv</text>
</a>
</g>
</g>
<!-- Node22&#45;&gt;Node33 -->
<g id="edge44" class="edge">
<title>Node22&#45;&gt;Node33</title>
<path fill="none" stroke="#9a32cd" stroke-dasharray="5,2" d="M863.1422,-279.7964C895.3589,-284.7647 935.6338,-292.7412 949,-303 984.5974,-330.3218 1000.9757,-385.0174 1006.3702,-407.2584"/>
<polygon fill="#9a32cd" stroke="#9a32cd" points="863.4157,-276.2987 853.0097,-278.29 862.3862,-283.2226 863.4157,-276.2987"/>
<text text-anchor="middle" x="917" y="-306" font-family="Helvetica,sans-Serif" font-size="10.00" fill="#000000"> tds_ctx</text>
</g>
<!-- Node24 -->
<g id="node15" class="node">
<title>Node24</title>
<g id="a_node15"><a xlink:href="a01208.html" target="_top" xlink:title=" ">
<polygon fill="#ffffff" stroke="#000000" points="771,-188.5 771,-207.5 867,-207.5 867,-188.5 771,-188.5"/>
<text text-anchor="middle" x="819" y="-195.5" font-family="Helvetica,sans-Serif" font-size="10.00" fill="#000000">tds_authentication</text>
</a>
</g>
</g>
<!-- Node24&#45;&gt;Node19 -->
<g id="edge22" class="edge">
<title>Node24&#45;&gt;Node19</title>
<path fill="none" stroke="#9a32cd" stroke-dasharray="5,2" d="M877.2906,-192.1556C906.2017,-189.2568 940.4568,-185.8223 966.7155,-183.1895"/>
<polygon fill="#9a32cd" stroke="#9a32cd" points="876.9101,-188.6761 867.3092,-193.1563 877.6085,-195.6411 876.9101,-188.6761"/>
<text text-anchor="middle" x="917" y="-195" font-family="Helvetica,sans-Serif" font-size="10.00" fill="#000000"> authentication</text>
</g>
<!-- Node11 -->
<g id="node16" class="node">
<title>Node11</title>
<g id="a_node16"><a xlink:href="a00980.html" target="_top" xlink:title=" ">
<polygon fill="#ffffff" stroke="#ff0000" points="784.5,-226.5 784.5,-245.5 853.5,-245.5 853.5,-226.5 784.5,-226.5"/>
<text text-anchor="middle" x="819" y="-233.5" font-family="Helvetica,sans-Serif" font-size="10.00" fill="#000000">tdsiconvinfo</text>
</a>
</g>
</g>
<!-- Node11&#45;&gt;Node19 -->
<g id="edge25" class="edge">
<title>Node11&#45;&gt;Node19</title>
<path fill="none" stroke="#9a32cd" stroke-dasharray="5,2" d="M863.5939,-228.5724C889.0014,-223.7187 921.2133,-216.5072 949,-207 963.5823,-202.0107 979.3313,-194.497 990.9613,-188.5088"/>
<polygon fill="#9a32cd" stroke="#9a32cd" points="862.7023,-225.178 853.509,-230.4442 863.9798,-232.0605 862.7023,-225.178"/>
<text text-anchor="middle" x="917" y="-228" font-family="Helvetica,sans-Serif" font-size="10.00" fill="#000000"> char_convs</text>
</g>
<!-- Node25&#45;&gt;Node1 -->
<g id="edge28" class="edge">
<title>Node25&#45;&gt;Node1</title>
<path fill="none" stroke="#9a32cd" stroke-dasharray="5,2" d="M1154.8122,-706.7499C1130.7328,-703.1288 1096.9348,-697.2018 1068,-689 1055.214,-685.3757 1041.3412,-680.0955 1030.2098,-675.5081"/>
<polygon fill="#9a32cd" stroke="#9a32cd" points="1154.4166,-710.2291 1164.8165,-708.2059 1155.4248,-703.3021 1154.4166,-710.2291"/>
<text text-anchor="middle" x="1107.5" y="-708" font-family="Helvetica,sans-Serif" font-size="10.00" fill="#000000"> dbc</text>
</g>
<!-- Node26&#45;&gt;Node25 -->
<g id="edge31" class="edge">
<title>Node26&#45;&gt;Node25</title>
<path fill="none" stroke="#9a32cd" stroke-dasharray="5,2" d="M862.8478,-488.9983C942.5753,-498.9566 1106.7803,-523.7522 1147,-563 1167.1752,-582.6877 1181.024,-671.2647 1185.1885,-701.1315"/>
<polygon fill="#9a32cd" stroke="#9a32cd" points="862.9904,-485.4897 852.6388,-487.7467 862.1385,-492.4376 862.9904,-485.4897"/>
<text text-anchor="middle" x="1008.5" y="-525" font-family="Helvetica,sans-Serif" font-size="10.00" fill="#000000"> bcpinfo</text>
</g>
<!-- Node27&#45;&gt;Node25 -->
<g id="edge34" class="edge">
<title>Node27&#45;&gt;Node25</title>
<path fill="none" stroke="#9a32cd" stroke-dasharray="5,2" d="M408.0391,-950C442.0735,-950 495.9098,-950 542.5,-950 542.5,-950 542.5,-950 1008.5,-950 1086.8323,-950 1102.8022,-905.6723 1147,-841 1173.8848,-801.6609 1182.9355,-743.4632 1185.5575,-720.6615"/>
<polygon fill="#9a32cd" stroke="#9a32cd" points="407.7192,-946.5001 397.7191,-950 407.7191,-953.5001 407.7192,-946.5001"/>
<text text-anchor="middle" x="729.5" y="-953" font-family="Helvetica,sans-Serif" font-size="10.00" fill="#000000"> attr</text>
</g>
<!-- Node28 -->
<g id="node20" class="node">
<title>Node28</title>
<g id="a_node20"><a xlink:href="a01000.html" target="_top" xlink:title=" ">
<polygon fill="#ffffff" stroke="#000000" points="795,-851.5 795,-870.5 843,-870.5 843,-851.5 795,-851.5"/>
<text text-anchor="middle" x="819" y="-858.5" font-family="Helvetica,sans-Serif" font-size="10.00" fill="#000000">_hdesc</text>
</a>
</g>
</g>
<!-- Node28&#45;&gt;Node1 -->
<g id="edge52" class="edge">
<title>Node28&#45;&gt;Node1</title>
<path fill="none" stroke="#9a32cd" stroke-dasharray="5,2" d="M833.8851,-843.5302C846.3522,-829.8255 865.2385,-811.1044 885,-799 910.7746,-783.2123 926.0778,-795.7016 949,-776 981.767,-747.837 999.5452,-696.9897 1005.8376,-675.743"/>
<polygon fill="#9a32cd" stroke="#9a32cd" points="831.0062,-841.5021 827.0016,-851.311 836.2491,-846.1403 831.0062,-841.5021"/>
<text text-anchor="middle" x="917" y="-857" font-family="Helvetica,sans-Serif" font-size="10.00" fill="#000000"> apd</text>
<text text-anchor="middle" x="917" y="-846" font-family="Helvetica,sans-Serif" font-size="10.00" fill="#000000">orig_apd</text>
<text text-anchor="middle" x="917" y="-835" font-family="Helvetica,sans-Serif" font-size="10.00" fill="#000000">orig_ard</text>
<text text-anchor="middle" x="917" y="-824" font-family="Helvetica,sans-Serif" font-size="10.00" fill="#000000">ird</text>
<text text-anchor="middle" x="917" y="-813" font-family="Helvetica,sans-Serif" font-size="10.00" fill="#000000">ipd</text>
<text text-anchor="middle" x="917" y="-802" font-family="Helvetica,sans-Serif" font-size="10.00" fill="#000000">ard</text>
</g>
<!-- Node28&#45;&gt;Node25 -->
<g id="edge37" class="edge">
<title>Node28&#45;&gt;Node25</title>
<path fill="none" stroke="#9a32cd" stroke-dasharray="5,2" d="M853.0537,-867.7884C879.7237,-871.748 917.4601,-874.3306 949,-865 1048.4302,-835.585 1145.2983,-750.041 1176.2813,-720.8758"/>
<polygon fill="#9a32cd" stroke="#9a32cd" points="853.4904,-864.3135 843.0584,-866.1635 852.3671,-871.2228 853.4904,-864.3135"/>
<text text-anchor="middle" x="1008.5" y="-861" font-family="Helvetica,sans-Serif" font-size="10.00" fill="#000000"> uad</text>
</g>
<!-- Node29 -->
<g id="node21" class="node">
<title>Node29</title>
<g id="a_node21"><a xlink:href="a00992.html" target="_top" xlink:title=" ">
<polygon fill="#ffffff" stroke="#000000" points="612.5,-831.5 612.5,-850.5 668.5,-850.5 668.5,-831.5 612.5,-831.5"/>
<text text-anchor="middle" x="640.5" y="-838.5" font-family="Helvetica,sans-Serif" font-size="10.00" fill="#000000">_dheader</text>
</a>
</g>
</g>
<!-- Node29&#45;&gt;Node28 -->
<g id="edge38" class="edge">
<title>Node29&#45;&gt;Node28</title>
<path fill="none" stroke="#9a32cd" stroke-dasharray="5,2" d="M679.1552,-845.3311C714.3244,-849.2716 765.1452,-854.9658 794.8556,-858.2948"/>
<polygon fill="#9a32cd" stroke="#9a32cd" points="679.1114,-841.8044 668.7839,-844.1691 678.3319,-848.7609 679.1114,-841.8044"/>
<text text-anchor="middle" x="729.5" y="-856" font-family="Helvetica,sans-Serif" font-size="10.00" fill="#000000"> header</text>
</g>
<!-- Node30&#45;&gt;Node28 -->
<g id="edge39" class="edge">
<title>Node30&#45;&gt;Node28</title>
<path fill="none" stroke="#9a32cd" stroke-dasharray="5,2" d="M565.5611,-847.958C573.885,-852.6338 583.5611,-857.2773 593,-860 664.0634,-880.4986 753.0073,-871.352 794.9708,-865.1035"/>
<polygon fill="#9a32cd" stroke="#9a32cd" points="567.2072,-844.8649 556.8224,-842.7658 563.6316,-850.8828 567.2072,-844.8649"/>
<text text-anchor="middle" x="640.5" y="-875" font-family="Helvetica,sans-Serif" font-size="10.00" fill="#000000"> records</text>
</g>
<!-- Node31 -->
<g id="node23" class="node">
<title>Node31</title>
<g id="a_node23"><a xlink:href="a00988.html" target="_top" xlink:title=" ">
<polygon fill="#ffffff" stroke="#ff0000" points="608,-789.5 608,-808.5 673,-808.5 673,-789.5 608,-789.5"/>
<text text-anchor="middle" x="640.5" y="-796.5" font-family="Helvetica,sans-Serif" font-size="10.00" fill="#000000">_sql_errors</text>
</a>
</g>
</g>
<!-- Node31&#45;&gt;Node1 -->
<g id="edge53" class="edge">
<title>Node31&#45;&gt;Node1</title>
<path fill="none" stroke="#9a32cd" stroke-dasharray="5,2" d="M683.3899,-796.4585C757.4163,-791.4022 905.4263,-778.1496 949,-751 978.5065,-732.6153 997.341,-693.6394 1004.8242,-675.5694"/>
<polygon fill="#9a32cd" stroke="#9a32cd" points="682.7725,-792.9917 673.026,-797.1457 683.2357,-799.9763 682.7725,-792.9917"/>
<text text-anchor="middle" x="819" y="-791" font-family="Helvetica,sans-Serif" font-size="10.00" fill="#000000"> errs</text>
</g>
<!-- Node31&#45;&gt;Node25 -->
<g id="edge42" class="edge">
<title>Node31&#45;&gt;Node25</title>
<path fill="none" stroke="#9a32cd" stroke-dasharray="5,2" d="M677.879,-813.5989C681.5877,-816.0333 685.0604,-818.8218 688,-822 702.9071,-838.1169 689.0707,-854.0224 706,-868 764.9547,-916.6757 979.5328,-902.6541 1050,-873 1102.2974,-850.9922 1112.0629,-834.7075 1147,-790 1164.3732,-767.7683 1177.1782,-736.6831 1183.0067,-720.9563"/>
<polygon fill="#9a32cd" stroke="#9a32cd" points="679.3643,-810.4181 668.9364,-808.5445 675.9199,-816.512 679.3643,-810.4181"/>
<text text-anchor="middle" x="917" y="-902" font-family="Helvetica,sans-Serif" font-size="10.00" fill="#000000"> errs</text>
</g>
<!-- Node31&#45;&gt;Node28 -->
<g id="edge41" class="edge">
<title>Node31&#45;&gt;Node28</title>
<path fill="none" stroke="#9a32cd" stroke-dasharray="5,2" d="M682.9866,-810.668C704.1977,-816.7889 730.1442,-824.7253 753,-833 768.3315,-838.5506 785.2547,-845.7525 798.1259,-851.4622"/>
<polygon fill="#9a32cd" stroke="#9a32cd" points="683.873,-807.2813 673.2964,-807.9023 681.9519,-814.0125 683.873,-807.2813"/>
<text text-anchor="middle" x="729.5" y="-836" font-family="Helvetica,sans-Serif" font-size="10.00" fill="#000000"> errs</text>
</g>
<!-- Node31&#45;&gt;Node33 -->
<g id="edge46" class="edge">
<title>Node31&#45;&gt;Node33</title>
<path fill="none" stroke="#9a32cd" stroke-dasharray="5,2" d="M682.9397,-786.897C732.3722,-770.9691 814.0073,-738.7619 867,-687 877.7187,-676.5302 980.238,-473.2283 1003.7231,-426.5126"/>
<polygon fill="#9a32cd" stroke="#9a32cd" points="681.6916,-783.6204 673.2014,-789.9582 683.7908,-790.2982 681.6916,-783.6204"/>
<text text-anchor="middle" x="819" y="-753" font-family="Helvetica,sans-Serif" font-size="10.00" fill="#000000"> errs</text>
</g>
<!-- Node33&#45;&gt;Node25 -->
<g id="edge43" class="edge">
<title>Node33&#45;&gt;Node25</title>
<path fill="none" stroke="#9a32cd" stroke-dasharray="5,2" d="M1040.4006,-422.3311C1072.5079,-429.4534 1120.9034,-445.3241 1147,-479 1174.7171,-514.7671 1184.0415,-662.3226 1186.0514,-701.4439"/>
<polygon fill="#9a32cd" stroke="#9a32cd" points="1040.6915,-418.818 1030.1922,-420.238 1039.2854,-425.6754 1040.6915,-418.818"/>
<text text-anchor="middle" x="1107.5" y="-482" font-family="Helvetica,sans-Serif" font-size="10.00" fill="#000000"> env</text>
</g>
<!-- Node34 -->
<g id="node25" class="node">
<title>Node34</title>
<g id="a_node25"><a xlink:href="a01004.html" target="_top" xlink:title=" ">
<polygon fill="#ffffff" stroke="#000000" points="795.5,-302.5 795.5,-321.5 842.5,-321.5 842.5,-302.5 795.5,-302.5"/>
<text text-anchor="middle" x="819" y="-309.5" font-family="Helvetica,sans-Serif" font-size="10.00" fill="#000000">_heattr</text>
</a>
</g>
</g>
<!-- Node34&#45;&gt;Node33 -->
<g id="edge45" class="edge">
<title>Node34&#45;&gt;Node33</title>
<path fill="none" stroke="#9a32cd" stroke-dasharray="5,2" d="M852.4197,-323.3118C857.4643,-325.5587 862.4849,-328.1259 867,-331 876.2827,-336.9091 875.7439,-342.0493 885,-348 910.8256,-364.6029 922.1428,-359.1236 949,-374 966.6154,-383.7573 985.1515,-397.85 996.7618,-407.2098"/>
<polygon fill="#9a32cd" stroke="#9a32cd" points="853.3969,-319.9302 842.8159,-319.3888 850.7498,-326.4104 853.3969,-319.9302"/>
<text text-anchor="middle" x="917" y="-377" font-family="Helvetica,sans-Serif" font-size="10.00" fill="#000000"> attr</text>
</g>
<!-- Node35&#45;&gt;Node1 -->
<g id="edge47" class="edge">
<title>Node35&#45;&gt;Node1</title>
<path fill="none" stroke="#9a32cd" stroke-dasharray="5,2" d="M763.2462,-676.3565C765.8698,-676.234 768.4779,-676.1139 771,-676 849.3316,-672.4634 942.2148,-668.668 984.9012,-666.9461"/>
<polygon fill="#9a32cd" stroke="#9a32cd" points="763.0235,-672.863 753.2006,-676.8329 763.3552,-679.8552 763.0235,-672.863"/>
<text text-anchor="middle" x="819" y="-679" font-family="Helvetica,sans-Serif" font-size="10.00" fill="#000000"> attr</text>
</g>
</g>
</svg>
