<?xml version="1.0" encoding="UTF-8" standalone="no"?>
<!DOCTYPE svg PUBLIC "-//W3C//DTD SVG 1.1//EN"
 "http://www.w3.org/Graphics/SVG/1.1/DTD/svg11.dtd">
<!-- Generated by graphviz version 2.40.1 (20161225.0304)
 -->
<!-- Title: tds_datain_stream Pages: 1 -->
<svg width="1031pt" height="545pt"
 viewBox="0.00 0.00 1031.00 545.00" xmlns="http://www.w3.org/2000/svg" xmlns:xlink="http://www.w3.org/1999/xlink">
<g id="graph0" class="graph" transform="scale(1 1) rotate(0) translate(4 541)">
<title>tds_datain_stream</title>
<polygon fill="#ffffff" stroke="transparent" points="-4,4 -4,-541 1027,-541 1027,4 -4,4"/>
<!-- Node1 -->
<g id="node1" class="node">
<title>Node1</title>
<g id="a_node1"><a xlink:title="input stream to read data from tds protocol">
<polygon fill="#bfbfbf" stroke="#000000" points="573,-271.5 573,-290.5 670,-290.5 670,-271.5 573,-271.5"/>
<text text-anchor="middle" x="621.5" y="-278.5" font-family="Helvetica,sans-Serif" font-size="10.00" fill="#000000">tds_datain_stream</text>
</a>
</g>
</g>
<!-- Node2 -->
<g id="node2" class="node">
<title>Node2</title>
<g id="a_node2"><a xlink:href="a01224.html" target="_top" xlink:title="Information for a server connection.">
<polygon fill="#ffffff" stroke="#000000" points="393.5,-342.5 393.5,-361.5 458.5,-361.5 458.5,-342.5 393.5,-342.5"/>
<text text-anchor="middle" x="426" y="-349.5" font-family="Helvetica,sans-Serif" font-size="10.00" fill="#000000">tds_socket</text>
</a>
</g>
</g>
<!-- Node2&#45;&gt;Node1 -->
<g id="edge1" class="edge">
<title>Node2&#45;&gt;Node1</title>
<path fill="none" stroke="#9a32cd" stroke-dasharray="5,2" d="M446.1052,-336.5497C458.236,-327.9014 474.3322,-317.5694 490,-311 516.3459,-299.9533 547.446,-292.6222 572.7856,-287.974"/>
<polygon fill="#9a32cd" stroke="#9a32cd" points="444.0271,-333.7333 438.0358,-342.4715 448.1686,-339.3767 444.0271,-333.7333"/>
<text text-anchor="middle" x="522.5" y="-314" font-family="Helvetica,sans-Serif" font-size="10.00" fill="#000000"> tds</text>
</g>
<!-- Node9 -->
<g id="node8" class="node">
<title>Node9</title>
<g id="a_node8"><a xlink:href="a01172.html" target="_top" xlink:title="Hold information for any results.">
<polygon fill="#ffffff" stroke="#ff0000" points="581.5,-394.5 581.5,-413.5 661.5,-413.5 661.5,-394.5 581.5,-394.5"/>
<text text-anchor="middle" x="621.5" y="-401.5" font-family="Helvetica,sans-Serif" font-size="10.00" fill="#000000">tds_result_info</text>
</a>
</g>
</g>
<!-- Node2&#45;&gt;Node9 -->
<g id="edge10" class="edge">
<title>Node2&#45;&gt;Node9</title>
<path fill="none" stroke="#9a32cd" stroke-dasharray="5,2" d="M468.8834,-352.1096C494.7891,-353.5811 527.9208,-358.0146 555,-370 564.5226,-374.2148 564.0364,-379.6991 573,-385 579.0715,-388.5905 585.9456,-391.757 592.5696,-394.4244"/>
<polygon fill="#9a32cd" stroke="#9a32cd" points="468.7662,-348.6012 458.622,-351.6581 468.4584,-355.5944 468.7662,-348.6012"/>
<text text-anchor="middle" x="522.5" y="-373" font-family="Helvetica,sans-Serif" font-size="10.00" fill="#000000"> attached_to</text>
</g>
<!-- Node3 -->
<g id="node3" class="node">
<title>Node3</title>
<g id="a_node3"><a xlink:href="a01132.html" target="_top" xlink:title=" ">
<polygon fill="#ffffff" stroke="#000000" points="213.5,-318.5 213.5,-337.5 269.5,-337.5 269.5,-318.5 213.5,-318.5"/>
<text text-anchor="middle" x="241.5" y="-325.5" font-family="Helvetica,sans-Serif" font-size="10.00" fill="#000000">tds_login</text>
</a>
</g>
</g>
<!-- Node3&#45;&gt;Node2 -->
<g id="edge2" class="edge">
<title>Node3&#45;&gt;Node2</title>
<path fill="none" stroke="#9a32cd" stroke-dasharray="5,2" d="M279.8611,-332.9901C313.4132,-337.3546 361.6112,-343.6242 393.3504,-347.7529"/>
<polygon fill="#9a32cd" stroke="#9a32cd" points="279.8895,-329.4644 269.5216,-331.6451 278.9865,-336.4059 279.8895,-329.4644"/>
<text text-anchor="middle" x="327" y="-346" font-family="Helvetica,sans-Serif" font-size="10.00" fill="#000000"> login</text>
</g>
<!-- Node4 -->
<g id="node4" class="node">
<title>Node4</title>
<g id="a_node4"><a xlink:href="a01128.html" target="_top" xlink:title=" ">
<polygon fill="#ffffff" stroke="#ff0000" points="0,-243.5 0,-262.5 84,-262.5 84,-243.5 0,-243.5"/>
<text text-anchor="middle" x="42" y="-250.5" font-family="Helvetica,sans-Serif" font-size="10.00" fill="#000000">tds_capabilities</text>
</a>
</g>
</g>
<!-- Node4&#45;&gt;Node3 -->
<g id="edge3" class="edge">
<title>Node4&#45;&gt;Node3</title>
<path fill="none" stroke="#9a32cd" stroke-dasharray="5,2" d="M77.2304,-266.2445C116.9778,-281.1872 180.6648,-305.1296 215.9258,-318.3856"/>
<polygon fill="#9a32cd" stroke="#9a32cd" points="78.2648,-262.8943 67.6727,-262.6514 75.8015,-269.4465 78.2648,-262.8943"/>
<text text-anchor="middle" x="146.5" y="-310" font-family="Helvetica,sans-Serif" font-size="10.00" fill="#000000"> capabilities</text>
</g>
<!-- Node19 -->
<g id="node11" class="node">
<title>Node19</title>
<g id="a_node11"><a xlink:href="a01220.html" target="_top" xlink:title=" ">
<polygon fill="#ffffff" stroke="#000000" points="940,-171.5 940,-190.5 1023,-190.5 1023,-171.5 940,-171.5"/>
<text text-anchor="middle" x="981.5" y="-178.5" font-family="Helvetica,sans-Serif" font-size="10.00" fill="#000000">tds_connection</text>
</a>
</g>
</g>
<!-- Node4&#45;&gt;Node19 -->
<g id="edge17" class="edge">
<title>Node4&#45;&gt;Node19</title>
<path fill="none" stroke="#9a32cd" stroke-dasharray="5,2" d="M71.0309,-239.1888C109.2193,-222.319 178.839,-196 241.5,-196 241.5,-196 241.5,-196 522.5,-196 700.1112,-196 744.6519,-195.6628 922,-186 927.7965,-185.6842 933.9042,-185.2673 939.9096,-184.8086"/>
<polygon fill="#9a32cd" stroke="#9a32cd" points="69.2469,-236.154 61.5735,-243.4595 72.1279,-242.5337 69.2469,-236.154"/>
<text text-anchor="middle" x="522.5" y="-199" font-family="Helvetica,sans-Serif" font-size="10.00" fill="#000000"> capabilities</text>
</g>
<!-- Node6 -->
<g id="node5" class="node">
<title>Node6</title>
<g id="a_node5"><a xlink:href="a01268.html" target="_top" xlink:title="Structure to hold a string.">
<polygon fill="#ffffff" stroke="#000000" points="16,-318.5 16,-337.5 68,-337.5 68,-318.5 16,-318.5"/>
<text text-anchor="middle" x="42" y="-325.5" font-family="Helvetica,sans-Serif" font-size="10.00" fill="#000000">tds_dstr</text>
</a>
</g>
</g>
<!-- Node6&#45;&gt;Node3 -->
<g id="edge4" class="edge">
<title>Node6&#45;&gt;Node3</title>
<path fill="none" stroke="#9a32cd" stroke-dasharray="5,2" d="M78.4347,-328C117.3419,-328 178.1563,-328 213.4845,-328"/>
<polygon fill="#9a32cd" stroke="#9a32cd" points="78.0812,-324.5001 68.0811,-328 78.0811,-331.5001 78.0812,-324.5001"/>
<text text-anchor="middle" x="146.5" y="-452" font-family="Helvetica,sans-Serif" font-size="10.00" fill="#000000"> server_realm_name</text>
<text text-anchor="middle" x="146.5" y="-441" font-family="Helvetica,sans-Serif" font-size="10.00" fill="#000000">password</text>
<text text-anchor="middle" x="146.5" y="-430" font-family="Helvetica,sans-Serif" font-size="10.00" fill="#000000">server_name</text>
<text text-anchor="middle" x="146.5" y="-419" font-family="Helvetica,sans-Serif" font-size="10.00" fill="#000000">dump_file</text>
<text text-anchor="middle" x="146.5" y="-408" font-family="Helvetica,sans-Serif" font-size="10.00" fill="#000000">library</text>
<text text-anchor="middle" x="146.5" y="-397" font-family="Helvetica,sans-Serif" font-size="10.00" fill="#000000">crlfile</text>
<text text-anchor="middle" x="146.5" y="-386" font-family="Helvetica,sans-Serif" font-size="10.00" fill="#000000">server_spn</text>
<text text-anchor="start" x="102" y="-375" font-family="Helvetica,sans-Serif" font-size="10.00" fill="#000000">client_host</text>
<text text-anchor="middle" x="146.5" y="-364" font-family="Helvetica,sans-Serif" font-size="10.00" fill="#000000">_name</text>
<text text-anchor="middle" x="146.5" y="-353" font-family="Helvetica,sans-Serif" font-size="10.00" fill="#000000">client_charset</text>
<text text-anchor="middle" x="146.5" y="-342" font-family="Helvetica,sans-Serif" font-size="10.00" fill="#000000">openssl_ciphers</text>
<text text-anchor="middle" x="146.5" y="-331" font-family="Helvetica,sans-Serif" font-size="10.00" fill="#000000">...</text>
</g>
<!-- Node7 -->
<g id="node6" class="node">
<title>Node7</title>
<g id="a_node6"><a xlink:href="a01212.html" target="_top" xlink:title=" ">
<polygon fill="#ffffff" stroke="#000000" points="209,-238.5 209,-257.5 274,-257.5 274,-238.5 209,-238.5"/>
<text text-anchor="middle" x="241.5" y="-245.5" font-family="Helvetica,sans-Serif" font-size="10.00" fill="#000000">tds_packet</text>
</a>
</g>
</g>
<!-- Node7&#45;&gt;Node2 -->
<g id="edge5" class="edge">
<title>Node7&#45;&gt;Node2</title>
<path fill="none" stroke="#9a32cd" stroke-dasharray="5,2" d="M281.0451,-260.9143C305.3046,-269.6717 336.498,-282.4667 362,-298 383.1071,-310.8564 404.404,-330.4507 416.3308,-342.1648"/>
<polygon fill="#9a32cd" stroke="#9a32cd" points="282.0406,-257.5541 271.4458,-257.5279 279.7118,-264.1554 282.0406,-257.5541"/>
<text text-anchor="middle" x="327" y="-323" font-family="Helvetica,sans-Serif" font-size="10.00" fill="#000000"> frozen_packets</text>
<text text-anchor="middle" x="327" y="-312" font-family="Helvetica,sans-Serif" font-size="10.00" fill="#000000">recv_packet</text>
<text text-anchor="middle" x="327" y="-301" font-family="Helvetica,sans-Serif" font-size="10.00" fill="#000000">send_packet</text>
</g>
<!-- Node7&#45;&gt;Node7 -->
<g id="edge6" class="edge">
<title>Node7&#45;&gt;Node7</title>
<path fill="none" stroke="#9a32cd" stroke-dasharray="5,2" d="M226.0309,-267.7663C227.2459,-272.4965 232.4022,-276 241.5,-276 256.4297,-276 260.7453,-266.5653 254.4468,-257.7571"/>
<polygon fill="#9a32cd" stroke="#9a32cd" points="229.5034,-268.3092 228.5532,-257.7571 222.7156,-266.5986 229.5034,-268.3092"/>
<text text-anchor="middle" x="241.5" y="-279" font-family="Helvetica,sans-Serif" font-size="10.00" fill="#000000"> next</text>
</g>
<!-- Node7&#45;&gt;Node19 -->
<g id="edge22" class="edge">
<title>Node7&#45;&gt;Node19</title>
<path fill="none" stroke="#9a32cd" stroke-dasharray="5,2" d="M284.1861,-245.8248C321.5724,-244.1078 377.3719,-242 426,-242 426,-242 426,-242 792,-242 851.1028,-242 866.6706,-234.7797 922,-214 938.1448,-207.9366 955.2272,-198.0558 966.9266,-190.684"/>
<polygon fill="#9a32cd" stroke="#9a32cd" points="283.9754,-242.3308 274.1508,-246.2967 284.3042,-249.3231 283.9754,-242.3308"/>
<text text-anchor="middle" x="621.5" y="-245" font-family="Helvetica,sans-Serif" font-size="10.00" fill="#000000"> packet_cache</text>
</g>
<!-- Node8 -->
<g id="node7" class="node">
<title>Node8</title>
<g id="a_node7"><a xlink:href="a01196.html" target="_top" xlink:title="Holds information for a dynamic (also called prepared) query.">
<polygon fill="#ffffff" stroke="#000000" points="756,-418.5 756,-437.5 828,-437.5 828,-418.5 756,-418.5"/>
<text text-anchor="middle" x="792" y="-425.5" font-family="Helvetica,sans-Serif" font-size="10.00" fill="#000000">tds_dynamic</text>
</a>
</g>
</g>
<!-- Node8&#45;&gt;Node2 -->
<g id="edge7" class="edge">
<title>Node8&#45;&gt;Node2</title>
<path fill="none" stroke="#9a32cd" stroke-dasharray="5,2" d="M756.686,-440.6802C697.6553,-459.5937 576.8667,-488.3846 490,-443 456.4469,-425.4698 436.7564,-381.4402 429.3695,-361.7643"/>
<polygon fill="#9a32cd" stroke="#9a32cd" points="757.8911,-443.9682 766.2924,-437.5131 755.6993,-437.3202 757.8911,-443.9682"/>
<text text-anchor="middle" x="621.5" y="-470" font-family="Helvetica,sans-Serif" font-size="10.00" fill="#000000"> cur_dyn</text>
</g>
<!-- Node8&#45;&gt;Node8 -->
<g id="edge8" class="edge">
<title>Node8&#45;&gt;Node8</title>
<path fill="none" stroke="#9a32cd" stroke-dasharray="5,2" d="M776.5309,-447.7663C777.7459,-452.4965 782.9022,-456 792,-456 806.9297,-456 811.2453,-446.5653 804.9468,-437.7571"/>
<polygon fill="#9a32cd" stroke="#9a32cd" points="780.0034,-448.3092 779.0532,-437.7571 773.2156,-446.5986 780.0034,-448.3092"/>
<text text-anchor="middle" x="792" y="-459" font-family="Helvetica,sans-Serif" font-size="10.00" fill="#000000"> next</text>
</g>
<!-- Node8&#45;&gt;Node19 -->
<g id="edge23" class="edge">
<title>Node8&#45;&gt;Node19</title>
<path fill="none" stroke="#9a32cd" stroke-dasharray="5,2" d="M816.3974,-412.6041C845.1463,-393.3634 892.6994,-357.94 922,-317 952.4483,-274.4563 972.0211,-213.8675 978.8203,-190.6035"/>
<polygon fill="#9a32cd" stroke="#9a32cd" points="814.2086,-409.8541 807.771,-418.2689 818.051,-415.7053 814.2086,-409.8541"/>
<text text-anchor="middle" x="890" y="-382" font-family="Helvetica,sans-Serif" font-size="10.00" fill="#000000"> dyns</text>
</g>
<!-- Node9&#45;&gt;Node2 -->
<g id="edge11" class="edge">
<title>Node9&#45;&gt;Node2</title>
<path fill="none" stroke="#9a32cd" stroke-dasharray="5,2" d="M571.5269,-398.2843C546.668,-394.6822 516.3742,-389.1383 490,-381 473.7978,-376.0005 456.322,-367.8805 443.7323,-361.5026"/>
<polygon fill="#9a32cd" stroke="#9a32cd" points="571.0817,-401.756 581.468,-399.6643 572.0442,-394.8224 571.0817,-401.756"/>
<text text-anchor="middle" x="522.5" y="-431" font-family="Helvetica,sans-Serif" font-size="10.00" fill="#000000"> param_info</text>
<text text-anchor="middle" x="522.5" y="-420" font-family="Helvetica,sans-Serif" font-size="10.00" fill="#000000">current_results</text>
<text text-anchor="middle" x="522.5" y="-409" font-family="Helvetica,sans-Serif" font-size="10.00" fill="#000000">res_info</text>
<text text-anchor="middle" x="522.5" y="-398" font-family="Helvetica,sans-Serif" font-size="10.00" fill="#000000">comp_info</text>
</g>
<!-- Node9&#45;&gt;Node8 -->
<g id="edge9" class="edge">
<title>Node9&#45;&gt;Node8</title>
<path fill="none" stroke="#9a32cd" stroke-dasharray="5,2" d="M671.9438,-411.1006C698.9268,-414.8988 731.5264,-419.4876 755.9423,-422.9244"/>
<polygon fill="#9a32cd" stroke="#9a32cd" points="672.2964,-407.6158 661.9061,-409.6877 671.3206,-414.5475 672.2964,-407.6158"/>
<text text-anchor="middle" x="707" y="-432" font-family="Helvetica,sans-Serif" font-size="10.00" fill="#000000"> res_info</text>
<text text-anchor="middle" x="707" y="-421" font-family="Helvetica,sans-Serif" font-size="10.00" fill="#000000">params</text>
</g>
<!-- Node17 -->
<g id="node9" class="node">
<title>Node17</title>
<g id="a_node9"><a xlink:href="a01188.html" target="_top" xlink:title="Holds informations about a cursor.">
<polygon fill="#ffffff" stroke="#000000" points="761,-334.5 761,-353.5 823,-353.5 823,-334.5 761,-334.5"/>
<text text-anchor="middle" x="792" y="-341.5" font-family="Helvetica,sans-Serif" font-size="10.00" fill="#000000">tds_cursor</text>
</a>
</g>
</g>
<!-- Node9&#45;&gt;Node17 -->
<g id="edge14" class="edge">
<title>Node9&#45;&gt;Node17</title>
<path fill="none" stroke="#9a32cd" stroke-dasharray="5,2" d="M663.8375,-391.4988C682.9497,-385.6332 705.7372,-378.3299 726,-371 740.785,-365.6516 757.1437,-358.9649 769.876,-353.584"/>
<polygon fill="#9a32cd" stroke="#9a32cd" points="662.7592,-388.1684 654.2109,-394.4275 664.7967,-394.8653 662.7592,-388.1684"/>
<text text-anchor="middle" x="707" y="-386" font-family="Helvetica,sans-Serif" font-size="10.00" fill="#000000"> res_info</text>
</g>
<!-- Node17&#45;&gt;Node2 -->
<g id="edge12" class="edge">
<title>Node17&#45;&gt;Node2</title>
<path fill="none" stroke="#9a32cd" stroke-dasharray="5,2" d="M750.9094,-340.6328C727.264,-338.8638 696.9807,-336.8837 670,-336 626.912,-334.5888 616.0478,-333.6642 573,-336 533.5239,-338.142 488.3465,-343.497 458.6127,-347.4241"/>
<polygon fill="#9a32cd" stroke="#9a32cd" points="750.7005,-344.127 760.9384,-341.4001 751.2345,-337.1474 750.7005,-344.127"/>
<text text-anchor="middle" x="621.5" y="-339" font-family="Helvetica,sans-Serif" font-size="10.00" fill="#000000"> cur_cursor</text>
</g>
<!-- Node17&#45;&gt;Node17 -->
<g id="edge15" class="edge">
<title>Node17&#45;&gt;Node17</title>
<path fill="none" stroke="#9a32cd" stroke-dasharray="5,2" d="M776.5309,-363.7663C777.7459,-368.4965 782.9022,-372 792,-372 806.9297,-372 811.2453,-362.5653 804.9468,-353.7571"/>
<polygon fill="#9a32cd" stroke="#9a32cd" points="780.0034,-364.3092 779.0532,-353.7571 773.2156,-362.5986 780.0034,-364.3092"/>
<text text-anchor="middle" x="792" y="-375" font-family="Helvetica,sans-Serif" font-size="10.00" fill="#000000"> next</text>
</g>
<!-- Node17&#45;&gt;Node19 -->
<g id="edge25" class="edge">
<title>Node17&#45;&gt;Node19</title>
<path fill="none" stroke="#9a32cd" stroke-dasharray="5,2" d="M818.6605,-329.234C846.2123,-313.254 889.6405,-286.0013 922,-256 944.4265,-235.2078 965.3527,-205.5593 975.3497,-190.5267"/>
<polygon fill="#9a32cd" stroke="#9a32cd" points="816.5653,-326.4002 809.6214,-334.4023 820.0398,-332.4771 816.5653,-326.4002"/>
<text text-anchor="middle" x="890" y="-305" font-family="Helvetica,sans-Serif" font-size="10.00" fill="#000000"> cursors</text>
</g>
<!-- Node18 -->
<g id="node10" class="node">
<title>Node18</title>
<g id="a_node10"><a xlink:href="a01184.html" target="_top" xlink:title=" ">
<polygon fill="#ffffff" stroke="#000000" points="574,-356.5 574,-375.5 669,-375.5 669,-356.5 574,-356.5"/>
<text text-anchor="middle" x="621.5" y="-363.5" font-family="Helvetica,sans-Serif" font-size="10.00" fill="#000000">tds_cursor_status</text>
</a>
</g>
</g>
<!-- Node18&#45;&gt;Node17 -->
<g id="edge13" class="edge">
<title>Node18&#45;&gt;Node17</title>
<path fill="none" stroke="#9a32cd" stroke-dasharray="5,2" d="M679.6434,-358.4976C706.8408,-354.9883 738.1466,-350.9488 760.7935,-348.0266"/>
<polygon fill="#9a32cd" stroke="#9a32cd" points="678.9173,-355.0622 669.4475,-359.8132 679.8132,-362.0047 678.9173,-355.0622"/>
<text text-anchor="middle" x="707" y="-359" font-family="Helvetica,sans-Serif" font-size="10.00" fill="#000000"> status</text>
</g>
<!-- Node19&#45;&gt;Node2 -->
<g id="edge16" class="edge">
<title>Node19&#45;&gt;Node2</title>
<path fill="none" stroke="#9a32cd" stroke-dasharray="5,2" d="M980.1034,-200.7607C974.7492,-258.8873 949.8706,-428.2025 840,-476 697.3106,-538.0747 616.5659,-557.5241 490,-467 452.4593,-440.1496 434.3148,-384.0712 428.3305,-361.6079"/>
<polygon fill="#9a32cd" stroke="#9a32cd" points="983.6004,-200.9405 980.9333,-190.6869 976.624,-200.3657 983.6004,-200.9405"/>
<text text-anchor="middle" x="707" y="-529" font-family="Helvetica,sans-Serif" font-size="10.00" fill="#000000"> conn</text>
</g>
<!-- Node20 -->
<g id="node12" class="node">
<title>Node20</title>
<g id="a_node12"><a xlink:href="a01216.html" target="_top" xlink:title=" ">
<polygon fill="#ffffff" stroke="#000000" points="747.5,-152.5 747.5,-171.5 836.5,-171.5 836.5,-152.5 747.5,-152.5"/>
<text text-anchor="middle" x="792" y="-159.5" font-family="Helvetica,sans-Serif" font-size="10.00" fill="#000000">tds_poll_wakeup</text>
</a>
</g>
</g>
<!-- Node20&#45;&gt;Node19 -->
<g id="edge18" class="edge">
<title>Node20&#45;&gt;Node19</title>
<path fill="none" stroke="#9a32cd" stroke-dasharray="5,2" d="M846.5506,-167.4449C869.8026,-169.7684 897.2293,-172.5125 922,-175 927.785,-175.5809 933.8862,-176.1948 939.8885,-176.7994"/>
<polygon fill="#9a32cd" stroke="#9a32cd" points="846.8228,-163.9547 836.5244,-166.4432 846.1269,-170.9201 846.8228,-163.9547"/>
<text text-anchor="middle" x="890" y="-178" font-family="Helvetica,sans-Serif" font-size="10.00" fill="#000000"> wakeup</text>
</g>
<!-- Node21 -->
<g id="node13" class="node">
<title>Node21</title>
<g id="a_node13"><a xlink:href="a01192.html" target="_top" xlink:title="Current environment as reported by the server.">
<polygon fill="#ffffff" stroke="#000000" points="766.5,-114.5 766.5,-133.5 817.5,-133.5 817.5,-114.5 766.5,-114.5"/>
<text text-anchor="middle" x="792" y="-121.5" font-family="Helvetica,sans-Serif" font-size="10.00" fill="#000000">tds_env</text>
</a>
</g>
</g>
<!-- Node21&#45;&gt;Node19 -->
<g id="edge19" class="edge">
<title>Node21&#45;&gt;Node19</title>
<path fill="none" stroke="#9a32cd" stroke-dasharray="5,2" d="M827.8216,-129.7933C854.2633,-134.5955 890.9028,-142.3601 922,-153 936.5823,-157.9893 952.3313,-165.503 963.9613,-171.4912"/>
<polygon fill="#9a32cd" stroke="#9a32cd" points="828.3235,-126.3279 817.8676,-128.0377 827.1076,-133.2215 828.3235,-126.3279"/>
<text text-anchor="middle" x="890" y="-156" font-family="Helvetica,sans-Serif" font-size="10.00" fill="#000000"> env</text>
</g>
<!-- Node22 -->
<g id="node14" class="node">
<title>Node22</title>
<g id="a_node14"><a xlink:href="a01204.html" target="_top" xlink:title=" ">
<polygon fill="#ffffff" stroke="#ff0000" points="758,-76.5 758,-95.5 826,-95.5 826,-76.5 758,-76.5"/>
<text text-anchor="middle" x="792" y="-83.5" font-family="Helvetica,sans-Serif" font-size="10.00" fill="#000000">tds_context</text>
</a>
</g>
</g>
<!-- Node22&#45;&gt;Node19 -->
<g id="edge20" class="edge">
<title>Node22&#45;&gt;Node19</title>
<path fill="none" stroke="#9a32cd" stroke-dasharray="5,2" d="M836.295,-91.4967C862.5616,-96.1941 895.7417,-104.7265 922,-120 944.7626,-133.2401 964.6368,-157.5592 974.6345,-171.1495"/>
<polygon fill="#9a32cd" stroke="#9a32cd" points="836.6716,-88.0113 826.2327,-89.822 835.5223,-94.9163 836.6716,-88.0113"/>
<text text-anchor="middle" x="890" y="-123" font-family="Helvetica,sans-Serif" font-size="10.00" fill="#000000"> tds_ctx</text>
</g>
<!-- Node24 -->
<g id="node15" class="node">
<title>Node24</title>
<g id="a_node15"><a xlink:href="a01208.html" target="_top" xlink:title=" ">
<polygon fill="#ffffff" stroke="#000000" points="744,-38.5 744,-57.5 840,-57.5 840,-38.5 744,-38.5"/>
<text text-anchor="middle" x="792" y="-45.5" font-family="Helvetica,sans-Serif" font-size="10.00" fill="#000000">tds_authentication</text>
</a>
</g>
</g>
<!-- Node24&#45;&gt;Node19 -->
<g id="edge21" class="edge">
<title>Node24&#45;&gt;Node19</title>
<path fill="none" stroke="#9a32cd" stroke-dasharray="5,2" d="M850.144,-52.9226C874.251,-57.3257 901.3474,-65.5805 922,-81 953.8899,-104.8093 971.9339,-151.1925 978.5571,-171.3075"/>
<polygon fill="#9a32cd" stroke="#9a32cd" points="850.4577,-49.4274 840.0229,-51.2617 849.3241,-56.335 850.4577,-49.4274"/>
<text text-anchor="middle" x="890" y="-84" font-family="Helvetica,sans-Serif" font-size="10.00" fill="#000000"> authentication</text>
</g>
<!-- Node11 -->
<g id="node16" class="node">
<title>Node11</title>
<g id="a_node16"><a xlink:href="a00980.html" target="_top" xlink:title=" ">
<polygon fill="#ffffff" stroke="#ff0000" points="757.5,-.5 757.5,-19.5 826.5,-19.5 826.5,-.5 757.5,-.5"/>
<text text-anchor="middle" x="792" y="-7.5" font-family="Helvetica,sans-Serif" font-size="10.00" fill="#000000">tdsiconvinfo</text>
</a>
</g>
</g>
<!-- Node11&#45;&gt;Node19 -->
<g id="edge24" class="edge">
<title>Node11&#45;&gt;Node19</title>
<path fill="none" stroke="#9a32cd" stroke-dasharray="5,2" d="M836.8589,-10.3908C864.2494,-12.8505 898.4196,-20.1732 922,-40 964.0958,-75.395 977.0173,-145.7388 980.4216,-171.3706"/>
<polygon fill="#9a32cd" stroke="#9a32cd" points="836.9525,-6.8887 826.7293,-9.6703 836.4558,-13.8711 836.9525,-6.8887"/>
<text text-anchor="middle" x="890" y="-43" font-family="Helvetica,sans-Serif" font-size="10.00" fill="#000000"> char_convs</text>
</g>
<!-- Node25 -->
<g id="node17" class="node">
<title>Node25</title>
<g id="a_node17"><a xlink:href="a01076.html" target="_top" xlink:title="define a stream of data used for input">
<polygon fill="#ffffff" stroke="#000000" points="380,-270.5 380,-289.5 472,-289.5 472,-270.5 380,-270.5"/>
<text text-anchor="middle" x="426" y="-277.5" font-family="Helvetica,sans-Serif" font-size="10.00" fill="#000000">tds_input_stream</text>
</a>
</g>
</g>
<!-- Node25&#45;&gt;Node1 -->
<g id="edge26" class="edge">
<title>Node25&#45;&gt;Node1</title>
<path fill="none" stroke="#9a32cd" stroke-dasharray="5,2" d="M482.2729,-277.2145C484.8845,-277.1317 487.4701,-277.0593 490,-277 518.881,-276.3235 526.1241,-276.1323 555,-277 560.7804,-277.1737 566.8396,-277.4321 572.8482,-277.7356"/>
<polygon fill="#9a32cd" stroke="#9a32cd" points="482.0027,-273.7218 472.135,-277.5791 482.2544,-280.7173 482.0027,-273.7218"/>
<text text-anchor="middle" x="522.5" y="-280" font-family="Helvetica,sans-Serif" font-size="10.00" fill="#000000"> stream</text>
</g>
</g>
</svg>
