<?xml version="1.0" encoding="UTF-8" standalone="no"?>
<!DOCTYPE svg PUBLIC "-//W3C//DTD SVG 1.1//EN"
 "http://www.w3.org/Graphics/SVG/1.1/DTD/svg11.dtd">
<!-- Generated by graphviz version 2.40.1 (20161225.0304)
 -->
<!-- Title: tds_dataout_stream Pages: 1 -->
<svg width="1043pt" height="544pt"
 viewBox="0.00 0.00 1043.00 544.00" xmlns="http://www.w3.org/2000/svg" xmlns:xlink="http://www.w3.org/1999/xlink">
<g id="graph0" class="graph" transform="scale(1 1) rotate(0) translate(4 540)">
<title>tds_dataout_stream</title>
<polygon fill="#ffffff" stroke="transparent" points="-4,4 -4,-540 1039,-540 1039,4 -4,4"/>
<!-- Node1 -->
<g id="node1" class="node">
<title>Node1</title>
<g id="a_node1"><a xlink:title="output stream to write data to tds protocol">
<polygon fill="#bfbfbf" stroke="#000000" points="579,-271.5 579,-290.5 682,-290.5 682,-271.5 579,-271.5"/>
<text text-anchor="middle" x="630.5" y="-278.5" font-family="Helvetica,sans-Serif" font-size="10.00" fill="#000000">tds_dataout_stream</text>
</a>
</g>
</g>
<!-- Node2 -->
<g id="node2" class="node">
<title>Node2</title>
<g id="a_node2"><a xlink:href="a01224.html" target="_top" xlink:title="Information for a server connection.">
<polygon fill="#ffffff" stroke="#000000" points="396.5,-342.5 396.5,-361.5 461.5,-361.5 461.5,-342.5 396.5,-342.5"/>
<text text-anchor="middle" x="429" y="-349.5" font-family="Helvetica,sans-Serif" font-size="10.00" fill="#000000">tds_socket</text>
</a>
</g>
</g>
<!-- Node2&#45;&gt;Node1 -->
<g id="edge1" class="edge">
<title>Node2&#45;&gt;Node1</title>
<path fill="none" stroke="#9a32cd" stroke-dasharray="5,2" d="M450.1404,-336.5595C462.8715,-327.9145 479.723,-317.5826 496,-311 522.3935,-300.3261 553.312,-293.0932 578.8456,-288.4087"/>
<polygon fill="#9a32cd" stroke="#9a32cd" points="447.86,-333.883 441.6656,-342.4784 451.8681,-339.6219 447.86,-333.883"/>
<text text-anchor="middle" x="528.5" y="-314" font-family="Helvetica,sans-Serif" font-size="10.00" fill="#000000"> tds</text>
</g>
<!-- Node9 -->
<g id="node8" class="node">
<title>Node9</title>
<g id="a_node8"><a xlink:href="a01172.html" target="_top" xlink:title="Hold information for any results.">
<polygon fill="#ffffff" stroke="#ff0000" points="590.5,-394.5 590.5,-413.5 670.5,-413.5 670.5,-394.5 590.5,-394.5"/>
<text text-anchor="middle" x="630.5" y="-401.5" font-family="Helvetica,sans-Serif" font-size="10.00" fill="#000000">tds_result_info</text>
</a>
</g>
</g>
<!-- Node2&#45;&gt;Node9 -->
<g id="edge10" class="edge">
<title>Node2&#45;&gt;Node9</title>
<path fill="none" stroke="#9a32cd" stroke-dasharray="5,2" d="M471.7229,-351.885C498.3936,-353.2288 532.8805,-357.6064 561,-370 570.5292,-374.2 569.9841,-379.7887 579,-385 585.2707,-388.6245 592.3571,-391.7715 599.2222,-394.4051"/>
<polygon fill="#9a32cd" stroke="#9a32cd" points="471.6738,-348.3807 461.5481,-351.4986 471.408,-355.3757 471.6738,-348.3807"/>
<text text-anchor="middle" x="528.5" y="-373" font-family="Helvetica,sans-Serif" font-size="10.00" fill="#000000"> attached_to</text>
</g>
<!-- Node3 -->
<g id="node3" class="node">
<title>Node3</title>
<g id="a_node3"><a xlink:href="a01132.html" target="_top" xlink:title=" ">
<polygon fill="#ffffff" stroke="#000000" points="213.5,-318.5 213.5,-337.5 269.5,-337.5 269.5,-318.5 213.5,-318.5"/>
<text text-anchor="middle" x="241.5" y="-325.5" font-family="Helvetica,sans-Serif" font-size="10.00" fill="#000000">tds_login</text>
</a>
</g>
</g>
<!-- Node3&#45;&gt;Node2 -->
<g id="edge2" class="edge">
<title>Node3&#45;&gt;Node2</title>
<path fill="none" stroke="#9a32cd" stroke-dasharray="5,2" d="M279.6812,-332.8872C313.9836,-337.2779 363.8163,-343.6565 396.3165,-347.8165"/>
<polygon fill="#9a32cd" stroke="#9a32cd" points="279.9341,-329.3911 269.5706,-331.593 279.0453,-336.3344 279.9341,-329.3911"/>
<text text-anchor="middle" x="327" y="-345" font-family="Helvetica,sans-Serif" font-size="10.00" fill="#000000"> login</text>
</g>
<!-- Node4 -->
<g id="node4" class="node">
<title>Node4</title>
<g id="a_node4"><a xlink:href="a01128.html" target="_top" xlink:title=" ">
<polygon fill="#ffffff" stroke="#ff0000" points="0,-243.5 0,-262.5 84,-262.5 84,-243.5 0,-243.5"/>
<text text-anchor="middle" x="42" y="-250.5" font-family="Helvetica,sans-Serif" font-size="10.00" fill="#000000">tds_capabilities</text>
</a>
</g>
</g>
<!-- Node4&#45;&gt;Node3 -->
<g id="edge3" class="edge">
<title>Node4&#45;&gt;Node3</title>
<path fill="none" stroke="#9a32cd" stroke-dasharray="5,2" d="M77.2304,-266.2445C116.9778,-281.1872 180.6648,-305.1296 215.9258,-318.3856"/>
<polygon fill="#9a32cd" stroke="#9a32cd" points="78.2648,-262.8943 67.6727,-262.6514 75.8015,-269.4465 78.2648,-262.8943"/>
<text text-anchor="middle" x="146.5" y="-310" font-family="Helvetica,sans-Serif" font-size="10.00" fill="#000000"> capabilities</text>
</g>
<!-- Node19 -->
<g id="node11" class="node">
<title>Node19</title>
<g id="a_node11"><a xlink:href="a01220.html" target="_top" xlink:title=" ">
<polygon fill="#ffffff" stroke="#000000" points="952,-171.5 952,-190.5 1035,-190.5 1035,-171.5 952,-171.5"/>
<text text-anchor="middle" x="993.5" y="-178.5" font-family="Helvetica,sans-Serif" font-size="10.00" fill="#000000">tds_connection</text>
</a>
</g>
</g>
<!-- Node4&#45;&gt;Node19 -->
<g id="edge17" class="edge">
<title>Node4&#45;&gt;Node19</title>
<path fill="none" stroke="#9a32cd" stroke-dasharray="5,2" d="M71.0309,-239.1888C109.2193,-222.319 178.839,-196 241.5,-196 241.5,-196 241.5,-196 528.5,-196 708.777,-196 753.9882,-195.7746 934,-186 939.7966,-185.6852 945.9043,-185.2689 951.9097,-184.8106"/>
<polygon fill="#9a32cd" stroke="#9a32cd" points="69.2469,-236.154 61.5735,-243.4595 72.1279,-242.5337 69.2469,-236.154"/>
<text text-anchor="middle" x="528.5" y="-199" font-family="Helvetica,sans-Serif" font-size="10.00" fill="#000000"> capabilities</text>
</g>
<!-- Node6 -->
<g id="node5" class="node">
<title>Node6</title>
<g id="a_node5"><a xlink:href="a01268.html" target="_top" xlink:title="Structure to hold a string.">
<polygon fill="#ffffff" stroke="#000000" points="16,-318.5 16,-337.5 68,-337.5 68,-318.5 16,-318.5"/>
<text text-anchor="middle" x="42" y="-325.5" font-family="Helvetica,sans-Serif" font-size="10.00" fill="#000000">tds_dstr</text>
</a>
</g>
</g>
<!-- Node6&#45;&gt;Node3 -->
<g id="edge4" class="edge">
<title>Node6&#45;&gt;Node3</title>
<path fill="none" stroke="#9a32cd" stroke-dasharray="5,2" d="M78.4347,-328C117.3419,-328 178.1563,-328 213.4845,-328"/>
<polygon fill="#9a32cd" stroke="#9a32cd" points="78.0812,-324.5001 68.0811,-328 78.0811,-331.5001 78.0812,-324.5001"/>
<text text-anchor="middle" x="146.5" y="-452" font-family="Helvetica,sans-Serif" font-size="10.00" fill="#000000"> server_realm_name</text>
<text text-anchor="middle" x="146.5" y="-441" font-family="Helvetica,sans-Serif" font-size="10.00" fill="#000000">password</text>
<text text-anchor="middle" x="146.5" y="-430" font-family="Helvetica,sans-Serif" font-size="10.00" fill="#000000">server_name</text>
<text text-anchor="middle" x="146.5" y="-419" font-family="Helvetica,sans-Serif" font-size="10.00" fill="#000000">dump_file</text>
<text text-anchor="middle" x="146.5" y="-408" font-family="Helvetica,sans-Serif" font-size="10.00" fill="#000000">library</text>
<text text-anchor="middle" x="146.5" y="-397" font-family="Helvetica,sans-Serif" font-size="10.00" fill="#000000">crlfile</text>
<text text-anchor="middle" x="146.5" y="-386" font-family="Helvetica,sans-Serif" font-size="10.00" fill="#000000">server_spn</text>
<text text-anchor="start" x="102" y="-375" font-family="Helvetica,sans-Serif" font-size="10.00" fill="#000000">client_host</text>
<text text-anchor="middle" x="146.5" y="-364" font-family="Helvetica,sans-Serif" font-size="10.00" fill="#000000">_name</text>
<text text-anchor="middle" x="146.5" y="-353" font-family="Helvetica,sans-Serif" font-size="10.00" fill="#000000">client_charset</text>
<text text-anchor="middle" x="146.5" y="-342" font-family="Helvetica,sans-Serif" font-size="10.00" fill="#000000">openssl_ciphers</text>
<text text-anchor="middle" x="146.5" y="-331" font-family="Helvetica,sans-Serif" font-size="10.00" fill="#000000">...</text>
</g>
<!-- Node7 -->
<g id="node6" class="node">
<title>Node7</title>
<g id="a_node6"><a xlink:href="a01212.html" target="_top" xlink:title=" ">
<polygon fill="#ffffff" stroke="#000000" points="209,-238.5 209,-257.5 274,-257.5 274,-238.5 209,-238.5"/>
<text text-anchor="middle" x="241.5" y="-245.5" font-family="Helvetica,sans-Serif" font-size="10.00" fill="#000000">tds_packet</text>
</a>
</g>
</g>
<!-- Node7&#45;&gt;Node2 -->
<g id="edge5" class="edge">
<title>Node7&#45;&gt;Node2</title>
<path fill="none" stroke="#9a32cd" stroke-dasharray="5,2" d="M280.4397,-260.9412C304.7207,-269.7802 336.1538,-282.6527 362,-298 383.8376,-310.9671 406.2178,-330.5251 418.7899,-342.2023"/>
<polygon fill="#9a32cd" stroke="#9a32cd" points="281.4388,-257.5817 270.8441,-257.5215 279.0889,-264.1755 281.4388,-257.5817"/>
<text text-anchor="middle" x="327" y="-323" font-family="Helvetica,sans-Serif" font-size="10.00" fill="#000000"> frozen_packets</text>
<text text-anchor="middle" x="327" y="-312" font-family="Helvetica,sans-Serif" font-size="10.00" fill="#000000">recv_packet</text>
<text text-anchor="middle" x="327" y="-301" font-family="Helvetica,sans-Serif" font-size="10.00" fill="#000000">send_packet</text>
</g>
<!-- Node7&#45;&gt;Node7 -->
<g id="edge6" class="edge">
<title>Node7&#45;&gt;Node7</title>
<path fill="none" stroke="#9a32cd" stroke-dasharray="5,2" d="M226.0309,-267.7663C227.2459,-272.4965 232.4022,-276 241.5,-276 256.4297,-276 260.7453,-266.5653 254.4468,-257.7571"/>
<polygon fill="#9a32cd" stroke="#9a32cd" points="229.5034,-268.3092 228.5532,-257.7571 222.7156,-266.5986 229.5034,-268.3092"/>
<text text-anchor="middle" x="241.5" y="-279" font-family="Helvetica,sans-Serif" font-size="10.00" fill="#000000"> next</text>
</g>
<!-- Node7&#45;&gt;Node19 -->
<g id="edge22" class="edge">
<title>Node7&#45;&gt;Node19</title>
<path fill="none" stroke="#9a32cd" stroke-dasharray="5,2" d="M284.196,-245.8558C322.1916,-244.1333 379.2843,-242 429,-242 429,-242 429,-242 804,-242 863.1028,-242 878.6706,-234.7797 934,-214 950.1448,-207.9366 967.2272,-198.0558 978.9266,-190.684"/>
<polygon fill="#9a32cd" stroke="#9a32cd" points="283.8347,-242.3687 274.0078,-246.3287 284.1593,-249.3612 283.8347,-242.3687"/>
<text text-anchor="middle" x="630.5" y="-245" font-family="Helvetica,sans-Serif" font-size="10.00" fill="#000000"> packet_cache</text>
</g>
<!-- Node8 -->
<g id="node7" class="node">
<title>Node8</title>
<g id="a_node7"><a xlink:href="a01196.html" target="_top" xlink:title="Holds information for a dynamic (also called prepared) query.">
<polygon fill="#ffffff" stroke="#000000" points="768,-418.5 768,-437.5 840,-437.5 840,-418.5 768,-418.5"/>
<text text-anchor="middle" x="804" y="-425.5" font-family="Helvetica,sans-Serif" font-size="10.00" fill="#000000">tds_dynamic</text>
</a>
</g>
</g>
<!-- Node8&#45;&gt;Node2 -->
<g id="edge7" class="edge">
<title>Node8&#45;&gt;Node2</title>
<path fill="none" stroke="#9a32cd" stroke-dasharray="5,2" d="M767.6352,-440.6203C707.4247,-459.2162 584.8586,-487.1742 496,-442 461.9662,-424.6978 440.7725,-381.1332 432.7075,-361.6628"/>
<polygon fill="#9a32cd" stroke="#9a32cd" points="768.9708,-443.8684 777.4403,-437.5029 766.8499,-437.1975 768.9708,-443.8684"/>
<text text-anchor="middle" x="630.5" y="-469" font-family="Helvetica,sans-Serif" font-size="10.00" fill="#000000"> cur_dyn</text>
</g>
<!-- Node8&#45;&gt;Node8 -->
<g id="edge8" class="edge">
<title>Node8&#45;&gt;Node8</title>
<path fill="none" stroke="#9a32cd" stroke-dasharray="5,2" d="M788.5309,-447.7663C789.7459,-452.4965 794.9022,-456 804,-456 818.9297,-456 823.2453,-446.5653 816.9468,-437.7571"/>
<polygon fill="#9a32cd" stroke="#9a32cd" points="792.0034,-448.3092 791.0532,-437.7571 785.2156,-446.5986 792.0034,-448.3092"/>
<text text-anchor="middle" x="804" y="-459" font-family="Helvetica,sans-Serif" font-size="10.00" fill="#000000"> next</text>
</g>
<!-- Node8&#45;&gt;Node19 -->
<g id="edge23" class="edge">
<title>Node8&#45;&gt;Node19</title>
<path fill="none" stroke="#9a32cd" stroke-dasharray="5,2" d="M828.3974,-412.6041C857.1463,-393.3634 904.6994,-357.94 934,-317 964.4483,-274.4563 984.0211,-213.8675 990.8203,-190.6035"/>
<polygon fill="#9a32cd" stroke="#9a32cd" points="826.2086,-409.8541 819.771,-418.2689 830.051,-415.7053 826.2086,-409.8541"/>
<text text-anchor="middle" x="902" y="-382" font-family="Helvetica,sans-Serif" font-size="10.00" fill="#000000"> dyns</text>
</g>
<!-- Node9&#45;&gt;Node2 -->
<g id="edge11" class="edge">
<title>Node9&#45;&gt;Node2</title>
<path fill="none" stroke="#9a32cd" stroke-dasharray="5,2" d="M580.2864,-398.3182C554.7193,-394.6976 523.3424,-389.1274 496,-381 479.2338,-376.0163 461.0742,-367.9786 447.8956,-361.6277"/>
<polygon fill="#9a32cd" stroke="#9a32cd" points="580.1174,-401.8273 590.4975,-399.7053 581.0597,-394.891 580.1174,-401.8273"/>
<text text-anchor="middle" x="528.5" y="-430" font-family="Helvetica,sans-Serif" font-size="10.00" fill="#000000"> param_info</text>
<text text-anchor="middle" x="528.5" y="-419" font-family="Helvetica,sans-Serif" font-size="10.00" fill="#000000">current_results</text>
<text text-anchor="middle" x="528.5" y="-408" font-family="Helvetica,sans-Serif" font-size="10.00" fill="#000000">res_info</text>
<text text-anchor="middle" x="528.5" y="-397" font-family="Helvetica,sans-Serif" font-size="10.00" fill="#000000">comp_info</text>
</g>
<!-- Node9&#45;&gt;Node8 -->
<g id="edge9" class="edge">
<title>Node9&#45;&gt;Node8</title>
<path fill="none" stroke="#9a32cd" stroke-dasharray="5,2" d="M680.6984,-410.9439C708.558,-414.7976 742.5726,-419.5028 767.8135,-422.9944"/>
<polygon fill="#9a32cd" stroke="#9a32cd" points="681.1258,-407.4697 670.7405,-409.5664 680.1665,-414.4037 681.1258,-407.4697"/>
<text text-anchor="middle" x="719" y="-432" font-family="Helvetica,sans-Serif" font-size="10.00" fill="#000000"> res_info</text>
<text text-anchor="middle" x="719" y="-421" font-family="Helvetica,sans-Serif" font-size="10.00" fill="#000000">params</text>
</g>
<!-- Node17 -->
<g id="node9" class="node">
<title>Node17</title>
<g id="a_node9"><a xlink:href="a01188.html" target="_top" xlink:title="Holds informations about a cursor.">
<polygon fill="#ffffff" stroke="#000000" points="773,-334.5 773,-353.5 835,-353.5 835,-334.5 773,-334.5"/>
<text text-anchor="middle" x="804" y="-341.5" font-family="Helvetica,sans-Serif" font-size="10.00" fill="#000000">tds_cursor</text>
</a>
</g>
</g>
<!-- Node9&#45;&gt;Node17 -->
<g id="edge14" class="edge">
<title>Node9&#45;&gt;Node17</title>
<path fill="none" stroke="#9a32cd" stroke-dasharray="5,2" d="M674.2486,-391.5475C693.8774,-385.7103 717.2393,-378.4159 738,-371 752.923,-365.6694 769.423,-358.9194 782.1922,-353.502"/>
<polygon fill="#9a32cd" stroke="#9a32cd" points="673.2535,-388.1918 664.6499,-394.3748 675.2314,-394.9066 673.2535,-388.1918"/>
<text text-anchor="middle" x="719" y="-385" font-family="Helvetica,sans-Serif" font-size="10.00" fill="#000000"> res_info</text>
</g>
<!-- Node17&#45;&gt;Node2 -->
<g id="edge12" class="edge">
<title>Node17&#45;&gt;Node2</title>
<path fill="none" stroke="#9a32cd" stroke-dasharray="5,2" d="M762.9094,-340.6328C739.264,-338.8638 708.9807,-336.8837 682,-336 636.2468,-334.5015 624.7132,-333.5689 579,-336 538.4637,-338.1558 492.0255,-343.5666 461.6925,-347.5004"/>
<polygon fill="#9a32cd" stroke="#9a32cd" points="762.7005,-344.127 772.9384,-341.4001 763.2345,-337.1474 762.7005,-344.127"/>
<text text-anchor="middle" x="630.5" y="-339" font-family="Helvetica,sans-Serif" font-size="10.00" fill="#000000"> cur_cursor</text>
</g>
<!-- Node17&#45;&gt;Node17 -->
<g id="edge15" class="edge">
<title>Node17&#45;&gt;Node17</title>
<path fill="none" stroke="#9a32cd" stroke-dasharray="5,2" d="M788.5309,-363.7663C789.7459,-368.4965 794.9022,-372 804,-372 818.9297,-372 823.2453,-362.5653 816.9468,-353.7571"/>
<polygon fill="#9a32cd" stroke="#9a32cd" points="792.0034,-364.3092 791.0532,-353.7571 785.2156,-362.5986 792.0034,-364.3092"/>
<text text-anchor="middle" x="804" y="-375" font-family="Helvetica,sans-Serif" font-size="10.00" fill="#000000"> next</text>
</g>
<!-- Node17&#45;&gt;Node19 -->
<g id="edge25" class="edge">
<title>Node17&#45;&gt;Node19</title>
<path fill="none" stroke="#9a32cd" stroke-dasharray="5,2" d="M830.6605,-329.234C858.2123,-313.254 901.6405,-286.0013 934,-256 956.4265,-235.2078 977.3527,-205.5593 987.3497,-190.5267"/>
<polygon fill="#9a32cd" stroke="#9a32cd" points="828.5653,-326.4002 821.6214,-334.4023 832.0398,-332.4771 828.5653,-326.4002"/>
<text text-anchor="middle" x="902" y="-305" font-family="Helvetica,sans-Serif" font-size="10.00" fill="#000000"> cursors</text>
</g>
<!-- Node18 -->
<g id="node10" class="node">
<title>Node18</title>
<g id="a_node10"><a xlink:href="a01184.html" target="_top" xlink:title=" ">
<polygon fill="#ffffff" stroke="#000000" points="583,-356.5 583,-375.5 678,-375.5 678,-356.5 583,-356.5"/>
<text text-anchor="middle" x="630.5" y="-363.5" font-family="Helvetica,sans-Serif" font-size="10.00" fill="#000000">tds_cursor_status</text>
</a>
</g>
</g>
<!-- Node18&#45;&gt;Node17 -->
<g id="edge13" class="edge">
<title>Node18&#45;&gt;Node17</title>
<path fill="none" stroke="#9a32cd" stroke-dasharray="5,2" d="M688.5338,-358.6412C716.7558,-355.0627 749.5481,-350.9046 772.959,-347.936"/>
<polygon fill="#9a32cd" stroke="#9a32cd" points="687.8492,-355.1999 678.3689,-359.9302 688.7298,-362.1443 687.8492,-355.1999"/>
<text text-anchor="middle" x="719" y="-359" font-family="Helvetica,sans-Serif" font-size="10.00" fill="#000000"> status</text>
</g>
<!-- Node19&#45;&gt;Node2 -->
<g id="edge16" class="edge">
<title>Node19&#45;&gt;Node2</title>
<path fill="none" stroke="#9a32cd" stroke-dasharray="5,2" d="M992.1164,-200.7908C986.7985,-259.001 962.0106,-428.5255 852,-476 706.6583,-538.7214 625.4742,-556.0746 496,-465 458.5046,-438.6251 438.5852,-384.0059 431.7568,-361.7541"/>
<polygon fill="#9a32cd" stroke="#9a32cd" points="995.6147,-200.9537 992.9399,-190.702 988.6379,-200.3841 995.6147,-200.9537"/>
<text text-anchor="middle" x="719" y="-528" font-family="Helvetica,sans-Serif" font-size="10.00" fill="#000000"> conn</text>
</g>
<!-- Node20 -->
<g id="node12" class="node">
<title>Node20</title>
<g id="a_node12"><a xlink:href="a01216.html" target="_top" xlink:title=" ">
<polygon fill="#ffffff" stroke="#000000" points="759.5,-152.5 759.5,-171.5 848.5,-171.5 848.5,-152.5 759.5,-152.5"/>
<text text-anchor="middle" x="804" y="-159.5" font-family="Helvetica,sans-Serif" font-size="10.00" fill="#000000">tds_poll_wakeup</text>
</a>
</g>
</g>
<!-- Node20&#45;&gt;Node19 -->
<g id="edge18" class="edge">
<title>Node20&#45;&gt;Node19</title>
<path fill="none" stroke="#9a32cd" stroke-dasharray="5,2" d="M858.5506,-167.4449C881.8026,-169.7684 909.2293,-172.5125 934,-175 939.785,-175.5809 945.8862,-176.1948 951.8885,-176.7994"/>
<polygon fill="#9a32cd" stroke="#9a32cd" points="858.8228,-163.9547 848.5244,-166.4432 858.1269,-170.9201 858.8228,-163.9547"/>
<text text-anchor="middle" x="902" y="-178" font-family="Helvetica,sans-Serif" font-size="10.00" fill="#000000"> wakeup</text>
</g>
<!-- Node21 -->
<g id="node13" class="node">
<title>Node21</title>
<g id="a_node13"><a xlink:href="a01192.html" target="_top" xlink:title="Current environment as reported by the server.">
<polygon fill="#ffffff" stroke="#000000" points="778.5,-114.5 778.5,-133.5 829.5,-133.5 829.5,-114.5 778.5,-114.5"/>
<text text-anchor="middle" x="804" y="-121.5" font-family="Helvetica,sans-Serif" font-size="10.00" fill="#000000">tds_env</text>
</a>
</g>
</g>
<!-- Node21&#45;&gt;Node19 -->
<g id="edge19" class="edge">
<title>Node21&#45;&gt;Node19</title>
<path fill="none" stroke="#9a32cd" stroke-dasharray="5,2" d="M839.8216,-129.7933C866.2633,-134.5955 902.9028,-142.3601 934,-153 948.5823,-157.9893 964.3313,-165.503 975.9613,-171.4912"/>
<polygon fill="#9a32cd" stroke="#9a32cd" points="840.3235,-126.3279 829.8676,-128.0377 839.1076,-133.2215 840.3235,-126.3279"/>
<text text-anchor="middle" x="902" y="-156" font-family="Helvetica,sans-Serif" font-size="10.00" fill="#000000"> env</text>
</g>
<!-- Node22 -->
<g id="node14" class="node">
<title>Node22</title>
<g id="a_node14"><a xlink:href="a01204.html" target="_top" xlink:title=" ">
<polygon fill="#ffffff" stroke="#ff0000" points="770,-76.5 770,-95.5 838,-95.5 838,-76.5 770,-76.5"/>
<text text-anchor="middle" x="804" y="-83.5" font-family="Helvetica,sans-Serif" font-size="10.00" fill="#000000">tds_context</text>
</a>
</g>
</g>
<!-- Node22&#45;&gt;Node19 -->
<g id="edge20" class="edge">
<title>Node22&#45;&gt;Node19</title>
<path fill="none" stroke="#9a32cd" stroke-dasharray="5,2" d="M848.295,-91.4967C874.5616,-96.1941 907.7417,-104.7265 934,-120 956.7626,-133.2401 976.6368,-157.5592 986.6345,-171.1495"/>
<polygon fill="#9a32cd" stroke="#9a32cd" points="848.6716,-88.0113 838.2327,-89.822 847.5223,-94.9163 848.6716,-88.0113"/>
<text text-anchor="middle" x="902" y="-123" font-family="Helvetica,sans-Serif" font-size="10.00" fill="#000000"> tds_ctx</text>
</g>
<!-- Node24 -->
<g id="node15" class="node">
<title>Node24</title>
<g id="a_node15"><a xlink:href="a01208.html" target="_top" xlink:title=" ">
<polygon fill="#ffffff" stroke="#000000" points="756,-38.5 756,-57.5 852,-57.5 852,-38.5 756,-38.5"/>
<text text-anchor="middle" x="804" y="-45.5" font-family="Helvetica,sans-Serif" font-size="10.00" fill="#000000">tds_authentication</text>
</a>
</g>
</g>
<!-- Node24&#45;&gt;Node19 -->
<g id="edge21" class="edge">
<title>Node24&#45;&gt;Node19</title>
<path fill="none" stroke="#9a32cd" stroke-dasharray="5,2" d="M862.144,-52.9226C886.251,-57.3257 913.3474,-65.5805 934,-81 965.8899,-104.8093 983.9339,-151.1925 990.5571,-171.3075"/>
<polygon fill="#9a32cd" stroke="#9a32cd" points="862.4577,-49.4274 852.0229,-51.2617 861.3241,-56.335 862.4577,-49.4274"/>
<text text-anchor="middle" x="902" y="-84" font-family="Helvetica,sans-Serif" font-size="10.00" fill="#000000"> authentication</text>
</g>
<!-- Node11 -->
<g id="node16" class="node">
<title>Node11</title>
<g id="a_node16"><a xlink:href="a00980.html" target="_top" xlink:title=" ">
<polygon fill="#ffffff" stroke="#ff0000" points="769.5,-.5 769.5,-19.5 838.5,-19.5 838.5,-.5 769.5,-.5"/>
<text text-anchor="middle" x="804" y="-7.5" font-family="Helvetica,sans-Serif" font-size="10.00" fill="#000000">tdsiconvinfo</text>
</a>
</g>
</g>
<!-- Node11&#45;&gt;Node19 -->
<g id="edge24" class="edge">
<title>Node11&#45;&gt;Node19</title>
<path fill="none" stroke="#9a32cd" stroke-dasharray="5,2" d="M848.8589,-10.3908C876.2494,-12.8505 910.4196,-20.1732 934,-40 976.0958,-75.395 989.0173,-145.7388 992.4216,-171.3706"/>
<polygon fill="#9a32cd" stroke="#9a32cd" points="848.9525,-6.8887 838.7293,-9.6703 848.4558,-13.8711 848.9525,-6.8887"/>
<text text-anchor="middle" x="902" y="-43" font-family="Helvetica,sans-Serif" font-size="10.00" fill="#000000"> char_convs</text>
</g>
<!-- Node25 -->
<g id="node17" class="node">
<title>Node25</title>
<g id="a_node17"><a xlink:href="a01080.html" target="_top" xlink:title="define a stream of data used for output">
<polygon fill="#ffffff" stroke="#000000" points="380,-270.5 380,-289.5 478,-289.5 478,-270.5 380,-270.5"/>
<text text-anchor="middle" x="429" y="-277.5" font-family="Helvetica,sans-Serif" font-size="10.00" fill="#000000">tds_output_stream</text>
</a>
</g>
</g>
<!-- Node25&#45;&gt;Node1 -->
<g id="edge26" class="edge">
<title>Node25&#45;&gt;Node1</title>
<path fill="none" stroke="#9a32cd" stroke-dasharray="5,2" d="M488.2265,-277.2049C490.8532,-277.1261 493.4536,-277.057 496,-277 524.8817,-276.3537 532.123,-276.1697 561,-277 566.7989,-277.1667 572.8665,-277.4116 578.8983,-277.6994"/>
<polygon fill="#9a32cd" stroke="#9a32cd" points="487.8998,-273.7139 478.0244,-277.5516 488.1376,-280.7099 487.8998,-273.7139"/>
<text text-anchor="middle" x="528.5" y="-280" font-family="Helvetica,sans-Serif" font-size="10.00" fill="#000000"> stream</text>
</g>
</g>
</svg>
