<?xml version="1.0" encoding="UTF-8" standalone="no"?>
<!DOCTYPE svg PUBLIC "-//W3C//DTD SVG 1.1//EN"
 "http://www.w3.org/Graphics/SVG/1.1/DTD/svg11.dtd">
<!-- Generated by graphviz version 2.40.1 (20161225.0304)
 -->
<!-- Title: _henv Pages: 1 -->
<svg width="225pt" height="162pt"
 viewBox="0.00 0.00 224.50 162.00" xmlns="http://www.w3.org/2000/svg" xmlns:xlink="http://www.w3.org/1999/xlink">
<g id="graph0" class="graph" transform="scale(1 1) rotate(0) translate(4 158)">
<title>_henv</title>
<polygon fill="#ffffff" stroke="transparent" points="-4,4 -4,-158 220.5,-158 220.5,4 -4,4"/>
<!-- Node1 -->
<g id="node1" class="node">
<title>Node1</title>
<g id="a_node1"><a xlink:title=" ">
<polygon fill="#bfbfbf" stroke="#000000" points="88.5,-.5 88.5,-19.5 131.5,-19.5 131.5,-.5 88.5,-.5"/>
<text text-anchor="middle" x="110" y="-7.5" font-family="Helvetica,sans-Serif" font-size="10.00" fill="#000000">_henv</text>
</a>
</g>
</g>
<!-- Node2 -->
<g id="node2" class="node">
<title>Node2</title>
<g id="a_node2"><a xlink:href="a01204.html" target="_top" xlink:title=" ">
<polygon fill="#ffffff" stroke="#000000" points="0,-67.5 0,-86.5 68,-86.5 68,-67.5 0,-67.5"/>
<text text-anchor="middle" x="34" y="-74.5" font-family="Helvetica,sans-Serif" font-size="10.00" fill="#000000">tds_context</text>
</a>
</g>
</g>
<!-- Node2&#45;&gt;Node1 -->
<g id="edge1" class="edge">
<title>Node2&#45;&gt;Node1</title>
<path fill="none" stroke="#9a32cd" stroke-dasharray="5,2" d="M48.4531,-59.7752C54.7519,-52.6961 62.4188,-44.6231 70,-38 77.6605,-31.3076 86.9284,-24.7369 94.6134,-19.6444"/>
<polygon fill="#9a32cd" stroke="#9a32cd" points="45.6781,-57.633 41.7744,-67.4825 50.9683,-62.2172 45.6781,-57.633"/>
<text text-anchor="middle" x="88" y="-41" font-family="Helvetica,sans-Serif" font-size="10.00" fill="#000000"> tds_ctx</text>
</g>
<!-- Node3 -->
<g id="node3" class="node">
<title>Node3</title>
<g id="a_node3"><a xlink:href="a01140.html" target="_top" xlink:title=" ">
<polygon fill="#ffffff" stroke="#000000" points="3.5,-134.5 3.5,-153.5 64.5,-153.5 64.5,-134.5 3.5,-134.5"/>
<text text-anchor="middle" x="34" y="-141.5" font-family="Helvetica,sans-Serif" font-size="10.00" fill="#000000">tds_locale</text>
</a>
</g>
</g>
<!-- Node3&#45;&gt;Node2 -->
<g id="edge2" class="edge">
<title>Node3&#45;&gt;Node2</title>
<path fill="none" stroke="#9a32cd" stroke-dasharray="5,2" d="M34,-124.1079C34,-111.714 34,-96.3263 34,-86.5817"/>
<polygon fill="#9a32cd" stroke="#9a32cd" points="30.5001,-124.4005 34,-134.4005 37.5001,-124.4006 30.5001,-124.4005"/>
<text text-anchor="middle" x="48.5" y="-108" font-family="Helvetica,sans-Serif" font-size="10.00" fill="#000000"> locale</text>
</g>
<!-- Node4 -->
<g id="node4" class="node">
<title>Node4</title>
<g id="a_node4"><a xlink:href="a01004.html" target="_top" xlink:title=" ">
<polygon fill="#ffffff" stroke="#000000" points="86.5,-67.5 86.5,-86.5 133.5,-86.5 133.5,-67.5 86.5,-67.5"/>
<text text-anchor="middle" x="110" y="-74.5" font-family="Helvetica,sans-Serif" font-size="10.00" fill="#000000">_heattr</text>
</a>
</g>
</g>
<!-- Node4&#45;&gt;Node1 -->
<g id="edge3" class="edge">
<title>Node4&#45;&gt;Node1</title>
<path fill="none" stroke="#9a32cd" stroke-dasharray="5,2" d="M110,-57.1079C110,-44.714 110,-29.3263 110,-19.5817"/>
<polygon fill="#9a32cd" stroke="#9a32cd" points="106.5001,-57.4005 110,-67.4005 113.5001,-57.4006 106.5001,-57.4005"/>
<text text-anchor="middle" x="119" y="-41" font-family="Helvetica,sans-Serif" font-size="10.00" fill="#000000"> attr</text>
</g>
<!-- Node5 -->
<g id="node5" class="node">
<title>Node5</title>
<g id="a_node5"><a xlink:href="a00988.html" target="_top" xlink:title=" ">
<polygon fill="#ffffff" stroke="#000000" points="151.5,-67.5 151.5,-86.5 216.5,-86.5 216.5,-67.5 151.5,-67.5"/>
<text text-anchor="middle" x="184" y="-74.5" font-family="Helvetica,sans-Serif" font-size="10.00" fill="#000000">_sql_errors</text>
</a>
</g>
</g>
<!-- Node5&#45;&gt;Node1 -->
<g id="edge4" class="edge">
<title>Node5&#45;&gt;Node1</title>
<path fill="none" stroke="#9a32cd" stroke-dasharray="5,2" d="M165.7099,-60.44C151.515,-47.5879 132.3339,-30.2212 120.5827,-19.5817"/>
<polygon fill="#9a32cd" stroke="#9a32cd" points="163.6355,-63.2833 173.3976,-67.4005 168.3337,-58.0942 163.6355,-63.2833"/>
<text text-anchor="middle" x="162" y="-41" font-family="Helvetica,sans-Serif" font-size="10.00" fill="#000000"> errs</text>
</g>
<!-- Node6 -->
<g id="node6" class="node">
<title>Node6</title>
<g id="a_node6"><a xlink:href="a00984.html" target="_top" xlink:title=" ">
<polygon fill="#ffffff" stroke="#000000" points="154.5,-134.5 154.5,-153.5 213.5,-153.5 213.5,-134.5 154.5,-134.5"/>
<text text-anchor="middle" x="184" y="-141.5" font-family="Helvetica,sans-Serif" font-size="10.00" fill="#000000">_sql_error</text>
</a>
</g>
</g>
<!-- Node6&#45;&gt;Node5 -->
<g id="edge5" class="edge">
<title>Node6&#45;&gt;Node5</title>
<path fill="none" stroke="#9a32cd" stroke-dasharray="5,2" d="M184,-124.1079C184,-111.714 184,-96.3263 184,-86.5817"/>
<polygon fill="#9a32cd" stroke="#9a32cd" points="180.5001,-124.4005 184,-134.4005 187.5001,-124.4006 180.5001,-124.4005"/>
<text text-anchor="middle" x="194" y="-108" font-family="Helvetica,sans-Serif" font-size="10.00" fill="#000000"> errs</text>
</g>
</g>
</svg>
