<?xml version="1.0" encoding="UTF-8" standalone="no"?>
<!DOCTYPE svg PUBLIC "-//W3C//DTD SVG 1.1//EN"
 "http://www.w3.org/Graphics/SVG/1.1/DTD/svg11.dtd">
<!-- Generated by graphviz version 2.40.1 (20161225.0304)
 -->
<!-- Title: tds_cursor Pages: 1 -->
<svg width="978pt" height="425pt"
 viewBox="0.00 0.00 978.00 425.00" xmlns="http://www.w3.org/2000/svg" xmlns:xlink="http://www.w3.org/1999/xlink">
<g id="graph0" class="graph" transform="scale(1 1) rotate(0) translate(4 421)">
<title>tds_cursor</title>
<polygon fill="#ffffff" stroke="transparent" points="-4,4 -4,-421 974,-421 974,4 -4,4"/>
<!-- Node1 -->
<g id="node1" class="node">
<title>Node1</title>
<g id="a_node1"><a xlink:title="Holds informations about a cursor.">
<polygon fill="#bfbfbf" stroke="#000000" points="237,-357.5 237,-376.5 299,-376.5 299,-357.5 237,-357.5"/>
<text text-anchor="middle" x="268" y="-364.5" font-family="Helvetica,sans-Serif" font-size="10.00" fill="#000000">tds_cursor</text>
</a>
</g>
</g>
<!-- Node1&#45;&gt;Node1 -->
<g id="edge23" class="edge">
<title>Node1&#45;&gt;Node1</title>
<path fill="none" stroke="#9a32cd" stroke-dasharray="5,2" d="M248.3713,-386.4C249.6822,-391.3146 256.2251,-395 268,-395 286.8398,-395 292.2857,-385.5653 284.3377,-376.7571"/>
<polygon fill="#9a32cd" stroke="#9a32cd" points="251.7447,-387.3516 251.6623,-376.7571 245.1199,-385.0906 251.7447,-387.3516"/>
<text text-anchor="middle" x="268" y="-398" font-family="Helvetica,sans-Serif" font-size="10.00" fill="#000000"> next</text>
</g>
<!-- Node4 -->
<g id="node4" class="node">
<title>Node4</title>
<g id="a_node4"><a xlink:href="a01224.html" target="_top" xlink:title="Information for a server connection.">
<polygon fill="#ffffff" stroke="#000000" points="433,-281.5 433,-300.5 498,-300.5 498,-281.5 433,-281.5"/>
<text text-anchor="middle" x="465.5" y="-288.5" font-family="Helvetica,sans-Serif" font-size="10.00" fill="#000000">tds_socket</text>
</a>
</g>
</g>
<!-- Node1&#45;&gt;Node4 -->
<g id="edge12" class="edge">
<title>Node1&#45;&gt;Node4</title>
<path fill="none" stroke="#9a32cd" stroke-dasharray="5,2" d="M302.5045,-353.7223C342.0177,-338.5172 405.7791,-313.9812 440.6896,-300.5473"/>
<polygon fill="#9a32cd" stroke="#9a32cd" points="301.0894,-350.5166 293.0135,-357.3745 303.6034,-357.0496 301.0894,-350.5166"/>
<text text-anchor="middle" x="374" y="-343" font-family="Helvetica,sans-Serif" font-size="10.00" fill="#000000"> cur_cursor</text>
</g>
<!-- Node11 -->
<g id="node9" class="node">
<title>Node11</title>
<g id="a_node9"><a xlink:href="a01220.html" target="_top" xlink:title=" ">
<polygon fill="#ffffff" stroke="#ff0000" points="887,-258.5 887,-277.5 970,-277.5 970,-258.5 887,-258.5"/>
<text text-anchor="middle" x="928.5" y="-265.5" font-family="Helvetica,sans-Serif" font-size="10.00" fill="#000000">tds_connection</text>
</a>
</g>
</g>
<!-- Node1&#45;&gt;Node11 -->
<g id="edge17" class="edge">
<title>Node1&#45;&gt;Node11</title>
<path fill="none" stroke="#9a32cd" stroke-dasharray="5,2" d="M307.1908,-379.4242C346.7219,-390.8405 409.717,-406 465.5,-406 465.5,-406 465.5,-406 790,-406 862.6394,-406 910.6174,-309.5668 924.405,-277.9246"/>
<polygon fill="#9a32cd" stroke="#9a32cd" points="308.0028,-376.0147 297.421,-376.5405 306.021,-382.7283 308.0028,-376.0147"/>
<text text-anchor="middle" x="640" y="-409" font-family="Helvetica,sans-Serif" font-size="10.00" fill="#000000"> cursors</text>
</g>
<!-- Node2 -->
<g id="node2" class="node">
<title>Node2</title>
<g id="a_node2"><a xlink:href="a01184.html" target="_top" xlink:title=" ">
<polygon fill="#ffffff" stroke="#000000" points="0,-357.5 0,-376.5 95,-376.5 95,-357.5 0,-357.5"/>
<text text-anchor="middle" x="47.5" y="-364.5" font-family="Helvetica,sans-Serif" font-size="10.00" fill="#000000">tds_cursor_status</text>
</a>
</g>
</g>
<!-- Node2&#45;&gt;Node1 -->
<g id="edge1" class="edge">
<title>Node2&#45;&gt;Node1</title>
<path fill="none" stroke="#9a32cd" stroke-dasharray="5,2" d="M105.1922,-367C147.2766,-367 202.699,-367 236.813,-367"/>
<polygon fill="#9a32cd" stroke="#9a32cd" points="105.0738,-363.5001 95.0737,-367 105.0737,-370.5001 105.0738,-363.5001"/>
<text text-anchor="middle" x="157.5" y="-370" font-family="Helvetica,sans-Serif" font-size="10.00" fill="#000000"> status</text>
</g>
<!-- Node3 -->
<g id="node3" class="node">
<title>Node3</title>
<g id="a_node3"><a xlink:href="a01172.html" target="_top" xlink:title="Hold information for any results.">
<polygon fill="#ffffff" stroke="#000000" points="600,-247.5 600,-266.5 680,-266.5 680,-247.5 600,-247.5"/>
<text text-anchor="middle" x="640" y="-254.5" font-family="Helvetica,sans-Serif" font-size="10.00" fill="#000000">tds_result_info</text>
</a>
</g>
</g>
<!-- Node3&#45;&gt;Node1 -->
<g id="edge2" class="edge">
<title>Node3&#45;&gt;Node1</title>
<path fill="none" stroke="#9a32cd" stroke-dasharray="5,2" d="M619.418,-272.7975C608.6808,-280.522 595.0844,-289.5249 582,-296 511.3324,-330.9712 491.0928,-336.4596 414,-353 374.9119,-361.3864 328.8551,-364.752 299.0788,-366.1008"/>
<polygon fill="#9a32cd" stroke="#9a32cd" points="621.7224,-275.4468 627.6908,-266.693 617.5661,-269.8143 621.7224,-275.4468"/>
<text text-anchor="middle" x="465.5" y="-351" font-family="Helvetica,sans-Serif" font-size="10.00" fill="#000000"> res_info</text>
</g>
<!-- Node3&#45;&gt;Node4 -->
<g id="edge11" class="edge">
<title>Node3&#45;&gt;Node4</title>
<path fill="none" stroke="#9a32cd" stroke-dasharray="5,2" d="M620.7671,-241.2647C610.0546,-233.524 596.0684,-225.0111 582,-221 554.2183,-213.079 542.7793,-207.9617 517,-221 491.8234,-233.7335 475.9486,-265.2151 469.2201,-281.2606"/>
<polygon fill="#9a32cd" stroke="#9a32cd" points="618.8471,-244.2017 628.9254,-247.4695 623.0846,-238.63 618.8471,-244.2017"/>
<text text-anchor="middle" x="549.5" y="-257" font-family="Helvetica,sans-Serif" font-size="10.00" fill="#000000"> param_info</text>
<text text-anchor="middle" x="549.5" y="-246" font-family="Helvetica,sans-Serif" font-size="10.00" fill="#000000">current_results</text>
<text text-anchor="middle" x="549.5" y="-235" font-family="Helvetica,sans-Serif" font-size="10.00" fill="#000000">res_info</text>
<text text-anchor="middle" x="549.5" y="-224" font-family="Helvetica,sans-Serif" font-size="10.00" fill="#000000">comp_info</text>
</g>
<!-- Node10 -->
<g id="node8" class="node">
<title>Node10</title>
<g id="a_node8"><a xlink:href="a01196.html" target="_top" xlink:title="Holds information for a dynamic (also called prepared) query.">
<polygon fill="#ffffff" stroke="#000000" points="754,-258.5 754,-277.5 826,-277.5 826,-258.5 754,-258.5"/>
<text text-anchor="middle" x="790" y="-265.5" font-family="Helvetica,sans-Serif" font-size="10.00" fill="#000000">tds_dynamic</text>
</a>
</g>
</g>
<!-- Node3&#45;&gt;Node10 -->
<g id="edge10" class="edge">
<title>Node3&#45;&gt;Node10</title>
<path fill="none" stroke="#9a32cd" stroke-dasharray="5,2" d="M690.4441,-260.6992C711.2082,-262.2219 734.795,-263.9516 753.7968,-265.3451"/>
<polygon fill="#9a32cd" stroke="#9a32cd" points="690.4265,-257.1886 680.1972,-259.9478 689.9145,-264.1699 690.4265,-257.1886"/>
<text text-anchor="middle" x="717" y="-277" font-family="Helvetica,sans-Serif" font-size="10.00" fill="#000000"> res_info</text>
<text text-anchor="middle" x="717" y="-266" font-family="Helvetica,sans-Serif" font-size="10.00" fill="#000000">params</text>
</g>
<!-- Node4&#45;&gt;Node3 -->
<g id="edge3" class="edge">
<title>Node4&#45;&gt;Node3</title>
<path fill="none" stroke="#9a32cd" stroke-dasharray="5,2" d="M508.2175,-283.117C530.2689,-279.0012 557.5964,-273.8283 582,-269 587.7497,-267.8624 593.8144,-266.6365 599.7687,-265.418"/>
<polygon fill="#9a32cd" stroke="#9a32cd" points="507.3607,-279.7163 498.1702,-284.9875 508.6418,-286.5981 507.3607,-279.7163"/>
<text text-anchor="middle" x="549.5" y="-284" font-family="Helvetica,sans-Serif" font-size="10.00" fill="#000000"> attached_to</text>
</g>
<!-- Node5 -->
<g id="node5" class="node">
<title>Node5</title>
<g id="a_node5"><a xlink:href="a01132.html" target="_top" xlink:title=" ">
<polygon fill="#ffffff" stroke="#ff0000" points="240,-273.5 240,-292.5 296,-292.5 296,-273.5 240,-273.5"/>
<text text-anchor="middle" x="268" y="-280.5" font-family="Helvetica,sans-Serif" font-size="10.00" fill="#000000">tds_login</text>
</a>
</g>
</g>
<!-- Node5&#45;&gt;Node4 -->
<g id="edge4" class="edge">
<title>Node5&#45;&gt;Node4</title>
<path fill="none" stroke="#9a32cd" stroke-dasharray="5,2" d="M306.6427,-284.5653C343.4804,-286.0574 398.3296,-288.2792 432.9854,-289.683"/>
<polygon fill="#9a32cd" stroke="#9a32cd" points="306.4304,-281.0539 296.2969,-284.1462 306.1471,-288.0482 306.4304,-281.0539"/>
<text text-anchor="middle" x="374" y="-291" font-family="Helvetica,sans-Serif" font-size="10.00" fill="#000000"> login</text>
</g>
<!-- Node8 -->
<g id="node6" class="node">
<title>Node8</title>
<g id="a_node6"><a xlink:href="a01268.html" target="_top" xlink:title="Structure to hold a string.">
<polygon fill="#ffffff" stroke="#000000" points="21.5,-161.5 21.5,-180.5 73.5,-180.5 73.5,-161.5 21.5,-161.5"/>
<text text-anchor="middle" x="47.5" y="-168.5" font-family="Helvetica,sans-Serif" font-size="10.00" fill="#000000">tds_dstr</text>
</a>
</g>
</g>
<!-- Node8&#45;&gt;Node5 -->
<g id="edge5" class="edge">
<title>Node8&#45;&gt;Node5</title>
<path fill="none" stroke="#9a32cd" stroke-dasharray="5,2" d="M83.5904,-177.9491C117.3152,-185.9575 167.5072,-201.9235 202,-231 213.8887,-241.0218 208.4139,-250.6299 220,-261 225.7377,-266.1354 232.8779,-270.2694 239.8826,-273.5062"/>
<polygon fill="#9a32cd" stroke="#9a32cd" points="84.2137,-174.5018 73.6883,-175.7135 82.672,-181.33 84.2137,-174.5018"/>
<text text-anchor="middle" x="157.5" y="-355" font-family="Helvetica,sans-Serif" font-size="10.00" fill="#000000"> server_realm_name</text>
<text text-anchor="middle" x="157.5" y="-344" font-family="Helvetica,sans-Serif" font-size="10.00" fill="#000000">password</text>
<text text-anchor="middle" x="157.5" y="-333" font-family="Helvetica,sans-Serif" font-size="10.00" fill="#000000">server_name</text>
<text text-anchor="middle" x="157.5" y="-322" font-family="Helvetica,sans-Serif" font-size="10.00" fill="#000000">dump_file</text>
<text text-anchor="middle" x="157.5" y="-311" font-family="Helvetica,sans-Serif" font-size="10.00" fill="#000000">library</text>
<text text-anchor="middle" x="157.5" y="-300" font-family="Helvetica,sans-Serif" font-size="10.00" fill="#000000">crlfile</text>
<text text-anchor="middle" x="157.5" y="-289" font-family="Helvetica,sans-Serif" font-size="10.00" fill="#000000">server_spn</text>
<text text-anchor="start" x="113" y="-278" font-family="Helvetica,sans-Serif" font-size="10.00" fill="#000000">client_host</text>
<text text-anchor="middle" x="157.5" y="-267" font-family="Helvetica,sans-Serif" font-size="10.00" fill="#000000">_name</text>
<text text-anchor="middle" x="157.5" y="-256" font-family="Helvetica,sans-Serif" font-size="10.00" fill="#000000">client_charset</text>
<text text-anchor="middle" x="157.5" y="-245" font-family="Helvetica,sans-Serif" font-size="10.00" fill="#000000">openssl_ciphers</text>
<text text-anchor="middle" x="157.5" y="-234" font-family="Helvetica,sans-Serif" font-size="10.00" fill="#000000">...</text>
</g>
<!-- Node21 -->
<g id="node11" class="node">
<title>Node21</title>
<g id="a_node11"><a xlink:href="a01164.html" target="_top" xlink:title="Metadata about columns in regular and compute rows.">
<polygon fill="#ffffff" stroke="#000000" points="432,-91.5 432,-110.5 499,-110.5 499,-91.5 432,-91.5"/>
<text text-anchor="middle" x="465.5" y="-98.5" font-family="Helvetica,sans-Serif" font-size="10.00" fill="#000000">tds_column</text>
</a>
</g>
</g>
<!-- Node8&#45;&gt;Node21 -->
<g id="edge20" class="edge">
<title>Node8&#45;&gt;Node21</title>
<path fill="none" stroke="#9a32cd" stroke-dasharray="5,2" d="M84.2878,-167.1384C150.6606,-159.8041 294.6439,-142.2131 414,-116 420.9128,-114.4818 428.26,-112.543 435.1745,-110.5672"/>
<polygon fill="#9a32cd" stroke="#9a32cd" points="83.5032,-163.7031 73.942,-168.2676 84.2628,-170.6618 83.5032,-163.7031"/>
<text text-anchor="middle" x="268" y="-175" font-family="Helvetica,sans-Serif" font-size="10.00" fill="#000000"> column_name</text>
<text text-anchor="middle" x="268" y="-164" font-family="Helvetica,sans-Serif" font-size="10.00" fill="#000000">table_name</text>
<text text-anchor="middle" x="268" y="-153" font-family="Helvetica,sans-Serif" font-size="10.00" fill="#000000">table_column_name</text>
</g>
<!-- Node9 -->
<g id="node7" class="node">
<title>Node9</title>
<g id="a_node7"><a xlink:href="a01212.html" target="_top" xlink:title=" ">
<polygon fill="#ffffff" stroke="#000000" points="235.5,-203.5 235.5,-222.5 300.5,-222.5 300.5,-203.5 235.5,-203.5"/>
<text text-anchor="middle" x="268" y="-210.5" font-family="Helvetica,sans-Serif" font-size="10.00" fill="#000000">tds_packet</text>
</a>
</g>
</g>
<!-- Node9&#45;&gt;Node4 -->
<g id="edge6" class="edge">
<title>Node9&#45;&gt;Node4</title>
<path fill="none" stroke="#9a32cd" stroke-dasharray="5,2" d="M310.6822,-217.9576C340.787,-222.6892 381.3925,-231.6211 414,-248 430.8618,-256.4697 447.0061,-271.4394 456.5887,-281.2908"/>
<polygon fill="#9a32cd" stroke="#9a32cd" points="310.9062,-214.4528 300.502,-216.4538 309.8832,-221.3776 310.9062,-214.4528"/>
<text text-anchor="middle" x="374" y="-273" font-family="Helvetica,sans-Serif" font-size="10.00" fill="#000000"> frozen_packets</text>
<text text-anchor="middle" x="374" y="-262" font-family="Helvetica,sans-Serif" font-size="10.00" fill="#000000">recv_packet</text>
<text text-anchor="middle" x="374" y="-251" font-family="Helvetica,sans-Serif" font-size="10.00" fill="#000000">send_packet</text>
</g>
<!-- Node9&#45;&gt;Node9 -->
<g id="edge7" class="edge">
<title>Node9&#45;&gt;Node9</title>
<path fill="none" stroke="#9a32cd" stroke-dasharray="5,2" d="M248.3713,-232.4C249.6822,-237.3146 256.2251,-241 268,-241 286.8398,-241 292.2857,-231.5653 284.3377,-222.7571"/>
<polygon fill="#9a32cd" stroke="#9a32cd" points="251.7447,-233.3516 251.6623,-222.7571 245.1199,-231.0906 251.7447,-233.3516"/>
<text text-anchor="middle" x="268" y="-244" font-family="Helvetica,sans-Serif" font-size="10.00" fill="#000000"> next</text>
</g>
<!-- Node9&#45;&gt;Node11 -->
<g id="edge14" class="edge">
<title>Node9&#45;&gt;Node11</title>
<path fill="none" stroke="#9a32cd" stroke-dasharray="5,2" d="M310.806,-203.5372C360.1959,-193.1432 443.9934,-177.114 517,-171 670.6001,-158.1366 849.1036,-231.6497 908.2939,-258.4839"/>
<polygon fill="#9a32cd" stroke="#9a32cd" points="309.8585,-200.1604 300.8053,-205.664 311.3146,-207.0072 309.8585,-200.1604"/>
<text text-anchor="middle" x="640" y="-186" font-family="Helvetica,sans-Serif" font-size="10.00" fill="#000000"> packet_cache</text>
</g>
<!-- Node10&#45;&gt;Node4 -->
<g id="edge8" class="edge">
<title>Node10&#45;&gt;Node4</title>
<path fill="none" stroke="#9a32cd" stroke-dasharray="5,2" d="M760.531,-281.4486C752.7105,-284.4627 744.1656,-287.2753 736,-289 651.683,-306.8092 549.26,-300.1148 498.0096,-294.8947"/>
<polygon fill="#9a32cd" stroke="#9a32cd" points="762.0356,-284.6147 769.9665,-277.5896 759.3857,-278.1356 762.0356,-284.6147"/>
<text text-anchor="middle" x="640" y="-303" font-family="Helvetica,sans-Serif" font-size="10.00" fill="#000000"> cur_dyn</text>
</g>
<!-- Node10&#45;&gt;Node10 -->
<g id="edge9" class="edge">
<title>Node10&#45;&gt;Node10</title>
<path fill="none" stroke="#9a32cd" stroke-dasharray="5,2" d="M777.8457,-287.7663C778.8003,-292.4965 782.8517,-296 790,-296 801.7305,-296 805.1213,-286.5653 800.1725,-277.7571"/>
<polygon fill="#9a32cd" stroke="#9a32cd" points="781.3185,-288.2464 779.8275,-277.7571 774.4518,-286.8868 781.3185,-288.2464"/>
<text text-anchor="middle" x="790" y="-299" font-family="Helvetica,sans-Serif" font-size="10.00" fill="#000000"> next</text>
</g>
<!-- Node10&#45;&gt;Node11 -->
<g id="edge15" class="edge">
<title>Node10&#45;&gt;Node11</title>
<path fill="none" stroke="#9a32cd" stroke-dasharray="5,2" d="M836.413,-268C852.6996,-268 870.884,-268 886.7635,-268"/>
<polygon fill="#9a32cd" stroke="#9a32cd" points="836.0277,-264.5001 826.0277,-268 836.0277,-271.5001 836.0277,-264.5001"/>
<text text-anchor="middle" x="856.5" y="-271" font-family="Helvetica,sans-Serif" font-size="10.00" fill="#000000"> dyns</text>
</g>
<!-- Node11&#45;&gt;Node4 -->
<g id="edge13" class="edge">
<title>Node11&#45;&gt;Node4</title>
<path fill="none" stroke="#9a32cd" stroke-dasharray="5,2" d="M904.8678,-282.7322C884.7533,-294.3517 854.6456,-309.6249 826,-316 691.935,-345.8361 651.2799,-340.8534 517,-312 505.8605,-309.6064 494.0484,-304.9577 484.5504,-300.6413"/>
<polygon fill="#9a32cd" stroke="#9a32cd" points="906.812,-285.6484 913.627,-277.5364 903.2407,-279.6279 906.812,-285.6484"/>
<text text-anchor="middle" x="717" y="-338" font-family="Helvetica,sans-Serif" font-size="10.00" fill="#000000"> conn</text>
</g>
<!-- Node17 -->
<g id="node10" class="node">
<title>Node17</title>
<g id="a_node10"><a xlink:href="a00980.html" target="_top" xlink:title=" ">
<polygon fill="#ffffff" stroke="#ff0000" points="233.5,-3.5 233.5,-22.5 302.5,-22.5 302.5,-3.5 233.5,-3.5"/>
<text text-anchor="middle" x="268" y="-10.5" font-family="Helvetica,sans-Serif" font-size="10.00" fill="#000000">tdsiconvinfo</text>
</a>
</g>
</g>
<!-- Node17&#45;&gt;Node11 -->
<g id="edge16" class="edge">
<title>Node17&#45;&gt;Node11</title>
<path fill="none" stroke="#9a32cd" stroke-dasharray="5,2" d="M312.524,-8.3923C352.5168,-4.6537 412.8682,0 465.5,0 465.5,0 465.5,0 790,0 908.8883,0 925.834,-210.7204 928.1477,-258.4617"/>
<polygon fill="#9a32cd" stroke="#9a32cd" points="312.1831,-4.9089 302.5613,-9.3442 312.8489,-11.8771 312.1831,-4.9089"/>
<text text-anchor="middle" x="640" y="-3" font-family="Helvetica,sans-Serif" font-size="10.00" fill="#000000"> char_convs</text>
</g>
<!-- Node17&#45;&gt;Node21 -->
<g id="edge19" class="edge">
<title>Node17&#45;&gt;Node21</title>
<path fill="none" stroke="#9a32cd" stroke-dasharray="5,2" d="M312.7691,-21.4351C342.673,-28.2599 382.201,-39.6335 414,-57 430.72,-66.1313 446.902,-81.3257 456.5314,-91.2529"/>
<polygon fill="#9a32cd" stroke="#9a32cd" points="313.1393,-17.9331 302.6215,-19.2084 311.6389,-24.7704 313.1393,-17.9331"/>
<text text-anchor="middle" x="374" y="-60" font-family="Helvetica,sans-Serif" font-size="10.00" fill="#000000"> char_conv</text>
</g>
<!-- Node21&#45;&gt;Node3 -->
<g id="edge18" class="edge">
<title>Node21&#45;&gt;Node3</title>
<path fill="none" stroke="#9a32cd" stroke-dasharray="5,2" d="M485.5976,-117.0265C509.1776,-136.0292 549.2176,-168.9232 582,-199 599.8384,-215.3661 619.5619,-235.5727 630.8006,-247.3021"/>
<polygon fill="#9a32cd" stroke="#9a32cd" points="487.6879,-114.2162 477.6989,-110.6849 483.3055,-119.6747 487.6879,-114.2162"/>
<text text-anchor="middle" x="549.5" y="-202" font-family="Helvetica,sans-Serif" font-size="10.00" fill="#000000"> columns</text>
</g>
<!-- Node22 -->
<g id="node12" class="node">
<title>Node22</title>
<g id="a_node12"><a xlink:href="a01160.html" target="_top" xlink:title=" ">
<polygon fill="#ffffff" stroke="#000000" points="220,-53.5 220,-72.5 316,-72.5 316,-53.5 220,-53.5"/>
<text text-anchor="middle" x="268" y="-60.5" font-family="Helvetica,sans-Serif" font-size="10.00" fill="#000000">tds_column_funcs</text>
</a>
</g>
</g>
<!-- Node22&#45;&gt;Node21 -->
<g id="edge21" class="edge">
<title>Node22&#45;&gt;Node21</title>
<path fill="none" stroke="#9a32cd" stroke-dasharray="5,2" d="M326.3053,-70.4518C353.1594,-74.3267 385.355,-79.5994 414,-86 420.9072,-87.5434 428.2521,-89.4924 435.1662,-91.4702"/>
<polygon fill="#9a32cd" stroke="#9a32cd" points="326.6849,-66.9707 316.2932,-69.0357 325.7045,-73.9018 326.6849,-66.9707"/>
<text text-anchor="middle" x="374" y="-89" font-family="Helvetica,sans-Serif" font-size="10.00" fill="#000000"> funcs</text>
</g>
<!-- Node23 -->
<g id="node13" class="node">
<title>Node23</title>
<g id="a_node13"><a xlink:href="a01156.html" target="_top" xlink:title=" ">
<polygon fill="#ffffff" stroke="#000000" points="226.5,-91.5 226.5,-110.5 309.5,-110.5 309.5,-91.5 226.5,-91.5"/>
<text text-anchor="middle" x="268" y="-98.5" font-family="Helvetica,sans-Serif" font-size="10.00" fill="#000000">tds_bcpcoldata</text>
</a>
</g>
</g>
<!-- Node23&#45;&gt;Node21 -->
<g id="edge22" class="edge">
<title>Node23&#45;&gt;Node21</title>
<path fill="none" stroke="#9a32cd" stroke-dasharray="5,2" d="M320.0344,-101C355.4174,-101 401.198,-101 431.864,-101"/>
<polygon fill="#9a32cd" stroke="#9a32cd" points="319.8847,-97.5001 309.8847,-101 319.8846,-104.5001 319.8847,-97.5001"/>
<text text-anchor="middle" x="374" y="-104" font-family="Helvetica,sans-Serif" font-size="10.00" fill="#000000"> bcp_column_data</text>
</g>
</g>
</svg>
