<?xml version="1.0" encoding="UTF-8" standalone="no"?>
<!DOCTYPE svg PUBLIC "-//W3C//DTD SVG 1.1//EN"
 "http://www.w3.org/Graphics/SVG/1.1/DTD/svg11.dtd">
<!-- Generated by graphviz version 2.40.1 (20161225.0304)
 -->
<!-- Title: tds_dynamic Pages: 1 -->
<svg width="936pt" height="459pt"
 viewBox="0.00 0.00 936.00 459.00" xmlns="http://www.w3.org/2000/svg" xmlns:xlink="http://www.w3.org/1999/xlink">
<g id="graph0" class="graph" transform="scale(1 1) rotate(0) translate(4 455)">
<title>tds_dynamic</title>
<polygon fill="#ffffff" stroke="transparent" points="-4,4 -4,-455 932,-455 932,4 -4,4"/>
<!-- Node1 -->
<g id="node1" class="node">
<title>Node1</title>
<g id="a_node1"><a xlink:title="Holds information for a dynamic (also called prepared) query.">
<polygon fill="#bfbfbf" stroke="#000000" points="189,-239.5 189,-258.5 261,-258.5 261,-239.5 189,-239.5"/>
<text text-anchor="middle" x="225" y="-246.5" font-family="Helvetica,sans-Serif" font-size="10.00" fill="#000000">tds_dynamic</text>
</a>
</g>
</g>
<!-- Node1&#45;&gt;Node1 -->
<g id="edge1" class="edge">
<title>Node1&#45;&gt;Node1</title>
<path fill="none" stroke="#9a32cd" stroke-dasharray="5,2" d="M205.3713,-268.4C206.6822,-273.3146 213.2251,-277 225,-277 243.8398,-277 249.2857,-267.5653 241.3377,-258.7571"/>
<polygon fill="#9a32cd" stroke="#9a32cd" points="208.7447,-269.3516 208.6623,-258.7571 202.1199,-267.0906 208.7447,-269.3516"/>
<text text-anchor="middle" x="225" y="-280" font-family="Helvetica,sans-Serif" font-size="10.00" fill="#000000"> next</text>
</g>
<!-- Node3 -->
<g id="node3" class="node">
<title>Node3</title>
<g id="a_node3"><a xlink:href="a01224.html" target="_top" xlink:title="Information for a server connection.">
<polygon fill="#ffffff" stroke="#000000" points="390,-289.5 390,-308.5 455,-308.5 455,-289.5 390,-289.5"/>
<text text-anchor="middle" x="422.5" y="-296.5" font-family="Helvetica,sans-Serif" font-size="10.00" fill="#000000">tds_socket</text>
</a>
</g>
</g>
<!-- Node1&#45;&gt;Node3 -->
<g id="edge8" class="edge">
<title>Node1&#45;&gt;Node3</title>
<path fill="none" stroke="#9a32cd" stroke-dasharray="5,2" d="M271.108,-260.6729C307.5082,-269.8882 357.3931,-282.5172 389.783,-290.7172"/>
<polygon fill="#9a32cd" stroke="#9a32cd" points="271.7777,-257.2321 261.2245,-258.1708 270.0597,-264.018 271.7777,-257.2321"/>
<text text-anchor="middle" x="331" y="-289" font-family="Helvetica,sans-Serif" font-size="10.00" fill="#000000"> cur_dyn</text>
</g>
<!-- Node11 -->
<g id="node8" class="node">
<title>Node11</title>
<g id="a_node8"><a xlink:href="a01220.html" target="_top" xlink:title=" ">
<polygon fill="#ffffff" stroke="#ff0000" points="845,-325.5 845,-344.5 928,-344.5 928,-325.5 845,-325.5"/>
<text text-anchor="middle" x="886.5" y="-332.5" font-family="Helvetica,sans-Serif" font-size="10.00" fill="#000000">tds_connection</text>
</a>
</g>
</g>
<!-- Node1&#45;&gt;Node11 -->
<g id="edge15" class="edge">
<title>Node1&#45;&gt;Node11</title>
<path fill="none" stroke="#9a32cd" stroke-dasharray="5,2" d="M270.0748,-237.0088C325.3556,-223.3793 422.1211,-203 506.5,-203 506.5,-203 506.5,-203 742,-203 814.3737,-203 866.3469,-294.3804 881.7648,-325.0785"/>
<polygon fill="#9a32cd" stroke="#9a32cd" points="269.0985,-233.6451 260.2478,-239.4688 270.7984,-240.4356 269.0985,-233.6451"/>
<text text-anchor="middle" x="597" y="-206" font-family="Helvetica,sans-Serif" font-size="10.00" fill="#000000"> dyns</text>
</g>
<!-- Node2 -->
<g id="node2" class="node">
<title>Node2</title>
<g id="a_node2"><a xlink:href="a01172.html" target="_top" xlink:title="Hold information for any results.">
<polygon fill="#ffffff" stroke="#000000" points="557,-253.5 557,-272.5 637,-272.5 637,-253.5 557,-253.5"/>
<text text-anchor="middle" x="597" y="-260.5" font-family="Helvetica,sans-Serif" font-size="10.00" fill="#000000">tds_result_info</text>
</a>
</g>
</g>
<!-- Node2&#45;&gt;Node1 -->
<g id="edge2" class="edge">
<title>Node2&#45;&gt;Node1</title>
<path fill="none" stroke="#9a32cd" stroke-dasharray="5,2" d="M546.7453,-253.8367C544.1308,-253.5163 541.5374,-253.2334 539,-253 438.8367,-243.7855 319.9537,-245.7752 261.3598,-247.6054"/>
<polygon fill="#9a32cd" stroke="#9a32cd" points="546.4746,-257.3325 556.8595,-255.2337 547.4325,-250.3983 546.4746,-257.3325"/>
<text text-anchor="middle" x="422.5" y="-262" font-family="Helvetica,sans-Serif" font-size="10.00" fill="#000000"> res_info</text>
<text text-anchor="middle" x="422.5" y="-251" font-family="Helvetica,sans-Serif" font-size="10.00" fill="#000000">params</text>
</g>
<!-- Node2&#45;&gt;Node3 -->
<g id="edge9" class="edge">
<title>Node2&#45;&gt;Node3</title>
<path fill="none" stroke="#9a32cd" stroke-dasharray="5,2" d="M546.6815,-273.4135C544.0837,-273.9502 541.5113,-274.4815 539,-275 510.6865,-280.8454 478.499,-287.4751 455.1424,-292.2831"/>
<polygon fill="#9a32cd" stroke="#9a32cd" points="547.6669,-276.7838 556.7513,-271.3319 546.2498,-269.9288 547.6669,-276.7838"/>
<text text-anchor="middle" x="506.5" y="-325" font-family="Helvetica,sans-Serif" font-size="10.00" fill="#000000"> param_info</text>
<text text-anchor="middle" x="506.5" y="-314" font-family="Helvetica,sans-Serif" font-size="10.00" fill="#000000">current_results</text>
<text text-anchor="middle" x="506.5" y="-303" font-family="Helvetica,sans-Serif" font-size="10.00" fill="#000000">res_info</text>
<text text-anchor="middle" x="506.5" y="-292" font-family="Helvetica,sans-Serif" font-size="10.00" fill="#000000">comp_info</text>
</g>
<!-- Node9 -->
<g id="node7" class="node">
<title>Node9</title>
<g id="a_node7"><a xlink:href="a01188.html" target="_top" xlink:title="Holds informations about a cursor.">
<polygon fill="#ffffff" stroke="#ff0000" points="711,-363.5 711,-382.5 773,-382.5 773,-363.5 711,-363.5"/>
<text text-anchor="middle" x="742" y="-370.5" font-family="Helvetica,sans-Serif" font-size="10.00" fill="#000000">tds_cursor</text>
</a>
</g>
</g>
<!-- Node2&#45;&gt;Node9 -->
<g id="edge11" class="edge">
<title>Node2&#45;&gt;Node9</title>
<path fill="none" stroke="#9a32cd" stroke-dasharray="5,2" d="M643.8956,-275.894C660.548,-281.9933 678.6917,-290.5167 693,-302 714.4919,-319.2486 730.4027,-348.381 737.6524,-363.4037"/>
<polygon fill="#9a32cd" stroke="#9a32cd" points="644.8982,-272.5374 634.3035,-272.5788 642.6116,-279.1534 644.8982,-272.5374"/>
<text text-anchor="middle" x="674" y="-305" font-family="Helvetica,sans-Serif" font-size="10.00" fill="#000000"> res_info</text>
</g>
<!-- Node3&#45;&gt;Node2 -->
<g id="edge3" class="edge">
<title>Node3&#45;&gt;Node2</title>
<path fill="none" stroke="#9a32cd" stroke-dasharray="5,2" d="M444.0679,-283.4771C456.5817,-274.6268 470.5414,-265.0794 474,-264 500.7045,-255.6655 532.2869,-255.599 556.7623,-257.5211"/>
<polygon fill="#9a32cd" stroke="#9a32cd" points="441.8958,-280.7271 435.7823,-289.3802 445.9576,-286.4282 441.8958,-280.7271"/>
<text text-anchor="middle" x="506.5" y="-267" font-family="Helvetica,sans-Serif" font-size="10.00" fill="#000000"> attached_to</text>
</g>
<!-- Node4 -->
<g id="node4" class="node">
<title>Node4</title>
<g id="a_node4"><a xlink:href="a01132.html" target="_top" xlink:title=" ">
<polygon fill="#ffffff" stroke="#ff0000" points="197,-198.5 197,-217.5 253,-217.5 253,-198.5 197,-198.5"/>
<text text-anchor="middle" x="225" y="-205.5" font-family="Helvetica,sans-Serif" font-size="10.00" fill="#000000">tds_login</text>
</a>
</g>
</g>
<!-- Node4&#45;&gt;Node3 -->
<g id="edge4" class="edge">
<title>Node4&#45;&gt;Node3</title>
<path fill="none" stroke="#9a32cd" stroke-dasharray="5,2" d="M263.325,-213.0006C294.5043,-218.5302 338.5059,-229.7824 371,-252 381.7152,-259.3265 379.6289,-266.018 389,-275 394.475,-280.2477 401.1595,-285.2644 407.1132,-289.3417"/>
<polygon fill="#9a32cd" stroke="#9a32cd" points="263.7153,-209.5177 253.2779,-211.3372 262.5719,-216.4237 263.7153,-209.5177"/>
<text text-anchor="middle" x="331" y="-255" font-family="Helvetica,sans-Serif" font-size="10.00" fill="#000000"> login</text>
</g>
<!-- Node7 -->
<g id="node5" class="node">
<title>Node7</title>
<g id="a_node5"><a xlink:href="a01268.html" target="_top" xlink:title="Structure to hold a string.">
<polygon fill="#ffffff" stroke="#000000" points="0,-160.5 0,-179.5 52,-179.5 52,-160.5 0,-160.5"/>
<text text-anchor="middle" x="26" y="-167.5" font-family="Helvetica,sans-Serif" font-size="10.00" fill="#000000">tds_dstr</text>
</a>
</g>
</g>
<!-- Node7&#45;&gt;Node4 -->
<g id="edge5" class="edge">
<title>Node7&#45;&gt;Node4</title>
<path fill="none" stroke="#9a32cd" stroke-dasharray="5,2" d="M62.3126,-176.9341C101.0018,-184.322 161.4331,-195.8616 196.7292,-202.6015"/>
<polygon fill="#9a32cd" stroke="#9a32cd" points="62.4948,-173.4057 52.0158,-174.9678 61.1818,-180.2815 62.4948,-173.4057"/>
<text text-anchor="middle" x="114.5" y="-319" font-family="Helvetica,sans-Serif" font-size="10.00" fill="#000000"> server_realm_name</text>
<text text-anchor="middle" x="114.5" y="-308" font-family="Helvetica,sans-Serif" font-size="10.00" fill="#000000">password</text>
<text text-anchor="middle" x="114.5" y="-297" font-family="Helvetica,sans-Serif" font-size="10.00" fill="#000000">server_name</text>
<text text-anchor="middle" x="114.5" y="-286" font-family="Helvetica,sans-Serif" font-size="10.00" fill="#000000">dump_file</text>
<text text-anchor="middle" x="114.5" y="-275" font-family="Helvetica,sans-Serif" font-size="10.00" fill="#000000">library</text>
<text text-anchor="middle" x="114.5" y="-264" font-family="Helvetica,sans-Serif" font-size="10.00" fill="#000000">crlfile</text>
<text text-anchor="middle" x="114.5" y="-253" font-family="Helvetica,sans-Serif" font-size="10.00" fill="#000000">server_spn</text>
<text text-anchor="start" x="70" y="-242" font-family="Helvetica,sans-Serif" font-size="10.00" fill="#000000">client_host</text>
<text text-anchor="middle" x="114.5" y="-231" font-family="Helvetica,sans-Serif" font-size="10.00" fill="#000000">_name</text>
<text text-anchor="middle" x="114.5" y="-220" font-family="Helvetica,sans-Serif" font-size="10.00" fill="#000000">client_charset</text>
<text text-anchor="middle" x="114.5" y="-209" font-family="Helvetica,sans-Serif" font-size="10.00" fill="#000000">openssl_ciphers</text>
<text text-anchor="middle" x="114.5" y="-198" font-family="Helvetica,sans-Serif" font-size="10.00" fill="#000000">...</text>
</g>
<!-- Node21 -->
<g id="node10" class="node">
<title>Node21</title>
<g id="a_node10"><a xlink:href="a01164.html" target="_top" xlink:title="Metadata about columns in regular and compute rows.">
<polygon fill="#ffffff" stroke="#000000" points="389,-91.5 389,-110.5 456,-110.5 456,-91.5 389,-91.5"/>
<text text-anchor="middle" x="422.5" y="-98.5" font-family="Helvetica,sans-Serif" font-size="10.00" fill="#000000">tds_column</text>
</a>
</g>
</g>
<!-- Node7&#45;&gt;Node21 -->
<g id="edge20" class="edge">
<title>Node7&#45;&gt;Node21</title>
<path fill="none" stroke="#9a32cd" stroke-dasharray="5,2" d="M62.429,-165.8573C125.6736,-158.3191 259.6862,-140.815 371,-116 377.9079,-114.46 385.2532,-112.5124 392.1674,-110.5349"/>
<polygon fill="#9a32cd" stroke="#9a32cd" points="61.7029,-162.4186 52.1813,-167.065 62.5223,-169.3705 61.7029,-162.4186"/>
<text text-anchor="middle" x="225" y="-176" font-family="Helvetica,sans-Serif" font-size="10.00" fill="#000000"> column_name</text>
<text text-anchor="middle" x="225" y="-165" font-family="Helvetica,sans-Serif" font-size="10.00" fill="#000000">table_name</text>
<text text-anchor="middle" x="225" y="-154" font-family="Helvetica,sans-Serif" font-size="10.00" fill="#000000">table_column_name</text>
</g>
<!-- Node8 -->
<g id="node6" class="node">
<title>Node8</title>
<g id="a_node6"><a xlink:href="a01212.html" target="_top" xlink:title=" ">
<polygon fill="#ffffff" stroke="#000000" points="192.5,-392.5 192.5,-411.5 257.5,-411.5 257.5,-392.5 192.5,-392.5"/>
<text text-anchor="middle" x="225" y="-399.5" font-family="Helvetica,sans-Serif" font-size="10.00" fill="#000000">tds_packet</text>
</a>
</g>
</g>
<!-- Node8&#45;&gt;Node3 -->
<g id="edge6" class="edge">
<title>Node8&#45;&gt;Node3</title>
<path fill="none" stroke="#9a32cd" stroke-dasharray="5,2" d="M252.3366,-387.7434C293.1894,-366.4379 369.0959,-326.8512 404.0306,-308.6321"/>
<polygon fill="#9a32cd" stroke="#9a32cd" points="250.4745,-384.7671 243.2263,-392.4946 253.7114,-390.9738 250.4745,-384.7671"/>
<text text-anchor="middle" x="331" y="-390" font-family="Helvetica,sans-Serif" font-size="10.00" fill="#000000"> frozen_packets</text>
<text text-anchor="middle" x="331" y="-379" font-family="Helvetica,sans-Serif" font-size="10.00" fill="#000000">recv_packet</text>
<text text-anchor="middle" x="331" y="-368" font-family="Helvetica,sans-Serif" font-size="10.00" fill="#000000">send_packet</text>
</g>
<!-- Node8&#45;&gt;Node8 -->
<g id="edge7" class="edge">
<title>Node8&#45;&gt;Node8</title>
<path fill="none" stroke="#9a32cd" stroke-dasharray="5,2" d="M205.3713,-421.4C206.6822,-426.3146 213.2251,-430 225,-430 243.8398,-430 249.2857,-420.5653 241.3377,-411.7571"/>
<polygon fill="#9a32cd" stroke="#9a32cd" points="208.7447,-422.3516 208.6623,-411.7571 202.1199,-420.0906 208.7447,-422.3516"/>
<text text-anchor="middle" x="225" y="-433" font-family="Helvetica,sans-Serif" font-size="10.00" fill="#000000"> next</text>
</g>
<!-- Node8&#45;&gt;Node11 -->
<g id="edge14" class="edge">
<title>Node8&#45;&gt;Node11</title>
<path fill="none" stroke="#9a32cd" stroke-dasharray="5,2" d="M265.2443,-414.395C304.8508,-425.4835 367.2519,-440 422.5,-440 422.5,-440 422.5,-440 742,-440 806.5018,-440 861.5808,-370.6836 879.9677,-344.6899"/>
<polygon fill="#9a32cd" stroke="#9a32cd" points="266.0162,-410.9754 255.4392,-411.589 264.0903,-417.7053 266.0162,-410.9754"/>
<text text-anchor="middle" x="597" y="-443" font-family="Helvetica,sans-Serif" font-size="10.00" fill="#000000"> packet_cache</text>
</g>
<!-- Node9&#45;&gt;Node3 -->
<g id="edge10" class="edge">
<title>Node9&#45;&gt;Node3</title>
<path fill="none" stroke="#9a32cd" stroke-dasharray="5,2" d="M700.9072,-382.5879C645.8926,-393.1752 546.8015,-404.2095 474,-367 449.4729,-354.464 433.4002,-324.2476 426.4444,-308.6604"/>
<polygon fill="#9a32cd" stroke="#9a32cd" points="701.8642,-385.9655 710.976,-380.5595 700.4817,-379.1033 701.8642,-385.9655"/>
<text text-anchor="middle" x="597" y="-395" font-family="Helvetica,sans-Serif" font-size="10.00" fill="#000000"> cur_cursor</text>
</g>
<!-- Node9&#45;&gt;Node9 -->
<g id="edge12" class="edge">
<title>Node9&#45;&gt;Node9</title>
<path fill="none" stroke="#9a32cd" stroke-dasharray="5,2" d="M729.8457,-392.7663C730.8003,-397.4965 734.8517,-401 742,-401 753.7305,-401 757.1213,-391.5653 752.1725,-382.7571"/>
<polygon fill="#9a32cd" stroke="#9a32cd" points="733.3185,-393.2464 731.8275,-382.7571 726.4518,-391.8868 733.3185,-393.2464"/>
<text text-anchor="middle" x="742" y="-404" font-family="Helvetica,sans-Serif" font-size="10.00" fill="#000000"> next</text>
</g>
<!-- Node9&#45;&gt;Node11 -->
<g id="edge17" class="edge">
<title>Node9&#45;&gt;Node11</title>
<path fill="none" stroke="#9a32cd" stroke-dasharray="5,2" d="M783.0591,-362.2024C804.2688,-356.6248 829.9167,-349.8801 850.3671,-344.5021"/>
<polygon fill="#9a32cd" stroke="#9a32cd" points="782.1354,-358.8263 773.3543,-364.7546 783.9157,-365.5961 782.1354,-358.8263"/>
<text text-anchor="middle" x="809" y="-362" font-family="Helvetica,sans-Serif" font-size="10.00" fill="#000000"> cursors</text>
</g>
<!-- Node11&#45;&gt;Node3 -->
<g id="edge13" class="edge">
<title>Node11&#45;&gt;Node3</title>
<path fill="none" stroke="#9a32cd" stroke-dasharray="5,2" d="M834.6576,-339.3133C739.1941,-346.5876 539.3905,-358.5134 474,-337 457.1122,-331.4439 441.2169,-317.9892 431.6704,-308.6795"/>
<polygon fill="#9a32cd" stroke="#9a32cd" points="834.9658,-342.8 844.6658,-338.5385 834.4254,-335.8209 834.9658,-342.8"/>
<text text-anchor="middle" x="674" y="-351" font-family="Helvetica,sans-Serif" font-size="10.00" fill="#000000"> conn</text>
</g>
<!-- Node17 -->
<g id="node9" class="node">
<title>Node17</title>
<g id="a_node9"><a xlink:href="a00980.html" target="_top" xlink:title=" ">
<polygon fill="#ffffff" stroke="#ff0000" points="190.5,-3.5 190.5,-22.5 259.5,-22.5 259.5,-3.5 190.5,-3.5"/>
<text text-anchor="middle" x="225" y="-10.5" font-family="Helvetica,sans-Serif" font-size="10.00" fill="#000000">tdsiconvinfo</text>
</a>
</g>
</g>
<!-- Node17&#45;&gt;Node11 -->
<g id="edge16" class="edge">
<title>Node17&#45;&gt;Node11</title>
<path fill="none" stroke="#9a32cd" stroke-dasharray="5,2" d="M269.524,-8.3923C309.5168,-4.6537 369.8682,0 422.5,0 422.5,0 422.5,0 742,0 814.8405,0 873.4347,-270.4086 884.5853,-325.3354"/>
<polygon fill="#9a32cd" stroke="#9a32cd" points="269.1831,-4.9089 259.5613,-9.3442 269.8489,-11.8771 269.1831,-4.9089"/>
<text text-anchor="middle" x="597" y="-3" font-family="Helvetica,sans-Serif" font-size="10.00" fill="#000000"> char_convs</text>
</g>
<!-- Node17&#45;&gt;Node21 -->
<g id="edge19" class="edge">
<title>Node17&#45;&gt;Node21</title>
<path fill="none" stroke="#9a32cd" stroke-dasharray="5,2" d="M269.7691,-21.4351C299.673,-28.2599 339.201,-39.6335 371,-57 387.72,-66.1313 403.902,-81.3257 413.5314,-91.2529"/>
<polygon fill="#9a32cd" stroke="#9a32cd" points="270.1393,-17.9331 259.6215,-19.2084 268.6389,-24.7704 270.1393,-17.9331"/>
<text text-anchor="middle" x="331" y="-60" font-family="Helvetica,sans-Serif" font-size="10.00" fill="#000000"> char_conv</text>
</g>
<!-- Node21&#45;&gt;Node2 -->
<g id="edge18" class="edge">
<title>Node21&#45;&gt;Node2</title>
<path fill="none" stroke="#9a32cd" stroke-dasharray="5,2" d="M441.3566,-117.2514C464.6422,-137.4521 505.302,-173.1582 539,-205 556.5958,-221.6266 576.399,-241.7478 587.7185,-253.3903"/>
<polygon fill="#9a32cd" stroke="#9a32cd" points="443.4608,-114.4438 433.6088,-110.5465 438.8801,-119.7369 443.4608,-114.4438"/>
<text text-anchor="middle" x="506.5" y="-208" font-family="Helvetica,sans-Serif" font-size="10.00" fill="#000000"> columns</text>
</g>
<!-- Node22 -->
<g id="node11" class="node">
<title>Node22</title>
<g id="a_node11"><a xlink:href="a01160.html" target="_top" xlink:title=" ">
<polygon fill="#ffffff" stroke="#000000" points="177,-91.5 177,-110.5 273,-110.5 273,-91.5 177,-91.5"/>
<text text-anchor="middle" x="225" y="-98.5" font-family="Helvetica,sans-Serif" font-size="10.00" fill="#000000">tds_column_funcs</text>
</a>
</g>
</g>
<!-- Node22&#45;&gt;Node21 -->
<g id="edge21" class="edge">
<title>Node22&#45;&gt;Node21</title>
<path fill="none" stroke="#9a32cd" stroke-dasharray="5,2" d="M283.444,-101C317.7868,-101 359.981,-101 388.8246,-101"/>
<polygon fill="#9a32cd" stroke="#9a32cd" points="283.0614,-97.5001 273.0614,-101 283.0614,-104.5001 283.0614,-97.5001"/>
<text text-anchor="middle" x="331" y="-104" font-family="Helvetica,sans-Serif" font-size="10.00" fill="#000000"> funcs</text>
</g>
<!-- Node23 -->
<g id="node12" class="node">
<title>Node23</title>
<g id="a_node12"><a xlink:href="a01156.html" target="_top" xlink:title=" ">
<polygon fill="#ffffff" stroke="#000000" points="183.5,-53.5 183.5,-72.5 266.5,-72.5 266.5,-53.5 183.5,-53.5"/>
<text text-anchor="middle" x="225" y="-60.5" font-family="Helvetica,sans-Serif" font-size="10.00" fill="#000000">tds_bcpcoldata</text>
</a>
</g>
</g>
<!-- Node23&#45;&gt;Node21 -->
<g id="edge22" class="edge">
<title>Node23&#45;&gt;Node21</title>
<path fill="none" stroke="#9a32cd" stroke-dasharray="5,2" d="M276.7911,-69.524C304.8382,-73.4668 339.9985,-79.0728 371,-86 377.9072,-87.5434 385.2521,-89.4924 392.1662,-91.4702"/>
<polygon fill="#9a32cd" stroke="#9a32cd" points="277.1849,-66.0453 266.8007,-68.1473 276.2293,-72.9798 277.1849,-66.0453"/>
<text text-anchor="middle" x="331" y="-89" font-family="Helvetica,sans-Serif" font-size="10.00" fill="#000000"> bcp_column_data</text>
</g>
</g>
</svg>
