<?xml version="1.0" encoding="UTF-8" standalone="no"?>
<!DOCTYPE svg PUBLIC "-//W3C//DTD SVG 1.1//EN"
 "http://www.w3.org/Graphics/SVG/1.1/DTD/svg11.dtd">
<!-- Generated by graphviz version 2.40.1 (20161225.0304)
 -->
<!-- Title: tds_column Pages: 1 -->
<svg width="448pt" height="251pt"
 viewBox="0.00 0.00 448.00 251.00" xmlns="http://www.w3.org/2000/svg" xmlns:xlink="http://www.w3.org/1999/xlink">
<g id="graph0" class="graph" transform="scale(1 1) rotate(0) translate(4 247)">
<title>tds_column</title>
<polygon fill="#ffffff" stroke="transparent" points="-4,4 -4,-247 444,-247 444,4 -4,4"/>
<!-- Node1 -->
<g id="node1" class="node">
<title>Node1</title>
<g id="a_node1"><a xlink:title="Metadata about columns in regular and compute rows.">
<polygon fill="#bfbfbf" stroke="#000000" points="197.5,-.5 197.5,-19.5 264.5,-19.5 264.5,-.5 197.5,-.5"/>
<text text-anchor="middle" x="231" y="-7.5" font-family="Helvetica,sans-Serif" font-size="10.00" fill="#000000">tds_column</text>
</a>
</g>
</g>
<!-- Node2 -->
<g id="node2" class="node">
<title>Node2</title>
<g id="a_node2"><a xlink:href="a00980.html" target="_top" xlink:title=" ">
<polygon fill="#ffffff" stroke="#000000" points="62.5,-89.5 62.5,-108.5 131.5,-108.5 131.5,-89.5 62.5,-89.5"/>
<text text-anchor="middle" x="97" y="-96.5" font-family="Helvetica,sans-Serif" font-size="10.00" fill="#000000">tdsiconvinfo</text>
</a>
</g>
</g>
<!-- Node2&#45;&gt;Node1 -->
<g id="edge1" class="edge">
<title>Node2&#45;&gt;Node1</title>
<path fill="none" stroke="#9a32cd" stroke-dasharray="5,2" d="M98.5913,-79.0386C100.7134,-65.6243 105.6326,-48.5349 117,-38 128.6218,-27.2293 168.1865,-19.2124 197.4599,-14.5778"/>
<polygon fill="#9a32cd" stroke="#9a32cd" points="95.0862,-78.8755 97.3864,-89.2177 102.0377,-79.6985 95.0862,-78.8755"/>
<text text-anchor="middle" x="141.5" y="-52" font-family="Helvetica,sans-Serif" font-size="10.00" fill="#000000"> char_conv</text>
</g>
<!-- Node3 -->
<g id="node3" class="node">
<title>Node3</title>
<g id="a_node3"><a xlink:href="a00972.html" target="_top" xlink:title=" ">
<polygon fill="#ffffff" stroke="#000000" points="0,-156.5 0,-175.5 128,-175.5 128,-156.5 0,-156.5"/>
<text text-anchor="middle" x="64" y="-163.5" font-family="Helvetica,sans-Serif" font-size="10.00" fill="#000000">tds_errno_message_flags</text>
</a>
</g>
</g>
<!-- Node3&#45;&gt;Node2 -->
<g id="edge2" class="edge">
<title>Node3&#45;&gt;Node2</title>
<path fill="none" stroke="#9a32cd" stroke-dasharray="5,2" d="M73.2413,-147.2374C79.4354,-134.6614 87.3341,-118.6246 92.2807,-108.5817"/>
<polygon fill="#9a32cd" stroke="#9a32cd" points="70.0068,-145.8831 68.7281,-156.4005 76.2865,-148.9761 70.0068,-145.8831"/>
<text text-anchor="middle" x="104.5" y="-130" font-family="Helvetica,sans-Serif" font-size="10.00" fill="#000000"> suppress</text>
</g>
<!-- Node4 -->
<g id="node4" class="node">
<title>Node4</title>
<g id="a_node4"><a xlink:href="a00976.html" target="_top" xlink:title=" ">
<polygon fill="#ffffff" stroke="#000000" points="146,-156.5 146,-175.5 210,-175.5 210,-156.5 146,-156.5"/>
<text text-anchor="middle" x="178" y="-163.5" font-family="Helvetica,sans-Serif" font-size="10.00" fill="#000000">tdsiconvdir</text>
</a>
</g>
</g>
<!-- Node4&#45;&gt;Node2 -->
<g id="edge3" class="edge">
<title>Node4&#45;&gt;Node2</title>
<path fill="none" stroke="#9a32cd" stroke-dasharray="5,2" d="M158.414,-149.7992C142.8352,-136.9131 121.5668,-119.3207 108.5838,-108.5817"/>
<polygon fill="#9a32cd" stroke="#9a32cd" points="156.4583,-152.7237 166.3947,-156.4005 160.9199,-147.3298 156.4583,-152.7237"/>
<text text-anchor="middle" x="154.5" y="-130" font-family="Helvetica,sans-Serif" font-size="10.00" fill="#000000"> from</text>
</g>
<!-- Node5 -->
<g id="node5" class="node">
<title>Node5</title>
<g id="a_node5"><a xlink:href="a01152.html" target="_top" xlink:title="Information relevant to libiconv.">
<polygon fill="#ffffff" stroke="#000000" points="141,-223.5 141,-242.5 215,-242.5 215,-223.5 141,-223.5"/>
<text text-anchor="middle" x="178" y="-230.5" font-family="Helvetica,sans-Serif" font-size="10.00" fill="#000000">tds_encoding</text>
</a>
</g>
</g>
<!-- Node5&#45;&gt;Node4 -->
<g id="edge4" class="edge">
<title>Node5&#45;&gt;Node4</title>
<path fill="none" stroke="#9a32cd" stroke-dasharray="5,2" d="M178,-213.1079C178,-200.714 178,-185.3263 178,-175.5817"/>
<polygon fill="#9a32cd" stroke="#9a32cd" points="174.5001,-213.4005 178,-223.4005 181.5001,-213.4006 174.5001,-213.4005"/>
<text text-anchor="middle" x="196" y="-197" font-family="Helvetica,sans-Serif" font-size="10.00" fill="#000000"> charset</text>
</g>
<!-- Node6 -->
<g id="node6" class="node">
<title>Node6</title>
<g id="a_node6"><a xlink:href="a01268.html" target="_top" xlink:title="Structure to hold a string.">
<polygon fill="#ffffff" stroke="#000000" points="150,-89.5 150,-108.5 202,-108.5 202,-89.5 150,-89.5"/>
<text text-anchor="middle" x="176" y="-96.5" font-family="Helvetica,sans-Serif" font-size="10.00" fill="#000000">tds_dstr</text>
</a>
</g>
</g>
<!-- Node6&#45;&gt;Node1 -->
<g id="edge5" class="edge">
<title>Node6&#45;&gt;Node1</title>
<path fill="none" stroke="#9a32cd" stroke-dasharray="5,2" d="M171.4595,-79.4637C169.6088,-66.7276 169.4097,-50.2582 177,-38 182.1147,-29.7398 190.5274,-23.8004 199.207,-19.5805"/>
<polygon fill="#9a32cd" stroke="#9a32cd" points="168.0593,-80.32 173.3568,-89.4953 174.9374,-79.0191 168.0593,-80.32"/>
<text text-anchor="middle" x="221" y="-63" font-family="Helvetica,sans-Serif" font-size="10.00" fill="#000000"> column_name</text>
<text text-anchor="middle" x="221" y="-52" font-family="Helvetica,sans-Serif" font-size="10.00" fill="#000000">table_name</text>
<text text-anchor="middle" x="221" y="-41" font-family="Helvetica,sans-Serif" font-size="10.00" fill="#000000">table_column_name</text>
</g>
<!-- Node7 -->
<g id="node7" class="node">
<title>Node7</title>
<g id="a_node7"><a xlink:href="a01160.html" target="_top" xlink:title=" ">
<polygon fill="#ffffff" stroke="#000000" points="239,-89.5 239,-108.5 335,-108.5 335,-89.5 239,-89.5"/>
<text text-anchor="middle" x="287" y="-96.5" font-family="Helvetica,sans-Serif" font-size="10.00" fill="#000000">tds_column_funcs</text>
</a>
</g>
</g>
<!-- Node7&#45;&gt;Node1 -->
<g id="edge6" class="edge">
<title>Node7&#45;&gt;Node1</title>
<path fill="none" stroke="#9a32cd" stroke-dasharray="5,2" d="M282.7384,-79.2066C279.3603,-66.6048 273.729,-50.3835 265,-38 259.9776,-30.8749 252.6859,-24.5431 246.1421,-19.711"/>
<polygon fill="#9a32cd" stroke="#9a32cd" points="279.3937,-80.266 285.1483,-89.1618 286.1972,-78.619 279.3937,-80.266"/>
<text text-anchor="middle" x="293" y="-52" font-family="Helvetica,sans-Serif" font-size="10.00" fill="#000000"> funcs</text>
</g>
<!-- Node8 -->
<g id="node8" class="node">
<title>Node8</title>
<g id="a_node8"><a xlink:href="a01156.html" target="_top" xlink:title=" ">
<polygon fill="#ffffff" stroke="#000000" points="353.5,-89.5 353.5,-108.5 436.5,-108.5 436.5,-89.5 353.5,-89.5"/>
<text text-anchor="middle" x="395" y="-96.5" font-family="Helvetica,sans-Serif" font-size="10.00" fill="#000000">tds_bcpcoldata</text>
</a>
</g>
</g>
<!-- Node8&#45;&gt;Node1 -->
<g id="edge7" class="edge">
<title>Node8&#45;&gt;Node1</title>
<path fill="none" stroke="#9a32cd" stroke-dasharray="5,2" d="M376.2771,-82.9307C359.9119,-69.5104 335.0656,-50.6018 311,-38 296.3998,-30.3547 279.2622,-24.0397 264.6021,-19.3543"/>
<polygon fill="#9a32cd" stroke="#9a32cd" points="374.0924,-85.6662 384.0129,-89.3859 378.5773,-80.2916 374.0924,-85.6662"/>
<text text-anchor="middle" x="400" y="-52" font-family="Helvetica,sans-Serif" font-size="10.00" fill="#000000"> bcp_column_data</text>
</g>
</g>
</svg>
