<?xml version="1.0" encoding="UTF-8" standalone="no"?>
<!DOCTYPE svg PUBLIC "-//W3C//DTD SVG 1.1//EN"
 "http://www.w3.org/Graphics/SVG/1.1/DTD/svg11.dtd">
<!-- Generated by graphviz version 2.40.1 (20161225.0304)
 -->
<!-- Title: tds_result_info Pages: 1 -->
<svg width="946pt" height="651pt"
 viewBox="0.00 0.00 946.00 651.37" xmlns="http://www.w3.org/2000/svg" xmlns:xlink="http://www.w3.org/1999/xlink">
<g id="graph0" class="graph" transform="scale(1 1) rotate(0) translate(4 647.3651)">
<title>tds_result_info</title>
<polygon fill="#ffffff" stroke="transparent" points="-4,4 -4,-647.3651 942,-647.3651 942,4 -4,4"/>
<!-- Node1 -->
<g id="node1" class="node">
<title>Node1</title>
<g id="a_node1"><a xlink:title="Hold information for any results.">
<polygon fill="#bfbfbf" stroke="#000000" points="370.5,-61.8651 370.5,-80.8651 450.5,-80.8651 450.5,-61.8651 370.5,-61.8651"/>
<text text-anchor="middle" x="410.5" y="-68.8651" font-family="Helvetica,sans-Serif" font-size="10.00" fill="#000000">tds_result_info</text>
</a>
</g>
</g>
<!-- Node2 -->
<g id="node2" class="node">
<title>Node2</title>
<g id="a_node2"><a xlink:href="a01224.html" target="_top" xlink:title="Information for a server connection.">
<polygon fill="#ffffff" stroke="#000000" points="873,-118.8651 873,-137.8651 938,-137.8651 938,-118.8651 873,-118.8651"/>
<text text-anchor="middle" x="905.5" y="-125.8651" font-family="Helvetica,sans-Serif" font-size="10.00" fill="#000000">tds_socket</text>
</a>
</g>
</g>
<!-- Node1&#45;&gt;Node2 -->
<g id="edge10" class="edge">
<title>Node1&#45;&gt;Node2</title>
<path fill="none" stroke="#9a32cd" stroke-dasharray="5,2" d="M437.3681,-57.1582C490.2643,-31.0675 611.4182,19.3733 711,-8.3651 789.3548,-30.1908 866.9427,-94.0114 894.7469,-118.5737"/>
<polygon fill="#9a32cd" stroke="#9a32cd" points="435.663,-54.098 428.3062,-61.7221 438.8118,-60.3499 435.663,-54.098"/>
<text text-anchor="middle" x="678.5" y="-44.3651" font-family="Helvetica,sans-Serif" font-size="10.00" fill="#000000"> param_info</text>
<text text-anchor="middle" x="678.5" y="-33.3651" font-family="Helvetica,sans-Serif" font-size="10.00" fill="#000000">current_results</text>
<text text-anchor="middle" x="678.5" y="-22.3651" font-family="Helvetica,sans-Serif" font-size="10.00" fill="#000000">res_info</text>
<text text-anchor="middle" x="678.5" y="-11.3651" font-family="Helvetica,sans-Serif" font-size="10.00" fill="#000000">comp_info</text>
</g>
<!-- Node8 -->
<g id="node7" class="node">
<title>Node8</title>
<g id="a_node7"><a xlink:href="a01196.html" target="_top" xlink:title="Holds information for a dynamic (also called prepared) query.">
<polygon fill="#ffffff" stroke="#000000" points="544,-64.8651 544,-83.8651 616,-83.8651 616,-64.8651 544,-64.8651"/>
<text text-anchor="middle" x="580" y="-71.8651" font-family="Helvetica,sans-Serif" font-size="10.00" fill="#000000">tds_dynamic</text>
</a>
</g>
</g>
<!-- Node1&#45;&gt;Node8 -->
<g id="edge9" class="edge">
<title>Node1&#45;&gt;Node8</title>
<path fill="none" stroke="#9a32cd" stroke-dasharray="5,2" d="M461.0073,-71.6446C477.8615,-71.7935 496.7414,-72.0203 514,-72.3651 523.6275,-72.5575 534.0429,-72.839 543.6926,-73.1303"/>
<polygon fill="#9a32cd" stroke="#9a32cd" points="460.8357,-68.1432 450.8075,-71.5617 460.7787,-75.143 460.8357,-68.1432"/>
<text text-anchor="middle" x="495" y="-86.3651" font-family="Helvetica,sans-Serif" font-size="10.00" fill="#000000"> res_info</text>
<text text-anchor="middle" x="495" y="-75.3651" font-family="Helvetica,sans-Serif" font-size="10.00" fill="#000000">params</text>
</g>
<!-- Node9 -->
<g id="node8" class="node">
<title>Node9</title>
<g id="a_node8"><a xlink:href="a01188.html" target="_top" xlink:title="Holds informations about a cursor.">
<polygon fill="#ffffff" stroke="#000000" points="549,-131.8651 549,-150.8651 611,-150.8651 611,-131.8651 549,-131.8651"/>
<text text-anchor="middle" x="580" y="-138.8651" font-family="Helvetica,sans-Serif" font-size="10.00" fill="#000000">tds_cursor</text>
</a>
</g>
</g>
<!-- Node1&#45;&gt;Node9 -->
<g id="edge13" class="edge">
<title>Node1&#45;&gt;Node9</title>
<path fill="none" stroke="#9a32cd" stroke-dasharray="5,2" d="M442.331,-84.9364C466.7979,-95.3168 501.4661,-109.9151 532,-122.3651 539.6351,-125.4783 547.9817,-128.8078 555.5424,-131.796"/>
<polygon fill="#9a32cd" stroke="#9a32cd" points="443.4089,-81.5916 432.8365,-80.9026 440.6717,-88.0342 443.4089,-81.5916"/>
<text text-anchor="middle" x="495" y="-117.3651" font-family="Helvetica,sans-Serif" font-size="10.00" fill="#000000"> res_info</text>
</g>
<!-- Node2&#45;&gt;Node1 -->
<g id="edge1" class="edge">
<title>Node2&#45;&gt;Node1</title>
<path fill="none" stroke="#9a32cd" stroke-dasharray="5,2" d="M869.7843,-115.3247C852.4535,-109.207 831.2623,-102.0336 812,-96.3651 691.3444,-60.8589 657.5021,-47.1372 532,-55.3651 504.7191,-57.1537 474.2129,-61.178 450.5929,-64.743"/>
<polygon fill="#9a32cd" stroke="#9a32cd" points="868.9039,-118.7265 879.4985,-118.7854 871.253,-112.1324 868.9039,-118.7265"/>
<text text-anchor="middle" x="678.5" y="-70.3651" font-family="Helvetica,sans-Serif" font-size="10.00" fill="#000000"> attached_to</text>
</g>
<!-- Node3 -->
<g id="node3" class="node">
<title>Node3</title>
<g id="a_node3"><a xlink:href="a01132.html" target="_top" xlink:title=" ">
<polygon fill="#ffffff" stroke="#000000" points="742.5,-475.8651 742.5,-494.8651 798.5,-494.8651 798.5,-475.8651 742.5,-475.8651"/>
<text text-anchor="middle" x="770.5" y="-482.8651" font-family="Helvetica,sans-Serif" font-size="10.00" fill="#000000">tds_login</text>
</a>
</g>
</g>
<!-- Node3&#45;&gt;Node2 -->
<g id="edge2" class="edge">
<title>Node3&#45;&gt;Node2</title>
<path fill="none" stroke="#9a32cd" stroke-dasharray="5,2" d="M778.4635,-466.056C793.7655,-428.7894 828.1397,-344.2745 855,-272.3651 873.7259,-222.233 894.3423,-161.5584 902.2066,-138.1919"/>
<polygon fill="#9a32cd" stroke="#9a32cd" points="775.0831,-465.0737 774.5151,-475.6533 781.5567,-467.737 775.0831,-465.0737"/>
<text text-anchor="middle" x="842.5" y="-339.3651" font-family="Helvetica,sans-Serif" font-size="10.00" fill="#000000"> login</text>
</g>
<!-- Node4 -->
<g id="node4" class="node">
<title>Node4</title>
<g id="a_node4"><a xlink:href="a01128.html" target="_top" xlink:title=" ">
<polygon fill="#ffffff" stroke="#ff0000" points="538,-459.8651 538,-478.8651 622,-478.8651 622,-459.8651 538,-459.8651"/>
<text text-anchor="middle" x="580" y="-466.8651" font-family="Helvetica,sans-Serif" font-size="10.00" fill="#000000">tds_capabilities</text>
</a>
</g>
</g>
<!-- Node4&#45;&gt;Node3 -->
<g id="edge3" class="edge">
<title>Node4&#45;&gt;Node3</title>
<path fill="none" stroke="#9a32cd" stroke-dasharray="5,2" d="M632.491,-473.7738C668.0557,-476.7609 713.6566,-480.5909 742.487,-483.0124"/>
<polygon fill="#9a32cd" stroke="#9a32cd" points="632.536,-470.2654 622.2781,-472.9161 631.9501,-477.2408 632.536,-470.2654"/>
<text text-anchor="middle" x="678.5" y="-482.3651" font-family="Helvetica,sans-Serif" font-size="10.00" fill="#000000"> capabilities</text>
</g>
<!-- Node11 -->
<g id="node10" class="node">
<title>Node11</title>
<g id="a_node10"><a xlink:href="a01220.html" target="_top" xlink:title=" ">
<polygon fill="#ffffff" stroke="#000000" points="729,-288.8651 729,-307.8651 812,-307.8651 812,-288.8651 729,-288.8651"/>
<text text-anchor="middle" x="770.5" y="-295.8651" font-family="Helvetica,sans-Serif" font-size="10.00" fill="#000000">tds_connection</text>
</a>
</g>
</g>
<!-- Node4&#45;&gt;Node11 -->
<g id="edge16" class="edge">
<title>Node4&#45;&gt;Node11</title>
<path fill="none" stroke="#9a32cd" stroke-dasharray="5,2" d="M632.1134,-457.6563C663.2152,-449.8055 698.9414,-438.9936 711,-428.3651 748.986,-394.8844 764.2149,-332.2123 768.8343,-308.1332"/>
<polygon fill="#9a32cd" stroke="#9a32cd" points="631.0851,-454.3049 622.2138,-460.0972 632.7609,-461.1014 631.0851,-454.3049"/>
<text text-anchor="middle" x="678.5" y="-456.3651" font-family="Helvetica,sans-Serif" font-size="10.00" fill="#000000"> capabilities</text>
</g>
<!-- Node6 -->
<g id="node5" class="node">
<title>Node6</title>
<g id="a_node5"><a xlink:href="a01268.html" target="_top" xlink:title="Structure to hold a string.">
<polygon fill="#ffffff" stroke="#000000" points="22,-307.8651 22,-326.8651 74,-326.8651 74,-307.8651 22,-307.8651"/>
<text text-anchor="middle" x="48" y="-314.8651" font-family="Helvetica,sans-Serif" font-size="10.00" fill="#000000">tds_dstr</text>
</a>
</g>
</g>
<!-- Node6&#45;&gt;Node3 -->
<g id="edge4" class="edge">
<title>Node6&#45;&gt;Node3</title>
<path fill="none" stroke="#9a32cd" stroke-dasharray="5,2" d="M56.6136,-336.114C80.4049,-384.7793 152.0409,-511.3651 253.5,-511.3651 253.5,-511.3651 253.5,-511.3651 580,-511.3651 638.0804,-511.3651 705.214,-499.3538 742.2624,-491.659"/>
<polygon fill="#9a32cd" stroke="#9a32cd" points="59.7271,-334.5113 52.2695,-326.9856 53.4064,-337.5193 59.7271,-334.5113"/>
<text text-anchor="middle" x="410.5" y="-635.3651" font-family="Helvetica,sans-Serif" font-size="10.00" fill="#000000"> server_realm_name</text>
<text text-anchor="middle" x="410.5" y="-624.3651" font-family="Helvetica,sans-Serif" font-size="10.00" fill="#000000">password</text>
<text text-anchor="middle" x="410.5" y="-613.3651" font-family="Helvetica,sans-Serif" font-size="10.00" fill="#000000">server_name</text>
<text text-anchor="middle" x="410.5" y="-602.3651" font-family="Helvetica,sans-Serif" font-size="10.00" fill="#000000">dump_file</text>
<text text-anchor="middle" x="410.5" y="-591.3651" font-family="Helvetica,sans-Serif" font-size="10.00" fill="#000000">library</text>
<text text-anchor="middle" x="410.5" y="-580.3651" font-family="Helvetica,sans-Serif" font-size="10.00" fill="#000000">crlfile</text>
<text text-anchor="middle" x="410.5" y="-569.3651" font-family="Helvetica,sans-Serif" font-size="10.00" fill="#000000">server_spn</text>
<text text-anchor="start" x="366" y="-558.3651" font-family="Helvetica,sans-Serif" font-size="10.00" fill="#000000">client_host</text>
<text text-anchor="middle" x="410.5" y="-547.3651" font-family="Helvetica,sans-Serif" font-size="10.00" fill="#000000">_name</text>
<text text-anchor="middle" x="410.5" y="-536.3651" font-family="Helvetica,sans-Serif" font-size="10.00" fill="#000000">client_charset</text>
<text text-anchor="middle" x="410.5" y="-525.3651" font-family="Helvetica,sans-Serif" font-size="10.00" fill="#000000">openssl_ciphers</text>
<text text-anchor="middle" x="410.5" y="-514.3651" font-family="Helvetica,sans-Serif" font-size="10.00" fill="#000000">...</text>
</g>
<!-- Node21 -->
<g id="node16" class="node">
<title>Node21</title>
<g id="a_node16"><a xlink:href="a01164.html" target="_top" xlink:title="Metadata about columns in regular and compute rows.">
<polygon fill="#ffffff" stroke="#000000" points="220,-205.8651 220,-224.8651 287,-224.8651 287,-205.8651 220,-205.8651"/>
<text text-anchor="middle" x="253.5" y="-212.8651" font-family="Helvetica,sans-Serif" font-size="10.00" fill="#000000">tds_column</text>
</a>
</g>
</g>
<!-- Node6&#45;&gt;Node21 -->
<g id="edge27" class="edge">
<title>Node6&#45;&gt;Node21</title>
<path fill="none" stroke="#9a32cd" stroke-dasharray="5,2" d="M84.0065,-310.0084C116.5257,-302.2838 164.8366,-288.0548 202,-265.3651 219.8685,-254.4558 236.4638,-236.3317 245.7617,-225.1606"/>
<polygon fill="#9a32cd" stroke="#9a32cd" points="83.0043,-306.6472 74.0374,-312.2902 84.5663,-313.4707 83.0043,-306.6472"/>
<text text-anchor="middle" x="158" y="-325.3651" font-family="Helvetica,sans-Serif" font-size="10.00" fill="#000000"> column_name</text>
<text text-anchor="middle" x="158" y="-314.3651" font-family="Helvetica,sans-Serif" font-size="10.00" fill="#000000">table_name</text>
<text text-anchor="middle" x="158" y="-303.3651" font-family="Helvetica,sans-Serif" font-size="10.00" fill="#000000">table_column_name</text>
</g>
<!-- Node7 -->
<g id="node6" class="node">
<title>Node7</title>
<g id="a_node6"><a xlink:href="a01212.html" target="_top" xlink:title=" ">
<polygon fill="#ffffff" stroke="#000000" points="547.5,-198.8651 547.5,-217.8651 612.5,-217.8651 612.5,-198.8651 547.5,-198.8651"/>
<text text-anchor="middle" x="580" y="-205.8651" font-family="Helvetica,sans-Serif" font-size="10.00" fill="#000000">tds_packet</text>
</a>
</g>
</g>
<!-- Node7&#45;&gt;Node2 -->
<g id="edge5" class="edge">
<title>Node7&#45;&gt;Node2</title>
<path fill="none" stroke="#9a32cd" stroke-dasharray="5,2" d="M622.854,-211.1673C648.6467,-211.9211 681.9979,-211.2419 711,-205.3651 779.1622,-191.5532 854.1845,-155.318 887.6618,-137.9357"/>
<polygon fill="#9a32cd" stroke="#9a32cd" points="622.779,-207.6621 612.6546,-210.784 622.5161,-214.6572 622.779,-207.6621"/>
<text text-anchor="middle" x="770.5" y="-225.3651" font-family="Helvetica,sans-Serif" font-size="10.00" fill="#000000"> frozen_packets</text>
<text text-anchor="middle" x="770.5" y="-214.3651" font-family="Helvetica,sans-Serif" font-size="10.00" fill="#000000">recv_packet</text>
<text text-anchor="middle" x="770.5" y="-203.3651" font-family="Helvetica,sans-Serif" font-size="10.00" fill="#000000">send_packet</text>
</g>
<!-- Node7&#45;&gt;Node7 -->
<g id="edge6" class="edge">
<title>Node7&#45;&gt;Node7</title>
<path fill="none" stroke="#9a32cd" stroke-dasharray="5,2" d="M564.5309,-228.1314C565.7459,-232.8617 570.9022,-236.3651 580,-236.3651 594.9297,-236.3651 599.2453,-226.9304 592.9468,-218.1222"/>
<polygon fill="#9a32cd" stroke="#9a32cd" points="568.0034,-228.6743 567.0532,-218.1222 561.2156,-226.9638 568.0034,-228.6743"/>
<text text-anchor="middle" x="580" y="-239.3651" font-family="Helvetica,sans-Serif" font-size="10.00" fill="#000000"> next</text>
</g>
<!-- Node7&#45;&gt;Node11 -->
<g id="edge21" class="edge">
<title>Node7&#45;&gt;Node11</title>
<path fill="none" stroke="#9a32cd" stroke-dasharray="5,2" d="M618.2627,-221.1806C655.3705,-233.6597 706.701,-251.0765 711,-253.3651 729.5205,-263.2248 748.4278,-278.6261 759.8159,-288.6072"/>
<polygon fill="#9a32cd" stroke="#9a32cd" points="619.2931,-217.8346 608.6991,-217.9677 617.0639,-224.4701 619.2931,-217.8346"/>
<text text-anchor="middle" x="678.5" y="-256.3651" font-family="Helvetica,sans-Serif" font-size="10.00" fill="#000000"> packet_cache</text>
</g>
<!-- Node8&#45;&gt;Node2 -->
<g id="edge7" class="edge">
<title>Node8&#45;&gt;Node2</title>
<path fill="none" stroke="#9a32cd" stroke-dasharray="5,2" d="M626.2927,-82.045C692.9825,-93.1088 814.4557,-113.261 872.6748,-122.9195"/>
<polygon fill="#9a32cd" stroke="#9a32cd" points="626.5159,-78.5343 616.0779,-80.3504 625.3702,-85.4399 626.5159,-78.5343"/>
<text text-anchor="middle" x="770.5" y="-116.3651" font-family="Helvetica,sans-Serif" font-size="10.00" fill="#000000"> cur_dyn</text>
</g>
<!-- Node8&#45;&gt;Node8 -->
<g id="edge8" class="edge">
<title>Node8&#45;&gt;Node8</title>
<path fill="none" stroke="#9a32cd" stroke-dasharray="5,2" d="M564.5309,-94.1314C565.7459,-98.8617 570.9022,-102.3651 580,-102.3651 594.9297,-102.3651 599.2453,-92.9304 592.9468,-84.1222"/>
<polygon fill="#9a32cd" stroke="#9a32cd" points="568.0034,-94.6743 567.0532,-84.1222 561.2156,-92.9638 568.0034,-94.6743"/>
<text text-anchor="middle" x="580" y="-105.3651" font-family="Helvetica,sans-Serif" font-size="10.00" fill="#000000"> next</text>
</g>
<!-- Node8&#45;&gt;Node11 -->
<g id="edge22" class="edge">
<title>Node8&#45;&gt;Node11</title>
<path fill="none" stroke="#9a32cd" stroke-dasharray="5,2" d="M615.1115,-87.9969C645.4184,-101.6448 687.864,-125.6316 711,-160.3651 735.0655,-196.494 708.8625,-217.9083 729,-256.3651 735.8475,-269.4419 748.1224,-281.0964 757.5523,-288.7911"/>
<polygon fill="#9a32cd" stroke="#9a32cd" points="616.3048,-84.6994 605.738,-83.9285 613.5177,-91.1206 616.3048,-84.6994"/>
<text text-anchor="middle" x="678.5" y="-163.3651" font-family="Helvetica,sans-Serif" font-size="10.00" fill="#000000"> dyns</text>
</g>
<!-- Node9&#45;&gt;Node2 -->
<g id="edge11" class="edge">
<title>Node9&#45;&gt;Node2</title>
<path fill="none" stroke="#9a32cd" stroke-dasharray="5,2" d="M621.585,-139.7043C687.2097,-137.0833 813.4326,-132.0422 872.9404,-129.6655"/>
<polygon fill="#9a32cd" stroke="#9a32cd" points="621.0626,-136.2223 611.2103,-140.1187 621.342,-143.2167 621.0626,-136.2223"/>
<text text-anchor="middle" x="770.5" y="-138.3651" font-family="Helvetica,sans-Serif" font-size="10.00" fill="#000000"> cur_cursor</text>
</g>
<!-- Node9&#45;&gt;Node9 -->
<g id="edge14" class="edge">
<title>Node9&#45;&gt;Node9</title>
<path fill="none" stroke="#9a32cd" stroke-dasharray="5,2" d="M564.5309,-161.1314C565.7459,-165.8617 570.9022,-169.3651 580,-169.3651 594.9297,-169.3651 599.2453,-159.9304 592.9468,-151.1222"/>
<polygon fill="#9a32cd" stroke="#9a32cd" points="568.0034,-161.6743 567.0532,-151.1222 561.2156,-159.9638 568.0034,-161.6743"/>
<text text-anchor="middle" x="580" y="-172.3651" font-family="Helvetica,sans-Serif" font-size="10.00" fill="#000000"> next</text>
</g>
<!-- Node9&#45;&gt;Node11 -->
<g id="edge24" class="edge">
<title>Node9&#45;&gt;Node11</title>
<path fill="none" stroke="#9a32cd" stroke-dasharray="5,2" d="M609.8028,-155.4389C643.6684,-171.8955 696.1711,-198.9655 711,-215.3651 724.3475,-230.1264 717.8198,-239.9015 729,-256.3651 737.4078,-268.7463 749.7236,-280.666 758.7552,-288.6235"/>
<polygon fill="#9a32cd" stroke="#9a32cd" points="610.9011,-152.0831 600.3729,-150.8963 607.863,-158.3895 610.9011,-152.0831"/>
<text text-anchor="middle" x="678.5" y="-218.3651" font-family="Helvetica,sans-Serif" font-size="10.00" fill="#000000"> cursors</text>
</g>
<!-- Node10 -->
<g id="node9" class="node">
<title>Node10</title>
<g id="a_node9"><a xlink:href="a01184.html" target="_top" xlink:title=" ">
<polygon fill="#ffffff" stroke="#000000" points="363,-140.8651 363,-159.8651 458,-159.8651 458,-140.8651 363,-140.8651"/>
<text text-anchor="middle" x="410.5" y="-147.8651" font-family="Helvetica,sans-Serif" font-size="10.00" fill="#000000">tds_cursor_status</text>
</a>
</g>
</g>
<!-- Node10&#45;&gt;Node9 -->
<g id="edge12" class="edge">
<title>Node10&#45;&gt;Node9</title>
<path fill="none" stroke="#9a32cd" stroke-dasharray="5,2" d="M468.3024,-147.296C495.3402,-145.8604 526.4624,-144.2079 548.9766,-143.0124"/>
<polygon fill="#9a32cd" stroke="#9a32cd" points="467.9666,-143.8088 458.1663,-147.8342 468.3378,-150.799 467.9666,-143.8088"/>
<text text-anchor="middle" x="495" y="-150.3651" font-family="Helvetica,sans-Serif" font-size="10.00" fill="#000000"> status</text>
</g>
<!-- Node11&#45;&gt;Node2 -->
<g id="edge15" class="edge">
<title>Node11&#45;&gt;Node2</title>
<path fill="none" stroke="#9a32cd" stroke-dasharray="5,2" d="M795.991,-283.3187C814.2493,-271.542 838.4386,-253.7742 855,-233.3651 879.9819,-202.5793 896.3124,-157.3852 902.5951,-137.8916"/>
<polygon fill="#9a32cd" stroke="#9a32cd" points="793.9253,-280.4828 787.31,-288.7586 797.6423,-286.4144 793.9253,-280.4828"/>
<text text-anchor="middle" x="842.5" y="-260.3651" font-family="Helvetica,sans-Serif" font-size="10.00" fill="#000000"> conn</text>
</g>
<!-- Node12 -->
<g id="node11" class="node">
<title>Node12</title>
<g id="a_node11"><a xlink:href="a01216.html" target="_top" xlink:title=" ">
<polygon fill="#ffffff" stroke="#000000" points="535.5,-417.8651 535.5,-436.8651 624.5,-436.8651 624.5,-417.8651 535.5,-417.8651"/>
<text text-anchor="middle" x="580" y="-424.8651" font-family="Helvetica,sans-Serif" font-size="10.00" fill="#000000">tds_poll_wakeup</text>
</a>
</g>
</g>
<!-- Node12&#45;&gt;Node11 -->
<g id="edge17" class="edge">
<title>Node12&#45;&gt;Node11</title>
<path fill="none" stroke="#9a32cd" stroke-dasharray="5,2" d="M634.8048,-416.4381C664.9267,-409.6379 698.6307,-400.4772 711,-391.3651 741.0928,-369.1968 759.8639,-326.8405 767.1009,-307.9138"/>
<polygon fill="#9a32cd" stroke="#9a32cd" points="633.7757,-413.0808 624.7628,-418.6503 635.2817,-419.9169 633.7757,-413.0808"/>
<text text-anchor="middle" x="678.5" y="-416.3651" font-family="Helvetica,sans-Serif" font-size="10.00" fill="#000000"> wakeup</text>
</g>
<!-- Node13 -->
<g id="node12" class="node">
<title>Node13</title>
<g id="a_node12"><a xlink:href="a01192.html" target="_top" xlink:title="Current environment as reported by the server.">
<polygon fill="#ffffff" stroke="#000000" points="554.5,-379.8651 554.5,-398.8651 605.5,-398.8651 605.5,-379.8651 554.5,-379.8651"/>
<text text-anchor="middle" x="580" y="-386.8651" font-family="Helvetica,sans-Serif" font-size="10.00" fill="#000000">tds_env</text>
</a>
</g>
</g>
<!-- Node13&#45;&gt;Node11 -->
<g id="edge18" class="edge">
<title>Node13&#45;&gt;Node11</title>
<path fill="none" stroke="#9a32cd" stroke-dasharray="5,2" d="M615.6788,-384.2963C643.0596,-379.3163 681.1092,-369.9733 711,-353.3651 732.3958,-341.4771 752.1942,-320.3407 762.6823,-308.02"/>
<polygon fill="#9a32cd" stroke="#9a32cd" points="615.0121,-380.8595 605.7465,-385.9974 616.1939,-387.759 615.0121,-380.8595"/>
<text text-anchor="middle" x="678.5" y="-379.3651" font-family="Helvetica,sans-Serif" font-size="10.00" fill="#000000"> env</text>
</g>
<!-- Node14 -->
<g id="node13" class="node">
<title>Node14</title>
<g id="a_node13"><a xlink:href="a01204.html" target="_top" xlink:title=" ">
<polygon fill="#ffffff" stroke="#ff0000" points="546,-341.8651 546,-360.8651 614,-360.8651 614,-341.8651 546,-341.8651"/>
<text text-anchor="middle" x="580" y="-348.8651" font-family="Helvetica,sans-Serif" font-size="10.00" fill="#000000">tds_context</text>
</a>
</g>
</g>
<!-- Node14&#45;&gt;Node11 -->
<g id="edge19" class="edge">
<title>Node14&#45;&gt;Node11</title>
<path fill="none" stroke="#9a32cd" stroke-dasharray="5,2" d="M624.2126,-343.4729C649.8323,-338.4308 682.5479,-331.1861 711,-322.3651 723.9796,-318.3411 738.1011,-312.7018 749.3284,-307.9007"/>
<polygon fill="#9a32cd" stroke="#9a32cd" points="623.214,-340.1009 614.0569,-345.4299 624.5386,-346.9744 623.214,-340.1009"/>
<text text-anchor="middle" x="678.5" y="-341.3651" font-family="Helvetica,sans-Serif" font-size="10.00" fill="#000000"> tds_ctx</text>
</g>
<!-- Node16 -->
<g id="node14" class="node">
<title>Node16</title>
<g id="a_node14"><a xlink:href="a01208.html" target="_top" xlink:title=" ">
<polygon fill="#ffffff" stroke="#000000" points="532,-303.8651 532,-322.8651 628,-322.8651 628,-303.8651 532,-303.8651"/>
<text text-anchor="middle" x="580" y="-310.8651" font-family="Helvetica,sans-Serif" font-size="10.00" fill="#000000">tds_authentication</text>
</a>
</g>
</g>
<!-- Node16&#45;&gt;Node11 -->
<g id="edge20" class="edge">
<title>Node16&#45;&gt;Node11</title>
<path fill="none" stroke="#9a32cd" stroke-dasharray="5,2" d="M638.1826,-308.7838C667.4871,-306.4764 702.3379,-303.7322 728.9147,-301.6396"/>
<polygon fill="#9a32cd" stroke="#9a32cd" points="637.7656,-305.3058 628.0712,-309.58 638.3151,-312.2842 637.7656,-305.3058"/>
<text text-anchor="middle" x="678.5" y="-310.3651" font-family="Helvetica,sans-Serif" font-size="10.00" fill="#000000"> authentication</text>
</g>
<!-- Node17 -->
<g id="node15" class="node">
<title>Node17</title>
<g id="a_node15"><a xlink:href="a00980.html" target="_top" xlink:title=" ">
<polygon fill="#ffffff" stroke="#ff0000" points="13.5,-261.8651 13.5,-280.8651 82.5,-280.8651 82.5,-261.8651 13.5,-261.8651"/>
<text text-anchor="middle" x="48" y="-268.8651" font-family="Helvetica,sans-Serif" font-size="10.00" fill="#000000">tdsiconvinfo</text>
</a>
</g>
</g>
<!-- Node17&#45;&gt;Node11 -->
<g id="edge23" class="edge">
<title>Node17&#45;&gt;Node11</title>
<path fill="none" stroke="#9a32cd" stroke-dasharray="5,2" d="M92.6233,-272.7342C134.2462,-273.8924 198.0702,-275.3651 253.5,-275.3651 253.5,-275.3651 253.5,-275.3651 495,-275.3651 578.0335,-275.3651 674.6575,-285.8688 728.5838,-292.6798"/>
<polygon fill="#9a32cd" stroke="#9a32cd" points="92.6336,-269.2332 82.5381,-272.4476 92.4346,-276.2304 92.6336,-269.2332"/>
<text text-anchor="middle" x="410.5" y="-278.3651" font-family="Helvetica,sans-Serif" font-size="10.00" fill="#000000"> char_convs</text>
</g>
<!-- Node17&#45;&gt;Node21 -->
<g id="edge26" class="edge">
<title>Node17&#45;&gt;Node21</title>
<path fill="none" stroke="#9a32cd" stroke-dasharray="5,2" d="M86.3221,-258.7278C95.3659,-255.8689 104.9964,-252.9243 114,-250.3651 149.9069,-240.1589 191.4504,-229.9369 219.8016,-223.1983"/>
<polygon fill="#9a32cd" stroke="#9a32cd" points="85.2551,-255.3943 76.7964,-261.7741 87.3874,-262.0616 85.2551,-255.3943"/>
<text text-anchor="middle" x="158" y="-253.3651" font-family="Helvetica,sans-Serif" font-size="10.00" fill="#000000"> char_conv</text>
</g>
<!-- Node21&#45;&gt;Node1 -->
<g id="edge25" class="edge">
<title>Node21&#45;&gt;Node1</title>
<path fill="none" stroke="#9a32cd" stroke-dasharray="5,2" d="M271.9082,-198.4812C305.0725,-168.063 373.8403,-104.9894 400.0467,-80.9529"/>
<polygon fill="#9a32cd" stroke="#9a32cd" points="269.2951,-196.1287 264.2912,-205.4674 274.0267,-201.2874 269.2951,-196.1287"/>
<text text-anchor="middle" x="325" y="-168.3651" font-family="Helvetica,sans-Serif" font-size="10.00" fill="#000000"> columns</text>
</g>
<!-- Node22 -->
<g id="node17" class="node">
<title>Node22</title>
<g id="a_node17"><a xlink:href="a01160.html" target="_top" xlink:title=" ">
<polygon fill="#ffffff" stroke="#000000" points="0,-167.8651 0,-186.8651 96,-186.8651 96,-167.8651 0,-167.8651"/>
<text text-anchor="middle" x="48" y="-174.8651" font-family="Helvetica,sans-Serif" font-size="10.00" fill="#000000">tds_column_funcs</text>
</a>
</g>
</g>
<!-- Node22&#45;&gt;Node21 -->
<g id="edge28" class="edge">
<title>Node22&#45;&gt;Node21</title>
<path fill="none" stroke="#9a32cd" stroke-dasharray="5,2" d="M106.1303,-184.1594C135.1082,-188.0239 170.5848,-193.4773 202,-200.3651 208.9133,-201.8809 216.2607,-203.8187 223.1753,-205.7944"/>
<polygon fill="#9a32cd" stroke="#9a32cd" points="106.5377,-180.683 96.1687,-182.859 105.6315,-187.6241 106.5377,-180.683"/>
<text text-anchor="middle" x="158" y="-203.3651" font-family="Helvetica,sans-Serif" font-size="10.00" fill="#000000"> funcs</text>
</g>
<!-- Node23 -->
<g id="node18" class="node">
<title>Node23</title>
<g id="a_node18"><a xlink:href="a01156.html" target="_top" xlink:title=" ">
<polygon fill="#ffffff" stroke="#000000" points="6.5,-205.8651 6.5,-224.8651 89.5,-224.8651 89.5,-205.8651 6.5,-205.8651"/>
<text text-anchor="middle" x="48" y="-212.8651" font-family="Helvetica,sans-Serif" font-size="10.00" fill="#000000">tds_bcpcoldata</text>
</a>
</g>
</g>
<!-- Node23&#45;&gt;Node21 -->
<g id="edge29" class="edge">
<title>Node23&#45;&gt;Node21</title>
<path fill="none" stroke="#9a32cd" stroke-dasharray="5,2" d="M99.8449,-215.3651C137.4482,-215.3651 187.2227,-215.3651 219.7852,-215.3651"/>
<polygon fill="#9a32cd" stroke="#9a32cd" points="99.586,-211.8652 89.586,-215.3651 99.586,-218.8652 99.586,-211.8652"/>
<text text-anchor="middle" x="158" y="-218.3651" font-family="Helvetica,sans-Serif" font-size="10.00" fill="#000000"> bcp_column_data</text>
</g>
</g>
</svg>
