<?xml version="1.0" encoding="UTF-8" standalone="no"?>
<!DOCTYPE svg PUBLIC "-//W3C//DTD SVG 1.1//EN"
 "http://www.w3.org/Graphics/SVG/1.1/DTD/svg11.dtd">
<!-- Generated by graphviz version 2.40.1 (20161225.0304)
 -->
<!-- Title: tds_login Pages: 1 -->
<svg width="231pt" height="283pt"
 viewBox="0.00 0.00 230.50 283.00" xmlns="http://www.w3.org/2000/svg" xmlns:xlink="http://www.w3.org/1999/xlink">
<g id="graph0" class="graph" transform="scale(1 1) rotate(0) translate(4 279)">
<title>tds_login</title>
<polygon fill="#ffffff" stroke="transparent" points="-4,4 -4,-279 226.5,-279 226.5,4 -4,4"/>
<!-- Node1 -->
<g id="node1" class="node">
<title>Node1</title>
<g id="a_node1"><a xlink:title=" ">
<polygon fill="#bfbfbf" stroke="#000000" points="70.5,-.5 70.5,-19.5 126.5,-19.5 126.5,-.5 70.5,-.5"/>
<text text-anchor="middle" x="98.5" y="-7.5" font-family="Helvetica,sans-Serif" font-size="10.00" fill="#000000">tds_login</text>
</a>
</g>
</g>
<!-- Node2 -->
<g id="node2" class="node">
<title>Node2</title>
<g id="a_node2"><a xlink:href="a01128.html" target="_top" xlink:title=" ">
<polygon fill="#ffffff" stroke="#000000" points="8.5,-188.5 8.5,-207.5 92.5,-207.5 92.5,-188.5 8.5,-188.5"/>
<text text-anchor="middle" x="50.5" y="-195.5" font-family="Helvetica,sans-Serif" font-size="10.00" fill="#000000">tds_capabilities</text>
</a>
</g>
</g>
<!-- Node2&#45;&gt;Node1 -->
<g id="edge1" class="edge">
<title>Node2&#45;&gt;Node1</title>
<path fill="none" stroke="#9a32cd" stroke-dasharray="5,2" d="M45.6418,-178.3322C38.9221,-146.5284 30.2694,-82.851 55.5,-38 59.9551,-30.0805 67.6864,-24.0267 75.3759,-19.6092"/>
<polygon fill="#9a32cd" stroke="#9a32cd" points="42.2485,-179.1946 47.8794,-188.1693 49.0742,-177.642 42.2485,-179.1946"/>
<text text-anchor="middle" x="81.5" y="-101.5" font-family="Helvetica,sans-Serif" font-size="10.00" fill="#000000"> capabilities</text>
</g>
<!-- Node3 -->
<g id="node3" class="node">
<title>Node3</title>
<g id="a_node3"><a xlink:href="a01124.html" target="_top" xlink:title=" ">
<polygon fill="#ffffff" stroke="#000000" points="0,-255.5 0,-274.5 101,-274.5 101,-255.5 0,-255.5"/>
<text text-anchor="middle" x="50.5" y="-262.5" font-family="Helvetica,sans-Serif" font-size="10.00" fill="#000000">tds_capability_type</text>
</a>
</g>
</g>
<!-- Node3&#45;&gt;Node2 -->
<g id="edge2" class="edge">
<title>Node3&#45;&gt;Node2</title>
<path fill="none" stroke="#9a32cd" stroke-dasharray="5,2" d="M50.5,-245.1079C50.5,-232.714 50.5,-217.3263 50.5,-207.5817"/>
<polygon fill="#9a32cd" stroke="#9a32cd" points="47.0001,-245.4005 50.5,-255.4005 54.0001,-245.4006 47.0001,-245.4005"/>
<text text-anchor="middle" x="64.5" y="-229" font-family="Helvetica,sans-Serif" font-size="10.00" fill="#000000"> types</text>
</g>
<!-- Node4 -->
<g id="node4" class="node">
<title>Node4</title>
<g id="a_node4"><a xlink:href="a01268.html" target="_top" xlink:title="Structure to hold a string.">
<polygon fill="#ffffff" stroke="#000000" points="110.5,-188.5 110.5,-207.5 162.5,-207.5 162.5,-188.5 110.5,-188.5"/>
<text text-anchor="middle" x="136.5" y="-195.5" font-family="Helvetica,sans-Serif" font-size="10.00" fill="#000000">tds_dstr</text>
</a>
</g>
</g>
<!-- Node4&#45;&gt;Node1 -->
<g id="edge3" class="edge">
<title>Node4&#45;&gt;Node1</title>
<path fill="none" stroke="#9a32cd" stroke-dasharray="5,2" d="M135.1945,-178.2298C132.7781,-147.6143 126.423,-87.1397 111.5,-38 109.5689,-31.641 106.4585,-24.8729 103.7643,-19.584"/>
<polygon fill="#9a32cd" stroke="#9a32cd" points="131.7192,-178.6968 135.9375,-188.4157 138.7007,-178.1875 131.7192,-178.6968"/>
<text text-anchor="middle" x="178" y="-162" font-family="Helvetica,sans-Serif" font-size="10.00" fill="#000000"> server_realm_name</text>
<text text-anchor="middle" x="178" y="-151" font-family="Helvetica,sans-Serif" font-size="10.00" fill="#000000">password</text>
<text text-anchor="middle" x="178" y="-140" font-family="Helvetica,sans-Serif" font-size="10.00" fill="#000000">server_name</text>
<text text-anchor="middle" x="178" y="-129" font-family="Helvetica,sans-Serif" font-size="10.00" fill="#000000">dump_file</text>
<text text-anchor="middle" x="178" y="-118" font-family="Helvetica,sans-Serif" font-size="10.00" fill="#000000">library</text>
<text text-anchor="middle" x="178" y="-107" font-family="Helvetica,sans-Serif" font-size="10.00" fill="#000000">crlfile</text>
<text text-anchor="middle" x="178" y="-96" font-family="Helvetica,sans-Serif" font-size="10.00" fill="#000000">server_spn</text>
<text text-anchor="start" x="133.5" y="-85" font-family="Helvetica,sans-Serif" font-size="10.00" fill="#000000">client_host</text>
<text text-anchor="middle" x="178" y="-74" font-family="Helvetica,sans-Serif" font-size="10.00" fill="#000000">_name</text>
<text text-anchor="middle" x="178" y="-63" font-family="Helvetica,sans-Serif" font-size="10.00" fill="#000000">client_charset</text>
<text text-anchor="middle" x="178" y="-52" font-family="Helvetica,sans-Serif" font-size="10.00" fill="#000000">openssl_ciphers</text>
<text text-anchor="middle" x="178" y="-41" font-family="Helvetica,sans-Serif" font-size="10.00" fill="#000000">...</text>
</g>
</g>
</svg>
