<?xml version="1.0" encoding="UTF-8" standalone="no"?>
<!DOCTYPE svg PUBLIC "-//W3C//DTD SVG 1.1//EN"
 "http://www.w3.org/Graphics/SVG/1.1/DTD/svg11.dtd">
<!-- Generated by graphviz version 2.40.1 (20161225.0304)
 -->
<!-- Title: tds_bcpinfo Pages: 1 -->
<svg width="924pt" height="508pt"
 viewBox="0.00 0.00 924.00 507.51" xmlns="http://www.w3.org/2000/svg" xmlns:xlink="http://www.w3.org/1999/xlink">
<g id="graph0" class="graph" transform="scale(1 1) rotate(0) translate(4 503.5133)">
<title>tds_bcpinfo</title>
<polygon fill="#ffffff" stroke="transparent" points="-4,4 -4,-503.5133 920,-503.5133 920,4 -4,4"/>
<!-- Node1 -->
<g id="node1" class="node">
<title>Node1</title>
<g id="a_node1"><a xlink:title=" ">
<polygon fill="#bfbfbf" stroke="#000000" points="536.5,-322.0133 536.5,-341.0133 603.5,-341.0133 603.5,-322.0133 536.5,-322.0133"/>
<text text-anchor="middle" x="570" y="-329.0133" font-family="Helvetica,sans-Serif" font-size="10.00" fill="#000000">tds_bcpinfo</text>
</a>
</g>
</g>
<!-- Node2 -->
<g id="node2" class="node">
<title>Node2</title>
<g id="a_node2"><a xlink:href="a01172.html" target="_top" xlink:title="Hold information for any results.">
<polygon fill="#ffffff" stroke="#000000" points="380,-211.0133 380,-230.0133 460,-230.0133 460,-211.0133 380,-211.0133"/>
<text text-anchor="middle" x="420" y="-218.0133" font-family="Helvetica,sans-Serif" font-size="10.00" fill="#000000">tds_result_info</text>
</a>
</g>
</g>
<!-- Node2&#45;&gt;Node1 -->
<g id="edge1" class="edge">
<title>Node2&#45;&gt;Node1</title>
<path fill="none" stroke="#9a32cd" stroke-dasharray="5,2" d="M430.7506,-239.2653C441.0354,-255.762 457.9249,-279.435 478,-294.5133 495.3442,-307.5404 517.902,-316.7071 536.3398,-322.6578"/>
<polygon fill="#9a32cd" stroke="#9a32cd" points="433.6348,-237.2697 425.4841,-230.5008 427.6347,-240.8751 433.6348,-237.2697"/>
<text text-anchor="middle" x="497" y="-317.5133" font-family="Helvetica,sans-Serif" font-size="10.00" fill="#000000"> bindinfo</text>
</g>
<!-- Node3 -->
<g id="node3" class="node">
<title>Node3</title>
<g id="a_node3"><a xlink:href="a01224.html" target="_top" xlink:title="Information for a server connection.">
<polygon fill="#ffffff" stroke="#000000" points="851,-192.0133 851,-211.0133 916,-211.0133 916,-192.0133 851,-192.0133"/>
<text text-anchor="middle" x="883.5" y="-199.0133" font-family="Helvetica,sans-Serif" font-size="10.00" fill="#000000">tds_socket</text>
</a>
</g>
</g>
<!-- Node2&#45;&gt;Node3 -->
<g id="edge10" class="edge">
<title>Node2&#45;&gt;Node3</title>
<path fill="none" stroke="#9a32cd" stroke-dasharray="5,2" d="M429.0108,-201.667C450.0863,-158.2956 503.1427,-53.3119 534,-29.5133 566.9693,-4.0858 582.7753,-9.3487 624,-3.5133 726.5344,11.0005 772.8177,-22.2397 833,-106.5133 853.7333,-135.5462 871.6397,-174.1389 879.3962,-191.865"/>
<polygon fill="#9a32cd" stroke="#9a32cd" points="425.7799,-200.3092 424.5866,-210.8366 432.0845,-203.3511 425.7799,-200.3092"/>
<text text-anchor="middle" x="656.5" y="-39.5133" font-family="Helvetica,sans-Serif" font-size="10.00" fill="#000000"> param_info</text>
<text text-anchor="middle" x="656.5" y="-28.5133" font-family="Helvetica,sans-Serif" font-size="10.00" fill="#000000">current_results</text>
<text text-anchor="middle" x="656.5" y="-17.5133" font-family="Helvetica,sans-Serif" font-size="10.00" fill="#000000">res_info</text>
<text text-anchor="middle" x="656.5" y="-6.5133" font-family="Helvetica,sans-Serif" font-size="10.00" fill="#000000">comp_info</text>
</g>
<!-- Node9 -->
<g id="node7" class="node">
<title>Node9</title>
<g id="a_node7"><a xlink:href="a01196.html" target="_top" xlink:title="Holds information for a dynamic (also called prepared) query.">
<polygon fill="#ffffff" stroke="#000000" points="534,-144.0133 534,-163.0133 606,-163.0133 606,-144.0133 534,-144.0133"/>
<text text-anchor="middle" x="570" y="-151.0133" font-family="Helvetica,sans-Serif" font-size="10.00" fill="#000000">tds_dynamic</text>
</a>
</g>
</g>
<!-- Node2&#45;&gt;Node9 -->
<g id="edge9" class="edge">
<title>Node2&#45;&gt;Node9</title>
<path fill="none" stroke="#9a32cd" stroke-dasharray="5,2" d="M450.4392,-206.8531C459.3225,-202.8706 469.048,-198.5145 478,-194.5133 502.1063,-183.7387 529.7829,-171.4102 548.4311,-163.1096"/>
<polygon fill="#9a32cd" stroke="#9a32cd" points="448.899,-203.7079 441.2067,-210.9935 451.7634,-210.0951 448.899,-203.7079"/>
<text text-anchor="middle" x="497" y="-208.5133" font-family="Helvetica,sans-Serif" font-size="10.00" fill="#000000"> res_info</text>
<text text-anchor="middle" x="497" y="-197.5133" font-family="Helvetica,sans-Serif" font-size="10.00" fill="#000000">params</text>
</g>
<!-- Node10 -->
<g id="node8" class="node">
<title>Node10</title>
<g id="a_node8"><a xlink:href="a01188.html" target="_top" xlink:title="Holds informations about a cursor.">
<polygon fill="#ffffff" stroke="#ff0000" points="539,-211.0133 539,-230.0133 601,-230.0133 601,-211.0133 539,-211.0133"/>
<text text-anchor="middle" x="570" y="-218.0133" font-family="Helvetica,sans-Serif" font-size="10.00" fill="#000000">tds_cursor</text>
</a>
</g>
</g>
<!-- Node2&#45;&gt;Node10 -->
<g id="edge12" class="edge">
<title>Node2&#45;&gt;Node10</title>
<path fill="none" stroke="#9a32cd" stroke-dasharray="5,2" d="M470.3235,-220.5133C492.9547,-220.5133 518.9595,-220.5133 538.732,-220.5133"/>
<polygon fill="#9a32cd" stroke="#9a32cd" points="470.1973,-217.0134 460.1972,-220.5133 470.1972,-224.0134 470.1973,-217.0134"/>
<text text-anchor="middle" x="497" y="-223.5133" font-family="Helvetica,sans-Serif" font-size="10.00" fill="#000000"> res_info</text>
</g>
<!-- Node3&#45;&gt;Node2 -->
<g id="edge2" class="edge">
<title>Node3&#45;&gt;Node2</title>
<path fill="none" stroke="#9a32cd" stroke-dasharray="5,2" d="M860.9606,-216.4855C852.4837,-221.5635 842.5754,-226.8675 833,-230.5133 814.7527,-237.4609 809.2051,-235.9923 790,-239.5133 677.3717,-260.1622 646.2398,-291.1791 534,-268.5133 497.5842,-261.1595 458.3251,-241.8241 436.6959,-230.0594"/>
<polygon fill="#9a32cd" stroke="#9a32cd" points="862.8795,-219.4137 869.5138,-211.1532 859.1762,-213.4735 862.8795,-219.4137"/>
<text text-anchor="middle" x="656.5" y="-278.5133" font-family="Helvetica,sans-Serif" font-size="10.00" fill="#000000"> attached_to</text>
</g>
<!-- Node4 -->
<g id="node4" class="node">
<title>Node4</title>
<g id="a_node4"><a xlink:href="a01132.html" target="_top" xlink:title=" ">
<polygon fill="#ffffff" stroke="#ff0000" points="306,-371.0133 306,-390.0133 362,-390.0133 362,-371.0133 306,-371.0133"/>
<text text-anchor="middle" x="334" y="-378.0133" font-family="Helvetica,sans-Serif" font-size="10.00" fill="#000000">tds_login</text>
</a>
</g>
</g>
<!-- Node4&#45;&gt;Node3 -->
<g id="edge3" class="edge">
<title>Node4&#45;&gt;Node3</title>
<path fill="none" stroke="#9a32cd" stroke-dasharray="5,2" d="M372.4067,-380.5133C405.4374,-380.5133 454.3564,-380.5133 497,-380.5133 497,-380.5133 497,-380.5133 748.5,-380.5133 834.1323,-380.5133 872.285,-248.3173 881.322,-211.1371"/>
<polygon fill="#9a32cd" stroke="#9a32cd" points="372.2689,-377.0134 362.2688,-380.5133 372.2688,-384.0134 372.2689,-377.0134"/>
<text text-anchor="middle" x="570" y="-383.5133" font-family="Helvetica,sans-Serif" font-size="10.00" fill="#000000"> login</text>
</g>
<!-- Node7 -->
<g id="node5" class="node">
<title>Node7</title>
<g id="a_node5"><a xlink:href="a01268.html" target="_top" xlink:title="Structure to hold a string.">
<polygon fill="#ffffff" stroke="#000000" points="22,-333.0133 22,-352.0133 74,-352.0133 74,-333.0133 22,-333.0133"/>
<text text-anchor="middle" x="48" y="-340.0133" font-family="Helvetica,sans-Serif" font-size="10.00" fill="#000000">tds_dstr</text>
</a>
</g>
</g>
<!-- Node7&#45;&gt;Node1 -->
<g id="edge24" class="edge">
<title>Node7&#45;&gt;Node1</title>
<path fill="none" stroke="#9a32cd" stroke-dasharray="5,2" d="M84.4003,-341.7462C181.0705,-339.7091 443.2087,-334.1851 536.4889,-332.2195"/>
<polygon fill="#9a32cd" stroke="#9a32cd" points="84.1678,-338.2503 74.2438,-341.9603 84.3153,-345.2487 84.1678,-338.2503"/>
<text text-anchor="middle" x="334" y="-339.5133" font-family="Helvetica,sans-Serif" font-size="10.00" fill="#000000"> tablename</text>
</g>
<!-- Node7&#45;&gt;Node4 -->
<g id="edge4" class="edge">
<title>Node7&#45;&gt;Node4</title>
<path fill="none" stroke="#9a32cd" stroke-dasharray="5,2" d="M84.2855,-350.8934C93.9091,-352.9284 104.3172,-354.9622 114,-356.5133 182.4769,-367.4827 263.7604,-374.9148 305.7489,-378.3444"/>
<polygon fill="#9a32cd" stroke="#9a32cd" points="84.7373,-347.41 74.2222,-348.7076 83.2514,-354.2505 84.7373,-347.41"/>
<text text-anchor="middle" x="158.5" y="-491.5133" font-family="Helvetica,sans-Serif" font-size="10.00" fill="#000000"> server_realm_name</text>
<text text-anchor="middle" x="158.5" y="-480.5133" font-family="Helvetica,sans-Serif" font-size="10.00" fill="#000000">password</text>
<text text-anchor="middle" x="158.5" y="-469.5133" font-family="Helvetica,sans-Serif" font-size="10.00" fill="#000000">server_name</text>
<text text-anchor="middle" x="158.5" y="-458.5133" font-family="Helvetica,sans-Serif" font-size="10.00" fill="#000000">dump_file</text>
<text text-anchor="middle" x="158.5" y="-447.5133" font-family="Helvetica,sans-Serif" font-size="10.00" fill="#000000">library</text>
<text text-anchor="middle" x="158.5" y="-436.5133" font-family="Helvetica,sans-Serif" font-size="10.00" fill="#000000">crlfile</text>
<text text-anchor="middle" x="158.5" y="-425.5133" font-family="Helvetica,sans-Serif" font-size="10.00" fill="#000000">server_spn</text>
<text text-anchor="start" x="114" y="-414.5133" font-family="Helvetica,sans-Serif" font-size="10.00" fill="#000000">client_host</text>
<text text-anchor="middle" x="158.5" y="-403.5133" font-family="Helvetica,sans-Serif" font-size="10.00" fill="#000000">_name</text>
<text text-anchor="middle" x="158.5" y="-392.5133" font-family="Helvetica,sans-Serif" font-size="10.00" fill="#000000">client_charset</text>
<text text-anchor="middle" x="158.5" y="-381.5133" font-family="Helvetica,sans-Serif" font-size="10.00" fill="#000000">openssl_ciphers</text>
<text text-anchor="middle" x="158.5" y="-370.5133" font-family="Helvetica,sans-Serif" font-size="10.00" fill="#000000">...</text>
</g>
<!-- Node22 -->
<g id="node11" class="node">
<title>Node22</title>
<g id="a_node11"><a xlink:href="a01164.html" target="_top" xlink:title="Metadata about columns in regular and compute rows.">
<polygon fill="#ffffff" stroke="#000000" points="221,-211.0133 221,-230.0133 288,-230.0133 288,-211.0133 221,-211.0133"/>
<text text-anchor="middle" x="254.5" y="-218.0133" font-family="Helvetica,sans-Serif" font-size="10.00" fill="#000000">tds_column</text>
</a>
</g>
</g>
<!-- Node7&#45;&gt;Node22 -->
<g id="edge21" class="edge">
<title>Node7&#45;&gt;Node22</title>
<path fill="none" stroke="#9a32cd" stroke-dasharray="5,2" d="M68.2853,-326.638C81.0282,-317.0313 98.0236,-304.8714 114,-295.5133 151.7411,-273.4068 164.7292,-274.6896 203,-253.5133 216.0081,-246.3156 230.1908,-237.121 240.373,-230.2662"/>
<polygon fill="#9a32cd" stroke="#9a32cd" points="66.025,-323.9603 60.2074,-332.815 70.2771,-329.5209 66.025,-323.9603"/>
<text text-anchor="middle" x="158.5" y="-320.5133" font-family="Helvetica,sans-Serif" font-size="10.00" fill="#000000"> column_name</text>
<text text-anchor="middle" x="158.5" y="-309.5133" font-family="Helvetica,sans-Serif" font-size="10.00" fill="#000000">table_name</text>
<text text-anchor="middle" x="158.5" y="-298.5133" font-family="Helvetica,sans-Serif" font-size="10.00" fill="#000000">table_column_name</text>
</g>
<!-- Node8 -->
<g id="node6" class="node">
<title>Node8</title>
<g id="a_node6"><a xlink:href="a01212.html" target="_top" xlink:title=" ">
<polygon fill="#ffffff" stroke="#000000" points="537.5,-39.0133 537.5,-58.0133 602.5,-58.0133 602.5,-39.0133 537.5,-39.0133"/>
<text text-anchor="middle" x="570" y="-46.0133" font-family="Helvetica,sans-Serif" font-size="10.00" fill="#000000">tds_packet</text>
</a>
</g>
</g>
<!-- Node8&#45;&gt;Node3 -->
<g id="edge5" class="edge">
<title>Node8&#45;&gt;Node3</title>
<path fill="none" stroke="#9a32cd" stroke-dasharray="5,2" d="M612.7405,-49.6651C659.4375,-52.6948 734.9224,-62.9257 790,-96.5133 831.471,-121.8033 864.9662,-171.2229 877.826,-191.9763"/>
<polygon fill="#9a32cd" stroke="#9a32cd" points="612.8426,-46.1654 602.6607,-49.0943 612.4467,-53.1542 612.8426,-46.1654"/>
<text text-anchor="middle" x="748.5" y="-121.5133" font-family="Helvetica,sans-Serif" font-size="10.00" fill="#000000"> frozen_packets</text>
<text text-anchor="middle" x="748.5" y="-110.5133" font-family="Helvetica,sans-Serif" font-size="10.00" fill="#000000">recv_packet</text>
<text text-anchor="middle" x="748.5" y="-99.5133" font-family="Helvetica,sans-Serif" font-size="10.00" fill="#000000">send_packet</text>
</g>
<!-- Node8&#45;&gt;Node8 -->
<g id="edge6" class="edge">
<title>Node8&#45;&gt;Node8</title>
<path fill="none" stroke="#9a32cd" stroke-dasharray="5,2" d="M556.7408,-68.2796C557.7822,-73.0098 562.2019,-76.5133 570,-76.5133 582.7969,-76.5133 586.496,-67.0786 581.0973,-58.2704"/>
<polygon fill="#9a32cd" stroke="#9a32cd" points="560.2125,-68.7839 558.9027,-58.2704 553.3703,-67.306 560.2125,-68.7839"/>
<text text-anchor="middle" x="570" y="-79.5133" font-family="Helvetica,sans-Serif" font-size="10.00" fill="#000000"> next</text>
</g>
<!-- Node12 -->
<g id="node9" class="node">
<title>Node12</title>
<g id="a_node9"><a xlink:href="a01220.html" target="_top" xlink:title=" ">
<polygon fill="#ffffff" stroke="#ff0000" points="707,-139.0133 707,-158.0133 790,-158.0133 790,-139.0133 707,-139.0133"/>
<text text-anchor="middle" x="748.5" y="-146.0133" font-family="Helvetica,sans-Serif" font-size="10.00" fill="#000000">tds_connection</text>
</a>
</g>
</g>
<!-- Node8&#45;&gt;Node12 -->
<g id="edge15" class="edge">
<title>Node8&#45;&gt;Node12</title>
<path fill="none" stroke="#9a32cd" stroke-dasharray="5,2" d="M606.6878,-61.4361C641.5649,-73.725 688.7654,-90.3676 689,-90.5133 710.5654,-103.9127 730.6014,-126.302 741.0179,-138.9868"/>
<polygon fill="#9a32cd" stroke="#9a32cd" points="607.8216,-58.1247 597.2268,-58.1028 605.4955,-64.727 607.8216,-58.1247"/>
<text text-anchor="middle" x="656.5" y="-93.5133" font-family="Helvetica,sans-Serif" font-size="10.00" fill="#000000"> packet_cache</text>
</g>
<!-- Node9&#45;&gt;Node3 -->
<g id="edge7" class="edge">
<title>Node9&#45;&gt;Node3</title>
<path fill="none" stroke="#9a32cd" stroke-dasharray="5,2" d="M586.3107,-170.2378C596.2601,-179.2444 609.7726,-189.5096 624,-194.5133 664.8151,-208.8678 790.3763,-205.628 850.606,-203.111"/>
<polygon fill="#9a32cd" stroke="#9a32cd" points="588.5015,-167.4901 578.8538,-163.1114 583.6651,-172.5508 588.5015,-167.4901"/>
<text text-anchor="middle" x="748.5" y="-207.5133" font-family="Helvetica,sans-Serif" font-size="10.00" fill="#000000"> cur_dyn</text>
</g>
<!-- Node9&#45;&gt;Node9 -->
<g id="edge8" class="edge">
<title>Node9&#45;&gt;Node9</title>
<path fill="none" stroke="#9a32cd" stroke-dasharray="5,2" d="M556.7408,-173.2796C557.7822,-178.0098 562.2019,-181.5133 570,-181.5133 582.7969,-181.5133 586.496,-172.0786 581.0973,-163.2704"/>
<polygon fill="#9a32cd" stroke="#9a32cd" points="560.2125,-173.7839 558.9027,-163.2704 553.3703,-172.306 560.2125,-173.7839"/>
<text text-anchor="middle" x="570" y="-184.5133" font-family="Helvetica,sans-Serif" font-size="10.00" fill="#000000"> next</text>
</g>
<!-- Node9&#45;&gt;Node12 -->
<g id="edge16" class="edge">
<title>Node9&#45;&gt;Node12</title>
<path fill="none" stroke="#9a32cd" stroke-dasharray="5,2" d="M616.3279,-149.8821C618.9224,-149.7409 621.4933,-149.6161 624,-149.5133 651.6443,-148.3796 682.7693,-148.1296 706.9832,-148.1631"/>
<polygon fill="#9a32cd" stroke="#9a32cd" points="616.0578,-146.392 606.2899,-150.4954 616.4848,-153.3789 616.0578,-146.392"/>
<text text-anchor="middle" x="656.5" y="-152.5133" font-family="Helvetica,sans-Serif" font-size="10.00" fill="#000000"> dyns</text>
</g>
<!-- Node10&#45;&gt;Node3 -->
<g id="edge11" class="edge">
<title>Node10&#45;&gt;Node3</title>
<path fill="none" stroke="#9a32cd" stroke-dasharray="5,2" d="M611.1893,-223.2747C663.2337,-225.9543 755.3848,-227.9993 833,-215.5133 839.6471,-214.444 846.671,-212.8231 853.2984,-211.0588"/>
<polygon fill="#9a32cd" stroke="#9a32cd" points="611.1986,-219.77 601.0217,-222.7164 610.8147,-226.7595 611.1986,-219.77"/>
<text text-anchor="middle" x="748.5" y="-227.5133" font-family="Helvetica,sans-Serif" font-size="10.00" fill="#000000"> cur_cursor</text>
</g>
<!-- Node10&#45;&gt;Node10 -->
<g id="edge13" class="edge">
<title>Node10&#45;&gt;Node10</title>
<path fill="none" stroke="#9a32cd" stroke-dasharray="5,2" d="M556.7408,-240.2796C557.7822,-245.0098 562.2019,-248.5133 570,-248.5133 582.7969,-248.5133 586.496,-239.0786 581.0973,-230.2704"/>
<polygon fill="#9a32cd" stroke="#9a32cd" points="560.2125,-240.7839 558.9027,-230.2704 553.3703,-239.306 560.2125,-240.7839"/>
<text text-anchor="middle" x="570" y="-251.5133" font-family="Helvetica,sans-Serif" font-size="10.00" fill="#000000"> next</text>
</g>
<!-- Node10&#45;&gt;Node12 -->
<g id="edge18" class="edge">
<title>Node10&#45;&gt;Node12</title>
<path fill="none" stroke="#9a32cd" stroke-dasharray="5,2" d="M603.101,-207.1616C638.4034,-192.922 693.4421,-170.7215 724.6985,-158.1139"/>
<polygon fill="#9a32cd" stroke="#9a32cd" points="601.6681,-203.9655 593.7034,-210.9523 604.2867,-210.4573 601.6681,-203.9655"/>
<text text-anchor="middle" x="656.5" y="-199.5133" font-family="Helvetica,sans-Serif" font-size="10.00" fill="#000000"> cursors</text>
</g>
<!-- Node12&#45;&gt;Node3 -->
<g id="edge14" class="edge">
<title>Node12&#45;&gt;Node3</title>
<path fill="none" stroke="#9a32cd" stroke-dasharray="5,2" d="M790.6331,-161.1935C804.2969,-165.6446 819.4264,-170.9365 833,-176.5133 844.0397,-181.049 856.0263,-186.9394 865.5501,-191.8632"/>
<polygon fill="#9a32cd" stroke="#9a32cd" points="791.5769,-157.8208 780.986,-158.109 789.445,-164.4883 791.5769,-157.8208"/>
<text text-anchor="middle" x="820.5" y="-179.5133" font-family="Helvetica,sans-Serif" font-size="10.00" fill="#000000"> conn</text>
</g>
<!-- Node18 -->
<g id="node10" class="node">
<title>Node18</title>
<g id="a_node10"><a xlink:href="a00980.html" target="_top" xlink:title=" ">
<polygon fill="#ffffff" stroke="#ff0000" points="13.5,-136.0133 13.5,-155.0133 82.5,-155.0133 82.5,-136.0133 13.5,-136.0133"/>
<text text-anchor="middle" x="48" y="-143.0133" font-family="Helvetica,sans-Serif" font-size="10.00" fill="#000000">tdsiconvinfo</text>
</a>
</g>
</g>
<!-- Node18&#45;&gt;Node12 -->
<g id="edge17" class="edge">
<title>Node18&#45;&gt;Node12</title>
<path fill="none" stroke="#9a32cd" stroke-dasharray="5,2" d="M92.681,-135.2231C134.3239,-126.5399 198.2745,-115.5133 254.5,-115.5133 254.5,-115.5133 254.5,-115.5133 570,-115.5133 621.9993,-115.5133 681.1208,-129.2222 716.582,-138.9683"/>
<polygon fill="#9a32cd" stroke="#9a32cd" points="91.9041,-131.81 82.8521,-137.3157 93.3618,-138.6565 91.9041,-131.81"/>
<text text-anchor="middle" x="420" y="-118.5133" font-family="Helvetica,sans-Serif" font-size="10.00" fill="#000000"> char_convs</text>
</g>
<!-- Node18&#45;&gt;Node22 -->
<g id="edge20" class="edge">
<title>Node18&#45;&gt;Node22</title>
<path fill="none" stroke="#9a32cd" stroke-dasharray="5,2" d="M90.5058,-158.0126C121.9253,-167.6094 165.5663,-181.6925 203,-196.5133 213.8224,-200.7981 225.6097,-206.232 235.1731,-210.8453"/>
<polygon fill="#9a32cd" stroke="#9a32cd" points="91.3428,-154.6091 80.7575,-155.0592 89.313,-161.3084 91.3428,-154.6091"/>
<text text-anchor="middle" x="158.5" y="-199.5133" font-family="Helvetica,sans-Serif" font-size="10.00" fill="#000000"> char_conv</text>
</g>
<!-- Node22&#45;&gt;Node2 -->
<g id="edge19" class="edge">
<title>Node22&#45;&gt;Node2</title>
<path fill="none" stroke="#9a32cd" stroke-dasharray="5,2" d="M298.4334,-220.5133C323.671,-220.5133 355.137,-220.5133 379.7324,-220.5133"/>
<polygon fill="#9a32cd" stroke="#9a32cd" points="298.3908,-217.0134 288.3908,-220.5133 298.3907,-224.0134 298.3908,-217.0134"/>
<text text-anchor="middle" x="334" y="-223.5133" font-family="Helvetica,sans-Serif" font-size="10.00" fill="#000000"> columns</text>
</g>
<!-- Node23 -->
<g id="node12" class="node">
<title>Node23</title>
<g id="a_node12"><a xlink:href="a01160.html" target="_top" xlink:title=" ">
<polygon fill="#ffffff" stroke="#000000" points="0,-239.0133 0,-258.0133 96,-258.0133 96,-239.0133 0,-239.0133"/>
<text text-anchor="middle" x="48" y="-246.0133" font-family="Helvetica,sans-Serif" font-size="10.00" fill="#000000">tds_column_funcs</text>
</a>
</g>
</g>
<!-- Node23&#45;&gt;Node22 -->
<g id="edge22" class="edge">
<title>Node23&#45;&gt;Node22</title>
<path fill="none" stroke="#9a32cd" stroke-dasharray="5,2" d="M106.3127,-240.6065C143.3009,-235.5911 189.8484,-229.2796 220.8046,-225.0822"/>
<polygon fill="#9a32cd" stroke="#9a32cd" points="105.5935,-237.1719 96.1545,-241.9839 106.5341,-244.1084 105.5935,-237.1719"/>
<text text-anchor="middle" x="158.5" y="-241.5133" font-family="Helvetica,sans-Serif" font-size="10.00" fill="#000000"> funcs</text>
</g>
<!-- Node24 -->
<g id="node13" class="node">
<title>Node24</title>
<g id="a_node13"><a xlink:href="a01156.html" target="_top" xlink:title=" ">
<polygon fill="#ffffff" stroke="#000000" points="6.5,-201.0133 6.5,-220.0133 89.5,-220.0133 89.5,-201.0133 6.5,-201.0133"/>
<text text-anchor="middle" x="48" y="-208.0133" font-family="Helvetica,sans-Serif" font-size="10.00" fill="#000000">tds_bcpcoldata</text>
</a>
</g>
</g>
<!-- Node24&#45;&gt;Node22 -->
<g id="edge23" class="edge">
<title>Node24&#45;&gt;Node22</title>
<path fill="none" stroke="#9a32cd" stroke-dasharray="5,2" d="M100.0815,-211.3556C130.1797,-212.0518 168.7515,-213.3007 203,-215.5133 208.7372,-215.8839 214.8245,-216.3818 220.7283,-216.92"/>
<polygon fill="#9a32cd" stroke="#9a32cd" points="99.8837,-207.8505 89.8097,-211.1317 99.7311,-214.8489 99.8837,-207.8505"/>
<text text-anchor="middle" x="158.5" y="-218.5133" font-family="Helvetica,sans-Serif" font-size="10.00" fill="#000000"> bcp_column_data</text>
</g>
</g>
</svg>
