<?xml version="1.0" encoding="UTF-8" standalone="no"?>
<!DOCTYPE svg PUBLIC "-//W3C//DTD SVG 1.1//EN"
 "http://www.w3.org/Graphics/SVG/1.1/DTD/svg11.dtd">
<!-- Generated by graphviz version 2.40.1 (20161225.0304)
 -->
<!-- Title: tds_socket Pages: 1 -->
<svg width="1192pt" height="497pt"
 viewBox="0.00 0.00 1192.00 497.00" xmlns="http://www.w3.org/2000/svg" xmlns:xlink="http://www.w3.org/1999/xlink">
<g id="graph0" class="graph" transform="scale(1 1) rotate(0) translate(4 493)">
<title>tds_socket</title>
<polygon fill="#ffffff" stroke="transparent" points="-4,4 -4,-493 1188,-493 1188,4 -4,4"/>
<!-- Node1 -->
<g id="node1" class="node">
<title>Node1</title>
<g id="a_node1"><a xlink:title="Information for a server connection.">
<polygon fill="#bfbfbf" stroke="#000000" points="569,-261.5 569,-280.5 634,-280.5 634,-261.5 569,-261.5"/>
<text text-anchor="middle" x="601.5" y="-268.5" font-family="Helvetica,sans-Serif" font-size="10.00" fill="#000000">tds_socket</text>
</a>
</g>
</g>
<!-- Node8 -->
<g id="node8" class="node">
<title>Node8</title>
<g id="a_node8"><a xlink:href="a01172.html" target="_top" xlink:title="Hold information for any results.">
<polygon fill="#ffffff" stroke="#000000" points="743.5,-325.5 743.5,-344.5 823.5,-344.5 823.5,-325.5 743.5,-325.5"/>
<text text-anchor="middle" x="783.5" y="-332.5" font-family="Helvetica,sans-Serif" font-size="10.00" fill="#000000">tds_result_info</text>
</a>
</g>
</g>
<!-- Node1&#45;&gt;Node8 -->
<g id="edge10" class="edge">
<title>Node1&#45;&gt;Node8</title>
<path fill="none" stroke="#9a32cd" stroke-dasharray="5,2" d="M607.9858,-290.0833C615.5272,-308.9081 629.9709,-336.6092 653,-349 687.5137,-367.5701 734.5594,-354.8668 761.7172,-344.5309"/>
<polygon fill="#9a32cd" stroke="#9a32cd" points="611.26,-288.8462 604.4956,-280.6918 604.6985,-291.2847 611.26,-288.8462"/>
<text text-anchor="middle" x="685.5" y="-361" font-family="Helvetica,sans-Serif" font-size="10.00" fill="#000000"> attached_to</text>
</g>
<!-- Node2 -->
<g id="node2" class="node">
<title>Node2</title>
<g id="a_node2"><a xlink:href="a01132.html" target="_top" xlink:title=" ">
<polygon fill="#ffffff" stroke="#000000" points="390,-261.5 390,-280.5 446,-280.5 446,-261.5 390,-261.5"/>
<text text-anchor="middle" x="418" y="-268.5" font-family="Helvetica,sans-Serif" font-size="10.00" fill="#000000">tds_login</text>
</a>
</g>
</g>
<!-- Node2&#45;&gt;Node1 -->
<g id="edge1" class="edge">
<title>Node2&#45;&gt;Node1</title>
<path fill="none" stroke="#9a32cd" stroke-dasharray="5,2" d="M456.5389,-271C489.8329,-271 537.4126,-271 568.8599,-271"/>
<polygon fill="#9a32cd" stroke="#9a32cd" points="456.2698,-267.5001 446.2697,-271 456.2697,-274.5001 456.2698,-267.5001"/>
<text text-anchor="middle" x="515" y="-274" font-family="Helvetica,sans-Serif" font-size="10.00" fill="#000000"> login</text>
</g>
<!-- Node3 -->
<g id="node3" class="node">
<title>Node3</title>
<g id="a_node3"><a xlink:href="a01128.html" target="_top" xlink:title=" ">
<polygon fill="#ffffff" stroke="#000000" points="165,-207.5 165,-226.5 249,-226.5 249,-207.5 165,-207.5"/>
<text text-anchor="middle" x="207" y="-214.5" font-family="Helvetica,sans-Serif" font-size="10.00" fill="#000000">tds_capabilities</text>
</a>
</g>
</g>
<!-- Node3&#45;&gt;Node2 -->
<g id="edge2" class="edge">
<title>Node3&#45;&gt;Node2</title>
<path fill="none" stroke="#9a32cd" stroke-dasharray="5,2" d="M259.077,-228.3385C287.7836,-234.8127 323.9906,-243.3462 356,-252 367.0852,-254.9969 379.1795,-258.622 389.719,-261.8988"/>
<polygon fill="#9a32cd" stroke="#9a32cd" points="259.7785,-224.9089 249.2551,-226.1375 258.2478,-231.7395 259.7785,-224.9089"/>
<text text-anchor="middle" x="311.5" y="-255" font-family="Helvetica,sans-Serif" font-size="10.00" fill="#000000"> capabilities</text>
</g>
<!-- Node18 -->
<g id="node13" class="node">
<title>Node18</title>
<g id="a_node13"><a xlink:href="a01220.html" target="_top" xlink:title=" ">
<polygon fill="#ffffff" stroke="#000000" points="1101,-171.5 1101,-190.5 1184,-190.5 1184,-171.5 1101,-171.5"/>
<text text-anchor="middle" x="1142.5" y="-178.5" font-family="Helvetica,sans-Serif" font-size="10.00" fill="#000000">tds_connection</text>
</a>
</g>
</g>
<!-- Node3&#45;&gt;Node18 -->
<g id="edge20" class="edge">
<title>Node3&#45;&gt;Node18</title>
<path fill="none" stroke="#9a32cd" stroke-dasharray="5,2" d="M238.0267,-203.596C278.5974,-187.3152 352.2518,-162 418,-162 418,-162 418,-162 953,-162 1004.0843,-162 1062.53,-168.9204 1100.8452,-174.408"/>
<polygon fill="#9a32cd" stroke="#9a32cd" points="236.6169,-200.3912 228.689,-207.4197 239.2695,-206.8692 236.6169,-200.3912"/>
<text text-anchor="middle" x="685.5" y="-165" font-family="Helvetica,sans-Serif" font-size="10.00" fill="#000000"> capabilities</text>
</g>
<!-- Node4 -->
<g id="node4" class="node">
<title>Node4</title>
<g id="a_node4"><a xlink:href="a01124.html" target="_top" xlink:title=" ">
<polygon fill="#ffffff" stroke="#000000" points="0,-207.5 0,-226.5 101,-226.5 101,-207.5 0,-207.5"/>
<text text-anchor="middle" x="50.5" y="-214.5" font-family="Helvetica,sans-Serif" font-size="10.00" fill="#000000">tds_capability_type</text>
</a>
</g>
</g>
<!-- Node4&#45;&gt;Node3 -->
<g id="edge3" class="edge">
<title>Node4&#45;&gt;Node3</title>
<path fill="none" stroke="#9a32cd" stroke-dasharray="5,2" d="M111.6179,-217C129.4177,-217 148.4612,-217 164.8148,-217"/>
<polygon fill="#9a32cd" stroke="#9a32cd" points="111.3111,-213.5001 101.3111,-217 111.311,-220.5001 111.3111,-213.5001"/>
<text text-anchor="middle" x="133" y="-220" font-family="Helvetica,sans-Serif" font-size="10.00" fill="#000000"> types</text>
</g>
<!-- Node5 -->
<g id="node5" class="node">
<title>Node5</title>
<g id="a_node5"><a xlink:href="a01268.html" target="_top" xlink:title="Structure to hold a string.">
<polygon fill="#ffffff" stroke="#000000" points="181,-280.5 181,-299.5 233,-299.5 233,-280.5 181,-280.5"/>
<text text-anchor="middle" x="207" y="-287.5" font-family="Helvetica,sans-Serif" font-size="10.00" fill="#000000">tds_dstr</text>
</a>
</g>
</g>
<!-- Node5&#45;&gt;Node2 -->
<g id="edge4" class="edge">
<title>Node5&#45;&gt;Node2</title>
<path fill="none" stroke="#9a32cd" stroke-dasharray="5,2" d="M242.621,-277.5031C250.5503,-275.232 258.9843,-273.2036 267,-272 309.5174,-265.6159 359.5298,-267.001 389.9851,-268.8211"/>
<polygon fill="#9a32cd" stroke="#9a32cd" points="241.4589,-274.1983 232.9165,-280.4656 243.5027,-280.8933 241.4589,-274.1983"/>
<text text-anchor="middle" x="311.5" y="-396" font-family="Helvetica,sans-Serif" font-size="10.00" fill="#000000"> server_realm_name</text>
<text text-anchor="middle" x="311.5" y="-385" font-family="Helvetica,sans-Serif" font-size="10.00" fill="#000000">password</text>
<text text-anchor="middle" x="311.5" y="-374" font-family="Helvetica,sans-Serif" font-size="10.00" fill="#000000">server_name</text>
<text text-anchor="middle" x="311.5" y="-363" font-family="Helvetica,sans-Serif" font-size="10.00" fill="#000000">dump_file</text>
<text text-anchor="middle" x="311.5" y="-352" font-family="Helvetica,sans-Serif" font-size="10.00" fill="#000000">library</text>
<text text-anchor="middle" x="311.5" y="-341" font-family="Helvetica,sans-Serif" font-size="10.00" fill="#000000">crlfile</text>
<text text-anchor="middle" x="311.5" y="-330" font-family="Helvetica,sans-Serif" font-size="10.00" fill="#000000">server_spn</text>
<text text-anchor="start" x="267" y="-319" font-family="Helvetica,sans-Serif" font-size="10.00" fill="#000000">client_host</text>
<text text-anchor="middle" x="311.5" y="-308" font-family="Helvetica,sans-Serif" font-size="10.00" fill="#000000">_name</text>
<text text-anchor="middle" x="311.5" y="-297" font-family="Helvetica,sans-Serif" font-size="10.00" fill="#000000">client_charset</text>
<text text-anchor="middle" x="311.5" y="-286" font-family="Helvetica,sans-Serif" font-size="10.00" fill="#000000">openssl_ciphers</text>
<text text-anchor="middle" x="311.5" y="-275" font-family="Helvetica,sans-Serif" font-size="10.00" fill="#000000">...</text>
</g>
<!-- Node9 -->
<g id="node9" class="node">
<title>Node9</title>
<g id="a_node9"><a xlink:href="a01164.html" target="_top" xlink:title="Metadata about columns in regular and compute rows.">
<polygon fill="#ffffff" stroke="#ff0000" points="568,-421.5 568,-440.5 635,-440.5 635,-421.5 568,-421.5"/>
<text text-anchor="middle" x="601.5" y="-428.5" font-family="Helvetica,sans-Serif" font-size="10.00" fill="#000000">tds_column</text>
</a>
</g>
</g>
<!-- Node5&#45;&gt;Node9 -->
<g id="edge13" class="edge">
<title>Node5&#45;&gt;Node9</title>
<path fill="none" stroke="#9a32cd" stroke-dasharray="5,2" d="M211.2048,-309.75C217.9719,-336.1738 234.0082,-382.2227 267,-404 291.7071,-420.3087 488.0338,-427.7404 567.8929,-430.1106"/>
<polygon fill="#9a32cd" stroke="#9a32cd" points="214.55,-308.6858 208.8498,-299.7551 207.7366,-310.2912 214.55,-308.6858"/>
<text text-anchor="middle" x="418" y="-451" font-family="Helvetica,sans-Serif" font-size="10.00" fill="#000000"> column_name</text>
<text text-anchor="middle" x="418" y="-440" font-family="Helvetica,sans-Serif" font-size="10.00" fill="#000000">table_name</text>
<text text-anchor="middle" x="418" y="-429" font-family="Helvetica,sans-Serif" font-size="10.00" fill="#000000">table_column_name</text>
</g>
<!-- Node6 -->
<g id="node6" class="node">
<title>Node6</title>
<g id="a_node6"><a xlink:href="a01212.html" target="_top" xlink:title=" ">
<polygon fill="#ffffff" stroke="#000000" points="385.5,-316.5 385.5,-335.5 450.5,-335.5 450.5,-316.5 385.5,-316.5"/>
<text text-anchor="middle" x="418" y="-323.5" font-family="Helvetica,sans-Serif" font-size="10.00" fill="#000000">tds_packet</text>
</a>
</g>
</g>
<!-- Node6&#45;&gt;Node1 -->
<g id="edge5" class="edge">
<title>Node6&#45;&gt;Node1</title>
<path fill="none" stroke="#9a32cd" stroke-dasharray="5,2" d="M459.8747,-313.449C493.2179,-303.4551 539.1862,-289.6772 569.5957,-280.5626"/>
<polygon fill="#9a32cd" stroke="#9a32cd" points="458.5373,-310.1959 449.9633,-316.4197 460.5471,-316.9012 458.5373,-310.1959"/>
<text text-anchor="middle" x="515" y="-331" font-family="Helvetica,sans-Serif" font-size="10.00" fill="#000000"> frozen_packets</text>
<text text-anchor="middle" x="515" y="-320" font-family="Helvetica,sans-Serif" font-size="10.00" fill="#000000">recv_packet</text>
<text text-anchor="middle" x="515" y="-309" font-family="Helvetica,sans-Serif" font-size="10.00" fill="#000000">send_packet</text>
</g>
<!-- Node6&#45;&gt;Node6 -->
<g id="edge6" class="edge">
<title>Node6&#45;&gt;Node6</title>
<path fill="none" stroke="#9a32cd" stroke-dasharray="5,2" d="M400.2231,-345.4C401.4103,-350.3146 407.3359,-354 418,-354 435.0625,-354 439.9946,-344.5653 432.7964,-335.7571"/>
<polygon fill="#9a32cd" stroke="#9a32cd" points="403.5944,-346.3447 403.2036,-335.7571 396.9066,-344.2775 403.5944,-346.3447"/>
<text text-anchor="middle" x="418" y="-357" font-family="Helvetica,sans-Serif" font-size="10.00" fill="#000000"> next</text>
</g>
<!-- Node6&#45;&gt;Node18 -->
<g id="edge26" class="edge">
<title>Node6&#45;&gt;Node18</title>
<path fill="none" stroke="#9a32cd" stroke-dasharray="5,2" d="M450.5738,-339.3833C510.1164,-363.7324 632.3252,-413.1368 653,-417 764.1542,-437.7699 951.5821,-391.8896 1001,-369 1044.2192,-348.9815 1053.5171,-337.4085 1083,-300 1111.4525,-263.8989 1131.6239,-212.0164 1139.1959,-190.7022"/>
<polygon fill="#9a32cd" stroke="#9a32cd" points="451.8211,-336.112 441.2405,-335.5619 449.1687,-342.5901 451.8211,-336.112"/>
<text text-anchor="middle" x="783.5" y="-424" font-family="Helvetica,sans-Serif" font-size="10.00" fill="#000000"> packet_cache</text>
</g>
<!-- Node7 -->
<g id="node7" class="node">
<title>Node7</title>
<g id="a_node7"><a xlink:href="a01196.html" target="_top" xlink:title="Holds information for a dynamic (also called prepared) query.">
<polygon fill="#ffffff" stroke="#000000" points="917,-228.5 917,-247.5 989,-247.5 989,-228.5 917,-228.5"/>
<text text-anchor="middle" x="953" y="-235.5" font-family="Helvetica,sans-Serif" font-size="10.00" fill="#000000">tds_dynamic</text>
</a>
</g>
</g>
<!-- Node7&#45;&gt;Node1 -->
<g id="edge7" class="edge">
<title>Node7&#45;&gt;Node1</title>
<path fill="none" stroke="#9a32cd" stroke-dasharray="5,2" d="M906.673,-239.4256C847.5541,-241.6962 742.2503,-247.2573 653,-260 646.8454,-260.8787 640.3268,-262.0667 634.0718,-263.3378"/>
<polygon fill="#9a32cd" stroke="#9a32cd" points="906.9448,-242.9181 916.8088,-239.0514 906.6864,-235.9228 906.9448,-242.9181"/>
<text text-anchor="middle" x="783.5" y="-253" font-family="Helvetica,sans-Serif" font-size="10.00" fill="#000000"> cur_dyn</text>
</g>
<!-- Node7&#45;&gt;Node7 -->
<g id="edge8" class="edge">
<title>Node7&#45;&gt;Node7</title>
<path fill="none" stroke="#9a32cd" stroke-dasharray="5,2" d="M937.5309,-257.7663C938.7459,-262.4965 943.9022,-266 953,-266 967.9297,-266 972.2453,-256.5653 965.9468,-247.7571"/>
<polygon fill="#9a32cd" stroke="#9a32cd" points="941.0034,-258.3092 940.0532,-247.7571 934.2156,-256.5986 941.0034,-258.3092"/>
<text text-anchor="middle" x="953" y="-269" font-family="Helvetica,sans-Serif" font-size="10.00" fill="#000000"> next</text>
</g>
<!-- Node7&#45;&gt;Node18 -->
<g id="edge27" class="edge">
<title>Node7&#45;&gt;Node18</title>
<path fill="none" stroke="#9a32cd" stroke-dasharray="5,2" d="M999.1905,-233.1722C1024.4683,-229.6186 1056.039,-223.673 1083,-214 1099.4551,-208.0963 1116.7706,-197.9892 1128.4519,-190.5121"/>
<polygon fill="#9a32cd" stroke="#9a32cd" points="998.5814,-229.7223 989.1292,-234.5083 999.503,-236.6614 998.5814,-229.7223"/>
<text text-anchor="middle" x="1051" y="-232" font-family="Helvetica,sans-Serif" font-size="10.00" fill="#000000"> dyns</text>
</g>
<!-- Node8&#45;&gt;Node1 -->
<g id="edge14" class="edge">
<title>Node8&#45;&gt;Node1</title>
<path fill="none" stroke="#9a32cd" stroke-dasharray="5,2" d="M756.034,-320.5639C739.0392,-311.6615 720.0698,-301.7919 718,-301 702.8336,-295.1974 663.108,-285.3752 634.2546,-278.5575"/>
<polygon fill="#9a32cd" stroke="#9a32cd" points="754.671,-323.8012 765.1526,-325.3464 757.9223,-317.6021 754.671,-323.8012"/>
<text text-anchor="middle" x="685.5" y="-337" font-family="Helvetica,sans-Serif" font-size="10.00" fill="#000000"> param_info</text>
<text text-anchor="middle" x="685.5" y="-326" font-family="Helvetica,sans-Serif" font-size="10.00" fill="#000000">current_results</text>
<text text-anchor="middle" x="685.5" y="-315" font-family="Helvetica,sans-Serif" font-size="10.00" fill="#000000">res_info</text>
<text text-anchor="middle" x="685.5" y="-304" font-family="Helvetica,sans-Serif" font-size="10.00" fill="#000000">comp_info</text>
</g>
<!-- Node8&#45;&gt;Node7 -->
<g id="edge9" class="edge">
<title>Node8&#45;&gt;Node7</title>
<path fill="none" stroke="#9a32cd" stroke-dasharray="5,2" d="M811.2669,-320.6758C817.7737,-317.2391 824.6571,-313.5381 831,-310 869.6613,-288.4345 914.2701,-261.5998 937.3491,-247.5673"/>
<polygon fill="#9a32cd" stroke="#9a32cd" points="809.3442,-317.7317 802.1098,-325.4721 812.5922,-323.9326 809.3442,-317.7317"/>
<text text-anchor="middle" x="868" y="-312" font-family="Helvetica,sans-Serif" font-size="10.00" fill="#000000"> res_info</text>
<text text-anchor="middle" x="868" y="-301" font-family="Helvetica,sans-Serif" font-size="10.00" fill="#000000">params</text>
</g>
<!-- Node16 -->
<g id="node11" class="node">
<title>Node16</title>
<g id="a_node11"><a xlink:href="a01188.html" target="_top" xlink:title="Holds informations about a cursor.">
<polygon fill="#ffffff" stroke="#000000" points="922,-311.5 922,-330.5 984,-330.5 984,-311.5 922,-311.5"/>
<text text-anchor="middle" x="953" y="-318.5" font-family="Helvetica,sans-Serif" font-size="10.00" fill="#000000">tds_cursor</text>
</a>
</g>
</g>
<!-- Node8&#45;&gt;Node16 -->
<g id="edge17" class="edge">
<title>Node8&#45;&gt;Node16</title>
<path fill="none" stroke="#9a32cd" stroke-dasharray="5,2" d="M833.8755,-330.8392C862.4312,-328.4806 897.2559,-325.6042 921.8571,-323.5723"/>
<polygon fill="#9a32cd" stroke="#9a32cd" points="833.3471,-327.3708 823.6691,-331.6822 833.9233,-334.3471 833.3471,-327.3708"/>
<text text-anchor="middle" x="868" y="-332" font-family="Helvetica,sans-Serif" font-size="10.00" fill="#000000"> res_info</text>
</g>
<!-- Node9&#45;&gt;Node8 -->
<g id="edge11" class="edge">
<title>Node9&#45;&gt;Node8</title>
<path fill="none" stroke="#9a32cd" stroke-dasharray="5,2" d="M636.5109,-417.4075C660.642,-407.1478 692.7813,-391.6659 718,-373 727.3498,-366.0797 726.3763,-360.534 736,-354 741.4376,-350.3081 747.7006,-347.163 753.8574,-344.557"/>
<polygon fill="#9a32cd" stroke="#9a32cd" points="634.9239,-414.2768 627.0318,-421.3455 637.6094,-420.7411 634.9239,-414.2768"/>
<text text-anchor="middle" x="685.5" y="-412" font-family="Helvetica,sans-Serif" font-size="10.00" fill="#000000"> columns</text>
</g>
<!-- Node10 -->
<g id="node10" class="node">
<title>Node10</title>
<g id="a_node10"><a xlink:href="a00980.html" target="_top" xlink:title=" ">
<polygon fill="#ffffff" stroke="#ff0000" points="383.5,-469.5 383.5,-488.5 452.5,-488.5 452.5,-469.5 383.5,-469.5"/>
<text text-anchor="middle" x="418" y="-476.5" font-family="Helvetica,sans-Serif" font-size="10.00" fill="#000000">tdsiconvinfo</text>
</a>
</g>
</g>
<!-- Node10&#45;&gt;Node9 -->
<g id="edge12" class="edge">
<title>Node10&#45;&gt;Node9</title>
<path fill="none" stroke="#9a32cd" stroke-dasharray="5,2" d="M447.005,-465.297C457.2539,-460.8702 468.9751,-456.2672 480,-453 509.0828,-444.3813 543.1356,-438.569 567.779,-435.0938"/>
<polygon fill="#9a32cd" stroke="#9a32cd" points="445.4135,-462.1742 437.7006,-469.4379 448.2598,-468.5695 445.4135,-462.1742"/>
<text text-anchor="middle" x="515" y="-456" font-family="Helvetica,sans-Serif" font-size="10.00" fill="#000000"> char_conv</text>
</g>
<!-- Node10&#45;&gt;Node18 -->
<g id="edge28" class="edge">
<title>Node10&#45;&gt;Node18</title>
<path fill="none" stroke="#9a32cd" stroke-dasharray="5,2" d="M462.8438,-478.6193C499.9959,-478.3366 554.1795,-478 601.5,-478 601.5,-478 601.5,-478 953,-478 1092.7601,-478 1134.0004,-241.3814 1141.2479,-190.5453"/>
<polygon fill="#9a32cd" stroke="#9a32cd" points="462.8089,-475.1194 452.8365,-478.6973 462.8635,-482.1191 462.8089,-475.1194"/>
<text text-anchor="middle" x="783.5" y="-481" font-family="Helvetica,sans-Serif" font-size="10.00" fill="#000000"> char_convs</text>
</g>
<!-- Node16&#45;&gt;Node1 -->
<g id="edge15" class="edge">
<title>Node16&#45;&gt;Node1</title>
<path fill="none" stroke="#9a32cd" stroke-dasharray="5,2" d="M911.8085,-314.2761C864.9348,-306.721 786.0543,-294.2993 718,-285 689.7429,-281.1388 657.5501,-277.3138 634.1771,-274.6401"/>
<polygon fill="#9a32cd" stroke="#9a32cd" points="911.4455,-317.7628 921.8759,-315.9033 912.5625,-310.8525 911.4455,-317.7628"/>
<text text-anchor="middle" x="783.5" y="-304" font-family="Helvetica,sans-Serif" font-size="10.00" fill="#000000"> cur_cursor</text>
</g>
<!-- Node16&#45;&gt;Node16 -->
<g id="edge18" class="edge">
<title>Node16&#45;&gt;Node16</title>
<path fill="none" stroke="#9a32cd" stroke-dasharray="5,2" d="M937.5309,-340.7663C938.7459,-345.4965 943.9022,-349 953,-349 967.9297,-349 972.2453,-339.5653 965.9468,-330.7571"/>
<polygon fill="#9a32cd" stroke="#9a32cd" points="941.0034,-341.3092 940.0532,-330.7571 934.2156,-339.5986 941.0034,-341.3092"/>
<text text-anchor="middle" x="953" y="-352" font-family="Helvetica,sans-Serif" font-size="10.00" fill="#000000"> next</text>
</g>
<!-- Node16&#45;&gt;Node18 -->
<g id="edge29" class="edge">
<title>Node16&#45;&gt;Node18</title>
<path fill="none" stroke="#9a32cd" stroke-dasharray="5,2" d="M982.0949,-306.7741C1009.4669,-292.7146 1050.925,-269.6396 1083,-244 1103.6824,-227.4672 1124.0496,-203.8897 1134.7593,-190.7682"/>
<polygon fill="#9a32cd" stroke="#9a32cd" points="980.3787,-303.7199 973.039,-311.3606 983.5415,-309.9647 980.3787,-303.7199"/>
<text text-anchor="middle" x="1051" y="-288" font-family="Helvetica,sans-Serif" font-size="10.00" fill="#000000"> cursors</text>
</g>
<!-- Node17 -->
<g id="node12" class="node">
<title>Node17</title>
<g id="a_node12"><a xlink:href="a01184.html" target="_top" xlink:title=" ">
<polygon fill="#ffffff" stroke="#000000" points="736,-363.5 736,-382.5 831,-382.5 831,-363.5 736,-363.5"/>
<text text-anchor="middle" x="783.5" y="-370.5" font-family="Helvetica,sans-Serif" font-size="10.00" fill="#000000">tds_cursor_status</text>
</a>
</g>
</g>
<!-- Node17&#45;&gt;Node16 -->
<g id="edge16" class="edge">
<title>Node17&#45;&gt;Node16</title>
<path fill="none" stroke="#9a32cd" stroke-dasharray="5,2" d="M829.2956,-360.827C847.35,-355.8563 868.2227,-349.8962 887,-344 900.1976,-339.8559 914.7291,-334.8416 926.7894,-330.554"/>
<polygon fill="#9a32cd" stroke="#9a32cd" points="828.3103,-357.4678 819.5865,-363.4799 830.1554,-364.2203 828.3103,-357.4678"/>
<text text-anchor="middle" x="868" y="-357" font-family="Helvetica,sans-Serif" font-size="10.00" fill="#000000"> status</text>
</g>
<!-- Node18&#45;&gt;Node1 -->
<g id="edge19" class="edge">
<title>Node18&#45;&gt;Node1</title>
<path fill="none" stroke="#9a32cd" stroke-dasharray="5,2" d="M1090.7592,-183.2634C1000.3576,-188.2748 808.4653,-203.6272 653,-248 641.5124,-251.2788 629.2776,-256.6561 619.6168,-261.387"/>
<polygon fill="#9a32cd" stroke="#9a32cd" points="1090.9524,-186.7581 1100.7512,-182.729 1090.5785,-179.7681 1090.9524,-186.7581"/>
<text text-anchor="middle" x="868" y="-209" font-family="Helvetica,sans-Serif" font-size="10.00" fill="#000000"> conn</text>
</g>
<!-- Node19 -->
<g id="node14" class="node">
<title>Node19</title>
<g id="a_node14"><a xlink:href="a01216.html" target="_top" xlink:title=" ">
<polygon fill="#ffffff" stroke="#000000" points="908.5,-114.5 908.5,-133.5 997.5,-133.5 997.5,-114.5 908.5,-114.5"/>
<text text-anchor="middle" x="953" y="-121.5" font-family="Helvetica,sans-Serif" font-size="10.00" fill="#000000">tds_poll_wakeup</text>
</a>
</g>
</g>
<!-- Node19&#45;&gt;Node18 -->
<g id="edge21" class="edge">
<title>Node19&#45;&gt;Node18</title>
<path fill="none" stroke="#9a32cd" stroke-dasharray="5,2" d="M1007.9458,-123.0489C1031.7019,-124.2573 1059.4047,-127.8969 1083,-137 1102.8974,-144.6765 1122.0084,-160.8982 1132.9866,-171.3554"/>
<polygon fill="#9a32cd" stroke="#9a32cd" points="1007.8094,-119.5414 997.6847,-122.6623 1007.5458,-126.5364 1007.8094,-119.5414"/>
<text text-anchor="middle" x="1051" y="-140" font-family="Helvetica,sans-Serif" font-size="10.00" fill="#000000"> wakeup</text>
</g>
<!-- Node20 -->
<g id="node15" class="node">
<title>Node20</title>
<g id="a_node15"><a xlink:href="a01192.html" target="_top" xlink:title="Current environment as reported by the server.">
<polygon fill="#ffffff" stroke="#000000" points="927.5,-76.5 927.5,-95.5 978.5,-95.5 978.5,-76.5 927.5,-76.5"/>
<text text-anchor="middle" x="953" y="-83.5" font-family="Helvetica,sans-Serif" font-size="10.00" fill="#000000">tds_env</text>
</a>
</g>
</g>
<!-- Node20&#45;&gt;Node18 -->
<g id="edge22" class="edge">
<title>Node20&#45;&gt;Node18</title>
<path fill="none" stroke="#9a32cd" stroke-dasharray="5,2" d="M989.0563,-85.7908C1016.5078,-87.126 1054.3293,-92.2921 1083,-109 1109.1997,-124.2679 1128.8715,-155.6484 1137.5726,-171.4553"/>
<polygon fill="#9a32cd" stroke="#9a32cd" points="988.83,-82.2813 978.7181,-85.4435 988.5949,-89.2774 988.83,-82.2813"/>
<text text-anchor="middle" x="1051" y="-112" font-family="Helvetica,sans-Serif" font-size="10.00" fill="#000000"> env</text>
</g>
<!-- Node21 -->
<g id="node16" class="node">
<title>Node21</title>
<g id="a_node16"><a xlink:href="a01204.html" target="_top" xlink:title=" ">
<polygon fill="#ffffff" stroke="#000000" points="919,-38.5 919,-57.5 987,-57.5 987,-38.5 919,-38.5"/>
<text text-anchor="middle" x="953" y="-45.5" font-family="Helvetica,sans-Serif" font-size="10.00" fill="#000000">tds_context</text>
</a>
</g>
</g>
<!-- Node21&#45;&gt;Node18 -->
<g id="edge23" class="edge">
<title>Node21&#45;&gt;Node18</title>
<path fill="none" stroke="#9a32cd" stroke-dasharray="5,2" d="M997.058,-48.1652C1024.138,-50.3066 1058.263,-56.8864 1083,-75 1116.8837,-99.8112 1134.0425,-150.1007 1140.0037,-171.2651"/>
<polygon fill="#9a32cd" stroke="#9a32cd" points="997.2554,-44.6708 987.0585,-47.547 996.8234,-51.6575 997.2554,-44.6708"/>
<text text-anchor="middle" x="1051" y="-78" font-family="Helvetica,sans-Serif" font-size="10.00" fill="#000000"> tds_ctx</text>
</g>
<!-- Node22 -->
<g id="node17" class="node">
<title>Node22</title>
<g id="a_node17"><a xlink:href="a01140.html" target="_top" xlink:title=" ">
<polygon fill="#ffffff" stroke="#000000" points="753,-38.5 753,-57.5 814,-57.5 814,-38.5 753,-38.5"/>
<text text-anchor="middle" x="783.5" y="-45.5" font-family="Helvetica,sans-Serif" font-size="10.00" fill="#000000">tds_locale</text>
</a>
</g>
</g>
<!-- Node22&#45;&gt;Node21 -->
<g id="edge24" class="edge">
<title>Node22&#45;&gt;Node21</title>
<path fill="none" stroke="#9a32cd" stroke-dasharray="5,2" d="M824.3677,-48C853.2328,-48 891.4767,-48 918.7446,-48"/>
<polygon fill="#9a32cd" stroke="#9a32cd" points="824.1952,-44.5001 814.1952,-48 824.1951,-51.5001 824.1952,-44.5001"/>
<text text-anchor="middle" x="868" y="-51" font-family="Helvetica,sans-Serif" font-size="10.00" fill="#000000"> locale</text>
</g>
<!-- Node23 -->
<g id="node18" class="node">
<title>Node23</title>
<g id="a_node18"><a xlink:href="a01208.html" target="_top" xlink:title=" ">
<polygon fill="#ffffff" stroke="#000000" points="905,-.5 905,-19.5 1001,-19.5 1001,-.5 905,-.5"/>
<text text-anchor="middle" x="953" y="-7.5" font-family="Helvetica,sans-Serif" font-size="10.00" fill="#000000">tds_authentication</text>
</a>
</g>
</g>
<!-- Node23&#45;&gt;Node18 -->
<g id="edge25" class="edge">
<title>Node23&#45;&gt;Node18</title>
<path fill="none" stroke="#9a32cd" stroke-dasharray="5,2" d="M1011.53,-9.8925C1035.9532,-12.6319 1063.1864,-19.6671 1083,-36 1126.6726,-72.0006 1138.6565,-145.2229 1141.6151,-171.4156"/>
<polygon fill="#9a32cd" stroke="#9a32cd" points="1011.5388,-6.3792 1001.2648,-8.967 1010.9101,-13.3509 1011.5388,-6.3792"/>
<text text-anchor="middle" x="1051" y="-39" font-family="Helvetica,sans-Serif" font-size="10.00" fill="#000000"> authentication</text>
</g>
</g>
</svg>
