<?xml version="1.0" encoding="UTF-8" standalone="no"?>
<!DOCTYPE svg PUBLIC "-//W3C//DTD SVG 1.1//EN"
 "http://www.w3.org/Graphics/SVG/1.1/DTD/svg11.dtd">
<!-- Generated by graphviz version 2.40.1 (20161225.0304)
 -->
<!-- Title: DLIST_LIST_TYPE Pages: 1 -->
<svg width="128pt" height="97pt"
 viewBox="0.00 0.00 127.50 97.00" xmlns="http://www.w3.org/2000/svg" xmlns:xlink="http://www.w3.org/1999/xlink">
<g id="graph0" class="graph" transform="scale(1 1) rotate(0) translate(4 93)">
<title>DLIST_LIST_TYPE</title>
<polygon fill="#ffffff" stroke="transparent" points="-4,4 -4,-93 123.5,-93 123.5,4 -4,4"/>
<!-- Node1 -->
<g id="node1" class="node">
<title>Node1</title>
<g id="a_node1"><a xlink:title=" ">
<polygon fill="#bfbfbf" stroke="#000000" points="0,-.5 0,-19.5 103,-19.5 103,-.5 0,-.5"/>
<text text-anchor="middle" x="51.5" y="-7.5" font-family="Helvetica,sans-Serif" font-size="10.00" fill="#000000">DLIST_LIST_TYPE</text>
</a>
</g>
</g>
<!-- Node2 -->
<g id="node2" class="node">
<title>Node2</title>
<g id="a_node2"><a xlink:href="a01252.html" target="_top" xlink:title=" ">
<polygon fill="#ffffff" stroke="#000000" points="23.5,-68.5 23.5,-87.5 79.5,-87.5 79.5,-68.5 23.5,-68.5"/>
<text text-anchor="middle" x="51.5" y="-75.5" font-family="Helvetica,sans-Serif" font-size="10.00" fill="#000000">dlist_ring</text>
</a>
</g>
</g>
<!-- Node2&#45;&gt;Node1 -->
<g id="edge1" class="edge">
<title>Node2&#45;&gt;Node1</title>
<path fill="none" stroke="#9a32cd" stroke-dasharray="5,2" d="M51.5,-58.1951C51.5,-45.5514 51.5,-29.7157 51.5,-19.7247"/>
<polygon fill="#9a32cd" stroke="#9a32cd" points="48.0001,-58.2572 51.5,-68.2573 55.0001,-58.2573 48.0001,-58.2572"/>
<text text-anchor="middle" x="61" y="-41" font-family="Helvetica,sans-Serif" font-size="10.00" fill="#000000"> ring</text>
</g>
<!-- Node2&#45;&gt;Node2 -->
<g id="edge2" class="edge">
<title>Node2&#45;&gt;Node2</title>
<path fill="none" stroke="#9a32cd" stroke-dasharray="5,2" d="M90.0533,-83.4491C94.5634,-82.4467 97.5,-80.6303 97.5,-78 97.5,-73.6836 89.5919,-71.5591 79.7994,-71.6266"/>
<polygon fill="#9a32cd" stroke="#9a32cd" points="89.4447,-79.9897 79.7994,-84.3734 90.0733,-86.9614 89.4447,-79.9897"/>
<text text-anchor="middle" x="108.5" y="-81" font-family="Helvetica,sans-Serif" font-size="10.00" fill="#000000"> prev</text>
<text text-anchor="middle" x="108.5" y="-70" font-family="Helvetica,sans-Serif" font-size="10.00" fill="#000000">next</text>
</g>
</g>
</svg>
