<?xml version="1.0" encoding="UTF-8" standalone="no"?>
<!DOCTYPE svg PUBLIC "-//W3C//DTD SVG 1.1//EN"
 "http://www.w3.org/Graphics/SVG/1.1/DTD/svg11.dtd">
<!-- Generated by graphviz version 2.40.1 (20161225.0304)
 -->
<!-- Title: tds_freeze Pages: 1 -->
<svg width="1002pt" height="546pt"
 viewBox="0.00 0.00 1002.00 546.00" xmlns="http://www.w3.org/2000/svg" xmlns:xlink="http://www.w3.org/1999/xlink">
<g id="graph0" class="graph" transform="scale(1 1) rotate(0) translate(4 542)">
<title>tds_freeze</title>
<polygon fill="#ffffff" stroke="transparent" points="-4,4 -4,-542 998,-542 998,4 -4,4"/>
<!-- Node1 -->
<g id="node1" class="node">
<title>Node1</title>
<g id="a_node1"><a xlink:title=" ">
<polygon fill="#bfbfbf" stroke="#000000" points="562.5,-273.5 562.5,-292.5 624.5,-292.5 624.5,-273.5 562.5,-273.5"/>
<text text-anchor="middle" x="593.5" y="-280.5" font-family="Helvetica,sans-Serif" font-size="10.00" fill="#000000">tds_freeze</text>
</a>
</g>
</g>
<!-- Node2 -->
<g id="node2" class="node">
<title>Node2</title>
<g id="a_node2"><a xlink:href="a01224.html" target="_top" xlink:title="Information for a server connection.">
<polygon fill="#ffffff" stroke="#000000" points="380,-364.5 380,-383.5 445,-383.5 445,-364.5 380,-364.5"/>
<text text-anchor="middle" x="412.5" y="-371.5" font-family="Helvetica,sans-Serif" font-size="10.00" fill="#000000">tds_socket</text>
</a>
</g>
</g>
<!-- Node2&#45;&gt;Node1 -->
<g id="edge1" class="edge">
<title>Node2&#45;&gt;Node1</title>
<path fill="none" stroke="#9a32cd" stroke-dasharray="5,2" d="M424.0865,-355.5415C433.1491,-342.5977 446.89,-325.9003 463,-316 479.4757,-305.8749 529.1903,-295.0492 562.281,-288.6604"/>
<polygon fill="#9a32cd" stroke="#9a32cd" points="420.981,-353.8901 418.3474,-364.1523 426.8058,-357.7723 420.981,-353.8901"/>
<text text-anchor="middle" x="495.5" y="-319" font-family="Helvetica,sans-Serif" font-size="10.00" fill="#000000"> tds</text>
</g>
<!-- Node9 -->
<g id="node8" class="node">
<title>Node9</title>
<g id="a_node8"><a xlink:href="a01172.html" target="_top" xlink:title="Hold information for any results.">
<polygon fill="#ffffff" stroke="#ff0000" points="553.5,-397.5 553.5,-416.5 633.5,-416.5 633.5,-397.5 553.5,-397.5"/>
<text text-anchor="middle" x="593.5" y="-404.5" font-family="Helvetica,sans-Serif" font-size="10.00" fill="#000000">tds_result_info</text>
</a>
</g>
</g>
<!-- Node2&#45;&gt;Node9 -->
<g id="edge10" class="edge">
<title>Node2&#45;&gt;Node9</title>
<path fill="none" stroke="#9a32cd" stroke-dasharray="5,2" d="M455.2385,-368.6153C477.4129,-367.2477 504.6693,-367.8256 528,-375 537.1901,-377.826 537.5314,-382.4474 546,-387 553.093,-390.8131 561.0695,-394.417 568.4317,-397.4876"/>
<polygon fill="#9a32cd" stroke="#9a32cd" points="454.8236,-365.1367 445.1213,-369.3929 455.3602,-372.1162 454.8236,-365.1367"/>
<text text-anchor="middle" x="495.5" y="-378" font-family="Helvetica,sans-Serif" font-size="10.00" fill="#000000"> attached_to</text>
</g>
<!-- Node3 -->
<g id="node3" class="node">
<title>Node3</title>
<g id="a_node3"><a xlink:href="a01132.html" target="_top" xlink:title=" ">
<polygon fill="#ffffff" stroke="#000000" points="213.5,-353.5 213.5,-372.5 269.5,-372.5 269.5,-353.5 213.5,-353.5"/>
<text text-anchor="middle" x="241.5" y="-360.5" font-family="Helvetica,sans-Serif" font-size="10.00" fill="#000000">tds_login</text>
</a>
</g>
</g>
<!-- Node3&#45;&gt;Node2 -->
<g id="edge2" class="edge">
<title>Node3&#45;&gt;Node2</title>
<path fill="none" stroke="#9a32cd" stroke-dasharray="5,2" d="M279.8632,-365.4678C309.9377,-367.4024 351.3305,-370.0651 379.836,-371.8988"/>
<polygon fill="#9a32cd" stroke="#9a32cd" points="279.9413,-361.9657 269.7372,-364.8164 279.4918,-368.9512 279.9413,-361.9657"/>
<text text-anchor="middle" x="327" y="-373" font-family="Helvetica,sans-Serif" font-size="10.00" fill="#000000"> login</text>
</g>
<!-- Node4 -->
<g id="node4" class="node">
<title>Node4</title>
<g id="a_node4"><a xlink:href="a01128.html" target="_top" xlink:title=" ">
<polygon fill="#ffffff" stroke="#ff0000" points="0,-256.5 0,-275.5 84,-275.5 84,-256.5 0,-256.5"/>
<text text-anchor="middle" x="42" y="-263.5" font-family="Helvetica,sans-Serif" font-size="10.00" fill="#000000">tds_capabilities</text>
</a>
</g>
</g>
<!-- Node4&#45;&gt;Node3 -->
<g id="edge3" class="edge">
<title>Node4&#45;&gt;Node3</title>
<path fill="none" stroke="#9a32cd" stroke-dasharray="5,2" d="M71.0827,-280.1404C112.2356,-300.1496 186.3788,-336.1992 221.7221,-353.3837"/>
<polygon fill="#9a32cd" stroke="#9a32cd" points="72.382,-276.8804 61.8582,-275.6554 69.321,-283.1758 72.382,-276.8804"/>
<text text-anchor="middle" x="146.5" y="-339" font-family="Helvetica,sans-Serif" font-size="10.00" fill="#000000"> capabilities</text>
</g>
<!-- Node19 -->
<g id="node11" class="node">
<title>Node19</title>
<g id="a_node11"><a xlink:href="a01220.html" target="_top" xlink:title=" ">
<polygon fill="#ffffff" stroke="#000000" points="911,-171.5 911,-190.5 994,-190.5 994,-171.5 911,-171.5"/>
<text text-anchor="middle" x="952.5" y="-178.5" font-family="Helvetica,sans-Serif" font-size="10.00" fill="#000000">tds_connection</text>
</a>
</g>
</g>
<!-- Node4&#45;&gt;Node19 -->
<g id="edge17" class="edge">
<title>Node4&#45;&gt;Node19</title>
<path fill="none" stroke="#9a32cd" stroke-dasharray="5,2" d="M66.8875,-251.128C103.7034,-230.5769 175.4586,-196 241.5,-196 241.5,-196 241.5,-196 495.5,-196 672.2226,-196 716.5398,-195.6256 893,-186 898.7965,-185.6838 904.9042,-185.2667 910.9096,-184.8079"/>
<polygon fill="#9a32cd" stroke="#9a32cd" points="64.8339,-248.2701 57.8838,-256.2668 68.3037,-254.3497 64.8339,-248.2701"/>
<text text-anchor="middle" x="495.5" y="-199" font-family="Helvetica,sans-Serif" font-size="10.00" fill="#000000"> capabilities</text>
</g>
<!-- Node6 -->
<g id="node5" class="node">
<title>Node6</title>
<g id="a_node5"><a xlink:href="a01268.html" target="_top" xlink:title="Structure to hold a string.">
<polygon fill="#ffffff" stroke="#000000" points="16,-353.5 16,-372.5 68,-372.5 68,-353.5 16,-353.5"/>
<text text-anchor="middle" x="42" y="-360.5" font-family="Helvetica,sans-Serif" font-size="10.00" fill="#000000">tds_dstr</text>
</a>
</g>
</g>
<!-- Node6&#45;&gt;Node3 -->
<g id="edge4" class="edge">
<title>Node6&#45;&gt;Node3</title>
<path fill="none" stroke="#9a32cd" stroke-dasharray="5,2" d="M78.4347,-363C117.3419,-363 178.1563,-363 213.4845,-363"/>
<polygon fill="#9a32cd" stroke="#9a32cd" points="78.0812,-359.5001 68.0811,-363 78.0811,-366.5001 78.0812,-359.5001"/>
<text text-anchor="middle" x="146.5" y="-487" font-family="Helvetica,sans-Serif" font-size="10.00" fill="#000000"> server_realm_name</text>
<text text-anchor="middle" x="146.5" y="-476" font-family="Helvetica,sans-Serif" font-size="10.00" fill="#000000">password</text>
<text text-anchor="middle" x="146.5" y="-465" font-family="Helvetica,sans-Serif" font-size="10.00" fill="#000000">server_name</text>
<text text-anchor="middle" x="146.5" y="-454" font-family="Helvetica,sans-Serif" font-size="10.00" fill="#000000">dump_file</text>
<text text-anchor="middle" x="146.5" y="-443" font-family="Helvetica,sans-Serif" font-size="10.00" fill="#000000">library</text>
<text text-anchor="middle" x="146.5" y="-432" font-family="Helvetica,sans-Serif" font-size="10.00" fill="#000000">crlfile</text>
<text text-anchor="middle" x="146.5" y="-421" font-family="Helvetica,sans-Serif" font-size="10.00" fill="#000000">server_spn</text>
<text text-anchor="start" x="102" y="-410" font-family="Helvetica,sans-Serif" font-size="10.00" fill="#000000">client_host</text>
<text text-anchor="middle" x="146.5" y="-399" font-family="Helvetica,sans-Serif" font-size="10.00" fill="#000000">_name</text>
<text text-anchor="middle" x="146.5" y="-388" font-family="Helvetica,sans-Serif" font-size="10.00" fill="#000000">client_charset</text>
<text text-anchor="middle" x="146.5" y="-377" font-family="Helvetica,sans-Serif" font-size="10.00" fill="#000000">openssl_ciphers</text>
<text text-anchor="middle" x="146.5" y="-366" font-family="Helvetica,sans-Serif" font-size="10.00" fill="#000000">...</text>
</g>
<!-- Node7 -->
<g id="node6" class="node">
<title>Node7</title>
<g id="a_node6"><a xlink:href="a01212.html" target="_top" xlink:title=" ">
<polygon fill="#ffffff" stroke="#000000" points="209,-275.5 209,-294.5 274,-294.5 274,-275.5 209,-275.5"/>
<text text-anchor="middle" x="241.5" y="-282.5" font-family="Helvetica,sans-Serif" font-size="10.00" fill="#000000">tds_packet</text>
</a>
</g>
</g>
<!-- Node7&#45;&gt;Node1 -->
<g id="edge26" class="edge">
<title>Node7&#45;&gt;Node1</title>
<path fill="none" stroke="#9a32cd" stroke-dasharray="5,2" d="M284.3551,-284.7565C356.1289,-284.3487 498.9799,-283.537 562.1778,-283.178"/>
<polygon fill="#9a32cd" stroke="#9a32cd" points="284.2791,-281.2568 274.2992,-284.8136 284.319,-288.2567 284.2791,-281.2568"/>
<text text-anchor="middle" x="412.5" y="-287" font-family="Helvetica,sans-Serif" font-size="10.00" fill="#000000"> pkt</text>
</g>
<!-- Node7&#45;&gt;Node2 -->
<g id="edge5" class="edge">
<title>Node7&#45;&gt;Node2</title>
<path fill="none" stroke="#9a32cd" stroke-dasharray="5,2" d="M284.0352,-296.2206C307.9385,-303.5619 337.7494,-314.4969 362,-329 378.3269,-338.7643 394.2129,-354.191 403.6778,-364.2035"/>
<polygon fill="#9a32cd" stroke="#9a32cd" points="284.7688,-292.7874 274.1861,-293.2945 282.7752,-299.4976 284.7688,-292.7874"/>
<text text-anchor="middle" x="327" y="-354" font-family="Helvetica,sans-Serif" font-size="10.00" fill="#000000"> frozen_packets</text>
<text text-anchor="middle" x="327" y="-343" font-family="Helvetica,sans-Serif" font-size="10.00" fill="#000000">recv_packet</text>
<text text-anchor="middle" x="327" y="-332" font-family="Helvetica,sans-Serif" font-size="10.00" fill="#000000">send_packet</text>
</g>
<!-- Node7&#45;&gt;Node7 -->
<g id="edge6" class="edge">
<title>Node7&#45;&gt;Node7</title>
<path fill="none" stroke="#9a32cd" stroke-dasharray="5,2" d="M226.0309,-304.7663C227.2459,-309.4965 232.4022,-313 241.5,-313 256.4297,-313 260.7453,-303.5653 254.4468,-294.7571"/>
<polygon fill="#9a32cd" stroke="#9a32cd" points="229.5034,-305.3092 228.5532,-294.7571 222.7156,-303.5986 229.5034,-305.3092"/>
<text text-anchor="middle" x="241.5" y="-316" font-family="Helvetica,sans-Serif" font-size="10.00" fill="#000000"> next</text>
</g>
<!-- Node7&#45;&gt;Node19 -->
<g id="edge22" class="edge">
<title>Node7&#45;&gt;Node19</title>
<path fill="none" stroke="#9a32cd" stroke-dasharray="5,2" d="M284.5004,-280.4277C428.5791,-265.0931 885.6936,-216.3201 893,-214 909.8874,-208.6376 927.4126,-198.2296 939.0303,-190.5299"/>
<polygon fill="#9a32cd" stroke="#9a32cd" points="283.8572,-276.9763 274.2837,-281.5148 284.5979,-283.937 283.8572,-276.9763"/>
<text text-anchor="middle" x="593.5" y="-255" font-family="Helvetica,sans-Serif" font-size="10.00" fill="#000000"> packet_cache</text>
</g>
<!-- Node8 -->
<g id="node7" class="node">
<title>Node8</title>
<g id="a_node7"><a xlink:href="a01196.html" target="_top" xlink:title="Holds information for a dynamic (also called prepared) query.">
<polygon fill="#ffffff" stroke="#000000" points="727,-420.5 727,-439.5 799,-439.5 799,-420.5 727,-420.5"/>
<text text-anchor="middle" x="763" y="-427.5" font-family="Helvetica,sans-Serif" font-size="10.00" fill="#000000">tds_dynamic</text>
</a>
</g>
</g>
<!-- Node8&#45;&gt;Node2 -->
<g id="edge7" class="edge">
<title>Node8&#45;&gt;Node2</title>
<path fill="none" stroke="#9a32cd" stroke-dasharray="5,2" d="M727.4999,-442.7068C668.7379,-461.4525 549.1924,-489.7441 463,-445 437.7606,-431.8978 422.3566,-399.7487 415.954,-383.5939"/>
<polygon fill="#9a32cd" stroke="#9a32cd" points="728.6603,-446.0098 737.0698,-439.5653 726.4769,-439.359 728.6603,-446.0098"/>
<text text-anchor="middle" x="593.5" y="-471" font-family="Helvetica,sans-Serif" font-size="10.00" fill="#000000"> cur_dyn</text>
</g>
<!-- Node8&#45;&gt;Node8 -->
<g id="edge8" class="edge">
<title>Node8&#45;&gt;Node8</title>
<path fill="none" stroke="#9a32cd" stroke-dasharray="5,2" d="M747.5309,-449.7663C748.7459,-454.4965 753.9022,-458 763,-458 777.9297,-458 782.2453,-448.5653 775.9468,-439.7571"/>
<polygon fill="#9a32cd" stroke="#9a32cd" points="751.0034,-450.3092 750.0532,-439.7571 744.2156,-448.5986 751.0034,-450.3092"/>
<text text-anchor="middle" x="763" y="-461" font-family="Helvetica,sans-Serif" font-size="10.00" fill="#000000"> next</text>
</g>
<!-- Node8&#45;&gt;Node19 -->
<g id="edge23" class="edge">
<title>Node8&#45;&gt;Node19</title>
<path fill="none" stroke="#9a32cd" stroke-dasharray="5,2" d="M786.9669,-414.748C815.6932,-395.3799 863.6235,-359.4513 893,-318 923.4373,-275.0519 943.0165,-214.0713 949.8189,-190.6623"/>
<polygon fill="#9a32cd" stroke="#9a32cd" points="784.7716,-412.0037 778.3628,-420.4404 788.634,-417.8416 784.7716,-412.0037"/>
<text text-anchor="middle" x="861" y="-384" font-family="Helvetica,sans-Serif" font-size="10.00" fill="#000000"> dyns</text>
</g>
<!-- Node9&#45;&gt;Node2 -->
<g id="edge11" class="edge">
<title>Node9&#45;&gt;Node2</title>
<path fill="none" stroke="#9a32cd" stroke-dasharray="5,2" d="M543.3049,-399.808C518.9802,-396.0973 489.3888,-391.2511 463,-386 457.1668,-384.8392 450.9847,-383.4794 445.0214,-382.1003"/>
<polygon fill="#9a32cd" stroke="#9a32cd" points="542.9728,-403.2974 553.3827,-401.3266 544.0159,-396.3755 542.9728,-403.2974"/>
<text text-anchor="middle" x="495.5" y="-433" font-family="Helvetica,sans-Serif" font-size="10.00" fill="#000000"> param_info</text>
<text text-anchor="middle" x="495.5" y="-422" font-family="Helvetica,sans-Serif" font-size="10.00" fill="#000000">current_results</text>
<text text-anchor="middle" x="495.5" y="-411" font-family="Helvetica,sans-Serif" font-size="10.00" fill="#000000">res_info</text>
<text text-anchor="middle" x="495.5" y="-400" font-family="Helvetica,sans-Serif" font-size="10.00" fill="#000000">comp_info</text>
</g>
<!-- Node9&#45;&gt;Node8 -->
<g id="edge9" class="edge">
<title>Node9&#45;&gt;Node8</title>
<path fill="none" stroke="#9a32cd" stroke-dasharray="5,2" d="M643.6125,-413.7999C670.3399,-417.4266 702.6184,-421.8066 726.8702,-425.0974"/>
<polygon fill="#9a32cd" stroke="#9a32cd" points="644.049,-410.3272 633.6691,-412.4507 643.1077,-417.2636 644.049,-410.3272"/>
<text text-anchor="middle" x="678" y="-434" font-family="Helvetica,sans-Serif" font-size="10.00" fill="#000000"> res_info</text>
<text text-anchor="middle" x="678" y="-423" font-family="Helvetica,sans-Serif" font-size="10.00" fill="#000000">params</text>
</g>
<!-- Node17 -->
<g id="node9" class="node">
<title>Node17</title>
<g id="a_node9"><a xlink:href="a01188.html" target="_top" xlink:title="Holds informations about a cursor.">
<polygon fill="#ffffff" stroke="#000000" points="732,-336.5 732,-355.5 794,-355.5 794,-336.5 732,-336.5"/>
<text text-anchor="middle" x="763" y="-343.5" font-family="Helvetica,sans-Serif" font-size="10.00" fill="#000000">tds_cursor</text>
</a>
</g>
</g>
<!-- Node9&#45;&gt;Node17 -->
<g id="edge14" class="edge">
<title>Node9&#45;&gt;Node17</title>
<path fill="none" stroke="#9a32cd" stroke-dasharray="5,2" d="M634.1273,-394.3892C653.3061,-388.2488 676.4454,-380.5697 697,-373 711.754,-367.5665 728.1125,-360.8792 740.8524,-355.5192"/>
<polygon fill="#9a32cd" stroke="#9a32cd" points="632.9637,-391.0864 624.4938,-397.4512 635.0842,-397.7575 632.9637,-391.0864"/>
<text text-anchor="middle" x="678" y="-388" font-family="Helvetica,sans-Serif" font-size="10.00" fill="#000000"> res_info</text>
</g>
<!-- Node17&#45;&gt;Node2 -->
<g id="edge12" class="edge">
<title>Node17&#45;&gt;Node2</title>
<path fill="none" stroke="#9a32cd" stroke-dasharray="5,2" d="M721.9609,-340.3991C678.1799,-335.3761 606.8942,-329.9336 546,-338 508.2816,-342.9964 466.0939,-355.6059 439.43,-364.4861"/>
<polygon fill="#9a32cd" stroke="#9a32cd" points="721.596,-343.8803 731.9407,-341.5919 722.4268,-336.9298 721.596,-343.8803"/>
<text text-anchor="middle" x="593.5" y="-341" font-family="Helvetica,sans-Serif" font-size="10.00" fill="#000000"> cur_cursor</text>
</g>
<!-- Node17&#45;&gt;Node17 -->
<g id="edge15" class="edge">
<title>Node17&#45;&gt;Node17</title>
<path fill="none" stroke="#9a32cd" stroke-dasharray="5,2" d="M747.5309,-365.7663C748.7459,-370.4965 753.9022,-374 763,-374 777.9297,-374 782.2453,-364.5653 775.9468,-355.7571"/>
<polygon fill="#9a32cd" stroke="#9a32cd" points="751.0034,-366.3092 750.0532,-355.7571 744.2156,-364.5986 751.0034,-366.3092"/>
<text text-anchor="middle" x="763" y="-377" font-family="Helvetica,sans-Serif" font-size="10.00" fill="#000000"> next</text>
</g>
<!-- Node17&#45;&gt;Node19 -->
<g id="edge25" class="edge">
<title>Node17&#45;&gt;Node19</title>
<path fill="none" stroke="#9a32cd" stroke-dasharray="5,2" d="M788.8163,-331.2643C816.2958,-314.8919 860.2447,-286.6889 893,-256 915.196,-235.2042 936.0633,-205.8148 946.1593,-190.7446"/>
<polygon fill="#9a32cd" stroke="#9a32cd" points="787.0144,-328.2635 780.1685,-336.3496 790.5627,-334.2976 787.0144,-328.2635"/>
<text text-anchor="middle" x="861" y="-306" font-family="Helvetica,sans-Serif" font-size="10.00" fill="#000000"> cursors</text>
</g>
<!-- Node18 -->
<g id="node10" class="node">
<title>Node18</title>
<g id="a_node10"><a xlink:href="a01184.html" target="_top" xlink:title=" ">
<polygon fill="#ffffff" stroke="#000000" points="546,-358.5 546,-377.5 641,-377.5 641,-358.5 546,-358.5"/>
<text text-anchor="middle" x="593.5" y="-365.5" font-family="Helvetica,sans-Serif" font-size="10.00" fill="#000000">tds_cursor_status</text>
</a>
</g>
</g>
<!-- Node18&#45;&gt;Node17 -->
<g id="edge13" class="edge">
<title>Node18&#45;&gt;Node17</title>
<path fill="none" stroke="#9a32cd" stroke-dasharray="5,2" d="M651.3024,-360.4976C678.3402,-356.9883 709.4624,-352.9488 731.9766,-350.0266"/>
<polygon fill="#9a32cd" stroke="#9a32cd" points="650.6326,-357.0551 641.1663,-361.8132 651.5336,-363.9969 650.6326,-357.0551"/>
<text text-anchor="middle" x="678" y="-361" font-family="Helvetica,sans-Serif" font-size="10.00" fill="#000000"> status</text>
</g>
<!-- Node19&#45;&gt;Node2 -->
<g id="edge16" class="edge">
<title>Node19&#45;&gt;Node2</title>
<path fill="none" stroke="#9a32cd" stroke-dasharray="5,2" d="M951.1728,-200.9305C946.0121,-259.551 921.6173,-430.2637 811,-478 668.9447,-539.3032 588.5022,-559.4819 463,-469 433.3033,-447.5899 419.4775,-403.2768 414.6279,-383.6811"/>
<polygon fill="#9a32cd" stroke="#9a32cd" points="954.677,-201.0134 951.9684,-190.7706 947.6983,-200.4669 954.677,-201.0134"/>
<text text-anchor="middle" x="678" y="-530" font-family="Helvetica,sans-Serif" font-size="10.00" fill="#000000"> conn</text>
</g>
<!-- Node20 -->
<g id="node12" class="node">
<title>Node20</title>
<g id="a_node12"><a xlink:href="a01216.html" target="_top" xlink:title=" ">
<polygon fill="#ffffff" stroke="#000000" points="718.5,-152.5 718.5,-171.5 807.5,-171.5 807.5,-152.5 718.5,-152.5"/>
<text text-anchor="middle" x="763" y="-159.5" font-family="Helvetica,sans-Serif" font-size="10.00" fill="#000000">tds_poll_wakeup</text>
</a>
</g>
</g>
<!-- Node20&#45;&gt;Node19 -->
<g id="edge18" class="edge">
<title>Node20&#45;&gt;Node19</title>
<path fill="none" stroke="#9a32cd" stroke-dasharray="5,2" d="M817.5506,-167.4449C840.8026,-169.7684 868.2293,-172.5125 893,-175 898.785,-175.5809 904.8862,-176.1948 910.8885,-176.7994"/>
<polygon fill="#9a32cd" stroke="#9a32cd" points="817.8228,-163.9547 807.5244,-166.4432 817.1269,-170.9201 817.8228,-163.9547"/>
<text text-anchor="middle" x="861" y="-178" font-family="Helvetica,sans-Serif" font-size="10.00" fill="#000000"> wakeup</text>
</g>
<!-- Node21 -->
<g id="node13" class="node">
<title>Node21</title>
<g id="a_node13"><a xlink:href="a01192.html" target="_top" xlink:title="Current environment as reported by the server.">
<polygon fill="#ffffff" stroke="#000000" points="737.5,-114.5 737.5,-133.5 788.5,-133.5 788.5,-114.5 737.5,-114.5"/>
<text text-anchor="middle" x="763" y="-121.5" font-family="Helvetica,sans-Serif" font-size="10.00" fill="#000000">tds_env</text>
</a>
</g>
</g>
<!-- Node21&#45;&gt;Node19 -->
<g id="edge19" class="edge">
<title>Node21&#45;&gt;Node19</title>
<path fill="none" stroke="#9a32cd" stroke-dasharray="5,2" d="M798.8216,-129.7933C825.2633,-134.5955 861.9028,-142.3601 893,-153 907.5823,-157.9893 923.3313,-165.503 934.9613,-171.4912"/>
<polygon fill="#9a32cd" stroke="#9a32cd" points="799.3235,-126.3279 788.8676,-128.0377 798.1076,-133.2215 799.3235,-126.3279"/>
<text text-anchor="middle" x="861" y="-156" font-family="Helvetica,sans-Serif" font-size="10.00" fill="#000000"> env</text>
</g>
<!-- Node22 -->
<g id="node14" class="node">
<title>Node22</title>
<g id="a_node14"><a xlink:href="a01204.html" target="_top" xlink:title=" ">
<polygon fill="#ffffff" stroke="#ff0000" points="729,-76.5 729,-95.5 797,-95.5 797,-76.5 729,-76.5"/>
<text text-anchor="middle" x="763" y="-83.5" font-family="Helvetica,sans-Serif" font-size="10.00" fill="#000000">tds_context</text>
</a>
</g>
</g>
<!-- Node22&#45;&gt;Node19 -->
<g id="edge20" class="edge">
<title>Node22&#45;&gt;Node19</title>
<path fill="none" stroke="#9a32cd" stroke-dasharray="5,2" d="M807.295,-91.4967C833.5616,-96.1941 866.7417,-104.7265 893,-120 915.7626,-133.2401 935.6368,-157.5592 945.6345,-171.1495"/>
<polygon fill="#9a32cd" stroke="#9a32cd" points="807.6716,-88.0113 797.2327,-89.822 806.5223,-94.9163 807.6716,-88.0113"/>
<text text-anchor="middle" x="861" y="-123" font-family="Helvetica,sans-Serif" font-size="10.00" fill="#000000"> tds_ctx</text>
</g>
<!-- Node24 -->
<g id="node15" class="node">
<title>Node24</title>
<g id="a_node15"><a xlink:href="a01208.html" target="_top" xlink:title=" ">
<polygon fill="#ffffff" stroke="#000000" points="715,-38.5 715,-57.5 811,-57.5 811,-38.5 715,-38.5"/>
<text text-anchor="middle" x="763" y="-45.5" font-family="Helvetica,sans-Serif" font-size="10.00" fill="#000000">tds_authentication</text>
</a>
</g>
</g>
<!-- Node24&#45;&gt;Node19 -->
<g id="edge21" class="edge">
<title>Node24&#45;&gt;Node19</title>
<path fill="none" stroke="#9a32cd" stroke-dasharray="5,2" d="M821.144,-52.9226C845.251,-57.3257 872.3474,-65.5805 893,-81 924.8899,-104.8093 942.9339,-151.1925 949.5571,-171.3075"/>
<polygon fill="#9a32cd" stroke="#9a32cd" points="821.4577,-49.4274 811.0229,-51.2617 820.3241,-56.335 821.4577,-49.4274"/>
<text text-anchor="middle" x="861" y="-84" font-family="Helvetica,sans-Serif" font-size="10.00" fill="#000000"> authentication</text>
</g>
<!-- Node11 -->
<g id="node16" class="node">
<title>Node11</title>
<g id="a_node16"><a xlink:href="a00980.html" target="_top" xlink:title=" ">
<polygon fill="#ffffff" stroke="#ff0000" points="728.5,-.5 728.5,-19.5 797.5,-19.5 797.5,-.5 728.5,-.5"/>
<text text-anchor="middle" x="763" y="-7.5" font-family="Helvetica,sans-Serif" font-size="10.00" fill="#000000">tdsiconvinfo</text>
</a>
</g>
</g>
<!-- Node11&#45;&gt;Node19 -->
<g id="edge24" class="edge">
<title>Node11&#45;&gt;Node19</title>
<path fill="none" stroke="#9a32cd" stroke-dasharray="5,2" d="M807.8589,-10.3908C835.2494,-12.8505 869.4196,-20.1732 893,-40 935.0958,-75.395 948.0173,-145.7388 951.4216,-171.3706"/>
<polygon fill="#9a32cd" stroke="#9a32cd" points="807.9525,-6.8887 797.7293,-9.6703 807.4558,-13.8711 807.9525,-6.8887"/>
<text text-anchor="middle" x="861" y="-43" font-family="Helvetica,sans-Serif" font-size="10.00" fill="#000000"> char_convs</text>
</g>
</g>
</svg>
