<?xml version="1.0" encoding="UTF-8" standalone="no"?>
<!DOCTYPE svg PUBLIC "-//W3C//DTD SVG 1.1//EN"
 "http://www.w3.org/Graphics/SVG/1.1/DTD/svg11.dtd">
<!-- Generated by graphviz version 2.40.1 (20161225.0304)
 -->
<!-- Title: tds_connection Pages: 1 -->
<svg width="948pt" height="303pt"
 viewBox="0.00 0.00 948.00 303.00" xmlns="http://www.w3.org/2000/svg" xmlns:xlink="http://www.w3.org/1999/xlink">
<g id="graph0" class="graph" transform="scale(1 1) rotate(0) translate(4 299)">
<title>tds_connection</title>
<polygon fill="#ffffff" stroke="transparent" points="-4,4 -4,-299 944,-299 944,4 -4,4"/>
<!-- Node1 -->
<g id="node1" class="node">
<title>Node1</title>
<g id="a_node1"><a xlink:title=" ">
<polygon fill="#bfbfbf" stroke="#000000" points="362,-125.5 362,-144.5 445,-144.5 445,-125.5 362,-125.5"/>
<text text-anchor="middle" x="403.5" y="-132.5" font-family="Helvetica,sans-Serif" font-size="10.00" fill="#000000">tds_connection</text>
</a>
</g>
</g>
<!-- Node12 -->
<g id="node12" class="node">
<title>Node12</title>
<g id="a_node12"><a xlink:href="a01224.html" target="_top" xlink:title="Information for a server connection.">
<polygon fill="#ffffff" stroke="#ff0000" points="548,-125.5 548,-144.5 613,-144.5 613,-125.5 548,-125.5"/>
<text text-anchor="middle" x="580.5" y="-132.5" font-family="Helvetica,sans-Serif" font-size="10.00" fill="#000000">tds_socket</text>
</a>
</g>
</g>
<!-- Node1&#45;&gt;Node12 -->
<g id="edge20" class="edge">
<title>Node1&#45;&gt;Node12</title>
<path fill="none" stroke="#9a32cd" stroke-dasharray="5,2" d="M455.7125,-135C485.6046,-135 522.1767,-135 547.9791,-135"/>
<polygon fill="#9a32cd" stroke="#9a32cd" points="455.4466,-131.5001 445.4465,-135 455.4465,-138.5001 455.4466,-131.5001"/>
<text text-anchor="middle" x="496.5" y="-138" font-family="Helvetica,sans-Serif" font-size="10.00" fill="#000000"> conn</text>
</g>
<!-- Node2 -->
<g id="node2" class="node">
<title>Node2</title>
<g id="a_node2"><a xlink:href="a01128.html" target="_top" xlink:title=" ">
<polygon fill="#ffffff" stroke="#000000" points="172,-201.5 172,-220.5 256,-220.5 256,-201.5 172,-201.5"/>
<text text-anchor="middle" x="214" y="-208.5" font-family="Helvetica,sans-Serif" font-size="10.00" fill="#000000">tds_capabilities</text>
</a>
</g>
</g>
<!-- Node2&#45;&gt;Node1 -->
<g id="edge1" class="edge">
<title>Node2&#45;&gt;Node1</title>
<path fill="none" stroke="#9a32cd" stroke-dasharray="5,2" d="M265.892,-200.0617C290.2228,-193.9764 319.2401,-185.3178 344,-174 361.5238,-165.9898 379.7851,-153.2599 391.3778,-144.5369"/>
<polygon fill="#9a32cd" stroke="#9a32cd" points="265.0187,-196.6719 256.1256,-202.4306 266.6688,-203.4747 265.0187,-196.6719"/>
<text text-anchor="middle" x="312" y="-198" font-family="Helvetica,sans-Serif" font-size="10.00" fill="#000000"> capabilities</text>
</g>
<!-- Node3 -->
<g id="node3" class="node">
<title>Node3</title>
<g id="a_node3"><a xlink:href="a01124.html" target="_top" xlink:title=" ">
<polygon fill="#ffffff" stroke="#000000" points="0,-201.5 0,-220.5 101,-220.5 101,-201.5 0,-201.5"/>
<text text-anchor="middle" x="50.5" y="-208.5" font-family="Helvetica,sans-Serif" font-size="10.00" fill="#000000">tds_capability_type</text>
</a>
</g>
</g>
<!-- Node3&#45;&gt;Node2 -->
<g id="edge2" class="edge">
<title>Node3&#45;&gt;Node2</title>
<path fill="none" stroke="#9a32cd" stroke-dasharray="5,2" d="M111.38,-211C131.5543,-211 153.5459,-211 171.9777,-211"/>
<polygon fill="#9a32cd" stroke="#9a32cd" points="111.3362,-207.5001 101.3362,-211 111.3361,-214.5001 111.3362,-207.5001"/>
<text text-anchor="middle" x="133.5" y="-214" font-family="Helvetica,sans-Serif" font-size="10.00" fill="#000000"> types</text>
</g>
<!-- Node4 -->
<g id="node4" class="node">
<title>Node4</title>
<g id="a_node4"><a xlink:href="a01216.html" target="_top" xlink:title=" ">
<polygon fill="#ffffff" stroke="#000000" points="169.5,-163.5 169.5,-182.5 258.5,-182.5 258.5,-163.5 169.5,-163.5"/>
<text text-anchor="middle" x="214" y="-170.5" font-family="Helvetica,sans-Serif" font-size="10.00" fill="#000000">tds_poll_wakeup</text>
</a>
</g>
</g>
<!-- Node4&#45;&gt;Node1 -->
<g id="edge3" class="edge">
<title>Node4&#45;&gt;Node1</title>
<path fill="none" stroke="#9a32cd" stroke-dasharray="5,2" d="M268.5535,-162.1097C291.806,-157.4626 319.2323,-151.9744 344,-147 349.7857,-145.838 355.8873,-144.6102 361.8897,-143.4009"/>
<polygon fill="#9a32cd" stroke="#9a32cd" points="267.6474,-158.7215 258.527,-164.1131 269.019,-165.5858 267.6474,-158.7215"/>
<text text-anchor="middle" x="312" y="-162" font-family="Helvetica,sans-Serif" font-size="10.00" fill="#000000"> wakeup</text>
</g>
<!-- Node5 -->
<g id="node5" class="node">
<title>Node5</title>
<g id="a_node5"><a xlink:href="a01192.html" target="_top" xlink:title="Current environment as reported by the server.">
<polygon fill="#ffffff" stroke="#000000" points="188.5,-125.5 188.5,-144.5 239.5,-144.5 239.5,-125.5 188.5,-125.5"/>
<text text-anchor="middle" x="214" y="-132.5" font-family="Helvetica,sans-Serif" font-size="10.00" fill="#000000">tds_env</text>
</a>
</g>
</g>
<!-- Node5&#45;&gt;Node1 -->
<g id="edge4" class="edge">
<title>Node5&#45;&gt;Node1</title>
<path fill="none" stroke="#9a32cd" stroke-dasharray="5,2" d="M249.7451,-135C281.5742,-135 328.161,-135 361.7045,-135"/>
<polygon fill="#9a32cd" stroke="#9a32cd" points="249.5568,-131.5001 239.5568,-135 249.5568,-138.5001 249.5568,-131.5001"/>
<text text-anchor="middle" x="312" y="-138" font-family="Helvetica,sans-Serif" font-size="10.00" fill="#000000"> env</text>
</g>
<!-- Node6 -->
<g id="node6" class="node">
<title>Node6</title>
<g id="a_node6"><a xlink:href="a01204.html" target="_top" xlink:title=" ">
<polygon fill="#ffffff" stroke="#000000" points="180,-87.5 180,-106.5 248,-106.5 248,-87.5 180,-87.5"/>
<text text-anchor="middle" x="214" y="-94.5" font-family="Helvetica,sans-Serif" font-size="10.00" fill="#000000">tds_context</text>
</a>
</g>
</g>
<!-- Node6&#45;&gt;Node1 -->
<g id="edge5" class="edge">
<title>Node6&#45;&gt;Node1</title>
<path fill="none" stroke="#9a32cd" stroke-dasharray="5,2" d="M258.0788,-103.9898C283.3199,-108.1944 315.537,-113.9026 344,-120 351.6042,-121.629 359.7098,-123.5487 367.4126,-125.4608"/>
<polygon fill="#9a32cd" stroke="#9a32cd" points="258.5072,-100.5133 248.0711,-102.3405 257.3688,-107.4201 258.5072,-100.5133"/>
<text text-anchor="middle" x="312" y="-123" font-family="Helvetica,sans-Serif" font-size="10.00" fill="#000000"> tds_ctx</text>
</g>
<!-- Node7 -->
<g id="node7" class="node">
<title>Node7</title>
<g id="a_node7"><a xlink:href="a01140.html" target="_top" xlink:title=" ">
<polygon fill="#ffffff" stroke="#000000" points="20,-87.5 20,-106.5 81,-106.5 81,-87.5 20,-87.5"/>
<text text-anchor="middle" x="50.5" y="-94.5" font-family="Helvetica,sans-Serif" font-size="10.00" fill="#000000">tds_locale</text>
</a>
</g>
</g>
<!-- Node7&#45;&gt;Node6 -->
<g id="edge6" class="edge">
<title>Node7&#45;&gt;Node6</title>
<path fill="none" stroke="#9a32cd" stroke-dasharray="5,2" d="M91.2884,-97C118.623,-97 154.1963,-97 179.9986,-97"/>
<polygon fill="#9a32cd" stroke="#9a32cd" points="91.2531,-93.5001 81.2531,-97 91.2531,-100.5001 91.2531,-93.5001"/>
<text text-anchor="middle" x="133.5" y="-100" font-family="Helvetica,sans-Serif" font-size="10.00" fill="#000000"> locale</text>
</g>
<!-- Node8 -->
<g id="node8" class="node">
<title>Node8</title>
<g id="a_node8"><a xlink:href="a01208.html" target="_top" xlink:title=" ">
<polygon fill="#ffffff" stroke="#000000" points="166,-49.5 166,-68.5 262,-68.5 262,-49.5 166,-49.5"/>
<text text-anchor="middle" x="214" y="-56.5" font-family="Helvetica,sans-Serif" font-size="10.00" fill="#000000">tds_authentication</text>
</a>
</g>
</g>
<!-- Node8&#45;&gt;Node1 -->
<g id="edge7" class="edge">
<title>Node8&#45;&gt;Node1</title>
<path fill="none" stroke="#9a32cd" stroke-dasharray="5,2" d="M272.1019,-68.8454C295.158,-73.996 321.4896,-81.4796 344,-92 362.705,-100.7419 381.5634,-115.6393 392.8905,-125.4009"/>
<polygon fill="#9a32cd" stroke="#9a32cd" points="272.6149,-65.3761 262.1044,-66.7098 271.1526,-72.2216 272.6149,-65.3761"/>
<text text-anchor="middle" x="312" y="-95" font-family="Helvetica,sans-Serif" font-size="10.00" fill="#000000"> authentication</text>
</g>
<!-- Node9 -->
<g id="node9" class="node">
<title>Node9</title>
<g id="a_node9"><a xlink:href="a01212.html" target="_top" xlink:title=" ">
<polygon fill="#ffffff" stroke="#000000" points="181.5,-246.5 181.5,-265.5 246.5,-265.5 246.5,-246.5 181.5,-246.5"/>
<text text-anchor="middle" x="214" y="-253.5" font-family="Helvetica,sans-Serif" font-size="10.00" fill="#000000">tds_packet</text>
</a>
</g>
</g>
<!-- Node9&#45;&gt;Node1 -->
<g id="edge8" class="edge">
<title>Node9&#45;&gt;Node1</title>
<path fill="none" stroke="#9a32cd" stroke-dasharray="5,2" d="M256.3752,-243.788C288.5419,-234.0089 329.6098,-220.2758 344,-210 369.1586,-192.0347 389.1682,-160.5832 398.23,-144.7265"/>
<polygon fill="#9a32cd" stroke="#9a32cd" points="255.2886,-240.4598 246.7175,-246.6877 257.3017,-247.1641 255.2886,-240.4598"/>
<text text-anchor="middle" x="312" y="-239" font-family="Helvetica,sans-Serif" font-size="10.00" fill="#000000"> packet_cache</text>
</g>
<!-- Node9&#45;&gt;Node9 -->
<g id="edge9" class="edge">
<title>Node9&#45;&gt;Node9</title>
<path fill="none" stroke="#9a32cd" stroke-dasharray="5,2" d="M199.2675,-275.7663C200.4246,-280.4965 205.3354,-284 214,-284 228.2188,-284 232.3289,-274.5653 226.3303,-265.7571"/>
<polygon fill="#9a32cd" stroke="#9a32cd" points="202.7393,-276.2978 201.6697,-265.7571 195.9326,-274.6641 202.7393,-276.2978"/>
<text text-anchor="middle" x="214" y="-287" font-family="Helvetica,sans-Serif" font-size="10.00" fill="#000000"> next</text>
</g>
<!-- Node9&#45;&gt;Node12 -->
<g id="edge14" class="edge">
<title>Node9&#45;&gt;Node12</title>
<path fill="none" stroke="#9a32cd" stroke-dasharray="5,2" d="M256.7483,-257.8955C282.4228,-258.0045 315.5244,-256.316 344,-249 433.838,-225.9188 530.2922,-167.4964 566.0751,-144.5048"/>
<polygon fill="#9a32cd" stroke="#9a32cd" points="256.6371,-254.3938 246.5906,-257.7581 256.5424,-261.3931 256.6371,-254.3938"/>
<text text-anchor="middle" x="403.5" y="-268" font-family="Helvetica,sans-Serif" font-size="10.00" fill="#000000"> frozen_packets</text>
<text text-anchor="middle" x="403.5" y="-257" font-family="Helvetica,sans-Serif" font-size="10.00" fill="#000000">recv_packet</text>
<text text-anchor="middle" x="403.5" y="-246" font-family="Helvetica,sans-Serif" font-size="10.00" fill="#000000">send_packet</text>
</g>
<!-- Node10 -->
<g id="node10" class="node">
<title>Node10</title>
<g id="a_node10"><a xlink:href="a01196.html" target="_top" xlink:title="Holds information for a dynamic (also called prepared) query.">
<polygon fill="#ffffff" stroke="#000000" points="868,-58.5 868,-77.5 940,-77.5 940,-58.5 868,-58.5"/>
<text text-anchor="middle" x="904" y="-65.5" font-family="Helvetica,sans-Serif" font-size="10.00" fill="#000000">tds_dynamic</text>
</a>
</g>
</g>
<!-- Node10&#45;&gt;Node1 -->
<g id="edge10" class="edge">
<title>Node10&#45;&gt;Node1</title>
<path fill="none" stroke="#9a32cd" stroke-dasharray="5,2" d="M857.7534,-57.9502C855.1381,-57.5784 852.5405,-57.2561 850,-57 833.1963,-55.3059 828.8888,-56.9533 812,-57 731.5546,-57.2222 710.3406,-44.7119 631,-58 552.0406,-71.2243 463.5515,-107.9246 424.242,-125.4483"/>
<polygon fill="#9a32cd" stroke="#9a32cd" points="857.4116,-61.4406 867.8444,-59.595 858.5377,-54.5318 857.4116,-61.4406"/>
<text text-anchor="middle" x="663.5" y="-61" font-family="Helvetica,sans-Serif" font-size="10.00" fill="#000000"> dyns</text>
</g>
<!-- Node10&#45;&gt;Node10 -->
<g id="edge11" class="edge">
<title>Node10&#45;&gt;Node10</title>
<path fill="none" stroke="#9a32cd" stroke-dasharray="5,2" d="M890.7408,-87.7663C891.7822,-92.4965 896.2019,-96 904,-96 916.7969,-96 920.496,-86.5653 915.0973,-77.7571"/>
<polygon fill="#9a32cd" stroke="#9a32cd" points="894.2125,-88.2706 892.9027,-77.7571 887.3703,-86.7927 894.2125,-88.2706"/>
<text text-anchor="middle" x="904" y="-99" font-family="Helvetica,sans-Serif" font-size="10.00" fill="#000000"> next</text>
</g>
<!-- Node10&#45;&gt;Node12 -->
<g id="edge15" class="edge">
<title>Node10&#45;&gt;Node12</title>
<path fill="none" stroke="#9a32cd" stroke-dasharray="5,2" d="M857.8916,-62.912C801.5039,-58.7219 704.5032,-58.2074 631,-93 614.3028,-100.9036 598.5152,-115.6232 589.1724,-125.3672"/>
<polygon fill="#9a32cd" stroke="#9a32cd" points="857.6819,-66.4064 867.9329,-63.7295 858.2499,-59.4295 857.6819,-66.4064"/>
<text text-anchor="middle" x="754" y="-71" font-family="Helvetica,sans-Serif" font-size="10.00" fill="#000000"> cur_dyn</text>
</g>
<!-- Node11 -->
<g id="node11" class="node">
<title>Node11</title>
<g id="a_node11"><a xlink:href="a01172.html" target="_top" xlink:title="Hold information for any results.">
<polygon fill="#ffffff" stroke="#000000" points="714,-97.5 714,-116.5 794,-116.5 794,-97.5 714,-97.5"/>
<text text-anchor="middle" x="754" y="-104.5" font-family="Helvetica,sans-Serif" font-size="10.00" fill="#000000">tds_result_info</text>
</a>
</g>
</g>
<!-- Node11&#45;&gt;Node10 -->
<g id="edge12" class="edge">
<title>Node11&#45;&gt;Node10</title>
<path fill="none" stroke="#9a32cd" stroke-dasharray="5,2" d="M800.3899,-94.9386C822.1415,-89.2832 847.6698,-82.6459 867.9438,-77.3746"/>
<polygon fill="#9a32cd" stroke="#9a32cd" points="799.4916,-91.5557 790.6941,-97.4595 801.2531,-98.3305 799.4916,-91.5557"/>
<text text-anchor="middle" x="831" y="-105" font-family="Helvetica,sans-Serif" font-size="10.00" fill="#000000"> res_info</text>
<text text-anchor="middle" x="831" y="-94" font-family="Helvetica,sans-Serif" font-size="10.00" fill="#000000">params</text>
</g>
<!-- Node11&#45;&gt;Node12 -->
<g id="edge16" class="edge">
<title>Node11&#45;&gt;Node12</title>
<path fill="none" stroke="#9a32cd" stroke-dasharray="5,2" d="M703.8695,-115.0902C674.6682,-119.8028 638.6863,-125.6097 613.134,-129.7334"/>
<polygon fill="#9a32cd" stroke="#9a32cd" points="704.5728,-118.5221 713.8874,-113.4735 703.4575,-111.6115 704.5728,-118.5221"/>
<text text-anchor="middle" x="663.5" y="-162" font-family="Helvetica,sans-Serif" font-size="10.00" fill="#000000"> param_info</text>
<text text-anchor="middle" x="663.5" y="-151" font-family="Helvetica,sans-Serif" font-size="10.00" fill="#000000">current_results</text>
<text text-anchor="middle" x="663.5" y="-140" font-family="Helvetica,sans-Serif" font-size="10.00" fill="#000000">res_info</text>
<text text-anchor="middle" x="663.5" y="-129" font-family="Helvetica,sans-Serif" font-size="10.00" fill="#000000">comp_info</text>
</g>
<!-- Node15 -->
<g id="node13" class="node">
<title>Node15</title>
<g id="a_node13"><a xlink:href="a01188.html" target="_top" xlink:title="Holds informations about a cursor.">
<polygon fill="#ffffff" stroke="#ff0000" points="873,-184.5 873,-203.5 935,-203.5 935,-184.5 873,-184.5"/>
<text text-anchor="middle" x="904" y="-191.5" font-family="Helvetica,sans-Serif" font-size="10.00" fill="#000000">tds_cursor</text>
</a>
</g>
</g>
<!-- Node11&#45;&gt;Node15 -->
<g id="edge18" class="edge">
<title>Node11&#45;&gt;Node15</title>
<path fill="none" stroke="#9a32cd" stroke-dasharray="5,2" d="M779.4797,-121.7782C810.2488,-139.6243 861.1229,-169.1313 887.2998,-184.3139"/>
<polygon fill="#9a32cd" stroke="#9a32cd" points="781.0321,-118.6325 770.6257,-116.6429 777.52,-124.6878 781.0321,-118.6325"/>
<text text-anchor="middle" x="831" y="-163" font-family="Helvetica,sans-Serif" font-size="10.00" fill="#000000"> res_info</text>
</g>
<!-- Node12&#45;&gt;Node11 -->
<g id="edge13" class="edge">
<title>Node12&#45;&gt;Node11</title>
<path fill="none" stroke="#9a32cd" stroke-dasharray="5,2" d="M599.3137,-118.9488C608.2911,-112.324 619.557,-105.4073 631,-102 657.8328,-94.0102 689.4122,-95.5067 713.854,-98.8731"/>
<polygon fill="#9a32cd" stroke="#9a32cd" points="596.8824,-116.4078 591.1775,-125.3356 601.2046,-121.9141 596.8824,-116.4078"/>
<text text-anchor="middle" x="663.5" y="-105" font-family="Helvetica,sans-Serif" font-size="10.00" fill="#000000"> attached_to</text>
</g>
<!-- Node15&#45;&gt;Node1 -->
<g id="edge24" class="edge">
<title>Node15&#45;&gt;Node1</title>
<path fill="none" stroke="#9a32cd" stroke-dasharray="5,2" d="M872.3516,-206.9242C865.119,-209.3728 857.3849,-211.6026 850,-213 825.5295,-217.6304 818.9008,-214.5555 794,-215 758.4501,-215.6346 749.3307,-218.9922 714,-215 606.4129,-202.843 483.0735,-162.9795 430.022,-144.5279"/>
<polygon fill="#9a32cd" stroke="#9a32cd" points="873.6046,-210.1931 881.8236,-203.5074 871.2292,-203.6084 873.6046,-210.1931"/>
<text text-anchor="middle" x="663.5" y="-215" font-family="Helvetica,sans-Serif" font-size="10.00" fill="#000000"> cursors</text>
</g>
<!-- Node15&#45;&gt;Node12 -->
<g id="edge17" class="edge">
<title>Node15&#45;&gt;Node12</title>
<path fill="none" stroke="#9a32cd" stroke-dasharray="5,2" d="M862.8274,-198.1705C807.9625,-202.1458 708.7678,-203.7496 631,-174 614.4459,-167.6673 598.8579,-154.0161 589.4948,-144.6683"/>
<polygon fill="#9a32cd" stroke="#9a32cd" points="863.171,-201.6544 872.8653,-197.3801 862.6214,-194.676 863.171,-201.6544"/>
<text text-anchor="middle" x="754" y="-203" font-family="Helvetica,sans-Serif" font-size="10.00" fill="#000000"> cur_cursor</text>
</g>
<!-- Node15&#45;&gt;Node15 -->
<g id="edge19" class="edge">
<title>Node15&#45;&gt;Node15</title>
<path fill="none" stroke="#9a32cd" stroke-dasharray="5,2" d="M890.7408,-213.7663C891.7822,-218.4965 896.2019,-222 904,-222 916.7969,-222 920.496,-212.5653 915.0973,-203.7571"/>
<polygon fill="#9a32cd" stroke="#9a32cd" points="894.2125,-214.2706 892.9027,-203.7571 887.3703,-212.7927 894.2125,-214.2706"/>
<text text-anchor="middle" x="904" y="-225" font-family="Helvetica,sans-Serif" font-size="10.00" fill="#000000"> next</text>
</g>
<!-- Node17 -->
<g id="node14" class="node">
<title>Node17</title>
<g id="a_node14"><a xlink:href="a01164.html" target="_top" xlink:title="Metadata about columns in regular and compute rows.">
<polygon fill="#ffffff" stroke="#ff0000" points="463,-.5 463,-19.5 530,-19.5 530,-.5 463,-.5"/>
<text text-anchor="middle" x="496.5" y="-7.5" font-family="Helvetica,sans-Serif" font-size="10.00" fill="#000000">tds_column</text>
</a>
</g>
</g>
<!-- Node17&#45;&gt;Node11 -->
<g id="edge21" class="edge">
<title>Node17&#45;&gt;Node11</title>
<path fill="none" stroke="#9a32cd" stroke-dasharray="5,2" d="M531.7126,-23.2646C584.3175,-43.0808 682.1799,-79.9455 728.4722,-97.3837"/>
<polygon fill="#9a32cd" stroke="#9a32cd" points="532.7234,-19.9053 522.1315,-19.6554 530.2557,-26.4559 532.7234,-19.9053"/>
<text text-anchor="middle" x="580.5" y="-56" font-family="Helvetica,sans-Serif" font-size="10.00" fill="#000000"> columns</text>
</g>
<!-- Node18 -->
<g id="node15" class="node">
<title>Node18</title>
<g id="a_node15"><a xlink:href="a00980.html" target="_top" xlink:title=" ">
<polygon fill="#ffffff" stroke="#ff0000" points="179.5,-.5 179.5,-19.5 248.5,-19.5 248.5,-.5 179.5,-.5"/>
<text text-anchor="middle" x="214" y="-7.5" font-family="Helvetica,sans-Serif" font-size="10.00" fill="#000000">tdsiconvinfo</text>
</a>
</g>
</g>
<!-- Node18&#45;&gt;Node1 -->
<g id="edge23" class="edge">
<title>Node18&#45;&gt;Node1</title>
<path fill="none" stroke="#9a32cd" stroke-dasharray="5,2" d="M258.4426,-19.3326C285.0858,-26.4873 318.6073,-38.3678 344,-57 369.8156,-75.9426 389.8033,-109.1292 398.6003,-125.423"/>
<polygon fill="#9a32cd" stroke="#9a32cd" points="259.1547,-15.9022 248.5995,-16.8177 257.4218,-22.6843 259.1547,-15.9022"/>
<text text-anchor="middle" x="312" y="-60" font-family="Helvetica,sans-Serif" font-size="10.00" fill="#000000"> char_convs</text>
</g>
<!-- Node18&#45;&gt;Node17 -->
<g id="edge22" class="edge">
<title>Node18&#45;&gt;Node17</title>
<path fill="none" stroke="#9a32cd" stroke-dasharray="5,2" d="M258.7524,-10C315.4977,-10 412.0522,-10 462.8969,-10"/>
<polygon fill="#9a32cd" stroke="#9a32cd" points="258.6401,-6.5001 248.64,-10 258.64,-13.5001 258.6401,-6.5001"/>
<text text-anchor="middle" x="312" y="-13" font-family="Helvetica,sans-Serif" font-size="10.00" fill="#000000"> char_conv</text>
</g>
</g>
</svg>
