<?xml version="1.0" encoding="UTF-8" standalone="no"?>
<!DOCTYPE svg PUBLIC "-//W3C//DTD SVG 1.1//EN"
 "http://www.w3.org/Graphics/SVG/1.1/DTD/svg11.dtd">
<!-- Generated by graphviz version 2.40.1 (20161225.0304)
 -->
<!-- Title: src/dblib/bcp.c Pages: 1 -->
<svg width="1603pt" height="252pt"
 viewBox="0.00 0.00 1603.00 252.00" xmlns="http://www.w3.org/2000/svg" xmlns:xlink="http://www.w3.org/1999/xlink">
<g id="graph0" class="graph" transform="scale(1 1) rotate(0) translate(4 248)">
<title>src/dblib/bcp.c</title>
<polygon fill="#ffffff" stroke="transparent" points="-4,4 -4,-248 1599,-248 1599,4 -4,4"/>
<!-- Node1 -->
<g id="node1" class="node">
<title>Node1</title>
<g id="a_node1"><a xlink:title=" ">
<polygon fill="#bfbfbf" stroke="#000000" points="847.5,-224.5 847.5,-243.5 927.5,-243.5 927.5,-224.5 847.5,-224.5"/>
<text text-anchor="middle" x="887.5" y="-231.5" font-family="Helvetica,sans-Serif" font-size="10.00" fill="#000000">src/dblib/bcp.c</text>
</a>
</g>
</g>
<!-- Node2 -->
<g id="node2" class="node">
<title>Node2</title>
<g id="a_node2"><a xlink:href="a00356_source.html" target="_top" xlink:title=" ">
<polygon fill="#ffffff" stroke="#000000" points="0,-.5 0,-19.5 51,-19.5 51,-.5 0,-.5"/>
<text text-anchor="middle" x="25.5" y="-7.5" font-family="Helvetica,sans-Serif" font-size="10.00" fill="#000000">config.h</text>
</a>
</g>
</g>
<!-- Node1&#45;&gt;Node2 -->
<g id="edge1" class="edge">
<title>Node1&#45;&gt;Node2</title>
<path fill="none" stroke="#191970" d="M847.3416,-231.7132C770.2897,-226.8935 596.562,-213.9358 452.5,-188 255.1727,-152.4747 138.4221,-234.3991 15.5,-76 5.2088,-62.7386 9.7643,-43.3555 15.6605,-29.0232"/>
<polygon fill="#191970" stroke="#191970" points="18.9792,-30.1852 19.9978,-19.6395 12.6251,-27.2483 18.9792,-30.1852"/>
</g>
<!-- Node3 -->
<g id="node3" class="node">
<title>Node3</title>
<g id="a_node3"><a xlink:title=" ">
<polygon fill="#ffffff" stroke="#bfbfbf" points="422.5,-56.5 422.5,-75.5 474.5,-75.5 474.5,-56.5 422.5,-56.5"/>
<text text-anchor="middle" x="448.5" y="-63.5" font-family="Helvetica,sans-Serif" font-size="10.00" fill="#000000">stdarg.h</text>
</a>
</g>
</g>
<!-- Node1&#45;&gt;Node3 -->
<g id="edge2" class="edge">
<title>Node1&#45;&gt;Node3</title>
<path fill="none" stroke="#191970" d="M847.2939,-225.471C783.0928,-211.0419 654.2947,-178.7495 552.5,-132 521.8602,-117.9286 489.5125,-96.1549 469.183,-81.504"/>
<polygon fill="#191970" stroke="#191970" points="471.1303,-78.592 460.9919,-75.5158 466.9991,-84.243 471.1303,-78.592"/>
</g>
<!-- Node4 -->
<g id="node4" class="node">
<title>Node4</title>
<g id="a_node4"><a xlink:title=" ">
<polygon fill="#ffffff" stroke="#bfbfbf" points="1479.5,-112.5 1479.5,-131.5 1525.5,-131.5 1525.5,-112.5 1479.5,-112.5"/>
<text text-anchor="middle" x="1502.5" y="-119.5" font-family="Helvetica,sans-Serif" font-size="10.00" fill="#000000">stdio.h</text>
</a>
</g>
</g>
<!-- Node1&#45;&gt;Node4 -->
<g id="edge3" class="edge">
<title>Node1&#45;&gt;Node4</title>
<path fill="none" stroke="#191970" d="M896.0186,-224.2069C909.8806,-209.0466 938.9596,-180.3571 970.5,-168 1069.8889,-129.0608 1343.6665,-145.9173 1449.5,-132 1455.9581,-131.1508 1462.8198,-130.0247 1469.3889,-128.8349"/>
<polygon fill="#191970" stroke="#191970" points="1470.1974,-132.2441 1479.371,-126.9435 1468.8942,-125.3664 1470.1974,-132.2441"/>
</g>
<!-- Node5 -->
<g id="node5" class="node">
<title>Node5</title>
<g id="a_node5"><a xlink:title=" ">
<polygon fill="#ffffff" stroke="#bfbfbf" points="1095.5,-168.5 1095.5,-187.5 1147.5,-187.5 1147.5,-168.5 1095.5,-168.5"/>
<text text-anchor="middle" x="1121.5" y="-175.5" font-family="Helvetica,sans-Serif" font-size="10.00" fill="#000000">assert.h</text>
</a>
</g>
</g>
<!-- Node1&#45;&gt;Node5 -->
<g id="edge4" class="edge">
<title>Node1&#45;&gt;Node5</title>
<path fill="none" stroke="#191970" d="M927.6617,-224.6274C966.918,-215.4307 1028.3625,-200.9415 1081.5,-188 1082.7519,-187.6951 1084.0255,-187.3837 1085.3115,-187.0681"/>
<polygon fill="#191970" stroke="#191970" points="1086.3936,-190.406 1095.2613,-184.6082 1084.7135,-183.6106 1086.3936,-190.406"/>
</g>
<!-- Node6 -->
<g id="node6" class="node">
<title>Node6</title>
<g id="a_node6"><a xlink:href="a00437.html" target="_top" xlink:title=" ">
<polygon fill="#ffffff" stroke="#000000" points="852,-168.5 852,-187.5 923,-187.5 923,-168.5 852,-168.5"/>
<text text-anchor="middle" x="887.5" y="-175.5" font-family="Helvetica,sans-Serif" font-size="10.00" fill="#000000">freetds/tds.h</text>
</a>
</g>
</g>
<!-- Node1&#45;&gt;Node6 -->
<g id="edge5" class="edge">
<title>Node1&#45;&gt;Node6</title>
<path fill="none" stroke="#191970" d="M887.5,-224.2455C887.5,-216.9382 887.5,-206.6944 887.5,-197.7046"/>
<polygon fill="#191970" stroke="#191970" points="891.0001,-197.6426 887.5,-187.6427 884.0001,-197.6427 891.0001,-197.6426"/>
</g>
<!-- Node15 -->
<g id="node15" class="node">
<title>Node15</title>
<g id="a_node15"><a xlink:href="a00470_source.html" target="_top" xlink:title=" ">
<polygon fill="#ffffff" stroke="#000000" points="760,-112.5 760,-131.5 863,-131.5 863,-112.5 760,-112.5"/>
<text text-anchor="middle" x="811.5" y="-119.5" font-family="Helvetica,sans-Serif" font-size="10.00" fill="#000000">freetds/utils/string.h</text>
</a>
</g>
</g>
<!-- Node1&#45;&gt;Node15 -->
<g id="edge45" class="edge">
<title>Node1&#45;&gt;Node15</title>
<path fill="none" stroke="#191970" d="M876.3612,-224.2227C866.8003,-215.4246 853.086,-201.7942 843.5,-188 833.3081,-173.334 824.679,-154.9283 818.9593,-141.2823"/>
<polygon fill="#191970" stroke="#191970" points="822.1662,-139.8763 815.1749,-131.9157 815.676,-142.4987 822.1662,-139.8763"/>
</g>
<!-- Node18 -->
<g id="node18" class="node">
<title>Node18</title>
<g id="a_node18"><a xlink:href="a00491_source.html" target="_top" xlink:title=" ">
<polygon fill="#ffffff" stroke="#000000" points="620,-112.5 620,-131.5 703,-131.5 703,-112.5 620,-112.5"/>
<text text-anchor="middle" x="661.5" y="-119.5" font-family="Helvetica,sans-Serif" font-size="10.00" fill="#000000">replacements.h</text>
</a>
</g>
</g>
<!-- Node1&#45;&gt;Node18 -->
<g id="edge47" class="edge">
<title>Node1&#45;&gt;Node18</title>
<path fill="none" stroke="#191970" d="M868.2314,-224.4509C828.369,-204.6961 736.6784,-159.2565 689.9695,-136.1088"/>
<polygon fill="#191970" stroke="#191970" points="691.2341,-132.8293 680.7199,-131.5249 688.1258,-139.1014 691.2341,-132.8293"/>
</g>
<!-- Node22 -->
<g id="node22" class="node">
<title>Node22</title>
<g id="a_node22"><a xlink:href="a00410_source.html" target="_top" xlink:title=" ">
<polygon fill="#ffffff" stroke="#000000" points="152.5,-56.5 152.5,-75.5 232.5,-75.5 232.5,-56.5 152.5,-56.5"/>
<text text-anchor="middle" x="192.5" y="-63.5" font-family="Helvetica,sans-Serif" font-size="10.00" fill="#000000">freetds/iconv.h</text>
</a>
</g>
</g>
<!-- Node1&#45;&gt;Node22 -->
<g id="edge38" class="edge">
<title>Node1&#45;&gt;Node22</title>
<path fill="none" stroke="#191970" d="M847.2588,-231.9404C779.4225,-227.802 638.3646,-216.3221 522.5,-188 408.3574,-160.0989 279.4164,-105.2398 222.3711,-79.693"/>
<polygon fill="#191970" stroke="#191970" points="223.7644,-76.4819 213.2093,-75.5644 220.8885,-82.8639 223.7644,-76.4819"/>
</g>
<!-- Node23 -->
<g id="node23" class="node">
<title>Node23</title>
<g id="a_node23"><a xlink:href="a00398_source.html" target="_top" xlink:title=" ">
<polygon fill="#ffffff" stroke="#000000" points="250.5,-56.5 250.5,-75.5 340.5,-75.5 340.5,-56.5 250.5,-56.5"/>
<text text-anchor="middle" x="295.5" y="-63.5" font-family="Helvetica,sans-Serif" font-size="10.00" fill="#000000">freetds/convert.h</text>
</a>
</g>
</g>
<!-- Node1&#45;&gt;Node23 -->
<g id="edge41" class="edge">
<title>Node1&#45;&gt;Node23</title>
<path fill="none" stroke="#191970" d="M847.1228,-231.081C788.4019,-226.1186 676.4163,-213.9398 584.5,-188 484.5421,-159.7908 373.1292,-105.9057 322.8009,-80.2545"/>
<polygon fill="#191970" stroke="#191970" points="324.3456,-77.1133 313.8507,-75.6612 321.1494,-83.341 324.3456,-77.1133"/>
</g>
<!-- Node24 -->
<g id="node24" class="node">
<title>Node24</title>
<g id="a_node24"><a xlink:href="a00383_source.html" target="_top" xlink:title=" ">
<polygon fill="#ffffff" stroke="#000000" points="1165.5,-168.5 1165.5,-187.5 1247.5,-187.5 1247.5,-168.5 1165.5,-168.5"/>
<text text-anchor="middle" x="1206.5" y="-175.5" font-family="Helvetica,sans-Serif" font-size="10.00" fill="#000000">freetds/bytes.h</text>
</a>
</g>
</g>
<!-- Node1&#45;&gt;Node24 -->
<g id="edge44" class="edge">
<title>Node1&#45;&gt;Node24</title>
<path fill="none" stroke="#191970" d="M927.6678,-227.4919C978.3479,-219.2011 1068.4396,-204.1996 1155.292,-188.1872"/>
<polygon fill="#191970" stroke="#191970" points="1156.121,-191.5933 1165.3169,-186.3317 1154.8469,-184.7102 1156.121,-191.5933"/>
</g>
<!-- Node25 -->
<g id="node25" class="node">
<title>Node25</title>
<g id="a_node25"><a xlink:href="a00404_source.html" target="_top" xlink:title=" ">
<polygon fill="#ffffff" stroke="#000000" points="1265.5,-168.5 1265.5,-187.5 1367.5,-187.5 1367.5,-168.5 1265.5,-168.5"/>
<text text-anchor="middle" x="1316.5" y="-175.5" font-family="Helvetica,sans-Serif" font-size="10.00" fill="#000000">freetds/encodings.h</text>
</a>
</g>
</g>
<!-- Node1&#45;&gt;Node25 -->
<g id="edge46" class="edge">
<title>Node1&#45;&gt;Node25</title>
<path fill="none" stroke="#191970" d="M927.7058,-229.5363C993.7978,-222.0792 1129.7789,-206.2352 1255.2871,-188.1293"/>
<polygon fill="#191970" stroke="#191970" points="1256.0654,-191.5531 1265.4592,-186.6535 1255.0603,-184.6257 1256.0654,-191.5531"/>
</g>
<!-- Node26 -->
<g id="node26" class="node">
<title>Node26</title>
<g id="a_node26"><a xlink:href="a00509_source.html" target="_top" xlink:title=" ">
<polygon fill="#ffffff" stroke="#000000" points="979.5,-168.5 979.5,-187.5 1039.5,-187.5 1039.5,-168.5 979.5,-168.5"/>
<text text-anchor="middle" x="1009.5" y="-175.5" font-family="Helvetica,sans-Serif" font-size="10.00" fill="#000000">sybfront.h</text>
</a>
</g>
</g>
<!-- Node1&#45;&gt;Node26 -->
<g id="edge48" class="edge">
<title>Node1&#45;&gt;Node26</title>
<path fill="none" stroke="#191970" d="M908.4725,-224.3733C928.0567,-215.3838 957.4961,-201.8706 979.551,-191.7471"/>
<polygon fill="#191970" stroke="#191970" points="981.1729,-194.8538 988.8011,-187.5011 978.2527,-188.4919 981.1729,-194.8538"/>
</g>
<!-- Node27 -->
<g id="node27" class="node">
<title>Node27</title>
<g id="a_node27"><a xlink:href="a00503.html" target="_top" xlink:title="Primary include file for db&#45;lib applications.">
<polygon fill="#ffffff" stroke="#000000" points="1544,-112.5 1544,-131.5 1595,-131.5 1595,-112.5 1544,-112.5"/>
<text text-anchor="middle" x="1569.5" y="-119.5" font-family="Helvetica,sans-Serif" font-size="10.00" fill="#000000">sybdb.h</text>
</a>
</g>
</g>
<!-- Node1&#45;&gt;Node27 -->
<g id="edge51" class="edge">
<title>Node1&#45;&gt;Node27</title>
<path fill="none" stroke="#191970" d="M927.6309,-224.9781C960.675,-216.973 1008.433,-204.0678 1048.5,-188 1066.214,-180.8963 1068.1704,-173.3171 1086.5,-168 1275.1595,-113.2736 1335.9318,-165.8084 1533.5162,-131.8032"/>
<polygon fill="#191970" stroke="#191970" points="1534.4068,-135.2 1543.6412,-130.0061 1533.1834,-128.3077 1534.4068,-135.2"/>
</g>
<!-- Node28 -->
<g id="node28" class="node">
<title>Node28</title>
<g id="a_node28"><a xlink:href="a00506_source.html" target="_top" xlink:title=" ">
<polygon fill="#ffffff" stroke="#000000" points="1386,-168.5 1386,-187.5 1445,-187.5 1445,-168.5 1386,-168.5"/>
<text text-anchor="middle" x="1415.5" y="-175.5" font-family="Helvetica,sans-Serif" font-size="10.00" fill="#000000">syberror.h</text>
</a>
</g>
</g>
<!-- Node1&#45;&gt;Node28 -->
<g id="edge52" class="edge">
<title>Node1&#45;&gt;Node28</title>
<path fill="none" stroke="#191970" d="M927.7164,-232.3585C1010.0612,-228.5376 1203.8607,-217.1871 1375.806,-187.8583"/>
<polygon fill="#191970" stroke="#191970" points="1376.5373,-191.2839 1385.794,-186.1299 1375.3436,-184.3864 1376.5373,-191.2839"/>
</g>
<!-- Node29 -->
<g id="node29" class="node">
<title>Node29</title>
<g id="a_node29"><a xlink:href="a00371_source.html" target="_top" xlink:title=" ">
<polygon fill="#ffffff" stroke="#000000" points="359,-56.5 359,-75.5 404,-75.5 404,-56.5 359,-56.5"/>
<text text-anchor="middle" x="381.5" y="-63.5" font-family="Helvetica,sans-Serif" font-size="10.00" fill="#000000">dblib.h</text>
</a>
</g>
</g>
<!-- Node1&#45;&gt;Node29 -->
<g id="edge53" class="edge">
<title>Node1&#45;&gt;Node29</title>
<path fill="none" stroke="#191970" d="M847.3056,-229.079C798.5932,-222.5039 714.3572,-209.163 644.5,-188 583.5095,-169.5231 570.3207,-158.7956 512.5,-132 476.0757,-115.1201 434.8366,-94.0024 408.5241,-80.2667"/>
<polygon fill="#191970" stroke="#191970" points="410.0243,-77.1015 399.5419,-75.5618 406.7762,-83.3023 410.0243,-77.1015"/>
</g>
<!-- Node6&#45;&gt;Node3 -->
<g id="edge6" class="edge">
<title>Node6&#45;&gt;Node3</title>
<path fill="none" stroke="#191970" d="M851.9672,-174.654C798.7181,-169.07 695.4028,-156.0212 610.5,-132 562.3012,-118.3633 508.963,-94.9015 477.1155,-79.9357"/>
<polygon fill="#191970" stroke="#191970" points="478.4858,-76.7119 467.9512,-75.5841 475.4832,-83.0352 478.4858,-76.7119"/>
</g>
<!-- Node6&#45;&gt;Node4 -->
<g id="edge7" class="edge">
<title>Node6&#45;&gt;Node4</title>
<path fill="none" stroke="#191970" d="M923.1853,-170.2797C927.9814,-169.4134 932.8495,-168.6209 937.5,-168 1170.6425,-136.8706 1233.5226,-170.8707 1465.5,-132 1466.7551,-131.7897 1468.0292,-131.555 1469.3124,-131.3007"/>
<polygon fill="#191970" stroke="#191970" points="1470.1965,-134.689 1479.165,-129.0483 1468.6364,-127.865 1470.1965,-134.689"/>
</g>
<!-- Node7 -->
<g id="node7" class="node">
<title>Node7</title>
<g id="a_node7"><a xlink:href="a00443_source.html" target="_top" xlink:title=" ">
<polygon fill="#ffffff" stroke="#000000" points="957.5,-112.5 957.5,-131.5 1001.5,-131.5 1001.5,-112.5 957.5,-112.5"/>
<text text-anchor="middle" x="979.5" y="-119.5" font-family="Helvetica,sans-Serif" font-size="10.00" fill="#000000">time.h</text>
</a>
</g>
</g>
<!-- Node6&#45;&gt;Node7 -->
<g id="edge8" class="edge">
<title>Node6&#45;&gt;Node7</title>
<path fill="none" stroke="#191970" d="M903.5252,-168.2455C917.6408,-159.6534 938.4263,-147.0014 954.6899,-137.1018"/>
<polygon fill="#191970" stroke="#191970" points="956.9363,-139.8319 963.6585,-131.6427 953.2966,-133.8525 956.9363,-139.8319"/>
</g>
<!-- Node8 -->
<g id="node8" class="node">
<title>Node8</title>
<g id="a_node8"><a xlink:href="a00476_source.html" target="_top" xlink:title=" ">
<polygon fill="#ffffff" stroke="#000000" points="1038,-112.5 1038,-131.5 1127,-131.5 1127,-112.5 1038,-112.5"/>
<text text-anchor="middle" x="1082.5" y="-119.5" font-family="Helvetica,sans-Serif" font-size="10.00" fill="#000000">freetds/version.h</text>
</a>
</g>
</g>
<!-- Node6&#45;&gt;Node8 -->
<g id="edge10" class="edge">
<title>Node6&#45;&gt;Node8</title>
<path fill="none" stroke="#191970" d="M921.0217,-168.3733C953.8683,-158.9404 1004.0595,-144.5265 1039.7578,-134.2747"/>
<polygon fill="#191970" stroke="#191970" points="1040.7703,-137.6255 1049.4157,-131.5011 1038.8381,-130.8974 1040.7703,-137.6255"/>
</g>
<!-- Node9 -->
<g id="node9" class="node">
<title>Node9</title>
<g id="a_node9"><a xlink:href="a00512_source.html" target="_top" xlink:title=" ">
<polygon fill="#ffffff" stroke="#000000" points="1362.5,-56.5 1362.5,-75.5 1468.5,-75.5 1468.5,-56.5 1362.5,-56.5"/>
<text text-anchor="middle" x="1415.5" y="-63.5" font-family="Helvetica,sans-Serif" font-size="10.00" fill="#000000">tds_sysdep_public.h</text>
</a>
</g>
</g>
<!-- Node6&#45;&gt;Node9 -->
<g id="edge11" class="edge">
<title>Node6&#45;&gt;Node9</title>
<path fill="none" stroke="#191970" d="M923.188,-170.2996C927.9837,-169.4301 932.8509,-168.6315 937.5,-168 992.1435,-160.5781 1394.9472,-172.383 1432.5,-132 1444.3975,-119.2058 1436.9149,-99.2138 1428.4504,-84.5835"/>
<polygon fill="#191970" stroke="#191970" points="1431.2442,-82.4528 1422.9401,-75.8731 1425.3285,-86.1952 1431.2442,-82.4528"/>
</g>
<!-- Node11 -->
<g id="node11" class="node">
<title>Node11</title>
<g id="a_node11"><a xlink:href="a00434_source.html" target="_top" xlink:title=" ">
<polygon fill="#ffffff" stroke="#000000" points="742.5,-56.5 742.5,-75.5 866.5,-75.5 866.5,-56.5 742.5,-56.5"/>
<text text-anchor="middle" x="804.5" y="-63.5" font-family="Helvetica,sans-Serif" font-size="10.00" fill="#000000">freetds/sysdep_private.h</text>
</a>
</g>
</g>
<!-- Node6&#45;&gt;Node11 -->
<g id="edge13" class="edge">
<title>Node6&#45;&gt;Node11</title>
<path fill="none" stroke="#191970" d="M851.7903,-170.919C815.358,-162.8839 762.5113,-148.7033 750.5,-132 737.3992,-113.7816 758.7412,-94.0001 778.3333,-80.893"/>
<polygon fill="#191970" stroke="#191970" points="780.2179,-83.8424 786.7989,-75.5393 776.4764,-77.9262 780.2179,-83.8424"/>
</g>
<!-- Node12 -->
<g id="node12" class="node">
<title>Node12</title>
<g id="a_node12"><a xlink:href="a00440_source.html" target="_top" xlink:title=" ">
<polygon fill="#ffffff" stroke="#000000" points="1338,-112.5 1338,-131.5 1423,-131.5 1423,-112.5 1338,-112.5"/>
<text text-anchor="middle" x="1380.5" y="-119.5" font-family="Helvetica,sans-Serif" font-size="10.00" fill="#000000">freetds/thread.h</text>
</a>
</g>
</g>
<!-- Node6&#45;&gt;Node12 -->
<g id="edge14" class="edge">
<title>Node6&#45;&gt;Node12</title>
<path fill="none" stroke="#191970" d="M923.1998,-170.3838C927.9937,-169.5009 932.8572,-168.6761 937.5,-168 1106.9872,-143.3192 1153.9834,-156.0143 1327.9834,-131.9331"/>
<polygon fill="#191970" stroke="#191970" points="1328.574,-135.3846 1337.9899,-130.5274 1327.6002,-128.4527 1328.574,-135.3846"/>
</g>
<!-- Node13 -->
<g id="node13" class="node">
<title>Node13</title>
<g id="a_node13"><a xlink:href="a00380_source.html" target="_top" xlink:title=" ">
<polygon fill="#ffffff" stroke="#000000" points="1145.5,-112.5 1145.5,-131.5 1221.5,-131.5 1221.5,-112.5 1145.5,-112.5"/>
<text text-anchor="middle" x="1183.5" y="-119.5" font-family="Helvetica,sans-Serif" font-size="10.00" fill="#000000">freetds/bool.h</text>
</a>
</g>
</g>
<!-- Node6&#45;&gt;Node13 -->
<g id="edge16" class="edge">
<title>Node6&#45;&gt;Node13</title>
<path fill="none" stroke="#191970" d="M923.2637,-170.7641C928.0474,-169.8206 932.891,-168.8777 937.5,-168 1022.6892,-151.7769 1046.6467,-149.5017 1135.3413,-132.1842"/>
<polygon fill="#191970" stroke="#191970" points="1136.1617,-135.5901 1145.3006,-130.2299 1134.8137,-128.7211 1136.1617,-135.5901"/>
</g>
<!-- Node14 -->
<g id="node14" class="node">
<title>Node14</title>
<g id="a_node14"><a xlink:href="a00413_source.html" target="_top" xlink:title=" ">
<polygon fill="#ffffff" stroke="#000000" points="960.5,-56.5 960.5,-75.5 1050.5,-75.5 1050.5,-56.5 960.5,-56.5"/>
<text text-anchor="middle" x="1005.5" y="-63.5" font-family="Helvetica,sans-Serif" font-size="10.00" fill="#000000">freetds/macros.h</text>
</a>
</g>
</g>
<!-- Node6&#45;&gt;Node14 -->
<g id="edge17" class="edge">
<title>Node6&#45;&gt;Node14</title>
<path fill="none" stroke="#191970" d="M889.4012,-168.3384C892.592,-154.3649 900.2322,-128.3966 915.5,-112 929.0201,-97.4803 948.1529,-86.8133 965.3034,-79.4281"/>
<polygon fill="#191970" stroke="#191970" points="966.6324,-82.6661 974.5794,-75.6592 963.9974,-76.1809 966.6324,-82.6661"/>
</g>
<!-- Node6&#45;&gt;Node15 -->
<g id="edge18" class="edge">
<title>Node6&#45;&gt;Node15</title>
<path fill="none" stroke="#191970" d="M874.2618,-168.2455C862.819,-159.814 846.0704,-147.4729 832.7525,-137.6598"/>
<polygon fill="#191970" stroke="#191970" points="834.7133,-134.757 824.5865,-131.6427 830.5609,-140.3924 834.7133,-134.757"/>
</g>
<!-- Node16 -->
<g id="node16" class="node">
<title>Node16</title>
<g id="a_node16"><a xlink:href="a00425_source.html" target="_top" xlink:title=" ">
<polygon fill="#ffffff" stroke="#000000" points="292.5,-.5 292.5,-19.5 384.5,-19.5 384.5,-.5 292.5,-.5"/>
<text text-anchor="middle" x="338.5" y="-7.5" font-family="Helvetica,sans-Serif" font-size="10.00" fill="#000000">freetds/pushvis.h</text>
</a>
</g>
</g>
<!-- Node6&#45;&gt;Node16 -->
<g id="edge35" class="edge">
<title>Node6&#45;&gt;Node16</title>
<path fill="none" stroke="#191970" d="M851.9712,-176.5354C696.2864,-169.7612 79.5687,-139.0773 23.5,-76 17.5945,-69.3564 17.6864,-62.7242 23.5,-56 40.1508,-36.741 196.0216,-21.3751 282.0749,-14.2754"/>
<polygon fill="#191970" stroke="#191970" points="282.5259,-17.7503 292.2091,-13.4508 281.9582,-10.7734 282.5259,-17.7503"/>
</g>
<!-- Node17 -->
<g id="node17" class="node">
<title>Node17</title>
<g id="a_node17"><a xlink:href="a00419_source.html" target="_top" xlink:title=" ">
<polygon fill="#ffffff" stroke="#000000" points="462.5,-.5 462.5,-19.5 548.5,-19.5 548.5,-.5 462.5,-.5"/>
<text text-anchor="middle" x="505.5" y="-7.5" font-family="Helvetica,sans-Serif" font-size="10.00" fill="#000000">freetds/popvis.h</text>
</a>
</g>
</g>
<!-- Node6&#45;&gt;Node17 -->
<g id="edge37" class="edge">
<title>Node6&#45;&gt;Node17</title>
<path fill="none" stroke="#191970" d="M893.8482,-168.4803C903.8399,-154.2064 924.58,-127.3045 948.5,-112 995.0445,-82.22 1096.9205,-96.6564 1059.5,-56 1026.0115,-19.6156 691.0652,-12.0057 558.8102,-10.4176"/>
<polygon fill="#191970" stroke="#191970" points="558.5602,-6.9146 548.5212,-10.3013 558.481,-13.9142 558.5602,-6.9146"/>
</g>
<!-- Node6&#45;&gt;Node18 -->
<g id="edge22" class="edge">
<title>Node6&#45;&gt;Node18</title>
<path fill="none" stroke="#191970" d="M851.9389,-169.1884C813.6172,-159.6927 752.4007,-144.5241 709.7538,-133.9567"/>
<polygon fill="#191970" stroke="#191970" points="710.4246,-130.5171 699.8763,-131.5092 708.7409,-137.3116 710.4246,-130.5171"/>
</g>
<!-- Node21 -->
<g id="node21" class="node">
<title>Node21</title>
<g id="a_node21"><a xlink:href="a00422_source.html" target="_top" xlink:title=" ">
<polygon fill="#ffffff" stroke="#000000" points="1239.5,-112.5 1239.5,-131.5 1319.5,-131.5 1319.5,-112.5 1239.5,-112.5"/>
<text text-anchor="middle" x="1279.5" y="-119.5" font-family="Helvetica,sans-Serif" font-size="10.00" fill="#000000">freetds/proto.h</text>
</a>
</g>
</g>
<!-- Node6&#45;&gt;Node21 -->
<g id="edge36" class="edge">
<title>Node6&#45;&gt;Node21</title>
<path fill="none" stroke="#191970" d="M923.2203,-170.5169C928.0108,-169.6128 932.868,-168.7467 937.5,-168 1063.867,-147.6297 1099.2956,-152.8564 1229.4815,-132.0562"/>
<polygon fill="#191970" stroke="#191970" points="1230.1239,-135.4979 1239.4362,-130.4449 1229.0054,-128.5878 1230.1239,-135.4979"/>
</g>
<!-- Node7&#45;&gt;Node7 -->
<g id="edge9" class="edge">
<title>Node7&#45;&gt;Node7</title>
<path fill="none" stroke="#191970" d="M996.7683,-131.5746C1008.2874,-134.2697 1019.5,-131.0781 1019.5,-122 1019.5,-115.7588 1014.2003,-112.2999 1007.1448,-111.6234"/>
<polygon fill="#191970" stroke="#191970" points="1006.4688,-108.1651 996.7683,-112.4254 1007.0083,-115.1443 1006.4688,-108.1651"/>
</g>
<!-- Node10 -->
<g id="node10" class="node">
<title>Node10</title>
<g id="a_node10"><a xlink:title=" ">
<polygon fill="#ffffff" stroke="#bfbfbf" points="1393.5,-.5 1393.5,-19.5 1437.5,-19.5 1437.5,-.5 1393.5,-.5"/>
<text text-anchor="middle" x="1415.5" y="-7.5" font-family="Helvetica,sans-Serif" font-size="10.00" fill="#000000">float.h</text>
</a>
</g>
</g>
<!-- Node9&#45;&gt;Node10 -->
<g id="edge12" class="edge">
<title>Node9&#45;&gt;Node10</title>
<path fill="none" stroke="#191970" d="M1415.5,-56.2455C1415.5,-48.9382 1415.5,-38.6944 1415.5,-29.7046"/>
<polygon fill="#191970" stroke="#191970" points="1419.0001,-29.6426 1415.5,-19.6427 1412.0001,-29.6427 1419.0001,-29.6426"/>
</g>
<!-- Node12&#45;&gt;Node9 -->
<g id="edge15" class="edge">
<title>Node12&#45;&gt;Node9</title>
<path fill="none" stroke="#191970" d="M1386.5965,-112.2455C1391.4145,-104.5367 1398.2751,-93.5598 1404.1032,-84.2348"/>
<polygon fill="#191970" stroke="#191970" points="1407.1413,-85.9777 1409.4733,-75.6427 1401.2053,-82.2677 1407.1413,-85.9777"/>
</g>
<!-- Node15&#45;&gt;Node14 -->
<g id="edge19" class="edge">
<title>Node15&#45;&gt;Node14</title>
<path fill="none" stroke="#191970" d="M844.8498,-112.3733C877.528,-102.9404 927.4618,-88.5265 962.977,-78.2747"/>
<polygon fill="#191970" stroke="#191970" points="963.9484,-81.6373 972.5854,-75.5011 962.007,-74.9119 963.9484,-81.6373"/>
</g>
<!-- Node15&#45;&gt;Node16 -->
<g id="edge20" class="edge">
<title>Node15&#45;&gt;Node16</title>
<path fill="none" stroke="#191970" d="M832.7745,-112.3194C857.9675,-99.5945 894.2846,-76.4553 875.5,-56 843.6697,-21.3387 500.3856,-24.0384 453.5,-20 434.3788,-18.353 413.4704,-16.5389 394.7879,-14.9131"/>
<polygon fill="#191970" stroke="#191970" points="394.9291,-11.4123 384.6632,-14.0316 394.3218,-18.3859 394.9291,-11.4123"/>
</g>
<!-- Node15&#45;&gt;Node17 -->
<g id="edge21" class="edge">
<title>Node15&#45;&gt;Node17</title>
<path fill="none" stroke="#191970" d="M848.0389,-112.4158C884.1127,-101.2454 930.8767,-81.0762 908.5,-56 885.5858,-30.3214 662.6637,-17.0366 558.5614,-12.1911"/>
<polygon fill="#191970" stroke="#191970" points="558.7179,-8.6947 548.5687,-11.735 558.3987,-15.6874 558.7179,-8.6947"/>
</g>
<!-- Node18&#45;&gt;Node3 -->
<g id="edge23" class="edge">
<title>Node18&#45;&gt;Node3</title>
<path fill="none" stroke="#191970" d="M624.884,-112.3733C585.5764,-102.0389 523.5289,-85.7259 484.4719,-75.4574"/>
<polygon fill="#191970" stroke="#191970" points="485.146,-72.0157 474.5847,-72.8579 483.366,-78.7857 485.146,-72.0157"/>
</g>
<!-- Node18&#45;&gt;Node9 -->
<g id="edge24" class="edge">
<title>Node18&#45;&gt;Node9</title>
<path fill="none" stroke="#191970" d="M703.1181,-116.9506C718.0473,-115.2381 735.015,-113.4049 750.5,-112 971.1781,-91.9791 1233.7556,-76.1742 1352.1079,-69.4785"/>
<polygon fill="#191970" stroke="#191970" points="1352.6374,-72.9543 1362.4246,-68.8973 1352.2436,-65.9654 1352.6374,-72.9543"/>
</g>
<!-- Node18&#45;&gt;Node11 -->
<g id="edge25" class="edge">
<title>Node18&#45;&gt;Node11</title>
<path fill="none" stroke="#191970" d="M686.0826,-112.3733C709.4496,-103.2226 744.7862,-89.3844 770.7784,-79.2057"/>
<polygon fill="#191970" stroke="#191970" points="772.203,-82.4066 780.2382,-75.5011 769.6505,-75.8886 772.203,-82.4066"/>
</g>
<!-- Node18&#45;&gt;Node16 -->
<g id="edge33" class="edge">
<title>Node18&#45;&gt;Node16</title>
<path fill="none" stroke="#191970" d="M627.2544,-112.4914C598.5447,-104.1088 556.7143,-90.9286 521.5,-76 503.9285,-68.5508 501.1095,-63.3589 483.5,-56 451.1303,-42.4728 413.3117,-30.5984 384.4149,-22.3037"/>
<polygon fill="#191970" stroke="#191970" points="385.1646,-18.8785 374.5893,-19.5222 383.2578,-25.6138 385.1646,-18.8785"/>
</g>
<!-- Node18&#45;&gt;Node17 -->
<g id="edge34" class="edge">
<title>Node18&#45;&gt;Node17</title>
<path fill="none" stroke="#191970" d="M672.7477,-112.346C687.1315,-98.8343 708.5893,-73.9298 694.5,-56 677.8586,-34.8225 608.578,-22.1769 558.7169,-15.6529"/>
<polygon fill="#191970" stroke="#191970" points="559.0711,-12.1699 548.7117,-14.3909 558.195,-19.1149 559.0711,-12.1699"/>
</g>
<!-- Node19 -->
<g id="node19" class="node">
<title>Node19</title>
<g id="a_node19"><a xlink:href="a00488_source.html" target="_top" xlink:title=" ">
<polygon fill="#ffffff" stroke="#000000" points="531,-56.5 531,-75.5 686,-75.5 686,-56.5 531,-56.5"/>
<text text-anchor="middle" x="608.5" y="-63.5" font-family="Helvetica,sans-Serif" font-size="10.00" fill="#000000">replacements/readpassphrase.h</text>
</a>
</g>
</g>
<!-- Node18&#45;&gt;Node19 -->
<g id="edge26" class="edge">
<title>Node18&#45;&gt;Node19</title>
<path fill="none" stroke="#191970" d="M652.2681,-112.2455C644.6683,-104.2155 633.7123,-92.6394 624.6632,-83.0781"/>
<polygon fill="#191970" stroke="#191970" points="627.042,-80.4998 617.6261,-75.6427 621.9579,-85.3115 627.042,-80.4998"/>
</g>
<!-- Node20 -->
<g id="node20" class="node">
<title>Node20</title>
<g id="a_node20"><a xlink:href="a00485.html" target="_top" xlink:title="Provide poll call where missing.">
<polygon fill="#ffffff" stroke="#000000" points="33,-56.5 33,-75.5 134,-75.5 134,-56.5 33,-56.5"/>
<text text-anchor="middle" x="83.5" y="-63.5" font-family="Helvetica,sans-Serif" font-size="10.00" fill="#000000">replacements/poll.h</text>
</a>
</g>
</g>
<!-- Node18&#45;&gt;Node20 -->
<g id="edge29" class="edge">
<title>Node18&#45;&gt;Node20</title>
<path fill="none" stroke="#191970" d="M619.7541,-119.382C533.1652,-113.7168 327.538,-99.0458 144.2898,-76.0101"/>
<polygon fill="#191970" stroke="#191970" points="144.5597,-72.5164 134.1988,-74.7301 143.6788,-79.4607 144.5597,-72.5164"/>
</g>
<!-- Node19&#45;&gt;Node16 -->
<g id="edge27" class="edge">
<title>Node19&#45;&gt;Node16</title>
<path fill="none" stroke="#191970" d="M562.3921,-56.4369C515.8925,-46.7925 444.0641,-31.8948 394.36,-21.5858"/>
<polygon fill="#191970" stroke="#191970" points="394.9201,-18.1275 384.4177,-19.5237 393.4985,-24.9817 394.9201,-18.1275"/>
</g>
<!-- Node19&#45;&gt;Node17 -->
<g id="edge28" class="edge">
<title>Node19&#45;&gt;Node17</title>
<path fill="none" stroke="#191970" d="M590.5588,-56.2455C574.46,-47.4928 550.6121,-34.527 532.2609,-24.5496"/>
<polygon fill="#191970" stroke="#191970" points="533.6929,-21.3444 523.2356,-19.6427 530.3493,-27.4942 533.6929,-21.3444"/>
</g>
<!-- Node20&#45;&gt;Node2 -->
<g id="edge30" class="edge">
<title>Node20&#45;&gt;Node2</title>
<path fill="none" stroke="#191970" d="M73.3972,-56.2455C64.9972,-48.1352 52.8506,-36.4075 42.8916,-26.7919"/>
<polygon fill="#191970" stroke="#191970" points="45.1122,-24.0707 35.4871,-19.6427 40.25,-29.1066 45.1122,-24.0707"/>
</g>
<!-- Node20&#45;&gt;Node16 -->
<g id="edge31" class="edge">
<title>Node20&#45;&gt;Node16</title>
<path fill="none" stroke="#191970" d="M127.0463,-56.4369C170.7793,-46.8328 238.2345,-32.0191 285.1542,-21.7152"/>
<polygon fill="#191970" stroke="#191970" points="286.1168,-25.0872 295.1333,-19.5237 284.6153,-18.2502 286.1168,-25.0872"/>
</g>
<!-- Node20&#45;&gt;Node17 -->
<g id="edge32" class="edge">
<title>Node20&#45;&gt;Node17</title>
<path fill="none" stroke="#191970" d="M134.2173,-57.4052C137.3565,-56.9172 140.47,-56.4448 143.5,-56 252.9782,-39.9272 381.5762,-24.3738 452.2437,-16.1128"/>
<polygon fill="#191970" stroke="#191970" points="452.713,-19.5819 462.2406,-14.9477 451.9026,-12.629 452.713,-19.5819"/>
</g>
<!-- Node22&#45;&gt;Node16 -->
<g id="edge39" class="edge">
<title>Node22&#45;&gt;Node16</title>
<path fill="none" stroke="#191970" d="M217.5983,-56.3733C241.4555,-47.2226 277.5335,-33.3844 304.071,-23.2057"/>
<polygon fill="#191970" stroke="#191970" points="305.6459,-26.3503 313.7292,-19.5011 303.139,-19.8145 305.6459,-26.3503"/>
</g>
<!-- Node22&#45;&gt;Node17 -->
<g id="edge40" class="edge">
<title>Node22&#45;&gt;Node17</title>
<path fill="none" stroke="#191970" d="M232.5928,-57.7199C235.605,-57.1278 238.5994,-56.5486 241.5,-56 314.5078,-42.1927 399.1706,-27.7099 452.5321,-18.7682"/>
<polygon fill="#191970" stroke="#191970" points="453.162,-22.2115 462.4478,-17.11 452.0074,-15.3074 453.162,-22.2115"/>
</g>
<!-- Node23&#45;&gt;Node16 -->
<g id="edge42" class="edge">
<title>Node23&#45;&gt;Node16</title>
<path fill="none" stroke="#191970" d="M302.99,-56.2455C309.0326,-48.3761 317.6903,-37.101 324.9441,-27.6542"/>
<polygon fill="#191970" stroke="#191970" points="327.7815,-29.7058 331.0958,-19.6427 322.2295,-25.4426 327.7815,-29.7058"/>
</g>
<!-- Node23&#45;&gt;Node17 -->
<g id="edge43" class="edge">
<title>Node23&#45;&gt;Node17</title>
<path fill="none" stroke="#191970" d="M331.6003,-56.3733C367.1248,-46.9001 421.488,-32.4032 459.9619,-22.1435"/>
<polygon fill="#191970" stroke="#191970" points="461.1103,-25.4596 469.8708,-19.5011 459.3066,-18.696 461.1103,-25.4596"/>
</g>
<!-- Node26&#45;&gt;Node27 -->
<g id="edge49" class="edge">
<title>Node26&#45;&gt;Node27</title>
<path fill="none" stroke="#191970" d="M1039.6843,-170.5185C1044.2911,-169.5573 1049.0069,-168.6749 1053.5,-168 1262.2886,-136.6389 1321.665,-168.6429 1533.7557,-131.7717"/>
<polygon fill="#191970" stroke="#191970" points="1534.4068,-135.2109 1543.6442,-130.0223 1533.1873,-128.3179 1534.4068,-135.2109"/>
</g>
<!-- Node27&#45;&gt;Node9 -->
<g id="edge50" class="edge">
<title>Node27&#45;&gt;Node9</title>
<path fill="none" stroke="#191970" d="M1543.7239,-112.6269C1518.4477,-103.4355 1479.6943,-89.3434 1451.4065,-79.0569"/>
<polygon fill="#191970" stroke="#191970" points="1452.4705,-75.7196 1441.8764,-75.5914 1450.0782,-82.2982 1452.4705,-75.7196"/>
</g>
<!-- Node29&#45;&gt;Node16 -->
<g id="edge54" class="edge">
<title>Node29&#45;&gt;Node16</title>
<path fill="none" stroke="#191970" d="M374.01,-56.2455C367.9674,-48.3761 359.3097,-37.101 352.0559,-27.6542"/>
<polygon fill="#191970" stroke="#191970" points="354.7705,-25.4426 345.9042,-19.6427 349.2185,-29.7058 354.7705,-25.4426"/>
</g>
<!-- Node29&#45;&gt;Node17 -->
<g id="edge55" class="edge">
<title>Node29&#45;&gt;Node17</title>
<path fill="none" stroke="#191970" d="M402.8164,-56.3733C422.7216,-47.3838 452.6436,-33.8706 475.06,-23.7471"/>
<polygon fill="#191970" stroke="#191970" points="476.7887,-26.8068 484.4618,-19.5011 473.9075,-20.4272 476.7887,-26.8068"/>
</g>
</g>
</svg>
