<?xml version="1.0" encoding="UTF-8" standalone="no"?>
<!DOCTYPE svg PUBLIC "-//W3C//DTD SVG 1.1//EN"
 "http://www.w3.org/Graphics/SVG/1.1/DTD/svg11.dtd">
<!-- Generated by graphviz version 2.40.1 (20161225.0304)
 -->
<!-- Title: src/replacements/iconv.c Pages: 1 -->
<svg width="1095pt" height="263pt"
 viewBox="0.00 0.00 1094.62 263.00" xmlns="http://www.w3.org/2000/svg" xmlns:xlink="http://www.w3.org/1999/xlink">
<g id="graph0" class="graph" transform="scale(1 1) rotate(0) translate(4 259)">
<title>src/replacements/iconv.c</title>
<polygon fill="#ffffff" stroke="transparent" points="-4,4 -4,-259 1090.6247,-259 1090.6247,4 -4,4"/>
<!-- Node1 -->
<g id="node1" class="node">
<title>Node1</title>
<g id="a_node1"><a xlink:title=" ">
<polygon fill="#bfbfbf" stroke="#000000" points="656.1247,-235.5 656.1247,-254.5 781.1247,-254.5 781.1247,-235.5 656.1247,-235.5"/>
<text text-anchor="middle" x="718.6247" y="-242.5" font-family="Helvetica,sans-Serif" font-size="10.00" fill="#000000">src/replacements/iconv.c</text>
</a>
</g>
</g>
<!-- Node2 -->
<g id="node2" class="node">
<title>Node2</title>
<g id="a_node2"><a xlink:href="a00356_source.html" target="_top" xlink:title=" ">
<polygon fill="#ffffff" stroke="#000000" points="150.1247,-.5 150.1247,-19.5 201.1247,-19.5 201.1247,-.5 150.1247,-.5"/>
<text text-anchor="middle" x="175.6247" y="-7.5" font-family="Helvetica,sans-Serif" font-size="10.00" fill="#000000">config.h</text>
</a>
</g>
</g>
<!-- Node1&#45;&gt;Node2 -->
<g id="edge1" class="edge">
<title>Node1&#45;&gt;Node2</title>
<path fill="none" stroke="#191970" d="M655.7411,-243.3502C532.4113,-239.5135 263.1885,-228.0068 175.6247,-199 86.4125,-169.4471 42.4587,-161.5811 3.6247,-76 -.0483,-67.9055 -1.7882,-63.0507 3.6247,-56 20.127,-34.5044 94.7134,-20.8748 140.0753,-14.4201"/>
<polygon fill="#191970" stroke="#191970" points="140.6721,-17.8711 150.1024,-13.0421 139.719,-10.9363 140.6721,-17.8711"/>
</g>
<!-- Node3 -->
<g id="node3" class="node">
<title>Node3</title>
<g id="a_node3"><a xlink:title=" ">
<polygon fill="#ffffff" stroke="#bfbfbf" points="739.6247,-174 739.6247,-193 791.6247,-193 791.6247,-174 739.6247,-174"/>
<text text-anchor="middle" x="765.6247" y="-181" font-family="Helvetica,sans-Serif" font-size="10.00" fill="#000000">assert.h</text>
</a>
</g>
</g>
<!-- Node1&#45;&gt;Node3 -->
<g id="edge2" class="edge">
<title>Node1&#45;&gt;Node3</title>
<path fill="none" stroke="#191970" d="M725.9684,-235.3906C732.8949,-226.3273 743.4507,-212.5149 751.9307,-201.4188"/>
<polygon fill="#191970" stroke="#191970" points="754.8862,-203.3155 758.1774,-193.2449 749.3244,-199.065 754.8862,-203.3155"/>
</g>
<!-- Node4 -->
<g id="node4" class="node">
<title>Node4</title>
<g id="a_node4"><a xlink:title=" ">
<polygon fill="#ffffff" stroke="#bfbfbf" points="810.1247,-174 810.1247,-193 859.1247,-193 859.1247,-174 810.1247,-174"/>
<text text-anchor="middle" x="834.6247" y="-181" font-family="Helvetica,sans-Serif" font-size="10.00" fill="#000000">ctype.h</text>
</a>
</g>
</g>
<!-- Node1&#45;&gt;Node4 -->
<g id="edge3" class="edge">
<title>Node1&#45;&gt;Node4</title>
<path fill="none" stroke="#191970" d="M736.7497,-235.3906C755.733,-225.3262 785.762,-209.4057 807.5554,-197.8514"/>
<polygon fill="#191970" stroke="#191970" points="809.4313,-200.8184 816.627,-193.0419 806.1524,-194.6338 809.4313,-200.8184"/>
</g>
<!-- Node5 -->
<g id="node5" class="node">
<title>Node5</title>
<g id="a_node5"><a xlink:href="a00437.html" target="_top" xlink:title=" ">
<polygon fill="#ffffff" stroke="#000000" points="535.1247,-174 535.1247,-193 606.1247,-193 606.1247,-174 535.1247,-174"/>
<text text-anchor="middle" x="570.6247" y="-181" font-family="Helvetica,sans-Serif" font-size="10.00" fill="#000000">freetds/tds.h</text>
</a>
</g>
</g>
<!-- Node1&#45;&gt;Node5 -->
<g id="edge4" class="edge">
<title>Node1&#45;&gt;Node5</title>
<path fill="none" stroke="#191970" d="M695.4997,-235.3906C670.628,-225.0554 630.8949,-208.5447 602.9403,-196.9284"/>
<polygon fill="#191970" stroke="#191970" points="604.1649,-193.6472 593.5873,-193.0419 601.4787,-200.1113 604.1649,-193.6472"/>
</g>
<!-- Node23 -->
<g id="node23" class="node">
<title>Node23</title>
<g id="a_node23"><a xlink:href="a00383_source.html" target="_top" xlink:title=" ">
<polygon fill="#ffffff" stroke="#000000" points="877.6247,-174 877.6247,-193 959.6247,-193 959.6247,-174 877.6247,-174"/>
<text text-anchor="middle" x="918.6247" y="-181" font-family="Helvetica,sans-Serif" font-size="10.00" fill="#000000">freetds/bytes.h</text>
</a>
</g>
</g>
<!-- Node1&#45;&gt;Node23 -->
<g id="edge37" class="edge">
<title>Node1&#45;&gt;Node23</title>
<path fill="none" stroke="#191970" d="M749.9481,-235.4245C780.2997,-226.1389 827.6283,-211.6405 868.6247,-199 871.7512,-198.036 874.9871,-197.0366 878.2399,-196.0309"/>
<polygon fill="#191970" stroke="#191970" points="879.4381,-199.3239 887.956,-193.0234 877.3683,-192.6369 879.4381,-199.3239"/>
</g>
<!-- Node24 -->
<g id="node24" class="node">
<title>Node24</title>
<g id="a_node24"><a xlink:href="a00410_source.html" target="_top" xlink:title=" ">
<polygon fill="#ffffff" stroke="#000000" points="12.6247,-56.5 12.6247,-75.5 92.6247,-75.5 92.6247,-56.5 12.6247,-56.5"/>
<text text-anchor="middle" x="52.6247" y="-63.5" font-family="Helvetica,sans-Serif" font-size="10.00" fill="#000000">freetds/iconv.h</text>
</a>
</g>
</g>
<!-- Node1&#45;&gt;Node24 -->
<g id="edge38" class="edge">
<title>Node1&#45;&gt;Node24</title>
<path fill="none" stroke="#191970" d="M655.9418,-240.4026C515.6404,-229.0682 181.5031,-195.9521 90.6247,-132 74.6352,-120.748 64.4387,-100.4733 58.6778,-85.354"/>
<polygon fill="#191970" stroke="#191970" points="61.9746,-84.1781 55.3815,-75.8846 55.3637,-86.4795 61.9746,-84.1781"/>
</g>
<!-- Node25 -->
<g id="node25" class="node">
<title>Node25</title>
<g id="a_node25"><a xlink:href="a00449_source.html" target="_top" xlink:title=" ">
<polygon fill="#ffffff" stroke="#000000" points="624.1247,-168.5 624.1247,-198.5 721.1247,-198.5 721.1247,-168.5 624.1247,-168.5"/>
<text text-anchor="start" x="632.1247" y="-186.5" font-family="Helvetica,sans-Serif" font-size="10.00" fill="#000000">freetds/utils/bjoern</text>
<text text-anchor="middle" x="672.6247" y="-175.5" font-family="Helvetica,sans-Serif" font-size="10.00" fill="#000000">&#45;utf8.h</text>
</a>
</g>
</g>
<!-- Node1&#45;&gt;Node25 -->
<g id="edge41" class="edge">
<title>Node1&#45;&gt;Node25</title>
<path fill="none" stroke="#191970" d="M711.4372,-235.3906C705.6728,-227.6839 697.3401,-216.5434 689.872,-206.5589"/>
<polygon fill="#191970" stroke="#191970" points="692.6699,-204.4561 683.8776,-198.5446 687.0644,-208.6488 692.6699,-204.4561"/>
</g>
<!-- Node26 -->
<g id="node26" class="node">
<title>Node26</title>
<g id="a_node26"><a xlink:href="a00197_source.html" target="_top" xlink:title=" ">
<polygon fill="#ffffff" stroke="#000000" points="978.1247,-174 978.1247,-193 1069.1247,-193 1069.1247,-174 978.1247,-174"/>
<text text-anchor="middle" x="1023.6247" y="-181" font-family="Helvetica,sans-Serif" font-size="10.00" fill="#000000">iconv_charsets.h</text>
</a>
</g>
</g>
<!-- Node1&#45;&gt;Node26 -->
<g id="edge43" class="edge">
<title>Node1&#45;&gt;Node26</title>
<path fill="none" stroke="#191970" d="M779.0604,-235.4942C829.8956,-227.1131 904.3606,-213.9338 968.6247,-199 972.9821,-197.9874 977.511,-196.8506 982.0157,-195.6648"/>
<polygon fill="#191970" stroke="#191970" points="983.0285,-199.0166 991.7628,-193.0197 981.1951,-192.261 983.0285,-199.0166"/>
</g>
<!-- Node6 -->
<g id="node6" class="node">
<title>Node6</title>
<g id="a_node6"><a xlink:title=" ">
<polygon fill="#ffffff" stroke="#bfbfbf" points="297.6247,-56.5 297.6247,-75.5 349.6247,-75.5 349.6247,-56.5 297.6247,-56.5"/>
<text text-anchor="middle" x="323.6247" y="-63.5" font-family="Helvetica,sans-Serif" font-size="10.00" fill="#000000">stdarg.h</text>
</a>
</g>
</g>
<!-- Node5&#45;&gt;Node6 -->
<g id="edge5" class="edge">
<title>Node5&#45;&gt;Node6</title>
<path fill="none" stroke="#191970" d="M576.9017,-173.9217C585.8727,-158.9106 599.701,-129.7309 584.6247,-112 552.3925,-74.0924 412.3591,-86.0428 363.6247,-76 362.3627,-75.7399 361.0805,-75.467 359.7871,-75.1843"/>
<polygon fill="#191970" stroke="#191970" points="360.3343,-71.7186 349.803,-72.8772 358.7582,-78.5389 360.3343,-71.7186"/>
</g>
<!-- Node7 -->
<g id="node7" class="node">
<title>Node7</title>
<g id="a_node7"><a xlink:title=" ">
<polygon fill="#ffffff" stroke="#bfbfbf" points="116.6247,-112.5 116.6247,-131.5 162.6247,-131.5 162.6247,-112.5 116.6247,-112.5"/>
<text text-anchor="middle" x="139.6247" y="-119.5" font-family="Helvetica,sans-Serif" font-size="10.00" fill="#000000">stdio.h</text>
</a>
</g>
</g>
<!-- Node5&#45;&gt;Node7 -->
<g id="edge6" class="edge">
<title>Node5&#45;&gt;Node7</title>
<path fill="none" stroke="#191970" d="M535.0419,-181.0024C466.5199,-175.7442 311.4789,-161.6718 172.8672,-131.9613"/>
<polygon fill="#191970" stroke="#191970" points="173.4327,-128.5025 162.917,-129.795 171.9435,-135.3423 173.4327,-128.5025"/>
</g>
<!-- Node8 -->
<g id="node8" class="node">
<title>Node8</title>
<g id="a_node8"><a xlink:href="a00443_source.html" target="_top" xlink:title=" ">
<polygon fill="#ffffff" stroke="#000000" points="180.6247,-112.5 180.6247,-131.5 224.6247,-131.5 224.6247,-112.5 180.6247,-112.5"/>
<text text-anchor="middle" x="202.6247" y="-119.5" font-family="Helvetica,sans-Serif" font-size="10.00" fill="#000000">time.h</text>
</a>
</g>
</g>
<!-- Node5&#45;&gt;Node8 -->
<g id="edge7" class="edge">
<title>Node5&#45;&gt;Node8</title>
<path fill="none" stroke="#191970" d="M534.7838,-178.136C475.8219,-169.2129 354.7133,-150.469 252.6247,-132 246.9625,-130.9756 240.9522,-129.8268 235.1357,-128.6827"/>
<polygon fill="#191970" stroke="#191970" points="235.484,-125.1832 224.9921,-126.6564 234.1127,-132.0476 235.484,-125.1832"/>
</g>
<!-- Node9 -->
<g id="node9" class="node">
<title>Node9</title>
<g id="a_node9"><a xlink:href="a00476_source.html" target="_top" xlink:title=" ">
<polygon fill="#ffffff" stroke="#000000" points="261.1247,-112.5 261.1247,-131.5 350.1247,-131.5 350.1247,-112.5 261.1247,-112.5"/>
<text text-anchor="middle" x="305.6247" y="-119.5" font-family="Helvetica,sans-Serif" font-size="10.00" fill="#000000">freetds/version.h</text>
</a>
</g>
</g>
<!-- Node5&#45;&gt;Node9 -->
<g id="edge9" class="edge">
<title>Node5&#45;&gt;Node9</title>
<path fill="none" stroke="#191970" d="M534.8856,-175.2058C488.9635,-164.5484 408.9457,-145.9783 356.6336,-133.8379"/>
<polygon fill="#191970" stroke="#191970" points="357.4133,-130.4259 346.8809,-131.5746 355.8308,-137.2447 357.4133,-130.4259"/>
</g>
<!-- Node10 -->
<g id="node10" class="node">
<title>Node10</title>
<g id="a_node10"><a xlink:href="a00512_source.html" target="_top" xlink:title=" ">
<polygon fill="#ffffff" stroke="#000000" points="980.6247,-56.5 980.6247,-75.5 1086.6247,-75.5 1086.6247,-56.5 980.6247,-56.5"/>
<text text-anchor="middle" x="1033.6247" y="-63.5" font-family="Helvetica,sans-Serif" font-size="10.00" fill="#000000">tds_sysdep_public.h</text>
</a>
</g>
</g>
<!-- Node5&#45;&gt;Node10 -->
<g id="edge10" class="edge">
<title>Node5&#45;&gt;Node10</title>
<path fill="none" stroke="#191970" d="M595.0742,-173.8618C601.6559,-171.6042 608.8349,-169.4402 615.6247,-168 661.0099,-158.373 999.7503,-165.7123 1031.6247,-132 1043.047,-119.9191 1042.1691,-100.3436 1039.2618,-85.6426"/>
<polygon fill="#191970" stroke="#191970" points="1042.5735,-84.4479 1036.8131,-75.5558 1035.771,-86.0993 1042.5735,-84.4479"/>
</g>
<!-- Node12 -->
<g id="node12" class="node">
<title>Node12</title>
<g id="a_node12"><a xlink:href="a00434_source.html" target="_top" xlink:title=" ">
<polygon fill="#ffffff" stroke="#000000" points="155.6247,-56.5 155.6247,-75.5 279.6247,-75.5 279.6247,-56.5 155.6247,-56.5"/>
<text text-anchor="middle" x="217.6247" y="-63.5" font-family="Helvetica,sans-Serif" font-size="10.00" fill="#000000">freetds/sysdep_private.h</text>
</a>
</g>
</g>
<!-- Node5&#45;&gt;Node12 -->
<g id="edge12" class="edge">
<title>Node5&#45;&gt;Node12</title>
<path fill="none" stroke="#191970" d="M571.1559,-173.9335C571.4462,-158.3939 569.5292,-127.8163 551.6247,-112 509.4868,-74.7767 361.8321,-83.177 289.989,-75.9766"/>
<polygon fill="#191970" stroke="#191970" points="290.302,-72.4893 279.9609,-74.7937 289.482,-79.4411 290.302,-72.4893"/>
</g>
<!-- Node13 -->
<g id="node13" class="node">
<title>Node13</title>
<g id="a_node13"><a xlink:href="a00440_source.html" target="_top" xlink:title=" ">
<polygon fill="#ffffff" stroke="#000000" points="937.1247,-112.5 937.1247,-131.5 1022.1247,-131.5 1022.1247,-112.5 937.1247,-112.5"/>
<text text-anchor="middle" x="979.6247" y="-119.5" font-family="Helvetica,sans-Serif" font-size="10.00" fill="#000000">freetds/thread.h</text>
</a>
</g>
</g>
<!-- Node5&#45;&gt;Node13 -->
<g id="edge13" class="edge">
<title>Node5&#45;&gt;Node13</title>
<path fill="none" stroke="#191970" d="M595.576,-173.8401C602.0276,-171.6383 609.0187,-169.5066 615.6247,-168 749.565,-137.4537 786.691,-151.8776 922.6247,-132 924.0848,-131.7865 925.565,-131.5646 927.0582,-131.3359"/>
<polygon fill="#191970" stroke="#191970" points="927.7017,-134.7776 937.0258,-129.7464 926.5993,-127.8649 927.7017,-134.7776"/>
</g>
<!-- Node14 -->
<g id="node14" class="node">
<title>Node14</title>
<g id="a_node14"><a xlink:href="a00380_source.html" target="_top" xlink:title=" ">
<polygon fill="#ffffff" stroke="#000000" points="368.6247,-112.5 368.6247,-131.5 444.6247,-131.5 444.6247,-112.5 368.6247,-112.5"/>
<text text-anchor="middle" x="406.6247" y="-119.5" font-family="Helvetica,sans-Serif" font-size="10.00" fill="#000000">freetds/bool.h</text>
</a>
</g>
</g>
<!-- Node5&#45;&gt;Node14 -->
<g id="edge15" class="edge">
<title>Node5&#45;&gt;Node14</title>
<path fill="none" stroke="#191970" d="M544.9997,-173.8906C517.1984,-163.4652 472.6403,-146.7559 441.6253,-135.1252"/>
<polygon fill="#191970" stroke="#191970" points="442.662,-131.776 432.0698,-131.5419 440.2041,-138.3303 442.662,-131.776"/>
</g>
<!-- Node15 -->
<g id="node15" class="node">
<title>Node15</title>
<g id="a_node15"><a xlink:href="a00413_source.html" target="_top" xlink:title=" ">
<polygon fill="#ffffff" stroke="#000000" points="857.6247,-56.5 857.6247,-75.5 947.6247,-75.5 947.6247,-56.5 857.6247,-56.5"/>
<text text-anchor="middle" x="902.6247" y="-63.5" font-family="Helvetica,sans-Serif" font-size="10.00" fill="#000000">freetds/macros.h</text>
</a>
</g>
</g>
<!-- Node5&#45;&gt;Node15 -->
<g id="edge16" class="edge">
<title>Node5&#45;&gt;Node15</title>
<path fill="none" stroke="#191970" d="M595.5908,-173.9037C602.0421,-171.7007 609.0293,-169.5525 615.6247,-168 675.4032,-153.929 844.8359,-174.0169 889.6247,-132 901.9774,-120.4117 904.5062,-100.7707 904.3775,-85.9203"/>
<polygon fill="#191970" stroke="#191970" points="907.8626,-85.5285 903.8797,-75.7108 900.8709,-85.8694 907.8626,-85.5285"/>
</g>
<!-- Node16 -->
<g id="node16" class="node">
<title>Node16</title>
<g id="a_node16"><a xlink:href="a00470_source.html" target="_top" xlink:title=" ">
<polygon fill="#ffffff" stroke="#000000" points="777.1247,-112.5 777.1247,-131.5 880.1247,-131.5 880.1247,-112.5 777.1247,-112.5"/>
<text text-anchor="middle" x="828.6247" y="-119.5" font-family="Helvetica,sans-Serif" font-size="10.00" fill="#000000">freetds/utils/string.h</text>
</a>
</g>
</g>
<!-- Node5&#45;&gt;Node16 -->
<g id="edge17" class="edge">
<title>Node5&#45;&gt;Node16</title>
<path fill="none" stroke="#191970" d="M596.6341,-173.9532C602.8144,-171.8486 609.4169,-169.7328 615.6247,-168 666.0575,-153.9224 724.2166,-141.6212 767.0066,-133.2904"/>
<polygon fill="#191970" stroke="#191970" points="767.8337,-136.6954 776.9896,-131.3644 766.5076,-129.8222 767.8337,-136.6954"/>
</g>
<!-- Node17 -->
<g id="node17" class="node">
<title>Node17</title>
<g id="a_node17"><a xlink:href="a00425_source.html" target="_top" xlink:title=" ">
<polygon fill="#ffffff" stroke="#000000" points="370.6247,-.5 370.6247,-19.5 462.6247,-19.5 462.6247,-.5 370.6247,-.5"/>
<text text-anchor="middle" x="416.6247" y="-7.5" font-family="Helvetica,sans-Serif" font-size="10.00" fill="#000000">freetds/pushvis.h</text>
</a>
</g>
</g>
<!-- Node5&#45;&gt;Node17 -->
<g id="edge34" class="edge">
<title>Node5&#45;&gt;Node17</title>
<path fill="none" stroke="#191970" d="M535.0051,-182.218C431.4586,-178.1283 136.042,-163.7534 107.6247,-132 32.4513,-48.0013 252.1678,-21.1517 360.3181,-13.1494"/>
<polygon fill="#191970" stroke="#191970" points="360.6951,-16.6316 370.4223,-12.4326 360.1997,-9.6491 360.6951,-16.6316"/>
</g>
<!-- Node18 -->
<g id="node18" class="node">
<title>Node18</title>
<g id="a_node18"><a xlink:href="a00419_source.html" target="_top" xlink:title=" ">
<polygon fill="#ffffff" stroke="#000000" points="651.6247,-.5 651.6247,-19.5 737.6247,-19.5 737.6247,-.5 651.6247,-.5"/>
<text text-anchor="middle" x="694.6247" y="-7.5" font-family="Helvetica,sans-Serif" font-size="10.00" fill="#000000">freetds/popvis.h</text>
</a>
</g>
</g>
<!-- Node5&#45;&gt;Node18 -->
<g id="edge36" class="edge">
<title>Node5&#45;&gt;Node18</title>
<path fill="none" stroke="#191970" d="M598.1925,-173.8784C603.9439,-171.9065 609.9751,-169.8647 615.6247,-168 666.0804,-151.3468 693.2153,-170.6971 729.6247,-132 753.1604,-106.9855 757.2676,-87.5202 743.6247,-56 738.391,-43.9081 728.2405,-33.5335 718.5292,-25.7139"/>
<polygon fill="#191970" stroke="#191970" points="720.3481,-22.7038 710.2427,-19.5209 716.1576,-28.3109 720.3481,-22.7038"/>
</g>
<!-- Node19 -->
<g id="node19" class="node">
<title>Node19</title>
<g id="a_node19"><a xlink:href="a00491_source.html" target="_top" xlink:title=" ">
<polygon fill="#ffffff" stroke="#000000" points="637.1247,-112.5 637.1247,-131.5 720.1247,-131.5 720.1247,-112.5 637.1247,-112.5"/>
<text text-anchor="middle" x="678.6247" y="-119.5" font-family="Helvetica,sans-Serif" font-size="10.00" fill="#000000">replacements.h</text>
</a>
</g>
</g>
<!-- Node5&#45;&gt;Node19 -->
<g id="edge21" class="edge">
<title>Node5&#45;&gt;Node19</title>
<path fill="none" stroke="#191970" d="M587.4997,-173.8906C605.0945,-163.8713 632.8813,-148.0483 653.1488,-136.5071"/>
<polygon fill="#191970" stroke="#191970" points="654.9103,-139.5318 661.8682,-131.5419 651.4464,-133.4489 654.9103,-139.5318"/>
</g>
<!-- Node22 -->
<g id="node22" class="node">
<title>Node22</title>
<g id="a_node22"><a xlink:href="a00422_source.html" target="_top" xlink:title=" ">
<polygon fill="#ffffff" stroke="#000000" points="462.6247,-112.5 462.6247,-131.5 542.6247,-131.5 542.6247,-112.5 462.6247,-112.5"/>
<text text-anchor="middle" x="502.6247" y="-119.5" font-family="Helvetica,sans-Serif" font-size="10.00" fill="#000000">freetds/proto.h</text>
</a>
</g>
</g>
<!-- Node5&#45;&gt;Node22 -->
<g id="edge35" class="edge">
<title>Node5&#45;&gt;Node22</title>
<path fill="none" stroke="#191970" d="M559.9997,-173.8906C549.5816,-164.4683 533.4883,-149.9134 520.9943,-138.6137"/>
<polygon fill="#191970" stroke="#191970" points="523.1639,-135.8568 513.3995,-131.7449 518.4685,-141.0484 523.1639,-135.8568"/>
</g>
<!-- Node8&#45;&gt;Node8 -->
<g id="edge8" class="edge">
<title>Node8&#45;&gt;Node8</title>
<path fill="none" stroke="#191970" d="M219.893,-131.5746C231.4121,-134.2697 242.6247,-131.0781 242.6247,-122 242.6247,-115.7588 237.325,-112.2999 230.2695,-111.6234"/>
<polygon fill="#191970" stroke="#191970" points="229.5935,-108.1651 219.893,-112.4254 230.133,-115.1443 229.5935,-108.1651"/>
</g>
<!-- Node11 -->
<g id="node11" class="node">
<title>Node11</title>
<g id="a_node11"><a xlink:title=" ">
<polygon fill="#ffffff" stroke="#bfbfbf" points="1011.6247,-.5 1011.6247,-19.5 1055.6247,-19.5 1055.6247,-.5 1011.6247,-.5"/>
<text text-anchor="middle" x="1033.6247" y="-7.5" font-family="Helvetica,sans-Serif" font-size="10.00" fill="#000000">float.h</text>
</a>
</g>
</g>
<!-- Node10&#45;&gt;Node11 -->
<g id="edge11" class="edge">
<title>Node10&#45;&gt;Node11</title>
<path fill="none" stroke="#191970" d="M1033.6247,-56.2455C1033.6247,-48.9382 1033.6247,-38.6944 1033.6247,-29.7046"/>
<polygon fill="#191970" stroke="#191970" points="1037.1248,-29.6426 1033.6247,-19.6427 1030.1248,-29.6427 1037.1248,-29.6426"/>
</g>
<!-- Node13&#45;&gt;Node10 -->
<g id="edge14" class="edge">
<title>Node13&#45;&gt;Node10</title>
<path fill="none" stroke="#191970" d="M989.0308,-112.2455C996.774,-104.2155 1007.9367,-92.6394 1017.1565,-83.0781"/>
<polygon fill="#191970" stroke="#191970" points="1019.9045,-85.2706 1024.3264,-75.6427 1014.8656,-80.4117 1019.9045,-85.2706"/>
</g>
<!-- Node16&#45;&gt;Node15 -->
<g id="edge18" class="edge">
<title>Node16&#45;&gt;Node15</title>
<path fill="none" stroke="#191970" d="M841.5145,-112.2455C852.5501,-103.8943 868.6539,-91.7076 881.56,-81.9408"/>
<polygon fill="#191970" stroke="#191970" points="884.0206,-84.4681 889.8826,-75.6427 879.7964,-78.8862 884.0206,-84.4681"/>
</g>
<!-- Node16&#45;&gt;Node17 -->
<g id="edge19" class="edge">
<title>Node16&#45;&gt;Node17</title>
<path fill="none" stroke="#191970" d="M777.0677,-115.2336C709.7498,-106.0676 595.7686,-89.3207 555.6247,-76 537.1363,-69.8651 534.1439,-64.5167 516.6247,-56 493.5839,-44.799 467.2509,-32.7144 447.3927,-23.7434"/>
<polygon fill="#191970" stroke="#191970" points="448.7623,-20.5217 438.207,-19.6071 445.8881,-26.9044 448.7623,-20.5217"/>
</g>
<!-- Node16&#45;&gt;Node18 -->
<g id="edge20" class="edge">
<title>Node16&#45;&gt;Node18</title>
<path fill="none" stroke="#191970" d="M826.6888,-112.2127C823.4253,-98.0826 815.5632,-71.9212 799.6247,-56 784.267,-40.659 762.9353,-30.0401 743.5082,-22.9043"/>
<polygon fill="#191970" stroke="#191970" points="744.4573,-19.5294 733.8626,-19.5798 742.1763,-26.1474 744.4573,-19.5294"/>
</g>
<!-- Node19&#45;&gt;Node6 -->
<g id="edge22" class="edge">
<title>Node19&#45;&gt;Node6</title>
<path fill="none" stroke="#191970" d="M637.065,-114.3946C632.2015,-113.5591 627.3066,-112.7431 622.6247,-112 507.8438,-93.7816 477.717,-98.1251 363.6247,-76 362.3598,-75.7547 361.075,-75.4945 359.7794,-75.2226"/>
<polygon fill="#191970" stroke="#191970" points="360.3106,-71.7545 349.7853,-72.9657 358.7687,-78.5826 360.3106,-71.7545"/>
</g>
<!-- Node19&#45;&gt;Node10 -->
<g id="edge23" class="edge">
<title>Node19&#45;&gt;Node10</title>
<path fill="none" stroke="#191970" d="M720.3916,-115.4114C782.1844,-105.6638 898.4156,-87.3288 970.5986,-75.9421"/>
<polygon fill="#191970" stroke="#191970" points="971.1489,-79.3987 980.4814,-74.3832 970.0581,-72.4842 971.1489,-79.3987"/>
</g>
<!-- Node19&#45;&gt;Node12 -->
<g id="edge24" class="edge">
<title>Node19&#45;&gt;Node12</title>
<path fill="none" stroke="#191970" d="M637.0291,-117.4051C567.4241,-109.6483 422.6921,-93.2296 289.8978,-76.1433"/>
<polygon fill="#191970" stroke="#191970" points="290.3179,-72.6686 279.9521,-74.8594 289.4216,-79.6109 290.3179,-72.6686"/>
</g>
<!-- Node19&#45;&gt;Node17 -->
<g id="edge32" class="edge">
<title>Node19&#45;&gt;Node17</title>
<path fill="none" stroke="#191970" d="M637.0532,-116.6258C560.7352,-106.5628 405.3365,-85.0768 397.6247,-76 386.2252,-62.5827 394.2966,-42.6864 403.1704,-28.2486"/>
<polygon fill="#191970" stroke="#191970" points="406.2589,-29.9272 408.921,-19.6722 400.4448,-26.0288 406.2589,-29.9272"/>
</g>
<!-- Node19&#45;&gt;Node18 -->
<g id="edge33" class="edge">
<title>Node19&#45;&gt;Node18</title>
<path fill="none" stroke="#191970" d="M695.0424,-112.2212C706.8323,-104.1641 721.7994,-91.5536 728.6247,-76 736.0879,-58.9927 724.3777,-40.221 712.7138,-27.0595"/>
<polygon fill="#191970" stroke="#191970" points="715.0715,-24.4609 705.6291,-19.6554 710.0138,-29.3004 715.0715,-24.4609"/>
</g>
<!-- Node20 -->
<g id="node20" class="node">
<title>Node20</title>
<g id="a_node20"><a xlink:href="a00488_source.html" target="_top" xlink:title=" ">
<polygon fill="#ffffff" stroke="#000000" points="564.1247,-56.5 564.1247,-75.5 719.1247,-75.5 719.1247,-56.5 564.1247,-56.5"/>
<text text-anchor="middle" x="641.6247" y="-63.5" font-family="Helvetica,sans-Serif" font-size="10.00" fill="#000000">replacements/readpassphrase.h</text>
</a>
</g>
</g>
<!-- Node19&#45;&gt;Node20 -->
<g id="edge25" class="edge">
<title>Node19&#45;&gt;Node20</title>
<path fill="none" stroke="#191970" d="M672.1798,-112.2455C667.0865,-104.5367 659.8339,-93.5598 653.6727,-84.2348"/>
<polygon fill="#191970" stroke="#191970" points="656.4285,-82.0566 647.9958,-75.6427 650.5882,-85.9155 656.4285,-82.0566"/>
</g>
<!-- Node21 -->
<g id="node21" class="node">
<title>Node21</title>
<g id="a_node21"><a xlink:href="a00485.html" target="_top" xlink:title="Provide poll call where missing.">
<polygon fill="#ffffff" stroke="#000000" points="406.1247,-56.5 406.1247,-75.5 507.1247,-75.5 507.1247,-56.5 406.1247,-56.5"/>
<text text-anchor="middle" x="456.6247" y="-63.5" font-family="Helvetica,sans-Serif" font-size="10.00" fill="#000000">replacements/poll.h</text>
</a>
</g>
</g>
<!-- Node19&#45;&gt;Node21 -->
<g id="edge28" class="edge">
<title>Node19&#45;&gt;Node21</title>
<path fill="none" stroke="#191970" d="M640.7138,-112.4369C602.9597,-102.9133 544.8982,-88.2672 504.0983,-77.9753"/>
<polygon fill="#191970" stroke="#191970" points="504.9316,-74.576 494.3793,-75.5237 503.2194,-81.3633 504.9316,-74.576"/>
</g>
<!-- Node20&#45;&gt;Node17 -->
<g id="edge26" class="edge">
<title>Node20&#45;&gt;Node17</title>
<path fill="none" stroke="#191970" d="M603.2015,-56.4369C564.9372,-46.9133 506.091,-32.2672 464.7398,-21.9753"/>
<polygon fill="#191970" stroke="#191970" points="465.4388,-18.5426 454.8894,-19.5237 463.7481,-25.3353 465.4388,-18.5426"/>
</g>
<!-- Node20&#45;&gt;Node18 -->
<g id="edge27" class="edge">
<title>Node20&#45;&gt;Node18</title>
<path fill="none" stroke="#191970" d="M650.8566,-56.2455C658.4564,-48.2155 669.4124,-36.6394 678.4615,-27.0781"/>
<polygon fill="#191970" stroke="#191970" points="681.1668,-29.3115 685.4986,-19.6427 676.0827,-24.4998 681.1668,-29.3115"/>
</g>
<!-- Node21&#45;&gt;Node2 -->
<g id="edge29" class="edge">
<title>Node21&#45;&gt;Node2</title>
<path fill="none" stroke="#191970" d="M408.6384,-56.4369C352.7355,-45.2961 261.6572,-27.1453 211.5292,-17.1554"/>
<polygon fill="#191970" stroke="#191970" points="211.9727,-13.675 201.4814,-15.1529 210.6045,-20.54 211.9727,-13.675"/>
</g>
<!-- Node21&#45;&gt;Node17 -->
<g id="edge30" class="edge">
<title>Node21&#45;&gt;Node17</title>
<path fill="none" stroke="#191970" d="M449.6572,-56.2455C444.0936,-48.4564 436.1467,-37.3308 429.4418,-27.9439"/>
<polygon fill="#191970" stroke="#191970" points="432.1728,-25.7457 423.5123,-19.6427 426.4767,-29.8144 432.1728,-25.7457"/>
</g>
<!-- Node21&#45;&gt;Node18 -->
<g id="edge31" class="edge">
<title>Node21&#45;&gt;Node18</title>
<path fill="none" stroke="#191970" d="M497.2679,-56.4369C537.9142,-46.8731 600.516,-32.1432 644.2834,-21.845"/>
<polygon fill="#191970" stroke="#191970" points="645.2166,-25.2211 654.1491,-19.5237 643.6133,-18.4072 645.2166,-25.2211"/>
</g>
<!-- Node24&#45;&gt;Node17 -->
<g id="edge39" class="edge">
<title>Node24&#45;&gt;Node17</title>
<path fill="none" stroke="#191970" d="M92.7011,-58.4135C97.3907,-57.5746 102.1105,-56.7527 106.6247,-56 195.2095,-41.2302 298.4363,-26.3831 360.5966,-17.6987"/>
<polygon fill="#191970" stroke="#191970" points="361.1653,-21.1533 370.5866,-16.3067 360.1992,-14.2203 361.1653,-21.1533"/>
</g>
<!-- Node24&#45;&gt;Node18 -->
<g id="edge40" class="edge">
<title>Node24&#45;&gt;Node18</title>
<path fill="none" stroke="#191970" d="M92.8585,-61.5211C109.493,-59.721 128.9799,-57.6789 146.6247,-56 327.967,-38.7452 543.401,-21.6586 641.3777,-14.0741"/>
<polygon fill="#191970" stroke="#191970" points="641.9119,-17.5433 651.6125,-13.2833 641.3726,-10.5641 641.9119,-17.5433"/>
</g>
<!-- Node25&#45;&gt;Node10 -->
<g id="edge42" class="edge">
<title>Node25&#45;&gt;Node10</title>
<path fill="none" stroke="#191970" d="M721.2348,-169.9281C724.4008,-169.2244 727.5508,-168.5729 730.6247,-168 804.0132,-154.3227 1014.7462,-187.5435 1064.6247,-132 1077.4707,-117.695 1064.1639,-97.1339 1051.2139,-82.7745"/>
<polygon fill="#191970" stroke="#191970" points="1053.6814,-80.291 1044.2245,-75.5142 1048.6384,-85.1458 1053.6814,-80.291"/>
</g>
</g>
</svg>
