<?xml version="1.0" encoding="UTF-8" standalone="no"?>
<!DOCTYPE svg PUBLIC "-//W3C//DTD SVG 1.1//EN"
 "http://www.w3.org/Graphics/SVG/1.1/DTD/svg11.dtd">
<!-- Generated by graphviz version 2.40.1 (20161225.0304)
 -->
<!-- Title: src/tds/iconv.c Pages: 1 -->
<svg width="1519pt" height="252pt"
 viewBox="0.00 0.00 1519.11 252.00" xmlns="http://www.w3.org/2000/svg" xmlns:xlink="http://www.w3.org/1999/xlink">
<g id="graph0" class="graph" transform="scale(1 1) rotate(0) translate(4 248)">
<title>src/tds/iconv.c</title>
<polygon fill="#ffffff" stroke="transparent" points="-4,4 -4,-248 1515.1136,-248 1515.1136,4 -4,4"/>
<!-- Node1 -->
<g id="node1" class="node">
<title>Node1</title>
<g id="a_node1"><a xlink:title="Handle character conversions to/from server.">
<polygon fill="#bfbfbf" stroke="#000000" points="1010.1136,-224.5 1010.1136,-243.5 1090.1136,-243.5 1090.1136,-224.5 1010.1136,-224.5"/>
<text text-anchor="middle" x="1050.1136" y="-231.5" font-family="Helvetica,sans-Serif" font-size="10.00" fill="#000000">src/tds/iconv.c</text>
</a>
</g>
</g>
<!-- Node2 -->
<g id="node2" class="node">
<title>Node2</title>
<g id="a_node2"><a xlink:href="a00356_source.html" target="_top" xlink:title=" ">
<polygon fill="#ffffff" stroke="#000000" points="6.6136,-.5 6.6136,-19.5 57.6136,-19.5 57.6136,-.5 6.6136,-.5"/>
<text text-anchor="middle" x="32.1136" y="-7.5" font-family="Helvetica,sans-Serif" font-size="10.00" fill="#000000">config.h</text>
</a>
</g>
</g>
<!-- Node1&#45;&gt;Node2 -->
<g id="edge1" class="edge">
<title>Node1&#45;&gt;Node2</title>
<path fill="none" stroke="#191970" d="M1009.9567,-233.1782C827.3105,-229.0327 80.9552,-207.5399 13.1136,-132 -12.5414,-103.4339 7.0054,-55.1171 21.0601,-28.6722"/>
<polygon fill="#191970" stroke="#191970" points="24.2534,-30.1323 26.072,-19.6947 18.1414,-26.72 24.2534,-30.1323"/>
</g>
<!-- Node3 -->
<g id="node3" class="node">
<title>Node3</title>
<g id="a_node3"><a xlink:title=" ">
<polygon fill="#ffffff" stroke="#bfbfbf" points="959.1136,-56.5 959.1136,-75.5 1011.1136,-75.5 1011.1136,-56.5 959.1136,-56.5"/>
<text text-anchor="middle" x="985.1136" y="-63.5" font-family="Helvetica,sans-Serif" font-size="10.00" fill="#000000">stdarg.h</text>
</a>
</g>
</g>
<!-- Node1&#45;&gt;Node3 -->
<g id="edge2" class="edge">
<title>Node1&#45;&gt;Node3</title>
<path fill="none" stroke="#191970" d="M1047.8814,-224.2368C1042.8951,-203.1841 1029.8784,-152.1721 1012.1136,-112 1007.8687,-102.4009 1002.0899,-92.2845 996.9677,-83.9906"/>
<polygon fill="#191970" stroke="#191970" points="999.9021,-82.0827 991.5801,-75.5257 993.9967,-85.8412 999.9021,-82.0827"/>
</g>
<!-- Node4 -->
<g id="node4" class="node">
<title>Node4</title>
<g id="a_node4"><a xlink:title=" ">
<polygon fill="#ffffff" stroke="#bfbfbf" points="863.1136,-112.5 863.1136,-131.5 909.1136,-131.5 909.1136,-112.5 863.1136,-112.5"/>
<text text-anchor="middle" x="886.1136" y="-119.5" font-family="Helvetica,sans-Serif" font-size="10.00" fill="#000000">stdio.h</text>
</a>
</g>
</g>
<!-- Node1&#45;&gt;Node4 -->
<g id="edge3" class="edge">
<title>Node1&#45;&gt;Node4</title>
<path fill="none" stroke="#191970" d="M1036.1311,-224.4509C1007.6885,-205.0268 942.8844,-160.7703 908.5018,-137.2895"/>
<polygon fill="#191970" stroke="#191970" points="910.2927,-134.2742 900.0608,-131.5249 906.3449,-140.0549 910.2927,-134.2742"/>
</g>
<!-- Node5 -->
<g id="node5" class="node">
<title>Node5</title>
<g id="a_node5"><a xlink:title=" ">
<polygon fill="#ffffff" stroke="#bfbfbf" points="1097.1136,-168.5 1097.1136,-187.5 1149.1136,-187.5 1149.1136,-168.5 1097.1136,-168.5"/>
<text text-anchor="middle" x="1123.1136" y="-175.5" font-family="Helvetica,sans-Serif" font-size="10.00" fill="#000000">assert.h</text>
</a>
</g>
</g>
<!-- Node1&#45;&gt;Node5 -->
<g id="edge4" class="edge">
<title>Node1&#45;&gt;Node5</title>
<path fill="none" stroke="#191970" d="M1062.8292,-224.2455C1073.7156,-215.8943 1089.6019,-203.7076 1102.3336,-193.9408"/>
<polygon fill="#191970" stroke="#191970" points="1104.7397,-196.5063 1110.5437,-187.6427 1100.479,-190.9523 1104.7397,-196.5063"/>
</g>
<!-- Node6 -->
<g id="node6" class="node">
<title>Node6</title>
<g id="a_node6"><a xlink:href="a00437.html" target="_top" xlink:title=" ">
<polygon fill="#ffffff" stroke="#000000" points="542.6136,-168.5 542.6136,-187.5 613.6136,-187.5 613.6136,-168.5 542.6136,-168.5"/>
<text text-anchor="middle" x="578.1136" y="-175.5" font-family="Helvetica,sans-Serif" font-size="10.00" fill="#000000">freetds/tds.h</text>
</a>
</g>
</g>
<!-- Node1&#45;&gt;Node6 -->
<g id="edge5" class="edge">
<title>Node1&#45;&gt;Node6</title>
<path fill="none" stroke="#191970" d="M1009.8711,-229.2255C922.5036,-218.8598 715.9276,-194.3508 623.8191,-183.4227"/>
<polygon fill="#191970" stroke="#191970" points="624.0358,-179.9239 613.693,-182.2213 623.211,-186.8752 624.0358,-179.9239"/>
</g>
<!-- Node13 -->
<g id="node13" class="node">
<title>Node13</title>
<g id="a_node13"><a xlink:href="a00380_source.html" target="_top" xlink:title=" ">
<polygon fill="#ffffff" stroke="#000000" points="927.1136,-112.5 927.1136,-131.5 1003.1136,-131.5 1003.1136,-112.5 927.1136,-112.5"/>
<text text-anchor="middle" x="965.1136" y="-119.5" font-family="Helvetica,sans-Serif" font-size="10.00" fill="#000000">freetds/bool.h</text>
</a>
</g>
</g>
<!-- Node1&#45;&gt;Node13 -->
<g id="edge41" class="edge">
<title>Node1&#45;&gt;Node13</title>
<path fill="none" stroke="#191970" d="M1042.8665,-224.4509C1028.6268,-205.688 996.8025,-163.7548 978.5906,-139.758"/>
<polygon fill="#191970" stroke="#191970" points="981.1758,-137.3747 972.3423,-131.5249 975.5998,-141.6065 981.1758,-137.3747"/>
</g>
<!-- Node22 -->
<g id="node22" class="node">
<title>Node22</title>
<g id="a_node22"><a xlink:href="a00410_source.html" target="_top" xlink:title=" ">
<polygon fill="#ffffff" stroke="#000000" points="1029.1136,-56.5 1029.1136,-75.5 1109.1136,-75.5 1109.1136,-56.5 1029.1136,-56.5"/>
<text text-anchor="middle" x="1069.1136" y="-63.5" font-family="Helvetica,sans-Serif" font-size="10.00" fill="#000000">freetds/iconv.h</text>
</a>
</g>
</g>
<!-- Node1&#45;&gt;Node22 -->
<g id="edge38" class="edge">
<title>Node1&#45;&gt;Node22</title>
<path fill="none" stroke="#191970" d="M1051.1896,-224.4862C1054.193,-197.9293 1062.7164,-122.5651 1066.833,-86.1655"/>
<polygon fill="#191970" stroke="#191970" points="1070.3561,-86.1579 1068.0021,-75.8279 1063.4004,-85.3712 1070.3561,-86.1579"/>
</g>
<!-- Node23 -->
<g id="node23" class="node">
<title>Node23</title>
<g id="a_node23"><a xlink:href="a00383_source.html" target="_top" xlink:title=" ">
<polygon fill="#ffffff" stroke="#000000" points="1167.1136,-168.5 1167.1136,-187.5 1249.1136,-187.5 1249.1136,-168.5 1167.1136,-168.5"/>
<text text-anchor="middle" x="1208.1136" y="-175.5" font-family="Helvetica,sans-Serif" font-size="10.00" fill="#000000">freetds/bytes.h</text>
</a>
</g>
</g>
<!-- Node1&#45;&gt;Node23 -->
<g id="edge42" class="edge">
<title>Node1&#45;&gt;Node23</title>
<path fill="none" stroke="#191970" d="M1077.2748,-224.3733C1103.3203,-215.1419 1142.8252,-201.1402 1171.6115,-190.9375"/>
<polygon fill="#191970" stroke="#191970" points="1173.0506,-194.1408 1181.3069,-187.5011 1170.7121,-187.5429 1173.0506,-194.1408"/>
</g>
<!-- Node24 -->
<g id="node24" class="node">
<title>Node24</title>
<g id="a_node24"><a xlink:href="a00404_source.html" target="_top" xlink:title=" ">
<polygon fill="#ffffff" stroke="#000000" points="1267.1136,-168.5 1267.1136,-187.5 1369.1136,-187.5 1369.1136,-168.5 1267.1136,-168.5"/>
<text text-anchor="middle" x="1318.1136" y="-175.5" font-family="Helvetica,sans-Serif" font-size="10.00" fill="#000000">freetds/encodings.h</text>
</a>
</g>
</g>
<!-- Node1&#45;&gt;Node24 -->
<g id="edge43" class="edge">
<title>Node1&#45;&gt;Node24</title>
<path fill="none" stroke="#191970" d="M1090.2359,-225.6162C1135.9589,-216.0622 1210.987,-200.3847 1262.3745,-189.647"/>
<polygon fill="#191970" stroke="#191970" points="1263.2485,-193.04 1272.3211,-187.5686 1261.8166,-186.188 1263.2485,-193.04"/>
</g>
<!-- Node25 -->
<g id="node25" class="node">
<title>Node25</title>
<g id="a_node25"><a xlink:href="a00389_source.html" target="_top" xlink:title=" ">
<polygon fill="#ffffff" stroke="#000000" points="1387.1136,-168.5 1387.1136,-187.5 1511.1136,-187.5 1511.1136,-168.5 1387.1136,-168.5"/>
<text text-anchor="middle" x="1449.1136" y="-175.5" font-family="Helvetica,sans-Serif" font-size="10.00" fill="#000000">freetds/charset_lookup.h</text>
</a>
</g>
</g>
<!-- Node1&#45;&gt;Node25 -->
<g id="edge44" class="edge">
<title>Node1&#45;&gt;Node25</title>
<path fill="none" stroke="#191970" d="M1090.2563,-228.378C1150.2714,-219.9711 1267.2252,-203.5818 1376.87,-188.1742"/>
<polygon fill="#191970" stroke="#191970" points="1377.3602,-191.6398 1386.7758,-186.7821 1376.386,-184.7079 1377.3602,-191.6398"/>
</g>
<!-- Node6&#45;&gt;Node3 -->
<g id="edge6" class="edge">
<title>Node6&#45;&gt;Node3</title>
<path fill="none" stroke="#191970" d="M613.6683,-171.5668C653.3284,-163.9518 719.1392,-149.9999 774.1136,-132 795.6881,-124.936 799.6908,-119.5114 821.1136,-112 874.4324,-93.305 891.1462,-92.2398 949.0812,-76.2517"/>
<polygon fill="#191970" stroke="#191970" points="950.0554,-79.6136 958.7453,-73.5526 948.1723,-72.8717 950.0554,-79.6136"/>
</g>
<!-- Node6&#45;&gt;Node4 -->
<g id="edge7" class="edge">
<title>Node6&#45;&gt;Node4</title>
<path fill="none" stroke="#191970" d="M613.8355,-173.0513C665.8735,-165.5905 765.4448,-150.3634 849.1136,-132 850.3932,-131.7192 851.6948,-131.4224 853.0074,-131.1138"/>
<polygon fill="#191970" stroke="#191970" points="854.2551,-134.4094 863.105,-128.5845 852.5543,-127.6192 854.2551,-134.4094"/>
</g>
<!-- Node7 -->
<g id="node7" class="node">
<title>Node7</title>
<g id="a_node7"><a xlink:href="a00443_source.html" target="_top" xlink:title=" ">
<polygon fill="#ffffff" stroke="#000000" points="164.1136,-112.5 164.1136,-131.5 208.1136,-131.5 208.1136,-112.5 164.1136,-112.5"/>
<text text-anchor="middle" x="186.1136" y="-119.5" font-family="Helvetica,sans-Serif" font-size="10.00" fill="#000000">time.h</text>
</a>
</g>
</g>
<!-- Node6&#45;&gt;Node7 -->
<g id="edge8" class="edge">
<title>Node6&#45;&gt;Node7</title>
<path fill="none" stroke="#191970" d="M542.4412,-174.0261C479.9708,-166.8864 346.7861,-150.861 235.1136,-132 229.7924,-131.1013 224.1665,-130.0495 218.6977,-128.9719"/>
<polygon fill="#191970" stroke="#191970" points="218.9921,-125.4603 208.4957,-126.9014 217.5998,-132.3205 218.9921,-125.4603"/>
</g>
<!-- Node8 -->
<g id="node8" class="node">
<title>Node8</title>
<g id="a_node8"><a xlink:href="a00476_source.html" target="_top" xlink:title=" ">
<polygon fill="#ffffff" stroke="#000000" points="244.6136,-112.5 244.6136,-131.5 333.6136,-131.5 333.6136,-112.5 244.6136,-112.5"/>
<text text-anchor="middle" x="289.1136" y="-119.5" font-family="Helvetica,sans-Serif" font-size="10.00" fill="#000000">freetds/version.h</text>
</a>
</g>
</g>
<!-- Node6&#45;&gt;Node8 -->
<g id="edge10" class="edge">
<title>Node6&#45;&gt;Node8</title>
<path fill="none" stroke="#191970" d="M542.3867,-171.0771C492.666,-161.4427 402.1634,-143.9058 343.886,-132.6133"/>
<polygon fill="#191970" stroke="#191970" points="344.2364,-129.1162 333.7531,-130.6499 342.9047,-135.9884 344.2364,-129.1162"/>
</g>
<!-- Node9 -->
<g id="node9" class="node">
<title>Node9</title>
<g id="a_node9"><a xlink:href="a00512_source.html" target="_top" xlink:title=" ">
<polygon fill="#ffffff" stroke="#000000" points="83.1136,-56.5 83.1136,-75.5 189.1136,-75.5 189.1136,-56.5 83.1136,-56.5"/>
<text text-anchor="middle" x="136.1136" y="-63.5" font-family="Helvetica,sans-Serif" font-size="10.00" fill="#000000">tds_sysdep_public.h</text>
</a>
</g>
</g>
<!-- Node6&#45;&gt;Node9 -->
<g id="edge11" class="edge">
<title>Node6&#45;&gt;Node9</title>
<path fill="none" stroke="#191970" d="M542.5255,-176.38C446.01,-171.6763 184.5432,-156.7585 155.1136,-132 141.8806,-120.8673 137.5432,-101.1656 136.2694,-86.1771"/>
<polygon fill="#191970" stroke="#191970" points="139.7505,-85.6832 135.7958,-75.8541 132.7578,-86.004 139.7505,-85.6832"/>
</g>
<!-- Node11 -->
<g id="node11" class="node">
<title>Node11</title>
<g id="a_node11"><a xlink:href="a00434_source.html" target="_top" xlink:title=" ">
<polygon fill="#ffffff" stroke="#000000" points="817.1136,-56.5 817.1136,-75.5 941.1136,-75.5 941.1136,-56.5 817.1136,-56.5"/>
<text text-anchor="middle" x="879.1136" y="-63.5" font-family="Helvetica,sans-Serif" font-size="10.00" fill="#000000">freetds/sysdep_private.h</text>
</a>
</g>
</g>
<!-- Node6&#45;&gt;Node11 -->
<g id="edge13" class="edge">
<title>Node6&#45;&gt;Node11</title>
<path fill="none" stroke="#191970" d="M613.8245,-169.57C646.8102,-161.3685 696.9344,-147.8482 739.1136,-132 750.1682,-127.8464 812.0556,-98.2759 849.7511,-80.1539"/>
<polygon fill="#191970" stroke="#191970" points="851.7299,-83.0859 859.2236,-75.5962 848.6949,-76.778 851.7299,-83.0859"/>
</g>
<!-- Node12 -->
<g id="node12" class="node">
<title>Node12</title>
<g id="a_node12"><a xlink:href="a00440_source.html" target="_top" xlink:title=" ">
<polygon fill="#ffffff" stroke="#000000" points="22.6136,-112.5 22.6136,-131.5 107.6136,-131.5 107.6136,-112.5 22.6136,-112.5"/>
<text text-anchor="middle" x="65.1136" y="-119.5" font-family="Helvetica,sans-Serif" font-size="10.00" fill="#000000">freetds/thread.h</text>
</a>
</g>
</g>
<!-- Node6&#45;&gt;Node12 -->
<g id="edge14" class="edge">
<title>Node6&#45;&gt;Node12</title>
<path fill="none" stroke="#191970" d="M542.5326,-175.3021C465.6133,-169.2744 278.1807,-153.5325 122.1136,-132 120.6518,-131.7983 119.1701,-131.5869 117.6756,-131.3674"/>
<polygon fill="#191970" stroke="#191970" points="118.1198,-127.8945 107.7018,-129.8221 117.0479,-134.812 118.1198,-127.8945"/>
</g>
<!-- Node6&#45;&gt;Node13 -->
<g id="edge16" class="edge">
<title>Node6&#45;&gt;Node13</title>
<path fill="none" stroke="#191970" d="M613.9836,-174.0457C674.3765,-167.1934 800.383,-152.0618 916.7888,-132.1278"/>
<polygon fill="#191970" stroke="#191970" points="917.6831,-135.5252 926.9406,-130.3727 916.4905,-128.6275 917.6831,-135.5252"/>
</g>
<!-- Node14 -->
<g id="node14" class="node">
<title>Node14</title>
<g id="a_node14"><a xlink:href="a00413_source.html" target="_top" xlink:title=" ">
<polygon fill="#ffffff" stroke="#000000" points="264.1136,-56.5 264.1136,-75.5 354.1136,-75.5 354.1136,-56.5 264.1136,-56.5"/>
<text text-anchor="middle" x="309.1136" y="-63.5" font-family="Helvetica,sans-Serif" font-size="10.00" fill="#000000">freetds/macros.h</text>
</a>
</g>
</g>
<!-- Node6&#45;&gt;Node14 -->
<g id="edge17" class="edge">
<title>Node6&#45;&gt;Node14</title>
<path fill="none" stroke="#191970" d="M565.6703,-168.3767C546.8228,-154.2134 509.4763,-127.7362 474.1136,-112 438.9035,-96.3317 397.0583,-84.7386 364.3188,-77.11"/>
<polygon fill="#191970" stroke="#191970" points="364.9952,-73.6746 354.468,-74.8697 363.4428,-80.5003 364.9952,-73.6746"/>
</g>
<!-- Node15 -->
<g id="node15" class="node">
<title>Node15</title>
<g id="a_node15"><a xlink:href="a00470_source.html" target="_top" xlink:title=" ">
<polygon fill="#ffffff" stroke="#000000" points="526.6136,-112.5 526.6136,-131.5 629.6136,-131.5 629.6136,-112.5 526.6136,-112.5"/>
<text text-anchor="middle" x="578.1136" y="-119.5" font-family="Helvetica,sans-Serif" font-size="10.00" fill="#000000">freetds/utils/string.h</text>
</a>
</g>
</g>
<!-- Node6&#45;&gt;Node15 -->
<g id="edge18" class="edge">
<title>Node6&#45;&gt;Node15</title>
<path fill="none" stroke="#191970" d="M578.1136,-168.2455C578.1136,-160.9382 578.1136,-150.6944 578.1136,-141.7046"/>
<polygon fill="#191970" stroke="#191970" points="581.6137,-141.6426 578.1136,-131.6427 574.6137,-141.6427 581.6137,-141.6426"/>
</g>
<!-- Node16 -->
<g id="node16" class="node">
<title>Node16</title>
<g id="a_node16"><a xlink:href="a00425_source.html" target="_top" xlink:title=" ">
<polygon fill="#ffffff" stroke="#000000" points="724.1136,-.5 724.1136,-19.5 816.1136,-19.5 816.1136,-.5 724.1136,-.5"/>
<text text-anchor="middle" x="770.1136" y="-7.5" font-family="Helvetica,sans-Serif" font-size="10.00" fill="#000000">freetds/pushvis.h</text>
</a>
</g>
</g>
<!-- Node6&#45;&gt;Node16 -->
<g id="edge35" class="edge">
<title>Node6&#45;&gt;Node16</title>
<path fill="none" stroke="#191970" d="M613.7049,-173.8244C660.1927,-167.7361 743.7136,-154.6111 812.1136,-132 831.7439,-125.5108 834.3017,-117.9115 854.1136,-112 910.8513,-95.0704 1079.1771,-120.6064 1118.1136,-76 1123.959,-69.3034 1123.9727,-62.6846 1118.1136,-56 1099.2141,-34.4379 920.0337,-19.7184 826.443,-13.4337"/>
<polygon fill="#191970" stroke="#191970" points="826.5005,-9.93 816.2914,-12.7626 826.0387,-16.9147 826.5005,-9.93"/>
</g>
<!-- Node17 -->
<g id="node17" class="node">
<title>Node17</title>
<g id="a_node17"><a xlink:href="a00419_source.html" target="_top" xlink:title=" ">
<polygon fill="#ffffff" stroke="#000000" points="416.1136,-.5 416.1136,-19.5 502.1136,-19.5 502.1136,-.5 416.1136,-.5"/>
<text text-anchor="middle" x="459.1136" y="-7.5" font-family="Helvetica,sans-Serif" font-size="10.00" fill="#000000">freetds/popvis.h</text>
</a>
</g>
</g>
<!-- Node6&#45;&gt;Node17 -->
<g id="edge37" class="edge">
<title>Node6&#45;&gt;Node17</title>
<path fill="none" stroke="#191970" d="M554.1617,-168.4352C532.8144,-159.6693 500.8976,-145.9662 474.1136,-132 458.9068,-124.0706 457.1153,-118.1701 441.1136,-112 362.5509,-81.7069 308.6979,-140.9499 255.1136,-76 249.4568,-69.1434 249.5624,-62.9424 255.1136,-56 273.6452,-32.8244 351.6868,-20.4902 405.6843,-14.6015"/>
<polygon fill="#191970" stroke="#191970" points="406.2214,-18.0645 415.8025,-13.5421 405.4924,-11.1026 406.2214,-18.0645"/>
</g>
<!-- Node18 -->
<g id="node18" class="node">
<title>Node18</title>
<g id="a_node18"><a xlink:href="a00491_source.html" target="_top" xlink:title=" ">
<polygon fill="#ffffff" stroke="#000000" points="647.6136,-112.5 647.6136,-131.5 730.6136,-131.5 730.6136,-112.5 647.6136,-112.5"/>
<text text-anchor="middle" x="689.1136" y="-119.5" font-family="Helvetica,sans-Serif" font-size="10.00" fill="#000000">replacements.h</text>
</a>
</g>
</g>
<!-- Node6&#45;&gt;Node18 -->
<g id="edge22" class="edge">
<title>Node6&#45;&gt;Node18</title>
<path fill="none" stroke="#191970" d="M597.1952,-168.3733C614.8538,-159.4644 641.3189,-146.1127 661.3234,-136.0203"/>
<polygon fill="#191970" stroke="#191970" points="662.9294,-139.1303 670.281,-131.5011 659.7764,-132.8806 662.9294,-139.1303"/>
</g>
<!-- Node21 -->
<g id="node21" class="node">
<title>Node21</title>
<g id="a_node21"><a xlink:href="a00422_source.html" target="_top" xlink:title=" ">
<polygon fill="#ffffff" stroke="#000000" points="352.1136,-112.5 352.1136,-131.5 432.1136,-131.5 432.1136,-112.5 352.1136,-112.5"/>
<text text-anchor="middle" x="392.1136" y="-119.5" font-family="Helvetica,sans-Serif" font-size="10.00" fill="#000000">freetds/proto.h</text>
</a>
</g>
</g>
<!-- Node6&#45;&gt;Node21 -->
<g id="edge36" class="edge">
<title>Node6&#45;&gt;Node21</title>
<path fill="none" stroke="#191970" d="M546.1391,-168.3733C514.9423,-158.9807 467.3426,-144.6496 433.3204,-134.4064"/>
<polygon fill="#191970" stroke="#191970" points="434.2554,-131.0327 423.6709,-131.5011 432.2373,-137.7355 434.2554,-131.0327"/>
</g>
<!-- Node7&#45;&gt;Node7 -->
<g id="edge9" class="edge">
<title>Node7&#45;&gt;Node7</title>
<path fill="none" stroke="#191970" d="M203.3819,-131.5746C214.901,-134.2697 226.1136,-131.0781 226.1136,-122 226.1136,-115.7588 220.8139,-112.2999 213.7584,-111.6234"/>
<polygon fill="#191970" stroke="#191970" points="213.0824,-108.1651 203.3819,-112.4254 213.6219,-115.1443 213.0824,-108.1651"/>
</g>
<!-- Node10 -->
<g id="node10" class="node">
<title>Node10</title>
<g id="a_node10"><a xlink:title=" ">
<polygon fill="#ffffff" stroke="#bfbfbf" points="114.1136,-.5 114.1136,-19.5 158.1136,-19.5 158.1136,-.5 114.1136,-.5"/>
<text text-anchor="middle" x="136.1136" y="-7.5" font-family="Helvetica,sans-Serif" font-size="10.00" fill="#000000">float.h</text>
</a>
</g>
</g>
<!-- Node9&#45;&gt;Node10 -->
<g id="edge12" class="edge">
<title>Node9&#45;&gt;Node10</title>
<path fill="none" stroke="#191970" d="M136.1136,-56.2455C136.1136,-48.9382 136.1136,-38.6944 136.1136,-29.7046"/>
<polygon fill="#191970" stroke="#191970" points="139.6137,-29.6426 136.1136,-19.6427 132.6137,-29.6427 139.6137,-29.6426"/>
</g>
<!-- Node12&#45;&gt;Node9 -->
<g id="edge15" class="edge">
<title>Node12&#45;&gt;Node9</title>
<path fill="none" stroke="#191970" d="M77.4809,-112.2455C88.069,-103.8943 103.52,-91.7076 115.9029,-81.9408"/>
<polygon fill="#191970" stroke="#191970" points="118.2039,-84.5837 123.8881,-75.6427 113.8689,-79.0875 118.2039,-84.5837"/>
</g>
<!-- Node15&#45;&gt;Node14 -->
<g id="edge19" class="edge">
<title>Node15&#45;&gt;Node14</title>
<path fill="none" stroke="#191970" d="M532.1765,-112.4369C485.7087,-102.7633 413.8528,-87.8044 364.3172,-77.4922"/>
<polygon fill="#191970" stroke="#191970" points="364.916,-74.0419 354.4125,-75.4303 363.4893,-80.895 364.916,-74.0419"/>
</g>
<!-- Node15&#45;&gt;Node16 -->
<g id="edge20" class="edge">
<title>Node15&#45;&gt;Node16</title>
<path fill="none" stroke="#191970" d="M622.4907,-112.4473C661.3337,-103.4148 714.1376,-89.3 731.1136,-76 746.4572,-63.9789 757.0091,-44.1116 763.2301,-29.3096"/>
<polygon fill="#191970" stroke="#191970" points="766.6391,-30.2 767.0011,-19.6113 760.115,-27.6631 766.6391,-30.2"/>
</g>
<!-- Node15&#45;&gt;Node17 -->
<g id="edge21" class="edge">
<title>Node15&#45;&gt;Node17</title>
<path fill="none" stroke="#191970" d="M530.8684,-112.4357C482.6671,-102.2017 413.8545,-86.0833 406.1136,-76 392.4719,-58.2305 413.87,-38.2206 433.4145,-24.9394"/>
<polygon fill="#191970" stroke="#191970" points="435.3323,-27.8674 441.8499,-19.5144 431.5459,-21.9799 435.3323,-27.8674"/>
</g>
<!-- Node18&#45;&gt;Node3 -->
<g id="edge23" class="edge">
<title>Node18&#45;&gt;Node3</title>
<path fill="none" stroke="#191970" d="M730.9698,-115.9944C780.7736,-108.5461 866.5903,-94.7608 949.041,-76.073"/>
<polygon fill="#191970" stroke="#191970" points="949.8523,-79.4779 958.8164,-73.8302 948.2869,-72.6551 949.8523,-79.4779"/>
</g>
<!-- Node18&#45;&gt;Node9 -->
<g id="edge24" class="edge">
<title>Node18&#45;&gt;Node9</title>
<path fill="none" stroke="#191970" d="M647.4242,-113.4652C644.2799,-112.932 641.1502,-112.4357 638.1136,-112 595.7193,-105.9176 324.6533,-82.242 199.4039,-71.4343"/>
<polygon fill="#191970" stroke="#191970" points="199.4585,-67.9261 189.1948,-70.554 198.8571,-74.9002 199.4585,-67.9261"/>
</g>
<!-- Node18&#45;&gt;Node11 -->
<g id="edge25" class="edge">
<title>Node18&#45;&gt;Node11</title>
<path fill="none" stroke="#191970" d="M721.7758,-112.3733C753.6434,-102.9807 802.2667,-88.6496 837.0206,-78.4064"/>
<polygon fill="#191970" stroke="#191970" points="838.2751,-81.6855 846.8777,-75.5011 836.2961,-74.9711 838.2751,-81.6855"/>
</g>
<!-- Node18&#45;&gt;Node16 -->
<g id="edge33" class="edge">
<title>Node18&#45;&gt;Node16</title>
<path fill="none" stroke="#191970" d="M717.4499,-112.4501C734.2794,-105.2095 754.3733,-93.4762 765.1136,-76 773.5643,-62.2495 774.2472,-43.7205 773.142,-29.7955"/>
<polygon fill="#191970" stroke="#191970" points="776.6112,-29.3265 771.9866,-19.7942 769.6575,-30.1299 776.6112,-29.3265"/>
</g>
<!-- Node18&#45;&gt;Node17 -->
<g id="edge34" class="edge">
<title>Node18&#45;&gt;Node17</title>
<path fill="none" stroke="#191970" d="M647.3746,-113.7642C644.2418,-113.1619 641.1283,-112.5682 638.1136,-112 593.9512,-103.6762 467.9241,-110.49 439.1136,-76 427.78,-62.4322 436.174,-42.559 445.309,-28.1678"/>
<polygon fill="#191970" stroke="#191970" points="448.4087,-29.839 451.2191,-19.6237 442.6517,-25.8568 448.4087,-29.839"/>
</g>
<!-- Node19 -->
<g id="node19" class="node">
<title>Node19</title>
<g id="a_node19"><a xlink:href="a00488_source.html" target="_top" xlink:title=" ">
<polygon fill="#ffffff" stroke="#000000" points="567.6136,-56.5 567.6136,-75.5 722.6136,-75.5 722.6136,-56.5 567.6136,-56.5"/>
<text text-anchor="middle" x="645.1136" y="-63.5" font-family="Helvetica,sans-Serif" font-size="10.00" fill="#000000">replacements/readpassphrase.h</text>
</a>
</g>
</g>
<!-- Node18&#45;&gt;Node19 -->
<g id="edge26" class="edge">
<title>Node18&#45;&gt;Node19</title>
<path fill="none" stroke="#191970" d="M681.4494,-112.2455C675.2663,-104.3761 666.4073,-93.101 658.9848,-83.6542"/>
<polygon fill="#191970" stroke="#191970" points="661.6204,-81.3435 652.69,-75.6427 656.1161,-85.6683 661.6204,-81.3435"/>
</g>
<!-- Node20 -->
<g id="node20" class="node">
<title>Node20</title>
<g id="a_node20"><a xlink:href="a00485.html" target="_top" xlink:title="Provide poll call where missing.">
<polygon fill="#ffffff" stroke="#000000" points="448.6136,-56.5 448.6136,-75.5 549.6136,-75.5 549.6136,-56.5 448.6136,-56.5"/>
<text text-anchor="middle" x="499.1136" y="-63.5" font-family="Helvetica,sans-Serif" font-size="10.00" fill="#000000">replacements/poll.h</text>
</a>
</g>
</g>
<!-- Node18&#45;&gt;Node20 -->
<g id="edge29" class="edge">
<title>Node18&#45;&gt;Node20</title>
<path fill="none" stroke="#191970" d="M656.4514,-112.3733C624.5838,-102.9807 575.9605,-88.6496 541.2066,-78.4064"/>
<polygon fill="#191970" stroke="#191970" points="541.9311,-74.9711 531.3496,-75.5011 539.9521,-81.6855 541.9311,-74.9711"/>
</g>
<!-- Node19&#45;&gt;Node16 -->
<g id="edge27" class="edge">
<title>Node19&#45;&gt;Node16</title>
<path fill="none" stroke="#191970" d="M666.6019,-56.3733C686.7576,-47.3435 717.1016,-33.7494 739.7316,-23.6111"/>
<polygon fill="#191970" stroke="#191970" points="741.2107,-26.7838 748.9057,-19.5011 738.3487,-20.3955 741.2107,-26.7838"/>
</g>
<!-- Node19&#45;&gt;Node17 -->
<g id="edge28" class="edge">
<title>Node19&#45;&gt;Node17</title>
<path fill="none" stroke="#191970" d="M613.1391,-56.3733C581.9423,-46.9807 534.3426,-32.6496 500.3204,-22.4064"/>
<polygon fill="#191970" stroke="#191970" points="501.2554,-19.0327 490.6709,-19.5011 499.2373,-25.7355 501.2554,-19.0327"/>
</g>
<!-- Node20&#45;&gt;Node2 -->
<g id="edge30" class="edge">
<title>Node20&#45;&gt;Node2</title>
<path fill="none" stroke="#191970" d="M448.3844,-60.4042C373.3204,-52.0499 228.2602,-35.6219 105.1136,-20 92.9428,-18.4561 79.6457,-16.6654 67.7742,-15.0297"/>
<polygon fill="#191970" stroke="#191970" points="68.159,-11.5496 57.7729,-13.6421 67.197,-18.4832 68.159,-11.5496"/>
</g>
<!-- Node20&#45;&gt;Node16 -->
<g id="edge31" class="edge">
<title>Node20&#45;&gt;Node16</title>
<path fill="none" stroke="#191970" d="M545.3922,-56.4369C592.0641,-46.7925 664.1585,-31.8948 714.0467,-21.5858"/>
<polygon fill="#191970" stroke="#191970" points="714.941,-24.975 724.0258,-19.5237 713.5244,-18.1198 714.941,-24.975"/>
</g>
<!-- Node20&#45;&gt;Node17 -->
<g id="edge32" class="edge">
<title>Node20&#45;&gt;Node17</title>
<path fill="none" stroke="#191970" d="M492.1461,-56.2455C486.5825,-48.4564 478.6356,-37.3308 471.9307,-27.9439"/>
<polygon fill="#191970" stroke="#191970" points="474.6617,-25.7457 466.0012,-19.6427 468.9656,-29.8144 474.6617,-25.7457"/>
</g>
<!-- Node22&#45;&gt;Node16 -->
<g id="edge39" class="edge">
<title>Node22&#45;&gt;Node16</title>
<path fill="none" stroke="#191970" d="M1029.0148,-57.7508C1026.004,-57.1516 1023.0115,-56.5623 1020.1136,-56 953.6425,-43.1032 877.0478,-29.1421 826.3408,-20.025"/>
<polygon fill="#191970" stroke="#191970" points="826.7023,-16.534 816.2411,-18.2116 825.4651,-23.4238 826.7023,-16.534"/>
</g>
<!-- Node22&#45;&gt;Node17 -->
<g id="edge40" class="edge">
<title>Node22&#45;&gt;Node17</title>
<path fill="none" stroke="#191970" d="M1029.0701,-57.422C1026.0465,-56.8988 1023.0361,-56.4165 1020.1136,-56 834.6384,-29.5663 612.336,-16.926 512.386,-12.2446"/>
<polygon fill="#191970" stroke="#191970" points="512.3918,-8.7413 502.2413,-11.7773 512.0696,-15.7339 512.3918,-8.7413"/>
</g>
</g>
</svg>
