<?xml version="1.0" encoding="UTF-8" standalone="no"?>
<!DOCTYPE svg PUBLIC "-//W3C//DTD SVG 1.1//EN"
 "http://www.w3.org/Graphics/SVG/1.1/DTD/svg11.dtd">
<!-- Generated by graphviz version 2.40.1 (20161225.0304)
 -->
<!-- Title: src/tds/stream.c Pages: 1 -->
<svg width="1161pt" height="252pt"
 viewBox="0.00 0.00 1160.61 252.00" xmlns="http://www.w3.org/2000/svg" xmlns:xlink="http://www.w3.org/1999/xlink">
<g id="graph0" class="graph" transform="scale(1 1) rotate(0) translate(4 248)">
<title>src/tds/stream.c</title>
<polygon fill="#ffffff" stroke="transparent" points="-4,4 -4,-248 1156.6091,-248 1156.6091,4 -4,4"/>
<!-- Node1 -->
<g id="node1" class="node">
<title>Node1</title>
<g id="a_node1"><a xlink:title="Handle stream of data.">
<polygon fill="#bfbfbf" stroke="#000000" points="506.6091,-224.5 506.6091,-243.5 594.6091,-243.5 594.6091,-224.5 506.6091,-224.5"/>
<text text-anchor="middle" x="550.6091" y="-231.5" font-family="Helvetica,sans-Serif" font-size="10.00" fill="#000000">src/tds/stream.c</text>
</a>
</g>
</g>
<!-- Node2 -->
<g id="node2" class="node">
<title>Node2</title>
<g id="a_node2"><a xlink:href="a00356_source.html" target="_top" xlink:title=" ">
<polygon fill="#ffffff" stroke="#000000" points="163.1091,-.5 163.1091,-19.5 214.1091,-19.5 214.1091,-.5 163.1091,-.5"/>
<text text-anchor="middle" x="188.6091" y="-7.5" font-family="Helvetica,sans-Serif" font-size="10.00" fill="#000000">config.h</text>
</a>
</g>
</g>
<!-- Node1&#45;&gt;Node2 -->
<g id="edge1" class="edge">
<title>Node1&#45;&gt;Node2</title>
<path fill="none" stroke="#191970" d="M506.3464,-232.5661C389.1486,-227.747 75.4463,-207.87 12.6091,-132 3.5781,-121.096 -10.1896,-86.2995 13.6091,-56 30.6659,-34.2839 106.8278,-20.7003 152.8708,-14.3209"/>
<polygon fill="#191970" stroke="#191970" points="153.5921,-17.7557 163.0399,-12.9609 152.6641,-10.8175 153.5921,-17.7557"/>
</g>
<!-- Node3 -->
<g id="node3" class="node">
<title>Node3</title>
<g id="a_node3"><a xlink:title=" ">
<polygon fill="#ffffff" stroke="#bfbfbf" points="444.6091,-168.5 444.6091,-187.5 496.6091,-187.5 496.6091,-168.5 444.6091,-168.5"/>
<text text-anchor="middle" x="470.6091" y="-175.5" font-family="Helvetica,sans-Serif" font-size="10.00" fill="#000000">assert.h</text>
</a>
</g>
</g>
<!-- Node1&#45;&gt;Node3 -->
<g id="edge2" class="edge">
<title>Node1&#45;&gt;Node3</title>
<path fill="none" stroke="#191970" d="M536.6741,-224.2455C524.5144,-215.7337 506.6626,-203.2375 492.5806,-193.3801"/>
<polygon fill="#191970" stroke="#191970" points="494.5838,-190.51 484.3843,-187.6427 490.5695,-196.2447 494.5838,-190.51"/>
</g>
<!-- Node4 -->
<g id="node4" class="node">
<title>Node4</title>
<g id="a_node4"><a xlink:href="a00437.html" target="_top" xlink:title=" ">
<polygon fill="#ffffff" stroke="#000000" points="515.1091,-168.5 515.1091,-187.5 586.1091,-187.5 586.1091,-168.5 515.1091,-168.5"/>
<text text-anchor="middle" x="550.6091" y="-175.5" font-family="Helvetica,sans-Serif" font-size="10.00" fill="#000000">freetds/tds.h</text>
</a>
</g>
</g>
<!-- Node1&#45;&gt;Node4 -->
<g id="edge3" class="edge">
<title>Node1&#45;&gt;Node4</title>
<path fill="none" stroke="#191970" d="M550.6091,-224.2455C550.6091,-216.9382 550.6091,-206.6944 550.6091,-197.7046"/>
<polygon fill="#191970" stroke="#191970" points="554.1092,-197.6426 550.6091,-187.6427 547.1092,-197.6427 554.1092,-197.6426"/>
</g>
<!-- Node22 -->
<g id="node22" class="node">
<title>Node22</title>
<g id="a_node22"><a xlink:href="a00410_source.html" target="_top" xlink:title=" ">
<polygon fill="#ffffff" stroke="#000000" points="966.6091,-56.5 966.6091,-75.5 1046.6091,-75.5 1046.6091,-56.5 966.6091,-56.5"/>
<text text-anchor="middle" x="1006.6091" y="-63.5" font-family="Helvetica,sans-Serif" font-size="10.00" fill="#000000">freetds/iconv.h</text>
</a>
</g>
</g>
<!-- Node1&#45;&gt;Node22 -->
<g id="edge36" class="edge">
<title>Node1&#45;&gt;Node22</title>
<path fill="none" stroke="#191970" d="M594.7805,-227.5385C689.2225,-213.0373 907.0377,-175.7262 966.6091,-132 982.5812,-120.2763 993.4477,-100.0748 999.7777,-85.1015"/>
<polygon fill="#191970" stroke="#191970" points="1003.0565,-86.3269 1003.4422,-75.7391 996.5381,-83.7755 1003.0565,-86.3269"/>
</g>
<!-- Node23 -->
<g id="node23" class="node">
<title>Node23</title>
<g id="a_node23"><a xlink:href="a00431_source.html" target="_top" xlink:title=" ">
<polygon fill="#ffffff" stroke="#000000" points="1064.6091,-56.5 1064.6091,-75.5 1152.6091,-75.5 1152.6091,-56.5 1064.6091,-56.5"/>
<text text-anchor="middle" x="1108.6091" y="-63.5" font-family="Helvetica,sans-Serif" font-size="10.00" fill="#000000">freetds/stream.h</text>
</a>
</g>
</g>
<!-- Node1&#45;&gt;Node23 -->
<g id="edge39" class="edge">
<title>Node1&#45;&gt;Node23</title>
<path fill="none" stroke="#191970" d="M594.7467,-231.0661C655.5632,-226.2124 768.1083,-214.3018 860.6091,-188 921.1209,-170.794 934.1922,-159.8365 990.6091,-132 1023.5013,-115.7707 1060.2027,-94.7642 1083.8086,-80.8588"/>
<polygon fill="#191970" stroke="#191970" points="1085.657,-83.8319 1092.4774,-75.7244 1082.0897,-77.8091 1085.657,-83.8319"/>
</g>
<!-- Node5 -->
<g id="node5" class="node">
<title>Node5</title>
<g id="a_node5"><a xlink:title=" ">
<polygon fill="#ffffff" stroke="#bfbfbf" points="734.6091,-56.5 734.6091,-75.5 786.6091,-75.5 786.6091,-56.5 734.6091,-56.5"/>
<text text-anchor="middle" x="760.6091" y="-63.5" font-family="Helvetica,sans-Serif" font-size="10.00" fill="#000000">stdarg.h</text>
</a>
</g>
</g>
<!-- Node4&#45;&gt;Node5 -->
<g id="edge4" class="edge">
<title>Node4&#45;&gt;Node5</title>
<path fill="none" stroke="#191970" d="M578.4773,-168.3521C601.5814,-159.9327 634.9916,-146.7735 662.6091,-132 690.6854,-116.981 720.7445,-95.9098 740.0592,-81.6479"/>
<polygon fill="#191970" stroke="#191970" points="742.2129,-84.4078 748.1317,-75.6205 738.0248,-78.7988 742.2129,-84.4078"/>
</g>
<!-- Node6 -->
<g id="node6" class="node">
<title>Node6</title>
<g id="a_node6"><a xlink:title=" ">
<polygon fill="#ffffff" stroke="#bfbfbf" points="527.6091,-112.5 527.6091,-131.5 573.6091,-131.5 573.6091,-112.5 527.6091,-112.5"/>
<text text-anchor="middle" x="550.6091" y="-119.5" font-family="Helvetica,sans-Serif" font-size="10.00" fill="#000000">stdio.h</text>
</a>
</g>
</g>
<!-- Node4&#45;&gt;Node6 -->
<g id="edge5" class="edge">
<title>Node4&#45;&gt;Node6</title>
<path fill="none" stroke="#191970" d="M550.6091,-168.2455C550.6091,-160.9382 550.6091,-150.6944 550.6091,-141.7046"/>
<polygon fill="#191970" stroke="#191970" points="554.1092,-141.6426 550.6091,-131.6427 547.1092,-141.6427 554.1092,-141.6426"/>
</g>
<!-- Node7 -->
<g id="node7" class="node">
<title>Node7</title>
<g id="a_node7"><a xlink:href="a00443_source.html" target="_top" xlink:title=" ">
<polygon fill="#ffffff" stroke="#000000" points="591.6091,-112.5 591.6091,-131.5 635.6091,-131.5 635.6091,-112.5 591.6091,-112.5"/>
<text text-anchor="middle" x="613.6091" y="-119.5" font-family="Helvetica,sans-Serif" font-size="10.00" fill="#000000">time.h</text>
</a>
</g>
</g>
<!-- Node4&#45;&gt;Node7 -->
<g id="edge6" class="edge">
<title>Node4&#45;&gt;Node7</title>
<path fill="none" stroke="#191970" d="M561.5828,-168.2455C570.7973,-160.0549 584.1623,-148.1749 595.0388,-138.5069"/>
<polygon fill="#191970" stroke="#191970" points="597.6122,-140.9023 602.7611,-131.6427 592.9617,-135.6704 597.6122,-140.9023"/>
</g>
<!-- Node8 -->
<g id="node8" class="node">
<title>Node8</title>
<g id="a_node8"><a xlink:href="a00476_source.html" target="_top" xlink:title=" ">
<polygon fill="#ffffff" stroke="#000000" points="748.1091,-112.5 748.1091,-131.5 837.1091,-131.5 837.1091,-112.5 748.1091,-112.5"/>
<text text-anchor="middle" x="792.6091" y="-119.5" font-family="Helvetica,sans-Serif" font-size="10.00" fill="#000000">freetds/version.h</text>
</a>
</g>
</g>
<!-- Node4&#45;&gt;Node8 -->
<g id="edge8" class="edge">
<title>Node4&#45;&gt;Node8</title>
<path fill="none" stroke="#191970" d="M586.317,-169.737C627.351,-160.2415 695.0118,-144.5845 741.5905,-133.806"/>
<polygon fill="#191970" stroke="#191970" points="742.5308,-137.1809 751.4843,-131.5165 740.9526,-130.3611 742.5308,-137.1809"/>
</g>
<!-- Node9 -->
<g id="node9" class="node">
<title>Node9</title>
<g id="a_node9"><a xlink:href="a00512_source.html" target="_top" xlink:title=" ">
<polygon fill="#ffffff" stroke="#000000" points="804.6091,-56.5 804.6091,-75.5 910.6091,-75.5 910.6091,-56.5 804.6091,-56.5"/>
<text text-anchor="middle" x="857.6091" y="-63.5" font-family="Helvetica,sans-Serif" font-size="10.00" fill="#000000">tds_sysdep_public.h</text>
</a>
</g>
</g>
<!-- Node4&#45;&gt;Node9 -->
<g id="edge9" class="edge">
<title>Node4&#45;&gt;Node9</title>
<path fill="none" stroke="#191970" d="M583.6119,-168.4792C612.8206,-159.7943 656.4543,-146.1859 693.6091,-132 714.0558,-124.1933 718.3958,-120.3926 738.6091,-112 766.532,-100.4063 798.5101,-88.0982 822.2803,-79.1336"/>
<polygon fill="#191970" stroke="#191970" points="823.7992,-82.3018 831.9292,-75.5082 821.3371,-75.7491 823.7992,-82.3018"/>
</g>
<!-- Node11 -->
<g id="node11" class="node">
<title>Node11</title>
<g id="a_node11"><a xlink:href="a00434_source.html" target="_top" xlink:title=" ">
<polygon fill="#ffffff" stroke="#000000" points="222.6091,-56.5 222.6091,-75.5 346.6091,-75.5 346.6091,-56.5 222.6091,-56.5"/>
<text text-anchor="middle" x="284.6091" y="-63.5" font-family="Helvetica,sans-Serif" font-size="10.00" fill="#000000">freetds/sysdep_private.h</text>
</a>
</g>
</g>
<!-- Node4&#45;&gt;Node11 -->
<g id="edge11" class="edge">
<title>Node4&#45;&gt;Node11</title>
<path fill="none" stroke="#191970" d="M514.7675,-169.9387C511.6722,-169.2718 508.5869,-168.6174 505.6091,-168 422.7342,-150.8181 386.3624,-182.7243 318.6091,-132 303.4979,-120.6868 294.5489,-100.7174 289.6571,-85.6985"/>
<polygon fill="#191970" stroke="#191970" points="292.94,-84.4534 286.7821,-75.8319 286.2195,-86.4118 292.94,-84.4534"/>
</g>
<!-- Node12 -->
<g id="node12" class="node">
<title>Node12</title>
<g id="a_node12"><a xlink:href="a00440_source.html" target="_top" xlink:title=" ">
<polygon fill="#ffffff" stroke="#000000" points="855.1091,-112.5 855.1091,-131.5 940.1091,-131.5 940.1091,-112.5 855.1091,-112.5"/>
<text text-anchor="middle" x="897.6091" y="-119.5" font-family="Helvetica,sans-Serif" font-size="10.00" fill="#000000">freetds/thread.h</text>
</a>
</g>
</g>
<!-- Node4&#45;&gt;Node12 -->
<g id="edge12" class="edge">
<title>Node4&#45;&gt;Node12</title>
<path fill="none" stroke="#191970" d="M586.5508,-172.8134C640.3788,-164.9545 745.3643,-149.275 845.1185,-132.0356"/>
<polygon fill="#191970" stroke="#191970" points="845.8107,-135.4678 855.0644,-130.3084 844.613,-128.5711 845.8107,-135.4678"/>
</g>
<!-- Node13 -->
<g id="node13" class="node">
<title>Node13</title>
<g id="a_node13"><a xlink:href="a00380_source.html" target="_top" xlink:title=" ">
<polygon fill="#ffffff" stroke="#000000" points="35.6091,-112.5 35.6091,-131.5 111.6091,-131.5 111.6091,-112.5 35.6091,-112.5"/>
<text text-anchor="middle" x="73.6091" y="-119.5" font-family="Helvetica,sans-Serif" font-size="10.00" fill="#000000">freetds/bool.h</text>
</a>
</g>
</g>
<!-- Node4&#45;&gt;Node13 -->
<g id="edge14" class="edge">
<title>Node4&#45;&gt;Node13</title>
<path fill="none" stroke="#191970" d="M514.8243,-169.6272C511.7167,-169.0279 508.6131,-168.4742 505.6091,-168 338.0389,-141.5484 293.5414,-156.0459 125.6091,-132 124.3549,-131.8204 123.0851,-131.6312 121.805,-131.4339"/>
<polygon fill="#191970" stroke="#191970" points="122.3142,-127.9706 111.8765,-129.7888 121.1698,-134.8765 122.3142,-127.9706"/>
</g>
<!-- Node14 -->
<g id="node14" class="node">
<title>Node14</title>
<g id="a_node14"><a xlink:href="a00413_source.html" target="_top" xlink:title=" ">
<polygon fill="#ffffff" stroke="#000000" points="38.6091,-56.5 38.6091,-75.5 128.6091,-75.5 128.6091,-56.5 38.6091,-56.5"/>
<text text-anchor="middle" x="83.6091" y="-63.5" font-family="Helvetica,sans-Serif" font-size="10.00" fill="#000000">freetds/macros.h</text>
</a>
</g>
</g>
<!-- Node4&#45;&gt;Node14 -->
<g id="edge15" class="edge">
<title>Node4&#45;&gt;Node14</title>
<path fill="none" stroke="#191970" d="M514.8197,-169.6563C511.7131,-169.0508 508.6109,-168.4876 505.6091,-168 352.5649,-143.1412 300.6527,-194.1619 158.6091,-132 133.9404,-121.2044 111.6089,-99.2294 97.8524,-83.6049"/>
<polygon fill="#191970" stroke="#191970" points="100.2721,-81.0469 91.1318,-75.6892 94.9359,-85.5775 100.2721,-81.0469"/>
</g>
<!-- Node15 -->
<g id="node15" class="node">
<title>Node15</title>
<g id="a_node15"><a xlink:href="a00470_source.html" target="_top" xlink:title=" ">
<polygon fill="#ffffff" stroke="#000000" points="168.1091,-112.5 168.1091,-131.5 271.1091,-131.5 271.1091,-112.5 168.1091,-112.5"/>
<text text-anchor="middle" x="219.6091" y="-119.5" font-family="Helvetica,sans-Serif" font-size="10.00" fill="#000000">freetds/utils/string.h</text>
</a>
</g>
</g>
<!-- Node4&#45;&gt;Node15 -->
<g id="edge16" class="edge">
<title>Node4&#45;&gt;Node15</title>
<path fill="none" stroke="#191970" d="M514.7874,-169.8391C511.6878,-169.1938 508.5961,-168.5716 505.6091,-168 463.7673,-159.9933 352.0485,-142.4377 281.2656,-131.4786"/>
<polygon fill="#191970" stroke="#191970" points="281.5499,-127.981 271.1324,-129.9115 280.48,-134.8988 281.5499,-127.981"/>
</g>
<!-- Node16 -->
<g id="node16" class="node">
<title>Node16</title>
<g id="a_node16"><a xlink:href="a00425_source.html" target="_top" xlink:title=" ">
<polygon fill="#ffffff" stroke="#000000" points="660.6091,-.5 660.6091,-19.5 752.6091,-19.5 752.6091,-.5 660.6091,-.5"/>
<text text-anchor="middle" x="706.6091" y="-7.5" font-family="Helvetica,sans-Serif" font-size="10.00" fill="#000000">freetds/pushvis.h</text>
</a>
</g>
</g>
<!-- Node4&#45;&gt;Node16 -->
<g id="edge33" class="edge">
<title>Node4&#45;&gt;Node16</title>
<path fill="none" stroke="#191970" d="M586.139,-176.5431C679.2199,-172.3637 924.6619,-158.8744 948.6091,-132 969.2142,-108.8762 941.8264,-72.9891 919.6091,-56 895.4701,-37.5414 817.7499,-24.135 763.2013,-16.7089"/>
<polygon fill="#191970" stroke="#191970" points="763.3378,-13.1963 752.9638,-15.3478 762.4152,-20.1352 763.3378,-13.1963"/>
</g>
<!-- Node17 -->
<g id="node17" class="node">
<title>Node17</title>
<g id="a_node17"><a xlink:href="a00419_source.html" target="_top" xlink:title=" ">
<polygon fill="#ffffff" stroke="#000000" points="451.6091,-.5 451.6091,-19.5 537.6091,-19.5 537.6091,-.5 451.6091,-.5"/>
<text text-anchor="middle" x="494.6091" y="-7.5" font-family="Helvetica,sans-Serif" font-size="10.00" fill="#000000">freetds/popvis.h</text>
</a>
</g>
</g>
<!-- Node4&#45;&gt;Node17 -->
<g id="edge35" class="edge">
<title>Node4&#45;&gt;Node17</title>
<path fill="none" stroke="#191970" d="M514.8341,-169.5636C511.7243,-168.9782 508.6175,-168.445 505.6091,-168 452.8111,-160.1908 62.9073,-171.1286 26.6091,-132 15.5612,-120.0906 3.106,-83.7256 29.6091,-56 57.5978,-26.7202 324.9404,-15.1283 441.1304,-11.4467"/>
<polygon fill="#191970" stroke="#191970" points="441.3398,-14.942 451.2269,-11.1347 441.1235,-7.9454 441.3398,-14.942"/>
</g>
<!-- Node18 -->
<g id="node18" class="node">
<title>Node18</title>
<g id="a_node18"><a xlink:href="a00491_source.html" target="_top" xlink:title=" ">
<polygon fill="#ffffff" stroke="#000000" points="328.1091,-112.5 328.1091,-131.5 411.1091,-131.5 411.1091,-112.5 328.1091,-112.5"/>
<text text-anchor="middle" x="369.6091" y="-119.5" font-family="Helvetica,sans-Serif" font-size="10.00" fill="#000000">replacements.h</text>
</a>
</g>
</g>
<!-- Node4&#45;&gt;Node18 -->
<g id="edge20" class="edge">
<title>Node4&#45;&gt;Node18</title>
<path fill="none" stroke="#191970" d="M519.4941,-168.3733C489.2662,-159.021 443.2131,-144.7725 410.1352,-134.5385"/>
<polygon fill="#191970" stroke="#191970" points="410.9058,-131.1133 400.3181,-131.5011 408.8368,-137.8005 410.9058,-131.1133"/>
</g>
<!-- Node21 -->
<g id="node21" class="node">
<title>Node21</title>
<g id="a_node21"><a xlink:href="a00422_source.html" target="_top" xlink:title=" ">
<polygon fill="#ffffff" stroke="#000000" points="429.6091,-112.5 429.6091,-131.5 509.6091,-131.5 509.6091,-112.5 429.6091,-112.5"/>
<text text-anchor="middle" x="469.6091" y="-119.5" font-family="Helvetica,sans-Serif" font-size="10.00" fill="#000000">freetds/proto.h</text>
</a>
</g>
</g>
<!-- Node4&#45;&gt;Node21 -->
<g id="edge34" class="edge">
<title>Node4&#45;&gt;Node21</title>
<path fill="none" stroke="#191970" d="M536.5,-168.2455C524.1882,-159.7337 506.1133,-147.2375 491.8553,-137.3801"/>
<polygon fill="#191970" stroke="#191970" points="493.7725,-134.4506 483.5565,-131.6427 489.7917,-140.2085 493.7725,-134.4506"/>
</g>
<!-- Node7&#45;&gt;Node7 -->
<g id="edge7" class="edge">
<title>Node7&#45;&gt;Node7</title>
<path fill="none" stroke="#191970" d="M630.8774,-131.5746C642.3965,-134.2697 653.6091,-131.0781 653.6091,-122 653.6091,-115.7588 648.3094,-112.2999 641.2539,-111.6234"/>
<polygon fill="#191970" stroke="#191970" points="640.5779,-108.1651 630.8774,-112.4254 641.1174,-115.1443 640.5779,-108.1651"/>
</g>
<!-- Node10 -->
<g id="node10" class="node">
<title>Node10</title>
<g id="a_node10"><a xlink:title=" ">
<polygon fill="#ffffff" stroke="#bfbfbf" points="835.6091,-.5 835.6091,-19.5 879.6091,-19.5 879.6091,-.5 835.6091,-.5"/>
<text text-anchor="middle" x="857.6091" y="-7.5" font-family="Helvetica,sans-Serif" font-size="10.00" fill="#000000">float.h</text>
</a>
</g>
</g>
<!-- Node9&#45;&gt;Node10 -->
<g id="edge10" class="edge">
<title>Node9&#45;&gt;Node10</title>
<path fill="none" stroke="#191970" d="M857.6091,-56.2455C857.6091,-48.9382 857.6091,-38.6944 857.6091,-29.7046"/>
<polygon fill="#191970" stroke="#191970" points="861.1092,-29.6426 857.6091,-19.6427 854.1092,-29.6427 861.1092,-29.6426"/>
</g>
<!-- Node12&#45;&gt;Node9 -->
<g id="edge13" class="edge">
<title>Node12&#45;&gt;Node9</title>
<path fill="none" stroke="#191970" d="M890.6416,-112.2455C885.078,-104.4564 877.1311,-93.3308 870.4262,-83.9439"/>
<polygon fill="#191970" stroke="#191970" points="873.1572,-81.7457 864.4967,-75.6427 867.4611,-85.8144 873.1572,-81.7457"/>
</g>
<!-- Node15&#45;&gt;Node14 -->
<g id="edge17" class="edge">
<title>Node15&#45;&gt;Node14</title>
<path fill="none" stroke="#191970" d="M196.2298,-112.3733C174.1046,-103.2629 140.6957,-89.5062 116.0072,-79.3404"/>
<polygon fill="#191970" stroke="#191970" points="117.2627,-76.0723 106.6832,-75.5011 114.5974,-82.5451 117.2627,-76.0723"/>
</g>
<!-- Node15&#45;&gt;Node16 -->
<g id="edge18" class="edge">
<title>Node15&#45;&gt;Node16</title>
<path fill="none" stroke="#191970" d="M214.6489,-112.051C208.2941,-97.7193 199.6617,-71.3094 213.6091,-56 220.9102,-47.9859 523.0011,-24.026 650.6247,-14.2371"/>
<polygon fill="#191970" stroke="#191970" points="650.8965,-17.7266 660.6002,-13.4736 650.3622,-10.747 650.8965,-17.7266"/>
</g>
<!-- Node15&#45;&gt;Node17 -->
<g id="edge19" class="edge">
<title>Node15&#45;&gt;Node17</title>
<path fill="none" stroke="#191970" d="M206.6396,-112.3446C190.0247,-98.8312 165.1189,-73.9248 180.6091,-56 197.3985,-36.5718 356.2467,-21.0459 441.353,-14.0415"/>
<polygon fill="#191970" stroke="#191970" points="441.6677,-17.5275 451.3517,-13.2298 441.1013,-10.5505 441.6677,-17.5275"/>
</g>
<!-- Node18&#45;&gt;Node5 -->
<g id="edge21" class="edge">
<title>Node18&#45;&gt;Node5</title>
<path fill="none" stroke="#191970" d="M411.3129,-113.5612C414.4539,-113.0058 417.5788,-112.4782 420.6091,-112 553.2573,-91.0659 588.5421,-100.333 720.6091,-76 721.8762,-75.7665 723.1629,-75.5165 724.4602,-75.2533"/>
<polygon fill="#191970" stroke="#191970" points="725.4561,-78.6175 734.4619,-73.0367 723.9415,-71.7834 725.4561,-78.6175"/>
</g>
<!-- Node18&#45;&gt;Node9 -->
<g id="edge22" class="edge">
<title>Node18&#45;&gt;Node9</title>
<path fill="none" stroke="#191970" d="M411.3006,-113.48C414.4444,-112.9434 417.5734,-112.4422 420.6091,-112 583.057,-88.3343 627.8057,-96.9839 794.4367,-76.0743"/>
<polygon fill="#191970" stroke="#191970" points="795.0633,-79.5229 804.5417,-74.789 794.18,-72.5788 795.0633,-79.5229"/>
</g>
<!-- Node18&#45;&gt;Node11 -->
<g id="edge23" class="edge">
<title>Node18&#45;&gt;Node11</title>
<path fill="none" stroke="#191970" d="M354.8032,-112.2455C341.8835,-103.7337 322.916,-91.2375 307.9538,-81.3801"/>
<polygon fill="#191970" stroke="#191970" points="309.5215,-78.2216 299.2453,-75.6427 305.6703,-84.067 309.5215,-78.2216"/>
</g>
<!-- Node18&#45;&gt;Node16 -->
<g id="edge31" class="edge">
<title>Node18&#45;&gt;Node16</title>
<path fill="none" stroke="#191970" d="M411.3212,-113.6128C414.4603,-113.0454 417.5825,-112.5011 420.6091,-112 479.458,-102.257 641.1999,-114.6798 686.6091,-76 699.8279,-64.7401 704.4882,-45.0553 706.0445,-30.1054"/>
<polygon fill="#191970" stroke="#191970" points="709.5574,-30.0219 706.72,-19.8141 702.5725,-29.5633 709.5574,-30.0219"/>
</g>
<!-- Node18&#45;&gt;Node17 -->
<g id="edge32" class="edge">
<title>Node18&#45;&gt;Node17</title>
<path fill="none" stroke="#191970" d="M411.2399,-112.7237C432.8745,-105.915 458.1584,-94.5287 474.6091,-76 485.8993,-63.2836 490.818,-44.3618 492.9598,-30.0346"/>
<polygon fill="#191970" stroke="#191970" points="496.4787,-30.0717 494.1508,-19.7358 489.5251,-29.2675 496.4787,-30.0717"/>
</g>
<!-- Node19 -->
<g id="node19" class="node">
<title>Node19</title>
<g id="a_node19"><a xlink:href="a00488_source.html" target="_top" xlink:title=" ">
<polygon fill="#ffffff" stroke="#000000" points="523.1091,-56.5 523.1091,-75.5 678.1091,-75.5 678.1091,-56.5 523.1091,-56.5"/>
<text text-anchor="middle" x="600.6091" y="-63.5" font-family="Helvetica,sans-Serif" font-size="10.00" fill="#000000">replacements/readpassphrase.h</text>
</a>
</g>
</g>
<!-- Node18&#45;&gt;Node19 -->
<g id="edge24" class="edge">
<title>Node18&#45;&gt;Node19</title>
<path fill="none" stroke="#191970" d="M409.0569,-112.4369C448.4247,-102.8932 509.0125,-88.2052 551.4799,-77.9101"/>
<polygon fill="#191970" stroke="#191970" points="552.4301,-81.2812 561.3239,-75.5237 550.7808,-74.4783 552.4301,-81.2812"/>
</g>
<!-- Node20 -->
<g id="node20" class="node">
<title>Node20</title>
<g id="a_node20"><a xlink:href="a00485.html" target="_top" xlink:title="Provide poll call where missing.">
<polygon fill="#ffffff" stroke="#000000" points="365.1091,-56.5 365.1091,-75.5 466.1091,-75.5 466.1091,-56.5 365.1091,-56.5"/>
<text text-anchor="middle" x="415.6091" y="-63.5" font-family="Helvetica,sans-Serif" font-size="10.00" fill="#000000">replacements/poll.h</text>
</a>
</g>
</g>
<!-- Node18&#45;&gt;Node20 -->
<g id="edge27" class="edge">
<title>Node18&#45;&gt;Node20</title>
<path fill="none" stroke="#191970" d="M377.6217,-112.2455C384.0858,-104.3761 393.3475,-93.101 401.1074,-83.6542"/>
<polygon fill="#191970" stroke="#191970" points="404.0454,-85.5916 407.6883,-75.6427 398.6363,-81.1484 404.0454,-85.5916"/>
</g>
<!-- Node19&#45;&gt;Node16 -->
<g id="edge25" class="edge">
<title>Node19&#45;&gt;Node16</title>
<path fill="none" stroke="#191970" d="M619.0729,-56.2455C635.7165,-47.4527 660.4084,-34.4079 679.3283,-24.4125"/>
<polygon fill="#191970" stroke="#191970" points="681.1499,-27.4086 688.3569,-19.6427 677.88,-21.2193 681.1499,-27.4086"/>
</g>
<!-- Node19&#45;&gt;Node17 -->
<g id="edge26" class="edge">
<title>Node19&#45;&gt;Node17</title>
<path fill="none" stroke="#191970" d="M582.1453,-56.2455C565.5016,-47.4527 540.8098,-34.4079 521.8899,-24.4125"/>
<polygon fill="#191970" stroke="#191970" points="523.3382,-21.2193 512.8613,-19.6427 520.0683,-27.4086 523.3382,-21.2193"/>
</g>
<!-- Node20&#45;&gt;Node2 -->
<g id="edge28" class="edge">
<title>Node20&#45;&gt;Node2</title>
<path fill="none" stroke="#191970" d="M376.8443,-56.4369C334.0023,-45.8679 265.5866,-28.99 224.1023,-18.756"/>
<polygon fill="#191970" stroke="#191970" points="224.7149,-15.3023 214.1677,-16.3052 223.0383,-22.0986 224.7149,-15.3023"/>
</g>
<!-- Node20&#45;&gt;Node16 -->
<g id="edge29" class="edge">
<title>Node20&#45;&gt;Node16</title>
<path fill="none" stroke="#191970" d="M465.3031,-56.4369C516.6962,-46.5468 596.7966,-31.1323 650.4514,-20.807"/>
<polygon fill="#191970" stroke="#191970" points="651.3227,-24.2036 660.4811,-18.8769 649.9998,-17.3297 651.3227,-24.2036"/>
</g>
<!-- Node20&#45;&gt;Node17 -->
<g id="edge30" class="edge">
<title>Node20&#45;&gt;Node17</title>
<path fill="none" stroke="#191970" d="M429.3698,-56.2455C441.2643,-47.814 458.6741,-35.4729 472.5176,-25.6598"/>
<polygon fill="#191970" stroke="#191970" points="474.8719,-28.2811 481.006,-19.6427 470.8237,-22.5704 474.8719,-28.2811"/>
</g>
<!-- Node22&#45;&gt;Node16 -->
<g id="edge37" class="edge">
<title>Node22&#45;&gt;Node16</title>
<path fill="none" stroke="#191970" d="M966.461,-58.5057C914.0125,-48.7153 821.8991,-31.5208 762.6084,-20.4532"/>
<polygon fill="#191970" stroke="#191970" points="763.1343,-16.991 752.6618,-18.5965 761.8498,-23.8721 763.1343,-16.991"/>
</g>
<!-- Node22&#45;&gt;Node17 -->
<g id="edge38" class="edge">
<title>Node22&#45;&gt;Node17</title>
<path fill="none" stroke="#191970" d="M966.3332,-61.3143C951.6311,-59.6187 934.87,-57.7029 919.6091,-56 786.0202,-41.0931 628.7256,-24.2541 548.1359,-15.6785"/>
<polygon fill="#191970" stroke="#191970" points="548.068,-12.1517 537.7539,-14.5744 547.3276,-19.1124 548.068,-12.1517"/>
</g>
<!-- Node23&#45;&gt;Node16 -->
<g id="edge40" class="edge">
<title>Node23&#45;&gt;Node16</title>
<path fill="none" stroke="#191970" d="M1064.3947,-57.4679C1061.4246,-56.9534 1058.4753,-56.4589 1055.6091,-56 952.7212,-39.526 832.0773,-24.5916 762.9661,-16.4533"/>
<polygon fill="#191970" stroke="#191970" points="763.079,-12.9427 752.7394,-15.2545 762.2639,-19.8951 763.079,-12.9427"/>
</g>
<!-- Node23&#45;&gt;Node17 -->
<g id="edge41" class="edge">
<title>Node23&#45;&gt;Node17</title>
<path fill="none" stroke="#191970" d="M1064.4189,-57.3041C1061.4429,-56.8291 1058.4858,-56.3882 1055.6091,-56 958.3311,-42.8713 668.2521,-22.02 547.8777,-13.6517"/>
<polygon fill="#191970" stroke="#191970" points="548.0122,-10.1527 537.7939,-12.9523 547.5278,-17.1359 548.0122,-10.1527"/>
</g>
</g>
</svg>
