<?xml version="1.0" encoding="UTF-8" standalone="no"?>
<!DOCTYPE svg PUBLIC "-//W3C//DTD SVG 1.1//EN"
 "http://www.w3.org/Graphics/SVG/1.1/DTD/svg11.dtd">
<!-- Generated by graphviz version 2.40.1 (20161225.0304)
 -->
<!-- Title: include Pages: 1 -->
<svg width="187pt" height="148pt"
 viewBox="0.00 0.00 187.00 148.00" xmlns="http://www.w3.org/2000/svg" xmlns:xlink="http://www.w3.org/1999/xlink">
<g id="graph0" class="graph" transform="scale(1 1) rotate(0) translate(4 144)">
<title>include</title>
<polygon fill="#ffffff" stroke="transparent" points="-4,4 -4,-144 183,-144 183,4 -4,4"/>
<g id="clust1" class="cluster">
<title>clusterdir_d44c64559bbebec7f509842c48db8b23</title>
<g id="a_clust1"><a xlink:href="dir_d44c64559bbebec7f509842c48db8b23.html" target="_top">
<polygon fill="#eeeeff" stroke="#000000" points="8,-8 8,-132 171,-132 171,-8 8,-8"/>
</a>
</g>
</g>
<!-- dir_d44c64559bbebec7f509842c48db8b23 -->
<g id="node1" class="node">
<title>dir_d44c64559bbebec7f509842c48db8b23</title>
<text text-anchor="middle" x="84" y="-103.5" font-family="Helvetica,sans-Serif" font-size="10.00" fill="#000000">include</text>
</g>
<!-- dir_f46f2c05841018b6ef8dbd3316ddb41a -->
<g id="node2" class="node">
<title>dir_f46f2c05841018b6ef8dbd3316ddb41a</title>
<g id="a_node2"><a xlink:href="dir_f46f2c05841018b6ef8dbd3316ddb41a.html" target="_top" xlink:title="freetds">
<polygon fill="#ffffff" stroke="#ff0000" points="70,-52 16,-52 16,-16 70,-16 70,-52"/>
<text text-anchor="middle" x="43" y="-31.5" font-family="Helvetica,sans-Serif" font-size="10.00" fill="#000000">freetds</text>
</a>
</g>
</g>
<!-- dir_d44c64559bbebec7f509842c48db8b23&#45;&gt;dir_f46f2c05841018b6ef8dbd3316ddb41a -->
<g id="edge1" class="edge">
<title>dir_d44c64559bbebec7f509842c48db8b23&#45;&gt;dir_f46f2c05841018b6ef8dbd3316ddb41a</title>
<path fill="none" stroke="#000000" d="M73.654,-87.8314C69.0763,-79.7925 63.5948,-70.1666 58.5412,-61.2918"/>
<polygon fill="#000000" stroke="#000000" points="61.4752,-59.3712 53.4853,-52.4133 55.3923,-62.8351 61.4752,-59.3712"/>
<g id="a_edge1&#45;headlabel"><a xlink:href="dir_000000_000001.html" target="_top" xlink:title="1">
<text text-anchor="middle" x="65.7212" y="-58.5899" font-family="Helvetica,sans-Serif" font-size="10.00" fill="#000000">1</text>
</a>
</g>
</g>
<!-- dir_e3997d4764d728ea089c0113f7ab9254 -->
<g id="node3" class="node">
<title>dir_e3997d4764d728ea089c0113f7ab9254</title>
<g id="a_node3"><a xlink:href="dir_e3997d4764d728ea089c0113f7ab9254.html" target="_top" xlink:title="replacements">
<polygon fill="#ffffff" stroke="#000000" points="163.5,-52 88.5,-52 88.5,-16 163.5,-16 163.5,-52"/>
<text text-anchor="middle" x="126" y="-31.5" font-family="Helvetica,sans-Serif" font-size="10.00" fill="#000000">replacements</text>
</a>
</g>
</g>
<!-- dir_d44c64559bbebec7f509842c48db8b23&#45;&gt;dir_e3997d4764d728ea089c0113f7ab9254 -->
<g id="edge2" class="edge">
<title>dir_d44c64559bbebec7f509842c48db8b23&#45;&gt;dir_e3997d4764d728ea089c0113f7ab9254</title>
<path fill="none" stroke="#000000" d="M94.5984,-87.8314C99.2877,-79.7925 104.9028,-70.1666 110.0798,-61.2918"/>
<polygon fill="#000000" stroke="#000000" points="113.2434,-62.8146 115.2589,-52.4133 107.1969,-59.2875 113.2434,-62.8146"/>
<g id="a_edge2&#45;headlabel"><a xlink:href="dir_000000_000003.html" target="_top" xlink:title="1">
<text text-anchor="middle" x="113.8847" y="-64.8502" font-family="Helvetica,sans-Serif" font-size="10.00" fill="#000000">1</text>
</a>
</g>
</g>
</g>
</svg>
