<?xml version="1.0" encoding="UTF-8" standalone="no"?>
<!DOCTYPE svg PUBLIC "-//W3C//DTD SVG 1.1//EN"
 "http://www.w3.org/Graphics/SVG/1.1/DTD/svg11.dtd">
<!-- Generated by graphviz version 2.40.1 (20161225.0304)
 -->
<!-- Title: src Pages: 1 -->
<svg width="764pt" height="132pt"
 viewBox="0.00 0.00 764.00 132.00" xmlns="http://www.w3.org/2000/svg" xmlns:xlink="http://www.w3.org/1999/xlink">
<g id="graph0" class="graph" transform="scale(1 1) rotate(0) translate(4 128)">
<title>src</title>
<polygon fill="#ffffff" stroke="transparent" points="-4,4 -4,-128 760,-128 760,4 -4,4"/>
<g id="clust1" class="cluster">
<title>clusterdir_68267d1309a1af8e8297ef4c3efbcdba</title>
<g id="a_clust1"><a xlink:href="dir_68267d1309a1af8e8297ef4c3efbcdba.html" target="_top">
<polygon fill="#eeeeff" stroke="#000000" points="8,-64 8,-116 748,-116 748,-64 8,-64"/>
</a>
</g>
</g>
<!-- dir_68267d1309a1af8e8297ef4c3efbcdba -->
<g id="node1" class="node">
<title>dir_68267d1309a1af8e8297ef4c3efbcdba</title>
<text text-anchor="middle" x="713" y="-87.5" font-family="Helvetica,sans-Serif" font-size="10.00" fill="#000000">src</text>
</g>
<!-- dir_53adf0b982dc8545998aae3f283a5a58 -->
<g id="node2" class="node">
<title>dir_53adf0b982dc8545998aae3f283a5a58</title>
<g id="a_node2"><a xlink:href="dir_53adf0b982dc8545998aae3f283a5a58.html" target="_top" xlink:title="apps">
<polygon fill="#ffffff" stroke="#ff0000" points="668,-108 614,-108 614,-72 668,-72 668,-108"/>
<text text-anchor="middle" x="641" y="-87.5" font-family="Helvetica,sans-Serif" font-size="10.00" fill="#000000">apps</text>
</a>
</g>
</g>
<!-- dir_d44c64559bbebec7f509842c48db8b23 -->
<g id="node11" class="node">
<title>dir_d44c64559bbebec7f509842c48db8b23</title>
<g id="a_node11"><a xlink:href="dir_d44c64559bbebec7f509842c48db8b23.html" target="_top" xlink:title="include">
<polygon fill="#ffffff" stroke="#ff0000" points="416,-36 362,-36 362,0 416,0 416,-36"/>
<text text-anchor="middle" x="389" y="-15.5" font-family="Helvetica,sans-Serif" font-size="10.00" fill="#000000">include</text>
</a>
</g>
</g>
<!-- dir_53adf0b982dc8545998aae3f283a5a58&#45;&gt;dir_d44c64559bbebec7f509842c48db8b23 -->
<g id="edge7" class="edge">
<title>dir_53adf0b982dc8545998aae3f283a5a58&#45;&gt;dir_d44c64559bbebec7f509842c48db8b23</title>
<path fill="none" stroke="#000000" d="M619.0236,-71.9693C614.5781,-68.9577 609.7919,-66.1265 605,-64 545.6271,-37.6524 470.2385,-26.0315 426.0355,-21.1847"/>
<polygon fill="#000000" stroke="#000000" points="426.3381,-17.6974 416.03,-20.1456 425.6149,-24.66 426.3381,-17.6974"/>
<g id="a_edge7&#45;headlabel"><a xlink:href="dir_000005_000000.html" target="_top" xlink:title="10">
<text text-anchor="middle" x="430.2067" y="-12.7446" font-family="Helvetica,sans-Serif" font-size="10.00" fill="#000000">10</text>
</a>
</g>
</g>
<!-- dir_99d384962ca3f8ea1fb7b61d44d1972c -->
<g id="node3" class="node">
<title>dir_99d384962ca3f8ea1fb7b61d44d1972c</title>
<g id="a_node3"><a xlink:href="dir_99d384962ca3f8ea1fb7b61d44d1972c.html" target="_top" xlink:title="ctlib">
<polygon fill="#ffffff" stroke="#000000" points="596,-108 542,-108 542,-72 596,-72 596,-108"/>
<text text-anchor="middle" x="569" y="-87.5" font-family="Helvetica,sans-Serif" font-size="10.00" fill="#000000">ctlib</text>
</a>
</g>
</g>
<!-- dir_99d384962ca3f8ea1fb7b61d44d1972c&#45;&gt;dir_d44c64559bbebec7f509842c48db8b23 -->
<g id="edge4" class="edge">
<title>dir_99d384962ca3f8ea1fb7b61d44d1972c&#45;&gt;dir_d44c64559bbebec7f509842c48db8b23</title>
<path fill="none" stroke="#000000" d="M546.0585,-71.8136C541.8576,-68.9594 537.405,-66.2229 533,-64 498.5222,-46.6016 456.1026,-34.0061 426.2627,-26.4405"/>
<polygon fill="#000000" stroke="#000000" points="426.8135,-22.9715 416.2662,-23.9746 425.1369,-29.7678 426.8135,-22.9715"/>
<g id="a_edge4&#45;headlabel"><a xlink:href="dir_000006_000000.html" target="_top" xlink:title="1">
<text text-anchor="middle" x="430.9835" y="-18.5757" font-family="Helvetica,sans-Serif" font-size="10.00" fill="#000000">1</text>
</a>
</g>
</g>
<!-- dir_a40d3d1dfafadc5a5d3063931c3db36e -->
<g id="node4" class="node">
<title>dir_a40d3d1dfafadc5a5d3063931c3db36e</title>
<g id="a_node4"><a xlink:href="dir_a40d3d1dfafadc5a5d3063931c3db36e.html" target="_top" xlink:title="dblib">
<polygon fill="#ffffff" stroke="#000000" points="524,-108 470,-108 470,-72 524,-72 524,-108"/>
<text text-anchor="middle" x="497" y="-87.5" font-family="Helvetica,sans-Serif" font-size="10.00" fill="#000000">dblib</text>
</a>
</g>
</g>
<!-- dir_a40d3d1dfafadc5a5d3063931c3db36e&#45;&gt;dir_d44c64559bbebec7f509842c48db8b23 -->
<g id="edge8" class="edge">
<title>dir_a40d3d1dfafadc5a5d3063931c3db36e&#45;&gt;dir_d44c64559bbebec7f509842c48db8b23</title>
<path fill="none" stroke="#000000" d="M472.343,-71.9103C468.5684,-69.2231 464.6981,-66.5138 461,-64 449.3669,-56.0924 436.4729,-47.7314 424.8482,-40.3378"/>
<polygon fill="#000000" stroke="#000000" points="426.5699,-37.2855 416.2481,-34.896 422.827,-43.2007 426.5699,-37.2855"/>
<g id="a_edge8&#45;headlabel"><a xlink:href="dir_000007_000000.html" target="_top" xlink:title="14">
<text text-anchor="middle" x="431.1257" y="-34.3082" font-family="Helvetica,sans-Serif" font-size="10.00" fill="#000000">14</text>
</a>
</g>
</g>
<!-- dir_807893467092ee3c78fdb68ff7be3fa1 -->
<g id="node5" class="node">
<title>dir_807893467092ee3c78fdb68ff7be3fa1</title>
<g id="a_node5"><a xlink:href="dir_807893467092ee3c78fdb68ff7be3fa1.html" target="_top" xlink:title="odbc">
<polygon fill="#ffffff" stroke="#000000" points="452,-108 398,-108 398,-72 452,-72 452,-108"/>
<text text-anchor="middle" x="425" y="-87.5" font-family="Helvetica,sans-Serif" font-size="10.00" fill="#000000">odbc</text>
</a>
</g>
</g>
<!-- dir_807893467092ee3c78fdb68ff7be3fa1&#45;&gt;dir_d44c64559bbebec7f509842c48db8b23 -->
<g id="edge2" class="edge">
<title>dir_807893467092ee3c78fdb68ff7be3fa1&#45;&gt;dir_d44c64559bbebec7f509842c48db8b23</title>
<path fill="none" stroke="#000000" d="M415.9157,-71.8314C411.9385,-63.8771 407.1845,-54.369 402.7861,-45.5723"/>
<polygon fill="#000000" stroke="#000000" points="405.8093,-43.7923 398.2066,-36.4133 399.5483,-46.9228 405.8093,-43.7923"/>
<g id="a_edge2&#45;headlabel"><a xlink:href="dir_000008_000000.html" target="_top" xlink:title="3">
<text text-anchor="middle" x="409.9563" y="-43.2377" font-family="Helvetica,sans-Serif" font-size="10.00" fill="#000000">3</text>
</a>
</g>
</g>
<!-- dir_e2de76ba30642a92752881ffd21fbc7e -->
<g id="node6" class="node">
<title>dir_e2de76ba30642a92752881ffd21fbc7e</title>
<g id="a_node6"><a xlink:href="dir_e2de76ba30642a92752881ffd21fbc7e.html" target="_top" xlink:title="pool">
<polygon fill="#ffffff" stroke="#000000" points="380,-108 326,-108 326,-72 380,-72 380,-108"/>
<text text-anchor="middle" x="353" y="-87.5" font-family="Helvetica,sans-Serif" font-size="10.00" fill="#000000">pool</text>
</a>
</g>
</g>
<!-- dir_e2de76ba30642a92752881ffd21fbc7e&#45;&gt;dir_d44c64559bbebec7f509842c48db8b23 -->
<g id="edge6" class="edge">
<title>dir_e2de76ba30642a92752881ffd21fbc7e&#45;&gt;dir_d44c64559bbebec7f509842c48db8b23</title>
<path fill="none" stroke="#000000" d="M362.0843,-71.8314C366.0615,-63.8771 370.8155,-54.369 375.2139,-45.5723"/>
<polygon fill="#000000" stroke="#000000" points="378.4517,-46.9228 379.7934,-36.4133 372.1907,-43.7923 378.4517,-46.9228"/>
<g id="a_edge6&#45;headlabel"><a xlink:href="dir_000009_000000.html" target="_top" xlink:title="2">
<text text-anchor="middle" x="379.3837" y="-48.9077" font-family="Helvetica,sans-Serif" font-size="10.00" fill="#000000">2</text>
</a>
</g>
</g>
<!-- dir_bee58700ce781bb55a015c4ff9b057cf -->
<g id="node7" class="node">
<title>dir_bee58700ce781bb55a015c4ff9b057cf</title>
<g id="a_node7"><a xlink:href="dir_bee58700ce781bb55a015c4ff9b057cf.html" target="_top" xlink:title="replacements">
<polygon fill="#ffffff" stroke="#000000" points="307.5,-108 232.5,-108 232.5,-72 307.5,-72 307.5,-108"/>
<text text-anchor="middle" x="270" y="-87.5" font-family="Helvetica,sans-Serif" font-size="10.00" fill="#000000">replacements</text>
</a>
</g>
</g>
<!-- dir_bee58700ce781bb55a015c4ff9b057cf&#45;&gt;dir_d44c64559bbebec7f509842c48db8b23 -->
<g id="edge1" class="edge">
<title>dir_bee58700ce781bb55a015c4ff9b057cf&#45;&gt;dir_d44c64559bbebec7f509842c48db8b23</title>
<path fill="none" stroke="#000000" d="M300.0287,-71.8314C316.2113,-62.0402 336.2851,-49.8947 353.2676,-39.6196"/>
<polygon fill="#000000" stroke="#000000" points="355.0855,-42.6105 361.8295,-34.4393 351.4618,-36.6214 355.0855,-42.6105"/>
<g id="a_edge1&#45;headlabel"><a xlink:href="dir_000010_000000.html" target="_top" xlink:title="1">
<text text-anchor="middle" x="353.4798" y="-44.4005" font-family="Helvetica,sans-Serif" font-size="10.00" fill="#000000">1</text>
</a>
</g>
</g>
<!-- dir_075bb3ff235063c77951cd176d15a741 -->
<g id="node8" class="node">
<title>dir_075bb3ff235063c77951cd176d15a741</title>
<g id="a_node8"><a xlink:href="dir_075bb3ff235063c77951cd176d15a741.html" target="_top" xlink:title="server">
<polygon fill="#ffffff" stroke="#000000" points="214,-108 160,-108 160,-72 214,-72 214,-108"/>
<text text-anchor="middle" x="187" y="-87.5" font-family="Helvetica,sans-Serif" font-size="10.00" fill="#000000">server</text>
</a>
</g>
</g>
<!-- dir_075bb3ff235063c77951cd176d15a741&#45;&gt;dir_d44c64559bbebec7f509842c48db8b23 -->
<g id="edge3" class="edge">
<title>dir_075bb3ff235063c77951cd176d15a741&#45;&gt;dir_d44c64559bbebec7f509842c48db8b23</title>
<path fill="none" stroke="#000000" d="M210.1511,-71.9577C214.5891,-69.0196 219.3168,-66.2174 224,-64 265.6519,-44.2785 317.3395,-31.5772 351.6495,-24.6237"/>
<polygon fill="#000000" stroke="#000000" points="352.5708,-28.0097 361.7092,-22.6488 351.2222,-21.1408 352.5708,-28.0097"/>
<g id="a_edge3&#45;headlabel"><a xlink:href="dir_000011_000000.html" target="_top" xlink:title="4">
<text text-anchor="middle" x="349.5904" y="-28.9882" font-family="Helvetica,sans-Serif" font-size="10.00" fill="#000000">4</text>
</a>
</g>
</g>
<!-- dir_f7308370ebb9c2ff76f3bdfe0748aabf -->
<g id="node9" class="node">
<title>dir_f7308370ebb9c2ff76f3bdfe0748aabf</title>
<g id="a_node9"><a xlink:href="dir_f7308370ebb9c2ff76f3bdfe0748aabf.html" target="_top" xlink:title="tds">
<polygon fill="#ffffff" stroke="#ff0000" points="142,-108 88,-108 88,-72 142,-72 142,-108"/>
<text text-anchor="middle" x="115" y="-87.5" font-family="Helvetica,sans-Serif" font-size="10.00" fill="#000000">tds</text>
</a>
</g>
</g>
<!-- dir_f7308370ebb9c2ff76f3bdfe0748aabf&#45;&gt;dir_d44c64559bbebec7f509842c48db8b23 -->
<g id="edge5" class="edge">
<title>dir_f7308370ebb9c2ff76f3bdfe0748aabf&#45;&gt;dir_d44c64559bbebec7f509842c48db8b23</title>
<path fill="none" stroke="#000000" d="M136.9442,-71.8959C141.3927,-68.8911 146.1882,-66.0811 151,-64 217.9729,-35.0344 303.4018,-24.2038 351.5644,-20.2301"/>
<polygon fill="#000000" stroke="#000000" points="352.126,-23.6973 361.8284,-19.4412 351.5896,-16.7179 352.126,-23.6973"/>
<g id="a_edge5&#45;headlabel"><a xlink:href="dir_000012_000000.html" target="_top" xlink:title="25">
<text text-anchor="middle" x="348.7595" y="-24.3036" font-family="Helvetica,sans-Serif" font-size="10.00" fill="#000000">25</text>
</a>
</g>
</g>
<!-- dir_313caf1132e152dd9b58bea13a4052ca -->
<g id="node10" class="node">
<title>dir_313caf1132e152dd9b58bea13a4052ca</title>
<g id="a_node10"><a xlink:href="dir_313caf1132e152dd9b58bea13a4052ca.html" target="_top" xlink:title="utils">
<polygon fill="#ffffff" stroke="#000000" points="70,-108 16,-108 16,-72 70,-72 70,-108"/>
<text text-anchor="middle" x="43" y="-87.5" font-family="Helvetica,sans-Serif" font-size="10.00" fill="#000000">utils</text>
</a>
</g>
</g>
</g>
</svg>
